/* XPM */
static char *result[] = {
/* columns rows colors chars-per-pixel */
"45 45 202 2 ",
"   c #B1220E",
".  c #BF3B0E",
"X  c #CC3E04",
"o  c #CB3C0B",
"O  c #C83609",
"+  c #D33C05",
"@  c #D8370A",
"#  c #D13C09",
"$  c #B84F1D",
"%  c #B4592D",
"&  c #CD4205",
"*  c #C5440B",
"=  c #CC420B",
"-  c #C7480B",
";  c #D34404",
":  c #D94502",
">  c #D54A04",
",  c #DC4C05",
"<  c #D1440C",
"1  c #D84608",
"2  c #DA4C0B",
"3  c #D24A08",
"4  c #DB5404",
"5  c #D3530B",
"6  c #DC5609",
"7  c #CD4610",
"8  c #CA4C1A",
"9  c #D14616",
"0  c #CA5019",
"q  c #CA591D",
"w  c #D15110",
"e  c #DA5D16",
"r  c #DB5319",
"t  c #DC5A15",
"y  c #E04904",
"u  c #E35505",
"i  c #E25B06",
"p  c #E95806",
"a  c #E3590B",
"s  c #EA5F0B",
"d  c #E1570B",
"f  c #CF6A1E",
"g  c #C8631F",
"h  c #D96918",
"j  c #D56617",
"k  c #EC6405",
"l  c #EC6509",
"z  c #E8690B",
"x  c #F46C07",
"c  c #F56B0C",
"v  c #FB6E0A",
"b  c #F56908",
"n  c #FC7406",
"m  c #F77E06",
"M  c #FB7F06",
"N  c #F3740D",
"B  c #FB740A",
"V  c #FC7B0C",
"C  c #E1661A",
"Z  c #E86A11",
"A  c #EA7A19",
"S  c #F27512",
"D  c #FA7D11",
"F  c #FA7F1B",
"G  c #C55422",
"H  c #D35D22",
"J  c #D85F30",
"K  c #D06E29",
"L  c #CB6435",
"P  c #D66933",
"I  c #DC7830",
"U  c #DA7839",
"Y  c #E66F21",
"T  c #E77322",
"R  c #D37F4D",
"E  c #E07941",
"W  c #FC820B",
"Q  c #FD870A",
"!  c #F68610",
"~  c #FB8512",
"^  c #FB8B15",
"/  c #F58D1A",
"(  c #FC8D1A",
")  c #F7901F",
"_  c #FA921D",
"`  c #F99312",
"'  c #DD972B",
"]  c #DD8A33",
"[  c #DF9937",
"{  c #E68B2C",
"}  c #F08128",
"|  c #F58D26",
" . c #EF922D",
".. c #F79024",
"X. c #FA9524",
"o. c #FB9B25",
"O. c #F79C29",
"+. c #F79C26",
"@. c #E48132",
"#. c #E68937",
"$. c #E18F3A",
"%. c #F18E30",
"&. c #EF9230",
"*. c #E49C33",
"=. c #EB9C34",
"-. c #E49A3D",
";. c #E8993C",
":. c #F59C30",
">. c #F89D3A",
",. c #FAA027",
"<. c #F2A42B",
"1. c #FBA32B",
"2. c #FEAB2E",
"3. c #F9A826",
"4. c #EDA434",
"5. c #E3A13B",
"6. c #E6A83C",
"7. c #F6A435",
"8. c #FAA335",
"9. c #F4AB33",
"0. c #FBAB34",
"q. c #F6A43B",
"w. c #F9A23A",
"e. c #F4AD3C",
"r. c #FDAA3B",
"t. c #FCB33E",
"y. c #FEBA3F",
"u. c #C99F4A",
"i. c #D89E4E",
"p. c #DF9E5E",
"a. c #E39D41",
"s. c #EF9C40",
"d. c #E59946",
"f. c #F79F44",
"g. c #CAA84D",
"h. c #DEA243",
"j. c #D8A14D",
"k. c #DAA057",
"l. c #D9A958",
"z. c #DEB659",
"x. c #E4A343",
"c. c #E4A44C",
"v. c #ECA74A",
"b. c #F8A540",
"n. c #F1AB43",
"m. c #F9AC44",
"M. c #F4AA4B",
"N. c #E8B14F",
"B. c #FCB94B",
"V. c #F9B345",
"C. c #E6A151",
"Z. c #E7A953",
"A. c #F9AF58",
"S. c #F0AA52",
"D. c #F8B250",
"F. c #F7B957",
"G. c #FAB850",
"H. c #F3BC5C",
"J. c #F7B452",
"K. c #DCBA65",
"L. c #E6B967",
"P. c #F5BD6A",
"I. c #FDC046",
"U. c #FCC34B",
"Y. c #FCC153",
"T. c #FBCC5D",
"R. c #FBC956",
"E. c #E2C660",
"W. c #EEC869",
"Q. c #F4C766",
"!. c #FCC665",
"~. c #F3CA65",
"^. c #FCCB65",
"/. c #FCC76E",
"(. c #F5CB6C",
"). c #FBCC6B",
"_. c #FCD16C",
"`. c #FCD166",
"'. c #E3C077",
"]. c #E8C971",
"[. c #F2CB73",
"{. c #F4CC79",
"}. c #F5C579",
"|. c #F7D272",
" X c #FCD375",
".X c #FDD47C",
"XX c #FBD384",
"oX c #FBDA87",
"OX c #F7D788",
"+X c #FCD689",
"@X c #FCD98B",
"#X c #FDD793",
"$X c #FBDC93",
"%X c #FEDD9C",
"&X c #F6DC92",
"*X c #FDE09D",
"=X c #D3C4AC",
"-X c #FEDEA3",
";X c #FEDEAC",
":X c #FDE1A5",
">X c #FCE1A9",
",X c None",
/* pixels */
",X,X,X,X,X,X,X,X,X,X,X,X,X,X,X,X,X,X,X,X,X,X,X,X,X,X,X,X,X,X,X,X,X,X,X,X,X,X,X,X,X,X,X,X,X",
",X,X,X,X,X,X,X,X,X,X,X,X,X,X,X,X,X,X,X,X,X,X,X,X,X,X,X,X,X,X,X,X,X,X,X,X,X,X,X,X,X,X,X,X,X",
",X,X,X,X,X,X,X,X,X,X,X,X,X,X,X,X,X,X,X,X,X,X,X,X,X,X,X,X,X,X,X,X,X,X,X,X,X,X,X,X,X,X,X,X,X",
",X,X,X,X,X,X,X,X,X,X,X,X,X,X,X,X,X,X,X,X,X,X,X,X,X,X,X,X,X,X,X,X,X,X,X,X,X,X,X,X,X,X,X,X,X",
",X,X,X,X,X,X,X,X,X,X,X,X,X,X,X,X,X,X,X,X,X,X,X,X,X,X,X,X,X,X,X,X,X,X,X,X,X,X,X,X,X,X,X,X,X",
",X,X,X,X,X,X,X,X,X,X,X,X,X,X,X,X,X,X,X,Xx.,X,X,X,X,X,X,X,X,X,X,X,X,X,X,X,X,X,X,X,X,X,X,X,X",
",X,X,X,X,X,X,X,X,X,X,X,X,X,X,X,X,X,X,Xh.x.,X,X,X,X,X,X,X,X,X,X,X,X,X,X,X,X,X,X,X,X,X,X,X,X",
",X,X,X,X,X,X,X,X,X,X,X,X,X,X,X,X,X,X,Xd.9.,X,X,X,X,X,X,X,X,X,X,X,X,X,X,X,X,X,X,X,X,X,X,X,X",
",X,X,X,X,X,X,X,X,X,X,X,X,X,X,X,X,X,X,Xs.3.,X,X,X,X,XK.,X,X,X,X,X,X,X,X,X,X,X,X,X,X,X,X,X,X",
",X,X,X,X,X,X,X,X,X,X,X,X,Xz.P.,X,X,X,X4.8.$.,X,X,XL.(.,X,X,X,X,Xj.,X,X,X,X,X,X,X,X,X,X,X,X",
",X,X,X,X,X,X,X,X,X,X,X,X,X,XQ.P.,X,X,X&.T 2 * ,X$ K I ,X,X,X,X4.h.,X,X,X,X,X,X,X,X,X,X,X,X",
",X,X,X,X,X,X,Xl.,X,X,X,X,X,Xp.f < ; > 5 < , 2 2 2 1 + ; . ] q.7.,X,X,X,X,X,X=X,X,X,X,X,X,X",
",X,X,X,X,X,X,X,XZ.e.5.,X,X,XO + > 2 u z T 6 z Z x k 4 2 ; 2  .,X,X,X,X,X,X,X,X,X,X,X,X,X,X",
",X,X,X,X,X,X,X,X,X6.0.w.8.f X , 4 s D ~ b.| ^ ~ ~ W N a 2 < w ,X,X,X,X,X,X,X,X,X,X,X,X,X,X",
",X,X,X,X,X,X,X,X,X,X=.2.>.t : k N V ! ( M.q._ X.( ^ W S 4 2 8 ,X,X,X,X,X,X,X,X,X,X,X,X,X,X",
",X,X,X,X,X,X,X,X,X,X,X*.h : l V ~ ^ ,.t.^./.B.U.r._ ` ! Z E P ,X,X,X,X,X,X,X,X,X,X,X,X,X,X",
",X,X,X,X,X,X,X,X,X,X,X,X& 4 B ~ ^ o.U.T.|.#X|._.^.G.0.w.A.#.- ,X,X,X,X,X,X,X,X,X,X,X,X,X,X",
",X,X,X,X,X,X,X,X,X,X,X,XJ T ~ / X.0.R.).XX-X&XoX X XOXXXw.V a - ,X,X,X,X,X,X,X,X,X,X,X,X,X",
",X,X,X,X,X,X,X,X,X,XR 9 r @.S.D.F./._.XX*X>X-X-X%X$X&X).o.! c y & ,X,X,X,X,X,X,X,X,X,X,X,X",
",X,X,X,X,X,X,XL.Q.H.q : 6 N ! :.).@X$X*X:X>X:X:X;X-X.XT.0.^ S 2 > X ,X,X,X,X,X,X,X,X,X,X,X",
",X,X,X,X,X,X,XE.Q.d.X : c m W X.U.^.@X>X:X:X>X;X>X>X$X_.U.` N y : + g ;.*.x.k.,X,X,X,X,X,X",
",X,X,X,X,X,X,X,X,X% X y v m Q X.I.T.+X>X;X:X:X:X:X*X-X#XXXD.%.e 1 # j 3.4.-.,X,X,X,X,X,X,X",
",X,X,X,X,X,X,X,X,X$ X , n V ~ ( t._.@X*X:X-X:X;X>X:XoX).T.O.~ s ; @ j [ ,X,X,X,X,X,X,X,X,X",
",X,X,X,X,X,X,X6.0.A X ; l n V / n. X.X.X@X%X-X:X-X*XXX~.y.~ V s : O ,X,X,X,X,X,X,X,X,X,X,X",
",X,X,X,X,XS.m.2.2.O.9 + , x D O.M.b.n.^._. X#X&X.X.XoX(.O.M B a & L ,X,X,X,X,X,X,X,X,X,X,X",
",X,X,Xz.N.v.C.c.5.d.G + : , z S S _ o.r.^. X X.X^.^.R.m...V v 2 U }.{.,X,X,X,X,X,X,X,X,X,X",
",X,X,X,X,X,X,X,X,X,X,Xo & ; , 4 i N ( +.r.t.F.!.Y.B.o.~ D n i 9 P. X X[.,X,X,X,X,X,X,X,X,X",
",X,X,X,X,X,X,X,X,X,X,X,XX ; > 2 6 6 N ^ ^ ( M.>.` ( ~ W z u & e {. X_.`.`.,X,X,X,X,X,X,X,X",
",X,X,X,X,X,X,X,X,X,X,X,X,Xo : : > 2 a N Q ! >.| W W V k > : 5 { '.[.[.W.(.~.E.,X,X,X,X,X,X",
",X,X,X,X,X,X,X,X,X,X,X,X,X,X* + > ; 2 6 l N %.~ n z p : C } X.<.,X,X,X,X,X,X,X,X,X,X,X,X,X",
",X,X,X,X,X,X,X,X,X,X,X,X,X,Xc.U 0 = t > ; > C a , > : * @.:.o.1.=.,X,X,X,X,X,X,X,X,X,X,X,X",
",X,X,X,X,X,X,X,X,X,X,X,X,X,X|.}.,X,X+.A r r 8 - = X O ,X,X,X' <.q.,X,X,X,X,X,X,X,X,X,X,X,X",
",X,X,X,X,X,X,X,X,X,X,X,X,X,X].,X,X,X:.o.,.] ,X,X  ,X,X,X,X,X,X,X4.6.,X,X,X,X,X,X,X,X,X,X,X",
",X,X,X,X,X,X,X,X,X,X,X,X,X,X,X,X,X,X1.o.*.,X,X,X,X,X,X,X,X,X,X,X,X,Xg.,X,X,X,X,X,X,X,X,X,X",
",X,X,X,X,X,X,X,X,X,X,X,X,X,X,X,X,X,X7.8.,X,X,X,X,X,X,X,X,X,X,X,X,X,X,X,X,X,X,X,X,X,X,X,X,X",
",X,X,X,X,X,X,X,X,X,X,X,X,X,X,X,X,X,Xn.;.,X,X,X,X,X,X,X,X,X,X,X,X,X,X,X,X,X,X,X,X,X,X,X,X,X",
",X,X,X,X,X,X,X,X,X,X,X,X,X,X,X,X,X,Xn.,X,X,X,X,X,X,X,X,X,X,X,X,X,X,X,X,X,X,X,X,X,X,X,X,X,X",
",X,X,X,X,X,X,X,X,X,X,X,X,X,X,X,X,X,Xv.,X,X,X,X,X,X,X,X,X,X,X,X,X,X,X,X,X,X,X,X,X,X,X,X,X,X",
",X,X,X,X,X,X,X,X,X,X,X,X,X,X,X,X,Xi.,X,X,X,X,X,X,X,X,X,X,X,X,X,X,X,X,X,X,X,X,X,X,X,X,X,X,X",
",X,X,X,X,X,X,X,X,X,X,X,X,X,X,X,X,Xg.,X,X,X,X,X,X,X,X,X,X,X,X,X,X,X,X,X,X,X,X,X,X,X,X,X,X,X",
",X,X,X,X,X,X,X,X,X,X,X,X,X,X,X,X,X,X,X,X,X,X,X,X,X,X,X,X,X,X,X,X,X,X,X,X,X,X,X,X,X,X,X,X,X",
",X,X,X,X,X,X,X,X,X,X,X,X,X,X,X,X,X,X,X,X,X,X,X,X,X,X,X,X,X,X,X,X,X,X,X,X,X,X,X,X,X,X,X,X,X",
",X,X,X,X,X,X,X,X,X,X,X,X,X,X,X,X,X,X,X,X,X,X,X,X,X,X,X,X,X,X,X,X,X,X,X,X,X,X,X,X,X,X,X,X,X",
",X,X,X,X,X,X,X,X,X,X,X,X,X,X,X,X,X,X,X,X,X,X,X,X,X,X,X,X,X,X,X,X,X,X,X,X,X,X,X,X,X,X,X,X,X",
",X,X,X,X,X,X,X,X,X,X,X,X,X,X,X,X,X,X,X,X,X,X,X,X,X,X,X,X,X,X,X,X,X,X,X,X,X,X,X,X,X,X,X,X,X"
};
