/* XPM */
static char *result[] = {
/* columns rows colors chars-per-pixel */
"45 45 213 2 ",
"   c #BC2D0B",
".  c #B72C0E",
"X  c #BD3505",
"o  c #BD390C",
"O  c #B53609",
"+  c #AB2C15",
"@  c #B42E12",
"#  c #AD3219",
"$  c #BF3212",
"%  c #BE3618",
"&  c #B23612",
"*  c #C52C04",
"=  c #CA2D04",
"-  c #C32D0A",
";  c #C53404",
":  c #CB3404",
">  c #C63C07",
",  c #CC3B05",
"<  c #C3350B",
"1  c #CB3409",
"2  c #C43A0C",
"3  c #CC3A0A",
"4  c #D23C04",
"5  c #D93C05",
"6  c #D33C09",
"7  c #D53B07",
"8  c #C23110",
"9  c #C63819",
"0  c #C83D12",
"q  c #B24418",
"w  c #C74101",
"e  c #CC4105",
"r  c #CA430A",
"t  c #C74509",
"y  c #D34304",
"u  c #DA4505",
"i  c #D54A04",
"p  c #DA4C05",
"a  c #D4440A",
"s  c #DA450B",
"d  c #D44B0A",
"f  c #DB4B0A",
"g  c #D55205",
"h  c #DD5205",
"j  c #D4500F",
"k  c #DB530A",
"l  c #D9590F",
"z  c #CB4C12",
"x  c #DF4D11",
"c  c #D04518",
"v  c #DA4312",
"b  c #C95418",
"n  c #D65110",
"m  c #DF5419",
"M  c #DF5D19",
"N  c #D85715",
"B  c #E14C06",
"V  c #E2450E",
"C  c #E24C0A",
"Z  c #E84E09",
"A  c #E04506",
"S  c #E35306",
"D  c #E95506",
"F  c #E65A04",
"G  c #E3530A",
"H  c #EC530C",
"J  c #E45A0A",
"K  c #E95A09",
"L  c #E85B07",
"P  c #E94C10",
"I  c #E25010",
"U  c #E15810",
"Y  c #E75915",
"T  c #EA6105",
"R  c #E6660C",
"E  c #EC670B",
"W  c #F36B05",
"Q  c #F3690D",
"!  c #F47207",
"~  c #FB7A06",
"^  c #FA750A",
"/  c #FC7E0A",
"(  c #F7700A",
")  c #EE6B10",
"_  c #E56B1B",
"`  c #F36C15",
"'  c #EC751D",
"]  c #EA7617",
"[  c #FE7D17",
"{  c #C55327",
"}  c #D65825",
"|  c #D65831",
" . c #DC6A2B",
".. c #DE7226",
"X. c #DB7B3E",
"o. c #E1722A",
"O. c #E37F3B",
"+. c #FC840D",
"@. c #FD8412",
"#. c #FA8913",
"$. c #FE8E19",
"%. c #F48011",
"&. c #F79019",
"*. c #FC931B",
"=. c #F59617",
"-. c #EB8A2B",
";. c #F48720",
":. c #F68726",
">. c #FD9524",
",. c #FC9A23",
"<. c #FB9D2B",
"1. c #F6972B",
"2. c #F49830",
"3. c #F69E38",
"4. c #FCA22C",
"5. c #FAA72E",
"6. c #FBA632",
"7. c #FBAB34",
"8. c #F6A33E",
"9. c #F9A638",
"0. c #F6A333",
"q. c #FCB53C",
"w. c #DB8548",
"e. c #E5814D",
"r. c #EB904A",
"t. c #F99940",
"y. c #E19E58",
"u. c #CFAE5F",
"i. c #EFA64C",
"p. c #F9AE42",
"a. c #F8B540",
"s. c #FCB943",
"d. c #FDBD4C",
"f. c #FBB648",
"g. c #E5A858",
"h. c #E9BE55",
"j. c #FBBC53",
"k. c #F8B75E",
"l. c #DCBE69",
"z. c #CFB170",
"x. c #E0BC63",
"c. c #E3BE6E",
"v. c #F3BD61",
"b. c #F8BD65",
"n. c #E1BF70",
"m. c #DDC15E",
"M. c #FCC145",
"N. c #FDC34C",
"B. c #E1C25B",
"V. c #EBC35C",
"C. c #EBC555",
"Z. c #F0C450",
"A. c #FCC254",
"S. c #FDCA56",
"D. c #FCC55A",
"F. c #F6CA5E",
"G. c #FCCA5C",
"H. c #FCD05C",
"J. c #DFCA6B",
"K. c #E4C163",
"L. c #EEC266",
"P. c #EECC65",
"I. c #ECC46B",
"U. c #E5C86B",
"Y. c #F2CD64",
"T. c #FCCD64",
"R. c #F4CC6C",
"E. c #FCCD6C",
"W. c #F4C565",
"Q. c #FAD266",
"!. c #F7D16A",
"~. c #F9D16D",
"^. c #ECC47C",
"/. c #ECCA7B",
"(. c #EDC375",
"). c #FCCE74",
"_. c #F7CF7E",
"`. c #FACE79",
"'. c #F4C971",
"]. c #EFD370",
"[. c #FCD273",
"{. c #F4D27D",
"}. c #FBD47B",
"|. c #F7D679",
" X c #EBCB84",
".X c #F5CD84",
"XX c #FCD483",
"oX c #FCD984",
"OX c #FCD68A",
"+X c #F7DC88",
"@X c #FDDA8C",
"#X c #F3D580",
"$X c #EBC995",
"%X c #FCD791",
"&X c #FCDB94",
"*X c #FED69A",
"=X c #FFDC9A",
"-X c #FDE19E",
";X c #DDC9A8",
":X c #E6CBA3",
">X c #EEDAAE",
",X c #EBD5A7",
"<X c #FDDEA4",
"1X c #FEDFAA",
"2X c #F4D9A9",
"3X c #EDD6B2",
"4X c #E8D3B5",
"5X c #F6DDB5",
"6X c #FFDEB0",
"7X c #FEE1A3",
"8X c #FCE1AA",
"9X c #F6E0AB",
"0X c None",
/* pixels */
"0X0X0X0X0X0X0X0X0X0X0X0X0X0X0X0X0X0X0X0X0X0X0X0X0X0X0X0X0X0X0X0X0X0X0X0X0X0X0X0X0X0X0X0X0X",
"0X0X0X0X0X0X0X0X0X0X0X0X0X0X0X0X0X0X0X0X0X0X0X0X0X0X0X0X0X0X0X0X0X0X0X0X0X0X0X0X0X0X0X0X0X",
"0X0X0X0X0X0X0X0X0X0X0X0X0X0X0X0X0X0X0X0X0X0X0X0X0X0X0X0X0X0X0X0X0X0X0X0X0X0X0X0X0X0X0X0X0X",
"0X0X0X0X0X0X0X0X0X0X0X0X0X0X0X0X0X0X0X0X0X0X0X0X0X0X0X0X0X0X0X0X0X0X0X0X0X0X0X0X0X0X0X0X0X",
"0X0X0X0X0X0X0X0X0X0X0X0X0X0X0X0X0X0X0X0X0X0X0X0X0X0X0X0X0XF.`.{.{.0X0X0X0X0X0X0X0X0X0X0X0X",
"0X0X0X0X0X0X0X0X0X0X0X0X0X0X0X4X3X2X0X0X0X0X0X0X0X0X0X0X0XR.XX%XOX].0X0X0X0X0X0X0X0X0X0X0X",
"0X0X0X0X0X0X0X0X0X0X0X0X0X0X0X9X<X<X5X0X0X0X0X0X0X0X0X0X0X0X{.@XOX~.K.0X0X0X0X0X0X0X0X0X0X",
"0X0X0X0X0X0X0X0X0X0X0X0X0X0X3X7X<X>X0X0X0X2 2 b } 0X0X0X0X0X0X X^.R.K.0X0X0X0X0X0X0X0X0X0X",
"0X0X0X0X0X0X0X0X0X0X0X0X0X0X0X0X0X0X0X6 f S D H P y < 0X0X0X0X0X0X0X0X0X0X0X0X0X0X0X0X0X0X",
"0X0X0X0X0X0X0X0X0X0X0X0X0X0X0X0X0X& a B p h S B G g e > O 0X0X0X0X0X0X0X0X0Xz.0X0X0X0X0X0X",
"0X0X0X0X0X0X0X0X0X0X0X0X0X0X0X0X0X6 u i a s p i y d a u 4 , > 0X0X0X0X0Xl.U.0X0X0X0X0X0X0X",
"0X0X0X0X0X0X0X0X0X0X0X0X0X0X0X9 r a i f V C B g p B f s a y e > 0X0X0X(.W.0X0X0X0X0X0X0X0X",
"0X0X0X0X0X0X0XV.C.0X0X0X{ > e u s g h S S F k m s y i p B i d e 6 , 0 w.0X0X0X0X0X0X0X0X0X",
"0X0X0X0X0X0X.X[.Y.0X0X0X3 4 a i h f s 4 r e X | < * * : 5 B p a C g s , X 0X0X0X0X0X0X0X0X",
"0X0X0X0X0X].OX%X0X0X0X2 4 i s f i : = * ; p m e.{ S J k y y g M n a G H f 0X0X0X0X0X0X0X0X",
"0X0X0X0X0X~.@X:X0X0X0X4 y p k h y f l l ] *.<.k.i.*.>.#.^ K  .o.g y s H k X 0X0X0X0X0X0X0X",
"0X0X0X0X0XE..X0X0X0X0Xy p p S F Q +.*.<.7.s.j.).).N.N.d.4.1.r.f B d a y p = q u.0X0X0X0X0X",
"0X0X0X0X0Xh.0X0X0X0X0Xe i f F ! @.*.9.j.G.T.E.XX@XH.T.S.G._.-.w s p y 7 a 1 o 0X0X0X0X0X0X",
"0X0X0X0X0X0X0X0X0X0Xt y p G K / *.7.j.E.}.~.~.OX=X}.).T.oX|.0.R s p i 4 a 1 * 0X0X0X0X0X0X",
"0X0X0X0X0X0X0X0X0X3 i p f f h #.5.A.S.~.XX@XOX<X7X<X&X&XoXS.s.[ W h p e 4 : * 0X0X,X0X0X0X",
"0X0X0X0X0X0X0X0X< y H p f y ) *.q.S.T.[.XX=X<X7X7X7X1X-X{.G.M.&.^ G p y 7 ; * 0X0X2X,X0X0X",
"0X0X0X0X0X0X0X@ y h B j M _ ;.5.j.T.Q.[.@X1X8X7X7X8X7X-X+XT.M.=.Q 5 u s , : O 0X0X0X0X0X0X",
"0X0X0X0X0X0X0Xo D Y C f Y :.8.v.{.@X@X*X7X8X8X7X7X6X8X6X<X[.D.0.' 6 y y , : # 0X0X0X0X0X0X",
"0X0X0X0X0X0X0X: D H p p i E #.4.M.E.}.OX7X8X8X8X1X1X7X7X<X@XOXb.3.} , y , < 0X0Xx.T.L.0X0X",
"0X0X0X0Xl.J.y.1 s S d i 3 T @.<.M.G.T.[.=X1X8X7X7X7X7X-X[.T.s.*.~ u , y > 0X0X0X_.XXQ.0X0X",
"0X0X0X0X0X0X0X$ 6 J p p 4 S [ ,.s.G.T.}.=X<X1X8X8X7X=XXXT.d.7.&.! , , 5 2 0X0X0X$X&X+X0X0X",
"0X0X0X0X0X0X0X0X* 4 A u 4 : ` $.7.j.).oX}.[.@X@X@XOX*XXXd.7.,.#.F : y 4 , 0X0X0X.X*XOX X0X",
"0X0X0X0X0X0X0X0X< : , r y ; y %.<.s.G.T.E.[.OX).E.E.}.[.s.4.*./ D 3 y y 4 - 0X0XP.~.Q.0X0X",
"0X0X0X0XI.I.0X0X0X< , 4 a y ; a ' 2.3.s.S.Q.}.T.A.D.j.A.q.>.@.~ T i y f 6   0X0X0XV.0X0X0X",
"0X0X0XP.[.XX|.0X0X0X: 4 y u V a < 3 2 ..p.W.D.s.q.q.7.7.<.@.~ W h a h C 1 % 0X0X0X0X0X0X0X",
"0X0X0XY.XX&X}.0X0X0X0X: 4 i d g y * = - z O.9.7.7.4.,.*.#.~ W D u f h 4 * X.0X0X0X0X0X0X0X",
"0X0X0X0X[.@XOX'.0X0X0X< , 4 y i C u 4 7 < c N ;.*.$.@.) K S i u u G 4 = ; g.T.L.0X0X0X0X0X",
"0X0X0X0X^.[.Q.W.0X0X0X0X0X2 4 p s f h g y , 1 s R R F i i y a u S x =   0X0XI.G.Z.0X0X0X0X",
"0X0X0X0X0X0XK.0X0X0X0X0X0X0X3 u k u s i p s s p p p i u u y f H G y * + 0X0X0X0XL.V.0X0X0X",
"0X0X0X0X0X0X0X0X4X8X<X0X0X0X< 5 G J S s u d i i i i a u f S H K s X . 0X0X0X0X0X0X0Xm.0X0X",
"0X0X0X0X0X0X0X0X0X5X8X>X0X0X0X$ u D D S d x y 7 6 e 6 6 a a v a 8 0X0X0X0X0X0X0X0X0X0X0X0X",
"0X0X0X0X0X0X0X0X0X0X;X0X0X0X0X0X& d f a s 5 3 2 0X0X0X0X0X0X0X0X0X0X0X0X0X0X0X0X0X0X0X0X0X",
"0X0X0X0X0X0X0X0X0X0X0X0X0X0X0X0X0Xy.{   - - 0X0X0X0X0X0X0X0X0X0X0X0X0X0X0X0X0X0X0X0X0X0X0X",
"0X0X0X0X0X0X0X0X0X0X0X0X0X0X0X0X0XU.0X0X0X0X0X0X0X(./.!.n.0X0X0X0X0X0X0X0X0X0X0X0X0X0X0X0X",
"0X0X0X0X0X0X0X0X0X0X0X0X0X0X0X0Xx.0X0X0X0X0X0XU.~.}.+X[.'.0X0X0X0X0X0X0X0X0X0X0X0X0X0X0X0X",
"0X0X0X0X0X0X0X0X0X0X0X0X0X0X0X0X0X0X0X0X0X0X0X!.}.*X*XXXH.0X0X0X0X0X0X0X0X0X0X0X0X0X0X0X0X",
"0X0X0X0X0X0X0X0X0X0X0X0X0X0X0X0X0X0X0X0X0X0X0XU.[.}.}.~.x.0X0X0X0X0X0X0X0X0X0X0X0X0X0X0X0X",
"0X0X0X0X0X0X0X0X0X0X0X0X0X0X0X0X0X0X0X0X0X0X0X0X0X0XB.0X0X0X0X0X0X0X0X0X0X0X0X0X0X0X0X0X0X",
"0X0X0X0X0X0X0X0X0X0X0X0X0X0X0X0X0X0X0X0X0X0X0X0X0X0X0X0X0X0X0X0X0X0X0X0X0X0X0X0X0X0X0X0X0X",
"0X0X0X0X0X0X0X0X0X0X0X0X0X0X0X0X0X0X0X0X0X0X0X0X0X0X0X0X0X0X0X0X0X0X0X0X0X0X0X0X0X0X0X0X0X"
};
