/* XPM */
static char *result[] = {
/* columns rows colors chars-per-pixel */
"45 45 219 2 ",
"   c #A4270A",
".  c #BC2C0B",
"X  c #BB2A04",
"o  c #AF3609",
"O  c #B4330D",
"+  c #B73B0F",
"@  c #A72B10",
"#  c #A22714",
"$  c #B32A16",
"%  c #BF2612",
"&  c #AE3313",
"*  c #BB3C15",
"=  c #B63213",
"-  c #C22E0C",
";  c #C02B04",
":  c #CD3D05",
">  c #CA3509",
",  c #C43C0D",
"<  c #CA3C0B",
"1  c #C63C07",
"2  c #D23D05",
"3  c #D23E0C",
"4  c #C12D17",
"5  c #C33D11",
"6  c #CC3F12",
"7  c #BE450D",
"8  c #B7420D",
"9  c #CE4705",
"0  c #CE4906",
"q  c #C7430D",
"w  c #CC420B",
"e  c #C54A0C",
"r  c #CB4A0C",
"t  c #D34505",
"y  c #D24508",
"u  c #D44B0C",
"i  c #DB4807",
"p  c #C6520E",
"a  c #CC520A",
"s  c #DC5606",
"d  c #D4540B",
"f  c #DB520B",
"g  c #D4590D",
"h  c #DC5D0C",
"j  c #C44414",
"k  c #CA4A12",
"l  c #C94410",
"z  c #D34B12",
"x  c #C85218",
"c  c #D35412",
"v  c #DC5611",
"b  c #DC5B13",
"n  c #D45A16",
"m  c #E04806",
"M  c #E45306",
"N  c #E55B06",
"B  c #E3530A",
"V  c #E35B0B",
"C  c #EB5D09",
"Z  c #E45E12",
"A  c #DD640A",
"S  c #DA6214",
"D  c #DC6813",
"F  c #D46C1E",
"G  c #D96D1B",
"H  c #D4651A",
"J  c #CD731C",
"K  c #DE7818",
"L  c #DB7218",
"P  c #EC6303",
"I  c #E5620B",
"U  c #EA630A",
"Y  c #E36A0C",
"T  c #ED6B0C",
"R  c #E16007",
"E  c #F56C06",
"W  c #F36A0B",
"Q  c #EC730F",
"!  c #F67405",
"~  c #FC7404",
"^  c #F77905",
"/  c #FA7C06",
"(  c #F4730C",
")  c #FC750B",
"_  c #FB7D0B",
"`  c #E56C15",
"'  c #EC6D16",
"]  c #E46E1B",
"[  c #E66618",
"{  c #E17215",
"}  c #ED7312",
"|  c #EE7C15",
" . c #E1731B",
".. c #E8751E",
"X. c #EC7B1A",
"o. c #E67A1C",
"O. c #F47410",
"+. c #F47B14",
"@. c #FB7B13",
"#. c #F37D1D",
"$. c #D36624",
"%. c #CE752A",
"&. c #DD7521",
"*. c #E26A24",
"=. c #E17C21",
"-. c #EB7B21",
";. c #E47E2B",
":. c #FB830E",
">. c #FA8A0C",
",. c #F58009",
"<. c #E4881F",
"1. c #F58313",
"2. c #FD8415",
"3. c #F78914",
"4. c #FB8A14",
"5. c #F4821B",
"6. c #FB8E1C",
"7. c #FA8319",
"8. c #FB9013",
"9. c #F6931C",
"0. c #FA941B",
"q. c #FB991B",
"w. c #F79618",
"e. c #F6A21F",
"r. c #E88524",
"t. c #EE8825",
"y. c #E58929",
"u. c #EC8B2A",
"i. c #E78426",
"p. c #F78526",
"a. c #F48C23",
"s. c #FA8C22",
"d. c #F48B2E",
"f. c #E1912E",
"g. c #F59324",
"h. c #FB9425",
"j. c #FC9B25",
"k. c #F4932B",
"l. c #F99629",
"z. c #F59B2C",
"x. c #FC9C2B",
"c. c #F59E25",
"v. c #F49432",
"b. c #FB9D33",
"n. c #F19A35",
"m. c #FBA225",
"M. c #F7A42B",
"N. c #FBA32C",
"B. c #F4A82C",
"V. c #FBA92D",
"C. c #EBA43E",
"Z. c #EEAF3F",
"A. c #E7A23A",
"S. c #F2A433",
"D. c #FBA333",
"F. c #FCAA33",
"G. c #F3A53A",
"H. c #FAA33C",
"J. c #FBAB3C",
"K. c #F9B333",
"L. c #FFB937",
"P. c #FBB13B",
"I. c #E59640",
"U. c #DBB154",
"Y. c #E8A745",
"T. c #F9AD43",
"R. c #F7AF4D",
"E. c #F8A845",
"W. c #E7B846",
"Q. c #F6B442",
"!. c #FBB344",
"~. c #F7B947",
"^. c #FBBB44",
"/. c #F5B34E",
"(. c #FBB44C",
"). c #FDBC4E",
"_. c #ECAD55",
"`. c #FAA954",
"'. c #F1AB53",
"]. c #EBBE56",
"[. c #FAB454",
"{. c #FBBD54",
"}. c #F5B55A",
"|. c #F7BA57",
" X c #D0AF60",
".X c #D4AB6C",
"XX c #E8BE68",
"oX c #E6B964",
"OX c #F0BC68",
"+X c #EEBC78",
"@X c #FBC04C",
"#X c #F6C257",
"$X c #FCC253",
"%X c #F4C25B",
"&X c #FBC55D",
"*X c #EBCB68",
"=X c #F7C763",
"-X c #FBC563",
";X c #FBC964",
":X c #F3C46B",
">X c #FBC66A",
",X c #F7C968",
"<X c #FECD6C",
"1X c #EBC471",
"2X c #E8C078",
"3X c #F4C673",
"4X c #FDCE72",
"5X c #FACD78",
"6X c #FCD172",
"7X c #FBD37B",
"8X c #F8D97F",
"9X c #D7BE99",
"0X c #E8CB87",
"qX c #FCD582",
"wX c #FFD689",
"eX c #FDDA8C",
"rX c #F5D589",
"tX c #FCDB91",
"yX c None",
/* pixels */
"yXyXyXyXyXyXyXyXyXyXyXyXyXyXyXyXyXyXyXyXyXyXyXyXyXyXyXyXyXyXyXyXyXyXyXyXyXyXyXyXyXyXyXyXyX",
"yXyXyXyXyXyXyXyXyXyXyXyXyXyXyXyXyXyXyXyXyXyXyXyXyXyXyXyXyXyXyXyXyXyXyXyXyXyXyXyXyXyXyXyXyX",
"yXyXyXyXyXyXyXyXyXyXyXyXyXyXyXyXyXyXyXyXyXyXyXyXyXyXyXyXyXyXyXyXyXyXyXyXyXyXyXyXyXyXyXyXyX",
"yXyXyXyXyXyXyXyXyXyXyXyXyXyXyXyXyXyXyXyXyXyXyXyXyXyXyXyXyXyXyXyXyXyXyXyXyXyXyXyXyXyXyXyXyX",
"yXyXyXyXyXyXyXyXyXyXyXyXyXyXyXyXyXyXyXyXyXyXyXyXyXyXyXyXyXyXyXyXyXyXyXyXyXyXyXyXyXyXyXyXyX",
"yXyXyXyXyXyXyXyXyXyXyXyXyXyXyXyXyXyXn H H g n p e j 5 - % yXyXyXyXyXyXyXyXyXyXyXyXyXyXyXyX",
"yXyXyXyXyXyXyXyXyXyXyXyXyXyXyXyXx I T O.O.( ' O.@.+.Q P M 5 yXyXyXyXyXyXyXyXyXyXyXyXyXyXyX",
"yXyXyXyXyXyXyXyXyXyXyXyXyX= < e V +.z.E.!.P.M.D.j.8.:./ ~ T , yXyXyXyXyXyXyXyXyXyXyXyXyXyX",
"yXyXyXyXyXyXyXyXyXyXyXyX. : B R X.D.@X7XqX6X).F.b.0.>.@.~ ( yXyXyXyXyXyXyXyXyXyXyXyXyXyXyX",
"yXyXyXyXyXyXyXyXyXyXyX# 3 W / 3.l.^.<XwXqX;X^.J.V.h.4.@.! L yXyXyXyXyXyXyXyXyXyXyXyXyXyXyX",
"yXyXyXyXyXyXyXyXyXyXyXX R ~ / 4.h.Q.#X#X&X=X4X1X-X_.G.B.A.yXyXyXyXyXyXyXyXyXyXyXyXyXyXyXyX",
"yXyXyXyXyXyXyXyXyXyXyX> W ~ ) h.J.|.yXyXyXyXyXyXyXyXyXyXyXyXyXyXyX3 yXyXyXyXyXyXyXyXyXyXyX",
"yXyXyXyXyXyXyXyXyXyXyXv ~ ~ @.C.1XyXyXyXyXyXyXyXyXyXyXyXyXyXyXyXyX( B < . yXyXyXyXyXyXyXyX",
"yXyXyXyXyXyXyXyXyXyXyXv } X.C.yXyXyXyXj v S g l k 5 yXyXyXyXyXyXW.8.~ ! u - yXyXyXyXyXyXyX",
"yXyXyXyXyXyXyXG d.H yXyXyXyXyXyXyX6 u t.|.$Xx.7.p.#.c yXyXyXyXyX.XY.1._ C > yXyXyXyXyXyXyX",
"yXyXyXyXyXyXyXr.v.yXyXyXyXyXyXyXB ( _ F.4X4X!.m.x.c.X.h I < yXyXyXyXz.3.2.U k yXyXyXyXyXyX",
"yXyXyXyXyXyXyXj yXyXyXyXyXyXyXw ! >.w.b.T.S.k.S.F.V.k.Q.[.;.yXyXyXyX}.M.0.6.T u yXyXyXyXyX",
"yXyXyXyXyXyXyXyXyXyXyXyXyXyXw ..F.m.x.D.c.K b i.y.&.D [.eX#X[ yXyXyXyX'.N.c.6.N k yXyXyXyX",
"yXyXyXyXyXyXyX- V yXyXyXyXyXT `.7X(.p.K J yXyXyXyXyXyX*.G.P.( yXyXyXyXOX$X$XD.} v yXyXyXyX",
"yXyXyXyXyXyX@ y E ..yXyXyXe v.qX8X).-.yXyXb A a * yXyXyX-.x.+.yXyXyX9X6X6XqX|.+.Z yXyXyXyX",
"yXyXyXyXyXyX1 E ~ <.yXyXyXr g.&X{.b.$.yXY l.N.s.Z o yXyXu.B.s.e yXyXyXrXrXeX[.Q b yXyXyXyX",
"yXyXyXyXyX$ m ~ ~ 9.yXyXyX< ! h.k.K yXh a.>X7X;Xh.d yXyXi.G.h.h yXyXyX0X4X6XH.W yXyXyXyXyX",
"yXyXyXyXyX- N ~ ~ 1.yXyXyXyXd +.L yXyXh H.7XeX7Xb.V yXyX] j.q.' yXyX0X&X).).z.T yXyXyXyXyX",
"yXyXyXyXyXX M ^ ~ _ /.*XyXyXr 5.g.` yXf 0.-X6X{.5.yXyXyX[ c.q.W yXyX3XP.K.F.9.T yXyXyXyXyX",
"yXyXyXyXyX. i ~ ) ) l.oXyXyXv 2.q.s.yXyXY r.y.` yXyXyXo.E.J.0.V yXyX/.D.F.D.+.b yXyXyXyXyX",
"yXyXyXyXyX= 2 U _ >.l.,XyXyXs 2.0.z.F yXyXyXyXyXyX .-./.7X}.[ 8 yXyXS.j.j.a.I x yXyXyXyXyX",
"yXyXyXyXyXyXt ` 4.9.N.>XyXyX0 ! 2.0.| #.5.G yXF a.J.J.=X;X;.o yXyXXXj.4.7.C a yXyXyXyXyXyX",
"yXyXyXyXyXyX9 +.h.j.N.(.3XyXyXC ) 4.H.>X{.k.D d.F.F.N.H.-.7 yXyXyXn.3.1.f q yXyXyXyXyXyXyX",
"yXyXyXyXyXO 9 | j.N.^.$XOXyXyXyXf T `.eXqX[.g.N.N.j.0.' j yXyXyXU.6.! V > yXyXyXyXyXyXyXyX",
"yXyXyXyXyXyX< V k.K.>X7X:XyXyXyXyX1 [ `.&XJ.0.|  .S f yXyXyXyXyXA.T t - yXyXyXyXyXyXyXyXyX",
"yXyXyXyXyXyX* i { P.<XtXqX*X2XyXyXyXyXz S R g * yXyXyXyXyXyXyXyXS > @ yXyXyXyXyXyXyXyXyXyX",
"yXyXyXyXyXyXyXw g r.).7X7X$X(.+XyXyXyXyXyXyXyXyXyXyXyXyXyXyXyXyX$ yXyXI.u.yXyXyXyXyXyXyXyX",
"yXyXyXyXyXyXyXyXk s t.$X&X@XF.(.yXyXyXyXyXyXyXyXyXyXyXyXyXyXyXyXyXyXyXG %.yXyXyXyXyXyXyXyX",
"yXyXyXyXyXyXyXyXyXz ..J.P.P.V.x.z.E.-X/.%X XyX*XyXyXyXyXyXyXu.$.yXyXyXyXyXyXyXyXyXyXyXyXyX",
"yXyXyXyXyXyXyXyXyXj B g.F.F.x.h.4.>.3.@.7.H.Z.Q.].yXyXyXyXk.L.t.yXyXyXyXyXyXyXyXyXyXyXyXyX",
"yXyXyXyXyXyXyXyXyXyX0 n a.q.0.6.2./ ~ ! ^ ! ) _ g.=.yXyXyXJ f.yXyXyXyXyXyXyXyXyXyXyXyXyXyX",
"yXyXyXyXyXyXyXyXyXyXyX2 u U T V U ~ ~ ! ~ ~ ~ ! ~ Q yXyXyXyXyXyXyXyXyXyXyXyXyXyXyXyXyXyXyX",
"yXyXyXyXyXyXyXyXyXyXyXyX+ * * q t i N E ~ ~ ! P i 7 yXyXyXyXyXyXyXyXyXyXyXyXyXyXyXyXyXyXyX",
"yXyXyXyXyXyXyXyXyXyXyXyXyXyXyXyX& 4 - > 3 y q yXyXyXyXyXyXyXyXyXyXyXyXyXyXyXyXyXyXyXyXyXyX",
"yXyXyXyXyXyXyXyXyXyXyXyXyXyXyXyXyXyXyX    yXyXyXyXyXyXyXyXyXyXyXyXyXyXyXyXyXyXyXyXyXyXyXyX",
"yXyXyXyXyXyXyXyXyXyXyXyXyXyXyXyXyXyXyXyXyXyXyXyXyXyXyXyXyXyXyXyXyXyXyXyXyXyXyXyXyXyXyXyXyX",
"yXyXyXyXyXyXyXyXyXyXyXyXyXyXyXyXyXyXyXyXyXyXyXyXyXyXyXyXyXyXyXyXyXyXyXyXyXyXyXyXyXyXyXyXyX",
"yXyXyXyXyXyXyXyXyXyXyXyXyXyXyXyXyXyXyXyXyXyXyXyXyXyXyXyXyXyXyXyXyXyXyXyXyXyXyXyXyXyXyXyXyX",
"yXyXyXyXyXyXyXyXyXyXyXyXyXyXyXyXyXyXyXyXyXyXyXyXyXyXyXyXyXyXyXyXyXyXyXyXyXyXyXyXyXyXyXyXyX",
"yXyXyXyXyXyXyXyXyXyXyXyXyXyXyXyXyXyXyXyXyXyXyXyXyXyXyXyXyXyXyXyXyXyXyXyXyXyXyXyXyXyXyXyXyX"
};
