/* XPM */
static char *result[] = {
/* columns rows colors chars-per-pixel */
"45 45 194 2 ",
"   c #B46B25",
".  c #BF7832",
"X  c #CF6C1C",
"o  c #D26711",
"O  c #D96614",
"+  c #DE6A13",
"@  c #DE7113",
"#  c #DF7E15",
"$  c #DD721C",
"%  c #DF7C1A",
"&  c #E26F0B",
"*  c #FE6F05",
"=  c #E4710D",
"-  c #EC710C",
";  c #EE7E0E",
":  c #F27406",
">  c #FA7404",
",  c #F67E07",
"<  c #F97A07",
"1  c #F5740C",
"2  c #FB750A",
"3  c #F47C09",
"4  c #FA7D0A",
"5  c #E96E13",
"6  c #EA6F18",
"7  c #E47314",
"8  c #EC7514",
"9  c #E67F14",
"0  c #EB7B16",
"q  c #E67318",
"w  c #EE7719",
"e  c #E77F1D",
"r  c #F17412",
"t  c #F27B11",
"y  c #F17C1B",
"u  c #DE7D22",
"i  c #D37D23",
"p  c #DF881F",
"a  c #F9800B",
"s  c #E2811D",
"d  c #EB8219",
"f  c #F48614",
"g  c #FA8614",
"h  c #F48A15",
"j  c #F98B15",
"k  c #F4871A",
"l  c #F58B1B",
"z  c #F98E1A",
"x  c #EE931E",
"c  c #F79015",
"v  c #F4941C",
"b  c #F9961E",
"n  c #DA9525",
"m  c #D59F35",
"M  c #EE8426",
"N  c #E18D27",
"B  c #EE8E20",
"V  c #E58B2D",
"C  c #EB8B29",
"Z  c #F38920",
"A  c #F88E26",
"S  c #F98D29",
"D  c #ED9326",
"F  c #EE9B27",
"G  c #E7952E",
"H  c #EC952E",
"J  c #EB9C2D",
"K  c #F59524",
"L  c #FB9424",
"P  c #F49825",
"I  c #F5942A",
"U  c #F89529",
"Y  c #F49E2B",
"T  c #F99D2D",
"R  c #EC9D37",
"E  c #E0963A",
"W  c #EE9F3A",
"Q  c #F39A35",
"!  c #F99F32",
"~  c #F0963B",
"^  c #F19A3A",
"/  c #F6A226",
"(  c #F3A42D",
")  c #F9A02D",
"_  c #E1A530",
"`  c #E9A239",
"'  c #EDA83E",
"]  c #EAA333",
"[  c #F4A134",
"{  c #FAA332",
"}  c #F7AD34",
"|  c #FBAB35",
" . c #F4A13A",
".. c #FEA73C",
"X. c #F3AC3B",
"o. c #FBAD3C",
"O. c #F6B335",
"+. c #FAB136",
"@. c #F8B33C",
"#. c #F6B83A",
"$. c #BD8B43",
"%. c #D38743",
"&. c #D89745",
"*. c #C99556",
"=. c #E29F4A",
"-. c #DEA94F",
";. c #D3A65A",
":. c #DFA459",
">. c #DEBA5F",
",. c #E2A243",
"<. c #EBAD45",
"1. c #EAA44C",
"2. c #E4AA4E",
"3. c #EBAE4A",
"4. c #ECA246",
"5. c #F5A343",
"6. c #F4AC43",
"7. c #FCAE44",
"8. c #F6A748",
"9. c #E7B34F",
"0. c #ECB34C",
"q. c #F7B541",
"w. c #FAB444",
"e. c #F6BA40",
"r. c #FBBA44",
"t. c #F4B549",
"y. c #FAB048",
"u. c #F4BC4D",
"i. c #FBBA4A",
"p. c #E6A85B",
"a. c #F1A950",
"s. c #E7B152",
"d. c #EEB452",
"f. c #E9B855",
"g. c #EDB75A",
"h. c #ECB858",
"j. c #F6B555",
"k. c #F4BB54",
"l. c #FABE51",
"z. c #F7B758",
"x. c #FCBE5C",
"c. c #D9A961",
"v. c #E5B565",
"b. c #ECB262",
"n. c #ECBD65",
"m. c #E4BC64",
"M. c #F9BA60",
"N. c #F5BF68",
"B. c #F1BC62",
"V. c #F7C44E",
"C. c #FCC44C",
"Z. c #FCC453",
"A. c #FBCB54",
"S. c #F7C45D",
"D. c #FBC35C",
"F. c #F6CE5C",
"G. c #FCCC5C",
"H. c #EAC668",
"J. c #F6C065",
"K. c #FAC364",
"L. c #FBCB64",
"P. c #F4C36B",
"I. c #FAC46B",
"U. c #FACC6C",
"Y. c #FAD065",
"T. c #F3CC72",
"R. c #FBCC73",
"E. c #FAC678",
"W. c #FBCE7B",
"Q. c #F5C574",
"!. c #FBD375",
"~. c #FDD27C",
"^. c #F3D279",
"/. c #EEC980",
"(. c #FCCE84",
"). c #FECC8B",
"_. c #F6D082",
"`. c #FCD483",
"'. c #FBD48B",
"]. c #FCDA8D",
"[. c #FADA85",
"{. c #FDD693",
"}. c #FDDB92",
"|. c #FFD69A",
" X c #F7DD99",
".X c #FCDD9E",
"XX c #FBE19C",
"oX c #FBE192",
"OX c #FDDDA3",
"+X c #FFDEAD",
"@X c #FCE1A2",
"#X c #FBE1AB",
"$X c #FEE0B0",
"%X c None",
/* pixels */
"%X%X%X%X%X%X%X%X%X%X%X%X%X%X%X%X%X%X%X%X%X%X%X%X%X%X%X%X%X%X%X%X%X%X%X%X%X%X%X%X%X%X%X%X%X",
"%X%X%X%X%X%X%X%X%X%X%X%X%X%X%X%X%X%X%X%X%X%X%X%X%X%X%X%X%X%X%X%X%X%X%X%X%X%X%X%X%X%X%X%X%X",
"%X%X%X%X%X%X%X%X%X%X%X%X%X%X%X%X%X%X%X%X%X%X%X%X%X%X%X%X%X%X%X%X%X%X%X%X%X%X%X%X%X%X%X%X%X",
"%X%X%X%X%X%X%X%X%X%X%X%X%X%X%X%X%X%X%X%X%X%X%X%X%X%X%X%X%X%X%X%X%X%X%X%X%X%X%X%X%X%X%X%X%X",
"%X%X%X%X%X%X%X%X%X%X%X%X%X%X%X%X%X%X%X%X%X%X%X%X%X%X%X%X%X%X%X%X%X%X%X%X%X%X%X%X%X%X%X%X%X",
"%X%X%X%X%X%X%X%X%X%X%X%X%X%X%X%X%X%X%X%X%X%X%X%X%X%X%X%X%X%X%X%X%X%X%X%X%X%X%X%X%X%X%X%X%X",
"%X%X%X%X%X%X%X%X%X%X%X%X%X%X%X%X%X- - = %X%X%X%X%X%X%X%X%X%X%X%X%X%X%X%X%X%X%X%X%X%X%X%X%X",
"%X%X%X%X%X%X%X%X%X%X%X%X%X%Xr 1 3 2 > > : = %X%X%X%X%X%X%X%X%X%X%X%X%X%X%X%X%X%X%X%X%X%X%X",
"%X%X%X%X%X%X%X%X%X%X%X%Xt 4 j | r.| 4 > * * 3 %X%X%X%X5 1 j v g M %X%X%X%X%X%X%X%X%X%X%X%X",
"%X%X%X%X%X%X%X%X%X%X%X%Xg ) L.].].Z.z < 2 2 1 %X%X%X8 < L C.C.i.r.r.R %X%X%X%X%X%X%X%X%X%X",
"%X%X%X%X%X%X%X%X%X%X%Xl ! U.@X$X].r.g a , Z  .%X%X%X%X3 ( C.Z.A.L.L.Z.H %X%X%X%X%X%X%X%X%X",
"%X%X%X%X%X%X%X%X%X%XP 7.U.`.@XOX!.) L l # %X%X%X%X%X%X%XQ P i.Y.!.!.W.x.4.%X%X%X%X%X%X%X%X",
"%X%X%X%X%X%X%X%X%X%XE.}.].~.W.D.7.W <.f.%X%X%X%X%X%X%X%X%X<.8.k.D.`.XXXXW.%X%X%X%X%X%X%X%X",
"%X%X%X%X%X%X%X%X%XQ.@X@XOXR.w.t.s.%X%X%X%X%X%X%X%X%X%X%X%X%X%X%X6.K.OX#XOXj.%X%X%X%X%X%X%X",
"%X%X%X%X%X%X%X%X1.|.XX#X}.i.X.%X%X%X%X%X%X%X%X8 %X%X%X%X%X%X%X%Xv.l.W..X}.R.a.%X%X%X%X%X%X",
"%X%X%X%X%X%X%XD I..X#X+X(.e.%X%X%X%X%X%X%XN P U U I v %X%X%X%X%X%XH.s.S.[.!.x.Z %X%X%X%X%X",
"%X%X%X%X%X%X%X6.`.XX@X{.J.%X%X%X%X%X%X%Xf r.`.!.W.).I.<.V %X%X%X%X%X%Xy.Y.!.S.z 8 %X%X%X%X",
"%X%X%X%X%X%X%Xi.~.{.W.k.%X%X%X%X%X%X%X%X{ G.}.{.}.@XoX'...d %X%X%X%X%X .@.L.A.L = %X%X%X%X",
"%X%X%X%X%X%XC q.~.!.i.0.%X%X%X%X,.%X%X%XF e.t.u.L.{.OX}.D.A u %X%X%X%X%X[ Z.Z.{ q %X%X%X%X",
"%X%X%X%X%X%XQ U.|.~.w.%X%X%X%Xg.{.z.%X%X%X%X%X%X%Xm.U.(.!.O.e %X%X%X%X%X` l.A.) %X%X%X%X%X",
"%X%X%X%X%X%Xo.XX+X(.O.%X%X%X%XS.].;.. %.%X%X%X%X%X%X6.U..XU.&.%X%X%X%X%XJ #.i.k %X%X%X%X%X",
"%X%X%X%X%X%X}  X@XR.@.%X%X%X%XY ,.%Xg./.%X%X%X%X%X%X] V.W.L.1.%X%X%X%X%X%Xj l > %X%X%X%X%X",
"%X%X%X%X%X%XY L.!.i.o.>.%X%X%X%X%X%X,.:.%X%X%X%X%X%XD ) ..r.H %X%X%X%X%X%X> 2 6 %X%X%X%X%X",
"%X%X%X%X%X%Xj @.C.| ! %X%X%X%X%X%X%X%X%X%X%X%X%X%X%X%Xu 1 a 8 %X%X%X%X%X%X= %X%X%X%X%X%X%X",
"%X%X%X%X%X%X4 L } v I %X%X%X%Xd ( 5.^ p %X%X%X%X%X%X%X%X%X%X%X%X%X%X%X%X%X%X%X%X%X%X%X%X%X",
"%X%X%X%X%X@ 3 q.K.[ Z %X%X%X%Xv L.{.W.{ s %X%X9.g.%X%X%X%X%X%X%X%X%X%X%XC P i %X%X%X%X%X%X",
"%X%X%X%X%X%X2 M..XI.j %X%X%X%Xv I.@XXXx.B %X%X-.*.$.] f %X%X%X%X%X%X%XV D.R.~ %X%X%X%X%X%X",
"%X%X%X%X%X%X1 8..X(.C %X%X%X%X%X3.L.R.i.Z %X%X  c.'.[.r.y %X%X%X%X%X%X3.].oX5.%X%X%X%X%X%X",
"%X%X%X%X%X%X%Xk I.z.e %X%X%X%X%X%XL v k %X%X%XQ _.OX'.X.%X%X%X%X%X%X%X2.'.!.&.%X%X%X%X%X%X",
"%X%X%X%X%X%X%X8 R b 5 %X%X%X%X%X%X%X%X%X%X%X6 T F.R.s.%X%X%X%X%X%X%X%X%X[ Q %X%X%X%X%X%X%X",
"%X%X%X%X%X%X%X%X%X%X%X%X%X%X%X%X%X%X%X%X%X%X+ 9 n %X%X%X%X%X%X%X%X%X%X%XO %X%X%X%X%X%X%X%X",
"%X%X%X%X%X%X%X%X%X%X%X%X%X%X%X%X%X%X%X%X%X%X%X%X%X%X%X%X%X%X%X%Xv.B./ %X%X%X%X%X%X%X%X%X%X",
"%X%X%X%X%X%X%X%X%X%X%X%X%X7 - w ' H.%X%X%X%X%X%X%Xo %X%X%X%X%Xb.`.!.u.%X%X%X%X%X%X%X%X%X%X",
"%X%X%X%X%X%X%X%X%X%X%X%X%X1 a L } w.7.P.%X%X%X%Xc S y %X%X%XY W.].P.%X%X%X%X%X%X%X%X%X%X%X",
"%X%X%X%X%X%X%X%X%X%X%X%X%X7 L Z.L.W.R.U.^.T.N.k.V.A.U %X%X$ | L.u.E %X%X%X%X%X%X%X%X%X%X%X",
"%X%X%X%X%X%X%X%X%X%X%X%X%X%X; } Y.OX@X}.|.}.OX].F.r.d %X%X%Xm _ %X%X%X%X%X%X%X%X%X%X%X%X%X",
"%X%X%X%X%X%X%X%X%X%X%X%X%X%X%XH u.}.XX].{.}.].'.y.h X %X%X%X%X%X%X%X%X%X%X%X%X%X%X%X%X%X%X",
"%X%X%X%X%X%X%X%X%X%X%X%X%X%X%X%X%Xp.n.P.E.N.k.=.%X%X%X%X%X%X%X%X%X%X%X%X%X%X%X%X%X%X%X%X%X",
"%X%X%X%X%X%X%X%X%X%X%X%X%X%X%X%X%X%X%X%X%X%X%X%X%X%X%X%X%X%X%X%X%X%X%X%X%X%X%X%X%X%X%X%X%X",
"%X%X%X%X%X%X%X%X%X%X%X%X%X%X%X%X%X%X%X%X%X%X%X%X%X%X%X%X%X%X%X%X%X%X%X%X%X%X%X%X%X%X%X%X%X",
"%X%X%X%X%X%X%X%X%X%X%X%X%X%X%X%X%X%X%X%X%X%X%X%X%X%X%X%X%X%X%X%X%X%X%X%X%X%X%X%X%X%X%X%X%X",
"%X%X%X%X%X%X%X%X%X%X%X%X%X%X%X%X%X%X%X%X%X%X%X%X%X%X%X%X%X%X%X%X%X%X%X%X%X%X%X%X%X%X%X%X%X",
"%X%X%X%X%X%X%X%X%X%X%X%X%X%X%X%X%X%X%X%X%X%X%X%X%X%X%X%X%X%X%X%X%X%X%X%X%X%X%X%X%X%X%X%X%X",
"%X%X%X%X%X%X%X%X%X%X%X%X%X%X%X%X%X%X%X%X%X%X%X%X%X%X%X%X%X%X%X%X%X%X%X%X%X%X%X%X%X%X%X%X%X",
"%X%X%X%X%X%X%X%X%X%X%X%X%X%X%X%X%X%X%X%X%X%X%X%X%X%X%X%X%X%X%X%X%X%X%X%X%X%X%X%X%X%X%X%X%X"
};
