/* XPM */
static char *result[] = {
/* columns rows colors chars-per-pixel */
"45 45 148 2 ",
"   c #D16D13",
".  c #DD6C11",
"X  c #D16D1A",
"o  c #DF7413",
"O  c #DC771C",
"+  c #E8730C",
"@  c #F4730C",
"#  c #F17E0D",
"$  c #FA780B",
"%  c #F16E13",
"&  c #EA7916",
"*  c #E4731D",
"=  c #E97E1A",
"-  c #F47F12",
";  c #CE7B2F",
":  c #DB7021",
">  c #D57A23",
",  c #DD7C26",
"<  c #D57F28",
"1  c #F4870F",
"2  c #FA890E",
"3  c #EB8114",
"4  c #EA821B",
"5  c #EA891F",
"6  c #F38214",
"7  c #F98213",
"8  c #F1831B",
"9  c #F98519",
"0  c #F08E1A",
"q  c #F88D19",
"w  c #F7941D",
"e  c #F7981E",
"r  c #DE8123",
"t  c #DD8923",
"y  c #D28D2F",
"u  c #DC952F",
"i  c #DB9634",
"p  c #D59835",
"a  c #DA9A36",
"s  c #E68325",
"d  c #E88423",
"f  c #E78921",
"g  c #EE8F22",
"h  c #E3842C",
"j  c #E38F2B",
"k  c #F38E22",
"l  c #E49725",
"z  c #EC9726",
"x  c #EE932D",
"c  c #EC9B2F",
"v  c #F59423",
"b  c #F99121",
"n  c #F79827",
"m  c #F1932F",
"M  c #F59D28",
"N  c #F99C2A",
"B  c #E99635",
"V  c #E2903B",
"C  c #ED953D",
"Z  c #E59A3B",
"A  c #F39C33",
"S  c #F4A62F",
"D  c #F8A52D",
"F  c #F5A535",
"G  c #F9A332",
"H  c #F8AD36",
"J  c #F6A53A",
"K  c #F4AD3C",
"L  c #FFA93C",
"P  c #EEB435",
"I  c #F6B037",
"U  c #F3B03D",
"Y  c #FDB13C",
"T  c #E39B44",
"R  c #ED9F42",
"E  c #E49E4A",
"W  c #E39E52",
"Q  c #DFAA53",
"!  c #EEA541",
"~  c #F5AC43",
"^  c #F1AD49",
"/  c #F7B444",
"(  c #FAB345",
")  c #FBBB46",
"_  c #F5B54D",
"`  c #FCB34B",
"'  c #F6B94C",
"]  c #F9BB4D",
"[  c #E5A651",
"{  c #E6AC51",
"}  c #E9B252",
"|  c #E7BB5D",
" . c #EDB95C",
".. c #F5B754",
"X. c #F9B655",
"o. c #F2BC55",
"O. c #FBBC52",
"+. c #FABC5C",
"@. c #E4AF6C",
"#. c #E5B261",
"$. c #E4B46A",
"%. c #E8B768",
"&. c #EABA69",
"*. c #F0BD61",
"=. c #F4C24A",
"-. c #FBC44B",
";. c #F9CE4D",
":. c #EFC15C",
">. c #F4CE56",
",. c #FBCC54",
"<. c #F7C05F",
"1. c #FBCA5D",
"2. c #F6C365",
"3. c #FCC463",
"4. c #FECB67",
"5. c #F5C56B",
"6. c #FAC76C",
"7. c #FECD6C",
"8. c #FCD169",
"9. c #F2C675",
"0. c #F5CF72",
"q. c #FCCD73",
"w. c #FCCD79",
"e. c #F6D376",
"r. c #FCD274",
"t. c #F7D57A",
"y. c #FAD17C",
"u. c #DCCA86",
"i. c #EFCA8C",
"p. c #F6CB86",
"a. c #E3D281",
"s. c #E7D58C",
"d. c #F0D480",
"f. c #FBD181",
"g. c #FAD984",
"h. c #F6D18A",
"j. c #FDD58B",
"k. c #F4DB8B",
"l. c #FCDA8C",
"z. c #F4D592",
"x. c #F7DB91",
"c. c #FEDC92",
"v. c #FDDD9B",
"b. c #FEDDA5",
"n. c #FFDDAA",
"m. c #FDE1A5",
"M. c #FCE1AB",
"N. c None",
/* pixels */
"N.N.N.N.N.N.N.N.N.N.N.N.N.N.N.N.N.N.N.N.N.N.N.N.N.N.N.N.N.N.N.N.N.N.N.N.N.N.N.N.N.N.N.N.N.",
"N.N.N.N.N.N.N.N.N.N.N.N.N.N.N.N.N.N.N.N.N.N.N.N.N.N.N.N.N.N.N.N.N.N.N.N.N.N.N.N.N.N.N.N.N.",
"N.N.N.N.N.N.N.N.N.N.N.N.N.N.N.N.N.N.N.N.N.N.N.N.N.N.N.N.N.N.N.N.N.N.N.N.N.N.N.N.N.N.N.N.N.",
"N.N.N.N.N.N.N.N.N.N.N.N.N.N.N.N.N.N.N.N.N.N.N.N.N.N.N.N.N.N.N.N.N.N.N.N.N.N.N.N.N.N.N.N.N.",
"N.N.N.N.N.N.N.N.N.N.N.N.N.N.N.N.N.N.N.N.N.N.N.N.N.N.N.N.N.N.N.N.N.N.N.N.N.N.N.N.N.N.N.N.N.",
"N.N.N.N.N.N.N.N.N.N.N.N.N.N.N.N.N.N.N.N.N.N.N.N.N.N.N.N.N.N.N.N.N.N.N.N.N.N.N.N.N.N.N.N.N.",
"N.N.N.N.N.N.N.N.N.N.N.N.N.N.N.N.N.N.N.N.j l c J c t , N.N.N.N.N.N.N.N.N.N.N.N.N.N.N.N.N.N.",
"N.N.N.N.N.N.N.N.N.N.N.N.N.N.N.N.N.N.N.x I ) <.w.4.=.G s N.N.N.N.N.N.N.N.N.N.N.N.N.N.N.N.N.",
"N.N.N.N.N.N.N.N.N.N.N.N.N.N.N.N.N.@ 7 ) 7.j.v.M.v.w.,.H O N.N.N.N.N.N.N.N.N.N.N.N.N.N.N.N.",
"N.N.N.N.N.N.N.N.N.N.N.N.N.N.N.N.N.$ M ;.7.l.m.M.c.r.1.~ $   N.N.N.N.N.N.N.N.N.N.N.N.N.N.N.",
"N.N.N.N.N.N.N.N.N.N.N.N.N.N.N.N.N.N.k L Y ] 6.w.q.+.F 7 @ N.N.N.N.N.N.N.N.N.N.N.N.N.N.N.N.",
"N.N.N.N.N.N.N.N.N.N.N.N.N.N.N.N.N.N.N.- q N ~ K S x N.N.N.N.N.N.N.N.N.N.N.N.N.N.N.N.N.N.N.",
"N.N.N.N.N.N.N.N.N.N.r 6 # X N.N.N.N.N.N.N.N.N.N.N.N.N.N.N.N.N.N.N.N.N.N.N.N.N.N.N.N.N.N.N.",
"N.N.N.N.N.N.N.N.a ^ O.<.( 5 N.N.N.N.N.N.N.N.N.N.N.N.N.N.N.N.N.N.N.8 -.w.$.N.N.N.N.N.N.N.N.",
"N.N.N.N.N.N.N.N...l.m.l.1.j N.N.N.N.N.N.N.N.N.N.N.N.N.N.N.N.N.N.N.s +.k.5.N.N.N.N.N.N.N.N.",
"N.N.N.N.N.N.N.R f.m.m.v.X.r N.N.N.N.N.N.N.N.N.N.N.N.N.N.N.N.N.N.N.N.Z o._ N.N.N.N.N.N.N.N.",
"N.N.N.N.N.N.> / g.n.c.3.N N.N.N.N.N.N.N.N.N.N.N.N.N.N.N.N.N.N.N.N.N.N.N.N.N.N.N.N.N.N.N.N.",
"N.N.N.N.N.N.3 ) 4.f.' m s N.N.N.N.N.N.N.N.N.N.N.l ~ $.N.N.N.N.N.N.N.N.N.N.N.N.N.N.N.N.N.N.",
"N.N.N.N.N.N.@ q H ~ u N.N.N.N.N.N.N.N.s.N.N.N.N.| y.f.N.N.N.N.N.N.N.S I B N.N.N.N.N.N.N.N.",
"N.N.N.N.N.N.N.N.N.N.N.N.N.N.N.N.N.N.N.N.N.N.N.N.N.<.3.{ N.N.N.N.N.& I 1.3.A N.N.N.N.N.N.N.",
"N.N.N.N.N.N.N.N.N.N.N.N.N.N.N.N.N.N.N.N.N.N.N.N.N.N.y N.N.N.N.N.N., F q.l.q.T N.N.N.N.N.N.",
"N.N.N.N.N.N.N.N.N.N.N.N.N.N.N.N.N.N.N.N.N.N.N.N.N.N.N.N.N.N.N.N.N.N.J 6.b.v.*.N.N.N.N.N.N.",
"N.N.N.N.N.N.N.N.N.N.N.N.N.N.N.N.N.N.N.N.N.N.N.N.N.N.N.N.N.N.N.N.N.N.G 3.b.M.9.N.N.N.N.N.N.",
"N.N.N.N.N.N.! ( i N.N.N.N.N.N.N.N.k.d.N.N.N.N.N.N.N.N.N.N.N.N.N.N.N.e ` l.l.1.N.N.N.N.N.N.",
"N.N.N.N.N.N.p.g.} N.N.N.N.N.N.N.N.z.i.N.N.N.N.N.N.N.N.N.N.N.N.N.N.N.d G 1.1.( N.N.N.N.N.N.",
"N.N.N.N.N.N.9.r.[ N.N.N.N.N.N.N.N.N.N.N.N.N.N.N.N.N.N.N.N.N.N.N.N.N.N.4 e M 4 N.N.N.N.N.N.",
"N.N.N.N.N.N.N.N.N.N.N.N.N.N.N.N.N.N.N.N.N.a.u.N.N.N.N.N.N.N.N.N.N.N.N.N.N.* N.N.N.N.N.N.N.",
"N.N.N.N.N.N.N.N.N.N.N.N.N.N.N.N.N.N.N.N.N.N.N.N.N.N.N.N.N.N.N.N.N.N.Z  .N.N.N.N.N.N.N.N.N.",
"N.N.N.N.N.N.N.N.N.N.N.N.N.N.N.N.N.N.N.N.N.N.N.N.N.N.N.N.N.N.N.N.N.N.Q 0.N.N.N.N.N.N.N.N.N.",
"N.N.N.N.N.N.N.N.N.N.5 F 0 C N.N.N.N.N.N.N.N.N.N.N.N.N.N.N.N.N.N.N.N.; [ N.N.N.N.N.N.N.N.N.",
"N.N.N.N.N.N.N.N.N.7 ` q.] w 3 N.N.N.N.N.N.N.N.N.N.N.N.N.N.N.N.N.%.V N.N.N.N.N.N.N.N.N.N.N.",
"N.N.N.N.N.N.N.N.* N j.v.l.K 2 N.N.N.N.N.N.N.N.N.N.N.N.N.N.N.[ y.y.! N.N.N.N.N.N.N.N.N.N.N.",
"N.N.N.N.N.N.N.N.N.~ l.M.m.w.b N.N.N.N.N.N.N.N.N.N.N.N.N.N.N.A e.2.p N.N.N.N.N.N.N.N.N.N.N.",
"N.N.N.N.N.N.N.N.N.z *.x.v.r.J o N.N.N.N.N.N.N.N.N.N.N.N.N.N.N.N.N.N.N.N.N.N.N.N.N.N.N.N.N.",
"N.N.N.N.N.N.N.N.N.N.N.( -.] v N.N.N.- M ( ..| #.&. ._ v . N.N.N.N.N.N.N.N.N.N.N.N.N.N.N.N.",
"N.N.N.N.N.N.N.N.N.N.N.= f h * N.N.: D >.t.b.b.b.l.8.-.v % N.N.N.N.N.N.N.N.N.N.N.N.N.N.N.N.",
"N.N.N.N.N.N.N.N.N.N.N.N.N.N.N.N.N.N.9 O.c.M.M.n.v.8.) 6 N.N.N.N.N.N.N.N.N.N.N.N.N.N.N.N.N.",
"N.N.N.N.N.N.N.N.N.N.N.N.N.N.N.N.N.N.+ v *.z.b.h.3.~ N.N.N.N.N.N.N.N.N.N.N.N.N.N.N.N.N.N.N.",
"N.N.N.N.N.N.N.N.N.N.N.N.N.N.N.N.N.N.N.N.N.N.N.N.N.N.N.N.N.N.N.N.N.N.N.N.N.N.N.N.N.N.N.N.N.",
"N.N.N.N.N.N.N.N.N.N.N.N.N.N.N.N.N.N.N.N.N.N.N.N.N.N.N.N.N.N.N.N.N.N.N.N.N.N.N.N.N.N.N.N.N.",
"N.N.N.N.N.N.N.N.N.N.N.N.N.N.N.N.N.N.N.N.N.N.N.N.N.N.N.N.N.N.N.N.N.N.N.N.N.N.N.N.N.N.N.N.N.",
"N.N.N.N.N.N.N.N.N.N.N.N.N.N.N.N.N.N.N.N.N.N.N.N.N.N.N.N.N.N.N.N.N.N.N.N.N.N.N.N.N.N.N.N.N.",
"N.N.N.N.N.N.N.N.N.N.N.N.N.N.N.N.N.N.N.N.N.N.N.N.N.N.N.N.N.N.N.N.N.N.N.N.N.N.N.N.N.N.N.N.N.",
"N.N.N.N.N.N.N.N.N.N.N.N.N.N.N.N.N.N.N.N.N.N.N.N.N.N.N.N.N.N.N.N.N.N.N.N.N.N.N.N.N.N.N.N.N.",
"N.N.N.N.N.N.N.N.N.N.N.N.N.N.N.N.N.N.N.N.N.N.N.N.N.N.N.N.N.N.N.N.N.N.N.N.N.N.N.N.N.N.N.N.N."
};
