/* XPM */
static char *result[] = {
/* columns rows colors chars-per-pixel */
"45 45 159 2 ",
"   c #D7B764",
".  c #DBBD60",
"X  c #DABB68",
"o  c #E5BA67",
"O  c #E4BF71",
"+  c #EEC554",
"@  c #F7CB58",
"#  c #DEC37C",
"$  c #E9C260",
"%  c #E9C565",
"&  c #EBC564",
"*  c #E2C56D",
"=  c #E1C76F",
"-  c #EEC669",
";  c #E8CA6C",
":  c #F1C567",
">  c #FECD64",
",  c #F4CB6E",
"<  c #F2CE6C",
"1  c #FBCD68",
"2  c #EDD266",
"3  c #F1D16D",
"4  c #F3D46E",
"5  c #E4C070",
"6  c #E3C675",
"7  c #E0C677",
"8  c #E8C271",
"9  c #E6C975",
"0  c #E8CD71",
"q  c #E9CD71",
"w  c #EBCE74",
"e  c #ECCE74",
"r  c #EECF75",
"t  c #EFCF75",
"y  c #E1C37D",
"u  c #EAC77E",
"i  c #E7CB7F",
"p  c #EAC978",
"a  c #EBCD7C",
"s  c #EECF7D",
"d  c #F3CB7E",
"f  c #E8D077",
"g  c #F6D274",
"h  c #F1D776",
"j  c #F2D37F",
"k  c #FAD379",
"l  c #FAD27B",
"z  c #FBD479",
"x  c #E1C381",
"c  c #E0C786",
"v  c #E7CB80",
"b  c #E7CB81",
"n  c #EDCB80",
"m  c #E8C985",
"M  c #EEC987",
"N  c #E9CC87",
"B  c #EBC48A",
"V  c #E9CA89",
"C  c #E9CA8C",
"Z  c #F5CE85",
"A  c #F3CF89",
"S  c #EFD180",
"D  c #ECD083",
"F  c #EBD085",
"G  c #ECD184",
"H  c #ECD28A",
"J  c #EFD28F",
"K  c #F6D781",
"L  c #F6D583",
"P  c #F5D683",
"I  c #F7D186",
"U  c #F8D481",
"Y  c #FBD483",
"T  c #F9D486",
"R  c #F6D982",
"E  c #F7D983",
"W  c #FADB87",
"Q  c #F2D38A",
"!  c #F2D48D",
"~  c #F4D68E",
"^  c #F8D78B",
"/  c #F4DA8E",
"(  c #F8DA89",
")  c #FBD98A",
"_  c #FBDB8B",
"`  c #FDD888",
"'  c #FADD8B",
"]  c #F8D98D",
"[  c #FBDC8C",
"{  c #FADE8E",
"}  c #FCDC8D",
"|  c #E8CC92",
" . c #F0CB92",
".. c #EFD491",
"X. c #EFD294",
"o. c #E5D099",
"O. c #F7D492",
"+. c #F4D396",
"@. c #F8D794",
"#. c #F7DB95",
"$. c #FADB92",
"%. c #FCD992",
"&. c #FCD993",
"*. c #FADE92",
"=. c #FDDC92",
"-. c #FAD994",
";. c #FADC97",
":. c #F5D399",
">. c #F5D89E",
",. c #FDDA99",
"<. c #FEDA98",
"1. c #FEDC98",
"2. c #FEDC9A",
"3. c #F9D99C",
"4. c #FCDA9C",
"5. c #FDDE9C",
"6. c #FDDD9E",
"7. c #FEDD9F",
"8. c #FDE193",
"9. c #FBE199",
"0. c #FBE09A",
"q. c #FCE19A",
"w. c #FCE49E",
"e. c #EDD2A0",
"r. c #FBDBA0",
"t. c #FFDCA0",
"y. c #FCDCA2",
"u. c #FEDFA3",
"i. c #F8DDA6",
"p. c #FFDDA4",
"a. c #FEDDA5",
"s. c #FDDFA4",
"d. c #FFDFA4",
"f. c #FDDDA6",
"g. c #FFDDA6",
"h. c #FEDEA7",
"j. c #FFDEA7",
"k. c #F9DAAA",
"l. c #F9DCA8",
"z. c #FFDFA8",
"x. c #FDDFAB",
"c. c #FFDEAB",
"v. c #FDDFB1",
"b. c #FBE3A1",
"n. c #FDE1A3",
"m. c #FEE1A3",
"M. c #FCE1A4",
"N. c #FFE1A5",
"B. c #FDE2A4",
"V. c #FCE2A5",
"C. c #FCE3A5",
"Z. c #F9E1A8",
"A. c #FBE2A8",
"S. c #F9E3AA",
"D. c #FCE1A8",
"F. c #FCE1A9",
"G. c #FDE1AB",
"H. c #FEE0AD",
"J. c None",
/* pixels */
"J.J.J.J.J.J.J.J.J.J.J.J.J.J.J.J.J.J.J.J.J.J.J.J.J.J.J.J.J.J.J.J.J.J.J.J.J.J.J.J.J.J.J.J.J.",
"J.J.J.J.J.J.J.J.J.J.J.J.J.J.J.J.J.J.J.J.J.J.J.J.J.J.J.J.J.J.J.J.J.J.J.J.J.J.J.J.J.J.J.J.J.",
"J.J.J.J.J.J.J.J.J.J.J.J.J.J.J.J.J.J.J.J.J.J.J.J.J.J.J.J.J.J.J.J.J.J.J.J.J.J.J.J.J.J.J.J.J.",
"J.J.J.J.J.J.J.J.J.J.J.J.J.J.J.J.J.J.J.J.J.J.J.J.J.J.J.J.J.J.J.J.J.J.J.J.J.J.J.J.J.J.J.J.J.",
"J.J.J.J.J.J.J.J.J.J.J.J.J.J.J.J.J.J.J.J.J.J.J.J.J.J.J.J.J.J.J.J.J.J.J.J.J.J.J.J.J.J.J.J.J.",
"J.J.J.J.J.J.J.J.J.J.J.J.J.J.J.J.J.J.J.J.J.J.J.J.J.J.J.J.J.J.J.J.J.J.J.J.J.J.J.J.J.J.J.J.J.",
"J.J.J.J.J.J.J.J.J.J.J.J.J.J.J.J.J.J.J.J.J.J.J.J.J.J.J.J.J.J.J.J.J.J.J.J.J.J.J.J.J.J.J.J.J.",
"J.J.J.J.J.J.J.J.J.J.J.J.J.J.J.J.J.J.J.J.J.J.J.J.J.J.J.J.J.J.J.J.J.J.J.J.J.J.J.J.J.J.J.J.J.",
"J.J.J.J.J.J.J.J.J.J.J.J.J.J.J.J.J.J.J.J.J.x J.J.J.J.J.J.J.J.J.J.J.J.J.J.J.J.J.J.J.J.J.J.J.",
"J.J.J.J.J.J.J.J.J.J.J.J.J.J.J.J.J.J.J.d @.9.W   J.J.J...b J.J.J.J.J.J.J.J.J.J.J.J.J.J.J.J.",
"J.J.J.J.J.J.J.J.J.J.J.J.J.J.J.J.J.J.J.l h.Z.4.X J.J.G 7.=.f J.J.J.J.J.J.J.J.J.J.J.J.J.J.J.",
"J.J.J.J.J.J.J.J.J.J.J.J.J.J.J.J.J.J.J.8 P H J.J.J.J.q T Z J.J.J.J.J.J.J.J.J.J.J.J.J.J.J.J.",
"J.J.J.J.J.J.J.J.J.J., U 3.< J.J.J.J.J.J.J.J.J.J.J.J.J.J.J.J.J.J.J.J.e ! J.J.J.J.J.J.J.J.J.",
"J.J.J.J.J.J.J.J.p L 5.n.d.4 J.J.J.J.J.J.J.J.J.J.J.J.J.J.J.J.J.J.J.t } N.] r J.J.J.J.J.J.J.",
"J.J.J.J.J.J.J.* ) 2.F.C.s.i J.J.J.J.J.J.J.J.J.J.J.J.J.J.J.J.J.J.J.^ c.D.u.,.n J.J.J.J.J.J.",
"J.J.J.J.J.J.J.O.j.H.m.l.e.J.J.J.J.J.J.J.J.J.J.J.J.J.J.J.J.J.J.J.J.K v.S.w.g.M J.J.J.J.J.J.",
"J.J.J.J.J.J.J.Y <.0.*.J.J.J.J.J.J.J.J.J.J.J.J.J.J.J.J.J.J.J.J.J.J.| i.M.B.8.a J.J.J.J.J.J.",
"J.J.J.J.J.J.J.@ > g J.J.J.J.J.J.J.J.J.J.J.J.J.J.J.J.J.J.J.J.J.J.J.J.u z ` Q J.J.J.J.J.J.J.",
"J.J.J.J.J.J.J.$ + J.J.J.J.J.J.J.J.J.J.J.J.J.J.J.J.J.J.J.J.J.J.J.J.J.J.& % J.J.J.J.J.J.J.J.",
"J.J.J.J.J.J.J.J.J.J.J.J.J.J.J.J.J.J.J.J.J.J.J.J.J.J.J.J.J.J.J.J.J.J.J.J.J.J.J.J.J.J.J.J.J.",
"J.J.J.J.J.J.J.J.J.J.J.J.J.J.J.J.J.J.J.J.J.J.J.J.J.J.J.J.J.J.J.J.J.J.J.J.J.J.J.J.J.J.J.J.J.",
"J.J.J.J.J.J.J.; J.J.J.J.J.J.J.J.J.J.J.J.J.J.J.J.J.J.J.J.J.J.J.J.J.J.J.J.J.J.J.J.J.J.J.J.J.",
"J.J.J.J.J.# E %.y J.J.J.J.J.J.J.J.J.J.J.J.J.J.J.J.J.J.J.J.J.J.J.J.J.J.J.N h = J.J.J.J.J.J.",
"J.J.J.J.J.J.&.-.J.J.J.J.J.J.J.J.J.J.J.J.J.J.J.J.J.J.J.J.J.J.J.J.J.J.J.J.{ p.! J.J.J.J.J.J.",
"J.J.J.J.J.J.2 O J.J.J.J.J.J.J.J.J.J.J.J.J.J.J.J.J.J.J.J.J.J.J.J.J.J.J.J./ 6.S J.J.J.J.J.J.",
"J.J.J.J.J.J.J.J.J.J.J.J.J.J.J.J.J.J.J.J.J.J.J.J.J.J.J.J.J.J.J.J.J.J.J.J.6 0 J.J.J.J.J.J.J.",
"J.J.J.J.J.J.J.J.J.J.J.J.J.J.J.J.J.J.J.J.J.J.J.J.J.J.J.J.J.J.J.J.J.J.J.J.J.J.J.J.J.J.J.J.J.",
"J.J.J.J.J.J.J.J.w X.J.J.J.J.J.J.J.J.J.J.J.J.J.J.J.J.J.J.J.J.J.J.J.J.J.J.J.J.J.J.J.J.J.J.J.",
"J.J.J.J.J.J.J.9 _ f.c J.J.J.J.J.J.J.J.J.J.J.J.J.J.J.J.J.J.J.J.J.J.J.J J.J.J.J.J.J.J.J.J.J.",
"J.J.J.J.J.J.J.7 ( a.>.J.J.J.J.J.J.J.J.J.J.J.J.J.J.J.J.J.J.J.J.J.J.D r.v J.J.J.J.J.J.J.J.J.",
"J.J.J.J.J.J.J.J.F ' $.J.J.J.J.J.J.J.J.J.J.J.J.J.J.J.J.J.J.J.J.J.J.J.J.J.J.J.J.J.J.J.J.J.J.",
"J.J.J.J.J.J.J.J.J.m 3 . J.J.J.J.J.J.J.J.J.J.J.J.J.J.J.J.J.J.J.J.J.J.J.J.J.J.J.J.J.J.J.J.J.",
"J.J.J.J.J.J.J.J.J.J.J.J.J.J.J.J.J.J.J.J.J.J.J.J.J.J.J.J.+.I : J.J.J.J.J.J.J.J.J.J.J.J.J.J.",
"J.J.J.J.J.J.J.J.J.J.J.J.J.J.o.J.J.J.J.J.J.J.J.J.J.V :.k.G.t.1 J.J.J.J.J.J.J.J.J.J.J.J.J.J.",
"J.J.J.J.J.J.J.J.J.J.J.J.J.J.J.J.J.J.s C J.J.J.J.#.y.x.V.b.[ - J.J.J.J.J.J.J.J.J.J.J.J.J.J.",
"J.J.J.J.J.J.J.J.J.J.J.J.J.J.J.J.J.J. .~ J.J.J.J.;.z.A.q.1.k o J.J.J.J.J.J.J.J.J.J.J.J.J.J.",
"J.J.J.J.J.J.J.J.J.J.J.J.J.J.J.J.J.J.J.J.J.J.J.J.J.A R j B 5 J.J.J.J.J.J.J.J.J.J.J.J.J.J.J.",
"J.J.J.J.J.J.J.J.J.J.J.J.J.J.J.J.J.J.J.J.J.J.J.J.J.J.J.J.J.J.J.J.J.J.J.J.J.J.J.J.J.J.J.J.J.",
"J.J.J.J.J.J.J.J.J.J.J.J.J.J.J.J.J.J.J.J.J.J.J.J.J.J.J.J.J.J.J.J.J.J.J.J.J.J.J.J.J.J.J.J.J.",
"J.J.J.J.J.J.J.J.J.J.J.J.J.J.J.J.J.J.J.J.J.J.J.J.J.J.J.J.J.J.J.J.J.J.J.J.J.J.J.J.J.J.J.J.J.",
"J.J.J.J.J.J.J.J.J.J.J.J.J.J.J.J.J.J.J.J.J.J.J.J.J.J.J.J.J.J.J.J.J.J.J.J.J.J.J.J.J.J.J.J.J.",
"J.J.J.J.J.J.J.J.J.J.J.J.J.J.J.J.J.J.J.J.J.J.J.J.J.J.J.J.J.J.J.J.J.J.J.J.J.J.J.J.J.J.J.J.J.",
"J.J.J.J.J.J.J.J.J.J.J.J.J.J.J.J.J.J.J.J.J.J.J.J.J.J.J.J.J.J.J.J.J.J.J.J.J.J.J.J.J.J.J.J.J.",
"J.J.J.J.J.J.J.J.J.J.J.J.J.J.J.J.J.J.J.J.J.J.J.J.J.J.J.J.J.J.J.J.J.J.J.J.J.J.J.J.J.J.J.J.J.",
"J.J.J.J.J.J.J.J.J.J.J.J.J.J.J.J.J.J.J.J.J.J.J.J.J.J.J.J.J.J.J.J.J.J.J.J.J.J.J.J.J.J.J.J.J."
};
