/* XPM */
static char *result[] = {
/* columns rows colors chars-per-pixel */
"25 39 206 2 ",
"   c #0B0309",
".  c #120413",
"X  c #1E0F19",
"o  c #0D1118",
"O  c #140F13",
"+  c #2B110D",
"@  c #230E1D",
"#  c #27131F",
"$  c #281214",
"%  c #30121C",
"&  c #0C1F23",
"*  c #0C1431",
"=  c #2D0D23",
"-  c #271321",
";  c #351C24",
":  c #3C1C27",
">  c #112221",
",  c #2C2626",
"<  c #3F2531",
"1  c #29303E",
"2  c #373435",
"3  c #39352F",
"4  c #44242B",
"5  c #462729",
"6  c #493C2D",
"7  c #43372B",
"8  c #57342A",
"9  c #422732",
"0  c #452933",
"q  c #4A2B33",
"w  c #542F32",
"e  c #4F3136",
"r  c #423538",
"t  c #5C3433",
"y  c #543539",
"u  c #593739",
"i  c #582B22",
"p  c #7D2E2A",
"a  c #762A28",
"s  c #69362A",
"d  c #603733",
"f  c #643B35",
"g  c #6A3C35",
"h  c #613E3C",
"j  c #40453A",
"k  c #564E3D",
"l  c #6B4439",
"z  c #744435",
"x  c #75483B",
"c  c #7D4C3A",
"v  c #7B4936",
"b  c #7F5138",
"n  c #0B3F52",
"m  c #08394E",
"M  c #18535E",
"N  c #104757",
"B  c #23555F",
"V  c #32595C",
"C  c #0D5764",
"Z  c #19636B",
"A  c #1C777B",
"S  c #337373",
"D  c #367876",
"F  c #3B7A76",
"G  c #3C7F79",
"H  c #367775",
"J  c #2B7171",
"K  c #474246",
"L  c #594544",
"P  c #595A4C",
"I  c #58574B",
"U  c #734B41",
"Y  c #7B4F43",
"T  c #7C5244",
"R  c #7B5E4E",
"E  c #6E4F4A",
"W  c #676D54",
"Q  c #596C64",
"!  c #527C70",
"~  c #557569",
"^  c #76786A",
"/  c #923D2F",
"(  c #84533A",
")  c #8C543C",
"_  c #8C5A3C",
"`  c #855435",
"'  c #925E3E",
"]  c #98533E",
"[  c #944837",
"{  c #A64F3E",
"}  c #A2513B",
"|  c #95603E",
" . c #834E40",
".. c #835444",
"X. c #8D5D4A",
"o. c #8B5B47",
"O. c #965A46",
"+. c #A75B45",
"@. c #B75F4A",
"#. c #99654C",
"$. c #9B785A",
"%. c #96714A",
"&. c #B36B4A",
"*. c #B4674C",
"=. c #B6734F",
"-. c #AA6C52",
";. c #A16D50",
":. c #BB6D52",
">. c #A97455",
",. c #B67B57",
"<. c #B97D57",
"1. c #A66349",
"2. c #B17D62",
"3. c #DE7649",
"4. c #DB7D4E",
"5. c #CB7B50",
"6. c #D87B53",
"7. c #CE6B4A",
"8. c #29817F",
"9. c #37827D",
"0. c #40847C",
"q. c #44897F",
"w. c #BF845A",
"e. c #B5835D",
"r. c #8C8976",
"t. c #988871",
"y. c #B08163",
"u. c #AC946C",
"i. c #B69368",
"p. c #BD8E72",
"a. c #A98F73",
"s. c #C2855A",
"d. c #C98A5D",
"f. c #C7895C",
"g. c #D68355",
"h. c #D1905F",
"j. c #E4905A",
"k. c #CC946E",
"l. c #D29264",
"z. c #DA9A73",
"x. c #D88462",
"c. c #E59D76",
"v. c #EA9C74",
"b. c #F19870",
"n. c #EC936A",
"m. c #D6A57D",
"M. c #D9A465",
"N. c #E8A37A",
"B. c #F1A57B",
"V. c #FFAD7E",
"C. c #FFA073",
"Z. c #2B8885",
"A. c #358D88",
"S. c #39988B",
"D. c #499887",
"F. c #519B87",
"G. c #43A98F",
"H. c #5EAD92",
"J. c #5DB999",
"K. c #58A58E",
"L. c #62B294",
"P. c #73BF9A",
"I. c #6DC49E",
"U. c #70C49C",
"Y. c #73C89F",
"T. c #5ECCA2",
"R. c #5ED1AB",
"E. c #6BCDA5",
"W. c #66C8A3",
"Q. c #74CBA1",
"!. c #65D3AB",
"~. c #67D9AF",
"^. c #74D0A4",
"/. c #78DBAC",
"(. c #71E3B4",
"). c #79F7C1",
"_. c #A79986",
"`. c #93BA8D",
"'. c #A9A989",
"]. c #B1B18E",
"[. c #CFA883",
"{. c #E2AD84",
"}. c #EAB689",
"|. c #EDB98C",
" X c #EABB90",
".X c #98C89B",
"XX c #93D2A7",
"oX c #A4D8AB",
"OX c #D4CF81",
"+X c #CCC098",
"@X c #FFC292",
"#X c #F4D39F",
"$X c #E1C79B",
"%X c #DBD1A9",
"&X c #F4CEA0",
"*X c #FDD4A4",
"=X c #FDDCAB",
"-X c #F7D9A8",
";X c #FFE3AD",
":X c #FFE3B2",
">X c #FEEBB9",
",X c #F9F4BE",
"<X c #FFFAC3",
"1X c #F9F5C0",
"2X c #FFFFD2",
"3X c None",
/* pixels */
"3X3X3X3X3X3X3X3X3X3X3X3X3X3Xt w g ' _ 3X3X3X3X3X3X",
"3X3X3X3Xd 3X3X3X3X3X3X3X_ _ _ d d ' _ _ 3X3X3X3X3X",
"3X3X3X3Xf 3X3X3Xd t l _ _ _ ' ( c ' _ _ 3X3X3X3X3X",
"3X3X3X3Xw 3X3Xt t d b _ _ _ _ ' ) x _ _ 3X3X3X3X3X",
"3X3X3X3X< < 0 w t c | _ _ _ _ ' v w _ _ 3X3X3X3X3X",
"3X3X3X3X0 0 g d b | _ c b ) ( ` x f _ 3X3X3X3X3X3X",
"3X3X3X3Xt g ' ' _ _ x 4 5 ( t 5 f _ 3X3X3X3X3X3X3X",
"3X3X3X3Xq d d ( ` e.|.{.{.}.{.{.m.3X3X3X3X3X3X3X3X",
"3X3X3X3Xw f ) d 2.$.7 6 8 6 m.y.5 + 3X3X3X3X3X3X3X",
"3X3X3X3X; : g : p.k.z ( g i >.-.s 3X3X3X3X3X3X3X3X",
"3X3X3X3XR L 4 g z.k.[ 1.b.@.} ] ' 3X3X3X3X3X3X3X3X",
"3X3X3X3X=X}.4 :.V.$., k |.+.[ f 3 3X3X3X3X3X3X3X3X",
"3X3X3X3X=X+X, +.v.*X1X,X>X1.[ m.,X3X3XI ^ 3X3X3X3X",
"3X3X3X3X3X0 -.7. X>X:X;X>X-X-X<X'.o P I P 3X3X3X3X",
"3X3X3X3X3X3Xv.n.#X>X=X*Xc.c.-X2X'.  j P 3X3X3X3X3X",
"3X3X3X3X3X3X3XC.V.*X,X>X&X&X<X].3 . , 3X3X3X3X3X3X",
"3X3X3X3X3X3X3X$.t.r._.N.c.{._.I $ . # 3X3X3X3X3X3X",
"3X3X3XF.D.H.D.A A C 1 p a / = e x ; 3X3X3X3X3X3X3X",
"3XQ.P.Q.L.D.U.D.J 9.D N M * q ( O...3X3X3X3X3X3X3X",
"U.I.P.Q.Q.L.F S S H./.(.!.L &.j.=.Y 3X3X3Xv.v.c.c.",
"Q.Q.Q.Q.Q.Q.H S H.^.(.!.y &.g.g.u.W.3Xn X.n.B.c.c.",
"G G H F.Q.W.F S W.).J.L +.g.3.u.Y.!.D N O.7.x.B.c.",
"F.D.A.G.T.J.8.Z.! Q W { 6.3.u.U.~.I.D m Q -.3.B.c.",
"Q.`..XXXoX3XV ~ l a +.j.4.i.I.R.^.U.D M Z Q 2.B.c.",
"3XC.@X:X:X$X% s [ &.g.5.i.^.~.E.Q.H.G 0.B Z 3X3X3X",
"3X*X*X=X=Xz.O   f X. .R !.!.I.^.H.H G 0.D.3X3X3X3X",
"3X3X*X=X>X%X+   J S.A.A.A.Z.Z.8.G 3X3X3X3X3X3X3X3X",
"3X3X3X3X3Xr X 3XK K 2 & & >.OXW o 3X3X3X3X3X3X3X3X",
"3X3X3X3X3X3X3X3XY c g t i O.M.%.4 3X3X3X3X3X3X3X3X",
"3X3X3X3X3X3X3X3XU U ..#.,.#.<.,.#.3X3X3X3X3X3X3X3X",
"3X3X3X3X3X3X3X3X0 0 y T s.l.d.s.s.3X3X3X3X3X3X3X3X",
"3X3X3X3X3X9 - 3Xu y q 0 l w.d.s.s.s.3X3X3X3X3X3X3X",
"3X3X3X3Xq < - T X.X.U 0 0 <.d.w.s.w.3X3X3X3X3X3X3X",
"3X3X3X3X0 3Xe ..X.X.o.T 3X3XT ;.d.e.Y 3X3X3X3X3X3X",
"3X3X3X3X3X3X3Xu T U l 3X3X3X3Xe.h.h.w.3X3X3X3X3X3X",
"3X3X3X3X3X3X3X3X3X3X3X3X3X3X3X>.#.l l 3X3X3X3X3X3X",
"3X3X3X3X3X3X3X3X3X3X3X3X3X3X3X3Xq . # 3X3X3X3X3X3X",
"3X3X3X3X3X3X3X3X3X3X3X3X3X3X3X3X3X; y y 3X3X3X3X3X",
"3X3X3X3X3X3X3X3X3X3X3X3X3X3X3X3X3Xu u 3X3X3X3X3X3X"
};
