/* XPM */
static char *result[] = {
/* columns rows colors chars-per-pixel */
"25 39 208 2 ",
"   c #060107",
".  c #18090A",
"X  c #160916",
"o  c #141216",
"O  c #21100E",
"+  c #2F140F",
"@  c #220F1F",
"#  c #2B1511",
"$  c #22111F",
"%  c #2E1A14",
"&  c #321913",
"*  c #3D0E19",
"=  c #1C132C",
"-  c #251221",
";  c #281421",
":  c #231924",
">  c #3A1927",
",  c #18323C",
"<  c #3C242C",
"1  c #3F2532",
"2  c #302F3B",
"3  c #363832",
"4  c #40231A",
"5  c #452125",
"6  c #4A262A",
"7  c #4B2A26",
"8  c #50292C",
"9  c #5A332E",
"0  c #412632",
"q  c #462934",
"w  c #4B2E35",
"e  c #542E32",
"r  c #4A353B",
"t  c #5B3333",
"y  c #553538",
"u  c #5C3A39",
"i  c #5B3635",
"p  c #613734",
"a  c #653A34",
"s  c #693F39",
"d  c #7A3931",
"f  c #6E322A",
"g  c #6C4236",
"h  c #6B453D",
"j  c #66423E",
"k  c #734534",
"l  c #744639",
"z  c #794B39",
"x  c #764B39",
"c  c #1B3646",
"v  c #0B4F50",
"b  c #185455",
"n  c #23585F",
"m  c #165B65",
"M  c #1C656C",
"N  c #316E6F",
"B  c #286E70",
"V  c #2A7778",
"C  c #2C7A7A",
"Z  c #387875",
"A  c #4F5347",
"S  c #56584B",
"D  c #585A4C",
"F  c #565749",
"G  c #764D43",
"H  c #7E5244",
"J  c #715C54",
"K  c #49715D",
"L  c #736F5E",
"P  c #6A6B5D",
"I  c #416661",
"U  c #4A746E",
"Y  c #5D7F6D",
"T  c #4A7D75",
"R  c #7C7E70",
"E  c #796F64",
"W  c #853026",
"Q  c #834A3B",
"!  c #86553A",
"~  c #8C5A3C",
"^  c #875536",
"/  c #915E3E",
"(  c #B2422E",
")  c #AA4C39",
"_  c #B24D37",
"`  c #C1563E",
"'  c #825445",
"]  c #875947",
"[  c #8D5D49",
"{  c #8C5643",
"}  c #925F49",
"|  c #985743",
" . c #AB5844",
".. c #B65B44",
"X. c #8A6947",
"o. c #95644D",
"O. c #9A6A4D",
"+. c #9F7E5F",
"@. c #8E6B55",
"#. c #AC674B",
"$. c #BB674B",
"%. c #B5704D",
"&. c #A36E51",
"*. c #AB7758",
"=. c #B17955",
"-. c #857163",
";. c #A77B62",
":. c #B07E64",
">. c #C45C43",
",. c #DE7F4F",
"<. c #CF7D51",
"1. c #C97858",
"2. c #D17D50",
"3. c #C6754C",
"4. c #3B867E",
"5. c #5B806D",
"6. c #45877D",
"7. c #5E8571",
"8. c #6E8D74",
"9. c #AA825F",
"0. c #B6875E",
"q. c #87866D",
"w. c #9D8162",
"e. c #A78166",
"r. c #B28161",
"t. c #BF9275",
"y. c #A68C74",
"u. c #81A77A",
"i. c #C3865A",
"p. c #C6885B",
"a. c #CB8C5D",
"s. c #C88155",
"d. c #DA8453",
"f. c #D68259",
"g. c #E78954",
"h. c #CF8464",
"j. c #DD9468",
"k. c #C08F70",
"l. c #D69671",
"z. c #C8956F",
"x. c #E28A65",
"c. c #E58C68",
"v. c #F1976E",
"b. c #E69F78",
"n. c #E19873",
"m. c #EF9E6C",
"M. c #D7AE73",
"N. c #E7A079",
"B. c #ECA47B",
"V. c #E9A87E",
"C. c #FAA77B",
"Z. c #F5DA79",
"A. c #328E88",
"S. c #3E9787",
"D. c #2B928B",
"F. c #2CA196",
"G. c #489787",
"H. c #539F88",
"J. c #458682",
"K. c #5BAD92",
"L. c #58B898",
"P. c #60AD91",
"I. c #68BA98",
"U. c #7ABA94",
"Y. c #4DBEA1",
"T. c #6DC39D",
"R. c #64C09D",
"E. c #71C59D",
"W. c #5DD3AE",
"Q. c #52DBB6",
"!. c #60C5A1",
"~. c #65CDA6",
"^. c #73C9A0",
"/. c #67D6AD",
"(. c #78D4A6",
"). c #71D4A8",
"_. c #76E8B6",
"`. c #B79B80",
"'. c #87B388",
"]. c #9EB89A",
"[. c #CEA582",
"{. c #DBB48B",
"}. c #D7B790",
"|. c #E7AC82",
" X c #EDB88B",
".X c #F3BF92",
"XX c #86C59A",
"oX c #89D0A4",
"OX c #C8C499",
"+X c #D3C99E",
"@X c #FAC898",
"#X c #ECC99B",
"$X c #E4CFA0",
"%X c #E7D4A6",
"&X c #FDD7A7",
"*X c #FDDEAD",
"=X c #F5D9A8",
"-X c #E2DDB0",
";X c #F5E1AF",
":X c #FFE0AC",
">X c #FFE5B2",
",X c #FFEAB6",
"<X c #FBECBA",
"1X c #FEF1BD",
"2X c #E6E1B5",
"3X c #FFFEC6",
"4X c #FEF9C7",
"5X c None",
/* pixels */
"5X5X5X5X5X5X5X5X5X5X5X5X5X5X5X5X5X5X5X5X5X5X5X5X5X",
"5X5X5X5X5X5X5X5X5X5X5X5X5X5X5X5X5X5X5X5X5X5X5X5X5X",
"5X5X5X5X5X5X5X5X5X5X5X5X5X5X5Xe g ~ ~ 5X5X5X5X5X5X",
"5X5X5X5X5X5X5X5X5X5X5X5X5X5Xz t s ~ ~ ~ 5X5X5X5X5X",
"5X5X5X5Xp 5X5X5X5X5X5X5X~ ~ / z l / ~ ~ 5X5X5X5X5X",
"5X5X5X5Xt 5X5Xp t t g / ~ ~ ~ / ~ ! ~ ~ 5X5X5X5X5X",
"5X5X5X5X0 1 1 t t l | ~ ~ ^ ~ / z 9 ~ ~ 5X5X5X5X5X",
"5X5X5X5X1 1 t e z / ~ ~ ~ ~ / / x t ~ 5X5X5X5X5X5X",
"5X5X5X5Xt p ~ ! ! ^ k 7 8 z 9 8 a z 5X5X5X5X5X5X5X",
"5X5X5X5Xe p l / ^ *.z.:.e.z.:.;.:.5X5X5X5X5X5X5X5X",
"5X5X5X5Xw p s s O.9.+.w.w.w. Xb.X.5X5X5X5X5X5X5X5X",
"5X5X5X5X8 9 ^ 5 t.e.% % % O r.o.+ + 5X5X5X5X5X5X5X",
"5X5X5X5X< < 6 5 k.B.1.h.x. ./ $.1.5X5X5X5X5X5X5X5X",
"5X5X5X5X#Xl.6 #.|.O.. 7 V. .) f O 5X5X5X5X5X5X5X5X",
"5X5X5X5X>X$X: #.v. XOXOX;X| W :.OX5X5X5X5X5X5X5X5X",
"5X5X5X5X`.J z $.|.,X<X1X1X}.[.%X3X5X5XD R 5X5X5X5X",
"5X5X5X5X5X5 x.f.#X,X*X&X X@X>X3X+X5XD D P 5X5X5X5X",
"5X5X5X5X5X5X|.C.@X:X,X*XV.V.>X-XL o A D F 5X5X5X5X",
"5X5X5X5X5X5X5Xl.j.{.-X%X=X=X2XE X o 3 S 5X5X5X5X5X",
"5X5X5X5X5XI.Z Z C m r ( ) _ 0 r p X $ 5X5X5X5X5X5X",
"5X5X5X5XP.J.T.4.C V n , c = > j ' l 5X5X5X5X5X5X5X",
"5X5X5XE.I.K.G.Z N G.R.L.Y.2 { 1.#.Q 5X5X5X5X5X5X5X",
"5X5XE.E.).^.Z N G.^._._.Y } s.g.0.H.5X5XN.b.5X5X5X",
"5XE.E.I.K.!.B M L._.!.Y d 2.,.p.'.W.5XC.B.N.b.5X5X",
"5XE.T.G.6.U.6.J.H.L.5.f d.d.s.'.Q.I.>.x.n.n.N.5X5X",
"5X^.6.S.'.C.*X1X@.* d d.f.<.U.W.~.U.>.....h.B.5X5X",
"5X5XZ G.oX&X*X,X<Xy.Q d.<.E.~.).).!.T ..x.b.b.5X5X",
"5X5X5X5X5X,X>X,X@X1.W | E.).).(.I.4.C U 5X5X5X5X5X",
"5X5X5X5X5X-.4X4X].Y U T F.D.D.G.G.5X5X5X5X5X5X5X5X",
"5X5X5X5X5X- q.q.I v v b 8.u.'.K , 5X5X5X5X5X5X5X5X",
"5X5X5X5X5XX     5 7 + 4 3.M.Z.X.. 5X5X5X5X5X5X5X5X",
"5X5X5X5X5X; ; 5X[ [ } o.! k %.#.' 5X5X5X5X5X5X5X5X",
"5X5X5X5X5X5X5X5Xw G &.j.a.a.p.i.i.5X5X5X5X5X5X5X5X",
"5X5X5X5X5Xq q - 1 q w u ] p.a.p.p.5X5X5X5X5X5X5X5X",
"5X5X5X5X5Xq q - u ' G j y p.j.0.[ 5X5X5X5X5X5X5X5X",
"5X5X5X5X5Xq q 5Xu ' ] j 0 g g g 5X5X5X5X5X5X5X5X5X",
"5X5X5X5X5Xw 5X5X5Xh G w 5X$ $ 5X5X5X5X5X5X5X5X5X5X",
"5X5X5X5X5X5X5X5X5X5X5X5X5Xy u u 5X5X5X5X5X5X5X5X5X",
"5X5X5X5X5X5X5X5X5X5X5X5X5Xy y y y 5X5X5X5X5X5X5X5X"
};
