/* XPM */
static char *result[] = {
/* columns rows colors chars-per-pixel */
"25 39 189 2 ",
"   c #1D0C1A",
".  c #1A0816",
"X  c #1D161D",
"o  c #0B0B19",
"O  c #2D1212",
"+  c #1E0E26",
"@  c #061F22",
"#  c #261320",
"$  c #2A1624",
"%  c #2E1924",
"&  c #331B26",
"*  c #361B27",
"=  c #082239",
"-  c #2E212B",
";  c #3B232C",
":  c #27342D",
">  c #39382C",
",  c #3F2531",
"<  c #383837",
"1  c #411F25",
"2  c #4A272E",
"3  c #4B292F",
"4  c #47292B",
"5  c #582D2B",
"6  c #48392D",
"7  c #563028",
"8  c #422632",
"9  c #452933",
"0  c #4E2931",
"q  c #532E33",
"w  c #493237",
"e  c #5C3434",
"r  c #553638",
"t  c #533035",
"y  c #7E332B",
"u  c #643A33",
"i  c #6A3E35",
"p  c #603634",
"a  c #68292A",
"s  c #44483E",
"d  c #6D4236",
"f  c #6C423A",
"g  c #67443A",
"h  c #7C4B37",
"j  c #72453B",
"k  c #75493C",
"l  c #7B4B3A",
"z  c #754534",
"x  c #2B3945",
"c  c #463E42",
"v  c #094A56",
"b  c #1B4B53",
"n  c #08505C",
"m  c #3E4A41",
"M  c #214F55",
"N  c #22565B",
"B  c #375358",
"V  c #1B5E65",
"C  c #176B6F",
"Z  c #306765",
"A  c #257575",
"S  c #2B7474",
"D  c #267C7D",
"F  c #2D7E7E",
"G  c #3F7F7A",
"H  c #367775",
"J  c #56594C",
"K  c #774A40",
"L  c #61544D",
"P  c #795043",
"I  c #6F5A51",
"U  c #7A5D51",
"Y  c #6C4D49",
"T  c #73655B",
"R  c #7D705E",
"E  c #6A7A52",
"W  c #7B7E70",
"Q  c #833C32",
"!  c #8B4335",
"~  c #844938",
"^  c #9B4838",
"/  c #83523A",
"(  c #89573C",
")  c #8D5A3C",
"_  c #885636",
"`  c #91533E",
"'  c #935E3E",
"]  c #A6513F",
"[  c #B35135",
"{  c #A64935",
"}  c #98623E",
"|  c #855846",
" . c #8B5D49",
".. c #805444",
"X. c #9D5C42",
"o. c #975B46",
"O. c #A65744",
"+. c #9A664D",
"@. c #976C59",
"#. c #A5604A",
"$. c #A66D51",
"%. c #BD6C51",
"&. c #AB7453",
"*. c #A37358",
"=. c #B07455",
"-. c #B67B54",
";. c #B87E58",
":. c #8B7666",
">. c #AB7F67",
",. c #B57C61",
"<. c #CA6C4D",
"1. c #D36C4D",
"2. c #DF724A",
"3. c #C47053",
"4. c #C56D53",
"5. c #32817E",
"6. c #3C837D",
"7. c #42857D",
"8. c #7D997B",
"9. c #BD8259",
"0. c #91856F",
"q. c #B98B68",
"w. c #AD9D7F",
"e. c #B6976A",
"r. c #CB8C5E",
"t. c #C5885C",
"y. c #D68A5E",
"u. c #F38B5E",
"i. c #DB9566",
"p. c #CF9C79",
"a. c #E79B74",
"s. c #EF946B",
"d. c #DFA87F",
"f. c #CDA666",
"g. c #E6A67A",
"h. c #EFA66E",
"j. c #277F80",
"k. c #378A84",
"l. c #2F948A",
"z. c #3D9D93",
"x. c #2D8785",
"c. c #3FA191",
"v. c #4D9786",
"b. c #58A58E",
"n. c #46AB93",
"m. c #59B195",
"M. c #70AE89",
"N. c #7AB58F",
"B. c #66BC9B",
"V. c #62B698",
"C. c #75B993",
"Z. c #68A285",
"A. c #40C1A1",
"S. c #6EC8A1",
"D. c #74CCA2",
"F. c #6CD6AC",
"G. c #62D0AB",
"H. c #75D2A6",
"J. c #AA9C89",
"K. c #97A580",
"L. c #B6BB97",
"P. c #DFB087",
"I. c #E8AC81",
"U. c #E1B289",
"Y. c #EAB789",
"T. c #FFB081",
"R. c #F1BF92",
"E. c #8BCE9E",
"W. c #B6CF9E",
"Q. c #A8DEAF",
"!. c #CDD683",
"~. c #EFC89A",
"^. c #FBC89A",
"/. c #FFD29D",
"(. c #D5ED8E",
"). c #DFDBAC",
"_. c #CAD0A5",
"`. c #FFD4A6",
"'. c #FEDCAC",
"]. c #FAD9A7",
"[. c #E9D8AA",
"{. c #FFE1AF",
"}. c #FFE3B2",
"|. c #FCEAB7",
" X c #FDEDB9",
".X c #F6E2B0",
"XX c #FDF2BE",
"oX c #FFF9C2",
"OX c None",
/* pixels */
"OXOXOXOXOXOXOXOXOXOXOXOXOXOXOXOXOXOXOXOXOXOXOXOXOX",
"OXOXOXOXOXOXOXOXOXOXOXOXOXOXOXOXOXOXOXOXOXOXOXOXOX",
"OXOXOXOXOXOXOXOXOXOXp e q / ) ) k e ) ) OXOXOXOXOX",
"OXOXOXOXOXOXOXOXOXe e e j ( ) ' / d z ( ) OXOXOXOX",
"OXOXOXOXq 8 9 8 6 u i d } } ( ) +._ u ( ) OXOXOXOX",
"OXOXOXOX8 9 i i e h } ) l l _ / / ( ) ) ) OXOXOXOX",
"OXOXOXOXe i } } } ) ) h 3 3 h d 2 0 e ( OXOXOXOXOX",
"OXOXOXOX8 9 u p h _ $.~.U.P.Y.Y.>.2 e OXOXOXOXOXOX",
"OXOXOXOXe e e / u @.q.6 6 6 6 e.q.O OXOXOXOXOXOXOX",
"OXOXOXOX4 * & u * @.g.h ~ z 7 o.=.OXOXOXOXOXOXOXOX",
"OXOXOXOXw T Y 2 a ,.g.) o.s.4.O.O.OXOXOXOXOXOXOXOX",
"OXOXOXOXT oX/.t X.h.q.> > P.%.^ O.OXOXOXOXOXOXOXOX",
"OXOXOXOXOX[.).< ..u.R.oX|.oX,.^ O.OXJ W OXOXOXOXOX",
"OXOXOXOXOX; - #.4.I. X}.}.}..X|.L.s J J OXOXOXOXOX",
"OXOXOXOXOXOX#.a.s.R. X'.`.a.g.{.W.: J OXOXOXOXOXOX",
"OXOXOXOXOXOXOXu.s.T./.oXoX].{.J.< O s OXOXOXOXOXOX",
"OXOXOXOXOXOXOXR 0.:.>.a.g.I.J.J O o < OXOXOXOXOXOX",
"OXOXOXOXOXOXN A l.C x ! y Q # 9 i * OXOXOXOXOXOXOX",
"OXOXOXOXOXN G 7.V.m.j.S v n = 9 k ..OXOXOXOXOXOXOX",
"OXOXOXOXOXM 6.D.v.b.B.H j.x.w ' -.K OXOXOXOXOXOXOX",
"OXOXOXOXb b G 6.b.D.H.B.H 3 { Y.~.i.'.OXOXOXOXOXOX",
"OXOXOXOXv v 6.V.D.D.D.D.B.Z.M._.}.^.`.`.OXOXOXOXOX",
"OXOXOXOXU I V z.G.F.D.D.H.n.A.Q.}.'.`.`.OXOXOXOXOX",
"OXOXOXOX1.1.L B 8.E.F.F.F.A c.W./.'.`.`.OXOXOXOXOX",
"OXOXOXOX4.<.2.a [ e.C.N.N.H c.K.p._.`.OXOXOXOXOXOX",
"OXOXOXOX%.3.OX% i | ! ! ! H D A S D OXOXOXOXOXOXOX",
"OXOXOXOXOXOX8 . Z c.k.5.5.5.D 5.F OXOXOXOXOXOXOXOX",
"OXOXOXOXOX8 %   < < @ : q.!.(.E o OXOXOXOXOXOXOXOX",
"OXOXOXOXOX* #   e d 7 7 } h.f.g * OXOXOXOXOXOXOXOX",
"OXOXOXOXOX% #   d +.&.$.+.y.P 0 k | OXOXOXOXOXOXOX",
"OXOXOXOXOX% # OX+.&.i.i.i.9.u Y  .| OXOXOXOXOXOXOX",
"OXOXOXOXOXOXOXOXt.t.t.t.9., g  . .| OXOXOXOXOXOXOX",
"OXOXOXOXOXOXOXP &.r.r.9.X o * K  .OXOXOXOXOXOXOXOX",
"OXOXOXOXOXOXOX9.9.r.r.OX% ; & ; OXOXOXOXOXOXOXOXOX",
"OXOXOXOXOXOX+.r.&.+.OXOX9 9 * OXOXOXOXOXOXOXOXOXOX",
"OXOXOXOXOXOX3 u g OXOXOX9 9 OXOXOXOXOXOXOXOXOXOXOX",
"OXOXOXOXOXOX% $ OXOXOXOX9 OXOXOXOXOXOXOXOXOXOXOXOX",
"OXOXOXOXOXOXr r r OXOXOXOXOXOXOXOXOXOXOXOXOXOXOXOX",
"OXOXOXOXOXOXr r r r OXOXOXOXOXOXOXOXOXOXOXOXOXOXOX"
};
