/* XPM */
static char *result[] = {
/* columns rows colors chars-per-pixel */
"25 39 191 2 ",
"   c #05070D",
".  c #090014",
"X  c #1A0918",
"o  c #27131F",
"O  c #231D1A",
"+  c #240B08",
"@  c #29221A",
"#  c #130721",
"$  c #271623",
"%  c #2A1523",
"&  c #351925",
"*  c #3E242F",
"=  c #32292A",
"-  c #27312C",
";  c #3B2432",
":  c #40221F",
">  c #40222D",
",  c #542D2E",
"<  c #5C2E2F",
"1  c #5F362F",
"2  c #422630",
"3  c #442A32",
"4  c #4B2B33",
"5  c #552E32",
"6  c #4B373B",
"7  c #553235",
"8  c #5B3333",
"9  c #553538",
"0  c #5C3B36",
"q  c #70332F",
"w  c #623533",
"e  c #653B34",
"r  c #693D38",
"t  c #753C35",
"y  c #693A2A",
"u  c #5E423B",
"i  c #69433E",
"p  c #734534",
"a  c #7A4B37",
"s  c #754638",
"d  c #764938",
"f  c #7B4C3B",
"g  c #7C4232",
"h  c #093348",
"j  c #1C424E",
"k  c #144A54",
"l  c #1A4C54",
"z  c #0D505B",
"x  c #064B57",
"c  c #244D53",
"v  c #2D4E52",
"b  c #275155",
"n  c #165961",
"m  c #1C7478",
"M  c #17656C",
"N  c #346869",
"B  c #287475",
"V  c #297979",
"C  c #317675",
"Z  c #367D78",
"A  c #226767",
"S  c #494949",
"D  c #5C4E48",
"F  c #445047",
"G  c #575B4A",
"H  c #434F50",
"J  c #415555",
"K  c #505554",
"L  c #6A4B44",
"P  c #784E42",
"I  c #774941",
"U  c #615F4A",
"Y  c #7D5344",
"T  c #71554B",
"R  c #795E50",
"E  c #55655F",
"W  c #7A734C",
"Q  c #7F6D63",
"!  c #68796E",
"~  c #767365",
"^  c #893C2F",
"/  c #953F31",
"(  c #84533C",
")  c #885639",
"_  c #8C5A3D",
"`  c #805036",
"'  c #925E3D",
"]  c #934B3A",
"[  c #A64D39",
"{  c #A3503E",
"}  c #95603F",
"|  c #C95A3B",
" . c #D1633D",
".. c #825545",
"X. c #865845",
"o. c #8B5D45",
"O. c #8B5C49",
"+. c #8C5442",
"@. c #985542",
"#. c #A45944",
"$. c #8D6048",
"%. c #9C684E",
"&. c #946C5B",
"*. c #9B705C",
"=. c #846B57",
"-. c #AA654C",
";. c #BB6B50",
":. c #B56B52",
">. c #A77453",
",. c #A67656",
"<. c #B67C57",
"1. c #A66C55",
"2. c #887269",
"3. c #C36A4C",
"4. c #CA6D4E",
"5. c #D26D4C",
"6. c #D5714F",
"7. c #C56E52",
"8. c #C97251",
"9. c #2A817B",
"0. c #3A817D",
"q. c #448A7F",
"w. c #778677",
"e. c #BD8259",
"r. c #B4885A",
"t. c #888F6F",
"y. c #998D74",
"u. c #B48E6A",
"i. c #BF9171",
"p. c #B1A87B",
"a. c #C4875B",
"s. c #CB8C5D",
"d. c #C5885C",
"f. c #D58E5E",
"g. c #EE865D",
"h. c #C88D6A",
"j. c #D78361",
"k. c #C8936E",
"l. c #D39260",
"z. c #D99962",
"x. c #D59871",
"c. c #E08964",
"v. c #E6926B",
"b. c #EC976F",
"n. c #F99D72",
"m. c #FA9A6E",
"M. c #E9A37A",
"N. c #F6A378",
"B. c #278B86",
"V. c #338A83",
"C. c #3A9189",
"Z. c #339991",
"A. c #448B81",
"S. c #4A9686",
"D. c #519C89",
"F. c #5BAD93",
"G. c #51AE94",
"H. c #68BB9A",
"J. c #6EC69F",
"K. c #64CAA2",
"L. c #69C7A1",
"P. c #70C7A0",
"I. c #74CDA2",
"U. c #7FC9A0",
"Y. c #69D3AA",
"T. c #75D2A7",
"R. c #79D4A7",
"E. c #7BD9AA",
"W. c #67DAB0",
"Q. c #B2B894",
"!. c #C6BC98",
"~. c #E6AD82",
"^. c #E8B689",
"/. c #F2B78A",
"(. c #E5BF92",
"). c #E6DF82",
"_. c #FAC494",
"`. c #ECF58D",
"'. c #DED0A4",
"]. c #EAD9A9",
"[. c #FFD2A5",
"{. c #FFD7A9",
"}. c #FDDAAB",
"|. c #FEE0AE",
" X c #FDE3B1",
".X c #FDE9B5",
"XX c #FFEFBC",
"oX c #FFF4BE",
"OX c #FFFBC4",
"+X c #FFF6C1",
"@X c None",
/* pixels */
"@X@X@X@X@X@X@X@X@X@X@X@X@X@X_ _ _ @X_ _ ) @X@X@X@X",
"@X@X@X@X@Xe @X@X@X@Xw 8 8 ( _ ' a 7 _ _ _ @X@X@X@X",
"@X@X@X@X@X4 ; ; 7 8 8 8 a _ _ o.( a ' _ _ @X@X@X@X",
"@X@X@X@X; ; 4 3 7 e p p } ' _ _ @.' s _ _ @X@X@X@X",
"@X@X@X@X4 5 s s i a } ) p p f a a a 8 ( @X@X@X@X@X",
"@X@X@X@Xw e @.' } _ _ ' 0 9 _ f 7 4 8 @X@X@X@X@X@X",
"@X@X@X@X; 2 8 8 a ) ,.^.^.^.^./.~.@X@X@X@X@X@X@X@X",
"@X@X@X@Xw 8 8 ) 1 *.u.@ @ @ O ,.h.+ @X@X@X@X@X@X@X",
"@X@X@X@X* & $ 8 & *.~.-.-.#.g @.-.@X@X@X@X@X@X@X@X",
"@X@X@X@X6 y.&.4 t h.x.y p v.7.#.#.@X@X@X@X@X@X@X@X",
"@X@X@X@XQ OX|.6 @.n.k.G U (.:./ [ @X@X@X@X@X@X@X@X",
"@X@X@X@X@X!.!.6 ] v._.OX+XOXi.-.1.@X@X@X@X@X@X@X@X",
"@X@X@X@X@X$ $ :.6.~.XX|.|.|..X+XQ.F w.@X@X@X@X@X@X",
"@X@X@X@X@X@X8.M.M._.XX}.}.M.b.{.Q.- G @X@X@X@X@X@X",
"@X@X@X@X@X@X@Xg.m.N._.oXoX.XoXy.$ X @X@X@X@X@X@X@X",
"@X@X@X@X@X@Xl S ! w.! ~ j.j.2.D & X @X@X@X@X@X@X@X",
"@X@X@X@X@Xl l n m V M j 8 8 X 2 f , @X@X@X@X@X@X@X",
"@X@X@X@Xx k k Z Z A.S.C A z h ; g _ @X@X@X@X@X@X@X",
"@X@X@XJ b c k C C.F.H.q.E.S.C.E t P @X}.M./.}.@X@X",
"@X@X;.7.4.3.c B J.F.q.I.I.I.R.E.F.9.K.].[.[.[.[.@X",
"@X@X;.;.4.5.;.v B F.I.I.J.J.P.R.F.V K.].}.[.[.[.@X",
"@X@X;.;.;.4.6.v M C.G.W.Y.J.J.T.F.C J.R.'.[.{.@X@X",
"@X@X@X:.;.;.7.S F K ~ p.p.T.Y.R.H.D.S.G.@X@X@X@X@X",
"@X@X@X@X;.;.@X, q ^ [ 5.| t.F.G.H.H.N @X@X@X@X@X@X",
"@X@X@X@X@X@X@X& L =.R T L t N 9.@X@X@X@X@X@X@X@X@X",
"@X@X@X@X@X@X@XX N Z.B.B.V.V.0.V @X@X@X@X@X@X@X@X@X",
"@X@X@X@X@X@X4 o 3 =   @ s.).`.W   @X@X@X@X@X@X@X@X",
"@X@X@X@X@X@X% X e f u e +.z.r.u 4 O.@X@X@X@X@X@X@X",
"@X@X@X@X@X@Xo . 0 >.<.<.>.j.I 9 P X...@X@X@X@X@X@X",
"@X@X@X@X@X@X@X0 $.e.l.l.s.%.6 e O.O...X.@X@X@X@X@X",
"@X@X@X@X@X@X@Xz.l.s.d.d.a.4 ; i Y P O.O.@X@X@X@X@X",
"@X@X9 9 2 & e.s.d.e.<.a.@X@X@X@X@X7 Y Y @X@X@X@X@X",
"@X@X9 9 3 $ Y e.d.%.P @X@X@X@X@X@X@X$ o @X@X@X@X@X",
"@X@X9 9 @X@X@X@X@X@X@X@X@X@X@X@X@X@X* * @X@X@X@X@X",
"@X@X@X@X@X@X@X@X@X@X@X@X@X@X@X@X@X@X3 4 3 @X@X@X@X",
"@X@X@X@X@X@X@X@X@X@X@X@X@X@X@X@X@X@X@X@X@X@X@X@X@X",
"@X@X@X@X@X@X@X@X@X@X@X@X@X@X@X@X@X@X@X@X@X@X@X@X@X",
"@X@X@X@X@X@X@X@X@X@X@X@X@X@X@X@X@X@X@X@X@X@X@X@X@X",
"@X@X@X@X@X@X@X@X@X@X@X@X@X@X@X@X@X@X@X@X@X@X@X@X@X"
};
