/* XPM */
static char *result[] = {
/* columns rows colors chars-per-pixel */
"25 39 192 2 ",
"   c #150712",
".  c #1D0A1A",
"X  c #140E16",
"o  c #29120F",
"O  c #220B13",
"+  c #24121E",
"@  c #0B1E31",
"#  c #081C22",
"$  c #2A1621",
"%  c #2C1822",
"&  c #341A26",
"*  c #371E2D",
"=  c #29222F",
"-  c #242C26",
";  c #3D242D",
":  c #38232A",
">  c #29352F",
",  c #39392C",
"<  c #3D2432",
"1  c #383938",
"2  c #49272F",
"3  c #4D2B2A",
"4  c #452329",
"5  c #5A2F23",
"6  c #48382C",
"7  c #422632",
"8  c #452933",
"9  c #4A2B33",
"0  c #412E3A",
"q  c #522C31",
"w  c #403538",
"e  c #543234",
"r  c #5B3333",
"t  c #543538",
"y  c #5D3B3C",
"u  c #563229",
"i  c #632F2D",
"p  c #79312C",
"a  c #613634",
"s  c #643934",
"d  c #6A3E35",
"f  c #733D36",
"g  c #47443D",
"h  c #68433D",
"j  c #724537",
"k  c #7B4C39",
"l  c #7A4834",
"z  c #7F5138",
"x  c #0A4653",
"c  c #194B53",
"v  c #0D535E",
"b  c #2B424A",
"n  c #3F4B41",
"m  c #3B4E52",
"M  c #2B4E55",
"N  c #395B60",
"B  c #126A70",
"V  c #1A7476",
"C  c #2D7C7B",
"Z  c #277677",
"A  c #397E79",
"S  c #377977",
"D  c #366B66",
"F  c #595C4F",
"G  c #54584B",
"H  c #485E5E",
"J  c #514647",
"K  c #6F4943",
"L  c #7A5447",
"P  c #615448",
"I  c #68724F",
"U  c #71625C",
"Y  c #506F69",
"T  c #4A6964",
"R  c #7B7E70",
"E  c #812720",
"W  c #81342B",
"Q  c #854B3A",
"!  c #9A4939",
"~  c #84533A",
"^  c #89573B",
"/  c #8C5A3D",
"(  c #885637",
")  c #925E3E",
"_  c #90523B",
"`  c #A6513F",
"'  c #AA593D",
"]  c #96603F",
"[  c #855847",
"{  c #8B5D49",
"}  c #895846",
"|  c #9A5A44",
" . c #A65744",
".. c #93624B",
"X. c #9F624C",
"o. c #84705A",
"O. c #95765F",
"+. c #91694E",
"@. c #A2624C",
"#. c #B9674E",
"$. c #A3724F",
"%. c #AA6E54",
"&. c #AB7453",
"*. c #BA7F58",
"=. c #BD7A56",
"-. c #BA6C53",
";. c #B57D61",
":. c #A57B64",
">. c #C86C4E",
",. c #DC6D4C",
"<. c #C46E52",
"1. c #D67251",
"2. c #C67D57",
"3. c #3C827D",
"4. c #42897E",
"5. c #5A8776",
"6. c #B9835A",
"7. c #8D816C",
"8. c #B18966",
"9. c #BF8869",
"0. c #AD9C7F",
"q. c #C2855A",
"w. c #C6895C",
"e. c #CC8C5E",
"r. c #D68858",
"t. c #D2915F",
"y. c #D79460",
"u. c #CA9371",
"i. c #D49A79",
"p. c #F08E66",
"a. c #ED976F",
"s. c #E59B73",
"d. c #ED9C73",
"f. c #FD9C70",
"g. c #E78F68",
"h. c #DEA163",
"j. c #E4A47A",
"k. c #E4A87E",
"l. c #FDA377",
"z. c #C9CB7D",
"x. c #F8C272",
"c. c #2D8981",
"v. c #3B8A83",
"b. c #368984",
"n. c #3A948A",
"m. c #409B91",
"M. c #4D9585",
"N. c #4EA48D",
"B. c #5DAC91",
"V. c #54AC94",
"C. c #5AB297",
"Z. c #69BB99",
"A. c #62B394",
"S. c #65A489",
"D. c #52C09B",
"F. c #68C49D",
"G. c #71C79F",
"H. c #79C79D",
"J. c #6AC5A0",
"K. c #66C9A2",
"L. c #73CBA1",
"P. c #6CD8AE",
"I. c #79D2A5",
"U. c #79D8A9",
"Y. c #78E3B2",
"T. c #A99883",
"R. c #B7BA97",
"E. c #DFB187",
"W. c #E5AB81",
"Q. c #ECB287",
"!. c #E0B188",
"~. c #EBB98A",
"^. c #FFB281",
"/. c #AFCFA3",
"(. c #F7C598",
"). c #FFD39E",
"_. c #D1E288",
"`. c #C5CCA1",
"'. c #DEDAAD",
"]. c #EDD8A9",
"[. c #EFD2A4",
"{. c #FFD4A6",
"}. c #FFDBAC",
"|. c #F6DBA9",
" X c #F6DFB0",
".X c #FFE3B2",
"XX c #FFEDBA",
"oX c #F9E9B7",
"OX c #FBF3BE",
"+X c #FFFBC2",
"@X c #FFF5C0",
"#X c None",
/* pixels */
"#X#X#X#X#X#X#X#X#X#X#X#X#X#X#Xr q a ) / #X#X#X#X#X",
"#X#X#X#X#Xa #X#X#X#X#X#X#X/ / / j q / / / #X#X#X#X",
"#X#X#X#X#Xd #X#X#Xa r r / / / ) ^ k ) / / #X#X#X#X",
"#X#X#X#X9 e 8 #Xr r a l / / ^ } ) / j / / #X#X#X#X",
"#X#X#X#X7 < < 8 q a k ) / / / / ] ~ q ( / #X#X#X#X",
"#X#X#X#X8 8 8 s s l ) ^ z z ~ ~ ( k a ^ #X#X#X#X#X",
"#X#X#X#Xs s a / ../ / z 3 4 j j 9 a ^ #X#X#X#X#X#X",
"#X#X#X#X7 8 r r z ( $.~.E.E.~.W.i.#X#X#X#X#X#X#X#X",
"#X#X#X#Xr r a ~ s +.8.6 6 6 6 8.u.  #X#X#X#X#X#X#X",
"#X#X#X#X2 & & d 4 O.k.Q Q l 5 | -.#X#X#X#X#X#X#X#X",
"#X#X#X#X0 U K 2 r 9.j.^ | d.<.`  .#X#X#X#X#X#X#X#X",
"#X#X#X#XU +X{.t | l.9., , E.-.!  .#X#X#X#X#X#X#X#X",
"#X#X#X#X#X].'.1 Q g.(.@XOX@X;.!  .#XF R #X#X#X#X#X",
"#X#X#X#X#X: = X.>.j.XX}.}.oX.XoXR.n G F #X#X#X#X#X",
"#X#X#X#X#X#X@.s.a.~.@X}.}.k.d..XR.> G #X#X#X#X#X#X",
"#X#X#X#X#X#X#Xp.f.^.{.@X@X|.}.T.1 X g #X#X#X#X#X#X",
"#X#X#X#X#X#X#XU 7.O.:.j.k.W.T.P o   , #X#X#X#X#X#X",
"#X#X#X#X#X#X#Xv V B b p W E = g k : #X#X#X#X#X#X#X",
"#X#X#X#X#X#Xc A v.v.Z x x @ Z T j { #X#X#X#X#X#X#X",
"#X#X#X#X#Xc c A M.3.A S M.3.n.H f } #X#X#X#X#X#X#X",
"#X#X#X#X#X@.c C S B.Z.S S 3.J p ' 1.#X}.j.Q.{.{.#X",
"#X#X#X#X<.>.| M N.B.M.Z.A.A N H Y 5.K.].(.(.{.{.#X",
"#X#X#X#X#.>.1.b c.V.B.I.I.B.m.D.m.Z F.|.}.{.{.{.#X",
"#X#X#X#X#.<.1.J m S.Y.L.J.I.P./.B.S D./.[.{.{.#X#X",
"#X#X#X#X#X<.#.i W O.H.I.L.L.L.I.C.3.F.D.`.{.#X#X#X",
"#X#X#X#X#X#X*   s | o.P.K.K.K.K.G.G.G.F.#X#X#X#X#X",
"#X#X#X#X#X8 $ O D n.v.b.C Z Z C 3.#X#X#X#X#X#X#X#X",
"#X#X#X#X#X& + O 1 1 # - 6.z._.I X #X#X#X#X#X#X#X#X",
"#X#X#X#X#X% % #Xj s 3 u ) h.x.{ . #X#X#X#X#X#X#X#X",
"#X#X#X#X#X% % #X[ X.&.$...2.=.K 0 #X#X#X#X#X#X#X#X",
"#X#X#X#X#X#X#X#X} &.t.e.e.t.[ t h [ #X#X#X#X#X#X#X",
"#X#X#Xy 9 + #X#Xw.q.w.q.e.w.y y { [ #X#X#X#X#X#X#X",
"#X#Xt t 8 + [ =.q.q.q.q.q.t < h { [ [ #X#X#X#X#X#X",
"#X#Xt t #XL 6.w.q.q.q.q.#X#X7 K { [ [ #X#X#X#X#X#X",
"#X#X#X#X#X#X..*.w.$...#X#X#X#Xt h ..{ y #X#X#X#X#X",
"#X#X#X#X#X#X#X#X#X#X#X#X#X#X#X#Xy K e ; #X#X#X#X#X",
"#X#X#X#X#X#X#X#X#X#X#X#X#X#X#X#X#X7 . % ; #X#X#X#X",
"#X#X#X#X#X#X#X#X#X#X#X#X#X#X#X#X#X#X% 8 9 #X#X#X#X",
"#X#X#X#X#X#X#X#X#X#X#X#X#X#X#X#X#X#X8 8 #X#X#X#X#X"
};
