/* XPM */
static char *result[] = {
/* columns rows colors chars-per-pixel */
"25 39 198 2 ",
"   c #09040C",
".  c #1E0E0B",
"X  c #1D120D",
"o  c #1A091B",
"O  c #140512",
"+  c #0B1012",
"@  c #161B1B",
"#  c #240E1C",
"$  c #29171B",
"%  c #311C15",
"&  c #371B1E",
"*  c #240C08",
"=  c #21211F",
"-  c #3E2219",
";  c #1C0F27",
":  c #271322",
">  c #291321",
",  c #2C1628",
"<  c #361B2A",
"1  c #1C2C3E",
"2  c #31352D",
"3  c #3B2331",
"4  c #3C2A31",
"5  c #393137",
"6  c #4B1E1C",
"7  c #431D25",
"8  c #44212D",
"9  c #4C2A2C",
"0  c #492527",
"q  c #532C2C",
"w  c #52322E",
"e  c #412633",
"r  c #452833",
"t  c #4C2B33",
"y  c #542E32",
"u  c #543133",
"i  c #5B3333",
"p  c #543439",
"a  c #5E3B3A",
"s  c #65392F",
"d  c #603735",
"f  c #643A35",
"g  c #693E36",
"h  c #703531",
"j  c #6C4135",
"k  c #6C433D",
"l  c #704434",
"z  c #784838",
"x  c #163741",
"c  c #423940",
"v  c #004346",
"b  c #1A5452",
"n  c #165B66",
"m  c #225A61",
"M  c #257476",
"N  c #377774",
"B  c #4A4D47",
"V  c #555649",
"C  c #585B4C",
"Z  c #5F5C56",
"A  c #48514B",
"S  c #6D4740",
"D  c #754C41",
"F  c #7B4E41",
"G  c #605050",
"H  c #4B735F",
"J  c #61604C",
"K  c #686A5B",
"L  c #726157",
"P  c #4F6D64",
"I  c #50736C",
"U  c #517F75",
"Y  c #787A6B",
"T  c #717467",
"R  c #92372B",
"E  c #8A4737",
"W  c #84533A",
"Q  c #88563D",
"!  c #8C593D",
"~  c #915D3E",
"^  c #A24B3A",
"/  c #B24633",
"(  c #835546",
")  c #865845",
"_  c #8A5B47",
"`  c #8C5C48",
"'  c #8A5644",
"]  c #945142",
"[  c #A95843",
"{  c #846649",
"}  c #916247",
"|  c #99684C",
" . c #9C7D5E",
".. c #926356",
"X. c #B06D54",
"o. c #A87657",
"O. c #B97F58",
"+. c #B87855",
"@. c #B9654D",
"#. c #9D7462",
"$. c #A97E68",
"%. c #C36849",
"&. c #C8734A",
"*. c #D5794D",
"=. c #C86E52",
"-. c #C87C55",
";. c #D47D52",
":. c #DC7F52",
">. c #39837C",
",. c #48877D",
"<. c #5C907C",
"1. c #578E7A",
"2. c #76816B",
"3. c #AD825D",
"4. c #9D8161",
"5. c #A38366",
"6. c #BB8767",
"7. c #A38C71",
"8. c #A0967F",
"9. c #81A97E",
"0. c #CA8B5D",
"q. c #C4875B",
"w. c #D2805E",
"e. c #D8935F",
"r. c #E48455",
"t. c #D28864",
"y. c #C7946E",
"u. c #D49260",
"i. c #DA9569",
"p. c #D19D75",
"a. c #E28A64",
"s. c #EE9269",
"d. c #EA9771",
"f. c #EF9D74",
"g. c #E09D76",
"h. c #F69D73",
"j. c #F5976C",
"k. c #D8AF73",
"l. c #E3A67D",
"z. c #F3A177",
"x. c #F7DF7C",
"c. c #388980",
"v. c #2E928C",
"b. c #259894",
"n. c #29A197",
"m. c #479788",
"M. c #529B88",
"N. c #4CA88F",
"B. c #54A28C",
"V. c #55AD8C",
"C. c #53AB91",
"Z. c #58B799",
"A. c #4EB89D",
"S. c #66B999",
"D. c #76BA94",
"F. c #64A285",
"G. c #6EC19B",
"H. c #71C69E",
"J. c #79C89D",
"K. c #5DD5AC",
"L. c #50DBB5",
"P. c #66C8A2",
"I. c #75CBA2",
"U. c #6CD6AC",
"Y. c #76D7A9",
"T. c #6DDDB0",
"R. c #75E9B8",
"E. c #8FAB82",
"W. c #91AC82",
"Q. c #87B386",
"!. c #AAB091",
"~. c #DEBF8F",
"^. c #DBB894",
"/. c #E6AF84",
"(. c #E8B488",
"). c #F7B689",
"_. c #80C99D",
"`. c #BACCA7",
"'. c #C4C298",
"]. c #E0C39A",
"[. c #F7C193",
"{. c #E8DEAE",
"}. c #F5D9A9",
"|. c #FFDDAC",
" X c #FED4A1",
".X c #FFE1AF",
"XX c #F4E1AE",
"oX c #E7E2B8",
"OX c #FFE5B3",
"+X c #F6E8B5",
"@X c #FFEEB9",
"#X c #FFEBB6",
"$X c #FFF1BD",
"%X c #F3F0BC",
"&X c #FFF8C3",
"*X c #FFF4C0",
"=X c #FFFFD2",
"-X c None",
/* pixels */
"-X-X-X-X-X-X-X-X-X-X-X-X-X-X-X-X-X-X-X-X-X-X-X-X-X",
"-X-X-X-X-X-X-X-X-X-X-X-X-X-X-X-X-X-X-X-X-X-X-X-X-X",
"-X-X-X-X-X-X-X-X-X-X-X-X-X-X-X-Xy f ~ ! -X-X-X-X-X",
"-X-X-X-X-X-X-X-X-X-X-X-X-X-X-Xz f i ! ! ! -X-X-X-X",
"-X-X-X-X-Xf -X-X-X-X-X-X-X! ! ~ W g ! ! ! -X-X-X-X",
"-X-X-X-X-Xd -X-Xd d i g ! ! ! ! ! ~ Q ! ! -X-X-X-X",
"-X-X-X-Xr r e 3 y i g ~ ! ! ! ! ` W i Q ! -X-X-X-X",
"-X-X-X-X3 3 3 u i l ~ ~ ! ! ! ~ ~ Q q Q -X-X-X-X-X",
"-X-X-X-Xi i i Q Q Q ! z 9 0 l s u j z -X-X-X-X-X-X",
"-X-X-X-Xt t f j ! ! | y.$.5.y.6...-X-X-X-X-X-X-X-X",
"-X-X-X-Xt 9 i j l } 3.4.4.4. .l.l.-X-X-X-X-X-X-X-X",
"-X-X-X-Xi q 9 W q  .y.% % % X ..O.* -X-X-X-X-X-X-X",
"-X-X-X-X3 4 3 3 - o.).-.;.a.@.[ [ -X-X-X-X-X-X-X-X",
"-X-X-X-XG {./.i ] z.6.X $ g.@.^ [ -X-XV Y -X-X-X-X",
"-X-X-X-X-X&X$X5 E d./.'.'.+XX.R ^ -XV V Y -X-X-X-X",
"-X-X-X-X-XL Z z [ g.OX$X*X*X].^.7.@ C C K -X-X-X-X",
"-X-X-X-X-X> i t.a.(.*X|.|.).[.&X!.+ B C C -X-X-X-X",
"-X-X-X-X-X-X:.j.h.).|.OXOX(.).^.T + 2 V -X-X-X-X-X",
"-X-X-X-X-X-X-X+.t.g./.}.}.XXoXT O O $ -X-X-X-X-X-X",
"-X-X-X-X-X,.G.c.M n c / / / 8 p f o : -X-X-X-X-X-X",
"-X-X-X-XI.C.N S.m.M m x 1 ; < k ) D -X-X-X-X-X-X-X",
"-X-X-XH.P.I.S.M.N m.S.B.A.A.B ] +.) -X-X-X-X-X-X-X",
"-X-XG.H.I.I.I.N m.G._.R.R.<.{ -.+.j -X-X-X-X-X-X-X",
"-XG.G.H.S.B.P.M M.T.T.U.1.h %.r.3.T -X-X-X-X-X-X-X",
"-XG.H.G.B.N D.,.S.D.V.F.h &.;.-.W.P.=.d.-X-X-X-X-X",
"-XH.I.M.N I.f. X$X7.6 E ;.*.;.E.L.I.h.f.-X-X-X-X-X",
"-X-XI.B.>.Y.XX.X.X+X(.&.;.*.E.U.K.D.%.d.-X-X-X-X-X",
"-X-X-X-X-XA %X$X#X Xi.W J.J.U.U.Z.>.I -X-X-X-X-X-X",
"-X-X-X-X-X< J oX=X`.U N n.n.v.v.m.-X-X-X-X-X-X-X-X",
"-X-X-X-X-X>   K 8.P v b 2.9.Q.H x -X-X-X-X-X-X-X-X",
"-X-X-X-X-X: #   & & X - &.k.x.{ O -X-X-X-X-X-X-X-X",
"-X-X-X-X-X, : -X` ` } { z z -._ 3 -X-X-X-X-X-X-X-X",
"-X-X-X-X-X-X-X-XF o.e.0.0.0.e.' p _ -X-X-X-X-X-X-X",
"-X-X-X-X-Xp p o _ e.0.0.0.e.z f ( { -X-X-X-X-X-X-X",
"-X-X-X-X-Xp p o } i.0.0.q.D S ( F a -X-X-X-X-X-X-X",
"-X-X-X-X-Xp p -X) O.3.| -X-Xr w u -X-X-X-X-X-X-X-X",
"-X-X-X-X-Xp -X-X-X| o.S -X-X: > > -X-X-X-X-X-X-X-X",
"-X-X-X-X-X-X-X-X-X-X-X-X-X-Xr r r -X-X-X-X-X-X-X-X",
"-X-X-X-X-X-X-X-X-X-X-X-X-X-Xr r t r -X-X-X-X-X-X-X"
};
