/* XPM */
static char *result[] = {
/* columns rows colors chars-per-pixel */
"25 39 196 2 ",
"   c #070B15",
".  c #130513",
"X  c #140D17",
"o  c #0E1018",
"O  c #181219",
"+  c #200D1A",
"@  c #2D1016",
"#  c #371916",
"$  c #30231A",
"%  c #051E20",
"&  c #0B1430",
"*  c #291522",
"=  c #2E1927",
"-  c #331A24",
";  c #3B1D27",
":  c #2C0D24",
">  c #2C2826",
",  c #352829",
"<  c #2C343C",
"1  c #3E3638",
"2  c #30312E",
"3  c #452628",
"4  c #493B2D",
"5  c #43382A",
"6  c #58342B",
"7  c #432631",
"8  c #452A33",
"9  c #4B2B33",
"0  c #542E32",
"q  c #463A3A",
"w  c #543135",
"e  c #5C3434",
"r  c #523338",
"t  c #593C3C",
"y  c #582C22",
"u  c #7C2B26",
"i  c #603734",
"p  c #653B35",
"a  c #6A3D34",
"s  c #6A3734",
"d  c #74372D",
"f  c #4E4C3E",
"g  c #6E4137",
"h  c #6B463C",
"j  c #6F483E",
"k  c #724539",
"l  c #764939",
"z  c #764635",
"x  c #7E5037",
"c  c #124A56",
"v  c #215F5A",
"b  c #115560",
"n  c #0A5664",
"m  c #2D6A6E",
"M  c #2C7676",
"N  c #247C7D",
"B  c #2C7D7C",
"V  c #397976",
"C  c #397E79",
"Z  c #594844",
"A  c #57594B",
"S  c #56584A",
"D  c #684440",
"F  c #744C43",
"G  c #63544E",
"H  c #7C5244",
"J  c #7A5D4D",
"K  c #745C53",
"L  c #5F6153",
"P  c #656951",
"I  c #4E6E65",
"U  c #407C74",
"Y  c #5C7264",
"T  c #797A6D",
"R  c #903B2E",
"E  c #824D3B",
"W  c #804B37",
"Q  c #84533A",
"!  c #8B553C",
"~  c #8C5A3C",
"^  c #855335",
"/  c #925E3E",
"(  c #9C533F",
")  c #9A4234",
"_  c #A4513C",
"`  c #95613E",
"'  c #CA593F",
"]  c #834F41",
"[  c #835646",
"{  c #8D5A48",
"}  c #985B44",
"|  c #A55942",
" . c #AB5F44",
".. c #B55B43",
"X. c #99684C",
"o. c #9B785A",
"O. c #A6624C",
"+. c #AF6A4A",
"@. c #B6644B",
"#. c #B66847",
"$. c #AC6B52",
"%. c #A16C51",
"&. c #BA6C50",
"*. c #B37A56",
"=. c #B97955",
"-. c #C3654A",
";. c #DB7A4B",
":. c #D27F51",
">. c #C9794F",
",. c #2E827E",
"<. c #3A817B",
"1. c #44867C",
"2. c #B9855B",
"3. c #95826E",
"4. c #8E8B77",
"5. c #AE8569",
"6. c #B08264",
"7. c #AC966C",
"8. c #B69266",
"9. c #BD9175",
"0. c #A5987F",
"q. c #CA8A5C",
"w. c #C88258",
"e. c #D68353",
"r. c #DB825F",
"t. c #D1915F",
"y. c #E1925D",
"u. c #E38C57",
"i. c #D38866",
"p. c #CB956F",
"a. c #D79669",
"s. c #CB9F7C",
"d. c #D99773",
"f. c #E6946D",
"g. c #EB9D75",
"h. c #E69F78",
"j. c #E89972",
"k. c #F99C73",
"l. c #D5A570",
"z. c #E6A47C",
"x. c #EAA37B",
"c. c #E5A077",
"v. c #FBAB7E",
"b. c #E9B96D",
"n. c #CBCC7D",
"m. c #2A8B87",
"M. c #379789",
"N. c #36938D",
"B. c #468D80",
"V. c #489585",
"C. c #54A28C",
"Z. c #58AE93",
"A. c #5FBA9B",
"S. c #69AD8F",
"D. c #69BD9B",
"F. c #79BB94",
"G. c #6DC39C",
"H. c #62C09D",
"J. c #71C49C",
"K. c #5CCBA2",
"L. c #5CD3AD",
"P. c #67CAA4",
"I. c #6DCDA4",
"U. c #74CAA1",
"Y. c #63D2AB",
"T. c #69D9AF",
"R. c #78DAAB",
"E. c #70DFB2",
"W. c #73E4B4",
"Q. c #78F6C1",
"!. c #A79984",
"~. c #8EBC92",
"^. c #B7B292",
"/. c #E5AE85",
"(. c #E2B189",
"). c #ECBA8D",
"_. c #EAB588",
"`. c #FEB78B",
"'. c #99C297",
"]. c #94D6AA",
"[. c #CCC098",
"{. c #F6CD9F",
"}. c #D2E087",
"|. c #F5CDA0",
" X c #FDD5A5",
".X c #FDDDAC",
"XX c #F3D6A7",
"oX c #FFE1AE",
"OX c #FEE3B2",
"+X c #FFE9B7",
"@X c #FCECB9",
"#X c #FCF3BE",
"$X c #F0E7C1",
"%X c #FDF6C0",
"&X c #FFFCC6",
"*X c None",
/* pixels */
"*X*X*X*X*X*X*X*X*X*X*X*X*X*X*X*X*X*X*X*X*X*X*X*X*X",
"*X*X*X*X*X*X*X*X*X*X*X*X*X*X*X*X*X*X*X*X*X*X*X*X*X",
"*X*X*X*X*X*X*X*X*Xe 6 0 0 Q / k a ~ ~ *X*X*X*X*X*X",
"*X*X*X*X*X*X*X*Xi w i z k ~ / a i / ~ ~ *X*X*X*X*X",
"*X*X*X*X0 7 7 w a g l X.` / / l k } ~ ~ *X*X*X*X*X",
"*X*X*X*X7 8 a i x ` Q x W Q Q Q Q Q ~ ~ *X*X*X*X*X",
"*X*X*X*Xe a / / ~ ~ l 3 3 Q e 9 r e ! *X*X*X*X*X*X",
"*X*X*X*X9 i e ! ^ 2.).(.(._./._.5.0 *X*X*X*X*X*X*X",
"*X*X*X*Xw s Q p 6.o.5 4 4 4 s.5.3 # *X*X*X*X*X*X*X",
"*X*X*X*X- ; a ; 9.p.z W z y $.+.a *X*X*X*X*X*X*X*X",
"*X*X*X*XK D 3 s d.a.! O.g.@._ ( / *X*X*X*X*X*X*X*X",
"*X*X*X*XoX_.3 &.v.o., f ).| ) p 2 *X*X*X*X*X*X*X*X",
"*X*X*X*X.X[.>  .f.|.%X#X@XO.R s.#X*X*X*X*X*X*X*X*X",
"*X*X*X*X*X8 #.-.).+XoXOX+XXXXX+X@X*X*XA T *X*X*X*X",
"*X*X*X*X*X*Xg.f.|.+XoX Xj.d. X&X^.o A A L *X*X*X*X",
"*X*X*X*X*X*X*Xk.v. X#X@XXX|.&X^.1 o Z A A *X*X*X*X",
"*X*X*X*X*X*X*X4.o.4.0.d.z._.!.G @   > S *X*X*X*X*X",
"*X*X*X*X*XB.Z.N.N n < R d u : w l - O *X*X*X*X*X*X",
"*X*XJ.J.J.J.C D.N.,.M c b & 9 E } { *X*X*X*X*X*X*X",
"*XJ.J.J.J.U.U.1.m C.R.E.T.Z #.t.*.H *X*X*X*X*X*X*X",
"*XJ.U.U.U.U.U.V C.R.E.P.t +.e.;.7.D.*X*X*X*X*X*X*X",
"*X1.1.V B.U.I.C H.Q.A.Z  .:.;.7.G.L.*Xg.g.h.*X*X*X",
"*XC.V.M.M.K.K.B I Y L | e.;.7.J.L.G.-.g.x.x.g.*X*X",
"*X*X'.'.].].].N.r u | u.;.8.J.L.Y.F.' r.i.d.x.*X*X",
"*X*Xk.`..XoX.XV G #.;.>.8.I.Y.I.P.S. ...@.i.x.*X*X",
"*X*X X X.XOXv.$ 6 { E J Y.Y.P.I.Z.M N $.f.x.h.*X*X",
"*X*X*X*XoX#X$X> v M.m.m.m.N N ,.,.*X*X*X*X*X*X*X*X",
"*X*X*X*X*Xq q X 2 < % 2 2.n.}.P   *X*X*X*X*X*X*X*X",
"*X*X*X*X*X. . *Xk k 6 0 ( l.b.X.3 *X*X*X*X*X*X*X*X",
"*X*X*X*X*X* * *XF [ %.=.X.=.w.=.%.*X*X*X*X*X*X*X*X",
"*X*X*X*X*X*X*X*X9 t { 2.y.t.q.=.*.*X*X*X*X*X*X*X*X",
"*X*X*X*X*X*X*X*X9 r 8 5 2.t.q.X.j *X*X*X*X*X*X*X*X",
"*X*X*X*X*X*X*X*X9 F h   O F *.*X*X*X*X*X*X*X*X*X*X",
"*X*X*X*X*X*X*X*X[ { H 7 , = *X*X*X*X*X*X*X*X*X*X*X",
"*X*X*X*X*X*X*Xr [ X.[ r r *X*X*X*X*X*X*X*X*X*X*X*X",
"*X*X*X*X*X*X*X, 9 h F r *X*X*X*X*X*X*X*X*X*X*X*X*X",
"*X*X*X*X*X*X*X- = *X*Xr *X*X*X*X*X*X*X*X*X*X*X*X*X",
"*X*X*X*X*X*X*X8 8 9 *X*X*X*X*X*X*X*X*X*X*X*X*X*X*X",
"*X*X*X*X*X*X*X8 8 8 8 *X*X*X*X*X*X*X*X*X*X*X*X*X*X"
};
