/* XPM */
static char *result[] = {
/* columns rows colors chars-per-pixel */
"25 39 196 2 ",
"   c #0E0F10",
".  c #140815",
"X  c #0D0F11",
"o  c #30150F",
"O  c #230C17",
"+  c #220D1A",
"@  c #27141F",
"#  c #261B15",
"$  c #292119",
"%  c #121832",
"&  c #2C1621",
"*  c #271923",
"=  c #3A1D27",
"-  c #2A0D23",
";  c #3A2129",
":  c #3C2331",
">  c #44262B",
",  c #5F2429",
"<  c #5D2C2F",
"1  c #5C342E",
"2  c #53312D",
"3  c #402631",
"4  c #452A33",
"5  c #4A2B33",
"6  c #572F32",
"7  c #5A2E31",
"8  c #4E3036",
"9  c #543236",
"0  c #5C3434",
"q  c #553639",
"w  c #5C393A",
"e  c #5F3A35",
"r  c #673829",
"t  c #613734",
"y  c #643A35",
"u  c #6A3F34",
"i  c #613A39",
"p  c #773B32",
"a  c #41473B",
"s  c #6C4037",
"d  c #68423D",
"f  c #714435",
"g  c #774935",
"h  c #7C4D3B",
"j  c #754B3F",
"k  c #09374B",
"l  c #253946",
"z  c #0C4053",
"x  c #115965",
"c  c #2E6B6D",
"v  c #206668",
"b  c #356768",
"n  c #216D70",
"m  c #2E6F71",
"M  c #2F7071",
"N  c #2B7A79",
"B  c #347272",
"V  c #3A7976",
"C  c #347D7B",
"Z  c #377B76",
"A  c #574544",
"S  c #4F5443",
"D  c #57594B",
"F  c #5A584C",
"G  c #6C4941",
"H  c #6D4741",
"J  c #794D41",
"K  c #7A5144",
"L  c #666053",
"P  c #786853",
"I  c #757948",
"U  c #637C73",
"Y  c #6F7D70",
"T  c #717A69",
"R  c #923A2E",
"E  c #834C3E",
"W  c #834437",
"Q  c #83513B",
"!  c #8C593C",
"~  c #855337",
"^  c #915D3D",
"/  c #93543E",
"(  c #904838",
")  c #A54D3D",
"_  c #96613F",
"`  c #865945",
"'  c #8B5D4A",
"]  c #885B46",
"[  c #9E5C46",
"{  c #975B48",
"}  c #A65B45",
"|  c #87614D",
" . c #9C6C4D",
".. c #986247",
"X. c #977459",
"o. c #A9654C",
"O. c #BC6C4E",
"+. c #B56147",
"@. c #BD714C",
"#. c #B96F54",
"$. c #AC7554",
"%. c #AC765E",
"&. c #B57B55",
"*. c #BB7C55",
"=. c #BB7854",
"-. c #857469",
";. c #9A7F69",
":. c #C96A48",
">. c #C1744D",
",. c #DB784A",
"<. c #CC7757",
"1. c #E57E4E",
"2. c #E87954",
"3. c #27817D",
"4. c #39837C",
"5. c #42847C",
"6. c #6E8A7A",
"7. c #BF835A",
"8. c #B98765",
"9. c #BB8D71",
"0. c #A19E75",
"q. c #AD8666",
"w. c #9CA077",
"e. c #AEA879",
"r. c #B3A676",
"t. c #C4845A",
"y. c #CB8C5E",
"u. c #C8865B",
"i. c #D78256",
"p. c #CA915F",
"a. c #E9935C",
"s. c #DA8865",
"d. c #DB916C",
"f. c #DC9E75",
"g. c #C49A74",
"h. c #E0936E",
"j. c #FF9C6F",
"k. c #E59D77",
"l. c #EB9C74",
"z. c #E39B75",
"x. c #F19D75",
"c. c #DDA77E",
"v. c #E9A179",
"b. c #EEA077",
"n. c #FBA679",
"m. c #2D8783",
"M. c #3E8B80",
"N. c #379992",
"B. c #3FAD92",
"V. c #3CA58D",
"C. c #478C80",
"Z. c #4D9886",
"A. c #5BA78D",
"S. c #5CAA91",
"D. c #5BBD9E",
"F. c #49AC93",
"G. c #64B798",
"H. c #6EC29C",
"J. c #64C09E",
"K. c #71C59E",
"L. c #73C89F",
"P. c #5DC8A7",
"I. c #58D9B4",
"U. c #6AC6A1",
"Y. c #66CCA5",
"T. c #75CCA2",
"R. c #6BD4AB",
"E. c #67D6AD",
"W. c #74D0A4",
"Q. c #7ADEAE",
"!. c #70DEB1",
"~. c #7AE7B5",
"^. c #74F2BF",
"/. c #A29B82",
"(. c #AEA988",
"). c #C4AF8E",
"_. c #D9B28A",
"`. c #ECB689",
"'. c #E8B98C",
"]. c #F1BA8B",
"[. c #B3D6A8",
"{. c #EFD880",
"}. c #ECC193",
"|. c #FFCF9E",
" X c #F8C598",
".X c #FED3A4",
"XX c #FEDDAD",
"oX c #F3D3A4",
"OX c #F5E2B1",
"+X c #FDE3B2",
"@X c #FEE9B4",
"#X c #FDEDBA",
"$X c #FFF3BD",
"%X c #FFFCC6",
"&X c #FFFEC8",
"*X c None",
/* pixels */
"*X*X*X*X*X*X*X*X*X*X*X*X*X! ! *X*X! ! ! *X*X*X*X*X",
"*X*X*X*Xy *X*X*X*Xt 0 t ! ! ! s y ! ! ! *X*X*X*X*X",
"*X*X*X*X*X3 : 9 1 9 t h ! ! ! Q Q ] ! ! *X*X*X*X*X",
"*X*X*X*X: 3 5 6 s f h _ ^ ! ! ..! g ! ! *X*X*X*X*X",
"*X*X*X*X5 5 f u ~ _ ~ f f E g g s 1 ! *X*X*X*X*X*X",
"*X*X*X*X0 u ^ { ! ^ ` q e ' u w i 6 *X*X*X*X*X*X*X",
"*X*X*X*X5 0 1 ~ ~ 8.'.'.'.`.`.`.c.*X*X*X*X*X*X*X*X",
"*X*X*X*X9 t ! 1 9.X.# $ $ # g.X.o o *X*X*X*X*X*X*X",
"*X*X*X*X* & 0 = 9.f.} o.} p o.#.{ *X*X*X*X*X*X*X*X",
"*X*X*X*Xq.' > W k.8.1 E x.+.} R r *X*X*X*X*X*X*X*X",
"*X*X*X*X@X}.= O.n.q.a P '.} R h F *X*X*X*X*X*X*X*X",
"*X*X*X*XoX(.3 } b..X%X%X%X%.[ _.&X*X*X*X*X*X*X*X*X",
"*X*X*X*X*X= >.<.}.@XXXXXXXOX@X#XOX*X*XD T *X*X*X*X",
"*X*X*X*X*X*Xx.l.|.@X+X.Xh.d.oX&X(.X D F F *X*X*X*X",
"*X*X*X*X*X*X*Xj.n.|.$X$XOXOX&X/.* . a D *X*X*X*X*X",
"*X*X*X*XS.V Y.6.Y U -.i.s.d.-.A ; . $ *X*X*X*X*X*X",
"*X*X*XT.G.Z.Z.F.m.x l , < , @ 0 K > O *X*X*X*X*X*X",
"*XG.K.G.T.T.C.G.C.4.4.v n % 0 ^ o.h O *X*Xz.`.h.k.",
"L.L.K.K.T.T.H.V B S.~.~.Y.H @.a.=.P *X*X+.2.l.l.k.",
"L.L.K.K.T.G.V m S.~.~.G.7 >.i.i.r.P.4.z { :.<.`.v.",
"B m c C.W.H.4.N P.^.A.0 @.<.,.0.R.Y.C k m X.2.n.x.",
"F.B.V.F.Y.*XA A F L | +.i.,.0.H.R.G.V M x b U 6.*X",
"e.[.[.[.[.*X*Xg p ( :.1.,.0.U.Y.W.H.V 5.b n *X*X*X",
"n..XXX.X X*X*Xe h +.u.r.e.R.E.W.T.A.V V 5.*X*X*X*X",
"XX.XXX Xk.*X= . A ] T I.I.P.D.J.S.B *X*X*X*X*X*X*X",
"*X.X.X@X).& + O b N.m.m.N N 4.N m *X*X*X*X*X*X*X*X",
"*X*X*X*X*X+ & . 3 q ; X   @.{.I   *X*X*X*X*X*X*X*X",
"*X*X*X*X*X& & *XE ` ` f s E p. .2 *X*X*X*X*X*X*X*X",
"*X*X*X*X*X*X*X*XH H H  .u.$.u.*.$.*X*X*X*X*X*X*X*X",
"*X*X*X*X*X*X*X*X4 3 5 H  .$.7.y.y.t.*X*X*X*X*X*X*X",
"*X*X*X*X*X*X*X*XH w q q : i $.*.*.y.y.*X*X*X*X*X*X",
"*X*X*X*X4 : & J ' ' ] ' *X*X*X*X| &.&.*X*X*X*X*X*X",
"*X*X*X*X4 3 & 5 K H 8 *X*X*X*X*X*X+ * *X*X*X*X*X*X",
"*X*X*X*X4 *X*X*X*X*X*X*X*X*X*X*X*X5 5 *X*X*X*X*X*X",
"*X*X*X*X*X*X*X*X*X*X*X*X*X*X*X*X*Xq q q *X*X*X*X*X",
"*X*X*X*X*X*X*X*X*X*X*X*X*X*X*X*X*X*X*X*X*X*X*X*X*X",
"*X*X*X*X*X*X*X*X*X*X*X*X*X*X*X*X*X*X*X*X*X*X*X*X*X",
"*X*X*X*X*X*X*X*X*X*X*X*X*X*X*X*X*X*X*X*X*X*X*X*X*X",
"*X*X*X*X*X*X*X*X*X*X*X*X*X*X*X*X*X*X*X*X*X*X*X*X*X"
};
