/* XPM */
static char *result[] = {
/* columns rows colors chars-per-pixel */
"25 39 205 2 ",
"   c #020001",
".  c #000107",
"X  c #020106",
"o  c #110207",
"O  c #1B0108",
"+  c #1C030B",
"@  c #1C0213",
"#  c #011316",
"$  c #2A0816",
"%  c #2E0D17",
"&  c #360D1C",
"*  c #221B1A",
"=  c #3C1F14",
"-  c #000429",
";  c #3B1A29",
":  c #3B2729",
">  c #3A2F29",
",  c #262936",
"<  c #401717",
"1  c #53261A",
"2  c #7D241F",
"3  c #411922",
"4  c #491E23",
"5  c #401D2A",
"6  c #401F2B",
"7  c #47212B",
"8  c #49262C",
"9  c #4D2A2E",
"0  c #5B2D27",
"q  c #52272C",
"w  c #512A2F",
"e  c #5D2E2C",
"r  c #5D2E2D",
"t  c #423828",
"y  c #512D32",
"u  c #4C3A3E",
"i  c #533637",
"p  c #5D3636",
"a  c #61302A",
"s  c #63332D",
"d  c #66352E",
"f  c #6D3B2A",
"g  c #6C3D2F",
"h  c #633633",
"j  c #663E3C",
"k  c #56443C",
"l  c #78422F",
"z  c #72443A",
"x  c #7A473C",
"c  c #774B3E",
"v  c #7E4D3E",
"b  c #7D4F3F",
"n  c #00374F",
"m  c #003950",
"M  c #054B57",
"N  c #0F515E",
"B  c #025B68",
"V  c #295E61",
"C  c #11636A",
"Z  c #0D797D",
"A  c #1A7E7E",
"S  c #2C7575",
"D  c #2E7F7B",
"F  c #327A77",
"G  c #357A77",
"H  c #555747",
"J  c #53584A",
"K  c #585A4A",
"L  c #7E4F40",
"P  c #61594F",
"I  c #795C4E",
"U  c #687A4E",
"Y  c #596F64",
"T  c #4D7A6E",
"R  c #787A6A",
"E  c #943727",
"W  c #804833",
"Q  c #814D33",
"!  c #844F33",
"~  c #8C4933",
"^  c #854D3C",
"/  c #974F37",
"(  c #885333",
")  c #8E5736",
"_  c #8E5637",
"`  c #8F5A36",
"'  c #8E5738",
"]  c #8E5739",
"[  c #8B5839",
"{  c #96523D",
"}  c #945E38",
"|  c #965F39",
" . c #A0402E",
".. c #A64E37",
"X. c #AA5A3F",
"o. c #835341",
"O. c #8B5B44",
"+. c #905845",
"@. c #915E45",
"#. c #9A5D41",
"$. c #A55F44",
"%. c #9D664B",
"&. c #987347",
"*. c #9D7A58",
"=. c #AA6C4F",
"-. c #B56B47",
";. c #B86348",
":. c #AE734F",
">. c #BB714E",
",. c #A97856",
"<. c #B87C54",
"1. c #BA7F55",
"2. c #B97F56",
"3. c #B37F62",
"4. c #D06B47",
"5. c #CD7D4E",
"6. c #E07745",
"7. c #E07B4E",
"8. c #37827C",
"9. c #3C877E",
"0. c #8C8875",
"q. c #8F8E7B",
"w. c #9A8A73",
"e. c #B58460",
"r. c #B28D67",
"t. c #B0966B",
"y. c #BF9074",
"u. c #D7804E",
"i. c #C28659",
"p. c #C1865B",
"a. c #C68A5B",
"s. c #C8895B",
"d. c #CC8C5D",
"f. c #D98556",
"g. c #E69259",
"h. c #C19566",
"j. c #D49360",
"k. c #D39770",
"l. c #E78F67",
"z. c #FB9C6A",
"x. c #E79F77",
"c. c #ED9970",
"v. c #E99E77",
"b. c #EA9F76",
"n. c #DBA665",
"m. c #DEA57F",
"M. c #E6A078",
"N. c #E7A77F",
"B. c #ECA179",
"V. c #FFA276",
"C. c #F0A67D",
"Z. c #F4A87E",
"A. c #238582",
"S. c #3E8980",
"D. c #2C9189",
"F. c #3AA593",
"G. c #409B8A",
"H. c #4C9B88",
"J. c #4F9D89",
"K. c #56A790",
"L. c #5EB094",
"P. c #5ABC9C",
"I. c #61B697",
"U. c #70C59F",
"Y. c #71C69E",
"T. c #5FCEA4",
"R. c #6CC7A1",
"E. c #68C9A3",
"W. c #73CAA1",
"Q. c #77CEA3",
"!. c #63D2AB",
"~. c #64D2AC",
"^. c #71D1A7",
"/. c #75D2A6",
"(. c #78D9AB",
"). c #66D9B0",
"_. c #72E5B6",
"`. c #7CE0B0",
"'. c #7BF7C3",
"]. c #A89A84",
"[. c #ABAB8B",
"{. c #B3B390",
"}. c #D2AA82",
"|. c #E2AA83",
" X c #FFAF80",
".X c #E5B087",
"XX c #EDBA8D",
"oX c #9ACA9D",
"OX c #9DCB9D",
"+X c #95D4A9",
"@X c #D6D183",
"#X c #CEC29A",
"$X c #FFC494",
"%X c #E0CEA4",
"&X c #F7D4A3",
"*X c #FFD6A9",
"=X c #F7DEAD",
"-X c #FFDAA8",
";X c #FFE1B1",
":X c #FFE6B3",
">X c #FFEDBA",
",X c #F0F3C1",
"<X c #FCF4C0",
"1X c #FFFDCE",
"2X c None",
/* pixels */
"2X2X2X2X2X2X_ } d q i 2X2X2X2X2X2X2X2X2X2X2X2X2X2X",
"2X2X2X2X2X] ' } a d _ ] [ 2X2X2X2X2X2X2Xs 2X2X2X2X",
"2X2X2X2X2X) ) | Q ! } ` ) [ s e e 2X2X2Xh 2X2X2X2X",
"2X2X2X2X2X) ) l ( } ) ) ) ` Q d 0 r 2X2Xw 2X2X2X2X",
"2X2X2X2X2X[ ) q l | ` ) ` } | Q a q 5 ; ; 2X2X2X2X",
"2X2X2X2X2X2X] d l ! ! ( Q Q ( } ! a d 5 5 2X2X2X2X",
"2X2X2X2X2X2X2X] d 3 0 Q 4 3 l ` ` } } d a 2X2X2X2X",
"2X2X2X2X2X2X2X2Xm.|..XXX.X.XXXe.( ( a a 7 2X2X2X2X",
"2X2X2X2X2X2X2XO = r.}.t t t > *.e.a ( d q 2X2X2X2X",
"2X2X2X2X2X2X2X2Xf =.=.1 l W l k.y.& g & $ 2X2X2X2X",
"2X2X2X2X2X2X2X2X#./ ..;.c.$./ k.k.d 3 j I 2X2X2X2X",
"2X2X2X2X2X2X2X2X: g  .X.XXk * *. X>.3 XX:X2X2X2X2X",
"2X2X2X2XR H 2X2X,X}.E $.<X<X<X&Xc.X.* #X=X2X2X2X2X",
"2X2X2X2XK K J X [.<X=X=X:X:X:X>XXX4.;.6 2X2X2X2X2X",
"2X2X2X2X2XK t   [.1X=Xx.x.&X;X>X&Xc.v.2X2X2X2X2X2X",
"2X2X2X2X2X2X*   > {.1X&X&X>X<X-X XV.2X2X2X2X2X2X2X",
"2X2X2X2X2X2XO X + P ]..XN.x.].q.w.0.2X2X2X2X2X2X2X",
"2X2X2X2X2X2X2X% z y $ 2 2 2 , B Z A G.L.H.J.2X2X2X",
"2X2X2X2X2X2X2X] @.^ 7 - N M S 8.S S.U.8.I.Q.U.R.2X",
"v.v.B.b.2X2X2Xv >.g.-.k )._.`.K.S S F U.Q.W.U.U.Y.",
"x.x.C.l.+.m 2XR.t.7.f.-.u !._.(.L.S F U.Q.W.W.Q.Q.",
"x.C.f.4.$.n D ~.Q.t.6.u.X.k I.'.E.S F U.Q.H.F 8.8.",
"x.C.7.=.Y n F E.).U.t.6.f...P Y T A.A.P.T.F.D.G.H.",
"M.Z.3.Y B N F U.^.!.U.r.u.g.X.2 j T V 2XOX+XoXOX/.",
"2X2X2XC N S.8.I.W.^.).^.h.5.f.-.~ a $ %X:X;X$Xz.2X",
"2X2X2X2X9.9.G G L.^.E.!.).I ^ @.d     x.-X;X-X*X2X",
"2X2X2X2X2X2X2X2XD A.A.A.D.D.D.F.V   o %X>X-X*X2X2X",
"2X2X2X2X2X2X2X2X. U @X,.# # , u i 2Xo > 2X2X2X2X2X",
"2X2X2X2X2X2X2X2X< &.n.{ 1 0 l W x 2X2X2X2X2X2X2X2X",
"2X2X2X2X2X2X2X2X#.<.<.%.<.%.b z x 2X2X2X2X2X2X2X2X",
"2X2X2X2X2X2X2X2Xa.s.d.j.s.o.q 5 : 2X2X2X2X2X2X2X2X",
"2X2X2X2X2X2X2Xi.i.i.d.i.z 5 7 y i 2X@ ; 2X2X2X2X2X",
"2X2X2X2X2X2X2Xi.i.i.s.1.6 5 c @.@.b + 6 6 2X2X2X2X",
"2X2X2X2X2X2Xv 1.d.=.[ 2X2XL O.O.@.o.9 2X8 2X2X2X2X",
"2X2X2X2X2X2Xp.j.j.2.2X2X2X2Xh c b p 2X2X2X2X2X2X2X",
"2X2X2X2X2X2Xf g @.:.2X2X2X2X2X2X2X2X2X2X2X2X2X2X2X",
"2X2X2X2X2X2X@   8 2X2X2X2X2X2X2X2X2X2X2X2X2X2X2X2X",
"2X2X2X2X2X8 y $ 2X2X2X2X2X2X2X2X2X2X2X2X2X2X2X2X2X",
"2X2X2X2X2X2Xw y 2X2X2X2X2X2X2X2X2X2X2X2X2X2X2X2X2X"
};
