/* XPM */
static char *result[] = {
/* columns rows colors chars-per-pixel */
"25 39 212 2 ",
"   c black",
".  c #030003",
"X  c #180201",
"o  c #130210",
"O  c #160310",
"+  c #1A0213",
"@  c #1E0414",
"#  c #220702",
"$  c #2A0B03",
"%  c #37010A",
"&  c #371615",
"*  c #3F2719",
"=  c #0D0323",
"-  c #2D0920",
";  c #3A1A29",
":  c #3B1B29",
">  c #3F1D2B",
",  c #1B2535",
"<  c #033134",
"1  c #30322A",
"2  c #3E333A",
"3  c #431415",
"4  c #41161E",
"5  c #4B1C1E",
"6  c #63291C",
"7  c #421924",
"8  c #411E2C",
"9  c #411F2C",
"0  c #43202C",
"q  c #4E2328",
"w  c #54252A",
"e  c #582A29",
"r  c #5E302D",
"t  c #5F312F",
"y  c #4B2A32",
"u  c #532F32",
"i  c #552E32",
"p  c #582D30",
"a  c #7B2F26",
"s  c #65342C",
"d  c #6A3F30",
"f  c #6A3D33",
"g  c #6A3E36",
"h  c #663D38",
"j  c #6E4435",
"k  c #754130",
"l  c #7A4731",
"z  c #7A4735",
"x  c #7E4739",
"c  c #7E4A3B",
"v  c #0C3042",
"b  c #0B5155",
"n  c #065B65",
"m  c #0D656C",
"M  c #1E7777",
"N  c #1F7E7E",
"B  c #3D6661",
"V  c #256D71",
"C  c #296E71",
"Z  c #2E7574",
"A  c #237E7D",
"S  c #317976",
"D  c #4D5143",
"F  c #535446",
"G  c #535747",
"H  c #565A49",
"J  c #565A4A",
"K  c #7D4D40",
"L  c #45735D",
"P  c #616252",
"I  c #6E6357",
"U  c #427872",
"Y  c #4B7871",
"T  c #787161",
"R  c #87281A",
"E  c #874431",
"W  c #804B35",
"Q  c #994F3C",
"!  c #895333",
"~  c #8D5735",
"^  c #8D5736",
"/  c #8E5637",
"(  c #8F5A37",
")  c #8F5838",
"_  c #915C37",
"`  c #915A38",
"'  c #955E3A",
"]  c #905A3E",
"[  c #B3442B",
"{  c #A74E3A",
"}  c #8C6E3D",
"|  c #C1553B",
" . c #C65C3F",
".. c #875341",
"X. c #8D5C46",
"o. c #935E46",
"O. c #B25E43",
"+. c #8B644A",
"@. c #996A4D",
"#. c #886E5C",
"$. c #AA6C4B",
"%. c #BD6648",
"&. c #B7714B",
"*. c #AE7951",
"=. c #B17A5F",
"-. c #AB7863",
";. c #CD7A4F",
":. c #C77D54",
">. c #CE7C5A",
",. c #32807B",
"<. c #5B826D",
"1. c #5D816D",
"2. c #4D8177",
"3. c #5E8773",
"4. c #7F8171",
"5. c #A1805F",
"6. c #B8895E",
"7. c #83866C",
"8. c #A38361",
"9. c #AF8265",
"0. c #A88E76",
"q. c #D6814F",
"w. c #CE8252",
"e. c #C48758",
"r. c #C7895B",
"t. c #CA8B5B",
"y. c #CE8E5C",
"u. c #DB8752",
"i. c #E5864F",
"p. c #D78461",
"a. c #DC9861",
"s. c #C29374",
"d. c #CD9871",
"f. c #D79772",
"g. c #E58D66",
"h. c #E59F64",
"j. c #F1996E",
"k. c #E19771",
"l. c #D7B969",
"z. c #DAA77E",
"x. c #E7A279",
"c. c #E7A27A",
"v. c #E8A278",
"b. c #E9A47D",
"n. c #EDA67D",
"m. c #F5A47A",
"M. c #FAA77B",
"N. c #F5DC7B",
"B. c #358880",
"V. c #26928C",
"C. c #3A9A8B",
"Z. c #23A398",
"A. c #408880",
"S. c #438D81",
"D. c #479787",
"F. c #439B8D",
"G. c #659A80",
"H. c #51A18A",
"J. c #4DBC9F",
"K. c #5BB295",
"L. c #58BE9E",
"P. c #60AF93",
"I. c #65BB9A",
"U. c #6CBE9B",
"Y. c #7BBC96",
"T. c #6DC59F",
"R. c #71C49E",
"E. c #71C59F",
"W. c #72C69F",
"Q. c #5AD6B1",
"!. c #5DD7B0",
"~. c #62C7A3",
"^. c #73C9A0",
"/. c #74CAA2",
"(. c #75CBA3",
"). c #6CD4AA",
"_. c #7AD4A7",
"`. c #7AD8A9",
"'. c #6EE0B4",
"]. c #7BEEBA",
"[. c #B99F82",
"{. c #85AF80",
"}. c #8AB68E",
"|. c #A0BA9C",
" X c #D0A784",
".X c #DDB68D",
"XX c #D9B992",
"oX c #EAAD82",
"OX c #FCAC80",
"+X c #F0BC8F",
"@X c #83CC9F",
"#X c #8CCA9F",
"$X c #C2C49A",
"%X c #CCC699",
"&X c #D0CA9F",
"*X c #EFCC9E",
"=X c #FFC393",
"-X c #FFCF9C",
";X c #D5CBA0",
":X c #E4D5A7",
">X c #EED3A5",
",X c #FBD9A8",
"<X c #F5E1AF",
"1X c #FDE0AF",
"2X c #E6E1B5",
"3X c #FFE3B0",
"4X c #FFE9B6",
"5X c #F6EDBB",
"6X c #FEF1BF",
"7X c #FFFDC7",
"8X c #FFFFCC",
"9X c None",
/* pixels */
"9X9X9X9X9X9X9X9X9X9X9X9X9X9X9X9X9X9X9X9X9X9X9X9X9X",
"9X9X9X9X9X9X9X9X9X9X9X9X9X9X9X9X9X9X9X9X9X9X9X9X9X",
"9X9X9X9X9X9X] ` g w 9X9X9X9X9X9X9X9X9X9X9X9X9X9X9X",
"9X9X9X9X9X) ^ _ s r z 9X9X9X9X9X9X9X9X9X9X9X9X9X9X",
"9X9X9X9X9X~ ( ' k l ' ( ^ 9X9X9X9X9X9X9Xt 9X9X9X9X",
"9X9X9X9X9X~ ( ! ( _ ( ~ ~ ( f r r p 9X9Xt 9X9X9X9X",
"9X9X9X9X9X/ ^ e l ' ( ~ ~ ( ' k e e : : 8 9X9X9X9X",
"9X9X9X9X9X9X/ e l ' ( ~ ~ ( _ _ l e e ; ; 9X9X9X9X",
"9X9X9X9X9X9X9XW s 5 e l 5 5 k ~ ~ ! ~ r e 9X9X9X9X",
"9X9X9X9X9X9X9X9X=.-.9.d.9.9.d.*.! _ k s q 9X9X9X9X",
"9X9X9X9X9X9X9X9X+.z.+X5.8.8.8.9.@.f f r q 9X9X9X9X",
"9X9X9X9X9X9X9XX $ @.9.O # $ # 8.s.4 ! e q 9X9X9X9X",
"9X9X9X9X9X9X9X9X>.%.{ O.g.p.;.n.s.4 4 & ; 9X9X9X9X",
"9X9X9X9X9X9X9X9XX 6 { O.n.* . @.M.O.5 d.*X9X9X9X9X",
"9X9X9X9X9X9X9X9X%X9.R Q <X&X$X.Xj.O.O :X4X9X9X9X9X",
"9X9X9X9X4.P 9X9X7X>X XXX6X6X6X4XoX%.c I [.9X9X9X9X",
"9X9X9XP I H P 9X;X8X4X+X+X,X1X6X*Xp.g.7 9X9X9X9X9X",
"9X9X9X9XF J D . T 2X3XoXoX1X4X3X=Xm.OX9X9X9X9X9X9X",
"9X9X9X9X9XG 1 . . T 2X<X<X,X:X.Xk.f.9X9X9X9X9X9X9X",
"9X9X9X9X9X9Xo . s y ; [ [ [ 2 n N M ,.I.9X9X9X9X9X",
"9X9X9X9X9X9X9Xx ..f - = v , b M M B.T.A.P.9X9X9X9X",
"9X9X9X9X9X9X9Xx $.:..., J.J.~.D.V S D.K.T.W.9X9X9X",
"9X9X9Xv.v.9X9XG.6.i.w.o.1.'.].T.D.C S /._./.R.9X9X",
"9X9Xx.n.n.m.9X!.}.r.i.;.a <.~.].L.m M ~.K.I./.E.9X",
"9X9Xb.k.k.g. .U.Q.}.w.q.u.a 3.K.H.A.A.Y.A.D.U.^.9X",
"9X9Xb.p.O.| | Y.).Q.Y.w.q.u.a % #.6X1XM.#XC.S.(.9X",
"9X9Xc.n.g.O.S ~.).).Q.Y.q.u.E 0.5X4X3X,X#XC.Z 9X9X",
"9X9X9X9X9XY A B.I.`.).'.@X' R :.-X4X3X4X9X9X9X9X9X",
"9X9X9X9X9X9X9X9XF.C.V.V.Z.U U 2.|.8X6X#.9X9X9X9X9X",
"9X9X9X9X9X9X9X9X< L {.{.7.b b b B 7.7.O 9X9X9X9X9X",
"9X9X9X9X9X9X9X9XX } N.l.;.& # 5 3   . O 9X9X9X9X9X",
"9X9X9X9X9X9X9X9XK $.&.k ..o.o.o.] 9X@ + 9X9X9X9X9X",
"9X9X9X9X9X9X9X9Xe.r.r.y.y.a.$.f 7 9X9X9X9X9X9X9X9X",
"9X9X9X9X9X9X9X9Xt.r.y.r...u y y : + 8 9 9X9X9X9X9X",
"9X9X9X9X9X9X9X9XX.*.h.y.u f c ..r O 8 8 9X9X9X9X9X",
"9X9X9X9X9X9X9X9X9Xj f d > h ....t 9X0 : 9X9X9X9X9X",
"9X9X9X9X9X9X9X9X9X9XO + 9X0 K g 9X9X9X> 9X9X9X9X9X",
"9X9X9X9X9X9X9X9X9Xi u p 9X9X9X9X9X9X9X9X9X9X9X9X9X",
"9X9X9X9X9X9X9X9Xi u u p 9X9X9X9X9X9X9X9X9X9X9X9X9X"
};
