/* XPM */
static char *result[] = {
/* columns rows colors chars-per-pixel */
"25 39 209 2 ",
"   c #00020B",
".  c #0C0009",
"X  c #0E010B",
"o  c #160103",
"O  c #1D030E",
"+  c #110616",
"@  c #1C0414",
"#  c #001215",
"$  c #200517",
"%  c #2D0916",
"&  c #230719",
"*  c #270D1D",
"=  c #280D1D",
"-  c #2D1119",
";  c #34151E",
":  c #3B131D",
">  c #2A2D1F",
",  c #001533",
"<  c #321322",
"1  c #341020",
"2  c #3A1928",
"3  c #3C1B29",
"4  c #1C2C24",
"5  c #2E352A",
"6  c #25333B",
"7  c #353030",
"8  c #4B231B",
"9  c #57261B",
"0  c #471D25",
"q  c #421F2A",
"w  c #411C2C",
"e  c #401D2D",
"r  c #4C2825",
"t  c #4E262B",
"y  c #5A292A",
"u  c #592B2C",
"i  c #5A2B2C",
"p  c #5D2E2C",
"a  c #5E2E2C",
"s  c #413523",
"d  c #403038",
"f  c #533032",
"g  c #543133",
"h  c #543034",
"j  c #682021",
"k  c #633328",
"l  c #60302C",
"z  c #65342D",
"x  c #6A382F",
"c  c #6B3E2D",
"v  c #653D34",
"b  c #6E3D31",
"n  c #39473D",
"m  c #404439",
"M  c #6C473C",
"N  c #734031",
"B  c #714037",
"V  c #714536",
"C  c #794433",
"Z  c #784634",
"A  c #7F4931",
"S  c #774439",
"D  c #7C4E3F",
"F  c #0D454F",
"G  c #034854",
"H  c #004E5C",
"J  c #164F55",
"K  c #14565D",
"L  c #315156",
"P  c #0C5E65",
"I  c #076B71",
"U  c #1A7677",
"Y  c #1A7877",
"T  c #1B7979",
"R  c #286765",
"E  c #2D7877",
"W  c #5B5248",
"Q  c #545A4A",
"!  c #5A5B4C",
"~  c #6F5A4F",
"^  c #7C5D4F",
"/  c #72625A",
"(  c #76675B",
")  c #6A7C50",
"_  c #7F715E",
"`  c #802C22",
"'  c #863B2E",
"]  c #8D3F2E",
"[  c #824E34",
"{  c #8F4A36",
"}  c #9D4431",
"|  c #875233",
" . c #865135",
".. c #8C5536",
"X. c #8F5A36",
"o. c #8E5A37",
"O. c #8B573C",
"+. c #905A36",
"@. c #98523B",
"#. c #955E38",
"$. c #9E5F3C",
"%. c #B54F2E",
"&. c #A84A34",
"*. c #AA503B",
"=. c #865641",
"-. c #885642",
";. c #8D5C44",
":. c #945E46",
">. c #995D43",
",. c #A75B42",
"<. c #956247",
"1. c #9D684D",
"2. c #A56045",
"3. c #A96047",
"4. c #A7724F",
"5. c #A6755F",
"6. c #B07852",
"7. c #B77E52",
"8. c #BA7E53",
"9. c #B97C56",
"0. c #937261",
"q. c #B77E61",
"w. c #C76947",
"e. c #C16D4F",
"r. c #D46D4B",
"t. c #C26C50",
"y. c #C67151",
"u. c #E27347",
"i. c #25807E",
"p. c #3A827C",
"a. c #7D8072",
"s. c #7F9B7D",
"d. c #938771",
"f. c #AD8167",
"g. c #B68E64",
"h. c #B5916B",
"j. c #BB956A",
"k. c #C98B5C",
"l. c #C98C5C",
"z. c #D88C5E",
"x. c #D1905E",
"c. c #F48E5E",
"v. c #C08968",
"b. c #DC9862",
"n. c #D99975",
"m. c #EC976E",
"M. c #CFA866",
"N. c #E4AB67",
"B. c #E6A079",
"V. c #E6A77C",
"C. c #EEA478",
"Z. c #FDA071",
"A. c #1D7F80",
"S. c #298280",
"D. c #308882",
"F. c #3F8A81",
"G. c #328F89",
"H. c #25908A",
"J. c #38A194",
"K. c #3EB095",
"L. c #4B9988",
"P. c #45AB95",
"I. c #56A790",
"U. c #57B397",
"Y. c #6CAA89",
"T. c #61B89A",
"R. c #66BF9D",
"E. c #79BA94",
"W. c #3CC3A3",
"Q. c #6ECAA3",
"!. c #75CDA4",
"~. c #65D6AF",
"^. c #6FD7AC",
"/. c #78D2A7",
"(. c #AE9F86",
"). c #99A782",
"_. c #BABA93",
"`. c #B6BF9E",
"'. c #E2AB81",
"]. c #EBB184",
"[. c #E2B38A",
"{. c #EBB98B",
"}. c #EDBC8D",
"|. c #FFB283",
" X c #8DD0A0",
".X c #B8D1A0",
"XX c #AAE0B1",
"oX c #CFD885",
"OX c #EFCA9C",
"+X c #F4C295",
"@X c #FFD19F",
"#X c #D7EF90",
"$X c #D5CDA6",
"%X c #C2D7A8",
"&X c #E1DDAE",
"*X c #EBDAAC",
"=X c #FCD5A8",
"-X c #FFD6A8",
";X c #F5DDA8",
":X c #FFD8AA",
">X c #FEDAAB",
",X c #FEDDAD",
"<X c #F6E4B2",
"1X c #FFE0B0",
"2X c #FFE5B3",
"3X c #FBEEBB",
"4X c #FFF1BD",
"5X c #FFF9C4",
"6X c None",
/* pixels */
"6X6X6X6X6X6X6X6X6X6X6X6X6X6X6X6X6X6X6X6X6X6X6X6X6X",
"6X6X6X6X6X6X6X6X6X6X6X6X6X6X6X6X6X6X6X6X6X6X6X6X6X",
"6X6X6X6X6X+.+.u Z +.+. .u u l 6X6X6X6X6X6X6X6X6X6X",
"6X6X6X6X+...N b | X.X...N p y a 6X6X6X6X6X6X6X6X6X",
"6X6X6X6XX...z ..#.X.X.#.#.b x z t 3 q 3 t 6X6X6X6X",
"6X6X6X6Xo.X.....| | | [ [ X.#.C p x x q 3 6X6X6X6X",
"6X6X6X6X6XO.p t 0 c A 0 t [ X.X.#.$.$.x p 6X6X6X6X",
"6X6X6X6X6X6Xi 0 f.}.{.[.[.}.4.| [ p z 3 3 6X6X6X6X",
"6X6X6X6X6X6X6Xo j.h.s s s s g.1.k [ p y y 6X6X6X6X",
"6X6X6X6X6X6X6X6X9.>.9 C A A '.0.: x = 1 0 6X6X6X6X",
"6X6X6X6X6X6X6X6X*.&.t.m.$.@.V.v.y 0 M ( d 6X6X6X6X",
"6X6X6X6X6X6X6X6X*.} t.[.s > v.Z.@.t @X5X/ 6X6X6X6X",
"6X6X6X6X6Xa.Q 6X,.} q.5X3X3X+Xm.{ 7 &X*X6X6X6X6X6X",
"6X6X6X6X6X! W n _.3X<X3X2X2X4X'.w.2.= 3 6X6X6X6X6X",
"6X6X6X6X6X6XQ 4 `.2XC.V.,X1X4X+Xm.m.3.6X6X6X6X6X6X",
"6X6X6X6X6X6Xm + 7 (.1X;X4X4X@X|.Z.c.6X6X6X6X6X6X6X",
"6X6X6X6X6X6X5 o O W (.].B.B.5.0.d._ 6X6X6X6X6X6X6X",
"6X6X6X6X6X6X6X- b 3 + ' ` ] 6 I H.U K 6X6X6X6X6X6X",
"6X6X6X6X6X6X6X=.C 3 , H G U S.U.R.F.p.J 6X6X6X6X6X",
"6X6X6X6X6X6X6XS 8.$.d H.S.E R.I.L.!.p.J 6X6X6X6X6X",
"6X6X6X6X6X6X>Xn.OX].&.0 E R./.!.I.p.p.G F 6X6X6X6X",
"6X6X6X6X6X>X:X@X2X%XY.Y.T.!.!././.T.D.G G 6X6X6X6X",
"6X6X6X6X6X-X-X,X2XXXW.P./.!.Q.^.~.J.P ~ ^ 6X6X6X6X",
"6X6X6X6X6X-X-X1X@X.XK.E ^.^.~. Xs.L W r.r.6X6X6X6X",
"6X6X6X6X6X6X=X$Xn.).P.E E.E.E.j.%.j u.r.t.6X6X6X6X",
"6X6X6X6X6X6X6XT Y U A.E ' ] ] { x % 6Xy.e.6X6X6X6X",
"6X6X6X6X6X6X6X6Xi.A.A.A.S.D.G.J.R . 2 6X6X6X6X6X6X",
"6X6X6X6X6X6X6X6X  ) #XoXg.4 # 6 7 . = 2 6X6X6X6X6X",
"6X6X6X6X6X6X6X6X% M M.N.$.9 8 b p . O = 6X6X6X6X6X",
"6X6X6X6X6X6X6X=.M t [ z.1.4.6.1.B X O $ 6X6X6X6X6X",
"6X6X6X6X6X6X6X=.;.v v 8.b.b.b.6.:.6X@ & 6X6X6X6X6X",
"6X6X6X6X6X6X6X-.O.;.v q 8.l.l.l.k.6X6X6X6X6X6X6X6X",
"6X6X6X6X6X6X6X6X:.C : . . 7.x.l.6.D 6X6X6X6X6X6X6X",
"6X6X6X6X6X6X6X6X6X; = 1 * 6Xk.l.l.9.6X6X6X6X6X6X6X",
"6X6X6X6X6X6X6X6X6X6X< q e 6X6X<.4.x.<.6X6X6X6X6X6X",
"6X6X6X6X6X6X6X6X6X6X6Xw e 6X6X6XV v r 6X6X6X6X6X6X",
"6X6X6X6X6X6X6X6X6X6X6X6Xw 6X6X6X6X$ * 6X6X6X6X6X6X",
"6X6X6X6X6X6X6X6X6X6X6X6X6X6X6X6Xh f g 6X6X6X6X6X6X",
"6X6X6X6X6X6X6X6X6X6X6X6X6X6X6Xh f f f 6X6X6X6X6X6X"
};
