/* XPM */
static char *result[] = {
/* columns rows colors chars-per-pixel */
"25 39 209 2 ",
"   c #000104",
".  c #0E0000",
"X  c #080005",
"o  c #050009",
"O  c #150C04",
"+  c #1D140C",
"@  c #170211",
"#  c #1C0413",
"$  c #1C0518",
"%  c #1E0619",
"&  c #24061A",
"*  c #2D0619",
"=  c #280818",
"-  c #3C1512",
";  c #3A101B",
":  c #2F1D26",
">  c #35172A",
",  c #381828",
"<  c #3E1C28",
"1  c #3F1C2C",
"2  c #1C2923",
"3  c #431E28",
"4  c #411F2C",
"5  c #4F2426",
"6  c #422129",
"7  c #46212B",
"8  c #4B222A",
"9  c #552729",
"0  c #512B2F",
"q  c #582829",
"w  c #5D2B2B",
"e  c #5D2D2B",
"r  c #57302D",
"t  c #58302D",
"y  c #4A2A31",
"u  c #542930",
"i  c #552F32",
"p  c #4A3337",
"a  c #583030",
"s  c #5F3A35",
"d  c #642C28",
"f  c #6D3023",
"g  c #66362D",
"h  c #72382F",
"j  c #7B3B2A",
"k  c #683F38",
"l  c #6B433D",
"z  c #774331",
"x  c #7B4833",
"c  c #7A4934",
"v  c #784A3E",
"b  c #7B4C3D",
"n  c #7E4E3E",
"m  c #002C44",
"M  c #0A434F",
"N  c #064753",
"B  c #014953",
"V  c #074952",
"C  c #064854",
"Z  c #014E5B",
"A  c #1F4D51",
"S  c #3C5454",
"D  c #065761",
"F  c #0E6669",
"G  c #0B7377",
"H  c #1E7676",
"J  c #127C7E",
"K  c #1A7C7E",
"L  c #2E6565",
"P  c #297573",
"I  c #257B78",
"U  c #307E7B",
"Y  c #464242",
"T  c #464A47",
"R  c #444F4C",
"E  c #585143",
"W  c #555C4C",
"Q  c #6E5045",
"!  c #615F47",
"~  c #7B5E4E",
"^  c #53655F",
"/  c #7C754A",
"(  c #677A6E",
")  c #777565",
"_  c #913828",
"`  c #804C31",
"'  c #834F37",
"]  c #954934",
"[  c #875036",
"{  c #8C5535",
"}  c #8E5737",
"|  c #8F5937",
" . c #8B543D",
".. c #89563F",
"X. c #8C583D",
"o. c #98523C",
"O. c #98503E",
"+. c #905B38",
"@. c #955E38",
"#. c #A54A35",
"$. c #A84D34",
"%. c #A9513F",
"&. c #976039",
"*. c #CB5A35",
"=. c #D36337",
"-. c #805241",
";. c #855542",
":. c #875844",
">. c #8F5F41",
",. c #8D5C44",
"<. c #A15A40",
"1. c #866B55",
"2. c #976851",
"3. c #9B6F5C",
"4. c #AB6448",
"5. c #A0694C",
"6. c #AF684D",
"7. c #BB6B4D",
"8. c #B96A4F",
"9. c #BA6A4E",
"0. c #A86C53",
"q. c #AB7550",
"w. c #A37C5A",
"e. c #B47A53",
"r. c #816D62",
"t. c #8A7469",
"y. c #C66B4B",
"u. c #C06B4E",
"i. c #C06C4F",
"p. c #C26C4E",
"a. c #D3704C",
"s. c #C57350",
"d. c #34827D",
"f. c #7E8376",
"g. c #748C7B",
"h. c #BC8256",
"j. c #BF8357",
"k. c #B68A5A",
"l. c #9B8F76",
"z. c #8A9171",
"x. c #BF916C",
"c. c #B3AA7D",
"v. c #C2865A",
"b. c #C6895B",
"n. c #C78A5B",
"m. c #CA8C5C",
"M. c #CE8E5D",
"N. c #D6955F",
"B. c #EF895D",
"V. c #DE8862",
"C. c #CD926D",
"Z. c #D79A73",
"A. c #E09B63",
"S. c #E8946B",
"D. c #FA9E71",
"F. c #E9A279",
"G. c #EDA77E",
"H. c #F0A076",
"J. c #FFAA7B",
"K. c #1C8D88",
"L. c #2B8C85",
"P. c #33938B",
"I. c #2B9B93",
"U. c #408D83",
"Y. c #479888",
"T. c #53A38D",
"R. c #5DAD92",
"E. c #41B797",
"W. c #49B09A",
"Q. c #58B196",
"!. c #65B99A",
"~. c #66BA9A",
"^. c #6BC19E",
"/. c #6BC5A0",
"(. c #64CCA4",
"). c #65CDA6",
"_. c #72CAA2",
"`. c #6BDAAF",
"'. c #77D0A5",
"]. c #78D5A9",
"[. c #7DDBAC",
"{. c #ADB595",
"}. c #BEBF9A",
"|. c #CEBC98",
" X c #E3AD84",
".X c #ECB085",
"XX c #ECB588",
"oX c #EABB8E",
"OX c #F2B98C",
"+X c #81CBA2",
"@X c #E7C194",
"#X c #FAC393",
"$X c #FACD9D",
"%X c #E8E184",
"&X c #EDF58F",
"*X c #E0D2A6",
"=X c #ECDBAB",
"-X c #FFD5A7",
";X c #FFD5A8",
":X c #FFD9AB",
">X c #FFDBAD",
",X c #FBDCAC",
"<X c #FDDDAE",
"1X c #FFE2B0",
"2X c #FBE9B5",
"3X c #FFEEBC",
"4X c #FFF6C2",
"5X c #FFFDC7",
"6X c None",
/* pixels */
"6X6X6X6X{ { } 6X..} | 6X6X6X6X6X6X6X6X6X6X6X6X6X6X",
"6X6X6X6X{ } } 9 c +.X.[ w w w 6X6X6X6Xa 6X6X6X6X6X",
"6X6X6X6X{ +.@.x ' +.+.} x q q w 0 > > 7 6X6X6X6X6X",
"6X6X6X6X| { z +.&.+.+.@.&.z z g 8 < 8 , > 6X6X6X6X",
"6X6X6X6X6X[ q z x ` ` h z { @.` g z z 8 8 6X6X6X6X",
"6X6X6X6X6X6Xw 5 u b  .i t >.+.+.@.@.&.g e 6X6X6X6X",
"6X6X6X6X6X6X6X6X.XOXXXoXoXoXq.{ x e e , < 6X6X6X6X",
"6X6X6X6X6X6X6X. x.w.O + + + x.3.e { e e e 6X6X6X6X",
"6X6X6X6X6X6X6X6X6.<.j <.4.4.XX3.; t # = , 6X6X6X6X",
"6X6X6X6X6X6X6X6X%.$.y.S.j f Z.C.h 8 2.l.p 6X6X6X6X",
"6X6X6X6X6X6X6X6X#._ 8.@X! E C.D.O.y 1X5Xr.6X6X6X6X",
"6X6X6X6X6X6X6X6X0.4.x.5X4X5X$XS.] p }.|.6X6X6X6X6X",
"6X6X6X6X6X6Xf.R }.4X2X1X1X1X3X Xa.8.# % 6X6X6X6X6X",
"6X6X6X6X6X6XW 2 {.:XH.F.<X1X3X#XH.H.s.6X6X6X6X6X6X",
"6X6X6X6X6X6X6XX + l.3X2X4X4X#XJ.D.B.6X6X6X6X6X6X6X",
"6X6X6X6X6X6X6XX - E t.V.V.) ( g.( T N 6X6X6X6X6X6X",
"6X6X6X6X6X6X6X5 x < o d q M F J G D V C 6X6X6X6X6X",
"6X6X6X6X6X6X6Xo.j , m Z F I Y.U.d.d.M B C 6X6X6X6X",
"6X6X>XOXG.,X6Xn h ^ P.Y.[.U.!.Q.U.U M A A S 6X6X6X",
"6X;X-X-X-X=X(.I Q.[.].'.'.'.U.R./.H M y.a.u.p.6X6X",
"6X-X-X-X:X=X).I Q.]._._._.'.'.Q.H A y.a.y.u.7.6X6X",
"6X6X-X-X*X+X).I T.'./.).).`.W.P.G A a.y.u.8.7.6X6X",
"6X6X6X6X6XE.Y.T./.].`.].c.c.) R R Y p.i.8.9.6X6X6X",
"6X6X6X6X6X6XP ^.~.Q.R.z.*.=.$._ f 9 6Xp.7.6X6X6X6X",
"6X6X6X6X6X6X6X6X6XK L h l Q ~ 1.Q * 6X6X6X6X6X6X6X",
"6X6X6X6X6X6X6X6X6XP L.L.L.K.K.I.L X 6X6X6X6X6X6X6X",
"6X6X6X6X6X6X6X6X. / &X%XM.+   : < # 3 6X6X6X6X6X6X",
"6X6X6X6X6X6X6X..6 s k.N. .g g ' g o & 6X6X6X6X6X6X",
"6X6X6X6X6X6X..X.b i b N.q.e.j.q.t   @ 6X6X6X6X6X6X",
"6X6X6X6X6X:.;.,.,.s y 2.M.M.N.j.>.r 6X6X6X6X6X6X6X",
"6X6X6X6X6X,.,.b n k 1 1 v.b.n.M.N.A.6X6X6X6X6X6X6X",
"6X6X6X6X6Xb b r 6X6X6X6X6Xb.h.j.n.M.j.= < i 0 6X6X",
"6X6X6X6X6X# @ 6X6X6X6X6X6X6Xv 5.m.h.-.$ 6 i 0 6X6X",
"6X6X6X6X6X, < 6X6X6X6X6X6X6X6X6X6X6X6X6X6Xa a 6X6X",
"6X6X6X6X4 < 7 6X6X6X6X6X6X6X6X6X6X6X6X6X6X6X6X6X6X",
"6X6X6X6X6X6X6X6X6X6X6X6X6X6X6X6X6X6X6X6X6X6X6X6X6X",
"6X6X6X6X6X6X6X6X6X6X6X6X6X6X6X6X6X6X6X6X6X6X6X6X6X",
"6X6X6X6X6X6X6X6X6X6X6X6X6X6X6X6X6X6X6X6X6X6X6X6X6X",
"6X6X6X6X6X6X6X6X6X6X6X6X6X6X6X6X6X6X6X6X6X6X6X6X6X"
};
