/* XPM */
static char *result[] = {
/* columns rows colors chars-per-pixel */
"25 39 211 2 ",
"   c #030003",
".  c #0C0206",
"X  c #0A000C",
"o  c #1B0102",
"O  c #19030C",
"+  c #000F1F",
"@  c #180310",
"#  c #200714",
"$  c #270A1A",
"%  c #2D0B1A",
"&  c #33121B",
"*  c #19231B",
"=  c #2A2E1F",
"-  c #3F311F",
";  c #1E1425",
":  c #1F1827",
">  c #301124",
",  c #331724",
"<  c #381727",
"1  c #3D1B2A",
"2  c #3C1D29",
"3  c #3F1D2A",
"4  c #1F2E27",
"5  c #372B2B",
"6  c #37362A",
"7  c #353035",
"8  c #5A2718",
"9  c #441A22",
"0  c #4C2325",
"q  c #41212D",
"w  c #43212E",
"e  c #532728",
"r  c #502A2F",
"t  c #582B2C",
"y  c #592C2E",
"u  c #5C2D2C",
"i  c #443523",
"p  c #442130",
"a  c #4F2D31",
"s  c #562E30",
"d  c #582D30",
"f  c #473F3D",
"g  c #5E3230",
"h  c #5E3535",
"j  c #612726",
"k  c #782E28",
"l  c #65342B",
"z  c #61312D",
"x  c #68362E",
"c  c #6A3B2E",
"v  c #673834",
"b  c #733D30",
"n  c #3E4237",
"m  c #3A493D",
"M  c #7D432C",
"N  c #6A403A",
"B  c #794432",
"V  c #1E3D47",
"C  c #243E45",
"Z  c #01414F",
"A  c #004453",
"S  c #054550",
"D  c #0E4B52",
"F  c #01515D",
"G  c #2E5156",
"H  c #036A71",
"J  c #127678",
"K  c #1A7B7D",
"L  c #3B6A65",
"P  c #277575",
"I  c #247E7D",
"U  c #564342",
"Y  c #515547",
"T  c #535649",
"R  c #565B4C",
"E  c #5A5C4D",
"W  c #445E5D",
"Q  c #6F4C45",
"!  c #615244",
"~  c #74554B",
"^  c #68744D",
"/  c #73615A",
"(  c #71625D",
")  c #4E7169",
"_  c #831C13",
"`  c #832D22",
"'  c #8C4736",
"]  c #804C32",
"[  c #9D4331",
"{  c #964D35",
"}  c #865134",
"|  c #8A5434",
" . c #8D5736",
".. c #8E5736",
"X. c #8E5837",
"o. c #8F5A37",
"O. c #8F5B37",
"+. c #8B5639",
"@. c #8F5A38",
"#. c #90583B",
"$. c #955E39",
"%. c #9C583F",
"&. c #AA5338",
"*. c #AA503B",
"=. c #825241",
"-. c #865542",
";. c #865643",
":. c #885843",
">. c #8A5C44",
",. c #8C5F44",
"<. c #915E46",
"1. c #A75B42",
"2. c #986247",
"3. c #936149",
"4. c #9B6F59",
"5. c #86715A",
"6. c #A56147",
"7. c #A3624B",
"8. c #B76249",
"9. c #BD6A4D",
"0. c #A7724E",
"q. c #B76C50",
"w. c #BC6C51",
"e. c #AF7752",
"r. c #BE7F55",
"t. c #A77D64",
"y. c #C56D4E",
"u. c #C96C4D",
"i. c #CE6C4C",
"p. c #DB704C",
"a. c #C87F55",
"s. c #32807B",
"d. c #37857F",
"f. c #588A78",
"g. c #7D8072",
"h. c #B7825D",
"j. c #918167",
"k. c #B48A66",
"l. c #B28C66",
"z. c #DD824E",
"x. c #C08558",
"c. c #C28659",
"v. c #C2865A",
"b. c #C5885B",
"n. c #CA8B5C",
"m. c #C98C5C",
"M. c #D2915F",
"N. c #C18A68",
"B. c #D99660",
"V. c #CC9573",
"C. c #D79C7C",
"Z. c #EC976E",
"A. c #F09066",
"S. c #E79A73",
"D. c #F69F74",
"F. c #E0A363",
"G. c #E3A97F",
"H. c #E9A87F",
"J. c #ECA97F",
"K. c #FDA579",
"L. c #FCBC7C",
"P. c #CBCD7F",
"I. c #268C86",
"U. c #318480",
"Y. c #388A82",
"T. c #33938A",
"R. c #439A8D",
"E. c #4CA68F",
"W. c #52AE96",
"Q. c #5EAB91",
"!. c #5BB397",
"~. c #67BB99",
"^. c #50C29D",
"/. c #7BC99F",
"(. c #66C7A1",
"). c #6CC7A0",
"_. c #67CCA5",
"`. c #6CC8A2",
"'. c #68CBA4",
"]. c #71C9A1",
"[. c #74CCA3",
"{. c #78D3A7",
"}. c #7CD6A8",
"|. c #6CDAB0",
" X c #7AE5B4",
".X c #AD9C83",
"XX c #BAB993",
"oX c #B7BF9E",
"OX c #E4B289",
"+X c #ECB98B",
"@X c #81DEAC",
"#X c #B1D1A5",
"$X c #F4C396",
"%X c #FACA9D",
"&X c #D3E48A",
"*X c #C7CEA3",
"=X c #E0DCAF",
"-X c #EED9A9",
";X c #EFDAAB",
":X c #FFD5A0",
">X c #FFD6A7",
",X c #FFD7A8",
"<X c #FFD7A9",
"1X c #F6DFAF",
"2X c #FFDBAB",
"3X c #FFDFB0",
"4X c #FFE5B4",
"5X c #FDEDBB",
"6X c #FDF4C1",
"7X c #FFFBC4",
"8X c None",
/* pixels */
"8X8X8X8X8Xo.o.u e d 8X8X8X8X8X8X8X8X8X8X8X8X8X8X8X",
"8X8X8X8X+.o.o.e b +.O.X.8X8X8X8X8X8X8Xg 8X8X8X8X8X",
"8X8X8X8X .o.$.] | $. .@...y r g 8X8X8Xx 8X8X8X8X8X",
"8X8X8X8Xo. .B o.$.o. .o.o.B z u t 8X5 s r 8X8X8X8X",
"8X8X8X8X#.| 0 } $.o. .o.$.$.B z e 1 1 1 1 8X8X8X8X",
"8X8X8X8X8X+.z ] } } } ] ] | $.B l l 1 q q 8X8X8X8X",
"8X8X8X8X8X8X+.s 0 c B 9 9 ]  .o.$.o.z z z 8X8X8X8X",
"8X8X8X8X8X8X8X8XC.OX+XOXOX+X0.| ] u u 1 1 8X8X8X8X",
"8X8X8X8X8X8X8XO V.k.- i i i l.4.l } z e u 8X8X8X8X",
"8X8X8X8X8X8X8X8Xq.%.8 M ] M G.4.9 c % % 9 8X8X8X8X",
"8X8X8X8X8X8X8X8X*.&.u.Z.%.{ G.N.j 9 Q ( q 8X8X8X8X",
"8X8X8X8X8X8X8X8X*.[ w.OX6 = N.K.%.a :X7X/ 8X8X8X8X",
"8X8X8X8X8Xg.R 8X1.[ h.7X5X6X$XZ.' 7 =X-X8X8X8X8X8X",
"8X8X8X8X8XE T m XX5X1X4X4X4X5XG.u.7.; , 8X8X8X8X8X",
"8X8X8X8X8X8XY 4 oX4XD.H.3X3X5X$XZ.S.6.8X8X8X8X8X8X",
"8X8X8X8X8X8Xn . 6 .X3X1X6X6X:XL.D.A.8X8X8X8X8X8X8X",
"8X8X8X8X8X8X5   o ! .XH.H.H.t.j.j.~ 8X8X8X8X8X8X8X",
"8X8X8X8X8X8X8X& b f : _ ` ` C H J F 8X8X8X8X8X8X8X",
"8X8X8X8X8X8X8X<.b L J + A Z P Y.Y.s.D 8X8X8X8X8X8X",
"8X8X8X8X8X8X8X#.k W T.d.Y.s.d.d.d.s.S D 8X8X8X8X8X",
"8X>X,XJ.J.2X8Xz.&.k U d.s.P ~.Q.s.I Z 7.8X8X8X8X8X",
"8X>X<X%X%X;X'.f.) W G s.~.~.R.!.E.G 7.i.y.8X8X8X8X",
"8X>X<X<X<X-X_.K T.!.W.Q.{.}.!.W.I.V p.u.9.8X8X8X8X",
"8X8X,X<X-X#X(.P Q.@X}.{.[.[. XQ.G f p.u.q.8X8X8X8X",
"8X8X8X>X*X^.(.Y.!.{.[.[.[.{./.j.` j 8.y.8X8X8X8X8X",
"8X8X8X8X8X).).).].`.(.(._.|.5.{ l . > 8X8X8X8X8X8X",
"8X8X8X8X8X8X8X8XU.I K K I I.T.R.L . # 3 8X8X8X8X8X",
"8X8X8X8X8X8X8X8XX ^ &XP.h.* + 7 7 o # % 8X8X8X8X8X",
"8X8X8X8X8X8X8X8XX ,.L.F.%.e 0 c v O # # 8X8X8X8X8X",
"8X8X8X8X8X8X8X8Xw N r.a.2.0.e.2.;.8XO O 8X8X8X8X8X",
"8X8X8X8X8X8X8X:.N a -.B.M.M.M.e.>.8X8X8X8X8X8X8X8X",
"8X8X8X8X8X8X8X:.,.h h c.n.b.b.b.m.8X8X@ q d 8X8X8X",
"8X8X8X8X8X8X+.-.,.N , s x.b.c.c.b.x.=.# 3 s y 8X8X",
"8X8X8X8X8X8X=.-.,.N 2 8X8Xv.b.c.b.n.c.-.8Xr r 8X8X",
"8X8X8X8X8Xv 3.3.N g 8X8X8X8X<.0.n.r.3.8X8X8X8X8X8X",
"8X8X8X8X8X, 0 N g 8X8X8X8X8X8X8X8X8X8X8X8X8X8X8X8X",
"8X8X8X8X< # . 2 8X8X8X8X8X8X8X8X8X8X8X8X8X8X8X8X8X",
"8X8X8X8Xp q $ 8X8X8X8X8X8X8X8X8X8X8X8X8X8X8X8X8X8X",
"8X8X8X8X8Xq 3 8X8X8X8X8X8X8X8X8X8X8X8X8X8X8X8X8X8X"
};
