/* XPM */
static char *result[] = {
/* columns rows colors chars-per-pixel */
"25 39 208 2 ",
"   c black",
".  c #020001",
"X  c #0B0108",
"o  c #060C0C",
"O  c #120105",
"+  c #140108",
"@  c #1C010F",
"#  c #0D011C",
"$  c #130110",
"%  c #1E0315",
"&  c #1F0419",
"*  c #151512",
"=  c #270E05",
"-  c #2B0A12",
";  c #391111",
":  c #390E22",
">  c #301124",
",  c #331529",
"<  c #361C29",
"1  c #3A1A2B",
"2  c #3F1D2C",
"3  c #0D2338",
"4  c #06313D",
"5  c #2E2B2A",
"6  c #3E333C",
"7  c #49110D",
"8  c #46191E",
"9  c #421F2C",
"0  c #4F2423",
"q  c #482227",
"w  c #43202B",
"e  c #48212B",
"r  c #4D242B",
"t  c #55292B",
"y  c #5B2A2C",
"u  c #5C2C2C",
"i  c #532C31",
"p  c #512D32",
"a  c #532D32",
"s  c #552F34",
"d  c #6C2423",
"f  c #612D27",
"g  c #693927",
"h  c #62322C",
"j  c #60312E",
"k  c #60322F",
"l  c #64332D",
"z  c #67372E",
"x  c #733E2F",
"c  c #6C3D32",
"v  c #763C33",
"b  c #464B3D",
"n  c #7B4729",
"m  c #6C443C",
"M  c #794A3C",
"N  c #794A3D",
"B  c #7B4D3F",
"V  c #003F42",
"C  c #105658",
"Z  c #065B66",
"A  c #197275",
"S  c #1C7C7E",
"D  c #2F7472",
"F  c #317D79",
"G  c #444D49",
"H  c #515345",
"J  c #535345",
"K  c #535645",
"L  c #555849",
"P  c #5F5551",
"I  c #61604A",
"U  c #6B6355",
"Y  c #6C6E5E",
"T  c #4B7161",
"R  c #4E756C",
"E  c #697A66",
"W  c #787367",
"Q  c #903826",
"!  c #804C36",
"~  c #824F3C",
"^  c #914D3A",
"/  c #865134",
"(  c #8A5436",
")  c #8D5736",
"_  c #8D5737",
"`  c #8F5A36",
"'  c #8F5A37",
"]  c #905A37",
"[  c #935D38",
"{  c #B5422B",
"}  c #A64632",
"|  c #A54E3A",
" . c #AB563F",
".. c #AF5C3E",
"X. c #875542",
"o. c #8B5A45",
"O. c #8C5A44",
"+. c #8C5B47",
"@. c #AB5741",
"#. c #866645",
"$. c #966342",
"%. c #916045",
"&. c #9E6A4D",
"*. c #9E7F5E",
"=. c #BB654B",
"-. c #A7704F",
";. c #BE724E",
":. c #AE7051",
">. c #B67C53",
",. c #B77E5E",
"<. c #A17560",
"1. c #C96A48",
"2. c #CA7546",
"3. c #D27E4E",
"4. c #DC7D4D",
"5. c #C36E52",
"6. c #C57D50",
"7. c #CF7C5A",
"8. c #2B837E",
"9. c #36867F",
"0. c #3B877E",
"q. c #4C857B",
"w. c #58917D",
"e. c #7A806D",
"r. c #B78258",
"t. c #A18461",
"y. c #AA846A",
"u. c #BD8966",
"i. c #A58E72",
"p. c #C98B5C",
"a. c #CD8D5D",
"s. c #D5855F",
"d. c #E58455",
"f. c #E68852",
"g. c #C9966E",
"h. c #D49163",
"j. c #DB9761",
"k. c #CA9F77",
"l. c #DC9974",
"z. c #E48C64",
"x. c #EF9469",
"c. c #EF9970",
"v. c #D7B969",
"b. c #E0A47C",
"n. c #F3A076",
"m. c #F7E17E",
"M. c #1C9F98",
"N. c #328B82",
"B. c #25948E",
"V. c #3E9B8D",
"C. c #489686",
"Z. c #429B8D",
"A. c #509D8A",
"S. c #50A28D",
"D. c #52A58E",
"F. c #4DAC92",
"G. c #4CBA9F",
"H. c #51B294",
"J. c #64A487",
"K. c #61B596",
"L. c #61BF9D",
"P. c #6BB89B",
"I. c #6DC19B",
"U. c #6EC39E",
"Y. c #6EC49E",
"T. c #6FC59E",
"R. c #6FC59F",
"E. c #5CD7AE",
"W. c #4EDDB7",
"Q. c #67C6A2",
"!. c #65CCA6",
"~. c #71C6A0",
"^. c #74CAA1",
"/. c #7CCEA3",
"(. c #79CFA5",
"). c #67D6AD",
"_. c #6FDCAF",
"`. c #7ADAAC",
"'. c #76EABA",
"]. c #A29881",
"[. c #83AB80",
"{. c #92AE84",
"}. c #84B78C",
"|. c #ACB293",
" X c #DCB892",
".X c #DEBC9A",
"XX c #E8AB80",
"oX c #E6B286",
"OX c #F1B68A",
"+X c #F8BF91",
"@X c #C3C89F",
"#X c #E0C191",
"$X c #E2C59C",
"%X c #FED6A3",
"&X c #F5DBAB",
"*X c #FFDFAE",
"=X c #F5E2AF",
"-X c #EAE0B0",
";X c #E9E4BA",
":X c #F3E3B0",
">X c #FFE5B3",
",X c #F6EAB7",
"<X c #FFEEBA",
"1X c #F3F0BE",
"2X c #FFF1BE",
"3X c #FFF7C4",
"4X c #FFFFD4",
"5X c None",
/* pixels */
"5X5X5X5X5X5X5X5X5X5X5X5X5X5X5X5X5X5X5X5X5X5X5X5X5X",
"5X5X5X5X5X5X5X5X5X5X5X5X5X5X5X5X5X5X5X5X5X5X5X5X5X",
"5X5X5X5X5X' ] h y 5X5X5X5X5X5X5X5X5X5X5X5X5X5X5X5X",
"5X5X5X5X) ` ` u z ~ 5X5X5X5X5X5X5X5X5X5X5X5X5X5X5X",
"5X5X5X5X) ` [ z / [ ) _ 5X5X5X5X5X5X5Xl 5X5X5X5X5X",
"5X5X5X5X) ` ( [ [ ) ) ) ) z u k y 5X5Xj 5X5X5X5X5X",
"5X5X5X5X` ( t / [ ) ) ) ` [ c u t 1 1 2 2 5X5X5X5X",
"5X5X5X5X5X( t / [ ) ) ) ` [ ` x t t > < 2 5X5X5X5X",
"5X5X5X5X5X5X! z 0 g x 8 8 n ` ( ( / t u u 5X5X5X5X",
"5X5X5X5X5X5X5X5X+.u.g.y.y.g.$.) ` x k r r 5X5X5X5X",
"5X5X5X5X5X5X5X5XXXb.*.t.t.t.r.%.c c k e e 5X5X5X5X",
"5X5X5X5X5X5X5X+ ,.%.O = = = k.<.0 / 0 0 u 5X5X5X5X",
"5X5X5X5X5X5X5X5X@.| =.z.s.7.OX<.: 8 > < > 5X5X5X5X",
"5X5X5X5Xe.J 5X5X .| 5.l.= X u.n.^ t oX-XP 5X5X5X5X",
"5X5X5X5Xe.L H 5X} Q :.,X@X@XoXx.^ 5 <X3X5X5X5X5X5X",
"5X5X5X5XU L L o i. X$X3X2X2X>Xb...N P U 5X5X5X5X5X",
"5X5X5X5XK L b . |.3X+X+X*X*X2XOXz.s.f @ 5X5X5X5X5X",
"5X5X5X5X5XH 5 . W .XOXOX>X<X*X+Xn.c.d.5X5X5X5X5X5X",
"5X5X5X5X5X5X* . . W ;X=X&X&Xb.l.h.;.5X5X5X5X5X5X5X",
"5X5X5X5X5X5X$ X z p : { { { 6 Z S N.Q.9.5X5X5X5X5X",
"5X5X5X5X5X5X5XM X.c : # 3 3 C A V.L.F K.~.5X5X5X5X",
"5X5X5X5X5X5X5X~ >.^ G G.H.F.L.C.D C.K.^.^.Y.5X5X5X",
"5X5X5X5X5X5X5Xv >.6.#.w.'.'.`.I.0.F /./.^.T.Y.5X5X",
"5X5X5X5X5X5X5XE >.f.1.x w.)._._.F.A !.D.I.^.T.U.5X",
"5X5X5X5X5Xc.1.!.{.3.4.2.d J.H.I.P.q.}.F S.T.T.U.5X",
"5X5X5X5X5Xn.n./.W.{.3.4.3.Q 7 y.2X%Xn.^.8.A.^.R.5X",
"5X5X5X5X5Xc.1.I.E.E.}.4.3.2.#X,X>X>X:X`.N.D.(.5X5X",
"5X5X5X5X5X5XR 0.L._._././.( z.%X<X<X1XG 5X5X5X5X5X",
"5X5X5X5X5X5X5X5XZ.V.B.M.M.D q.@X4X;XI > 5X5X5X5X5X",
"5X5X5X5X5X5X5X5X4 T }.[.e.C V T ].Y . % 5X5X5X5X5X",
"5X5X5X5X5X5X5X5X+ #.m.v.2.; O ; -   O % 5X5X5X5X5X",
"5X5X5X5X5X5X5X5X, X.6.x ! X.%.%.o.5X& & 5X5X5X5X5X",
"5X5X5X5X5X5X5XO.p X.j.a.a.a.h.:.B 5X5X5X5X5X5X5X5X",
"5X5X5X5X5X5X5X+.X.k N j.a.p.a.h.$.$ s s 5X5X5X5X5X",
"5X5X5X5X5X5X5Xs X.X.c N p.p.p.j.%.X p p 5X5X5X5X5X",
"5X5X5X5X5X5X5X5Xq 0 q 5X5X&.r.r.+.5Xi p 5X5X5X5X5X",
"5X5X5X5X5X5X5X5X@ % + 5X5Xm -.-.5X5X5Xa 5X5X5X5X5X",
"5X5X5X5X5X5X5X5Xw 2 9 5X5X5X5X5X5X5X5X5X5X5X5X5X5X",
"5X5X5X5X5X5X5Xq 2 2 9 5X5X5X5X5X5X5X5X5X5X5X5X5X5X"
};
