/* XPM */
static char *result[] = {
/* columns rows colors chars-per-pixel */
"25 39 211 2 ",
"   c #000106",
".  c #040005",
"X  c #01010A",
"o  c #13010A",
"O  c #16030F",
"+  c #001113",
"@  c #240106",
"#  c #300A06",
"$  c #2A0A15",
"%  c #23061A",
"&  c #290C1C",
"*  c #330D1A",
"=  c #261812",
"-  c #3C1D1A",
";  c #24211B",
":  c #000428",
">  c #341521",
",  c #3F1A20",
"<  c #3E1E29",
"1  c #182A22",
"2  c #312C20",
"3  c #3F3220",
"4  c #252A33",
"5  c #393030",
"6  c #7C1F1A",
"7  c #562315",
"8  c #451A24",
"9  c #401C29",
"0  c #42202B",
"q  c #46202A",
"w  c #41232D",
"e  c #46222E",
"r  c #492329",
"t  c #542C20",
"y  c #57282B",
"u  c #54282C",
"i  c #5C2D2A",
"p  c #5E2D2D",
"a  c #443523",
"s  c #4F2A30",
"d  c #4F2B32",
"f  c #512C31",
"g  c #532C32",
"h  c #4E3639",
"j  c #7E2821",
"k  c #663127",
"l  c #60312D",
"z  c #67342D",
"x  c #6C3A2E",
"c  c #753E29",
"v  c #6B3930",
"b  c #6D3F34",
"n  c #42493A",
"m  c #57463D",
"M  c #6A4238",
"N  c #6F423A",
"B  c #734031",
"V  c #754436",
"C  c #7A4530",
"Z  c #764A3F",
"A  c #034754",
"S  c #08575F",
"D  c #187E7F",
"F  c #246A6E",
"G  c #277776",
"H  c #207B7B",
"J  c #357C77",
"K  c #4D4E42",
"L  c #535747",
"P  c #565847",
"I  c #545A4A",
"U  c #575B4A",
"Y  c #63524C",
"T  c #795C4E",
"R  c #667349",
"E  c #616152",
"W  c #547164",
"Q  c #7B7C6D",
"!  c #923525",
"~  c #9C3E2D",
"^  c #824E32",
"/  c #844834",
"(  c #904F35",
")  c #865133",
"_  c #8B5535",
"`  c #8E5737",
"'  c #8F5836",
"]  c #8F5937",
"[  c #8F5B36",
"{  c #86523B",
"}  c #925B37",
"|  c #965A3A",
" . c #965F38",
".. c #A64E36",
"X. c #A3573D",
"o. c #B35D3E",
"O. c #CC573A",
"+. c #825140",
"@. c #865340",
"#. c #875443",
"$. c #905B44",
"%. c #926841",
"&. c #9C664B",
"*. c #9D7958",
"=. c #A96147",
"-. c #A7694D",
";. c #A26C4D",
":. c #BC6446",
">. c #B46948",
",. c #BC6C4E",
"<. c #AB6C50",
"1. c #B77750",
"2. c #B37A52",
"3. c #B77C54",
"4. c #C56146",
"5. c #CB7B4D",
"6. c #DE7C48",
"7. c #27807E",
"8. c #2E837D",
"9. c #3B837C",
"0. c #BB8559",
"q. c #938974",
"w. c #918C77",
"e. c #B18667",
"r. c #AF976B",
"t. c #BE9364",
"y. c #C48357",
"u. c #CC8A5B",
"i. c #CC8D5C",
"p. c #D78450",
"a. c #DD845F",
"s. c #E49159",
"d. c #D58A66",
"f. c #D39466",
"g. c #C69574",
"h. c #DF9671",
"j. c #D79B78",
"k. c #E4946C",
"l. c #EC976F",
"z. c #E99D75",
"x. c #F79D74",
"c. c #DDA164",
"v. c #D0A47E",
"b. c #EBBB6D",
"n. c #E6A278",
"m. c #E7A279",
"M. c #E7A17B",
"N. c #E8A079",
"B. c #E8A57C",
"V. c #EBA57D",
"C. c #FFA074",
"Z. c #F0A178",
"A. c #F6AB7F",
"S. c #CDCE7F",
"D. c #1A8B88",
"F. c #28908B",
"G. c #32998D",
"H. c #3CA08C",
"J. c #418A80",
"K. c #439284",
"L. c #4FA28C",
"P. c #53A58F",
"I. c #56B095",
"U. c #5FBE9F",
"Y. c #62BB9B",
"T. c #72B694",
"R. c #62C29F",
"E. c #69C29D",
"W. c #6CC19D",
"Q. c #71C59E",
"!. c #72C69E",
"~. c #57CBA2",
"^. c #5CD4AF",
"/. c #5DD6AF",
"(. c #66CEA7",
"). c #6FCEA5",
"_. c #72C7A0",
"`. c #72C8A0",
"'. c #76CCA3",
"]. c #65D6AE",
"[. c #78D8AB",
"{. c #7BDFAF",
"}. c #73E4B5",
"|. c #7AF6C3",
" X c #A89B84",
".X c #91BF94",
"XX c #B9B494",
"oX c #E7B087",
"OX c #E2B38A",
"+X c #EAB78A",
"@X c #EFBB8F",
"#X c #FFB487",
"$X c #ECBD90",
"%X c #9BC499",
"&X c #96D8AC",
"*X c #CEC29A",
"=X c #D4E289",
"-X c #F6CFA2",
";X c #F4D3A4",
":X c #FED7A6",
">X c #FFD7A9",
",X c #F6DDAE",
"<X c #F9DCAA",
"1X c #FFE3B2",
"2X c #FEE9B7",
"3X c #FDEBBA",
"4X c #FCF2BF",
"5X c #F0E9C3",
"6X c #FFF7C2",
"7X c #FFFCC8",
"8X c None",
/* pixels */
"8X8X8X8X8X8X8X8X8X8X8X8X8X8X8X8X8X8X8X8X8X8X8X8X8X",
"8X8X8X8X8X8X8X8X8X8X8X8X8X8X8X8X8X8X8X8X8X8X8X8X8X",
"8X8X8X8X8X8X' | v v | { y y y p 8X8X8X8X8X8X8X8X8X",
"8X8X8X8X8X' ] } l x  ._ B V l u k 8X8X8X8X8X8X8X8X",
"8X8X8X8X8X_ [  .B C  .}  . .C x z u 9 < u 8X8X8X8X",
"8X8X8X8X8X` ] _ ) ^ ) _ ^ ^ _  .) l z 9 9 8X8X8X8X",
"8X8X8X8X8X8X` i r 0 i ^ 8 8 C [ [  . .z l 8X8X8X8X",
"8X8X8X8X8X8X8Xq e.+XoX+XOXOX$X0.) _ l l 0 8X8X8X8X",
"8X8X8X8X8X8X8X# - e.v.a a a 3 *.e.l ) z u 8X8X8X8X",
"8X8X8X8X8X8X8X8Xk <.<.7 c / C g.g.* x * * 8X8X8X8X",
"8X8X8X8X8X8X8X8X| X...:.l.=.( f.j.z 8 M T 8X8X8X8X",
"8X8X8X8X8X8X8X8X2 z ~ X.@Xm ; *.A.,.- +X1X8X8X8X8X",
"8X8X8X8X8X8X8X8X6Xv.! =.4X4X4X-Xl.=.= *X,X8X8X8X8X",
"8X8X8X8XQ L 8X8X3X2X,X,X2X1X1X2X$X:.>.w 8X8X8X8X8X",
"8X8X8X8XE U I X XX7X<Xz.z.:X1X2X-Xl.z.8X8X8X8X8X8X",
"8X8X8X8XP U n . 5 XX7X;X;X4X4X:X#XC.8X8X8X8X8X8X8X",
"8X8X8X8X8XK ; . @ Y  XoXB.B. Xq.q.w.8X8X8X8X8X8X8X",
"8X8X8X8X8X8Xo $ V s % j j 6 4 S D G.I.K.8X8X8X8X8X",
"8X8X8X8X8X8X8X@.$.+.r : S A G 7.K.Y.9.W.`.Q.!.8X8X",
"8X8X8X8X8X8X8X@.1.s.>.m ].}.{.P.F 9.'.'.`.Q.Q._.8X",
"8X8X8X8X8X8X8XR.r.6.p.>.h (.}.[.P.J '.'.'.'.'._.8X",
"8X8X8XM.N.x.8X/.`.r.6.p.o.m Y.|.U.J '.).K.J 9.J.8X",
"8X8Xm.B.A.Z.4.E.^.Q.r.6.p...E W W 7.(.~.H.G.H.L.8X",
"8X8XB.h.d.a.O.T.].^.Q.r.6.s.X.6 h F.&X&X&X%X.X8X8X",
"8X8XB.d.:.o.=.T.(.).].(.t.5.p.:.m J <X1X1X#Xx.8X8X",
"8X8Xn.V.k.-.H H I.).(.^.].T / $.t = A.1X1X:X>X8X8X",
"8X8X8X8X8X8X8X8X8.7.D D D.F.F.G.S ; 5X4X1X8X8X8X8X",
"8X8X8X8X8X8X8X8X  R =XS.0.1 + 4 4 . 5 5 8X8X8X8X8X",
"8X8X8X8X8X8X8X8X, %.b.c.X.t t B b O . . 8X8X8X8X8X",
"8X8X8X8X8X8X8X8X;.1.y.y.&.3.<.+.Z 8XO O 8X8X8X8X8X",
"8X8X8X8X8X8X8X8X2.0.u.f.c.y.$.l e 8X8X8X8X8X8X8X8X",
"8X8X8X8X8X8X8X8XN -.i.i.0.0 < s e 8X8X8X8X8X8X8X8X",
"8X8X8X8X8X8X8X8X8X8X3.M . . M V e 8X8X8X8X8X8X8X8X",
"8X8X8X8X8X8X8X8X8X8X8X% < < +.$.{ 8X8X8X8X8X8X8X8X",
"8X8X8X8X8X8X8X8X8X8X8X8Xs s +.&.#.g 8X8X8X8X8X8X8X",
"8X8X8X8X8X8X8X8X8X8X8X8X8Xd Z b r > 8X8X8X8X8X8X8X",
"8X8X8X8X8X8X8X8X8X8X8X8X8Xf 8X8X% & 8X8X8X8X8X8X8X",
"8X8X8X8X8X8X8X8X8X8X8X8X8X8X8Xe 0 q 8X8X8X8X8X8X8X",
"8X8X8X8X8X8X8X8X8X8X8X8X8X8X, 0 0 q 8X8X8X8X8X8X8X"
};
