/* XPM */
static char *result[] = {
/* columns rows colors chars-per-pixel */
"25 39 202 2 ",
"   c #040104",
".  c #010706",
"X  c #170203",
"o  c #140009",
"O  c #140309",
"+  c #1E1309",
"@  c #1B0414",
"#  c #1F0615",
"$  c #24050C",
"%  c #320F1C",
"&  c #201217",
"*  c #3A151B",
"=  c #03092A",
"-  c #301021",
";  c #341528",
":  c #3B1B2A",
">  c #3C1D28",
",  c #3F1F29",
"<  c #5F151E",
"1  c #5F1B1F",
"2  c #612E1B",
"3  c #431D29",
"4  c #401F2B",
"5  c #47232B",
"6  c #4A272E",
"7  c #5A2526",
"8  c #54272B",
"9  c #50282A",
"0  c #5D2D2B",
"q  c #582B2C",
"w  c #592E2D",
"e  c #5E2E2C",
"r  c #5F2E2C",
"t  c #542E32",
"y  c #5C3132",
"u  c #64372E",
"i  c #6A392E",
"p  c #6A392F",
"a  c #75322D",
"s  c #613433",
"d  c #673E37",
"f  c #693E36",
"g  c #683E39",
"h  c #454A3A",
"j  c #55403D",
"k  c #75412E",
"l  c #6C453C",
"z  c #784838",
"x  c #0A3449",
"c  c #025764",
"v  c #136668",
"b  c #156B6F",
"n  c #216B6C",
"m  c #276F6D",
"M  c #336567",
"N  c #287173",
"B  c #2E7474",
"V  c #217C7B",
"C  c #287B78",
"Z  c #357B76",
"A  c #337D79",
"S  c #574242",
"D  c #5E5743",
"F  c #555749",
"G  c #54544A",
"H  c #545849",
"J  c #5E5E4E",
"K  c #7F614E",
"L  c #777B44",
"P  c #766E54",
"I  c #6B7D68",
"U  c #677E73",
"Y  c #823C2A",
"T  c #943425",
"R  c #833E31",
"E  c #814836",
"W  c #844E34",
"Q  c #804B3B",
"!  c #814C3A",
"~  c #924432",
"^  c #8D5635",
"/  c #8F5835",
"(  c #88573E",
")  c #8D5A3F",
"_  c #8E5A3E",
"`  c #915438",
"'  c #905B38",
"]  c #A64F3B",
"[  c #966039",
"{  c #8C5340",
"}  c #855A47",
"|  c #8A5E49",
" . c #915F47",
".. c #995B44",
"X. c #A15D42",
"o. c #9C6A4B",
"O. c #997659",
"+. c #AB6449",
"@. c #B26041",
"#. c #B86145",
"$. c #BC624A",
"%. c #BD6D4D",
"&. c #BE744C",
"*. c #AC7657",
"=. c #B17751",
"-. c #B17952",
";. c #B67B51",
":. c #BB7E53",
">. c #B97F55",
",. c #827769",
"<. c #C96140",
"1. c #CE6E42",
"2. c #C7744E",
"3. c #DD7844",
"4. c #E97D4F",
"5. c #2D827E",
"6. c #3D837C",
"7. c #3D877E",
"8. c #41887F",
"9. c #6E8B7C",
"0. c #6E8C7E",
"q. c #9C8169",
"w. c #AF8866",
"e. c #BB8861",
"r. c #BC8E6F",
"t. c #A2A07B",
"y. c #B2A979",
"u. c #C68659",
"i. c #C4895B",
"p. c #CB8C5D",
"a. c #CD8F5E",
"s. c #D88152",
"d. c #DC845F",
"f. c #EB955C",
"g. c #D98A65",
"h. c #C69C76",
"j. c #E0936C",
"k. c #FF9E6F",
"l. c #E49973",
"z. c #EE9F76",
"x. c #E69D78",
"c. c #DEA077",
"v. c #E8A179",
"b. c #EFA379",
"n. c #ECA47C",
"m. c #FDA77A",
"M. c #F2A87E",
"N. c #FFAA7A",
"B. c #218783",
"V. c #378981",
"C. c #319B94",
"Z. c #3BAB93",
"A. c #439083",
"S. c #4D9D8A",
"D. c #58AA91",
"F. c #5CAC92",
"G. c #49B496",
"H. c #62B99A",
"J. c #63BE9C",
"K. c #68BA99",
"L. c #6DC59E",
"P. c #5FC1A0",
"I. c #5ECCA9",
"U. c #56DBB6",
"Y. c #67C9A1",
"T. c #6AC8A3",
"R. c #6CCFA7",
"E. c #72C8A0",
"W. c #75CBA2",
"Q. c #6AD7AE",
"!. c #77D2A6",
"~. c #7AE3B3",
"^. c #77EEBD",
"/. c #A8AA88",
"(. c #BEAE8D",
"). c #DBB48C",
"_. c #E0A981",
"`. c #E9B98C",
"'. c #F0BA8C",
"]. c #B5D7A9",
"[. c #B7DAAF",
"{. c #EFDA82",
"}. c #EDC293",
"|. c #FFC497",
" X c #F5C598",
".X c #F6D1A2",
"XX c #FFD1A0",
"oX c #FFD4A7",
"OX c #FCD6A7",
"+X c #F1D6A8",
"@X c #FFD9AB",
"#X c #FFDDAD",
"$X c #F2E3B3",
"%X c #F9E3B2",
"&X c #FFE1B0",
"*X c #FBEAB7",
"=X c #FFEBB7",
"-X c #FFEBB8",
";X c #FEF1BE",
":X c #FFFCC8",
">X c #FFFFCA",
",X c None",
/* pixels */
",X,X,X,X,X^ ^ ^ ,X,X^ _ ,X,X,X,X,X,X,X,X,X,X,X,X,X",
",X,X,X,X,X^ ^ ' u u ' ' ` w w r ,X,X,X,Xp ,X,X,X,X",
",X,X,X,X,X^ ' [ W W ' ^ ' W e 8 0 q : : ,X,X,X,X,X",
",X,X,X,X,X/ ' z ^ [ ' ^ ' [ E k i 8 3 > : ,X,X,X,X",
",X,X,X,X,X,X) y i k k W k k W [ W i k 5 5 ,X,X,X,X",
",X,X,X,X,X,X,X9 s y f ' y t ( [ ^ [ ' i e ,X,X,X,X",
",X,X,X,X,X,X,X,X_.'.'.`.`.`.}.e.^ W e e 3 ,X,X,X,X",
",X,X,X,X,X,X,XX $ O.h.+ + + O O.r.7 ^ e e ,X,X,X,X",
",X,X,X,X,X,X,X,X` %.+.Y X.+.X.c.r.% e # # ,X,X,X,X",
",X,X,X,X,X,X,X,Xp Y ] $.z.W 2 e.v.E 3 | q.,X,X,X,X",
",X,X,X,X,X,X,X,XD z T ]  XP h w.m.%.% }.=X,X,X,X,X",
",X,X,X,X,X,X,X,X>X).X.*.;X:X:XOXz.@.> (.+X,X,X,X,X",
",X,X,X,X,.F ,X,X$X;X*X%X%X&X&X=X}.2.2.- ,X,X,X,X,X",
",X,X,X,XJ J H . /.:X.Xj.j.OX&X=X.Xz.b.,X,X,X,X,X,X",
",X,X,X,X,XG h   # t.:X%X%X;X;XXXm.k.,X,X,X,X,X,X,X",
",X,X,X,X,X,X&   * S ,.j.g.d.,.U U 9.J.B J.,X,X,X,X",
",X,X,X,X,X,Xo * E t # < 7 1 x c B.Z.S.S.K.E.,X,X,X",
"v.v.n.l.,X,XX Q X...e = n v V.V.A.H.A.E.W.L.L.Y.,X",
"v.v.z.d.#.,X,XK :.f.&.l R.^.~.F.N A E.!.E.E.E.E.E.",
"v.M.s.<...x 5.I.y.s.s.2.7 H.~.~.H.N A L.W.L.L.E.E.",
"z.m.4.O.N x C I.Q.t.3.s.%.e F.^.I.V 5.T.!.A.n N N ",
",X0.U M c n A L.Q.T.t.3.s.@.| J G j S ,XY.G.Z.Z.Z.",
",X,X,Xb n 7.A L.!.I.T.t.3.4.1.~ a R ,X,X[.].].].y.",
",X,X,X,X8.6.Z D.L.!.Q.Q.y.y.u.@.E u ,X,X|.XX&XXXN.",
",X,X,X,X,X,X,XB D.P.P.I.U.U.I } j   - ,Xx. X&X@X#X",
",X,X,X,X,X,X,X,Xm C 5.A V B.B.C.n O O $ (.-X@XoX,X",
",X,X,X,X,X,X,X,XX L {.&.    * t > O # O ,X,X,X,X,X",
",X,X,X,X,X,X,X,X9 o.a.W i k W { ! ,X# # ,X,X,X,X,X",
",X,X,X,X,X,X,X,X-.:.u.:.u.o.z f p ,X,X,X,X,X,X,X,X",
",X,X,X,X,X,X,Xi.a.a.u.*.o.l 5 > : ,X,X,X,X,X,X,X,X",
",X,X,X,X,X,Xp.a.:.>.=.d ; 6 y y g ,X,X,X,X,X,X,X,X",
",X,X,X,X,X,X;.:._ ,X,X,X,X) } |  .z # > 3 ,X,X,X,X",
",X,X,X,X,X,X@ O ,X,X,X,X,X,X9 l Q , @ , 3 ,X,X,X,X",
",X,X,X,X,X,X6 5 ,X,X,X,X,X,X,X,X,X,X,X,X4 ,X,X,X,X",
",X,X,X,X,Xw t t ,X,X,X,X,X,X,X,X,X,X,X,X,X,X,X,X,X",
",X,X,X,X,X,X,X,X,X,X,X,X,X,X,X,X,X,X,X,X,X,X,X,X,X",
",X,X,X,X,X,X,X,X,X,X,X,X,X,X,X,X,X,X,X,X,X,X,X,X,X",
",X,X,X,X,X,X,X,X,X,X,X,X,X,X,X,X,X,X,X,X,X,X,X,X,X",
",X,X,X,X,X,X,X,X,X,X,X,X,X,X,X,X,X,X,X,X,X,X,X,X,X"
};
