/* XPM */
static char *result[] = {
/* columns rows colors chars-per-pixel */
"45 45 10 1 ",
"  c black",
". c #120D08",
"X c #20150C",
"o c #2F2217",
"O c #46301E",
"+ c #734F31",
"@ c #FF1831",
"# c #CBBFBF",
"$ c #E9E9E9",
"% c None",
/* pixels */
"%%%%%%%%%%%%%%%%%%%%%%%%%%%%%%%%%%%%%%%%%%%%%",
"%%%%%%%%%%%%%%%%%%%%%%%%%%%%%%%%%%%%%%%    %%",
"%%%%%%%%%%%%%%%%%%%%%%%%%%%%%%%%%%%%%%%o.. %%",
"%%%%%%%%%%%%%%%%%%%%%%%%%%%%%%%%%%%%% +.O  %%",
"%%%%%%%%%%%%%%%%%%%%%%%%%%%%%%%%%%%% +OOO+  %",
"%%%%%++%%%%%%%%%%%%%%%%%%%%%%%%%%%% +OOOO.o %",
"%%%%%%O++%%%%%%%%%%%%%%%%%%%%%%%%%%+OOOO .. %",
"%%%%%%OOO+++%%O%%%%%%%%%%%%%%%%++++OOO+  %. %",
"%%%%% OOOOO+.OO++%%%%%%%%%%%%++OOOOOOOOo  %%%",
"%%%%  OOOOOO+OOOO++%%%%%%%%%OOOOOOOOOOO.o %%%",
"%%%% +OOOOOOOOOOOO++%%+++++++OOOOOO %%%.%%%%%",
"%%%%+OOOOOOOOOOOOOO++++O+++$$$+O%%%%%%%%%%%%%",
"%%%%.OOOOOOOOOOOOOOO++OOOO$$$$$%%%%%%%%%%%%%%",
"%%%%%OOOOO%%%OOOOOOO++OOO$$$$@$$%%%%%%%%%%%%%",
"%%%%%%+O%%%%%%OOOOOOOOOOO#$$$@$$%%%%%%%%%%%%%",
"%%%%%%%%%%%%%%%% OOOOOOOO##$$@$$%%%%%%%%%%%%%",
"%%%%%%%%%%%%%%%%% OOOO+++O##$$$%%%%%%%%%%%%%%",
"%%%%%%%%%%%%%%%%%% OOOOO+++###%%%%%%%%%%%%%%%",
"%%%%%%%%%%%%%%%%%% OOOO$XO++OO%%%%%%%%%%%%%%%",
"%%%%%%%%%%%%%%%%%% OOOXXX$X$%$%%%%%%%%%%%%%%%",
"%%%%%%%%%%%%%%%%%%% OOXXXXXXX%%%%%%%%%%%%%%%%",
"%%%%%%%%%%%%%%%%%% +OOXXXXXXXX%%%%%%%%%%%%%%%",
"%%%%%%%%%%%%%%%%%%+++O$X$X$X$%%%%%%%%%%%%%%%%",
"%%%%%%%%%%%%%%%%%%OO+O++++++ %%%%%%%%%%%%%%%%",
"%%%%%%%%%%%%%%%%%%%O+OOOOOOO+ +Oo%%%%%%%%%%%%",
"%%%%%%%%%%%%%%%%%%%%OOOOOO%OO+O+.%%%%%%%%%%%%",
"%%%%%%%%%%%%%%%%%%%%%OOOOO%%OOOO%%%%%%%%%%%%%",
"%%%%%%%%%%%%%%%%%%%%%%%OOO%%%OO%%%%%%%%%%%%%%",
"%%%%%%%%%%%%%%%%%%%%%%%OO%%%%%%%%%%%%%%%%%%%%",
"%%%%%%%%%%%%%%%%%%%%%%+%%%%%%%%%%%%%%%%%%%%%%",
"%%%%%%%%%%%%%%%%%%%%%%%%%%%%%%%%%%%%%%%%%%%%%",
"%%%%%%%%%%%%%%%%%%%%%%%%%%%%%%%%%%%%%%%%%%%%%",
"%%%%%%%%%%%%%%%%%%%%%%%%%%%%%%%%%%%%%%%%%%%%%",
"%%%%%%%%%%%%%%%%%%%%%%%%%%%%%%%%%%%%%%%%%%%%%",
"%%%%%%%%%%%%%%%%%%%%%%%%%%%%%%%%%%%%%%%%%%%%%",
"%%%%%%%%%%%%%%%%%%%%%%%%%%%%%%%%%%%%%%%%%%%%%",
"%%%%%%%%%%%%%%%%%%%%%%%%%%%%%%%%%%%%%%%%%%%%%",
"%%%%%%%%%%%%%%%%%%%%%%%%%%%%%%%%%%%%%%%%%%%%%",
"%%%%%%%%%%%%%%%%%%%%%%%%%%%%%%%%%%%%%%%%%%%%%",
"%%%%%%%%%%%%%%%%%%%%%%%%%%%%%%%%%%%%%%%%%%%%%",
"%%%%%%%%%%%%%%%%%%%%%%%%%%%%%%%%%%%%%%%%%%%%%",
"%%%%%%%%%%%%%%%%%%%%%%%%%%%%%%%%%%%%%%%%%%%%%",
"%%%%%%%%%%%%%%%%%%%%%%%%%%%%%%%%%%%%%%%%%%%%%",
"%%%%%%%%%%%%%%%%%%%%%%%%%%%%%%%%%%%%%%%%%%%%%",
"%%%%%%%%%%%%%%%%%%%%%%%%%%%%%%%%%%%%%%%%%%%%%"
};
