/* XPM */
static char *result[] = {
/* columns rows colors chars-per-pixel */
"45 45 10 1 ",
"  c black",
". c #120D08",
"X c #20150C",
"o c #2F2217",
"O c #46301E",
"+ c #734F31",
"@ c #FF1831",
"# c #CBBFBF",
"$ c #E9E9E9",
"% c None",
/* pixels */
"%%%%%%%%%%%%%%%%%%%%%%%%%%%%%%%%%%%%%%%%%%%%%",
"%%%%%%%%%%%%%%%%%%%%%%%%%%%%%%%%%%%%%%%%%%%%%",
"%%%%%%%%%%%   %%%%%%%%%%%%%%%%%%%%%%%%%    %%",
"%%%%%%%%%%  oo%%%%%%%%%%%%%%%%%%%%%%%% o.. %%",
"%%%%.  %%% o.. %%%%%%%%%%%%%%%%%%%%%% +.O  %%",
"%%%%+++  % o.+ %%%%%%%%%%%%%%%%%%%%% +OOO+ %%",
"%%%%OO+++  ..O+ %%%%%%%%%%%%%%%     +OOOO.o%%",
"%%%%%OOO+++.OO++  %%     %%%  ++++++OOOO ..%%",
"%%%%%OOOOO++OOOO++   +++++++++OOOOOOO+  %.%%%",
"%%%%%OOOOOOOOOOOO++ ++O+++$$$+OOOOOOOOo%%%%%%",
"%%%%%OOOOOOOOOOOOO+++OOOO$$$$$OOOOOOOO%%%%%%%",
"%%%%%OOOOOOOOOOOOOOO+OOO$$$$@$$ %%%%%%%%%%%%%",
"%%%%%OOOOOOOOOOOOOOO+OOO#$$$@$$ %%%%%%%%%%%%%",
"%%%%%%OOOOOOOOOOOOOOOOOO##$$@$$ %%%%%%%%%%%%%",
"%%%%%%+%%%%%%%%% OOOO+++O##$$$O %%%%%%%%%%%%%",
"%%%%%%%%%%%%%%%%% OOOOO+++###O %%%%%%%%%%%%%%",
"%%%%%%%%%%%%%%%%% OOOO$XO++OOXO %%%%%%%%%%%%%",
"%%%%%%%%%%%%%%%%% OOOXXX$X$X$X %%%%%%%%%%%%%%",
"%%%%%%%%%%%%%%%%   OOXXXXXXXX %%%%%%%%%%%%%%%",
"%%%%%%%%%%%%%%%%o +OOXXXXXXXX %%%%%%%%%%%%%%%",
"%%%%%%%%%%%%%%%%.+++O$X$X$X$   %%%%%%%%%%%%%%",
"%%%%%%%%%%%%%%%%%OO+O++++++ +Oo %%%%%%%%%%%%%",
"%%%%%%%%%%%%%%%%%%O+OOOOOOO+O+.o%%%%%%%%%%%%%",
"%%%%%%%%%%%%%%%%%%.OO +OO OOOO %%%%%%%%%%%%%%",
"%%%%%%%%%%%%%%%%%%%.OO +O  OOo %%%%%%%%%%%%%%",
"%%%%%%%%%%%%%%%%%%%%   +O %  .o%%%%%%%%%%%%%%",
"%%%%%%%%%%%%%%%%%%%%%% +O %%%%%%%%%%%%%%%%%%%",
"%%%%%%%%%%%%%%%%%%%%%% +O %%%%%%%%%%%%%%%%%%%",
"%%%%%%%%%%%%%%%%%%%%%%%+O %%%%%%%%%%%%%%%%%%%",
"%%%%%%%%%%%%%%%%%%%%%%%OO %%%%%%%%%%%%%%%%%%%",
"%%%%%%%%%%%%%%%%%%%%%%%O %%%%%%%%%%%%%%%%%%%%",
"%%%%%%%%%%%%%%%%%%%%%%%O %%%%%%%%%%%%%%%%%%%%",
"%%%%%%%%%%%%%%%%%%%%%%%%%%%%%%%%%%%%%%%%%%%%%",
"%%%%%%%%%%%%%%%%%%%%%%%%%%%%%%%%%%%%%%%%%%%%%",
"%%%%%%%%%%%%%%%%%%%%%%%%%%%%%%%%%%%%%%%%%%%%%",
"%%%%%%%%%%%%%%%%%%%%%%%%%%%%%%%%%%%%%%%%%%%%%",
"%%%%%%%%%%%%%%%%%%%%%%%%%%%%%%%%%%%%%%%%%%%%%",
"%%%%%%%%%%%%%%%%%%%%%%%%%%%%%%%%%%%%%%%%%%%%%",
"%%%%%%%%%%%%%%%%%%%%%%%%%%%%%%%%%%%%%%%%%%%%%",
"%%%%%%%%%%%%%%%%%%%%%%%%%%%%%%%%%%%%%%%%%%%%%",
"%%%%%%%%%%%%%%%%%%%%%%%%%%%%%%%%%%%%%%%%%%%%%",
"%%%%%%%%%%%%%%%%%%%%%%%%%%%%%%%%%%%%%%%%%%%%%",
"%%%%%%%%%%%%%%%%%%%%%%%%%%%%%%%%%%%%%%%%%%%%%",
"%%%%%%%%%%%%%%%%%%%%%%%%%%%%%%%%%%%%%%%%%%%%%",
"%%%%%%%%%%%%%%%%%%%%%%%%%%%%%%%%%%%%%%%%%%%%%"
};
