/* XPM */
static char *result[] = {
/* columns rows colors chars-per-pixel */
"45 45 10 1 ",
"  c black",
". c #120D08",
"X c #20150C",
"o c #2F2217",
"O c #46301E",
"+ c #734F31",
"@ c #FF1831",
"# c #CBBFBF",
"$ c #E9E9E9",
"% c None",
/* pixels */
"%%%%%%%%%%%%%%%%%%%%%%%%%%%%%%%%%%%%%%%%%%%%%",
"%%%%%%%%%%%%%%%%%%%%%%%%%%%%%%%%%%%%%%%%%%%%%",
"%%%%%%%%%%%%%%%%%%%%%%%%%%%%%%%%%%%%%%%%%%%%%",
"%%%%%%%%%%%%%%%%%%%%%%%%$$$%%%%%%%%%%%%%%%%%%",
"%%%%%%%%%%%%%%%%%%%%%%%$$$$$%%%%%%%%%%%   %%%",
"%%%%%%%%%%%%%%%%%%%%%%$$$$@$$%%%%%%%   o. %%%",
"%%%%%%%%%%%%%%%%%%%%++#$$$@$$+  %%% +++.O.%%%",
"%%%%%%%%%%++++%%%%%%+O##$$@$$++    +OOOO+ %%%",
"%%%%%%%%%o.O+++++++++OO##$$$O++++++OOOOO+ %%%",
"%%o%%%% +.OOOOOOO++OOOOO###OOO+OOOOO+O .%%%%%",
"%o++++++O++OOOOOOOO+OO$X$X$X$X$OOOOO+ %%%%%%%",
"%o.OOOOOOOOOOOOOOOOOO+$X$X$X$X$OOOOOOo%%%%%%%",
"%%% OOOOOOOOOOOOOOOOOXXXXXXXXXX %% O.%%%%%%%%",
"%%%% OOOOOOOOOOOOOOOOXXXXXXXXXX %%%%%%%%%%%%%",
"%%%%%OOOOOOOOOO % OOOXXXXXXXXXX %%%%%%%%%%%%%",
"%%%%%OOOOOOOO %%%% OOXXXXXXXXX %%%%%%%%%%%%%%",
"%%%%+%OOOOO%%%%%%% OO$XXXXXXXX %%%%%%%%%%%%%%",
"%%%%%%%%O%%%%%%%%% OO$X$X$X$X$ %%%%%%%%%%%%%%",
"%%%%%%%%%%%%%%%%%%+OO+X$X$X$X$   %%%%%%%%%%%%",
"%%%%%%%%%%%%%%%%%+++OOOOOOOOOO +O%%%%%%%%%%%%",
"%%%%%%%%%%%%%%%%%OO+   OOOO OO+O+%%%%%%%%%%%%",
"%%%%%%%%%%%%%%%%%%O+ % OOOO  OOOO%%%%%%%%%%%%",
"%%%%%%%%%%%%%%%%%%%%%%%%%OO+%%%%%%%%%%%%%%%%%",
"%%%%%%%%%%%%%%%%%%%%%%%%%%%+%%%%%%%%%%%%%%%%%",
"%%%%%%%%%%%%%%%%%%%%%%%%%%%%%%%%%%%%%%%%%%%%%",
"%%%%%%%%%%%%%%%%%%%%%%%%%%%%%%%%%%%%%%%%%%%%%",
"%%%%%%%%%%%%%%%%%%%%%%%%%%%%%%%%%%%%%%%%%%%%%",
"%%%%%%%%%%%%%%%%%%%%%%%%%%%%%%%%%%%%%%%%%%%%%",
"%%%%%%%%%%%%%%%%%%%%%%%%%%%%%%%%%%%%%%%%%%%%%",
"%%%%%%%%%%%%%%%%%%%%%%%%%%%%%%%%%%%%%%%%%%%%%",
"%%%%%%%%%%%%%%%%%%%%%%%%%%%%%%%%%%%%%%%%%%%%%",
"%%%%%%%%%%%%%%%%%%%%%%%%%%%%%%%%%%%%%%%%%%%%%",
"%%%%%%%%%%%%%%%%%%%%%%%%%%%%%%%%%%%%%%%%%%%%%",
"%%%%%%%%%%%%%%%%%%%%%%%%%%%%%%%%%%%%%%%%%%%%%",
"%%%%%%%%%%%%%%%%%%%%%%%%%%%%%%%%%%%%%%%%%%%%%",
"%%%%%%%%%%%%%%%%%%%%%%%%%%%%%%%%%%%%%%%%%%%%%",
"%%%%%%%%%%%%%%%%%%%%%%%%%%%%%%%%%%%%%%%%%%%%%",
"%%%%%%%%%%%%%%%%%%%%%%%%%%%%%%%%%%%%%%%%%%%%%",
"%%%%%%%%%%%%%%%%%%%%%%%%%%%%%%%%%%%%%%%%%%%%%",
"%%%%%%%%%%%%%%%%%%%%%%%%%%%%%%%%%%%%%%%%%%%%%",
"%%%%%%%%%%%%%%%%%%%%%%%%%%%%%%%%%%%%%%%%%%%%%",
"%%%%%%%%%%%%%%%%%%%%%%%%%%%%%%%%%%%%%%%%%%%%%",
"%%%%%%%%%%%%%%%%%%%%%%%%%%%%%%%%%%%%%%%%%%%%%",
"%%%%%%%%%%%%%%%%%%%%%%%%%%%%%%%%%%%%%%%%%%%%%",
"%%%%%%%%%%%%%%%%%%%%%%%%%%%%%%%%%%%%%%%%%%%%%"
};
