/* XPM */
static char *result[] = {
/* columns rows colors chars-per-pixel */
"45 45 10 1 ",
"  c black",
". c #120D08",
"X c #20150C",
"o c #2F2217",
"O c #46301E",
"+ c #734F31",
"@ c #FF1831",
"# c #CBBFBF",
"$ c #E9E9E9",
"% c None",
/* pixels */
"%%%%%%%%%%%%%%%%%%%%%%%%%%%%%%%%%%%%%%%%%%%%%",
"%%%%%%%%%%%%%%%%%%%%%%%%%%%%%%%%%%%%%%%%%%%%%",
"%%%%%%%%%%%%%%%%%%%%%%%%%%%%%%%%%%%%%%%%%%%%%",
"%%%%%%%%%%%%%%%%%%%%%%%%$$$%%%%%%%%%%%%%%%%%%",
"%%%%%%%%%%%%%%%%%%%%%%%$$$$$%%%%%%%%%%%  %%%%",
"%%%%%%%%%%%%%%%%%%%%%%$$$$@$$%%%%%%%   o. %%%",
"%%%%%%%%%%%%%%%%%%%%++#$$$@$$+  %%% +++.O.%%%",
"%%%%%%%%%%++++%%%%%%+O##$$@$$++    +OOOO+ %%%",
"%%%%%%%%%o.O+++++++++OO##$$$O++++++OOOOO+ %%%",
"%%%%%%  +.OOOOOOO++OOOOO###OOO+OOOOO+O .%%%%%",
"%%++++++O++OOOOOOOO+OO$X$X$X$X$OOOOO+ %%%%%%%",
"%%.OOOOOOOOOOOOOOOOOO+$X$X$X$X$OOOOOO%%%%%%%%",
"%%% OOOOOOOOOOOOOOOOOXXXXXXXXXX %% O%%%%%%%%%",
"%%%% OOOOOOOOOOOOOOOOX%%XXXXXXX %%%%%%%%%%%%%",
"%%%% OOOOOOOOOO % OOOX%XXXXXXXX %%%%%%%%%%%%%",
"%%%%%OOOOOOOO  %%% OOXXXXXXXXX %%%%%%%%%%%%%%",
"%%%%+%OOOOO%%%%%%%%OO$XXXXXXXX %%%%%%%%%%%%%%",
"%%%%%%%%O%%%%%%%%%%OO$X$X$X$X$ %%%%%%%%%%%%%%",
"%%%%%%%%%%%%%%%%%%+OO+X$X$X$X$    %%%%%%%%%%%",
"%%%%%%%%%%%%%%%%%+++OOOOOOOOOO+ +Oo%%%%%%%%%%",
"%%%%%%%%%%%%%%%%%OO+%%OOOO   OO+O+.%%%%%%%%%%",
"%%%%%%%%%%%%%%%%%%O+%%%%OO+ % OOOO%%%%%%%%%%%",
"%%%%%%%%%%%%%%%%%%%%%%%%%%+%%% OO%%%%%%%%%%%%",
"%%%%%%%%%%%%%%%%%%%%%%%%%%%%%%%%%%%%%%%%%%%%%",
"%%%%%%%%%%%%%%%%%%%%%%%%%%%%%%%%%%%%%%%%%%%%%",
"%%%%%%%%%%%%%%%%%%%%%%%%%%%%%%%%%%%%%%%%%%%%%",
"%%%%%%%%%%%%%%%%%%%%%%%%%%%%%%%%%%%%%%%%%%%%%",
"%%%%%%%%%%%%%%%%%%%%%%%%%%%%%%%%%%%%%%%%%%%%%",
"%%%%%%%%%%%%%%%%%%%%%%%%%%%%%%%%%%%%%%%%%%%%%",
"%%%%%%%%%%%%%%%%%%%%%%%%%%%%%%%%%%%%%%%%%%%%%",
"%%%%%%%%%%%%%%%%%%%%%%%%%%%%%%%%%%%%%%%%%%%%%",
"%%%%%%%%%%%%%%%%%%%%%%%%%%%%%%%%%%%%%%%%%%%%%",
"%%%%%%%%%%%%%%%%%%%%%%%%%%%%%%%%%%%%%%%%%%%%%",
"%%%%%%%%%%%%%%%%%%%%%%%%%%%%%%%%%%%%%%%%%%%%%",
"%%%%%%%%%%%%%%%%%%%%%%%%%%%%%%%%%%%%%%%%%%%%%",
"%%%%%%%%%%%%%%%%%%%%%%%%%%%%%%%%%%%%%%%%%%%%%",
"%%%%%%%%%%%%%%%%%%%%%%%%%%%%%%%%%%%%%%%%%%%%%",
"%%%%%%%%%%%%%%%%%%%%%%%%%%%%%%%%%%%%%%%%%%%%%",
"%%%%%%%%%%%%%%%%%%%%%%%%%%%%%%%%%%%%%%%%%%%%%",
"%%%%%%%%%%%%%%%%%%%%%%%%%%%%%%%%%%%%%%%%%%%%%",
"%%%%%%%%%%%%%%%%%%%%%%%%%%%%%%%%%%%%%%%%%%%%%",
"%%%%%%%%%%%%%%%%%%%%%%%%%%%%%%%%%%%%%%%%%%%%%",
"%%%%%%%%%%%%%%%%%%%%%%%%%%%%%%%%%%%%%%%%%%%%%",
"%%%%%%%%%%%%%%%%%%%%%%%%%%%%%%%%%%%%%%%%%%%%%",
"%%%%%%%%%%%%%%%%%%%%%%%%%%%%%%%%%%%%%%%%%%%%%"
};
