/* XPM */
static char *result[] = {
/* columns rows colors chars-per-pixel */
"45 45 10 1 ",
"  c black",
". c #120D08",
"X c #20150C",
"o c #2F2217",
"O c #46301E",
"+ c #734F31",
"@ c #FF1831",
"# c #CBBFBF",
"$ c #E9E9E9",
"% c None",
/* pixels */
"%%%%%%%%%%%%%%%%%%%%%%%%%%%%%%%%%%%%%%%%%%%%%",
"%%%%%%%%%%%%%%%%%%%%%%%%%%%%%%%%%%%%%%%%%%%%%",
"%%%%%%%%%%%%%%%%%%%%%%%%%%%%%%%%%%%%%%%%%%%%%",
"%%%%%%%%%%%%%%%%%%%%%%%%%%%%%%%%%%%%%%%%%%%%%",
"%%%%%%%%%%%%%%%%%%%%%%%%%%%%%%%%%%%%%. %%%%%%",
"%%%%%%%%%%%%%%%%%%%%%%%%%%%%%%%%%%%%oO. %%%%%",
"%%%%%%%%%%%%%%%%%%%%%%%%%%$$$%%%%%+++O+ %%%%%",
"%%%%%%+%%%%%o++%%%%%%%%%%$$$$$%%%+OOOO+ %%%%%",
"%%%%%%OO++ +OOO++%%%%%%+$$$$@$$%+OOO ..%%%%%%",
"%%%%%%%OOOOOOOOO+ %%%%++#$$$@$$+OO+O %%%%%%%%",
"%%%%%%%OOOOOOOOOO++   +O##$$@$$+OOO+o%%%%%%%%",
"%%%%%%%OOOOOOOOOOOO++++OO##$$$O+OOO.o%%%%%%%%",
"%%%%%%OOOOOOOOOOOOOO+OOOOO###OOO+%O.%%%%%%%%%",
"%%%%%%OOOOOOOOOOOOOO+OOO$X$X$X$X$%%%%%%%%%%%%",
"%%%%%%OOOOOOOOOOOOOOOOO+$X$X$X$X$%%%%%%%%%%%%",
"%%%%%%%OOOOOOOOOOOOOOOOXXXXXXXXXX%%%%%%%%%%%%",
"%%%%%%%oO%%%%%% OOOOOOOXXXXXXXXXX %%%%%%%%%%%",
"%%%%%%%%%%%%%%%%   OOOOXXXXXXXXXX%%%%%%%%%%%%",
"%%%%%%%%%%%%%%%   %  OOXXXXXXXXX %%%%%%%%%%%%",
"%%%%%%%%%%%%%%%oo+   OO$XXXXXXXX%%%%%%%%%%%%%",
"%%%%%%%%%%%%%%%%.++++OO$X$X$X$X$%%%%%%%%%%%%%",
"%%%%%%%%%%%%%%%%%OO+OOO+X$X$X$X$%+O%%%%%%%%%%",
"%%%%%%%%%%%%%%%%% O+O OOOOOOOOOO+O+%%%%%%%%%%",
"%%%%%%%%%%%%%%%%%%.OO  OOOO   %OOOO%%%%%%%%%%",
"%%%%%%%%%%%%%%%%%%%.O %  OO+ %%%O%%%%%%%%%%%%",
"%%%%%%%%%%%%%%%%%%%%%%%%% O+%%%%%%%%%%%%%%%%%",
"%%%%%%%%%%%%%%%%%%%%%%%%%%OO%%%%%%%%%%%%%%%%%",
"%%%%%%%%%%%%%%%%%%%%%%%%%%%O+%%%%%%%%%%%%%%%%",
"%%%%%%%%%%%%%%%%%%%%%%%%%%%%O%%%%%%%%%%%%%%%%",
"%%%%%%%%%%%%%%%%%%%%%%%%%%%%O%%%%%%%%%%%%%%%%",
"%%%%%%%%%%%%%%%%%%%%%%%%%%%%%%%%%%%%%%%%%%%%%",
"%%%%%%%%%%%%%%%%%%%%%%%%%%%%%%%%%%%%%%%%%%%%%",
"%%%%%%%%%%%%%%%%%%%%%%%%%%%%%%%%%%%%%%%%%%%%%",
"%%%%%%%%%%%%%%%%%%%%%%%%%%%%%%%%%%%%%%%%%%%%%",
"%%%%%%%%%%%%%%%%%%%%%%%%%%%%%%%%%%%%%%%%%%%%%",
"%%%%%%%%%%%%%%%%%%%%%%%%%%%%%%%%%%%%%%%%%%%%%",
"%%%%%%%%%%%%%%%%%%%%%%%%%%%%%%%%%%%%%%%%%%%%%",
"%%%%%%%%%%%%%%%%%%%%%%%%%%%%%%%%%%%%%%%%%%%%%",
"%%%%%%%%%%%%%%%%%%%%%%%%%%%%%%%%%%%%%%%%%%%%%",
"%%%%%%%%%%%%%%%%%%%%%%%%%%%%%%%%%%%%%%%%%%%%%",
"%%%%%%%%%%%%%%%%%%%%%%%%%%%%%%%%%%%%%%%%%%%%%",
"%%%%%%%%%%%%%%%%%%%%%%%%%%%%%%%%%%%%%%%%%%%%%",
"%%%%%%%%%%%%%%%%%%%%%%%%%%%%%%%%%%%%%%%%%%%%%",
"%%%%%%%%%%%%%%%%%%%%%%%%%%%%%%%%%%%%%%%%%%%%%",
"%%%%%%%%%%%%%%%%%%%%%%%%%%%%%%%%%%%%%%%%%%%%%"
};
