/* XPM */
static char *result[] = {
/* columns rows colors chars-per-pixel */
"45 45 10 1 ",
"  c black",
". c #120D08",
"X c #20150C",
"o c #2F2217",
"O c #46301E",
"+ c #734F31",
"@ c #FF1831",
"# c #CBBFBF",
"$ c #E9E9E9",
"% c None",
/* pixels */
"%%%%%%%%%%%%%%%%%%%%%%%%%%%%%%%%%%%%%%%%%%%%%",
"%%%%%%%%%%%%%%%%%%%%%%%%%%%%%%%%%%%%%%%%%%%%%",
"%%%%%%%%%%%%%%%%%%%%%%%%%%%%%%%%%%%%%%%%%%%%%",
"%%%%%%%%%%%%%%%%%%%%%%%%%%%%%%%%%%%%%%%%%%%%%",
"%%%%%%%%%%%%%%%%%%%%%%%%%%%%%%%%%%%%%%%%%%%%%",
"%%%%%%%%%%%%%%%%%%%%%%%%%%%%%%%%%%%%%%%%%%%%%",
"%%%%%%%%%%%%%%%%%%%%%%%%%%%%%%%%%%%%%%%%%%%%%",
"%%%%%%%%%%%%%%%%%%%%%%%o..%%%%%%%%%%%%%%%%%%%",
"%%%%%%%%%%%%%%%%%%%%%+++.% o.%%%%%%%%%%%%%%%%",
"%%%%%%%%%%%%%%%%%%%%%OOO  o+.%%%%%%%%%%%%%%%%",
"%%%%%%%%%%%%%%%%%%%%.oOO++OOO%%%%%%%%%%%%%%%%",
"%%%%%%%%%%%%%%%%%%%%% OOOOOOO%%%%%%%%%%%%%%%%",
"%%%%++OOO.%%%%%%%%%%%% OOOOOO+%%%%%%%%%%%%%%%",
"%%%..OOOOOO+  %%%%%%%%%% OOOOO+%%%%%%%%%%%%%%",
"%%% OOOOOOOO++ %%%%%%%%%%%%OOO++%%%%%%%%%%%%%",
"%%%OOOOOOOOOOO+  %%%%%%%    $$$$$%%%%%%%%%%%%",
"%%%%OOOOOOOOOOO++  %%%  ++$$$$$$$$%%%%%%%%%%%",
"%%%%%OOOOOOOOOOOO++   ++O #$$@@@@@$ %%%%%%%%%",
"%%%%%%OOOOOOOOOOOOO++++OOO###$$$%%%%%%%%%%%%%",
"%%%%%%%%%% OOOOOOOOOOOOOO%OOO%%%OOOO%%%%%%%%%",
"%%%%%%%%%%%% OOOOOOOOOOOO%%%%OOO%%%%%%%%%%%%%",
"%%%%%%%%%%%%% OOOOOOOOOO%%%%%%%%%%OO%%%%%%%%%",
"%%%%%%%%%%%%%%  OOOOOOOOOOO%OOOOOO%X%%%%%%%%%",
"%%%%%%%%%%%%%%%%    OOOO$X%X%X%X%X%X%%%%%%%%%",
"%%%%%%%%%%%%%%%%   % OOO%X%X%X%X%X%X%%%%%%%%%",
"%%%%%%%%%%%%%%%%%o+  OOO%X%X%X%X%X%X%%%%%%%%%",
"%%%%%%%%%%%%%%%%%%++++OO%OOOOOOOOOO %%%%%%%%%",
"%%%%%%%%%%%%%%%%%%%O+%%% . OOOO %%%%%%%%%%%%%",
"%%%%%%%%%%%%%%%%%%%%+%%%%% oOO %%%%%%%%%%%%%%",
"%%%%%%%%%%%%%%%%%%%%%%%%%%%.  %%%%%%%%%%%%%%%",
"%%%%%%%%%%%%%%%%%%%%%%%%%%%%%%%%%%%%%%%%%%%%%",
"%%%%%%%%%%%%%%%%%%%%%%%%%%%%%%%%%%%%%%%%%%%%%",
"%%%%%%%%%%%%%%%%%%%%%%%%%%%%%%%%%%%%%%%%%%%%%",
"%%%%%%%%%%%%%%%%%%%%%%%%%%%%%%%%%%%%%%%%%%%%%",
"%%%%%%%%%%%%%%%%%%%%%%%%%%%%%%%%%%%%%%%%%%%%%",
"%%%%%%%%%%%%%%%%%%%%%%%%%%%%%%%%%%%%%%%%%%%%%",
"%%%%%%%%%%%%%%%%%%%%%%%%%%%%%%%%%%%%%%%%%%%%%",
"%%%%%%%%%%%%%%%%%%%%%%%%%%%%%%%%%%%%%%%%%%%%%",
"%%%%%%%%%%%%%%%%%%%%%%%%%%%%%%%%%%%%%%%%%%%%%",
"%%%%%%%%%%%%%%%%%%%%%%%%%%%%%%%%%%%%%%%%%%%%%",
"%%%%%%%%%%%%%%%%%%%%%%%%%%%%%%%%%%%%%%%%%%%%%",
"%%%%%%%%%%%%%%%%%%%%%%%%%%%%%%%%%%%%%%%%%%%%%",
"%%%%%%%%%%%%%%%%%%%%%%%%%%%%%%%%%%%%%%%%%%%%%",
"%%%%%%%%%%%%%%%%%%%%%%%%%%%%%%%%%%%%%%%%%%%%%",
"%%%%%%%%%%%%%%%%%%%%%%%%%%%%%%%%%%%%%%%%%%%%%"
};
