/* XPM */
static char *result[] = {
/* columns rows colors chars-per-pixel */
"45 45 10 1 ",
"  c black",
". c #120D08",
"X c #20150C",
"o c #2F2217",
"O c #46301E",
"+ c #734F31",
"@ c #FF1831",
"# c #CBBFBF",
"$ c #E9E9E9",
"% c None",
/* pixels */
"%%%%%%%%%%%%%%%%%%%%%%%%%%%%%%%%%%%%%%%%%%%%%",
"%%%%%%%%%%%%%%%%%%%%%%%%%%%%%%%%%%%%%%%%%%%%%",
"%%%%%%%%%%%%%%%%%%%%%%%%%%%%%%%%%%%%%%%%%%%%%",
"%%%%%%%%%%%%%%%%%%%%%%%%%%%%%%%%%%%%%%%%%%%%%",
"%%%%%%%%%%%%%%%%%%%%%%%%%%%%%%%%%%%%%%%%%%%%%",
"%%%%%%%%%%%%%%%%%%%%%%%%%%%%%%%%%%%%%%%%%%%%%",
"%%%%%%%%%%%%%%%%%%%%%%%%%%%%%%%%%%%%%%%%%%%%%",
"%%%%%%%%%%%%%%%%%%%%%%%%%%  %%%%%%%%%%%%%%%%%",
"%%%%%%%%%%%%%%%%%%%%%%%% o..   %%%%%%%%%%%%%%",
"%%%%%%%%%%%%%%%%%%%%%%%+++.% o. %%%%%%%%%%%%%",
"%%%%%%%%%%%%%%%%%%%%%%%OOO  o+..%%%%%%%%%%%%%",
"%%%%%%%%%%%%%%%%%%%%%%.oOO++OOO %%%%%%%%%%%%%",
"%%%%%%%%%%%%%%%%%%%%%%% OOOOOOO %%%%%%%%%%%%%",
"%%%%%%%%%OO%%%%%%%%%%%%% OOOOOO+ %%%%%%%%%%%%",
"%%%%%%%%OOOOOO+  %%%%%%%%% OOOOO+%%%%%%%%%%%%",
"%%%%%%%%OOOOOOO++ %%%%%%%%%%%O$$$+%%%%%%%%%%%",
"%%%%%%%OOOOOOOOOO+  %%%%%%%% $$$$$%%%%%%%%%%%",
"%%%%%%%OOOOOOOOOOO++  %%%% +$$$$@$$%%%%%%%%%%",
"%%%%%%%%%OOOOOOOOOOO++   ++ #$$$@$$ %%%%%%%%%",
"%%%%%%%%%%%%OOOOOOOOOO++++OO##$$@$$ %%%%%%%%%",
"%%%%%%%%%%%%%%OOOOOOOOOOOOOOO##$$$OO %%%%%%%%",
"%%%%%%%%%%%%%%% OOOOOOOOOOOOOO###O%%O %%%%%%%",
"%%%%%%%%%%%%%%%% OOOOOOOOOOO%%OOO%%%%%%%%%%%%",
"%%%%%%%%%%%%%%%%%% OOOOOOOOOOOOOOOOOO %%%%%%%",
"%%%%%%%%%%%%%%%%%%%    OOOOX$X$X$X$X$ %%%%%%%",
"%%%%%%%%%%%%%%%%%%%% %% OOOX$X$X$X$X$ %%%%%%%",
"%%%%%%%%%%%%%%%%%%%%+   OOOX$X$X$X$X$ %%%%%%%",
"%%%%%%%%%%%%%%%%%%%%++++OOOOOOOOOOOO  %%%%%%%",
"%%%%%%%%%%%%%%%%%%%%%O+O%% . OOOO   %%%%%%%%%",
"%%%%%%%%%%%%%%%%%%%%%O+O%%%% oOO %%%%%%%%%%%%",
"%%%%%%%%%%%%%%%%%%%%%%OO%%%%o.  %%%%%%%%%%%%%",
"%%%%%%%%%%%%%%%%%%%%%%%O%%%% %%%%%%%%%%%%%%%%",
"%%%%%%%%%%%%%%%%%%%%%%% %%%%%%%%%%%%%%%%%%%%%",
"%%%%%%%%%%%%%%%%%%%%%%%%%%%%%%%%%%%%%%%%%%%%%",
"%%%%%%%%%%%%%%%%%%%%%%%%%%%%%%%%%%%%%%%%%%%%%",
"%%%%%%%%%%%%%%%%%%%%%%%%%%%%%%%%%%%%%%%%%%%%%",
"%%%%%%%%%%%%%%%%%%%%%%%%%%%%%%%%%%%%%%%%%%%%%",
"%%%%%%%%%%%%%%%%%%%%%%%%%%%%%%%%%%%%%%%%%%%%%",
"%%%%%%%%%%%%%%%%%%%%%%%%%%%%%%%%%%%%%%%%%%%%%",
"%%%%%%%%%%%%%%%%%%%%%%%%%%%%%%%%%%%%%%%%%%%%%",
"%%%%%%%%%%%%%%%%%%%%%%%%%%%%%%%%%%%%%%%%%%%%%",
"%%%%%%%%%%%%%%%%%%%%%%%%%%%%%%%%%%%%%%%%%%%%%",
"%%%%%%%%%%%%%%%%%%%%%%%%%%%%%%%%%%%%%%%%%%%%%",
"%%%%%%%%%%%%%%%%%%%%%%%%%%%%%%%%%%%%%%%%%%%%%",
"%%%%%%%%%%%%%%%%%%%%%%%%%%%%%%%%%%%%%%%%%%%%%"
};
