/* XPM */
static char *result[] = {
/* columns rows colors chars-per-pixel */
"45 45 8 1 ",
"  c #030100",
". c #180902",
"X c #422811",
"o c #754D29",
"O c #FF0929",
"+ c #CDC1C1",
"@ c gray92",
"# c None",
/* pixels */
"#############################################",
"#############################################",
"#############################################",
"#############################################",
"#############################################",
"#############################################",
"#############################################",
"#############################################",
"#############################################",
"#############################################",
"#############################################",
"##################ooooo######################",
"################ooooooooo####################",
"###############Xo@@@ooooooo##################",
"##############o#@@@@@XXXooooo################",
"#############oX@@O@@@@XXXoooooo##############",
"############oXX@@O@@@+XXXXXXXXXo#############",
"###########oXXX@@O@@++XXXXXXXXXXo############",
"###########XXXXX@@@++XoooXXXX#XXXX###########",
"###########XXX##X+++oooXXXXX###oXX###########",
"##########oXX##X.XXooX.@XXXX###oXXX##########",
"##########oXX###.@.@.@...XXX###ooXX##########",
"##########XXX####........XX####ooXX##########",
"##########XXXo###........XX##..oXXX##########",
"##########XoXo####@.@.@.@Xo## ooXXX##########",
"##########XXoo ##.oooooooXo###oXXX###########",
"##########XXoXX#. XXXXXXXXoo# .XXX###########",
"########### X ## X.##XXXXX o### X############",
"#################. ##XXXX ..## X ############",
"#####################XXX#####################",
"#####################oXX#####################",
"#####################XX######################",
"####################oX#######################",
"####################XX#######################",
"#############################################",
"#############################################",
"#############################################",
"#############################################",
"#############################################",
"#############################################",
"#############################################",
"#############################################",
"#############################################",
"#############################################",
"#############################################"
};
