/* XPM */
static char *result[] = {
/* columns rows colors chars-per-pixel */
"45 45 8 1 ",
"  c #090200",
". c #271507",
"X c #422811",
"o c #754D29",
"O c #FF0929",
"+ c #CDC1C1",
"@ c gray92",
"# c None",
/* pixels */
"#############################################",
"#############################################",
"#############################################",
"#############################################",
"#############################################",
"#############################################",
"#############################################",
"#############################################",
"#############################################",
"#############################################",
"#############################################",
"#############################################",
"#############################################",
"#############################################",
"#############################################",
"#############################################",
"#############################################",
"##################XXXoooooo##################",
"################XXXXXXXoooooXX###############",
"################XX@@@@@XooooXX###############",
"###############XX@@O@@@+XXooXoX##############",
"###############XXX@@@++XXooXXoXX#############",
"##############XXX@X@X@XXoXXXooXX#############",
"##############XXX @ @ @oXXXXXXXX#############",
"##############XXXXXXXXXXXXXXXXX##############",
"##############XXXXXX##XXXXXXXXX##############",
"###############XXXX  XXXXXXXXX###############",
"###############XXXXX.XXXXXXXX################",
"###############XXXX XXXXXXX##################",
"#################XX..XXXXX###################",
"####################  XXX####################",
"#############################################",
"#############################################",
"#############################################",
"#############################################",
"#############################################",
"#############################################",
"#############################################",
"#############################################",
"#############################################",
"#############################################",
"#############################################",
"#############################################",
"#############################################",
"#############################################"
};
