/* XPM */
static char *result[] = {
/* columns rows colors chars-per-pixel */
"45 45 8 1 ",
"  c #030100",
". c #140600",
"X c #422811",
"o c #754D29",
"O c #FF0929",
"+ c #CDC1C1",
"@ c gray92",
"# c None",
/* pixels */
"#############################################",
"#############################################",
"#############################################",
"#############################################",
"#############################################",
"#############################################",
"#############################################",
"#############################################",
"#############################################",
"###########XXXoo###############XXXX##########",
"##########XXXXXoo############ooXXXXXX########",
"#########XXXXXXXoo#########oooXXXXXXXX#######",
"#########XXXXXXXXXoo#####ooooXXXXXXXXXX######",
"#########XXXXXXXXooooooooooooXXXXXXXXXX######",
"#########XXXXXXo@@@oXoooooooXXXXXXXXXXXX#####",
"########XXXXXXXo@@@ooXooooooXXXXXXXXXXXX#####",
"########XXXXXX#@@@@@ooXooooXXXXXXXXXXXXXX####",
"########XXXXXX@@O@@@@XXoooXXXXXXXXXXXXXXX####",
"########XXXXXX@@O@@@@XoXXXXXXXXXXXXXXXXXX####",
"########XXXXXX@@O@@@+XXXXXXXXXXXXXXXXXXX#####",
"########XXXXXX@@O@@++XXXXXXXXXXXXXXXXXXX#####",
"########XXXXXXX@@@++XoooXXX###XXXXXXXXX######",
"########XXXXXXX+++++XoooXXXX###XXXXXXX#######",
"########XXXXXXXX+++oooXXXXXoXoXXXXXXX########",
"########XXXXXX#.XXooX.@XXXXoXXXXXXXXX########",
"#########XXX###.@.@.@...XXXXo##XXXXX#########",
"########### #oo.@.@.@...XXXXo###XXX##########",
"##########..oXXX........XXXXX. #XX###########",
"########### XX#X........XX#.X o X############",
"############ ##X........X## XXX##############",
"###############@........X###XX###############",
"###############@o@.....X#####################",
"#################@o@o@o######################",
"#############################################",
"#############################################",
"#############################################",
"#############################################",
"#############################################",
"#############################################",
"#############################################",
"#############################################",
"#############################################",
"#############################################",
"#############################################",
"#############################################"
};
