/* XPM */
static char *result[] = {
/* columns rows colors chars-per-pixel */
"45 45 8 1 ",
"  c #030100",
". c #160801",
"X c #422811",
"o c #754D29",
"O c #FF0929",
"+ c #CDC1C1",
"@ c gray92",
"# c None",
/* pixels */
"#############################################",
"#############################################",
"#############################################",
"#############################################",
"#############################################",
"###################################oo.#######",
"########## o#######################o  #######",
"######## XooX#####################oX XXX.####",
"########Xooooo###################ooXXXX  ####",
"#######XXXXoooo##################ooXXXXXX####",
"#######. XXXooo#################oooXXXXX#####",
"#######  #XXXooo################ooXXXXXXX####",
"####### ###XXXooo##############oooXXXXXX .###",
"########## XXXXoo#############oooXXXXXX#X ###",
"#########. XXXXXoo###########oooXXXXX########",
"#########. #XXXXXoo#########oooXXXX##########",
"##############XXXXXoo#####ooooXXXX###########",
"################XXooooooooooooXXX############",
"################o@@@oXoooooooXXX#############",
"################o@@@ooXooooooXX##############",
"################@@@@@ooXooooXXX##############",
"###############@@O@@@@XXoooXXX###############",
"###############@@O@@@@XoXXXXXX###############",
"###############@@O@@@+XXXXXXX################",
"###############@@O@@++XXXXXXX################",
"###############X@@@++XoooXXX#################",
"###############X+++++XoooXXXX###oo###########",
"###############XX+++oooXXXXXoXoXX############",
"################.XXooX.@XXXXoXXX#############",
"################.@.@.@...XXXXo###############",
"############ #oo.@.@.@...XXXXo###############",
"###########..oXXX........XXXXX. #############",
"############ XX#X... .. .XX#.X o ############",
"############# ##X. ......X## XXX#############",
"################@.... ...X###XX##############",
"################@o@.....X####################",
"##################@o@o@o#####################",
"#############################################",
"#############################################",
"#############################################",
"#############################################",
"#############################################",
"#############################################",
"#############################################",
"#############################################"
};
