/* XPM */
static char *result[] = {
/* columns rows colors chars-per-pixel */
"45 45 8 1 ",
"  c #030100",
". c #170801",
"X c #422811",
"o c #754D29",
"O c #FF0929",
"+ c #CDC1C1",
"@ c gray92",
"# c None",
/* pixels */
"#############################################",
"#############################################",
"#############################################",
"#############################################",
"#############################################",
"#############################################",
"#############################################",
"################################oo.##########",
"####### o#######################o  ##########",
"##### XooX#####################oX XXX.#######",
"#####Xooooo###################ooXXXX  #######",
"####XXXXoooo##################ooXXXXXX#######",
"####. XXXoooo################oooXXXXX########",
"####  #XXXoooo##############oooXXXXXXX#######",
"#### ###XXXXoo#############oooXXXXXXX .######",
"####### XXXXXoo###########oooXXXXXXX#X ######",
"######. XXXXXXoo#########oooXXXXXX###########",
"######. #X#XXXXXoo#####ooooXXXX##############",
"#############XXooooooooooooXXX###############",
"#############o@@@oXoooooooXXX################",
"#############o@@@ooXooooooXX#################",
"#############@@@@@ooXooooXXX#################",
"############@@O@@@@XXoooXXX##################",
"############@@O@@@@XoXXXXXX##################",
"############@@O@@@+XXXXXXX###################",
"############@@O@@++XXXXXXX###################",
"############X@@@++XoooXXX####################",
"############X+++++XoooXXX####################",
"############XX+++oooXXXXXX###################",
"#############.XXooX.@XXXXoXo#################",
"#############.@.@.@...XXXoXXXoo##############",
"############o.@.@.@...X#XXo##################",
"######### #oXX...... .X#XXo##################",
"########..oXX#........X#XXX. ################",
"######### XX##........X##.X o ###############",
"########## ####@.@.@.@### XXX################",
"################oXoXoX####XX#################",
"#############################################",
"#############################################",
"#############################################",
"#############################################",
"#############################################",
"#############################################",
"#############################################",
"#############################################"
};
