/* XPM */
static char *result[] = {
/* columns rows colors chars-per-pixel */
"25 40 193 2 ",
"   c #240B17",
".  c #250B18",
"X  c #29131B",
"o  c #30121E",
"O  c #2B1F24",
"+  c #351722",
"@  c #351624",
"#  c #192729",
"$  c #282E2C",
"%  c #2E342D",
"&  c #3F2E31",
"*  c #333A35",
"=  c #373934",
"-  c #343C39",
";  c #401C1F",
":  c #552A1B",
">  c #411F2A",
",  c #421F2B",
"<  c #41202B",
"1  c #46222C",
"2  c #45232F",
"3  c #4F272D",
"4  c #532A2D",
"5  c #552E2D",
"6  c #53302D",
"7  c #5B352E",
"8  c #522E32",
"9  c #5E3734",
"0  c #543A39",
"q  c #62322D",
"w  c #61312E",
"e  c #62312E",
"r  c #60322E",
"t  c #61322E",
"y  c #6D3E2A",
"u  c #743D28",
"i  c #643430",
"p  c #633C35",
"a  c #693930",
"s  c #693D33",
"d  c #6E3E31",
"f  c #6D3E32",
"g  c #6D3D38",
"h  c #4E473C",
"j  c #684038",
"k  c #6B423B",
"l  c #734132",
"z  c #774333",
"x  c #734936",
"c  c #7C4934",
"v  c #7F4C35",
"b  c #70463B",
"n  c #784D3E",
"m  c #2A494A",
"M  c #39605F",
"N  c #245E62",
"B  c #245E63",
"V  c #2E6866",
"C  c #2B6869",
"Z  c #2C6969",
"A  c #327371",
"S  c #56574A",
"D  c #565849",
"F  c #575A49",
"G  c #57584A",
"H  c #575A4B",
"J  c #674840",
"K  c #6D4E47",
"L  c #6C5247",
"P  c #7D5B45",
"I  c #77534A",
"U  c #785D4D",
"Y  c #656355",
"T  c #6C6657",
"R  c #477C72",
"E  c #547E74",
"W  c #617163",
"Q  c #707662",
"!  c #7D7F71",
"~  c #864732",
"^  c #834E35",
"/  c #834F35",
"(  c #814E3E",
")  c #865036",
"_  c #8A5437",
"`  c #8B5537",
"'  c #8C5637",
"]  c #8D5737",
"[  c #8C5738",
"{  c #8D5739",
"}  c #90513A",
"|  c #835342",
" . c #835442",
".. c #895943",
"X. c #8E5D44",
"o. c #89574C",
"O. c #9A5A40",
"+. c #A75A42",
"@. c #A85A42",
"#. c #956349",
"$. c #956D4F",
"%. c #9E6A4A",
"&. c #9D6A4D",
"*. c #906250",
"=. c #906452",
"-. c #A46F51",
";. c #B66B50",
":. c #BC6D50",
">. c #AB7651",
",. c #AE795D",
"<. c #B57551",
"1. c #B27954",
"2. c #B77E54",
"3. c #BE7A5A",
"4. c #8B7A65",
"5. c #977163",
"6. c #9C7866",
"7. c #C67A59",
"8. c #3D8079",
"9. c #3D827B",
"0. c #3E837D",
"q. c #41827A",
"w. c #40847C",
"e. c #42897F",
"r. c #578377",
"t. c #BC8256",
"y. c #BF8456",
"u. c #BF8457",
"i. c #BE8458",
"p. c #BD865B",
"a. c #9E886C",
"s. c #8F8F7A",
"d. c #9F8F7B",
"f. c #A9816C",
"g. c #AC9167",
"h. c #BF8D71",
"j. c #94A27C",
"k. c #C58263",
"l. c #C68566",
"z. c #CD8A68",
"x. c #D68D69",
"c. c #D78E6A",
"v. c #D6926E",
"b. c #DA926C",
"n. c #D29574",
"m. c #DA9470",
"M. c #D99C7B",
"N. c #E09974",
"B. c #E39D76",
"V. c #E59E78",
"C. c #C4A36B",
"Z. c #D1B977",
"A. c #D8BF7A",
"S. c #E4A078",
"D. c #4D9584",
"F. c #4E9786",
"G. c #4D9887",
"H. c #519C88",
"J. c #519C89",
"K. c #54A08B",
"L. c #56A38D",
"P. c #58A68E",
"I. c #5EA98F",
"U. c #5FAF93",
"Y. c #6BA689",
"T. c #60AE92",
"R. c #66B697",
"E. c #66B797",
"W. c #6BBD9B",
"Q. c #6CBF9B",
"!. c #77BD97",
"~. c #6DC29D",
"^. c #6EC29D",
"/. c #6EC39D",
"(. c #6EC29E",
"). c #6FC49F",
"_. c #8DAC85",
"`. c #84BC96",
"'. c #EBA981",
"]. c #EEB189",
"[. c #F1B990",
"{. c #89C39D",
"}. c #8AC69E",
"|. c #EFC39B",
" X c #F5C096",
".X c #F8C69B",
"XX c #FBCDA0",
"oX c #FED0A4",
"OX c #FFD0A4",
"+X c #FFD2A5",
"@X c #FFD3A5",
"#X c #FFD3A7",
"$X c None",
/* pixels */
"$X$X$X$X$X$X$X$X$X$X$X$X$X$X$X$X$X$X$X$X$X$X$X$X$X",
"$X$X$X] ] ] $X$X] ] $X$X$X$X$X$X$X$X$X$X$X$X$X$X$X",
"$X$X$X' ' ' v f ` ' [ ^ e e e $X$X$X$X$Xe $X$X$X$X",
"$X$X$X' ' ' / c _ ' ' ) z i r q $X$X$X$X$X$X$X$X$X",
"$X$X$X] ` / / ' ' ' ' ' ' z d a r 3 1 , $X$X$X$X$X",
"$X$X$X$X] s l ) ) _ _ ) ) _ ' / a a 5 1 1 $X$X$X$X",
"$X$X$X$X$Xt i i i / c i i / { ' ' _ l r w $X$X$X$X",
"$X$X$X$X$X$Xl.v.v.m.v.v.v.m.1.' _ d i 5 1 $X$X$X$X",
"$X$X$X$X$X; : ) N.X.y y y y &.1.d c d r 4 $X$X$X$X",
"$X$X$X$X$X$Xu O.3.} ~ } } } 3.k.r d r 3 4 $X$X$X$X",
"$X$X$X$X$X$X$X} +.@.:.7.} } 3.z.} a n *.5.$X$X$X$X",
"$X$X$X$X$X$X$X( +.@.k.n.n n ,.m.7.g ,.[.+X$X$X$X$X",
"! Y G $X$X$X$X[.;.;.M.+X+X+X[.N.7.g f.|.@X$X$X$X$X",
"H S S D $X$X$X+XoXoXoX+X+X+X+X[.7.7.( 2 $X$X$X$X$X",
"$XF h - # % a.+X+X].'.].+X+X+X XN.N.l.$X$X$X$X$X$X",
"$X$X* $ $ O 0 6.XX.X X.X+X+X X'.V.$X$X$X$X$X$X$X$X",
"$X$X$X$ O X > J 4.h.n.n.n.d.s.s.s.r.U.U.$X$X$X$X$X",
"$X$X$X= - & p n & p n I I M A 9.9.D.L.P.J.U.$X$X$X",
"$X$X$X$X9.T ..X.n & m V V w.e.9.w.I.K.K.^.^.).$X$X",
"$X$X$X9.9.T &.u.u.| Q Q.^.^.L.w.9.9.P.^.^.^.^./.$X",
"$X$X$X9.9.I.j.u.u.t.*.Y ^.^.Q.T.9.9.P.^.^.^.^./.$X",
"$X$Xq.9.9.T.!._.p.u.2.&.Y Y.^.T.9.9.P.^.^.^.^.^.(.",
"$X0.9.9.9.T.^.!._.g.u.2.&.Q W W 9.9.G.~.^.^.^.^.^.",
"$XZ C C C P.^.^.^._.g.u.u.&.| L W R $X$XQ.I.L.L.L.",
"$XB N N N D.R.^.^.^._.g.>.>.#.n s $X$X$XW.J.F.F.F.",
"$Xr.E E E q.H.E.E.E.E.Y.U U U J . + @ $X$X}.{.{.`.",
"$X<.:.:.;.$X$X8.w.w.w.8.8.8.8.M . . + 2 $X+X+X XV.",
"$XB.N.v.:.x.=.h Z.A.C.$.O O & & . . . K OXoX+XoXXX",
"$XB.c.7.c.N.-.8 P $.&...j X...b $X  . k ].XX+X+X+X",
"$X$Xb.c.V.B.o.8 8 n #.-.-.2.1.<.$X$X$X$X$XOX+X@X$X",
"$X$X$XS.S.$X$Xj j k #.u.u.u.u.i.$X$X$X$X$X$X#X$X$X",
"$X$X$X$X$X$X$X| | p | 1.u.u.u.u.y.$X$X$X$X$X$X$X$X",
"$X$X$X$X$X$X$X| | p k X.u.u.u.u.y.$X$X$X$X$X$X$X$X",
"$X$X$X$X$X$X$X| | | k k u.u.u.u.t.X.$X$X$X$X$X$X$X",
"$X$X$X$X$X$X$X$X .| k 9 $Xu.u.u.u.2.$X$X$X$X$X$X$X",
"$X$X$X$X$X$X$X$X .| n b $X$X<.u.t.&.$X$X$X$X$X$X$X",
"$X$X$X$X$X$X$X$X6 5 9 $X$X$X$X%.x 7 $X$X$X$X$X$X$X",
"$X$X$X$X$X$X$X$Xo + @ $X$X$X$X$X+ + $X$X$X$X$X$X$X",
"$X$X$X$X$X$X$X$X< > ; $X$X$X$X$X8 8 $X$X$X$X$X$X$X",
"$X$X$X$X$X$X$X> > > ; $X$X$X$X$X8 8 $X$X$X$X$X$X$X"
};
