/* XPM */
static char *result[] = {
/* columns rows colors chars-per-pixel */
"25 40 190 2 ",
"   c #250B17",
".  c #250B18",
"X  c #290F1A",
"o  c #30121E",
"O  c #2E1220",
"+  c #341721",
"@  c #351723",
"#  c #3A1E26",
"$  c #19272A",
"%  c #2F2827",
"&  c #282D2C",
"*  c #2E322E",
"=  c #2D2D32",
"-  c #56301F",
";  c #411F2C",
":  c #42202A",
">  c #41202C",
",  c #4B242D",
"<  c #4D252C",
"1  c #4E262D",
"2  c #402F2C",
"3  c #542C2D",
"4  c #572F2D",
"5  c #5A3027",
"6  c #5F312E",
"7  c #522E31",
"8  c #40393C",
"9  c #5D3330",
"0  c #673727",
"q  c #683927",
"w  c #61312E",
"e  c #61322E",
"r  c #66352F",
"t  c #743A28",
"y  c #663630",
"u  c #603936",
"i  c #613936",
"p  c #6E3E31",
"a  c #693F38",
"s  c #3A4137",
"d  c #3E4037",
"f  c #7B422D",
"g  c #6F4337",
"h  c #6B423A",
"j  c #6E483F",
"k  c #754133",
"l  c #794634",
"z  c #7B4634",
"x  c #734B3A",
"c  c #74493C",
"v  c #794D3B",
"b  c #1E3D42",
"n  c #1F545C",
"m  c #3D5B5B",
"M  c #245E62",
"N  c #286366",
"B  c #2C696A",
"V  c #397C76",
"C  c #4E4E42",
"Z  c #56574A",
"A  c #57574A",
"S  c #57594A",
"D  c #5D5E4F",
"F  c #654E46",
"G  c #764B40",
"H  c #7B4F40",
"J  c #784F48",
"K  c #79554F",
"L  c #6C6354",
"P  c #666C5D",
"I  c #4B6A64",
"U  c #5D7465",
"Y  c #537469",
"T  c #437E75",
"R  c #457D75",
"E  c #547E74",
"W  c #657965",
"Q  c #844F35",
"!  c #8A4D36",
"~  c #875236",
"^  c #8B5537",
"/  c #8B5737",
"(  c #8C5637",
")  c #8D5737",
"_  c #8C5638",
"`  c #88523D",
"'  c #815442",
"]  c #845442",
"[  c #895448",
"{  c #905F47",
"}  c #825F55",
"|  c #A55741",
" . c #A85A42",
".. c #AB5E47",
"X. c #9A644A",
"o. c #9B664B",
"O. c #9E6A4A",
"+. c #9C684C",
"@. c #9D694C",
"#. c #8E6950",
"$. c #847156",
"%. c #957156",
"&. c #A46044",
"*. c #A1694D",
"=. c #A36B4E",
"-. c #BB6C4F",
";. c #B76E52",
":. c #AC7651",
">. c #AB7254",
",. c #A77A53",
"<. c #B17752",
"1. c #B67257",
"2. c #B47C53",
"3. c #B97F55",
"4. c #C67959",
"5. c #3D827B",
"6. c #3D837B",
"7. c #3D837C",
"8. c #468179",
"9. c #40857C",
"0. c #498278",
"q. c #438A7F",
"w. c #7B806E",
"e. c #A98257",
"r. c #BD8356",
"t. c #BF8456",
"y. c #BF8457",
"u. c #BF8557",
"i. c #BF8458",
"p. c #9B947C",
"a. c #B28C62",
"s. c #B48C62",
"d. c #AE9D6D",
"f. c #AD8D75",
"g. c #B38C76",
"h. c #A89072",
"j. c #A79379",
"k. c #AA977D",
"l. c #97A17A",
"z. c #B9B078",
"x. c #BFB57A",
"c. c #C8805F",
"v. c #C18364",
"b. c #C78867",
"n. c #CA8966",
"m. c #D68D69",
"M. c #D88F6A",
"N. c #DA926C",
"B. c #DD946D",
"V. c #D29474",
"C. c #E39C75",
"Z. c #E39C76",
"A. c #E49F77",
"S. c #E4A078",
"D. c #489083",
"F. c #4E9786",
"G. c #519C89",
"H. c #539F8A",
"J. c #629D85",
"K. c #54A28C",
"L. c #57A58E",
"P. c #5CA78E",
"I. c #6FAC8C",
"U. c #60AF93",
"Y. c #69BA98",
"T. c #6BBD9B",
"R. c #7EBB95",
"E. c #6DC09C",
"W. c #6EC29D",
"Q. c #6EC39D",
"!. c #6EC29E",
"~. c #8FA983",
"^. c #BAA287",
"/. c #D2A180",
"(. c #E0A682",
"). c #EEB188",
"_. c #F1B88E",
"`. c #ECB790",
"'. c #F0BE95",
"]. c #89C39D",
"[. c #8AC69E",
"{. c #F5C096",
"}. c #F7C69B",
"|. c #FCCCA0",
" X c #FDCFA3",
".X c #FECEA2",
"XX c #FFD2A5",
"oX c #FFD3A5",
"OX c #FFD3A7",
"+X c None",
/* pixels */
"+X+X+X+X+X+X+X+X+X+X+X+X+X+X+X+X+X+X+X+X+X+X+X+X+X",
"+X+X+X+X+X+X+X+X+X+X+X+X+X+X+X+X+X+X+X+X+X+X+X+X+X",
"+X+X+X) ) ) l r ) ) ) +X+X+X+X+X+X+X+X+Xr +X+X+X+X",
"+X+X+X( ( ( Q z ^ ( ( ) +X+X+X+X+X+X+X+X6 +X+X+X+X",
"+X+X+X/ ( Q Q ( ( ( ( ( ( k y e w +X+X< 3 +X+X+X+X",
"+X+X+X+X_ p k ( ( ( ( ( ( ( z y e 1 ; ; > +X+X+X+X",
"+X+X+X+X_ p k ^ ^ ( ^ ^ ^ ( ( Q e e 1 ; > +X+X+X+X",
"+X+X+X+X+X~ z y y Q z y y Q ( ^ Q Q p 9 6 +X+X+X+X",
"+X+X+X+X+X+X1.v.v.n.b.v.v.n.>.( ^ k y 4 , +X+X+X+X",
"+X+X+X+X+X+Xq X.Z.*.` ` ` ` =.>.k z p 9 3 +X+X+X+X",
"+X+X+X+X+X+X5 ! c.! t f f f <.v.e k y 7 3 +X+X+X+X",
"+X+X+X+X+X+X+X&. . .-.4.&.&.c.b.z y a G K +X+X+X+X",
"+X+X+X+X+X+X+X0 |  .c.b.- - =.B.4.k >.).XX+X+X+X+X",
"w.P A +X+X+X+X`... .V. X X X_.B.4.9 f.XXXX+X+X+X+X",
"D D Z S +X+X+X X'.'.}.XXXXXX|.).4.;.[ J +X+X+X+X+X",
"+XS C d $ * h.XXXX_.)._.XXXXXX{.B.B.1.+X+X+X+X+X+X",
"+X+Xs & & % F g. X{._.{.XXXX}.).Z.S.+X+X+X+X+X+X+X",
"+X+X+X& % X # j f./.(.(.(.^.k.k.j.+X+X+X+X+X+X+X+X",
"+X+X+X2 = # 9 G & g ` [ [ m B 5.5.D.L.P.D.D.H.+X+X",
"+X+X+X+X6.L ] ' h = b n n V 9.5.9.U.H.F.W.W.W.Q.+X",
"+X+X+X6.5.L +.3.3.H W Y.Y.Y.H.5.5.9.L.E.W.W.W.Q.+X",
"+X+X7.5.5.J.l.y.y.<.#.W W.W.Y.L.5.5.L.W.W.W.W.W.!.",
"+X0.5.5.5.U.R.l.y.y.<.#.P I.U.D.5.5.L.W.W.W.W.W.W.",
"+XN B B B P.W.R.l.s.y.2.{ w.U I 5.5.G.Q.E.P.L.L.L.",
"+XN M M M F.Y.W.W.l.a.y.y.{ G F Y T +X+XT.G.F.F.F.",
"+X0.E E E 8.K.W.W.W.~.a.2.2.+.' c +X+X+X+X[.].].R.",
"+X1.-.-.-.+X+XE.E.E.E.I.' ' ' a . # +X+X+XXXXX{.Z.",
"+XC.Z.M.-.m.p.q.q.q.q.9.R R R m . X @ } XX XXX X|.",
"+XC.M.c.M.Z.%.C z.x.d.$.= = 8 8 . . X j ).|.XXXXXX",
"+X+XN.M.Z.A.J 7 %.e.,.{ 9 v v i +X  . 2 +X.XXXoX+X",
"+X+X+XS.S.+X+X7 7 G { +.+.3.:.@.+X+X. +X+X+XOX+X+X",
"+X+X+X+X+X+X+Xu u j X.y.y.y.y.i.+X+X+X+X+X+X+X+X+X",
"+X+X+X+X+X+X+X] ] u ] 3.y.y.y.y.t.+X+X+X+X+X+X+X+X",
"+X+X+X+X+X+X+X] ] u h { y.y.y.y.t.+X+X+X+X+X+X+X+X",
"+X+X+X+X+X+X+X] ] H h G y.y.y.y.y.u.+X+X+X+X+X+X+X",
"+X+X+X+X+X+X+X+X] ] h i +Xo.:.y.r.*.+X+X+X+X+X+X+X",
"+X+X+X+X+X+X+X+X3 4 5 +X+X+X+XO.x 9 +X+X+X+X+X+X+X",
"+X+X+X+X+X+X+X+Xo + O +X+X+X+X+X+ + +X+X+X+X+X+X+X",
"+X+X+X+X+X+X+X+X; ; : +X+X+X+X+X7 7 +X+X+X+X+X+X+X",
"+X+X+X+X+X+X+X; ; ; : +X+X+X+X+X7 7 +X+X+X+X+X+X+X"
};
