/* XPM */
static char *result[] = {
/* columns rows colors chars-per-pixel */
"25 40 190 2 ",
"   c #250B17",
".  c #250B18",
"X  c #260C19",
"o  c #31131F",
"O  c #341620",
"+  c #351723",
"@  c #3B1B26",
"#  c #19272A",
"$  c #282D2C",
"%  c #322729",
"&  c #2E322E",
"*  c #2C2E33",
"=  c #373730",
"-  c #56301F",
";  c #401E2A",
":  c #411E2B",
">  c #41202B",
",  c #42202B",
"<  c #41202C",
"1  c #4B242D",
"2  c #50272D",
"3  c #532B2D",
"4  c #53302D",
"5  c #53312E",
"6  c #5A322F",
"7  c #5C302E",
"8  c #5D302E",
"9  c #522E32",
"0  c #40393C",
"q  c #5E3532",
"w  c #643422",
"e  c #673727",
"r  c #62332E",
"t  c #743A28",
"y  c #613733",
"u  c #663630",
"i  c #673B32",
"p  c #603936",
"a  c #6E3E31",
"s  c #3A4137",
"d  c #3E4037",
"f  c #7B422D",
"g  c #6A4139",
"h  c #754133",
"j  c #7B4635",
"k  c #704538",
"l  c #74493C",
"z  c #7A4E3E",
"x  c #1E3D42",
"c  c #1F545C",
"v  c #1F555D",
"b  c #1F575E",
"n  c #3D5B5B",
"m  c #306D6C",
"M  c #32716E",
"N  c #32726E",
"B  c #4E4E42",
"V  c #56574A",
"C  c #57574A",
"Z  c #57594A",
"A  c #5D5E4F",
"S  c #654E46",
"D  c #6B4941",
"F  c #684943",
"G  c #754B40",
"H  c #724F4B",
"J  c #79554F",
"K  c #6C6354",
"L  c #66675A",
"P  c #537469",
"I  c #437E75",
"U  c #457D75",
"Y  c #677462",
"T  c #814D35",
"R  c #854E35",
"E  c #885136",
"W  c #8B5537",
"Q  c #8C5637",
"!  c #8D5737",
"~  c #8C5638",
"^  c #8C5738",
"/  c #8D5738",
"(  c #8D5739",
")  c #88523D",
"_  c #835442",
"`  c #8A5547",
"'  c #88544A",
"]  c #905F47",
"[  c #A85A42",
"{  c #9A644A",
"}  c #9B664B",
"|  c #9E6A4A",
" . c #9D694C",
".. c #8A6755",
"X. c #8E6950",
"o. c #936050",
"O. c #9F6955",
"+. c #847156",
"@. c #937150",
"#. c #A46044",
"$. c #A36A4D",
"%. c #AA6D53",
"&. c #A96D56",
"*. c #BA6D51",
"=. c #AA7451",
"-. c #AF7851",
";. c #AF7058",
":. c #AF7558",
">. c #B57C54",
",. c #C57856",
"<. c #C77B5B",
"1. c #3D827B",
"2. c #3D837B",
"3. c #3F827A",
"4. c #3C827C",
"5. c #3F837C",
"6. c #40857C",
"7. c #438A7F",
"8. c #63816D",
"9. c #7B806E",
"0. c #A98257",
"q. c #B98055",
"w. c #BF8456",
"e. c #BF8457",
"r. c #BF8557",
"t. c #BF8458",
"y. c #959975",
"u. c #B38C62",
"i. c #AE9D6D",
"p. c #AF8873",
"a. c #AF8F76",
"s. c #A89072",
"d. c #A89379",
"f. c #95A57E",
"g. c #B9B078",
"h. c #BFB57A",
"j. c #C78060",
"k. c #C18364",
"l. c #C78765",
"z. c #CF8462",
"x. c #C98866",
"c. c #C68B68",
"v. c #D38966",
"b. c #D48A67",
"n. c #D88F6A",
"m. c #DA916C",
"M. c #DB926D",
"N. c #D29474",
"B. c #DE9570",
"V. c #E29C76",
"C. c #E49E78",
"Z. c #E49F78",
"A. c #D4A27E",
"S. c #E6A37B",
"D. c #448C80",
"F. c #499183",
"G. c #4C9485",
"H. c #509A87",
"J. c #519C89",
"K. c #539E8A",
"L. c #629D85",
"P. c #59A68E",
"I. c #5FAD92",
"U. c #6CAF8F",
"Y. c #72A888",
"T. c #62B194",
"R. c #69BB99",
"E. c #6ABD9B",
"W. c #7ABA94",
"Q. c #6DC09C",
"!. c #6EC29D",
"~. c #6EC39E",
"^. c #72C29D",
"/. c #AB9A81",
"(. c #BAA287",
"). c #E0A682",
"_. c #EEB087",
"`. c #EFB48B",
"'. c #F0B88F",
"]. c #EDBF95",
"[. c #F5C096",
"{. c #F7C59A",
"}. c #FDCFA2",
"|. c #EED0A4",
" X c #FED1A4",
".X c #FFD2A4",
"XX c #FFD2A5",
"oX c #FFD3A5",
"OX c #FFD3A7",
"+X c None",
/* pixels */
"+X+X+X+X+X+X+X+X+X+X+X+X+X+X+X+X+X+X+X+X+X+X+X+X+X",
"+X+X+X+X+X+X+X+X+X+X+X+X+X+X+X+X+X+X+X+X+X+X+X+X+X",
"+X+X+X! ! ! +X+X( ! +X+X+X+X+X+X+X+X+X+X+X+X+X+X+X",
"+X+X+XQ Q Q T i ~ Q ^ +X+X+X+X+X+X+X+X+X+X+X+X+X+X",
"+X+X+XQ Q Q T h W Q Q R a a u y +X+X+X+Xi +X+X+X+X",
"+X+X+X/ ~ E E Q Q Q Q Q Q Q j u r 2 ; , +X+X+X+X+X",
"+X+X+X+X~ a h W W Q W W W Q Q T r r 2 ; < +X+X+X+X",
"+X+X+X+X+X6 r u u T j u u R Q W E E a 7 8 +X+X+X+X",
"+X+X+X+X+X+X&.k.k.x.l.k.k.x.=.Q W h u 7 1 +X+X+X+X",
"+X+X+X+X+X+Xw { V.$.) ) ) ) $.=.h j a 7 3 +X+X+X+X",
"+X+X+X+X+X+Xw E j.R t f f f :.k.r h u 2 3 +X+X+X+X",
"+X+X+X+X+X+X+X#.[ [ *.<.#.#.j.x.j u g G J +X+X+X+X",
"+X+X+X+X+X+X+Xe [ [ j.c.- - $.B.,.h :.`. X+X+X+X+X",
"9.L C +X+X+X+X'.[ [ N.}.}.}.`.B.,.q p.XX X+X+X+X+X",
"A A V Z +X+X+X}.].].{.XXXXXX}.`.<.*.' H +X+X+X+X+X",
"+XZ B d # & s.XXXX'._.'.XXXXXX[.M.M.;.+X+X+X+X+X+X",
"+X+Xs $ $ % S a.}.[.'.[.XXXX{._.C.S.+X+X+X+X+X+X+X",
"+X+X+X$ % X ; D a.A.).).).(./.d.d.+X+X+X+X+X+X+X+X",
"+X+X+X= * % q G $ k ) ` ` n m 1.1.D.P.P.F.+X+X+X+X",
"+X+X+X+X2.K _ _ g % x c c 1.6.1.6.T.K.H.!.!.+X+X+X",
"+X+X+X2.1.K  .q.q.z 8.R.R.R.K.1.1.6.P.Q.!.!.Q.~.+X",
"+X+X+X1.1.L.y.e.e.-.X.Y !.!.R.P.1.1.P.!.!.!.!.~.+X",
"+X+X4.1.1.I.W.f.e.e.-.X.Y U.!.T.1.1.P.!.!.!.!.!.~.",
"+X5.1.1.1.I.!.W.f.u.e.>.] 9.8.8.1.1.J.~.!.!.!.!.!.",
"+XN M M M P.!.!.!.f.u.e.e.] z S P I +X+XQ.T.I.I.I.",
"+Xb v v v H.R.!.!.!.f.u.>.>. ._ l +X+X+XE.G.D.D.D.",
"+X5.3.3.3.3.K.Q.Q.Q.!.Y._ _ _ g X ; +X+X+X^.^.^.^.",
"+X;.%.%.%.+X7.D.D.D.D.6.U U U n X X + : +X|.|.].A.",
"+Xm.M.v.*.b...B g.h.i.+.* * 0 0 X X X F oX}.XX}.{.",
"+XZ.M.z.v.B.O.5 @.0.=.] q z z y +X  X D '.}.XXXXXX",
"+X+Xn.z.V.C.o.9 9 G ]  . .>.-. .+X+X. i S. XXXXXOX",
"+X+X+XC.C.+X+Xp p k { e.e.e.e.t.+X+X+X+X+X.XoX+X+X",
"+X+X+X+X+X+X+X_ _ p _ q.e.e.e.e.w.+X+X+X+X+X+X+X+X",
"+X+X+X+X+X+X+X_ _ p g ] e.e.e.e.w.+X+X+X+X+X+X+X+X",
"+X+X+X+X+X+X+X_ _ z g G e.e.e.e.e.r.+X+X+X+X+X+X+X",
"+X+X+X+X+X+X+X+X_ _ g y +X} =.e.e. .+X+X+X+X+X+X+X",
"+X+X+X+X+X+X+X+X4 5 6 +X+X+X+X| k 7 +X+X+X+X+X+X+X",
"+X+X+X+X+X+X+X+XO o @ +X+X+X+X+XO O +X+X+X+X+X+X+X",
"+X+X+X+X+X+X+X+X> ; @ +X+X+X+X+X9 9 +X+X+X+X+X+X+X",
"+X+X+X+X+X+X+X; ; ; @ +X+X+X+X+X9 9 +X+X+X+X+X+X+X"
};
