/* XPM */
static char *result[] = {
/* columns rows colors chars-per-pixel */
"25 40 195 2 ",
"   c #250B17",
".  c #250B18",
"X  c #260B18",
"o  c #2D131D",
"O  c #341620",
"+  c #351723",
"@  c #272E2B",
"#  c #232C2C",
"$  c #2E2B2E",
"%  c #312627",
"&  c #2C3035",
"*  c #373730",
"=  c #3F3B3A",
"-  c #56301F",
";  c #401E2A",
":  c #411E2B",
">  c #41202B",
",  c #42202A",
"<  c #42202B",
"1  c #46222C",
"2  c #4E262D",
"3  c #532A2D",
"4  c #532C2D",
"5  c #5A2E2E",
"6  c #5A322F",
"7  c #5D302E",
"8  c #5C312E",
"9  c #522F31",
"0  c #5E3532",
"q  c #5E3636",
"w  c #643422",
"e  c #673727",
"r  c #60322E",
"t  c #62332E",
"y  c #743A28",
"u  c #633732",
"i  c #663630",
"p  c #603936",
"a  c #6F3F31",
"s  c #6A3C35",
"d  c #6B3F34",
"f  c #3A4137",
"g  c #7B422D",
"h  c #6A4239",
"j  c #6F4439",
"k  c #754133",
"l  c #784734",
"z  c #754B3F",
"x  c #7B4A3B",
"c  c #1E3D42",
"v  c #1F545C",
"b  c #1F575E",
"n  c #3D5B5B",
"m  c #31706D",
"M  c #32726E",
"N  c #397C76",
"B  c #4E4E42",
"V  c #56574A",
"C  c #57574A",
"Z  c #575A4A",
"A  c #58584A",
"S  c #5D5E4F",
"D  c #694A41",
"F  c #684943",
"G  c #7C4F40",
"H  c #724F4B",
"J  c #665149",
"K  c #79554F",
"L  c #6C6354",
"P  c #666C5D",
"I  c #537469",
"U  c #437E75",
"Y  c #457D75",
"T  c #657965",
"R  c #747D66",
"E  c #824D35",
"W  c #8A4D36",
"Q  c #865236",
"!  c #875236",
"~  c #8B5537",
"^  c #8C5637",
"/  c #8D5737",
"(  c #87533C",
")  c #8C5638",
"_  c #8D5738",
"`  c #8D5739",
"'  c #835442",
"]  c #845442",
"[  c #8A5446",
"{  c #8E5E45",
"}  c #905F47",
"|  c #A85942",
" . c #AB5E47",
".. c #916049",
"X. c #926149",
"o. c #9A654A",
"O. c #9B664B",
"+. c #9E6A4A",
"@. c #9D694C",
"#. c #8A6755",
"$. c #8F6C50",
"%. c #936050",
"&. c #847156",
"*. c #A46044",
"=. c #A26A4F",
"-. c #AA6F52",
";. c #AD6F57",
":. c #B76E52",
">. c #BC6D50",
",. c #AE7751",
"<. c #A77A53",
"1. c #AF7558",
"2. c #B47C53",
"3. c #B97F55",
"4. c #C67959",
"5. c #3D827B",
"6. c #3D837B",
"7. c #3F837B",
"8. c #3C827C",
"9. c #3F837C",
"0. c #43897F",
"q. c #438A7F",
"w. c #638570",
"e. c #A98257",
"r. c #BF8456",
"t. c #BF8457",
"y. c #BF8557",
"u. c #BD855B",
"i. c #828476",
"p. c #959975",
"a. c #B28A61",
"s. c #B38D63",
"d. c #AE9D6D",
"f. c #AF8873",
"g. c #AF8F76",
"h. c #A89072",
"j. c #A89379",
"k. c #95A57E",
"l. c #BCB379",
"z. c #C78060",
"x. c #C18364",
"c. c #CD8261",
"v. c #C88966",
"b. c #D08664",
"n. c #D38966",
"m. c #D48A67",
"M. c #D88F6A",
"N. c #DC936D",
"B. c #D29474",
"V. c #DF9773",
"C. c #DF9872",
"Z. c #E39C77",
"A. c #E49F77",
"S. c #E49E79",
"D. c #D4A27E",
"F. c #E6A37B",
"G. c #458D81",
"H. c #458E81",
"J. c #499183",
"K. c #4F9886",
"L. c #519C89",
"P. c #539E8A",
"I. c #629D85",
"U. c #59A68E",
"Y. c #5FAD92",
"T. c #6CAF8F",
"R. c #72A888",
"E. c #62B194",
"W. c #69BB99",
"Q. c #6ABD9B",
"!. c #7DB892",
"~. c #78BC96",
"^. c #6DC09C",
"/. c #6EC29D",
"(. c #6EC39E",
"). c #72C19C",
"_. c #72C29D",
"`. c #AB9A81",
"'. c #BAA287",
"]. c #E0A682",
"[. c #EEB087",
"{. c #EFB48B",
"}. c #F0B88F",
"|. c #F0BE95",
" X c #E6C096",
".X c #F5C096",
"XX c #F7C59A",
"oX c #FCCDA1",
"OX c #FCCEA2",
"+X c #EED0A4",
"@X c #FFD2A4",
"#X c #FFD2A5",
"$X c #FFD3A5",
"%X c #FFD3A7",
"&X c None",
/* pixels */
"&X&X&X&X&X&X&X&X&X&X&X&X&X&X&X&X&X&X&X&X&X&X&X&X&X",
"&X&X&X&X&X&X&X&X&X&X&X&X&X&X&X&X&X&X&X&X&X&X&X&X&X",
"&X&X&X/ / / &X&X` / &X&X&X&X&X&X&X&X&X&X&X&X&X&X&X",
"&X&X&X^ ^ ^ Q d ) ^ Q &X&X&X&X&X&X&X&X&X&X&X&X&X&X",
"&X&X&X^ ^ ^ E k ~ ^ ^ ! a i t u &X&X&X&Xr &X&X&X&X",
"&X&X&X_ ) ! ! ^ ^ ^ ^ ^ ^ a i i t 2 ; < &X&X&X&X&X",
"&X&X&X&X) a k ~ ~ ^ ~ ~ ~ ^ ^ E t t 2 ; 1 &X&X&X&X",
"&X&X&X&X&X6 t i i E l i i E ^ ~ ! ! a 8 7 &X&X&X&X",
"&X&X&X&X&X&X;.x.x.v.v.x.x.v.-.^ ~ k i 5 1 &X&X&X&X",
"&X&X&X&X&X&Xw o.Z.=.( ( ( ( =.-.k l s 8 4 &X&X&X&X",
"&X&X&X&X&X&Xw W z.W y g g g 1.x.t k i 3 4 &X&X&X&X",
"&X&X&X&X&X&X&X*.| | >.4.*.*.z.v.x i s z K &X&X&X&X",
"&X&X&X&X&X&X&Xe | | z.v.- - =.N.4.k 1.{.#X&X&X&X&X",
"i.P C &X&X&X&X}. .| B.OXOXOX{.N.4.0 f.#X#X&X&X&X&X",
"S S V Z &X&X&XOX|.|.XX#X#X#XOX{.4.:.[ H &X&X&X&X&X",
"&XA B = # # h.#X#X}.[.}.#X#X#X.XN.N.;.&X&X&X&X&X&X",
"&X&Xf @ @ % D g.OX.X}..X#X#XXX[.Z.F.&X&X&X&X&X&X&X",
"&X&X&X@ % o ; D g.D.].].].'.`.j.j.&X&X&X&X&X&X&X&X",
"&X&X&X* $ % 0 z $ j [ [ [ n m 5.5.H.U.U.J.&X&X&X&X",
"&X&X&X&X6.L ' ' h $ c v v N 7.5.7.E.P.K././.&X&X&X",
"&X&X&X6.5.L @.3.3.G T W.W.W.P.5.5.7.U.^././.^.(.&X",
"&X&X&X5.5.I.p.t.t.,.$.T /./.W.U.5.5.U././././.(.&X",
"&X&X8.5.5.Y.!.k.u.t.,.$.P T./.E.5.5.U./././././.(.",
"&X9.5.5.5.Y./.~.k.s.t.2.} R w.w.5.5.L.(./././././.",
"&XM m m m U./././.k.s.t.t...z J I U &X&X^.E.Y.Y.Y.",
"&Xb v v v K.W./././.k.a.2.2.o.G z &X&X&XQ.K.G.G.G.",
"&X9.7.7.7.7.P.^.^.^./.R.' ' ' h X ; &X&X&X_._._.).",
"&X;.-.-.-.&Xq.0.0.0.0.0.Y Y Y n X X + : &X+X+X XD.",
"&XC.N.n.>.m.#.B l.l.d.&.& & = = X X X F $X#X#XOXXX",
"&XC.N.c.n.V.=.9 $.e.<.{ 0 x x u &X  X D }.OX#X#X#X",
"&X&XM.b.Z.A.%.9 9 z } @.@.3.,.@.&X&X. d F.oX#X#X%X",
"&X&X&XS.S.&X&Xp p j o.t.t.t.t.y.&X&X&X&X&X@X$X&X&X",
"&X&X&X&X&X&X&X' ' p ' 3.t.t.t.t.r.&X&X&X&X&X&X&X&X",
"&X&X&X&X&X&X&X' ' p h X.t.t.t.t.r.&X&X&X&X&X&X&X&X",
"&X&X&X&X&X&X&X' ' G h z t.t.t.t.t.y.&X&X&X&X&X&X&X",
"&X&X&X&X&X&X&X&X] ' h q &XO.,.t.t.@.&X&X&X&X&X&X&X",
"&X&X&X&X&X&X&X&X4 9 6 &X&X&X&X+.l 8 &X&X&X&X&X&X&X",
"&X&X&X&X&X&X&X&XO o &X&X&X&X&X&XO O &X&X&X&X&X&X&X",
"&X&X&X&X&X&X&X&X> ; , &X&X&X&X&X9 9 &X&X&X&X&X&X&X",
"&X&X&X&X&X&X&X; ; ; , &X&X&X&X&X9 9 &X&X&X&X&X&X&X"
};
