/* XPM */
static char *result[] = {
/* columns rows colors chars-per-pixel */
"25 40 192 2 ",
"   c #240B17",
".  c #250B18",
"X  c #29131B",
"o  c #2B1F24",
"O  c #341621",
"+  c #3C1B27",
"@  c #192729",
"#  c #232C2C",
"$  c #2A2D2C",
"%  c #2D322E",
"&  c #2E342D",
"*  c #372E30",
"=  c #333A35",
"-  c #373934",
";  c #343C39",
":  c #552A1B",
">  c #411F2B",
",  c #421F2B",
"<  c #442229",
"1  c #45232F",
"2  c #49232C",
"3  c #532A2D",
"4  c #5C2F2D",
"5  c #53302D",
"6  c #5B352E",
"7  c #412F31",
"8  c #522E31",
"9  c #5E3330",
"0  c #513D38",
"q  c #61312E",
"w  c #60322E",
"e  c #61322E",
"r  c #62322E",
"t  c #6D3E2A",
"y  c #743D28",
"u  c #643430",
"i  c #633A34",
"p  c #633C35",
"a  c #663E35",
"s  c #693930",
"d  c #6C3C31",
"f  c #6E3E32",
"g  c #6A4039",
"h  c #6D4439",
"j  c #69463E",
"k  c #764232",
"l  c #7C4934",
"z  c #7F4C35",
"x  c #704438",
"c  c #754C3A",
"v  c #2A494A",
"b  c #39605F",
"n  c #245E62",
"m  c #245E63",
"M  c #2E6866",
"N  c #2B6869",
"B  c #2C6969",
"V  c #327371",
"C  c #535447",
"Z  c #565849",
"A  c #575A49",
"S  c #57584A",
"D  c #5E5B4D",
"F  c #7A4D40",
"G  c #6C5047",
"H  c #7D5B45",
"J  c #77534A",
"K  c #785D4D",
"L  c #656657",
"P  c #6C6354",
"I  c #716B5B",
"U  c #547E74",
"Y  c #617163",
"T  c #6B7D68",
"R  c #834D34",
"E  c #814E3E",
"W  c #904E39",
"Q  c #855036",
"!  c #8A5437",
"~  c #8B5537",
"^  c #8C5637",
"/  c #8C5737",
"(  c #8D5737",
")  c #8F513A",
"_  c #8C5738",
"`  c #835342",
"'  c #865341",
"]  c #835442",
"[  c #895943",
"{  c #8D5E44",
"}  c #905B41",
"|  c #9A5A40",
" . c #A75A42",
".. c #A85A42",
"X. c #956349",
"o. c #9E6A4A",
"O. c #9E684C",
"+. c #996D4E",
"@. c #906250",
"#. c #906452",
"$. c #926C50",
"%. c #9C6E50",
"&. c #B06E4E",
"*. c #A46F51",
"=. c #B36950",
"-. c #BA6C50",
";. c #AB7651",
":. c #BE7153",
">. c #B27953",
",. c #B57D54",
"<. c #B87F54",
"1. c #B17859",
"2. c #BC7B5B",
"3. c #847C6B",
"4. c #977163",
"5. c #9C7866",
"6. c #AB7D66",
"7. c #C47857",
"8. c #C97E5E",
"9. c #3D8079",
"0. c #3D827B",
"q. c #3D837C",
"w. c #428078",
"e. c #40857C",
"r. c #578377",
"t. c #BF8456",
"y. c #BF8457",
"u. c #BE8458",
"i. c #BD865B",
"p. c #9E886C",
"a. c #8F8F7A",
"s. c #9F8F7B",
"d. c #B18F65",
"f. c #A99268",
"g. c #BF8D71",
"h. c #94A27C",
"j. c #C08558",
"k. c #C28060",
"l. c #C68566",
"z. c #CD8A68",
"x. c #D68D69",
"c. c #D6906C",
"v. c #DA926C",
"b. c #DA946F",
"n. c #D29574",
"m. c #D99C7B",
"M. c #E19974",
"N. c #E39C75",
"B. c #E49F77",
"V. c #E69F78",
"C. c #C4A36B",
"Z. c #D5BC78",
"A. c #E4A078",
"S. c #4E9786",
"D. c #4D9887",
"F. c #519986",
"G. c #519C89",
"H. c #54A08B",
"J. c #57A48D",
"K. c #5DA88F",
"L. c #5DAC91",
"P. c #6AA286",
"I. c #6CAA8C",
"U. c #60AE92",
"Y. c #66B797",
"T. c #6BBD9B",
"R. c #6CBF9B",
"E. c #77BD97",
"W. c #6EC29D",
"Q. c #6EC39D",
"!. c #6EC29E",
"~. c #6EC39E",
"^. c #8EAB84",
"/. c #8BAD86",
"(. c #84BC96",
"). c #EBA981",
"_. c #EEB088",
"`. c #EFB38A",
"'. c #F1BA91",
"]. c #89C39D",
"[. c #8AC69E",
"{. c #EFC39B",
"}. c #F6C196",
"|. c #F8C69B",
" X c #FBCDA0",
".X c #FED0A4",
"XX c #FFD0A4",
"oX c #FFD2A4",
"OX c #FFD2A5",
"+X c #FFD3A5",
"@X c #FFD3A7",
"#X c None",
/* pixels */
"#X#X#X#X#X#X#X#X#X#X#X#X#X#X#X#X#X#X#X#X#X#X#X#X#X",
"#X#X#X( ( ( #X#X^ ( #X#X#X#X#X#X#X#X#X#X#X#X#X#X#X",
"#X#X#X^ ^ ^ z x ~ ^ _ ' r r r #X#X#X#X#Xq #X#X#X#X",
"#X#X#X^ ^ ^ R l ! ^ ^ Q k u w 9 #X#X#X#X#X#X#X#X#X",
"#X#X#X^ ~ R Q ^ ^ ^ ^ ^ ^ k f s w 3 < , #X#X#X#X#X",
"#X#X#X#X/ d f Q Q ! ! Q Q ! ^ R s s 3 < 2 #X#X#X#X",
"#X#X#X#X#Xe u u u Q l u u Q ^ ^ ^ ! k w 4 #X#X#X#X",
"#X#X#X#X#X#Xl.c.c.b.b.c.c.b.>.^ ! f u 3 2 #X#X#X#X",
"#X#X#X#X#X#X: Q M.} t t t t O.1.f l f w 4 #X#X#X#X",
"#X#X#X#X#X#Xy | 7.W R ) ) ) 2.k.w f w 3 2 #X#X#X#X",
"#X#X#X#X#X#X#X)  ...:.k.) ) 2.z.) s F @.4.#X#X#X#X",
"#X#X#X#X#X#X#XE  ...8.n.c c 1.b.7.f 6.'.OX#X#X#X#X",
"3.L S #X#X#X#X'.-.=.m.OXOXOX'.M.7.g 6.{.oX#X#X#X#X",
"D C C Z #X#X#XOX.X.X.XOXOXOXOX'.8.7.E 1 #X#X#X#X#X",
"#XA C ; @ & p.OXOX`.)._.OXOXOX}.M.M.l.#X#X#X#X#X#X",
"#X#X= # % o 0 5. X|.}.|.OXOX}.).V.#X#X#X#X#X#X#X#X",
"#X#X#X$ o X < j 3.g.n.n.n.s.a.a.a.r.L.L.#X#X#X#X#X",
"#X#X#X- ; 7 p c * p F J J b V 0.0.S.J.J.G.#X#X#X#X",
"#X#X#X#X0.P [ { F 7 v M M e.e.0.e.K.H.H.W.W.~.#X#X",
"#X#X#X0.0.I %.y.y.` T R.W.W.J.e.0.0.J.W.W.W.W.Q.#X",
"#X#X#X0.0.K.h.y.y.<.@.L W.W.R.U.0.0.J.W.W.W.W.Q.#X",
"#X#Xq.0.0.U.E.^.i.y.,.%.D I.W.U.0.0.J.W.W.W.W.W.!.",
"#Xw.0.0.0.U.W.E./.d.y.<.O.I Y Y 0.0.D.~.W.W.W.W.W.",
"#XB N N N K.W.W.W.^.f.y.y.O.` G Y w.#X#XR.K.J.J.J.",
"#Xm n n n F.W.W.W.W./.f.;.;.X.F a #X#X#XT.G.S.S.S.",
"#Xr.U U U #X#XY.Y.Y.Y.P.K K K j . O + #X#X[.].].(.",
"#X&.-.-.-.#X#X9.e.e.e.9.9.9.9.b . . O 1 #XOXOX}.V.",
"#XN.M.c.-.x.#.0 Z.Z.C.$.o o 7 7 . . . G XX.XOX.X X",
"#XN.c.8.c.M.*.8 H +.+.[ g { [ h #X  . j _. XOXOXOX",
"#X#Xv.c.M.B.' 8 8 c X.*.*.<.>.&.#X#X#X#X#XXXOX+X#X",
"#X#X#XA.A.#X#Xg g g X.y.y.y.y.u.#X#X#X#X#X#X@X#X#X",
"#X#X#X#X#X#X#X` ` p ` >.y.y.y.y.t.#X#X#X#X#X#X#X#X",
"#X#X#X#X#X#X#X` ` p g { y.y.y.y.t.#X#X#X#X#X#X#X#X",
"#X#X#X#X#X#X#X` ` ` g j y.y.y.y.y.{ #X#X#X#X#X#X#X",
"#X#X#X#X#X#X#X#X] ` g 9 #Xy.y.y.y.<.#X#X#X#X#X#X#X",
"#X#X#X#X#X#X#X#X] ` F x #X#Xj.y.y.O.#X#X#X#X#X#X#X",
"#X#X#X#X#X#X#X#X5 8 i #X#X#X#Xo.c 6 #X#X#X#X#X#X#X",
"#X#X#X#X#X#X#X#XO O + #X#X#X#X#XO O #X#X#X#X#X#X#X",
"#X#X#X#X#X#X#X#X> > + #X#X#X#X#X8 8 #X#X#X#X#X#X#X",
"#X#X#X#X#X#X#X> > > + #X#X#X#X#X8 8 #X#X#X#X#X#X#X"
};
