/* XPM */
static char *result[] = {
/* columns rows colors chars-per-pixel */
"25 40 191 2 ",
"   c #240B17",
".  c #250B18",
"X  c #30121E",
"o  c #31131F",
"O  c #281C25",
"+  c #361823",
"@  c #3C1B27",
"#  c #2D2324",
"$  c #232D2B",
"%  c #29312F",
"&  c #333A35",
"*  c #3A3D33",
"=  c #491F12",
"-  c #411C1F",
";  c #522719",
":  c #411F2C",
">  c #41202B",
",  c #46212B",
"<  c #4A232C",
"1  c #4D262D",
"2  c #532A2D",
"3  c #572F2D",
"4  c #5C2F2E",
"5  c #4C302C",
"6  c #53302D",
"7  c #412E31",
"8  c #522E32",
"9  c #4E3D35",
"0  c #583730",
"q  c #5A3434",
"w  c #61312C",
"e  c #61322D",
"r  c #60312E",
"t  c #61312E",
"y  c #60322E",
"u  c #613631",
"i  c #653732",
"p  c #693931",
"a  c #6A3931",
"s  c #6C3C31",
"d  c #6D3D33",
"f  c #663E38",
"g  c #4E483F",
"h  c #7B422D",
"j  c #6B4239",
"k  c #6D4439",
"l  c #734131",
"z  c #774636",
"x  c #794834",
"c  c #7E4B34",
"v  c #7B473C",
"b  c #764C3E",
"n  c #394C42",
"m  c #385852",
"M  c #245E62",
"N  c #286366",
"B  c #2B6869",
"V  c #376361",
"C  c #33736F",
"Z  c #397A72",
"A  c #565849",
"S  c #575949",
"D  c #56584A",
"F  c #624640",
"G  c #6D4E47",
"H  c #7C4F40",
"J  c #6E5442",
"K  c #62524D",
"L  c #665C4E",
"P  c #7D5847",
"I  c #7A5E4A",
"U  c #5B675D",
"Y  c #666657",
"T  c #6A6152",
"R  c #6D6F5D",
"E  c #547E74",
"W  c #787962",
"Q  c #844732",
"!  c #834F35",
"~  c #8B4E34",
"^  c #865036",
"/  c #895436",
"(  c #8A5437",
")  c #8C5537",
"_  c #8C5736",
"`  c #8C5637",
"'  c #8D5737",
"]  c #99523C",
"[  c #825241",
"{  c #845242",
"}  c #835442",
"|  c #875543",
" . c #8B5641",
".. c #8B5842",
"X. c #8D5D44",
"o. c #8F5F45",
"O. c #935E40",
"+. c #9B5C45",
"@. c #A75942",
"#. c #96664F",
"$. c #98644A",
"%. c #9E6A4A",
"&. c #996B4E",
"*. c #866851",
"=. c #926A50",
"-. c #A56145",
";. c #A16C4F",
":. c #A56F4E",
">. c #B96A4E",
",. c #BA6B4F",
"<. c #BB6C4F",
"1. c #A6724F",
"2. c #B86C51",
"3. c #BC6D51",
"4. c #B27554",
"5. c #B47B54",
"6. c #827C6D",
"7. c #A57763",
"8. c #AD7A62",
"9. c #C37756",
"0. c #C27D5E",
"q. c #CB7E5D",
"w. c #3D8079",
"e. c #3D827B",
"r. c #3D837C",
"t. c #40847B",
"y. c #46847B",
"u. c #498278",
"i. c #778173",
"p. c #768B79",
"a. c #778B7A",
"s. c #BC8256",
"d. c #BF8456",
"f. c #BF8457",
"g. c #BE8458",
"h. c #BB845D",
"j. c #BE8665",
"k. c #AE9167",
"l. c #A1976F",
"z. c #B28B75",
"x. c #C08558",
"c. c #C58263",
"v. c #D58D69",
"b. c #D68D69",
"n. c #DA916C",
"m. c #DA926C",
"M. c #DF9974",
"N. c #E29B76",
"B. c #E39C75",
"V. c #E59E78",
"C. c #C4A36B",
"Z. c #DBA37E",
"A. c #D5BC78",
"S. c #E4A078",
"D. c #E8A47E",
"F. c #458D81",
"G. c #4B9283",
"H. c #4D9686",
"J. c #519C89",
"K. c #529D8A",
"L. c #56A28C",
"P. c #58A48D",
"I. c #58A68E",
"U. c #5CA98F",
"Y. c #6CA98B",
"T. c #72B18F",
"R. c #60AF93",
"E. c #67B797",
"W. c #6BBD9B",
"Q. c #74BF9A",
"!. c #6EC29D",
"~. c #6EC39D",
"^. c #6EC29E",
"/. c #6EC39E",
"(. c #72C09B",
"). c #90A982",
"_. c #84B28D",
"`. c #84BC96",
"'. c #DFA582",
"]. c #DBB08E",
"[. c #EDAD85",
"{. c #F3BD92",
"}. c #89C39D",
"|. c #8AC69E",
" X c #F5C196",
".X c #FCCCA0",
"XX c #FFD0A4",
"oX c #FFD2A5",
"OX c #FFD3A5",
"+X c #FFD3A7",
"@X c None",
/* pixels */
"@X@X@X@X@X@X@X@X@X@X@X@X@X@X@X@X@X@X@X@X@X@X@X@X@X",
"@X@X@X@X_ ' z p ( ' z e e e e w @X@X@X@X@X@X@X@X@X",
"@X@X@X .) ` x a / ` ^ c c i r e y , , , t @X@X@X@X",
"@X@X@X` ` ` ! x ` ` ` ` ` c l d r 2 < < 1 @X@X@X@X",
"@X@X@X_ ) ! c c c / ^ c c / ` ! d d r < 1 @X@X@X@X",
"@X@X@X@X' s d v v O...v v O.O.` ` ^ l r 4 @X@X@X@X",
"@X@X@X@X@Xu $.N.V.N.N.N.N.N.5.` / a r 3 > @X@X@X@X",
"@X@X@X@X@X- = l M.c ; ; ; ; $.h.i ! l r 4 @X@X@X@X",
"@X@X@X@X@X@X~ -.2.] ] -.-.-.c.j.r a 3 < 1 @X@X@X@X",
"@X@X@X@X@X@X@XQ @.@.9.0.h h 4.v.+.d | 7.z.@X@X@X@X",
"@X@X@X@X@X@X@X&.@.@.c.Z.=.=.j.n.9.d 8.{.oX@X@X@X@X",
"@X@X@X@X@X@X@X Xc.0.'.oXoXoX{.V.9.v 7.].oX@X@X@X@X",
"i.Y S @X@X@X@XoXoX.X.X.XoXoXoX{.q.q.{ , @X@X@X@X@X",
"D D D A @X@X@XoXoX[.V.[.oXoXoX XV.V.@X@X@X@X@X@X@X",
"@XS g * $ $ J @XoX.X.X.XoXoX{.D.V.@X@X@X@X@X@X@X@X",
"@X@X& % % # 5 P T 8.c.c.c.6.i.a.p.y.y.@X@X@X@X@X@X",
"@X@X@X% m g j b 7 0 F K K V Z e.e.e.H.K.@X@X@X@X@X",
"@X@X@Xn w.T } } | 9 m Z Z G.F.e.e.H.L.I.J.@X@X@X@X",
"@X@X@X@Xe.R *.$.s.X.W Y.!.!.U.F.t.U.L.L.!.!./.@X@X",
"@X@X@Xe.e.R.).h.f.f.$.T E.!.!.R.e.e.I.!.!.!.!.~.@X",
"@X@X@Xe.e.R.(._.h.f.s.1.F Y.!.R.e.e.I.!.!.!.!.~.@X",
"@X@Xr.e.e.R.!.Q._.k.f.s.1.I T U e.e.I.!.!.!.!.!.^.",
"@Xu.e.e.e.R.!.!.!._.l.f.f.1.&.=.Y @X@X/.!.!.!.!.!.",
"@XN B B B G.R.!.!.!._.l.;.;.;.#.J @X@X@X!.U.L.L.L.",
"@XN M M M C P.!.!.!.!.T.W R T L @X@X@X@XW.J.H.H.H.",
"@Xu.E E E @X@XE.E.E.E.E.E.F.e.V . + @ @X@X|.}.}.`.",
"@X<.,.,.>.@X@Xw.t.t.t.e.w.w.w.V . . + - @XoXoX XV.",
"@XB.M.n.3.b.#.9 A.A.C.=.O O 7 7 . . . G XXoXoXoX.X",
"@XB.n.q.v.N.;.8 I &.&...j X.| k @X  . j [..XoXoXoX",
"@X@Xm.v.N.S. .8 8 b $.1.1.s.5.:.@X@X@X@X@XXXoXOX@X",
"@X@X@XS.S.@X@Xf f j $.f.f.f.f.g.@X@X@X@X@X@X+X@X@X",
"@X@X@X@X@X@X@X} } i [ 5.f.f.f.f.d.@X@X@X@X@X@X@X@X",
"@X@X@X@X@X@X@X} } f j X.f.f.f.f.d.@X@X@X@X@X@X@X@X",
"@X@X@X@X@X@X@X} } [ j j f.f.f.f.s.o.@X@X@X@X@X@X@X",
"@X@X@X@X@X@X@X@X{ } j q @Xf.f.f.f.5.@X@X@X@X@X@X@X",
"@X@X@X@X@X@X@X@X{ } H z @X@Xx.f.s.;.@X@X@X@X@X@X@X",
"@X@X@X@X@X@X@X@X6 3 u @X@X@X@X%.x 0 @X@X@X@X@X@X@X",
"@X@X@X@X@X@X@X@XX o @ @X@X@X@X@X+ + @X@X@X@X@X@X@X",
"@X@X@X@X@X@X@X@X> : @ @X@X@X@X@X8 8 @X@X@X@X@X@X@X",
"@X@X@X@X@X@X@X: : : @ @X@X@X@X@X8 8 @X@X@X@X@X@X@X"
};
