/* XPM */
static char *result[] = {
/* columns rows colors chars-per-pixel */
"25 40 190 2 ",
"   c #3C1209",
".  c #250A17",
"X  c #260B18",
"o  c #2E1220",
"O  c #2D1D21",
"+  c #331520",
"@  c #1C2729",
"#  c #2E302C",
"$  c #31342E",
"%  c #313935",
"&  c #461F11",
"*  c #522719",
"=  c #401F2A",
"-  c #401F2B",
";  c #421E2A",
":  c #43212A",
">  c #47242B",
",  c #41202C",
"<  c #4B242D",
"1  c #49272C",
"2  c #542E2C",
"3  c #582E2D",
"4  c #5C2E2E",
"5  c #53302D",
"6  c #53332D",
"7  c #5D302E",
"8  c #522E31",
"9  c #502D32",
"0  c #493734",
"q  c #583530",
"w  c #61312C",
"e  c #62332D",
"r  c #60312E",
"t  c #60322E",
"y  c #61322E",
"u  c #673731",
"i  c #653832",
"p  c #6B3A32",
"a  c #703F31",
"s  c #7A422F",
"d  c #64443E",
"f  c #6A4139",
"g  c #6A413A",
"h  c #784533",
"j  c #7B4633",
"k  c #7D4934",
"l  c #7F4C34",
"z  c #7A473C",
"x  c #704A3B",
"c  c #784C3E",
"v  c #7A4D3E",
"b  c #7B4E3E",
"n  c #34504E",
"m  c #395E5D",
"M  c #3C605F",
"N  c #276164",
"B  c #286365",
"V  c #2A6667",
"C  c #396E6A",
"Z  c #3E746C",
"A  c #397A72",
"S  c #4C4D40",
"D  c #525346",
"F  c #56574A",
"G  c #565849",
"H  c #575949",
"J  c #53594F",
"K  c #60514A",
"L  c #7E5040",
"P  c #73524A",
"I  c #676152",
"U  c #6C6455",
"Y  c #69665A",
"T  c #776250",
"R  c #4D7C72",
"E  c #4F7E73",
"W  c #6A7663",
"Q  c #677B6C",
"!  c #757966",
"~  c #804B34",
"^  c #834D3C",
"/  c #855035",
"(  c #895336",
")  c #8C5637",
"_  c #8C583E",
"`  c #98533C",
"'  c #99523D",
"]  c #815341",
"[  c #855142",
"{  c #835442",
"}  c #845442",
"|  c #845542",
" . c #875A44",
".. c #8E5E44",
"X. c #995F45",
"o. c #A65741",
"O. c #A85A42",
"+. c #96654C",
"@. c #9D694B",
"#. c #9E6A4A",
"$. c #866554",
"%. c #926A50",
"&. c #A56145",
"*. c #BA6B4E",
"=. c #A6724F",
"-. c #A36D50",
";. c #B86C51",
":. c #A97450",
">. c #AB7551",
",. c #B27554",
"<. c #B97754",
"1. c #B07952",
"2. c #B67A56",
"3. c #BF7D5E",
"4. c #827C6D",
"5. c #A27865",
"6. c #AB7962",
"7. c #C07354",
"8. c #C57857",
"9. c #CC7F5D",
"0. c #3D8379",
"q. c #3D827B",
"w. c #3E837A",
"e. c #3D827C",
"r. c #4B877D",
"t. c #5D8C7A",
"y. c #718376",
"u. c #768B79",
"i. c #BC8256",
"p. c #BF8456",
"a. c #BF8457",
"s. c #BF8558",
"d. c #BC875F",
"f. c #978267",
"g. c #AE9167",
"h. c #A1976F",
"j. c #B28B75",
"k. c #C28163",
"l. c #C68263",
"z. c #CE8968",
"x. c #D78E69",
"c. c #DD946E",
"v. c #DD946F",
"b. c #E29B76",
"n. c #E59E78",
"m. c #E49F78",
"M. c #D5A568",
"N. c #E8A47E",
"B. c #E2BE75",
"V. c #EAC579",
"C. c #478F82",
"Z. c #4F9988",
"A. c #629C84",
"S. c #54A08B",
"D. c #56A38C",
"F. c #57A58E",
"G. c #5AA78F",
"H. c #5AA88F",
"J. c #5FAD92",
"K. c #6CA688",
"L. c #6CAC8D",
"P. c #60AE92",
"I. c #65B596",
"U. c #6DB896",
"Y. c #68BA99",
"T. c #74BF9A",
"R. c #6DC09B",
"E. c #6EC29D",
"W. c #6EC39D",
"Q. c #6EC29E",
"!. c #6EC39E",
"~. c #72C09B",
"^. c #84B28D",
"/. c #93B08A",
"(. c #95BF9B",
"). c #DDA480",
"_. c #DBB08E",
"`. c #EAA881",
"'. c #EDAC84",
"]. c #E7BF98",
"[. c #F2BC92",
"{. c #F4BF95",
"}. c #9EC49D",
"|. c #F7C398",
" X c #FBCB9F",
".X c #FBCDA1",
"XX c #FECFA3",
"oX c #FFD2A5",
"OX c #FFD3A5",
"+X c None",
/* pixels */
"+X+X+X+X+X+X+X+X+X+X+X+X+X+X+X+X+X+X+X+X+X+X+X+X+X",
"+X+X+X) ) ) j e ) ) h e e e e w +X+X+X+Xy +X+X+X+X",
"+X+X+X) ) ) / ~ ) ) / k k i r u t ; ; : +X+X+X+X+X",
"+X+X+X) ) ) ) ) ) ) ) ) ) k s a r 8 > - +X+X+X+X+X",
"+X+X+X_ l ~ ~ ~ ~ ~ ~ ~ ~ ( ) / a a r > < +X+X+X+X",
"+X+X+X+Xe y u z z z z z z X...) ) / a r 4 +X+X+X+X",
"+X+X+X+X+X+X+Xb.n.b.b.b.b.b.2.) ( p r 3 , +X+X+X+X",
"+X+X+X+X+X  & a b.~ * * * * X.3.i ~ a r 7 +X+X+X+X",
"+X+X+X+X+X+X^ &.;.' ` &.&.&.l.k.r p 3 > < +X+X+X+X",
"+X+X+X+X+X+X+X~ o.O.7.3.s s ,.z.X.p } 6.j.+X+X+X+X",
"+X+X+X+X+X+X+X+.O.O.z.).%.%.d.v.8.p 6.{.oX+X+X+X+X",
"! I H +X+X+X+X{.k.3.).oXoXoX{.n.8.z 5._.oX+X+X+X+X",
"G F J D +X+X].oXoX.X X.XoXoXoX[.9.9.[ ; +X+X+X+X+X",
"+XH S $ @ $ f.oXoX'.n.'.oXoXoX|.n.n.+X+X+X+X+X+X+X",
"+X+X% @ $ O > $..X X X XoXoX[.N.n.+X+X+X+X+X+X+X+X",
"+X+X+X# O X > x I 6.l.l.l.4.y.u.u.r.G.P.0.+X+X+X+X",
"+X+X+X% n 0 f c 0 q d K K m A q.q.S.D.S.F.Y.+X+X+X",
"+X+X+X+Xe.U } }  .0 n A A C.C.q.q.I.S.Z.E.E.+X+X+X",
"+X+X+X+Xq.W $.@.i...! L.E.E.H.C.q.H.S.S.E.E.!.+X+X",
"+X+X+Xq.q.J./.d.a.a.+.I U.R.R.J.q.q.H.E.E.E.E.W.+X",
"+X+X+Xq.q.J.~.^.d.a.i.=.d K.D.q.q.q.H.E.E.E.E.W.+X",
"+XR w.q.q.J.E.T.^.g.a.i.>.T K J q.+XY.E.E.E.E.E.Q.",
"+XB N N N D.E.E.E.^.h.a.a.=.@.%.Y +X+X!.R.S.Z.Z.Z.",
"+XB V V V q.D.E.E.E.^.h.-.-.-...q 1 +X+XD.S.S.S.S.",
"+XQ Q Q Q M w.J.J.J.J.A.U U U K X + ; +Xr.(.}.}./.",
"+X<.7.7.*.+XR Z t.t.t.E C C Z m X X + 9 +XOXoX|.`.",
"+Xm.n.v.7.x.+.6 B.V.M.@.X X = > X X X P oXoXoXoXoX",
"+Xm.x.8.v.b.-.8 d  ...} c c c v +X. X f `. XoXoXoX",
"+X+Xc.v.n.m.^ 8 8 c } ..1.1.+.| +X+X+X+X+XXXoXOX+X",
"+X+X+X+X+X+X+Xf 8 i } >.a.a.1.>.s.+X+X+X+X+X+X+X+X",
"+X+X+X+X+X+X+XL f q  .a.a.a.a.a.p.+X+X+X+X+X+X+X+X",
"+X+X+X+X+X+X+X} } f ] :.a.a.a.a.p.+X+X+X+X+X+X+X+X",
"+X+X+X+X+X+X+X[ } } f g s.p.a.a.i.+.+X+X+X+X+X+X+X",
"+X+X+X+X+X+X+X+X{ } f 9 +Xa.a.a.a.a.+X+X+X+X+X+X+X",
"+X+X+X+X+X+X+X+X{ } L b +X_ =.a.a.a.+X+X+X+X+X+X+X",
"+X+X+X+X+X+X+X+X{ } | +X+X+X<.a.i.@.+X+X+X+X+X+X+X",
"+X+X+X+X+X+X+X+X5 6 2 +X+X+X+X#.x q +X+X+X+X+X+X+X",
"+X+X+X+X+X+X+X+X+ + o +X+X+X+X+X+ + +X+X+X+X+X+X+X",
"+X+X+X+X+X+X+X+X> = : +X+X+X+X+X8 8 +X+X+X+X+X+X+X",
"+X+X+X+X+X+X+X= = = : +X+X+X+X+X8 8 +X+X+X+X+X+X+X"
};
