/* XPM */
static char *result[] = {
/* columns rows colors chars-per-pixel */
"25 40 187 2 ",
"   c #3C1209",
".  c #250A17",
"X  c #260B18",
"o  c #2E1220",
"O  c #2D1D21",
"+  c #331520",
"@  c #1C2729",
"#  c #2E302C",
"$  c #31342E",
"%  c #313935",
"&  c #461F11",
"*  c #522719",
"=  c #401F2A",
"-  c #401F2B",
";  c #421E2A",
":  c #43212A",
">  c #472528",
",  c #48222C",
"<  c #48242C",
"1  c #49272C",
"2  c #542E2C",
"3  c #5C2F2E",
"4  c #53332D",
"5  c #55312D",
"6  c #5B322E",
"7  c #522D30",
"8  c #502D32",
"9  c #423231",
"0  c #503A35",
"q  c #60312D",
"w  c #61322D",
"e  c #60312E",
"r  c #61322E",
"t  c #653732",
"y  c #683831",
"u  c #6B3A30",
"i  c #6B3A31",
"p  c #6E3E32",
"a  c #77412F",
"s  c #69413A",
"d  c #6D433B",
"f  c #7C4934",
"g  c #7B473C",
"h  c #774B3C",
"j  c #7A4D3E",
"k  c #7B4E3F",
"l  c #34504E",
"z  c #395A57",
"x  c #286365",
"c  c #396363",
"v  c #3B716B",
"b  c #347572",
"n  c #347773",
"m  c #3C7B71",
"M  c #4C4D40",
"N  c #545547",
"B  c #555649",
"V  c #56574A",
"C  c #575A49",
"Z  c #58584A",
"A  c #525C56",
"S  c #624640",
"D  c #644C42",
"F  c #7A4C44",
"G  c #60534C",
"H  c #62524D",
"J  c #735247",
"K  c #7F5141",
"L  c #676152",
"P  c #6C6455",
"I  c #69665A",
"U  c #776250",
"Y  c #5C776B",
"T  c #4F7E73",
"R  c #677B6C",
"E  c #727865",
"W  c #804C34",
"Q  c #824E36",
"!  c #804F3B",
"~  c #855135",
"^  c #895336",
"/  c #8C5436",
"(  c #8C5637",
")  c #8C5638",
"_  c #8E5738",
"`  c #89523D",
"'  c #99523C",
"]  c #835442",
"[  c #835542",
"{  c #875944",
"}  c #8B5842",
"|  c #8D5E45",
" . c #8E5D46",
".. c #935E40",
"X. c #9B5F47",
"o. c #A75942",
"O. c #926149",
"+. c #96644A",
"@. c #98664D",
"#. c #9E694B",
"$. c #9E6A4A",
"%. c #866257",
"&. c #956350",
"*. c #936B51",
"=. c #9F785E",
"-. c #A56145",
";. c #A46F50",
":. c #BB6D50",
">. c #AA7550",
",. c #AF7852",
"<. c #B27554",
"1. c #B07951",
"2. c #B97D59",
"3. c #827C6D",
"4. c #AB7962",
"5. c #C17557",
"6. c #C27656",
"7. c #C27D5E",
"8. c #CC7F5D",
"9. c #3D8379",
"0. c #3D827B",
"q. c #3D837C",
"w. c #4D857A",
"e. c #438A7E",
"r. c #5D8C7A",
"t. c #718376",
"y. c #768B79",
"u. c #BF8456",
"i. c #BF8457",
"p. c #BF8458",
"a. c #BF8558",
"s. c #BB875C",
"d. c #978267",
"f. c #BE8665",
"g. c #AE9167",
"h. c #A1976F",
"j. c #B28B75",
"k. c #C48263",
"l. c #CB8666",
"z. c #D58D6A",
"x. c #DD946F",
"c. c #E19973",
"v. c #E29B76",
"b. c #E59E78",
"n. c #E49F78",
"m. c #D5A568",
"M. c #DBA37E",
"N. c #E2BE75",
"B. c #EAC579",
"V. c #4B9184",
"C. c #4B9384",
"Z. c #509A88",
"A. c #529D89",
"S. c #629C84",
"D. c #55A18C",
"F. c #57A58E",
"G. c #59A68E",
"H. c #5AA78F",
"J. c #5EAB91",
"K. c #5FAD92",
"L. c #6CA688",
"P. c #6CAC8D",
"I. c #60AE92",
"U. c #61B093",
"Y. c #6DB896",
"T. c #6CBF9C",
"R. c #6EC29D",
"E. c #6EC39D",
"W. c #73C09B",
"Q. c #90A982",
"!. c #84B28D",
"~. c #96B691",
"^. c #95BF9B",
"/. c #DFA582",
"(. c #DBB08E",
"). c #EAA680",
"_. c #EDAC84",
"`. c #E7BF98",
"'. c #F2BC92",
"]. c #F4BF95",
"[. c #9EC49D",
"{. c #F7C398",
"}. c #FBCCA0",
"|. c #FECFA3",
" X c #FFD2A5",
".X c #FFD3A5",
"XX c None",
/* pixels */
"XXXXXX( ( ( _ XX) ( _ XXXXXXXXXXXXXXXXXXXXXXXXXXXX",
"XXXXXX( ( ( ! u ( ( ` Q w w w q XXXXXXXXr XXXXXXXX",
"XXXXXX( ( ( ~ W ( ( ( ^ f t e y q ; ; : XXXXXXXXXX",
"XXXXXX/ ) W W ( ( ( ( ( ( f a p e 7 < - XXXXXXXXXX",
"XXXXXXXX/ y p W W ^ ~ W W ^ ( ~ p p 6 < , XXXXXXXX",
"XXXXXXXXXXq y g g ..} g g ....( ( ~ p e 3 XXXXXXXX",
"XXXXXXXXXXXXXXv.b.v.v.v.v.v.2.( ^ i e 7 , XXXXXXXX",
"XXXXXXXXXX  & a v.W * * * * X.2.t W a e 3 XXXXXXXX",
"XXXXXXXXXXXX/ -.:.' ' -.-.-.k.k.e i 6 < , XXXXXXXX",
"XXXXXXXXXXXXXXW o.o.6.7.a a <.z.X.i ] 4.j.XXXXXXXX",
"XXXXXXXXXXXXXX@.o.o.l.M.*.*.f.x.6.p 4.]. XXXXXXXXX",
"E L Z XXXXXXXX].k.7./. X X X].b.6.g =.(. XXXXXXXXX",
"N V B N XXXX`. X X}.}.}. X X X'.8.8.` ; XXXXXXXXXX",
"XXC M $ @ $ d. X X_.b._. X X X{.b.b.XXXXXXXXXXXXXX",
"XXXX% @ $ O < %.}.}.}.}. X X'.).b.XXXXXXXXXXXXXXXX",
"XXXXXX# O X > D L 4.k.k.k.3.t.y.y.w.H.I.9.XXXXXXXX",
"XXXXXX% l 0 s h 9 0 S H H c n 0.0.A.D.D.F.T.XXXXXX",
"XXXXXXXX0.P | +.{ 0 l m m C.Z.C.0.D.D.G.R.R.T.XXXX",
"XXXXXX0.0.E =.i.i.| E P.R.R.R.U.0.0.G.R.R.R.R.E.XX",
"XXXXXX0.0.K.Q.s.i.i.+.L Y.R.R.K.0.0.G.R.R.R.R.E.XX",
"XXXXXX0.0.K.W.!.s.i.i.;.S L.D.0.0.0.G.R.R.R.R.R.R.",
"XXXXq.0.0.K.R.W.!.g.i.2.>.U G A 0.XXXXXXR.R.R.R.R.",
"XXx x x x e.J.R.R.!.h.i.i.;.} J I XXXXXXR.D.Z.Z.Z.",
"XXx x x x b V.J.R.R.!.h.;.;.O.h 5 1 XXXXD.D.D.D.D.",
"XXR R R R XXXXe.J.K.K.S.P P P D X + ; XXV.^.[.[.~.",
"XX5.6.6.:.XXY v r.r.r.T v v v z X X + 8 XX.X X{.).",
"XXn.b.x.:.z.&.4 N.B.m.#.X X = < X X X J  X X X X X",
"XXn.z.6.x.v.;.7 s { | { h h k j XX. X s ).}. X X X",
"XXXXc.x.b.c.F 7 7 h @.,.,.,.,.1.XXXXXXXXXX|. X.XXX",
"XXXXXXXXXXXXXXd d s O.i.i.i.i.p.a.XXXXXXXXXXXXXXXX",
"XXXXXXXXXXXXXX] ] t k >.i.i.i.i.u.XXXXXXXXXXXXXXXX",
"XXXXXXXXXXXXXX] ] s s { i.i.i.i.u.XXXXXXXXXXXXXXXX",
"XXXXXXXXXXXXXX! ] ] s d a.u.i.i.i.+.XXXXXXXXXXXXXX",
"XXXXXXXXXXXXXXXX] ] s 8 XXi.i.i.i.i.XXXXXXXXXXXXXX",
"XXXXXXXXXXXXXXXX] ] K j XX .>.i.i.i.XXXXXXXXXXXXXX",
"XXXXXXXXXXXXXXXX] ] [ XXXXXX1.i.i.#.XXXXXXXXXXXXXX",
"XXXXXXXXXXXXXXXX5 4 2 XXXXXXXX$.h 6 XXXXXXXXXXXXXX",
"XXXXXXXXXXXXXXXX+ + o XXXXXXXXXX+ + XXXXXXXXXXXXXX",
"XXXXXXXXXXXXXXXX< = : XXXXXXXXXX7 7 XXXXXXXXXXXXXX",
"XXXXXXXXXXXXXX= = = : XXXXXXXXXX7 7 XXXXXXXXXXXXXX"
};
