/* XPM */
static char *result[] = {
/* columns rows colors chars-per-pixel */
"25 40 192 2 ",
"   c #3C1209",
".  c #250A17",
"X  c #260B18",
"o  c #260D19",
"O  c #30121E",
"+  c #32151F",
"@  c #2D1D21",
"#  c #341621",
"$  c #1C2729",
"%  c #2C2228",
"&  c #2E302C",
"*  c #2E332E",
"=  c #32352E",
"-  c #353630",
";  c #461F11",
":  c #522719",
">  c #401F2A",
",  c #401F2B",
"<  c #421E2A",
"1  c #41202B",
"2  c #42202A",
"3  c #482529",
"4  c #48222C",
"5  c #48252C",
"6  c #49252D",
"7  c #5C2E2E",
"8  c #55312D",
"9  c #5C302C",
"0  c #5D302E",
"q  c #5F312E",
"w  c #532E30",
"e  c #423231",
"r  c #4D3A36",
"t  c #523032",
"y  c #543830",
"u  c #61322D",
"i  c #60322E",
"p  c #653732",
"a  c #6B3A30",
"s  c #6B3A31",
"d  c #6C3C33",
"f  c #6E3E32",
"g  c #643D3A",
"h  c #38403A",
"j  c #7B422D",
"k  c #66423C",
"l  c #694039",
"z  c #6A413A",
"x  c #6C433A",
"c  c #734131",
"v  c #7D4A34",
"b  c #7E4B34",
"n  c #7B473C",
"m  c #714C3E",
"M  c #7D4D3B",
"N  c #784C3E",
"B  c #324D4D",
"V  c #22575F",
"C  c #385653",
"Z  c #296365",
"A  c #396363",
"S  c #306D6C",
"D  c #3B716B",
"F  c #387971",
"G  c #4C4D40",
"H  c #545547",
"J  c #555649",
"K  c #56574A",
"L  c #575A49",
"P  c #58584A",
"I  c #525C56",
"U  c #624640",
"Y  c #7D4F40",
"T  c #60514A",
"R  c #7E5A50",
"E  c #4B605D",
"W  c #626454",
"Q  c #6A6051",
"!  c #6C6455",
"~  c #69665A",
"^  c #776250",
"/  c #4F7E73",
"(  c #6A7663",
")  c #7D7666",
"_  c #757966",
"`  c #7D7867",
"'  c #844732",
"]  c #814C35",
"[  c #855135",
"{  c #895336",
"}  c #8C5436",
"|  c #8C5637",
" . c #87523F",
".. c #8C5638",
"X. c #8E5738",
"o. c #98533C",
"O. c #99523D",
"+. c #835442",
"@. c #835542",
"#. c #885543",
"$. c #885B44",
"%. c #8E5D46",
"&. c #8F5F47",
"*. c #955D41",
"=. c #A75942",
"-. c #96634B",
";. c #9A664A",
":. c #9E6A4A",
">. c #866257",
",. c #946A50",
"<. c #9B7957",
"1. c #A56145",
"2. c #A26D4E",
"3. c #BA6B4F",
"4. c #B86C51",
"5. c #A97450",
"6. c #AF7852",
"7. c #B47755",
"8. c #B07951",
"9. c #BA7D5F",
"0. c #A57763",
"q. c #AD7A62",
"w. c #C37756",
"e. c #C47C5C",
"r. c #C87D5C",
"t. c #3D827B",
"y. c #418379",
"u. c #42867C",
"i. c #4D857A",
"p. c #41887E",
"a. c #5B8878",
"s. c #5E8E7A",
"d. c #718376",
"f. c #718B79",
"g. c #768B79",
"h. c #BC8256",
"j. c #BF8456",
"k. c #BF8457",
"l. c #BF8558",
"z. c #BB875C",
"x. c #978267",
"c. c #9C9072",
"v. c #BF8464",
"b. c #AA956A",
"n. c #B28B75",
"m. c #C6825C",
"M. c #C58263",
"N. c #CC8160",
"B. c #D38B69",
"V. c #DB926C",
"C. c #E19B75",
"Z. c #E59E78",
"A. c #D5A568",
"S. c #E5A078",
"D. c #E6A17A",
"F. c #E8A47E",
"G. c #E2BE75",
"H. c #EAC579",
"J. c #499083",
"K. c #4B9384",
"L. c #519B87",
"P. c #629C84",
"I. c #55A28C",
"U. c #59A68E",
"Y. c #5AA78F",
"T. c #5DAA90",
"R. c #6CA98B",
"E. c #60AE92",
"W. c #6DB896",
"Q. c #69BA99",
"!. c #74BF9A",
"~. c #6DC09C",
"^. c #6EC29D",
"/. c #6EC39D",
"(. c #72C09B",
"). c #90A982",
"_. c #84B28D",
"`. c #AABA94",
"'. c #DDA480",
"]. c #DBB08E",
"[. c #EDAC84",
"{. c #EDAF86",
"}. c #E7BF98",
"|. c #F3BD93",
" X c #B3C69D",
".X c #F5C298",
"XX c #F9C79C",
"oX c #FBCCA0",
"OX c #FFD1A4",
"+X c #FFD2A5",
"@X c #FFD3A6",
"#X c None",
/* pixels */
"#X#X#X| | | X.#X..| X.#X#X#X#X#X#X#X#X#X#X#X#X#X#X",
"#X#X#X| | | v a | |  .M u u u 9 #X#X#X#Xi #X#X#X#X",
"#X#X#X| | | [ ] | | | { b p q u i < < 5 #X#X#X#X#X",
"#X#X#X} ..b ] | | | | | | b c f q w 6 , #X#X#X#X#X",
"#X#X#X#X} d f b b { [ b b { | [ f f q 6 4 #X#X#X#X",
"#X#X#X#X#X9 d n n *.#.n n *.*.| | [ c q 7 #X#X#X#X",
"#X#X#X#X#X#X#XC.Z.C.C.C.C.C.7.| { s q w 4 #X#X#X#X",
"#X#X#X#X#X  ; c C.b : : : : ;.9.p ] c q 0 #X#X#X#X",
"#X#X#X#X#X#X} 1.4.O.o.1.1.1.M.v.q s q 6 4 #X#X#X#X",
"#X#X#X#X#X#X#X' =.=.w.e.j j 7.B.*.s #.0.n.#X#X#X#X",
"#X#X#X#X#X#X#X,.=.=.N.'.,.,.v.V.w.f q.|.+X#X#X#X#X",
"_ W P #X#X#X#X.XM.e.'.+X+X+X|.Z.w.n 0.].+X#X#X#X#X",
"H K J H #X#X}.+X+XoXoXoX+X+X+X|.N.N. .< #X#X#X#X#X",
"#XL G - $ * x.+X+X[.Z.[.+X+X+X.XZ.Z.#X#X#X#X#X#X#X",
"#X#X% $ = @ 6 >.oXoXXXoX+X+X|.F.D.#X#X#X#X#X#X#X#X",
"#X#X#X& @ o 3 m Q q.M.M.M.` d.g.g.i.Y.E.u.#X#X#X#X",
"#X#X#Xh B r x N e y U T T A F t.t.L.I.I.U.Q.#X#X#X",
"#X#X#X#Xt.! &.-.#.r C F F K.L.K.t.I.I.U.^.^./.#X#X",
"#X#X#Xt.t.( <.k.k.&._ R.^.^.^.E.t.t.U.^.^.^.^./.#X",
"#X#X#Xt.t.E.).z.k.k.-.Q W.~.~.E.t.t.U.^.^.^.^./.#X",
"#Xu.t.t.t.E.(._.z.k.h.5.U R.I.p.t.t.U.^.^.^.^.^.^.",
"#XZ V V V I.^.!._.b.k.h.5.^ T I t.#X#X#X~.L.J.J.J.",
"#XZ S S S F L.^.^._.b.k.k.2.$.m ~ #X#X#XL.U.T.T.T.",
"#X) ` ` ` E y.T.^.^._.c.2.2.&.N 8 5 #X#Xu.`. X X`.",
"#Xr.e.e.3.m.f.p.T.E.E.P.! ! ! T X # < #X#X+X+XXX{.",
"#XS.C.V.w.V.c.D s.s.a./ D D D C X X # R oX+X+X+X+X",
"#XS.B.w.C.Z.-.y G.H.A.;.X X > 3 o X X l D.oX+X+X+X",
"#X#X#XC.Z.#Xg w k $.&.#.N N Y M #X. X + #XOX+X@X#X",
"#X#X#X#X#X#X#Xw w N ;.6.6.6.6.8.#X#X#X#X#X#X#X#X#X",
"#X#X#X#X#X#X#Xx x l &.k.k.k.k.l.m.#X#X#X#X#X#X#X#X",
"#X#X#X#X#X#X#X+.+.p Y 5.k.k.k.k.j.#X#X#X#X#X#X#X#X",
"#X#X#X#X#X#X#X+.+.l l $.k.k.k.k.j.#X#X#X#X#X#X#X#X",
"#X#X#X#X#X#X#X .+.+.x z l.j.k.k.h.-.#X#X#X#X#X#X#X",
"#X#X#X#X#X#X#X#X+.+.x t #Xk.k.k.k.k.#X#X#X#X#X#X#X",
"#X#X#X#X#X#X#X#X+.+.Y M #X%.5.k.k.k.#X#X#X#X#X#X#X",
"#X#X#X#X#X#X#X#X+.+.@.#X#X#X8.k.h.2.#X#X#X#X#X#X#X",
"#X#X#X#X#X#X#X#X8 w 9 #X#X#X#X:.m q #X#X#X#X#X#X#X",
"#X#X#X#X#X#X#X#XO # % #X#X#X#X#X# # #X#X#X#X#X#X#X",
"#X#X#X#X#X#X#X#X1 > 2 #X#X#X#X#Xw w #X#X#X#X#X#X#X",
"#X#X#X#X#X#X#X> > > 2 #X#X#X#X#Xw w #X#X#X#X#X#X#X"
};
