/* XPM */
static char *result[] = {
/* columns rows colors chars-per-pixel */
"25 40 189 2 ",
"   c #250A17",
".  c #260B18",
"X  c #30121E",
"o  c #32151F",
"O  c #3C1619",
"+  c #2D1D21",
"@  c #341621",
"#  c #3B1B26",
"$  c #192529",
"%  c #1F292A",
"&  c #30332E",
"*  c #2A3131",
"=  c #461F11",
"-  c #522719",
";  c #401F2A",
":  c #401F2B",
">  c #431F2B",
",  c #47232C",
"<  c #48252B",
"1  c #48222C",
"2  c #49272C",
"3  c #542D2D",
"4  c #55312D",
"5  c #5B322E",
"6  c #5C302C",
"7  c #5E302D",
"8  c #522E32",
"9  c #423231",
"0  c #523032",
"q  c #523831",
"w  c #61322D",
"e  c #60312E",
"r  c #60322E",
"t  c #613936",
"y  c #683830",
"u  c #6B3A30",
"i  c #6B3C30",
"p  c #6D3D32",
"a  c #6D3C36",
"s  c #643D3A",
"d  c #38403A",
"f  c #4C443C",
"g  c #7B422D",
"h  c #65433E",
"j  c #6A4139",
"k  c #6E463D",
"l  c #734131",
"z  c #734936",
"x  c #7D4A34",
"c  c #7E4B34",
"v  c #7B473C",
"b  c #774C3E",
"n  c #7A4D3E",
"m  c #324D4D",
"M  c #37534F",
"N  c #22575F",
"B  c #395A57",
"V  c #296365",
"C  c #396363",
"Z  c #336D6B",
"A  c #3B7870",
"S  c #5E4A42",
"D  c #545547",
"F  c #555649",
"G  c #575949",
"H  c #525C56",
"J  c #61524C",
"K  c #745245",
"L  c #7E5A50",
"P  c #656253",
"I  c #6C6354",
"U  c #69665A",
"Y  c #776250",
"T  c #4F7E73",
"R  c #6A7663",
"E  c #7D7666",
"W  c #757966",
"Q  c #7D7867",
"!  c #824B34",
"~  c #824E36",
"^  c #875236",
"/  c #8C5437",
"(  c #8C5537",
")  c #8C5637",
"_  c #8C5638",
"`  c #88563D",
"'  c #8E5839",
"]  c #98533C",
"[  c #99523D",
"{  c #864F43",
"}  c #835442",
"|  c #895342",
" . c #855C45",
".. c #885844",
"X. c #8E5D46",
"o. c #905E43",
"O. c #9B5F47",
"+. c #A75942",
"@. c #93614B",
"#. c #97644A",
"$. c #9E694B",
"%. c #9E6A4A",
"&. c #866257",
"*. c #946A50",
"=. c #9B7957",
"-. c #A46144",
";. c #A86347",
":. c #A26D4E",
">. c #A6724F",
",. c #B96B50",
"<. c #AB7551",
"1. c #AF7951",
"2. c #B17853",
"3. c #BD7B57",
"4. c #A57763",
"5. c #AD7A62",
"6. c #C37756",
"7. c #C47C5C",
"8. c #CC7F5D",
"9. c #3D827B",
"0. c #3E847C",
"q. c #4D857A",
"w. c #42897D",
"e. c #5B8878",
"r. c #5E8E7A",
"t. c #718376",
"y. c #768B79",
"u. c #BC8256",
"i. c #BF8456",
"p. c #BF8457",
"a. c #BF8558",
"s. c #BC845F",
"d. c #978267",
"f. c #9C8A73",
"g. c #9C9571",
"h. c #AE9167",
"j. c #A5986E",
"k. c #B28B75",
"l. c #C6825C",
"z. c #C48263",
"x. c #CB8666",
"c. c #D38B69",
"v. c #DB926C",
"b. c #E09A74",
"n. c #E29B76",
"m. c #E59E78",
"M. c #D5A568",
"N. c #DBA37E",
"B. c #E5A078",
"V. c #E6A17A",
"C. c #E8A47E",
"Z. c #E2BE75",
"A. c #EAC579",
"S. c #448D81",
"D. c #4A9183",
"F. c #589A86",
"G. c #55A18B",
"H. c #59A68E",
"J. c #5AA78F",
"K. c #5EAC91",
"L. c #5FAC92",
"P. c #6CA688",
"I. c #6CAC8D",
"U. c #60AE92",
"Y. c #69BA99",
"T. c #6CBB99",
"R. c #6EC29D",
"E. c #6EC39D",
"W. c #6FC39E",
"Q. c #73C09B",
"!. c #88A98B",
"~. c #90A982",
"^. c #84B28D",
"/. c #A8B18B",
"(. c #DFA582",
"). c #DBB08E",
"_. c #EDAD85",
"`. c #F0BB91",
"'. c #F3BC92",
"]. c #F4BE94",
"[. c #B3C69D",
"{. c #B5CAA1",
"}. c #F2C198",
"|. c #F8C499",
" X c #FBCC9F",
".X c #FFD1A4",
"XX c #FFD2A5",
"oX c #FFD3A6",
"OX c None",
/* pixels */
"OXOXOX) ) ) / OX_ ) ' OXOXOXOXOXOXOXOXOXOXOXOXOXOX",
"OXOXOX) ) ) x u ) ) ( ~ w w w 6 OXOXOXOXr OXOXOXOX",
"OXOXOX) ) ) ^ c ) ) ) ^ c y e 7 r > > , OXOXOXOXOX",
"OXOXOX/ _ c ! ) ) ) ) ) ) c l p e 3 < : OXOXOXOXOX",
"OXOXOXOX` i p c c ^ ^ c c ^ ) ^ p p 5 < 1 OXOXOXOX",
"OXOXOXOXOX6 a v v o.| v v o.o.) ) ^ l e 7 OXOXOXOX",
"OXOXOXOXOXOXOXn.m.n.n.n.n.n.2.) ^ y e 3 1 OXOXOXOX",
"OXOXOXOXOXO = l b.c - - - - O.s.y ! l e 7 OXOXOXOX",
"OXOXOXOXOXOX/ ;.,.[ ] -.-.-.z.z.e y 5 < 1 OXOXOXOX",
"OXOXOXOXOXOXOX! +.+.6.7.g g 2.c.O.p | 4.k.OXOXOXOX",
"OXOXOXOXOXOXOX*.+.+.x.N.*.*.s.v.6.p 5.].XXOXOXOXOX",
"W P G OXOXOXOX}.z.7.(.XXXXXX].m.6.v 4.).XXOXOXOXOX",
"D F F D OXOXOXXXXX X X XXXXXXX`.8.8.{ > OXOXOXOXOX",
"OXG f & $ & d.XXXX_.m._.XXXXXX|.m.m.OXOXOXOXOXOXOX",
"OXOX* % & + < &. X X X XXXXX'.C.V.OXOXOXOXOXOXOXOX",
"OXOXOX& + . < k P 5.z.z.z.Q t.y.y.q.J.U.w.OXOXOXOX",
"OXOXOXd m f j b 9 q S J J C A 9.0.G.G.G.H.Y.OXOXOX",
"OXOXOXOX9.I o.#...q M A A D.S.9.0.G.G.H.R.R.W.OXOX",
"OXOXOX9.9.R =.p.p.o.W I.R.R.H.S.9.9.H.R.R.R.R.W.OX",
"OXOXOX9.9.K.~.s.p.p.#.I T.R.R.K.9.9.H.R.R.R.R.E.OX",
"OXw.9.9.9.K.Q.^.s.p.u.>.h P.G.0.9.9.H.R.R.R.R.R.R.",
"OXV N N N G.R.Q.^.h.p.u.<.Y J H 9.OXOXOXT.F.D.D.D.",
"OXV Z Z Z w.W.R.R.^.j.p.p.>...K U OXOXOXOXL.K.K.K.",
"OXE Q Q Q OXOXR.R.R.^.g.:.:.@.b 4 2 OXOXOX{.[.[./.",
"OX3.7.7.,.l.!.K.K.K.K.F.I I I S . @ O OXOXXXXX|._.",
"OXB.n.v.6.v.f.A r.r.e.T Z Z A B . . @ L  XXXXXXXXX",
"OXB.c.6.n.m.@.q Z.A.M.$.. . ; < . . . j V. XXXXXXX",
"OXOXOXb.m.OXs 8 h  .o...n n n n OX  . o OX.XXXoXOX",
"OXOXOXOXOXOXOX8 8 b #.2.2.2.2.1.OXOXOXOXOXOXOXOXOX",
"OXOXOXOXOXOXOXk k j @.p.p.p.p.a.l.OXOXOXOXOXOXOXOX",
"OXOXOXOXOXOXOX} } t n <.p.p.p.p.i.OXOXOXOXOXOXOXOX",
"OXOXOXOXOXOXOX} } j j ..p.p.p.p.i.OXOXOXOXOXOXOXOX",
"OXOXOXOXOXOXOX} } } j j a.i.p.p.u.#.OXOXOXOXOXOXOX",
"OXOXOXOXOXOXOXOX} } j 0 OXp.p.p.p.p.OXOXOXOXOXOXOX",
"OXOXOXOXOXOXOXOX} } } n OXX.>.p.p.p.OXOXOXOXOXOXOX",
"OXOXOXOXOXOXOXOX} } ` OXOXOX1.p.u.$.OXOXOXOXOXOXOX",
"OXOXOXOXOXOXOXOX4 3 6 OXOXOXOX%.z 5 OXOXOXOXOXOXOX",
"OXOXOXOXOXOXOXOXX @ # OXOXOXOXOX@ @ OXOXOXOXOXOXOX",
"OXOXOXOXOXOXOXOX< ; # OXOXOXOXOX8 8 OXOXOXOXOXOXOX",
"OXOXOXOXOXOXOX; ; ; # OXOXOXOXOX8 8 OXOXOXOXOXOXOX"
};
