/* XPM */
static char *result[] = {
/* columns rows colors chars-per-pixel */
"25 40 196 2 ",
"   c #3C1209",
".  c #240B17",
"X  c #250D18",
"o  c #2D121D",
"O  c #32171F",
"+  c #2A1E22",
"@  c #341720",
"#  c #391E26",
"$  c #0B2435",
"%  c #3E2025",
"&  c #352629",
"*  c #322E2F",
"=  c #363330",
"-  c #461F11",
";  c #522719",
":  c #411E2B",
">  c #401F2B",
",  c #421F2A",
"<  c #411F2C",
"1  c #43222A",
"2  c #41202C",
"3  c #47232C",
"4  c #4A242C",
"5  c #4B242D",
"6  c #472D2F",
"7  c #5C2F2E",
"8  c #53312D",
"9  c #54312C",
"0  c #52342D",
"q  c #5A322F",
"w  c #5D312E",
"e  c #522D31",
"r  c #423E3C",
"t  c #60312D",
"y  c #61322D",
"u  c #60312E",
"i  c #60322E",
"p  c #61322E",
"a  c #623D36",
"s  c #6B3A30",
"d  c #6A3932",
"f  c #6C3C33",
"g  c #6F3F32",
"h  c #643D3A",
"j  c #78422E",
"k  c #6F4736",
"l  c #694139",
"z  c #6A413A",
"x  c #7C4934",
"c  c #7D4A34",
"v  c #7F4C34",
"b  c #7B473C",
"n  c #764B3D",
"m  c #7A4D3E",
"M  c #7B4E3F",
"N  c #254A4E",
"B  c #3B4A48",
"V  c #225A5F",
"C  c #3D5757",
"Z  c #296465",
"A  c #2E6966",
"S  c #2B6869",
"D  c #306E6C",
"F  c #327371",
"G  c #525345",
"H  c #525346",
"J  c #565849",
"K  c #575A49",
"L  c #58584A",
"P  c #704F45",
"I  c #7F5140",
"U  c #77544A",
"Y  c #7E5A50",
"T  c #4E635E",
"R  c #616156",
"E  c #6A6657",
"W  c #766E5C",
"Q  c #5F6B60",
"!  c #40766D",
"~  c #5C7E72",
"^  c #647967",
"/  c #7A7766",
"(  c #7D7666",
")  c #844732",
"_  c #824E36",
"`  c #804B3F",
"'  c #875236",
"]  c #8C5236",
"[  c #8C5537",
"{  c #8C5637",
"}  c #8D5737",
"|  c #8C5638",
" . c #8E5738",
".. c #99523C",
"X. c #864F43",
"o. c #835442",
"O. c #845442",
"+. c #845542",
"@. c #8A5742",
"#. c #855C46",
"$. c #8D5E45",
"%. c #8E5D46",
"&. c #935E40",
"*. c #A85A42",
"=. c #93634C",
"-. c #9A6148",
";. c #9E6A4A",
":. c #9D6B4D",
">. c #866257",
",. c #946A50",
"<. c #A46144",
"1. c #A86347",
"2. c #A7734F",
"3. c #B96B50",
"4. c #A97450",
"5. c #AB7551",
"6. c #AB7651",
"7. c #B17853",
"8. c #B67C54",
"9. c #BD7B57",
"0. c #BA7D5F",
"q. c #827D6D",
"w. c #A77762",
"e. c #A27865",
"r. c #AA7A62",
"t. c #AD7B64",
"y. c #C17555",
"u. c #C47857",
"i. c #C57C5C",
"p. c #CC7F5D",
"a. c #3D827B",
"s. c #3D837B",
"d. c #4D857A",
"f. c #41887D",
"g. c #5B8878",
"h. c #5E8D7A",
"j. c #5F8E7B",
"k. c #718376",
"l. c #768B79",
"z. c #7B997D",
"x. c #BC8256",
"c. c #BF8456",
"v. c #BF8457",
"b. c #BF8558",
"n. c #9A8163",
"m. c #B18F65",
"M. c #AB9369",
"N. c #A78B74",
"B. c #94A27C",
"V. c #C6825C",
"C. c #C18162",
"Z. c #C78363",
"A. c #D88F6B",
"S. c #E19B75",
"D. c #E59E78",
"F. c #D5A568",
"G. c #E5A078",
"H. c #E8A47D",
"J. c #E6C277",
"K. c #448B80",
"L. c #499083",
"P. c #4E9786",
"I. c #54A08B",
"U. c #58A68E",
"Y. c #5DAA90",
"T. c #5FAC92",
"R. c #61A88E",
"E. c #6CAA8C",
"W. c #60AE92",
"Q. c #62B294",
"!. c #6DBB98",
"~. c #6ABD9B",
"^. c #77BD97",
"/. c #6EC29D",
"(. c #6EC39D",
"). c #6EC39E",
"_. c #8EAB84",
"`. c #8CAC85",
"'. c #88A98B",
"]. c #A8B18B",
"[. c #DDA480",
"{. c #DBB08E",
"}. c #EDAC84",
"|. c #EDAF86",
" X c #E7BF98",
".X c #F2BC92",
"XX c #F4BE94",
"oX c #B3C69D",
"OX c #B5CAA1",
"+X c #F2C198",
"@X c #F8C499",
"#X c #FBCC9F",
"$X c #FFD1A4",
"%X c #FFD2A5",
"&X c #FFD3A6",
"*X c None",
/* pixels */
"*X*X*X{ { {  .*X| {  .*X*X*X*X*X*X*X*X*X*X*X*X*X*X",
"*X*X*X{ { { c s { { [ _ w w w t *X*X*X*Xp *X*X*X*X",
"*X*X*X{ { { ' v { { { ' x d u y i , , 3 *X*X*X*X*X",
"*X*X*X] | v v { { { { { { x j g u e 4 > *X*X*X*X*X",
"*X*X*X*X} f g v v ' ' v v ' { ' g g q 4 5 *X*X*X*X",
"*X*X*X*X*Xt f b b &.@.b b &.&.{ { ' g u 7 *X*X*X*X",
"*X*X*X*X*X*X*XS.D.S.S.S.S.S.8.{ ' d u e 2 *X*X*X*X",
"*X*X*X*X*X  - j S.v ; ; ; ; -.0.d v g u 7 *X*X*X*X",
"*X*X*X*X*X*X] 1.3.....<.<.<.Z.C.u d q 4 5 *X*X*X*X",
"*X*X*X*X*X*X*X) *.*.y.i.j j 7.A.-.d O.w.N.*X*X*X*X",
"*X*X*X*X*X*X*X,.*.*.Z.[.,.,.C.A.u.d t.XX%X*X*X*X*X",
"/ R L *X*X*X*X+XC.C.[.%X%X%XXXD.u.b e.{.%X*X*X*X*X",
"J H H G *X*X X%X%X#X#X#X%X%X%X.Xp.p.X.: *X*X*X*X*X",
"*XK H = o * n.%X%X}.D.}.%X%X%X@XD.D.*X*X*X*X*X*X*X",
"*X*X# + = + 6 >.#X#X#X#X%X%X.XH.D.*X*X*X*X*X*X*X*X",
"*X*X*X& + X X & R r.Z.Z.Z.q.k.l.l.d.Y.Y.f.*X*X*X*X",
"*X*X*Xr B + % 6 $ ` *.*.*.C S a.a.a.U.W.s.Q.*X*X*X",
"*X*X*X*Xs.B k #.= a P U U C F a.a.P.I.U.I.~.).*X*X",
"*X*X*Xa.a.E :.7.M = N A A K.L.K.a.Y.I.I./././.).*X",
"*X*X*Xa.a.E :.v.v.O.^ !./././.W.a.a.U././././.(.*X",
"*Xf.s.a.a.R.B.v.v.x.=.E /././.W.a.a.U././././././.",
"*XZ V V V I.^._.v.v.8.:.R E.Y.K.a.a.f.*X~.P.L.L.L.",
"*XZ D D D K.Y.^.`.m.v.8.:.W R T s.*X*X*X*XT.Y.Y.Y.",
"*X( / / / ~ Y././._.M.v.v.O.n P Q r *X*X*XOXoXoX].",
"*X9.i.i.3.V.'.W.W.W.z.n.6.$.O.M a % , *X*X%X%X@X|.",
"*XG.S.A.u.A.N.! h.j.g.^ n n n a X X o Y #X%X%X%X%X",
"*XG.A.y.S.D.=.0 J.J.F.:.X X % 1 X X X l H.#X%X%X%X",
"*X*X*XS.D.*Xh e l #.$.O.n n M m *X. X O *X$X%X&X*X",
"*X*X*X*X*X*X*Xe e n O.$.7.7.-.+.*X*X*X*X*X*X*X*X*X",
"*X*X*X*X*X*X*Xl e a O.6.v.v.7.5.V.*X*X*X*X*X*X*X*X",
"*X*X*X*X*X*X*XI l q @.v.v.v.v.v.c.*X*X*X*X*X*X*X*X",
"*X*X*X*X*X*X*XO.O.l I 4.v.v.v.v.c.*X*X*X*X*X*X*X*X",
"*X*X*X*X*X*X*Xo.O.O.l z b.c.v.v.x.=.*X*X*X*X*X*X*X",
"*X*X*X*X*X*X*X*Xo.O.l w *Xv.v.v.v.v.*X*X*X*X*X*X*X",
"*X*X*X*X*X*X*X*Xo.O.I m *X%.2.v.v.v.*X*X*X*X*X*X*X",
"*X*X*X*X*X*X*X*Xo.O.+.*X*X*X9.v.x.:.*X*X*X*X*X*X*X",
"*X*X*X*X*X*X*X*X8 0 9 *X*X*X*X;.k q *X*X*X*X*X*X*X",
"*X*X*X*X*X*X*X*X@ o # *X*X*X*X*X@ @ *X*X*X*X*X*X*X",
"*X*X*X*X*X*X*X*X1 < # *X*X*X*X*Xe e *X*X*X*X*X*X*X",
"*X*X*X*X*X*X*X< < < # *X*X*X*X*Xe e *X*X*X*X*X*X*X"
};
