/* XPM */
static char *result[] = {
/* columns rows colors chars-per-pixel */
"25 40 193 2 ",
"   c #250D18",
".  c #250F18",
"X  c #30131E",
"o  c #33171F",
"O  c #2A1D23",
"+  c #3C1F23",
"@  c #3C1B27",
"#  c #0A2435",
"$  c #302524",
"%  c #342B29",
"&  c #3E282A",
"*  c #3A312D",
"=  c #262D36",
"-  c #2D3D3F",
";  c #363934",
":  c #3C3C38",
">  c #552A1B",
",  c #411F2C",
"<  c #41202C",
"1  c #46222C",
"2  c #44242C",
"3  c #49242E",
"4  c #4D272C",
"5  c #50282D",
"6  c #572C2D",
"7  c #572D2D",
"8  c #53312D",
"9  c #52312F",
"0  c #5B352E",
"q  c #532D31",
"w  c #5A3434",
"e  c #513E38",
"r  c #61312E",
"t  c #60322E",
"y  c #65352E",
"u  c #6D3E2A",
"i  c #743D28",
"p  c #633330",
"a  c #623631",
"s  c #623B34",
"d  c #693930",
"f  c #693931",
"g  c #6E3E32",
"h  c #683F37",
"j  c #6C423B",
"k  c #6D4439",
"l  c #734132",
"z  c #754232",
"x  c #714936",
"c  c #7B4934",
"v  c #7F4B34",
"b  c #71473A",
"n  c #774738",
"m  c #71463F",
"M  c #764E39",
"N  c #784B3F",
"B  c #183E49",
"V  c #1F555C",
"C  c #3D575A",
"Z  c #286365",
"A  c #286465",
"S  c #2D6B6A",
"D  c #464F49",
"F  c #565849",
"G  c #575949",
"H  c #56584A",
"J  c #7F4C40",
"K  c #665149",
"L  c #6A6455",
"P  c #4B6A64",
"I  c #537368",
"U  c #50786C",
"Y  c #4E7F74",
"T  c #647463",
"R  c #667B6B",
"E  c #787E6B",
"W  c #864732",
"Q  c #824E35",
"!  c #855036",
"~  c #8A5437",
"^  c #8D5736",
"/  c #8C5637",
"(  c #8C5737",
")  c #8D5737",
"_  c #80503C",
"`  c #8F5039",
"'  c #8C5638",
"]  c #8D5738",
"[  c #97563E",
"{  c #805341",
"}  c #835442",
"|  c #8B5344",
" . c #8D5C43",
".. c #8F5F45",
"X. c #805C4C",
"o. c #A65A42",
"O. c #A75A42",
"+. c #A85A42",
"@. c #926148",
"#. c #9E6A4A",
"$. c #9E694C",
"%. c #996D4E",
"&. c #8E6154",
"*. c #8A6850",
"=. c #936A51",
"-. c #A56F4E",
";. c #A5714F",
":. c #B76B50",
">. c #BE7253",
",. c #B07852",
"<. c #B57D53",
"1. c #B27956",
"2. c #BC7B5B",
"3. c #84796A",
"4. c #977163",
"5. c #9C7866",
"6. c #AC7860",
"7. c #C47757",
"8. c #C17D57",
"9. c #C87E5E",
"0. c #3D827B",
"q. c #3D837B",
"w. c #3D827C",
"e. c #3D837C",
"r. c #3F847C",
"t. c #618174",
"y. c #B98055",
"u. c #BF8456",
"i. c #BF8457",
"p. c #BE8458",
"a. c #9E886C",
"s. c #8F8F79",
"d. c #908F7A",
"f. c #879E7D",
"g. c #959975",
"h. c #9E9179",
"j. c #AB8264",
"k. c #B38D63",
"l. c #BD8E73",
"z. c #97A37C",
"x. c #C08264",
"c. c #C98767",
"v. c #CD8A68",
"b. c #D6906C",
"n. c #DD946E",
"m. c #D29574",
"M. c #DB9470",
"N. c #D99C7B",
"B. c #E09974",
"V. c #E49D77",
"C. c #E59E78",
"Z. c #E49F78",
"A. c #C4A36B",
"S. c #D1B977",
"D. c #D8BF7A",
"F. c #499183",
"G. c #4D9887",
"H. c #509A88",
"J. c #629D85",
"K. c #54A08B",
"L. c #57A48C",
"P. c #57A48D",
"I. c #58A48D",
"U. c #59A68E",
"Y. c #5EAC91",
"T. c #5FAD92",
"R. c #6CAF8F",
"E. c #62B194",
"W. c #66B797",
"Q. c #69BB99",
"!. c #6CBF9B",
"~. c #7DB892",
"^. c #78BC96",
"/. c #76BB98",
"(. c #6CC09C",
"). c #6EC29D",
"_. c #6EC39D",
"`. c #6EC29E",
"'. c #96B691",
"]. c #EBA881",
"[. c #EFB28A",
"{. c #F1B990",
"}. c #9EC49D",
"|. c #9FC89F",
" X c #EFC39B",
".X c #F4C096",
"XX c #F8C59A",
"oX c #FCCEA2",
"OX c #FECFA3",
"+X c #FFD2A4",
"@X c #FFD2A5",
"#X c #FFD3A5",
"$X c None",
/* pixels */
"$X$X$X$X$X$X$X$X$X$X$X$X$X$X$X$X$X$X$X$X$X$X$X$X$X",
"$X$X$X) ) ) n f ~ ) ) ] $X$X$X$X$X$X$X$Xa $X$X$X$X",
"$X$X$X/ / / ! v ~ / / ' ] y y y 6 $X$X$Xr $X$X$X$X",
"$X$X$X] ' v Q / / / / / / c d t p 6 $X3 5 $X$X$X$X",
"$X$X$X$X' g z / / / / / / / v d t 4 2 , < $X$X$X$X",
"$X$X$X$X( l z ! ! ~ ~ ! ! ~ / Q d d q 2 1 $X$X$X$X",
"$X$X$X$X$X^ c p p Q c p p ! / / / ~ z t r $X$X$X$X",
"$X$X$X$X$X$Xc.b.b.M.b.b.b.M.,./ ~ g p q 1 $X$X$X$X",
"$X$X$X$X$X$X> ! B. .u u u u $.1.g c g t 7 $X$X$X$X",
"$X$X$X$X$X$Xi [ 7.` W ` ` ` 2.x.p g t 4 5 $X$X$X$X",
"$X$X$X$X$X$X$X[ O.+.>.9.` ` 2.v.| d N &.4.$X$X$X$X",
"$X$X$X$X$X$X$X_ o.+.9.m.M M 1.M.7.g 6.{.@X$X$X$X$X",
"E L G $X$X$X$X.X:.:.N.@X@X@X{.B.7.j j. X+X$X$X$X$X",
"H H H F $X$X$X@XoXoX@X@X@X@X@X{.9.7.J 3 $X$X$X$X$X",
"$XG D : . % a.@X@X[.].[.@X@X@X.XB.B.c.$X$X$X$X$X$X",
"$X$X* O $ $ e 5.oXXX.XXX@X@X.X].C.$X$X$X$X$X$X$X$X",
"$X$X$X$ $     2 3.l.m.m.m.h.d.d.s.t.Y.Y.$X$X$X$X$X",
"$X$X$X; - O o & # J +.+.O.D S 0.0.0.U.T.q.Y.$X$X$X",
"$X$X$X$Xq.: s { = j | | | C S 0.0.F.L.U.F.Q./.$X$X",
"$X$X$X0.0.L $.,.j = B V V 0.r.r.r.E.K.H.).).)._.$X",
"$X$X$X0.0.L $.i.y.N R Q.Q.Q.!.T.0.r.U.!.).).)._.$X",
"$X$Xe.0.0.J.g.i.i.,.*.T ).).).E.0.0.U.).).).).).`.",
"$XA Z Z Z L.~.z.i.i.,.=.T R.T.F.0.0.G.(.!.K.H.H.H.",
"$XA Z Z Z F.E.^.z.k.i.<.@.E T P r.w.$X$X(.P.K.K.K.",
"$Xt.R R R Y I.).).z.k.i.i.} j K I $X$X$X$X|.}.}.'.",
"$X8.7.>.:.$X/.W.W.W.f.j.<.@.} { b 4 @ $X$X#X@XXX].",
"$XZ.V.M.>.b.h.0.r.r.r.U { { } h     o X.@X@X@X@X@X",
"$XZ.b.7.M.V.=.e S.D.A.=.o o 2 4       j ].oX@X@X@X",
"$X$Xn.M.V.$Xm 9 X.%.%. .h  .} k $X.   + $XOX@X#X$X",
"$X$X$X$X$X$X$Xq q N @.;.;.y.1.-.$X$X$X$X$X$X$X$X$X",
"$X$X$X$X$X$X$Xh h j @.i.i.i.i.p.$X$X$X$X$X$X$X$X$X",
"$X$X$X$X$X$X$X} } s { 1.i.i.i.i.u.$X$X$X$X$X$X$X$X",
"$X$X$X$X$X$X$X} } h j  .i.i.i.i.u.$X$X$X$X$X$X$X$X",
"$X$X$X$X$X$X$X} } } j j i.i.i.i.i...$X$X$X$X$X$X$X",
"$X$X$X$X$X$X$X$X} } j w $Xi.i.i.i.<.$X$X$X$X$X$X$X",
"$X$X$X$X$X$X$X$X} } J n $X$X8.i.i.$.$X$X$X$X$X$X$X",
"$X$X$X$X$X$X$X$X8 9 a $X$X$X$X#.x 0 $X$X$X$X$X$X$X",
"$X$X$X$X$X$X$X$XX o @ $X$X$X$X$Xo o $X$X$X$X$X$X$X",
"$X$X$X$X$X$X$X$X2 , @ $X$X$X$X$Xq q $X$X$X$X$X$X$X",
"$X$X$X$X$X$X$X, , , @ $X$X$X$X$Xq q $X$X$X$X$X$X$X"
};
