/* XPM */
static char *result[] = {
/* columns rows colors chars-per-pixel */
"45 45 9 1 ",
"  c #030100",
". c #130500",
"X c #271507",
"o c #422811",
"O c #754D29",
"+ c #FF0929",
"@ c #CDC1C1",
"# c gray92",
"$ c None",
/* pixels */
"$$$$$$$$$$$$$$$$$$$$$$$$$$$$$$$$$$$$$$$$$$$$$",
"$$$$$$$$$$$$$$$$$$$$$$$$$$$$$$$$$$$$$$$$$$$$$",
"$$$$$$$$$$$$$$$$$$$$$$$$$$$$$$$$$$$$$$$$$$$$$",
"$$$  X$$$$$$$$$$$$$$$$$$$$$$$$$XX$$$$$$$$$$$$",
"$$$$o O$$$$$$$$$$$$$$$$$$$$$$$$  X$$$$$$ X$$$",
"$$$OoooO$$$$$$$$$$$$$$$$$$$$$$$O X$$$$OOO X$$",
"$$X ooooO$$$$$$$$$$$$$$$$$$$$$Oo  $$OOOoo  $$",
"$$  $ooooOOOOOO$$$$$$$$$$$$$$OOoo OOOooo$$ $$",
"$$$ $$$OoooooooOOOOOOOOO$$$OOooooOOooooo$$$$$",
"$$$$$$XooooooooO###OOOoOO$OOoooooooooooo$$$$$",
"$$$$$X oooooooo#####ooooOOOoooooooooooooO$$$$",
"$$$$$  $$$$$$$##+####oooOooooooooooooooooO$$$",
"$$$$$$$$$$$$$$##+###@oooOooooooooooooooo X$$$",
"$$$$$$$$$$$$$$##+##@@oooooooooooooooooooo X$$",
"$$$$$$$$$$$$$$o###@@oOOOoooo$$$$$$$oooO$$$ $$",
"$$$$$$$$$$$$$$$o@@@OOOooooo$$$$$$$$$$oXX$$$$$",
"$$$$$$$$$$$$$$o.ooOOo.#oooo$$$$$$$$$$$ X$$$$$",
"$$$$$$$$$$$$$$$.#.#.#...ooo$$$$$$$$$$$$ $$$$$",
"$$$$$$$$$$$$$$$$........oo$$$$$$$$$$$$$$$$$$$",
"$$$$$$$$$$$$$$$$........ooO$XX$$$$$$$$$$$$$$$",
"$$$$$$$$$$$$$$$$$#.#.#.#oOOO  $$$$$$$$$$$$$$$",
"$$$$$$$$$$$$$$XoO$OOOOOOoOoo$ $$$$$$$$$$$$$$$",
"$$$$$$$$$$$$$X OoOoooooooOo$$$$$$$$$$$$$$$$$$",
"$$$$$$$$$$$$$ $oooo$ooO$oo $$$$$$$$$$$$$$$$$$",
"$$$$$$$$$$$$$$$Xoo$$oO$oo XX$$$$$$$$$$$$$$$$$",
"$$$$$$$$$$$$$$X $$$$oO$$$$$$$$$$$$$$$$$$$$$$$",
"$$$$$$$$$$$$$$$$$$$$oO$$$$$$$$$$$$$$$$$$$$$$$",
"$$$$$$$$$$$$$$$$$$$$oO$$$$$$$$$$$$$$$$$$$$$$$",
"$$$$$$$$$$$$$$$$$$$$oO$$$$$$$$$$$$$$$$$$$$$$$",
"$$$$$$$$$$$$$$$$$$$$oo$$$$$$$$$$$$$$$$$$$$$$$",
"$$$$$$$$$$$$$$$$$$$$$o$$$$$$$$$$$$$$$$$$$$$$$",
"$$$$$$$$$$$$$$$$$$$$$o$$$$$$$$$$$$$$$$$$$$$$$",
"$$$$$$$$$$$$$$$$$$$$$$$$$$$$$$$$$$$$$$$$$$$$$",
"$$$$$$$$$$$$$$$$$$$$$$$$$$$$$$$$$$$$$$$$$$$$$",
"$$$$$$$$$$$$$$$$$$$$$$$$$$$$$$$$$$$$$$$$$$$$$",
"$$$$$$$$$$$$$$$$$$$$$$$$$$$$$$$$$$$$$$$$$$$$$",
"$$$$$$$$$$$$$$$$$$$$$$$$$$$$$$$$$$$$$$$$$$$$$",
"$$$$$$$$$$$$$$$$$$$$$$$$$$$$$$$$$$$$$$$$$$$$$",
"$$$$$$$$$$$$$$$$$$$$$$$$$$$$$$$$$$$$$$$$$$$$$",
"$$$$$$$$$$$$$$$$$$$$$$$$$$$$$$$$$$$$$$$$$$$$$",
"$$$$$$$$$$$$$$$$$$$$$$$$$$$$$$$$$$$$$$$$$$$$$",
"$$$$$$$$$$$$$$$$$$$$$$$$$$$$$$$$$$$$$$$$$$$$$",
"$$$$$$$$$$$$$$$$$$$$$$$$$$$$$$$$$$$$$$$$$$$$$",
"$$$$$$$$$$$$$$$$$$$$$$$$$$$$$$$$$$$$$$$$$$$$$",
"$$$$$$$$$$$$$$$$$$$$$$$$$$$$$$$$$$$$$$$$$$$$$"
};
