/* XPM */
static char *result[] = {
/* columns rows colors chars-per-pixel */
"45 45 9 1 ",
"  c #030100",
". c #130500",
"X c #271507",
"o c #422811",
"O c #754D29",
"+ c #FF0929",
"@ c #CDC1C1",
"# c gray92",
"$ c None",
/* pixels */
"$$$$$$$$$$$$$$$$$$$$$$$$$$$$$$$$$$$$$$$$$$$$$",
"$$$$$$$$$$$$$$$$$$$$$$$$$$$$$$$$$$$$$$$$$$$$$",
"$$$$$$$$$$$$$$$$$$$$$$$$$$$$$$$$$$$$$$$$$$$$$",
"$$$$$$$$$$$$$$$$$$$$$$$$$$$$$$$$$$$$$$$$$$$$$",
"$$$$$$$$$$$$$$$$$$$$$$$$$$$$$$$$$$$$$$$$$$$$$",
"$$$$$$$$$$$$$$$$$###$$$$$$$$$$$$$$$$$$$$$$$$$",
"$$$$$$$$$$$$$$$$#####$$$$$$$$$$$$$$$$$$$$$$$$",
"$$$ X$$$$$$$$$$##+####O$$$$$$$$$$$$$$$$$$$$$$",
"$$ o OOO$$$$$$O##+###@OO$$$$$$$$$ X$$$$$$$$$$",
"$$$OooooO$$$$OO##+##@@oO$$$$$$OOOO X$$$$$$$$$",
"$$$OoooooOOOOOOo###@@ooOOOOOOOOOo X$$$$$$$$$$",
"$$X  $oOoooooOooo@@@oooooOOooooooo O$$$$$X$$$",
"$$$ $$$Oooooo#.#.#.#.#ooOooooooooOOoOOOOOOX$$",
"$$$ $$Xoooooo#.#.#.#.#Ooooooooooooooooooo X$$",
"$$$$$$X o$$$$..........ooooooooooooooooo$ X$$",
"$$$$$$  $$$$$..........oooooooooooooooo$$ $$$",
"$$$$$$$$$$$$$..........ooo$$$oooooooooo$$$$$$",
"$$$$$$$$$$$$$$.........oo$$$$$$oooooooo$$$$$$",
"$$$$$$$$$$$$$$........#oo$$$$$$$$ooooooO$$$$$",
"$$$$$$$$$$$$$$#.#.#.#.#oo$$$$$$$$$oooo X$$$$$",
"$$$$$$$$$$$$$$#.#.#.#.OooO$XX$$$$$oX $  $$$$$",
"$$$$$$$$$$XoO$ooooooooooOOO  $$$$$$X $$ $$$$$",
"$$$$$$$$$X OoOoo$oooo$$$Ooo$ $$$$$$X$$  $$$$$",
"$$$$$$$$$ $oooo$$oooo$$$Oo$$$$$$$$X $$$$$$$$$",
"$$$$$$$$$$$Xoo$$Ooo$$$$oo $$$$$$$$ $$$$$$$$$$",
"$$$$$$$$$$X $$$$Oo$$$$$o XX$$$$$$$$$$$$$$$$$$",
"$$$$$$$$$$$$$$$$oo$$$$$$$$$$$$$$$$$$$$$$$$$$$",
"$$$$$$$$$$$$$$$Oo$$$$$$$$$$$$$$$$$$$$$$$$$$$$",
"$$$$$$$$$$$$$$$o$$$$$$$$$$$$$$$$$$$$$$$$$$$$$",
"$$$$$$$$$$$$$$$o$$$$$$$$$$$$$$$$$$$$$$$$$$$$$",
"$$$$$$$$$$$$$$$$$$$$$$$$$$$$$$$$$$$$$$$$$$$$$",
"$$$$$$$$$$$$$$$$$$$$$$$$$$$$$$$$$$$$$$$$$$$$$",
"$$$$$$$$$$$$$$$$$$$$$$$$$$$$$$$$$$$$$$$$$$$$$",
"$$$$$$$$$$$$$$$$$$$$$$$$$$$$$$$$$$$$$$$$$$$$$",
"$$$$$$$$$$$$$$$$$$$$$$$$$$$$$$$$$$$$$$$$$$$$$",
"$$$$$$$$$$$$$$$$$$$$$$$$$$$$$$$$$$$$$$$$$$$$$",
"$$$$$$$$$$$$$$$$$$$$$$$$$$$$$$$$$$$$$$$$$$$$$",
"$$$$$$$$$$$$$$$$$$$$$$$$$$$$$$$$$$$$$$$$$$$$$",
"$$$$$$$$$$$$$$$$$$$$$$$$$$$$$$$$$$$$$$$$$$$$$",
"$$$$$$$$$$$$$$$$$$$$$$$$$$$$$$$$$$$$$$$$$$$$$",
"$$$$$$$$$$$$$$$$$$$$$$$$$$$$$$$$$$$$$$$$$$$$$",
"$$$$$$$$$$$$$$$$$$$$$$$$$$$$$$$$$$$$$$$$$$$$$",
"$$$$$$$$$$$$$$$$$$$$$$$$$$$$$$$$$$$$$$$$$$$$$",
"$$$$$$$$$$$$$$$$$$$$$$$$$$$$$$$$$$$$$$$$$$$$$",
"$$$$$$$$$$$$$$$$$$$$$$$$$$$$$$$$$$$$$$$$$$$$$"
};
