/* XPM */
static char *result[] = {
/* columns rows colors chars-per-pixel */
"45 45 9 1 ",
"  c #030100",
". c #130500",
"X c #271507",
"o c #422811",
"O c #754D29",
"+ c #FF0929",
"@ c #CDC1C1",
"# c gray92",
"$ c None",
/* pixels */
"$$$$$$$$$$$$$$$$$$$$$$$$$$$$$$$$$$$$$$$$$$$$$",
"$$$$$$$$$$$$$$$$$$$$$$$$$$$$$$$$$$$$$$$$$$$$$",
"$$$$$$$$$$$$$$$$$$$$$$$$$$$$$$$$$$$$$$$$$$$$$",
"$$$$$$$$$$$$$$$$$$$$$$$$$$$$$$$$$$$$$$$$$$$$$",
"$$$$$$$ $$$$$$$$$$$$$$$$$$$$$$$$$$$$$$$$$$$$$",
"$$$$$$ oX$$$$$$$$$$$$$$$$$$$$$$$$$$$$$$$$$$$$",
"$$$$$$OoOOO$$$$$###$$$$$$$$$$$ XX$$$$$$OX$$$$",
"$$$$$$OooooO$$$#####$$$$$$$$$$OOX$$$$OO X$$$$",
"$$$$$X  $oooO$##+####O$$$$$$OOoooO$OOooo X$$$",
"$$$$$$ $$oOooO##+###@OO$$$$$Ooooooooooo$ $$$$",
"$$$$$$$$XOoooO##+##@@oO$$$OOoooooooooo$$$$$$$",
"$$$$$$$$X oooOo###@@ooOOOOooooooooooooo$$$$$$",
"$$$$$$$$  o$Oooo@@@oooooOoooooooooooooo$$$$$$",
"$$$$$$$$$$$$#.#.#.#.#oooOoooooooooooooooO$$$$",
"$$$$$$$$$$$$#.#.#.#.#Oooooooooooooooooo XX$$$",
"$$$$$$$$$$$$..........ooooooooooooooooo$  $$$",
"$$$$$$$$$$$$..........ooooooo$$$$$$$oX $$$$$$",
"$$$$$$$$$$$$..........oooo$$$$$$$$$$oX  $$$$$",
"$$$$$$$$$$$$$.........oo$$$$$$$$$$$$$$$ $$$$$",
"$$$$$$$$$$$$$........#oo$$$OXX$$$$$$$$$$$$$$$",
"$$$$$$$$$$$$$#.#.#.#.#ooOOOO  $$$$$$$$$$$$$$$",
"$$$$$$$$$XoO$#.#.#.#.OoooOoo$ $$$$$$$$$$$$$$$",
"$$$$$$$$X OoOoooooooooo$oOo$$$$$$$$$$$$$$$$$$",
"$$$$$$$$ $oooo$$$$oooo$$oo $$$$$$$$$$$$$$$$$$",
"$$$$$$$$$$Xoo$$$$Ooo$$$$o XX$$$$$$$$$$$$$$$$$",
"$$$$$$$$$X $$$$$$Oo$$$$$$$$$$$$$$$$$$$$$$$$$$",
"$$$$$$$$$$$$$$$$$oo$$$$$$$$$$$$$$$$$$$$$$$$$$",
"$$$$$$$$$$$$$$$$Oo$$$$$$$$$$$$$$$$$$$$$$$$$$$",
"$$$$$$$$$$$$$$$$o$$$$$$$$$$$$$$$$$$$$$$$$$$$$",
"$$$$$$$$$$$$$$$$o$$$$$$$$$$$$$$$$$$$$$$$$$$$$",
"$$$$$$$$$$$$$$$$$$$$$$$$$$$$$$$$$$$$$$$$$$$$$",
"$$$$$$$$$$$$$$$$$$$$$$$$$$$$$$$$$$$$$$$$$$$$$",
"$$$$$$$$$$$$$$$$$$$$$$$$$$$$$$$$$$$$$$$$$$$$$",
"$$$$$$$$$$$$$$$$$$$$$$$$$$$$$$$$$$$$$$$$$$$$$",
"$$$$$$$$$$$$$$$$$$$$$$$$$$$$$$$$$$$$$$$$$$$$$",
"$$$$$$$$$$$$$$$$$$$$$$$$$$$$$$$$$$$$$$$$$$$$$",
"$$$$$$$$$$$$$$$$$$$$$$$$$$$$$$$$$$$$$$$$$$$$$",
"$$$$$$$$$$$$$$$$$$$$$$$$$$$$$$$$$$$$$$$$$$$$$",
"$$$$$$$$$$$$$$$$$$$$$$$$$$$$$$$$$$$$$$$$$$$$$",
"$$$$$$$$$$$$$$$$$$$$$$$$$$$$$$$$$$$$$$$$$$$$$",
"$$$$$$$$$$$$$$$$$$$$$$$$$$$$$$$$$$$$$$$$$$$$$",
"$$$$$$$$$$$$$$$$$$$$$$$$$$$$$$$$$$$$$$$$$$$$$",
"$$$$$$$$$$$$$$$$$$$$$$$$$$$$$$$$$$$$$$$$$$$$$",
"$$$$$$$$$$$$$$$$$$$$$$$$$$$$$$$$$$$$$$$$$$$$$",
"$$$$$$$$$$$$$$$$$$$$$$$$$$$$$$$$$$$$$$$$$$$$$"
};
