/* XPM */
static char *result[] = {
/* columns rows colors chars-per-pixel */
"45 45 8 1 ",
"  c #0A0200",
". c #271507",
"X c #422811",
"o c #754D29",
"O c #FF0929",
"+ c #CDC1C1",
"@ c gray92",
"# c None",
/* pixels */
"#############################################",
"#############################################",
"#############################################",
"#############################################",
"#############################################",
"#############################################",
"#############################################",
"###################  .#######################",
"################ .## ooo#####################",
"###############  o.##XXX#####################",
"################XXXooXX. #############. .####",
"################XXXXXXX############ #o ######",
"###############oXXXXXX############  XXXoo..##",
"##############oXXXXX#############oXXXXXX   ##",
"#############ooXXX#############ooXXXXXXXX#..#",
"###########@@@@@@#############oXXXXXXXXXXX  #",
"##########@@@@@@@@@oo#######ooXXXXXXXXXXX ###",
"##########@OOOOO@@+#Xoo###ooXXXXXXXXXXXXX####",
"#########o@@@@@@+++XXXooooXXXXXXXXXXXXX######",
"#########XXXX+++XXXXXXXXXXXXXXXXXX###########",
"#########XXXXXXXXXXXXXXXXXXXXXXX#############",
"#########XXXXXXXXXXXXXXXXXXXXXX##############",
"######### @XXXXXXXXXXXXXXXXXX################",
"######### @ @ @ @ @ @XXXX####################",
"######### @ @ @ @ @ @XXX#####################",
"######### @ @ @ @ @ @XXX##o..################",
"##########XXXXXXXXXXXXXoooo  ################",
"##############XXXX# ###XoXX# ################",
"###############XX.#####XoX###################",
"################# .####XX ###################",
"#######################X ..##################",
"#############################################",
"#############################################",
"#############################################",
"#############################################",
"#############################################",
"#############################################",
"#############################################",
"#############################################",
"#############################################",
"#############################################",
"#############################################",
"#############################################",
"#############################################",
"#############################################"
};
