/* XPM */
static char *result[] = {
/* columns rows colors chars-per-pixel */
"45 45 8 1 ",
"  c #090200",
". c #271507",
"X c #422811",
"o c #754D29",
"O c #FF0929",
"+ c #CDC1C1",
"@ c gray92",
"# c None",
/* pixels */
"#############################################",
"#############################################",
"#############################################",
"#############################################",
"#############################################",
"#############################################",
"#############################################",
"#############################################",
"#################  .#########################",
"############## .## ooo#######################",
"#############  o.##XXX#######################",
"##############XXXooXX. ############. .#######",
"##############XXXXXXX########### #o #########",
"#############oXXXXXX###########  XXXoo..#####",
"############oXXXXX############oXXXXXX   #####",
"###########o@@@X############ooXXXXXXXX#..####",
"###########@@@@@###########oXXXXXXXXXXX  ####",
"##########@@O@@@@o#######ooXXXXXXXXXXX ######",
"##########@@O@@@+#oo###ooXXXXXXXXXXXXX#######",
"##########@@O@@++XXooooXXXXXXXXXXXXX#########",
"#########XX@@@++XXXXXXXXXXXXXXX##############",
"########XXXX+++XXXXXXXXXXXXXX################",
"########XXXXXXXXXXXXXXXXXXXX#################",
"########XXXXXXXXXXXXXXXXXX###################",
"########@ @ @ @ @ XXXX#######################",
"########@ @ @ @ @ XXX########################",
"########@ @ @ @ @ XXX###o..##################",
"#########XXXXXXXXXXXXoooo  ##################",
"############XXXX# ###XoXX# ##################",
"#############XX.#####XoX#####################",
"############### .####XX #####################",
"#####################X ..####################",
"#############################################",
"#############################################",
"#############################################",
"#############################################",
"#############################################",
"#############################################",
"#############################################",
"#############################################",
"#############################################",
"#############################################",
"#############################################",
"#############################################",
"#############################################"
};
