/* XPM */
static char *result[] = {
/* columns rows colors chars-per-pixel */
"90 90 146 2 ",
"   c #020202",
".  c #0B0B0B",
"X  c gray8",
"o  c #1B1B1B",
"O  c #252525",
"+  c #282728",
"@  c #2B2B2B",
"#  c #333333",
"$  c #3C3C3C",
"%  c #444344",
"&  c #4C4C4C",
"*  c #535353",
"=  c #5C5C5C",
"-  c #636363",
";  c #6B6B6B",
":  c #757575",
">  c #7B7B7B",
",  c #797DE6",
"<  c #AE6DD7",
"1  c #A86DD8",
"2  c #B06BD7",
"3  c #AD7BD8",
"4  c #B674D6",
"5  c #B57BD7",
"6  c #B97CD6",
"7  c #B17BD8",
"8  c #E867C8",
"9  c #E76DC9",
"0  c #E673CA",
"q  c #E57BCB",
"w  c #7C81E6",
"e  c #858585",
"r  c gray55",
"t  c #939393",
"y  c #9F9F9F",
"u  c #A3A3A3",
"i  c #ADADAD",
"p  c #B4B4B4",
"a  c gray73",
"s  c #9587DE",
"d  c #9B86DD",
"f  c #938ADF",
"g  c #9D8BDD",
"h  c #9F9ADF",
"j  c #A384DB",
"k  c #AB83D9",
"l  c #A589DB",
"z  c #AB88D9",
"x  c #BA82D6",
"c  c #BA8AD7",
"v  c #B585D8",
"b  c #B68BD8",
"n  c #B98ED8",
"m  c #A797DD",
"M  c #AC96DC",
"N  c #A399DE",
"B  c #AB9CDD",
"V  c #BE91D7",
"C  c #B394DA",
"Z  c #B993D8",
"A  c #B49DDB",
"S  c #BA9AD9",
"D  c #A6A3DE",
"F  c #ACA2DD",
"G  c #AAAADF",
"H  c #B3A6DC",
"J  c #BBA4DA",
"K  c #AEB0DE",
"L  c #BDBDDC",
"P  c #8186E4",
"I  c #878AE3",
"U  c #8B8BE2",
"Y  c #918CE0",
"T  c #8D90E2",
"R  c #9295E2",
"E  c #9699E2",
"W  c #9B9BE1",
"Q  c #A09BE0",
"!  c #9DA0E1",
"~  c #A2A4E0",
"^  c #A6A8E0",
"/  c #ACAEE0",
"(  c #DD8CCE",
")  c #DE96CF",
"_  c #DE99CF",
"`  c #C68FD5",
"'  c #CC8ED3",
"]  c #D48DD1",
"[  c #DA8DD0",
"{  c #C492D6",
"}  c #CB92D4",
"|  c #C59AD6",
" . c #CB9BD5",
".. c #D493D3",
"X. c #DB95D1",
"o. c #D49BD2",
"O. c #DB9AD0",
"+. c #E485CC",
"@. c #E28CCD",
"#. c #E192CE",
"$. c #E099CF",
"%. c #E19CD0",
"&. c #C5A3D7",
"*. c #CBA1D5",
"=. c #C7AAD7",
"-. c #CCAFD7",
";. c #C5ABD8",
":. c #DEA5D0",
">. c #D5AFD5",
",. c #DCADD2",
"<. c #CDB0D7",
"1. c #C6B2D8",
"2. c #C9B4D8",
"3. c #C3BBDA",
"4. c #CBBBD8",
"5. c #D3B5D6",
"6. c #DBB5D4",
"7. c #DCBCD4",
"8. c #C4C4C4",
"9. c #CCCCCC",
"0. c #C0C1DC",
"q. c #CEC2D8",
"w. c #C7C8DB",
"e. c #CDCBDA",
"r. c #D5C5D7",
"t. c #DAC5D6",
"y. c #DACCD6",
"u. c #D1C5D8",
"i. c #D2CDD9",
"p. c #CFD0D9",
"a. c #D5D5D5",
"s. c #D8D3D7",
"d. c #D9DAD7",
"f. c #D5D2DD",
"g. c #D9D4DB",
"h. c #D7DAD8",
"j. c #D9DBD9",
"k. c #D2D2E0",
"l. c #DBD9E1",
"z. c #E4E4E4",
"x. c #E8E8E7",
"c. c #EBEBEB",
"v. c #F3F3F3",
"b. c #F8F8F7",
"n. c #FFFFFF",
"m. c None",
/* pixels */
"m.m.m.m.m.m.m.m.m.m.m.m.m.m.m.m.m.m.m.m.m.m.m.m.m.m.m.m.m.m.m.m.m.m.m.m.m.m.m.m.m.m.m.m.m.m.m.m.m.m.m.m.m.m.m.m.m.m.m.m.m.m.m.m.m.m.m.m.m.m.m.m.m.m.m.m.m.m.m.m.m.m.m.m.m.m.m.m.m.m.",
"m.m.m.m.m.m.m.m.m.m.m.m.m.m.m.m.m.m.m.m.m.m.m.m.m.m.m.m.m.m.m.m.m.m.m.m.m.m.m.m.m.m.m.m.m.m.m.m.m.m.m.m.m.m.m.m.m.m.m.m.m.m.m.m.m.m.m.m.m.m.m.m.m.m.m.m.m.m.m.m.m.m.m.m.m.m.m.m.m.m.",
"m.m.m.m.m.m.m.m.m.m.m.m.m.m.m.m.m.m.m.m.m.m.m.m.m.m.m.m.m.m.m.m.m.m.m.m.m.m.m.m.m.m.m.m.m.m.m.m.m.m.m.m.m.m.m.m.m.m.m.m.m.m.m.m.m.m.m.m.m.m.m.m.m.m.m.m.m.m.m.m.m.m.m.m.m.m.m.m.m.m.",
"m.m.m.m.m.m.m.m.m.m.m.m.m.m.m.m.m.m.m.m.m.m.m.m.m.m.m.m.m.m.m.m.m.m.m.m.m.m.m.m.m.m.m.m.m.m.m.m.m.m.m.m.m.m.m.m.m.m.m.m.m.m.m.m.m.m.m.m.m.m.m.m.m.m.m.m.m.m.m.m.m.m.m.m.m.m.m.m.m.m.",
"m.m.m.m.m.m.m.m.m.m.m.m.m.m.m.m.m.m.m.m.m.m.m.m.m.m.m.m.m.m.m.m.m.m.m.m.m.m.m.m.m.m.m.m.m.m.m.m.m.m.m.m.m.m.m.m.m.m.m.m.m.m.m.m.m.m.m.m.m.m.m.m.m.m.m.m.m.m.m.m.m.m.m.m.m.m.m.m.m.m.",
"m.m.m.m.m.m.m.m.m.m.m.m.m.m.m.m.m.m.m.m.m.m.m.m.m.m.m.m.m.m.m.m.m.m.m.m.m.m.m.m.m.m.m.m.m.m.m.m.m.m.m.m.m.m.m.m.m.m.m.m.m.m.m.m.m.m.m.m.m.m.m.m.m.m.m.m.m.m.m.m.m.m.m.m.m.m.m.m.m.m.",
"m.m.m.m.m.m.m.m.m.m.m.m.m.m.m.m.m.m.m.m.m.m.m.m.m.m.m.m.m.m.m.m.m.m.m.m.m.m.m.m.m.m.m.m.m.m.m.m.m.m.m.m.m.m.m.m.m.m.m.m.m.m.m.m.m.m.m.m.m.m.m.m.m.m.m.m.m.m.m.m.m.m.m.m.m.m.m.m.m.m.",
"m.m.m.m.m.m.m.m.m.m.m.m.m.m.m.m.m.m.m.m.m.m.m.m.m.m.m.m.m.m.m.m.m.m.m.m.m.m.m.m.m.m.m.m.m.m.m.m.m.m.m.m.m.m.m.m.m.m.m.m.m.m.m.m.m.m.m.m.m.m.m.m.m.m.m.m.m.m.m.m.m.m.m.m.m.m.m.m.m.m.",
"m.m.m.m.m.m.m.m.m.m.m.m.m.m.m.m.m.m.m.m.m.m.m.m.m.m.m.m.m.m.m.m.m.m.m.m.m.m.m.m.m.m.m.m.m.m.m.m.m.m.m.m.m.m.m.m.m.m.m.m.m.m.m.m.m.m.m.m.m.m.m.m.m.m.m.m.m.m.m.m.m.m.m.m.m.m.m.m.m.m.",
"m.m.m.m.m.m.m.m.m.m.m.m.m.m.m.m.m.m.m.m.m.m.m.m.m.m.m.m.m.m.m.m.m.m.m.m.m.m.m.m.m.m.m.m.m.m.m.m.m.m.m.m.m.m.m.m.m.m.m.m.m.m.m.m.m.m.m.m.m.m.m.m.m.m.m.m.m.m.m.m.m.m.m.m.m.m.m.m.m.m.",
"m.m.m.m.m.m.m.m.m.m.m.m.m.m.m.m.m.m.m.m.m.m.m.m.m.m.m.m.m.m.m.m.m.m.m.m.m.m.m.m.m.m.m.m.m.m.m.m.m.m.m.m.m.m.m.m.m.m.m.m.m.m.m.m.m.m.m.m.m.m.m.m.m.m.m.m.m.m.m.m.m.m.m.m.m.m.m.m.m.m.",
"m.m.m.m.m.m.m.m.m.m.m.m.m.m.m.m.m.m.m.m.m.m.m.m.m.m.m.m.m.m.m.m.m.m.m.m.m.m.m.m.m.m.m.m.m.m.m.m.m.m.m.m.m.m.m.m.m.m.m.m.m.m.m.m.m.m.m.m.m.m.m.m.m.m.m.m.m.m.m.m.m.m.m.m.m.m.m.m.m.m.",
"m.m.m.m.m.m.m.m.m.m.m.m.m.m.m.m.m.m.m.m.m.m.m.m.m.m.m.m.m.m.m.m.m.m.m.m.m.m.m.m.m.m.m.m.m.m.m.m.m.m.m.m.m.m.m.m.m.m.m.m.m.m.m.m.m.m.m.m.m.m.m.m.m.m.m.m.m.m.m.m.m.m.m.m.m.m.m.m.m.m.",
"m.m.m.m.m.m.m.m.m.m.m.m.m.m.m.m.m.m.m.m.m.m.m.m.m.m.m.m.m.m.m.m.m.m.m.m.m.m.m.m.m.m.m.m.m.m.m.m.m.m.m.m.m.m.m.m.m.m.m.m.m.m.m.m.m.m.m.m.m.m.m.m.m.m.m.m.m.m.m.m.m.m.m.m.m.m.m.m.m.m.",
"m.m.m.m.m.m.m.m.m.m.m.m.m.m.m.m.m.m.m.m.m.m.m.m.m.m.m.m.m.m.m.m.m.m.m.m.m.m.m.m.m.m.m.m.m.m.m.m.m.m.m.m.m.m.m.m.m.m.m.m.m.m.m.m.m.m.m.m.m.m.m.m.m.m.m.m.m.m.m.m.m.m.m.m.m.m.m.m.m.m.",
"m.m.m.m.m.m.m.m.m.m.m.m.m.m.m.m.m.m.m.m.m.m.m.m.m.m.m.m.m.m.m.m.m.m.m.m.m.m.m.m.m.m.m.m.m.m.m.m.m.m.m.m.m.m.m.m.m.m.m.m.m.m.m.m.m.m.m.m.m.m.m.m.m.m.m.m.m.m.m.m.m.m.m.m.m.m.m.m.m.m.",
"m.m.m.m.m.m.m.m.m.m.m.m.m.m.m.m.m.m.m.m.m.m.m.m.m.m.m.m.m.m.m.m./ T E ! W W h h h h N N m m m M M C C C C Z Z Z c 4.m.m.m.m.m.m.m.m.m.m.m.m.m.m.m.m.m.m.m.m.m.m.m.m.m.m.m.m.m.m.m.m.",
"m.m.m.m.m.m.m.m.m.m.m.m.m.m.m.m.m.m.m.m.m.m.m.m.m.m.m.m.m.m.m./ w 0.p.f.l.l.l.l.l.l.l.l.l.l.l.l.l.l.l.l.l.l.g.s.-.6 u.m.m.m.m.m.m.m.m.m.m.m.m.m.m.m.m.m.m.m.m.m.m.m.m.m.m.m.m.m.m.m.",
"m.m.m.m.m.m.m.m.m.m.m.m.m.m.m.m.m.m.m.m.m.m.m.m.m.m.m.m.m.m.m.P L h.x.n.n.n.n.n.n.b.n.n.n.b.n.n.n.n.n.n.n.n.b.z.h.| | m.m.m.m.m.m.m.m.m.m.m.m.m.m.m.m.m.m.m.m.m.m.m.m.m.m.m.m.m.m.m.",
"m.m.m.m.m.m.m.m.m.m.m.m.m.m.m.m.m.m.m.m.m.m.m.m.m.m.m.m.m.m.m.I w.h.c.n.n.n.n.n.n.n.n.n.n.n.n.n.n.n.n.n.n.n.n.x.d.5. .m.m.m.m.m.m.m.m.m.m.m.m.m.m.m.m.m.m.m.m.m.m.m.m.m.m.m.m.m.m.m.",
"m.m.m.m.m.m.m.m.m.m.m.m.m.m.m.m.m.m.m.m.m.m.m.m.m.m.m.m.m.m.m.I e.h.v.n.n.n.n.n.n.n.n.n.n.n.n.n.n.n.n.n.n.n.n.x.h.5. .m.m.m.m.m.m.m.m.m.m.m.m.m.m.m.m.m.m.m.m.m.m.m.m.m.m.m.m.m.m.m.",
"m.m.m.m.m.m.m.m.m.m.m.m.m.m.m.m.m.m.m.m.m.m.m.m.m.m.m.m.m.m.m.U e.h.c.n.n.n.n.n.n.n.n.n.n.n.n.n.n.n.n.n.n.n.n.x.h.5.} m.m.m.m.m.m.m.m.m.m.m.m.m.m.m.m.m.m.m.m.m.m.m.m.m.m.m.m.m.m.m.",
"m.m.m.m.m.m.m.m.m.m.m.m.m.m.m.m.m.m.m.m.m.m.m.m.m.m.m.m.m.m.m.U w.d.v.n.n.n.n.n.n.n.n.n.n.n.n.n.n.n.n.n.n.n.n.x.d.5.} m.m.m.m.m.m.m.m.m.m.m.m.m.m.m.m.m.m.m.m.m.m.m.m.m.m.m.m.m.m.m.",
"m.m.m.m.m.m.m.m.m.m.m.m.m.m.m.m.m.m.m.m.m.m.m.m.m.m.m.m.m.m.m.U w.h.v.n.n.n.n.n.n.n.n.n.n.n.n.n.n.n.n.n.n.n.n.x.h.5.} m.m.m.m.m.m.m.m.m.m.m.m.m.m.m.m.m.m.m.m.m.m.m.m.m.m.m.m.m.m.m.",
"m.m.m.m.m.m.m.m.m.m.m.m.m.m.m.m.m.m.m.m.m.m.m.m.m.m.m.m.m.m.m.U e.d.c.n.n.n.b.n.n.n.n.n.n.b.n.n.n.n.b.n.n.n.n.x.d.5.} m.m.m.m.m.m.m.m.m.m.m.m.m.m.m.m.m.m.m.m.m.m.m.m.m.m.m.m.m.m.m.",
"m.m.m.m.m.m.m.m.m.m.m.m.m.m.m.m.m.m.m.m.m.m.m.m.m.m.m.m.m.m.m.Y e.d.v.n.n.z.- : v.n.n.j.= ; c.n.n.z.= : v.n.n.x.d.5...m.m.m.m.m.m.m.m.m.m.m.m.m.m.m.m.m.m.m.m.m.m.m.m.m.m.m.m.m.m.m.",
"m.m.m.m.m.m.m.m.m.m.m.m.m.m.m.m.m.m.m.m.m.m.m.m.m.m.m.m.m.m.m.U e.d.v.n.n.v.& . 8.n.n.t   . a n.n.y   : n.n.n.x.h.6...m.m.m.m.m.m.m.m.m.m.m.m.m.m.m.m.m.m.m.m.m.m.m.m.m.m.m.m.m.m.m.",
"m.m.m.m.m.m.m.m.m.m.m.m.m.m.m.m.m.m.m.m.m.m.m.m.m.m.m.m.m.m.m.f e.d.c.n.n.n.y   > n.v.&     : n.n.* . 8.n.n.n.x.h.5...m.m.m.m.m.m.m.m.m.m.m.m.m.m.m.m.m.m.m.m.m.m.m.m.m.m.m.m.m.m.m.",
"m.m.m.m.m.m.m.m.m.m.m.m.m.m.m.m.m.m.m.m.m.m.m.m.m.m.m.m.m.m.m.s e.h.v.n.n.n.z.O # v.a.X & # # c.h.o % v.n.n.n.x.h.6...m.m.m.m.m.m.m.m.m.m.m.m.m.m.m.m.m.m.m.m.m.m.m.m.m.m.m.m.m.m.m.",
"m.m.m.m.m.m.m.m.m.m.m.m.m.m.m.m.m.m.m.m.m.m.m.m.m.m.m.m.m.m.m.s e.h.c.n.n.n.b.; . 8.t . i > . a y   t n.n.n.n.x.h.5.X.m.m.m.m.m.m.m.m.m.m.m.m.m.m.m.m.m.m.m.m.m.m.m.m.m.m.m.m.m.m.m.",
"m.m.m.m.m.m.m.m.m.m.m.m.m.m.m.m.m.m.m.m.m.m.m.m.m.m.m.m.m.m.m.d i.g.c.n.n.n.n.a . ; % + z.9.X - * o h.n.n.n.n.x.h.5.X.m.m.m.m.m.m.m.m.m.m.m.m.m.m.m.m.m.m.m.m.m.m.m.m.m.m.m.m.m.m.m.",
"m.m.m.m.m.m.m.m.m.m.m.m.m.m.m.m.m.m.m.m.m.m.m.m.m.m.m.m.m.m.m.d e.d.v.n.n.n.n.c.$ X . ; n.v.% . . = n.n.n.n.n.x.h.6.X.m.m.m.m.m.m.m.m.m.m.m.m.m.m.m.m.m.m.m.m.m.m.m.m.m.m.m.m.m.m.m.",
"m.m.m.m.m.m.m.m.m.m.m.m.m.m.m.m.m.m.m.m.m.m.m.m.m.m.m.m.m.m.m.j e.d.c.n.n.n.n.n.e   . p n.n.t     i n.n.n.n.n.x.h.6.X.m.m.m.m.m.m.m.m.m.m.m.m.m.m.m.m.m.m.m.m.m.m.m.m.m.m.m.m.m.m.m.",
"m.m.m.m.m.m.m.m.m.m.m.m.m.m.m.m.m.m.m.m.m.m.m.m.m.m.m.m.m.m.m.Y e.h.v.n.n.n.n.n.d.* - c.n.n.h.* - x.n.n.n.n.n.x.h.6.X.m.m.m.m.m.m.m.m.m.m.m.m.m.m.m.m.m.m.m.m.m.m.m.m.m.m.m.m.m.m.m.",
"m.m.m.m.m.m.m.m.m.m.m.m.m.m.m.m.m.m.m.m.m.m.m.m.m.m.m.m.m.m.m.j u.d.c.n.n.n.n.n.n.b.b.n.n.n.n.b.b.n.n.n.n.n.n.x.h.6.X.m.m.m.m.m.m.m.m.m.m.m.m.m.m.m.m.m.m.m.m.m.m.m.m.m.m.m.m.m.m.m.",
"m.m.m.m.m.m.m.m.m.m.m.m.m.m.m.m.m.m.m.m.m.m.m.m.m.m.m.m.m.m.m.j i.d.v.n.n.n.n.n.n.n.n.n.n.n.n.n.n.n.n.n.n.n.n.x.h.6.#.m.m.m.m.m.m.m.m.m.m.m.m.m.m.m.m.m.m.m.m.m.m.m.m.m.m.m.m.m.m.m.",
"m.m.m.m.m.m.m.m.m.m.m.m.m.m.m.m.m.m.m.m.m.m.m.m.m.m.m.m.m.m.m.j i.h.v.n.n.n.n.n.n.n.n.n.n.n.n.n.n.n.n.n.n.n.n.x.h.6.#.m.m.m.m.m.m.m.m.m.m.m.m.m.m.m.m.m.m.m.m.m.m.m.m.m.m.m.m.m.m.m.",
"m.m.m.m.m.m.m.m.m.m.m.m.m.m.m.m.m.m.m.m.m.m.m.m.m.m.m.m.m.m.m.k i.h.c.n.n.n.n.n.n.n.n.n.n.n.n.n.n.n.n.n.n.n.n.x.h.6.#.m.m.m.m.m.m.m.m.m.m.m.m.m.m.m.m.m.m.m.m.m.m.m.m.m.m.m.m.m.m.m.",
"m.m.m.m.m.m.m.m.m.m.m.m.m.m.m.m.m.m.m.m.m.m.m.m.m.m.m.m.m.m.m.k u.h.v.n.n.n.n.n.n.n.n.n.n.n.n.n.n.n.n.n.n.n.n.x.h.6.#.m.m.m.m.m.m.m.m.m.m.m.m.m.m.m.m.m.m.m.m.m.m.m.m.m.m.m.m.m.m.m.",
"m.m.m.m.m.m.m.m.m.m.m.m.m.m.m.m.m.m.m.m.m.m.m.m.m.m.m.m.m.m.m.k i.g.c.n.n.n.n.n.n.n.n.n.n.n.n.n.n.n.n.n.n.n.n.z.j.6.#.m.m.m.m.m.m.m.m.m.m.m.m.m.m.m.m.m.m.m.m.m.m.m.m.m.m.m.m.m.m.m.",
"m.m.m.m.m.m.m.m.m.m.m.m.m.m.m.m.m.m.m.m.m.m.m.m.m.m.m.m.m.m.m.3 q.d.j.c.v.v.v.v.c.v.v.v.v.c.v.v.c.v.v.v.v.v.c.j.h.:.@.m.m.m.m.m.m.m.m.m.m.m.m.m.m.m.m.m.m.m.m.m.m.m.m.m.m.m.m.m.m.m.",
"m.m.m.m.m.m.m.m.m.m.m.m.m.m.m.m.m.m.m.m.m.m.m.m.m.m.m.m.m.m.m.v v d.j.j.h.h.d.d.h.h.h.h.j.j.j.j.d.h.d.d.h.j.j.j.y.9 :.m.m.m.m.m.m.m.m.m.m.m.m.m.m.m.m.m.m.m.m.m.m.m.m.m.m.m.m.m.m.m.",
"m.m.m.m.m.m.m.m.m.m.m.m.m.m.m.m.m.m.m.m.m.m.m.m.m.m.m.m.m.m.m.i.5 4 { { { } } ....} ] ] ] [ [ [ ( ( ( ) ( #.@.+.8 @.m.m.m.m.m.m.m.m.m.m.m.m.m.m.m.m.m.m.m.m.m.m.m.m.m.m.m.m.m.m.m.m.",
"m.m.m.m.m.m.m.m.m.m.m.m.m.m.m.m.m.m.m.m.m.m.m.m.m.m.m.m.m.m.m.m.m.&.| | |  .}  .} } o.o.o...O.X.X.O.X._ _ _ %.%.6.m.m.m.m.m.m.m.m.m.m.m.m.m.m.m.m.m.m.m.m.m.m.m.m.m.m.m.m.m.m.m.m.m.",
"m.m.m.m.m.m.m.m.m.m.m.m.m.m.m.m.m.m.m.m.m.m.m.m.m.m.m.m.m.m.m.m.m.m.m.m.m.m.m.m.m.m.m.m.m.m.m.m.m.m.m.m.m.m.m.m.m.m.m.m.m.m.m.m.m.m.m.m.m.m.m.m.m.m.m.m.m.m.m.m.m.m.m.m.m.m.m.m.m.m.",
"m.m.m.m.m.m.m.m.m.m.m.m.m.m.m.m.m.m.m.m.m.m.m.m.m.m.m.m.m.m.m.m.m.m.m.m.m.m.m.m.m.m.m.m.m.m.m.m.m.m.m.m.m.m.m.m.m.m.m.m.m.m.m.m.m.m.m.m.m.m.m.m.m.m.m.m.m.m.m.m.m.m.m.m.m.m.m.m.m.m.",
"m.w.E E W W W W Q W Q Q Q Q Q Q Q C M M M Z C C Z n =.h.m.m.m.m.L R W E W W W W Q N W N N B B m Q C M C b C Z n n 4.m.m.m.m.m.K T ! W W W W W N Q m m m B m M M Q b C Z C V n V u.m.",
"k.P W w.k.k.k.k.k.f.f.f.g.g.k.f.k.l.f.f.f.g.k.k.i.4.5 =.m.m.m.L , / e.k.k.k.k.k.f.k.f.k.f.k.k.k.f.g.k.k.l.k.i.i.1.5 5.m.m.m.G P L e.p.k.k.f.f.k.k.f.k.k.k.k.f.i.l.g.k.f.k.f.i.| x i.",
"/ I j.l.v.n.b.n.b.n.n.b.n.b.n.b.n.b.n.n.b.n.n.b.x.j.r.x m.m.m.R ~ d.z.b.b.n.b.n.b.n.b.n.b.n.b.n.n.b.n.b.n.b.b.x.j.-.{ m.m.m.P L d.x.b.b.n.n.n.b.n.n.b.n.n.b.n.n.b.n.b.n.n.v.z.j.{ =.",
"~ ^ j.z.n.n.n.n.n.n.n.n.n.n.n.n.n.n.n.n.n.n.n.n.v.j.g.{ m.m.m.T L d.x.n.n.n.n.n.n.n.n.n.n.n.n.n.n.n.n.n.n.n.n.c.h.u.{ m.m.m.I e.d.v.n.n.n.n.n.n.n.n.n.n.n.n.n.n.n.n.n.n.n.n.z.j.-.*.",
"D G d.z.n.n.n.n.n.n.n.n.n.n.n.n.n.n.n.n.n.n.n.n.b.j.s.` m.m.m.T L d.c.n.n.n.n.n.n.n.n.n.n.n.n.n.n.n.n.n.n.n.n.c.h.r.} m.m.m.I a.g.v.n.n.n.n.n.n.n.n.n.n.n.n.n.n.n.n.n.n.n.n.x.d.5. .",
"! G d.z.n.n.n.n.n.n.n.n.n.n.n.n.n.n.n.n.n.n.n.n.b.j.s.{ m.m.m.T L d.x.n.n.n.n.n.n.n.n.n.n.n.n.n.n.n.n.n.n.n.n.c.h.r.} m.m.m.I p.d.v.n.n.n.n.n.n.n.n.n.n.n.n.n.n.n.n.n.n.n.n.z.j.>.*.",
"D G d.z.n.n.n.n.n.n.n.n.8.* > b.n.n.n.n.n.n.n.n.v.j.f.` m.m.m.Y L d.x.n.n.n.n.n.n.n.c.p r r i j.n.n.n.n.n.n.n.v.h.r.} m.m.m.I a.d.v.n.n.n.n.h.e e e e t p z.n.n.n.n.n.n.n.n.z.j.-.*.",
"! G d.z.n.n.n.n.n.n.n.n.;   X 8.n.n.n.n.n.n.n.n.b.j.s.` m.m.m.R L d.x.n.n.n.n.n.n.9.$ .   .   @ p n.n.n.n.n.n.c.h.r.' m.m.m.U p.d.v.n.n.n.n.i       .     + e c.n.n.n.n.n.n.z.j.>. .",
"D G j.z.n.n.n.n.n.n.n.d.o     : n.n.n.n.n.n.n.n.v.j.g.' m.m.m.Y 3.h.c.n.n.n.n.n.v.*   ; p p > . @ j.n.n.n.n.n.v.h.r.' m.m.m.U i.h.v.n.n.n.n.i   * p p u : @   ; v.n.n.n.n.n.z.h.6.o.",
"D G j.z.n.n.n.n.n.n.n.r   = O O j.n.n.n.n.n.n.n.b.g.g.] m.m.m.Y 3.h.x.n.n.n.n.n.z.o # v.n.n.n.e @ 8.n.n.n.n.n.c.h.t...m.m.m.U f.h.v.n.n.n.n.i   : n.n.n.n.h.$ . p n.n.n.n.n.x.h.>.*.",
"D G d.z.n.n.n.n.n.n.c.$ X 9.:   t n.n.n.n.n.n.n.b.h.f.] m.m.m.Y L h.c.n.n.n.n.n.z.@ o i v.n.n.c.z.n.n.n.n.n.n.c.h.r.] m.m.m.Y e.d.v.n.n.n.n.i   : n.n.n.n.n.i   = n.n.n.n.n.z.h.>.o.",
"D F d.z.n.n.n.n.n.n.i   * n.8.. $ v.n.n.n.n.n.n.b.d.f.] m.m.m.Y 3.h.x.n.n.n.n.n.n.>   . & u z.n.n.n.n.n.n.n.n.c.g.t...m.m.m.Y a.d.v.n.n.n.n.i   : n.n.n.n.n.h.o # v.n.n.n.n.x.h.5.o.",
"D H d.z.n.n.n.n.n.n.= . p n.n.* . p n.n.n.n.n.n.v.j.s.] m.m.m.Y L h.c.n.n.n.n.n.n.v.t @     @ : l.n.n.n.n.n.n.v.h.t.] m.m.m.Y i.g.v.n.n.n.n.i   : n.n.n.n.n.x.+ + x.n.n.n.n.z.h.>.o.",
"D H d.z.n.n.n.n.n.9.X X r u u =   - b.n.n.n.n.n.b.j.s.[ m.m.m.g 3.h.x.n.n.n.n.n.n.n.n.z.u = X   $ z.n.n.n.n.n.c.d.r.] m.m.m.s i.d.v.n.n.n.n.i   : n.n.n.n.n.z.O @ x.n.n.n.n.x.h.>.:.",
"D H d.z.n.n.n.n.n.>     .         o a.n.n.n.n.n.b.j.s.[ m.m.m.g 3.h.x.n.n.n.n.n.n.n.n.n.n.b.8.%   e n.n.n.n.n.v.h.t.[ m.m.m.d a.d.v.n.n.n.n.i   : n.n.n.n.n.8.. % v.n.n.n.n.z.h.>.O.",
"A H d.z.n.n.n.n.x.@ X t y y y y -   e n.n.n.n.n.v.g.s.[ m.m.m.g 3.h.c.n.n.n.n.n.z.: p n.n.n.n.8.. = n.n.n.n.n.c.g.t.X.m.m.m.Y e.d.v.n.n.n.n.i   : n.n.n.n.b.;   e n.n.n.n.n.z.h.6.o.",
"B H d.z.n.n.n.n.u   ; n.n.n.n.n.d.o # x.n.n.n.n.b.g.s.[ m.m.m.l 3.h.c.n.n.n.n.n.8.. % z.n.n.n.t   : n.n.n.n.n.c.h.t.[ m.m.m.d i.h.v.n.n.n.n.i   : n.b.v.d.; . # j.n.n.n.n.n.x.h.,.O.",
"F H d.z.n.n.n.v.% . a n.n.n.n.n.n.-   u n.n.n.n.v.g.s.( m.m.m.l 3.d.x.n.n.n.n.n.v.-   $ r t - . o 8.n.n.n.n.n.v.h.t.[ m.m.m.j i.h.v.n.n.n.n.i   + * * % X   # 8.n.n.n.n.n.n.z.h.6.O.",
"A H d.z.b.n.n.d.* ; v.n.n.n.n.n.n.8.% e n.n.n.n.v.h.s.( m.m.m.l 3.d.x.n.n.n.n.n.n.z.- X .   . % a n.n.n.n.n.n.c.h.t.@.m.m.m.j i.d.v.n.n.n.n.p O O o o O % r z.n.n.n.n.n.n.n.z.j.6.O.",
"A H a.z.n.n.n.n.v.b.n.n.n.n.n.n.n.n.v.v.n.n.n.n.b.j.s.( m.m.m.l 4.d.x.n.n.n.n.n.n.n.b.d.p p 9.v.n.n.n.n.n.n.n.v.g.t.#.m.m.m.j f.d.v.n.n.n.n.v.j.j.j.j.x.b.n.n.n.n.n.n.n.n.n.z.j.,.O.",
"A H d.z.n.n.n.n.n.n.n.n.n.n.n.n.n.n.n.n.n.n.n.n.b.j.s.@.m.m.m.l 3.h.x.n.n.n.n.n.n.n.n.n.n.n.n.n.n.n.n.n.n.n.n.c.h.t.@.m.m.m.j i.d.v.n.n.n.n.n.n.n.n.n.n.n.n.n.n.n.n.n.n.n.n.x.h.,.O.",
"A J d.z.n.n.n.n.n.n.n.n.n.n.n.n.n.n.n.n.n.n.n.n.b.h.s.@.m.m.m.z 4.h.c.n.n.n.n.n.n.n.n.n.n.n.n.n.n.n.n.n.n.n.n.v.h.t.#.m.m.m.j i.d.v.n.n.n.n.n.n.n.n.n.n.n.n.n.n.n.n.n.n.n.n.z.h.,.%.",
"S J d.z.n.n.n.n.n.n.n.n.n.n.n.n.n.n.n.n.n.n.n.n.b.g.g.@.m.m.m.z 3.d.x.n.n.n.n.n.n.n.n.n.n.n.n.n.n.n.n.n.n.n.n.c.d.t.#.m.m.m.k i.h.v.n.n.n.n.n.n.n.n.n.n.n.n.n.n.n.n.n.n.n.n.x.h.6.%.",
"S J d.z.n.n.n.n.n.n.n.n.n.n.n.n.n.n.n.n.n.n.n.n.v.j.s.@.m.m.m.v 4.h.x.n.n.n.n.n.n.n.n.n.n.n.n.n.n.n.n.n.n.n.n.c.d.t.@.m.m.m.k i.d.v.n.n.n.n.n.n.n.n.n.n.n.n.n.n.n.n.n.n.n.n.z.h.,.$.",
"S S j.d.c.v.v.v.v.v.b.v.v.v.v.v.v.v.v.b.v.v.v.v.z.g.s.q m.m.m.k 2.d.j.v.v.v.v.v.v.v.v.b.v.v.v.b.v.v.b.v.v.v.v.z.h.7.+.m.m.m.3 u.d.l.v.v.b.v.v.v.v.v.b.v.v.v.v.v.v.v.v.b.v.c.j.j.:.#.",
"2.1 i.j.j.j.j.j.j.j.j.j.j.j.j.j.j.j.j.j.j.j.j.j.j.j.%.q m.m.m.Z 7 g.j.j.j.j.j.h.j.j.j.j.j.j.j.j.j.j.j.h.j.h.h.h.g.+.#.m.m.m.v Z j.j.j.j.j.j.j.j.j.j.j.j.j.j.h.h.j.j.j.j.j.h.j.s.0 :.",
"m.Z 2 { |  . . . . . .o.o.o.o...o.O.X.O.) ) ) $.$.q 8 6.m.m.m.i.6 4 | |  . . . . . .o.o.o.O.o.O.O.X.O.) ) ) $.$.0 0 y.m.m.m.4.< x | | *. . . . .o.o.o...X.o.X.) ) ) _ _ $.$.#.8 +.d.",
"m.m.=.V { { { { ' ' ' ' ] ] ] ] ] ] ( ( ( ( @.@.@.#.t.m.m.m.m.m.m.&.` { { { } } } ' ] ] ] ] ] [ X.( ) ( ) @.@.@._ y.m.m.m.m.m.u.| { { { ` } } ' ' ] ' ] ] ] ] ( ( ( ( @.+.@.+.:.m.m.",
"m.m.m.m.m.m.m.m.m.m.m.m.m.m.m.m.m.m.m.m.m.m.m.m.m.m.m.m.m.m.m.m.m.m.m.m.m.m.m.m.m.m.m.m.m.m.m.m.m.m.m.m.m.m.m.m.m.m.m.m.m.m.m.m.m.m.m.m.m.m.m.m.m.m.m.m.m.m.m.m.m.m.m.m.m.m.m.m.m.m.",
"m.m.m.m.m.m.m.m.m.m.m.m.m.m.m.m.m.m.m.m.m.m.m.m.m.m.m.m.m.m.m.m.m.m.m.m.m.m.m.m.m.m.m.m.m.m.m.m.m.m.m.m.m.m.m.m.m.m.m.m.m.m.m.m.m.m.m.m.m.m.m.m.m.m.m.m.m.m.m.m.m.m.m.m.m.m.m.m.m.m.",
"m.m.m.m.m.m.m.m.m.m.m.m.m.m.m.m.m.m.m.m.m.m.m.m.m.m.m.m.m.m.m.m.m.m.m.m.m.m.m.m.m.m.m.m.m.m.m.m.m.m.m.m.m.m.m.m.m.m.m.m.m.m.m.m.m.m.m.m.m.m.m.m.m.m.m.m.m.m.m.m.m.m.m.m.m.m.m.m.m.m.",
"m.m.m.m.m.m.m.m.m.m.m.m.m.m.m.m.m.m.m.m.m.m.m.m.m.m.m.m.m.m.m.m.m.m.m.m.m.m.m.m.m.m.m.m.m.m.m.m.m.m.m.m.m.m.m.m.m.m.m.m.m.m.m.m.m.m.m.m.m.m.m.m.m.m.m.m.m.m.m.m.m.m.m.m.m.m.m.m.m.m.",
"m.m.m.m.m.m.m.m.m.m.m.m.m.m.m.m.m.m.m.m.m.m.m.m.m.m.m.m.m.m.m.m.m.m.m.m.m.m.m.m.m.m.m.m.m.m.m.m.m.m.m.m.m.m.m.m.m.m.m.m.m.m.m.m.m.m.m.m.m.m.m.m.m.m.m.m.m.m.m.m.m.m.m.m.m.m.m.m.m.m.",
"m.m.m.m.m.m.m.m.m.m.m.m.m.m.m.m.m.m.m.m.m.m.m.m.m.m.m.m.m.m.m.m.m.m.m.m.m.m.m.m.m.m.m.m.m.m.m.m.m.m.m.m.m.m.m.m.m.m.m.m.m.m.m.m.m.m.m.m.m.m.m.m.m.m.m.m.m.m.m.m.m.m.m.m.m.m.m.m.m.m.",
"m.m.m.m.m.m.m.m.m.m.m.m.m.m.m.m.m.m.m.m.m.m.m.m.m.m.m.m.m.m.m.m.m.m.m.m.m.m.m.m.m.m.m.m.m.m.m.m.m.m.m.m.m.m.m.m.m.m.m.m.m.m.m.m.m.m.m.m.m.m.m.m.m.m.m.m.m.m.m.m.m.m.m.m.m.m.m.m.m.m.",
"m.m.m.m.m.m.m.m.m.m.m.m.m.m.m.m.m.m.m.m.m.m.m.m.m.m.m.m.m.m.m.m.m.m.m.m.m.m.m.m.m.m.m.m.m.m.m.m.m.m.m.m.m.m.m.m.m.m.m.m.m.m.m.m.m.m.m.m.m.m.m.m.m.m.m.m.m.m.m.m.m.m.m.m.m.m.m.m.m.m.",
"m.m.m.m.m.m.m.m.m.m.m.m.m.m.m.m.m.m.m.m.m.m.m.m.m.m.m.m.m.m.m.m.m.m.m.m.m.m.m.m.m.m.m.m.m.m.m.m.m.m.m.m.m.m.m.m.m.m.m.m.m.m.m.m.m.m.m.m.m.m.m.m.m.m.m.m.m.m.m.m.m.m.m.m.m.m.m.m.m.m.",
"m.m.m.m.m.m.m.m.m.m.m.m.m.m.m.m.m.m.m.m.m.m.m.m.m.m.m.m.m.m.m.m.m.m.m.m.m.m.m.m.m.m.m.m.m.m.m.m.m.m.m.m.m.m.m.m.m.m.m.m.m.m.m.m.m.m.m.m.m.m.m.m.m.m.m.m.m.m.m.m.m.m.m.m.m.m.m.m.m.m.",
"m.m.m.m.m.m.m.m.m.m.m.m.m.m.m.m.m.m.m.m.m.m.m.m.m.m.m.m.m.m.m.m.m.m.m.m.m.m.m.m.m.m.m.m.m.m.m.m.m.m.m.m.m.m.m.m.m.m.m.m.m.m.m.m.m.m.m.m.m.m.m.m.m.m.m.m.m.m.m.m.m.m.m.m.m.m.m.m.m.m.",
"m.m.m.m.m.m.m.m.m.m.m.m.m.m.m.m.m.m.m.m.m.m.m.m.m.m.m.m.m.m.m.m.m.m.m.m.m.m.m.m.m.m.m.m.m.m.m.m.m.m.m.m.m.m.m.m.m.m.m.m.m.m.m.m.m.m.m.m.m.m.m.m.m.m.m.m.m.m.m.m.m.m.m.m.m.m.m.m.m.m.",
"m.m.m.m.m.m.m.m.m.m.m.m.m.m.m.m.m.m.m.m.m.m.m.m.m.m.m.m.m.m.m.m.m.m.m.m.m.m.m.m.m.m.m.m.m.m.m.m.m.m.m.m.m.m.m.m.m.m.m.m.m.m.m.m.m.m.m.m.m.m.m.m.m.m.m.m.m.m.m.m.m.m.m.m.m.m.m.m.m.m.",
"m.m.m.m.m.m.m.m.m.m.m.m.m.m.m.m.m.m.m.m.m.m.m.m.m.m.m.m.m.m.m.m.m.m.m.m.m.m.m.m.m.m.m.m.m.m.m.m.m.m.m.m.m.m.m.m.m.m.m.m.m.m.m.m.m.m.m.m.m.m.m.m.m.m.m.m.m.m.m.m.m.m.m.m.m.m.m.m.m.m.",
"m.m.m.m.m.m.m.m.m.m.m.m.m.m.m.m.m.m.m.m.m.m.m.m.m.m.m.m.m.m.m.m.m.m.m.m.m.m.m.m.m.m.m.m.m.m.m.m.m.m.m.m.m.m.m.m.m.m.m.m.m.m.m.m.m.m.m.m.m.m.m.m.m.m.m.m.m.m.m.m.m.m.m.m.m.m.m.m.m.m.",
"m.m.m.m.m.m.m.m.m.m.m.m.m.m.m.m.m.m.m.m.m.m.m.m.m.m.m.m.m.m.m.m.m.m.m.m.m.m.m.m.m.m.m.m.m.m.m.m.m.m.m.m.m.m.m.m.m.m.m.m.m.m.m.m.m.m.m.m.m.m.m.m.m.m.m.m.m.m.m.m.m.m.m.m.m.m.m.m.m.m."
};
