/* XPM */
static char *result[] = {
/* columns rows colors chars-per-pixel */
"90 90 65 1 ",
"  c #040404",
". c #0C0C0D",
"X c #0F0F10",
"o c #141415",
"O c #1C1D1D",
"+ c #1F1F20",
"@ c #232323",
"# c #272728",
"$ c #2B2B2C",
"% c #2F2F30",
"& c #323233",
"* c #373738",
"= c #3C3C3D",
"- c #434344",
"; c #4B4B4C",
": c #4F5051",
"> c #525354",
", c #565759",
"< c #5B5C5D",
"1 c #626364",
"2 c #666768",
"3 c #6B6C6D",
"4 c #6F7072",
"5 c #747576",
"6 c #77787A",
"7 c #7A7C7D",
"8 c #7F8184",
"9 c #828386",
"0 c #858689",
"q c #87898B",
"w c #8A8B8E",
"e c #8C8E91",
"r c #8F9093",
"t c #919396",
"y c #949699",
"u c #97999B",
"i c #999B9E",
"p c #9C9EA1",
"a c #9FA1A3",
"s c #A1A3A6",
"d c #A4A6A9",
"f c #A7A9AC",
"g c #A9ABAD",
"h c #ADAEB1",
"j c #AFB1B3",
"k c #B1B3B5",
"l c #B5B6B8",
"z c #B7B8BA",
"x c #BABBBD",
"c c #BDBEC0",
"v c #BFC0C2",
"b c #C2C3C5",
"n c #C5C6C8",
"m c #C7C8CA",
"M c #CACBCD",
"N c #CDCFD0",
"B c #CFD0D2",
"V c #D2D3D4",
"C c #D6D7D8",
"Z c #D7D8D9",
"A c #DADCDD",
"S c #DEDFE0",
"D c #DFE0E2",
"F c #E1E2E3",
"G c None",
/* pixels */
"GGGGGGGGGGGGGGGGGGGGGGGGGGGGGGGGGGGGGGGGGGGGGGGGGGGGGGGGGGGGGGGGGGGGGGGGGGGGGGGGGGGGGGGGGG",
"GGGGGGGGGGGGGGGGGGGGGGGGGGGGGGGGGGGGGGGGGGGGGGGGGGGGGGGGGGGGGGGGGGGGGGGGGGGGGGGGGGGGGGGGGG",
"GGGGGGGGGGGGGGGGGGGGGGGGGGGGGGGGGGGGGGGGGGGGGGGGGGGGGGGGGGGGGGGGGGGGGGGGGGGGGGGGGGGGGGGGGG",
"GGGGGGGGGGGGGGGGGGGGGGGGGGGGGGGGGGGGGGGGGGGGGGGGGGGGGGGGGGGGGGGGGGGGGGGGGGGGGGGGGGGGGGGGGG",
"GGGGGGGGGGGGGGGGGGGGGGGGGGGGGGGGGGGGGGGGGGGGGGGGGGGGGGGGGGGGGGGGGGGGGGGGGGGGGGGGGGGGGGGGGG",
"GGGGGGGGGGGGGGGGGGGGGGGGGGGGGGGGGGGGGGGGGGGGGGGGGGGGGGGGGGGGGGGGGGGGGGGGGGGGGGGGGGGGGGGGGG",
"GGGGGGGGGGGGGGGGGGGGGGGGGGGGGGGGGGGGGGGGGGGGGGGGGGGGGGGGGGGGGGGGGGGGGGGGGGGGGGGGGGGGGGGGGG",
"GGGGGGGGGGGGGGGGGGGGGGGGGGGGGGGGGGGGGGGGGGGGGGGGGGGGGGGGGGGGGGGGGGGGGGGGGGGGGGGGGGGGGGGGGG",
"GGGGGGGGGGGGGGGGGGGGGGGGGGGGGGGGGGGGGGGGGGGGGGGGGGGGGGGGGGGGGGGGGGGGGGGGGGGGGGGGGGGGGGGGGG",
"GGGGGGGGGGGGGGGGGGGGGGGGGGGGGGGGGGznVVVVVVVVBVVVVVVVVVVMGGGGGGGGGGGGGGGGGGGGGGGGGGGGGGGGGG",
"GGGGGGGGGGGGGGGGGGGGGGGGGGGGGGGGGhkxxkzkzzzzzxxxxxxcccbxkGGGGGGGGGGGGGGGGGGGGGGGGGGGGGGGGG",
"GGGGGGGGGGGGGGGGGGGGGGGGGGGGGGGGGghsq90qqwerryuiissdgghljhGGGGGGGGGGGGGGGGGGGGGGGGGGGGGGGG",
"GGGGGGGGGGGGGGGGGGGGGGGGGGGGGGGGGkjw800qwwertyuipssfghklkkGGGGGGGGGGGGGGGGGGGGGGGGGGGGGGGG",
"GGGGGGGGGGGGGGGGGGGGGGGGGGGGGGGGncg090qqwrrtyuipssdghjkzzxGGGGGGGGGGGGGGGGGGGGGGGGGGGGGGGG",
"GGGGGGGGGGGGGGGGGGGGGGGGGGGGGGGGnng990qwwrryuipasdgghklxxbGGGGGGGGGGGGGGGGGGGGGGGGGGGGGGGG",
"GGGGGGGGGGGGGGGGGGGGGGGGGGGGGGGGnnj00qwwrrtuurisdgghklxxxbGGGGGGGGGGGGGGGGGGGGGGGGGGGGGGGG",
"GGGGGGGGGGGGGGGGGGGGGGGGGGGGGGGGbbh00wwettyiw%2ddggkllxcxbGGGGGGGGGGGGGGGGGGGGGGGGGGGGGGGG",
"GGGGGGGGGGGGGGGGGGGGGGGGGGGGGGGGcvg0qweettuw& o6ggkllxvvxcGGGGGGGGGGGGGGGGGGGGGGGGGGGGGGGG",
"GGGGGGGGGGGGGGGGGGGGGGGGGGGGGGGGlxfwweettyr-   O0kklxxvbxxGGGGGGGGGGGGGGGGGGGGGGGGGGGGGGGG",
"GGGGGGGGGGGGGGGGGGGGGGGGGGGGGGGGsxfwwertyy; X.. @tllxcbnxxGGGGGGGGGGGGGGGGGGGGGGGGGGGGGGGG",
"GGGGGGGGGGGGGGGGGGGGGGGGGGGGGGGGaxdweetyy: o<.== $pxcbnnxxGGGGGGGGGGGGGGGGGGGGGGGGGGGGGGGG",
"GGGGGGGGGGGGGGGGGGGGGGGGGGGGGGGGpzdeetyi0;-6q.;p<;9cvbnMxzGGGGGGGGGGGGGGGGGGGGGGGGGGGGGGGG",
"GGGGGGGGGGGGGGGGGGGGGGGGGGGGGGGGilsrrtyiiadfq.;klxxcbnMBxlGGGGGGGGGGGGGGGGGGGGGGGGGGGGGGGG",
"GGGGGGGGGGGGGGGGGGGGGGGGGGGGGGGGflsrtyuipadfwX;lzxcbnmNBzlGGGGGGGGGGGGGGGGGGGGGGGGGGGGGGGG",
"GGGGGGGGGGGGGGGGGGGGGGGGGGGGGGGGiksrtuuiasdgwX;zxxbnmMBVxjGGGGGGGGGGGGGGGGGGGGGGGGGGGGGGGG",
"GGGGGGGGGGGGGGGGGGGGGGGGGGGGGGGG0kstuuissdggeX;xxcbnMMVCxjGGGGGGGGGGGGGGGGGGGGGGGGGGGGGGGG",
"GGGGGGGGGGGGGGGGGGGGGGGGGGGGGGGG0kpyuipsddghe.;xvbmMMVCZxjGGGGGGGGGGGGGGGGGGGGGGGGGGGGGGGG",
"GGGGGGGGGGGGGGGGGGGGGGGGGGGGGGGGthpuippddggkp;4xbnmMBCZAxgGGGGGGGGGGGGGGGGGGGGGGGGGGGGGGGG",
"GGGGGGGGGGGGGGGGGGGGGGGGGGGGGGGGajpuiasdgghklxxcbmMBVCZAxgGGGGGGGGGGGGGGGGGGGGGGGGGGGGGGGG",
"GGGGGGGGGGGGGGGGGGGGGGGGGGGGGGGGhgiiassdghkllxbbnmMVCZSFzgGGGGGGGGGGGGGGGGGGGGGGGGGGGGGGGG",
"GGGGGGGGGGGGGGGGGGGGGGGGGGGGGGGGhfiissdfhkklxcbnmNVCZAFDgdGGGGGGGGGGGGGGGGGGGGGGGGGGGGGGGG",
"GGGGGGGGGGGGGGGGGGGGGGGGGGGGGGGGgsttadfhhklxxbbmMMVCAAFxtsGGGGGGGGGGGGGGGGGGGGGGGGGGGGGGGG",
"GGGGGGGGGGGGGGGGGGGGGGGGGGGGGGGGsuw0ryuipppassdddfgghjawqyGGGGGGGGGGGGGGGGGGGGGGGGGGGGGGGG",
"GGGGGGGGGGGGGGGGGGGGGGGGGGGGGGGGye0qtadfddddddddddddfapw0wGGGGGGGGGGGGGGGGGGGGGGGGGGGGGGGG",
"GGGGGGGGGGGGGGGGGGGGGGGGGGGGGGGGG0qrifggfggfhgggfggggfpyw0GGGGGGGGGGGGGGGGGGGGGGGGGGGGGGGG",
"GGGGGGGGGGGGGGGGGGGGGGGGGGGGGGGGGqrusfffffffdgdgfffffffpywGGGGGGGGGGGGGGGGGGGGGGGGGGGGGGGG",
"GGGGGGGGGGGGGGGGGGGGGGGGGGGGGGGGGGyadfgfffgfffffffgffffdpGGGGGGGGGGGGGGGGGGGGGGGGGGGGGGGGG",
"GGGGGGGGGGGGGGGGGGGGGGGGGGGGGGGGGGGgjjjjjjjkkjkkjkkkjjkhGGGGGGGGGGGGGGGGGGGGGGGGGGGGGGGGGG",
"GGGGGGGGGGGGGGGGGGGGGGGGGGGGGGGGGGGGGGGGGGGGGGGGGGGGGGGGGGGGGGGGGGGGGGGGGGGGGGGGGGGGGGGGGG",
"GGGGGGGGGGGGGGGGGGGGGGGGGGGGGGGGGGGGGGGGGGGGGGGGGGGGGGGGGGGGGGGGGGGGGGGGGGGGGGGGGGGGGGGGGG",
"GGGGGGGGGGGGGGGGGGGGGGGGGGGGGGGGGGGGGGGGGGGGGGGGGGGGGGGGGGGGGGGGGGGGGGGGGGGGGGGGGGGGGGGGGG",
"GGmVVBVVVVVVVVVVVVVVVVMGGGGGGGGGGGGnVVVVVVVVVVVVVVVVVVVMGGGGGGGGGGnVVVVVVVVVCVVVVVVVVVNGGG",
"jkbnbbvbbbbbbnnnnnnnnmckGGGGGGGGGGkcnvvvbbbbbbnbnnnnnnnclGGGGGGGGkxnbvbbbbbbbbbnbnnnnnblGG",
"gjfeqwwertyyuiiasdfghkzhgGGGGGGGGghhtwwewrttyuippsdfghklhhGGGGGGhhhtqwwwrttyuippssdggklkgG",
"jgw8900qwertyuiissfghklkjGGGGGGGGkhy8900qwwttyiipssfhhhljhGGGGGGkhu89000wwrtyuipasdggklkkG",
"zd9900qwertyuipssdghjkllzGGGGGGGGxjq900qwertyyipasfghjlzzcGGGGGGcje890qwwrttyuppsdgggkllzx",
"na900qweetyyiiisdggjklxxvGGGGGGGGnk090qqeettuiipsdgghlzzcvGGGGGGnlq900wwrrtuuppaddgkklxlvn",
"bs90qwwettyiissdgghklxxxnGGGGGGGGnlq00qeettyttisdgggkkzccbGGGGGGnzq00wwertyuipsddggkllxxbn",
"ns9qqwertypypadfggkllxxxbGGGGGGGGblq0qwertyi<+4ddgjklzxcxbGGGGGGnlw0wweetyyippsdfhjkllccvv",
"vs0qwerttpy,8ddfgkllxxbxbGGGGGGGGvlwqqeettui; 1fggjklxxbxcGGGGGGxlw0wwettuipt:rghhkkcccccc",
"caqqeettyw=X9ffhgklxxcbxxGGGGGGGGvkeqeertyup: 1fgjklxccbxxGGGGGGxlwwwettyiiatO$ehkkcccvccc",
"xaqeertu0& @rfghklxxbbnxxGGGGGGGGxjewerttuia: 1hjkkzxcbnxxGGGGGGxheweetyuipsp= #qlkcccvllc",
"zaqeryu7# +6paasggzxbnmzxGGGGGGGGxjeeeryuips> 2hjkzxcbmmxxGGGGGGzheeetteetyupe& +8ccvnmcll",
"zaerry6+  o@@@@@@#wnbmMxzGGGGGGGGxgreryyyuis: 2kjjlxcnnMlxGGGGGGlherry0$+@++@@O  X6cvnMckc",
"zperyy4o  o+OO++O@wnnMNzlGGGGGGGGlgtrtyu5&&8, 37&=ybbnMMllGGGGGGlhrryy0#OOOOOOO  X4bnMMckl",
"lprryup6@ @9pasdggxnMMBzkGGGGGGGGlgtryuiy- @* -+ 1xbnMNBllGGGGGGlgrryuureyyupt= o6cbmMNcjj",
"kprtyips0$ %pllxcbbnNNVzkGGGGGGGGkfttuupau-     ,zvnMMBVlkGGGGGGkfttyupasffhg- OwbbmNNVchk",
"kpyyippsft*XrzzcvbnNNVCljGGGGGGGGkdtyuipsdu& . ;kvnnMNVVlhGGGGGGkfyyuppsddhhd+@tvbnMNNCxhj",
"hpyippssdgp>yzccbnmNBCCzjGGGGGGGGjdtuipasdgt$ =fvbmMNVCCkhGGGGGGjdyuipaddghkd:ibbnMNBCZchh",
"hpyipasdghkhjxcvnmMNVZAlhGGGGGGGGjsyuiasdggkt;scvnmNBVZAkgGGGGGGjdyipasdfhjkkkcbnmNNVCAxgh",
"gpuppsdfhjjzxcvbmMNVCAAzhGGGGGGGGjsyiaasgghkllcvnmMBVCAAkhGGGGGGhdupasdfhjklxxbbnMBVCAScdh",
"gpipsddghjlzxvbmMNVCZASlgGGGGGGGGgauaasfggklzxvvnmMVCAADjgGGGGGGgsupssfghklzxvnnMNVCAAFzdh",
"dipasdghjkzxcvnnMBCZAFAfgGGGGGGGGgauasdggkklxcbnmMVCZAFZsgGGGGGGgiyssdghklzxvbmMNVCZSFSdah",
"atysdggjlzxcbnmNVVZAFFvysGGGGGGGGfurpdfghklxxvnmMNVCASSktsGGGGGGsywissddfgkkkzxxvnmMNVlrpd",
"uw0yppppsddffgjjjllzxjreuGGGGGGGGprqeyuuuipppaddddfgghpwwuGGGGGGue0eruupppppppppppppppq0rp",
"e00rpaaaaaaaaaaaaaaaprqqeGGGGGGGGtq0eiddddsddddddddfdayw0eGGGGGGe0qtahgdggdgggggggggfprqqq",
"00rpggdggfggggggggggfpyqqGGGGGGGGq0wydfgfgffgffggggfgfppe9GGGGGG0qrpdgfffggfffffffgfgdprqG",
"0rusddggfffffffffffffdurqGGGGGGGG0eypgfffffffffgffffffapteGGGGGGqeusfgdgfffffffffffgfgppeG",
"ryafgdgdfffffffffffgffauGGGGGGGGGGtpdfffffffffgffffffffapGGGGGGGGuafggfffgffffffffggffgpGG",
"GpdgggdgfgfffffffffffffGGGGGGGGGGGGsfffffffhdsdgfffhffggGGGGGGGGGGGGGGGGGGGGGGGGGGGGGGGGGG",
"GGGGGGGGGGGGGGGGGGGGGGGGGGGGGGGGGGGGGGGGGGGGGGGGGGGGGGGGGGGGGGGGGGGGGGGGGGGGGGGGGGGGGGGGGG",
"GGGGGGGGGGGGGGGGGGGGGGGGGGGGGGGGGGGGGGGGGGGGGGGGGGGGGGGGGGGGGGGGGGGGGGGGGGGGGGGGGGGGGGGGGG",
"GGGGGGGGGGGGGGGGGGGGGGGGGGGGGGGGGGGGGGGGGGGGGGGGGGGGGGGGGGGGGGGGGGGGGGGGGGGGGGGGGGGGGGGGGG",
"GGGGGGGGGGGGGGGGGGGGGGGGGGGGGGGGGGGGGGGGGGGGGGGGGGGGGGGGGGGGGGGGGGGGGGGGGGGGGGGGGGGGGGGGGG",
"GGGGGGGGGGGGGGGGGGGGGGGGGGGGGGGGGGGGGGGGGGGGGGGGGGGGGGGGGGGGGGGGGGGGGGGGGGGGGGGGGGGGGGGGGG",
"GGGGGGGGGGGGGGGGGGGGGGGGGGGGGGGGGGGGGGGGGGGGGGGGGGGGGGGGGGGGGGGGGGGGGGGGGGGGGGGGGGGGGGGGGG",
"GGGGGGGGGGGGGGGGGGGGGGGGGGGGGGGGGGGGGGGGGGGGGGGGGGGGGGGGGGGGGGGGGGGGGGGGGGGGGGGGGGGGGGGGGG",
"GGGGGGGGGGGGGGGGGGGGGGGGGGGGGGGGGGGGGGGGGGGGGGGGGGGGGGGGGGGGGGGGGGGGGGGGGGGGGGGGGGGGGGGGGG",
"GGGGGGGGGGGGGGGGGGGGGGGGGGGGGGGGGGGGGGGGGGGGGGGGGGGGGGGGGGGGGGGGGGGGGGGGGGGGGGGGGGGGGGGGGG",
"GGGGGGGGGGGGGGGGGGGGGGGGGGGGGGGGGGGGGGGGGGGGGGGGGGGGGGGGGGGGGGGGGGGGGGGGGGGGGGGGGGGGGGGGGG",
"GGGGGGGGGGGGGGGGGGGGGGGGGGGGGGGGGGGGGGGGGGGGGGGGGGGGGGGGGGGGGGGGGGGGGGGGGGGGGGGGGGGGGGGGGG",
"GGGGGGGGGGGGGGGGGGGGGGGGGGGGGGGGGGGGGGGGGGGGGGGGGGGGGGGGGGGGGGGGGGGGGGGGGGGGGGGGGGGGGGGGGG",
"GGGGGGGGGGGGGGGGGGGGGGGGGGGGGGGGGGGGGGGGGGGGGGGGGGGGGGGGGGGGGGGGGGGGGGGGGGGGGGGGGGGGGGGGGG",
"GGGGGGGGGGGGGGGGGGGGGGGGGGGGGGGGGGGGGGGGGGGGGGGGGGGGGGGGGGGGGGGGGGGGGGGGGGGGGGGGGGGGGGGGGG",
"GGGGGGGGGGGGGGGGGGGGGGGGGGGGGGGGGGGGGGGGGGGGGGGGGGGGGGGGGGGGGGGGGGGGGGGGGGGGGGGGGGGGGGGGGG",
"GGGGGGGGGGGGGGGGGGGGGGGGGGGGGGGGGGGGGGGGGGGGGGGGGGGGGGGGGGGGGGGGGGGGGGGGGGGGGGGGGGGGGGGGGG",
"GGGGGGGGGGGGGGGGGGGGGGGGGGGGGGGGGGGGGGGGGGGGGGGGGGGGGGGGGGGGGGGGGGGGGGGGGGGGGGGGGGGGGGGGGG",
"GGGGGGGGGGGGGGGGGGGGGGGGGGGGGGGGGGGGGGGGGGGGGGGGGGGGGGGGGGGGGGGGGGGGGGGGGGGGGGGGGGGGGGGGGG",
"GGGGGGGGGGGGGGGGGGGGGGGGGGGGGGGGGGGGGGGGGGGGGGGGGGGGGGGGGGGGGGGGGGGGGGGGGGGGGGGGGGGGGGGGGG",
"GGGGGGGGGGGGGGGGGGGGGGGGGGGGGGGGGGGGGGGGGGGGGGGGGGGGGGGGGGGGGGGGGGGGGGGGGGGGGGGGGGGGGGGGGG"
};
