/* XPM */
static char *result[] = {
/* columns rows colors chars-per-pixel */
"45 45 224 2 ",
"   c #830A3C",
".  c #922F2B",
"X  c #93312A",
"o  c #93363B",
"O  c #B96F1D",
"+  c #BF5632",
"@  c #BF5835",
"#  c #B8503E",
"$  c #B0522C",
"%  c #B8672A",
"&  c #C87B1D",
"*  c #C05734",
"=  c #D07D29",
"-  c #D07B26",
";  c #C3663A",
":  c #C3693D",
">  c #C36436",
",  c #D5663D",
"<  c #CE7A37",
"1  c #D6792F",
"2  c #E57A39",
"3  c #F17F3C",
"4  c #8A004A",
"5  c #860146",
"6  c #940052",
"7  c #960954",
"8  c #9D1958",
"9  c #BE3D4F",
"0  c #B63954",
"q  c #A63E66",
"w  c #C13E53",
"e  c #C33C4E",
"r  c #B74D42",
"t  c #B75145",
"y  c #B85242",
"u  c #B54E5B",
"i  c #B96A53",
"p  c #9B4E7B",
"a  c #A5567A",
"s  c #B24D6E",
"d  c #BB617B",
"f  c #C3454E",
"g  c #C64B4A",
"h  c #CA4C4A",
"j  c #CC5546",
"k  c #CD524A",
"l  c #D25A46",
"z  c #D4544C",
"x  c #D75A4A",
"c  c #C54957",
"v  c #D75B56",
"b  c #E35D4B",
"n  c #C26A41",
"m  c #D46143",
"M  c #DB6447",
"N  c #D8665B",
"B  c #E66848",
"V  c #EF7344",
"C  c #EA7A47",
"Z  c #F07942",
"A  c #F07444",
"S  c #E46F58",
"D  c #C95665",
"F  c #D65C65",
"G  c #D76F75",
"H  c #EB7D72",
"J  c #E57271",
"K  c #E37465",
"L  c #CD8B17",
"P  c #EFBA09",
"I  c #FCBE0E",
"U  c #F0BD0B",
"Y  c #F8A61F",
"T  c #F9AB1C",
"R  c #F7A81D",
"E  c #FAB415",
"W  c #FBBA11",
"Q  c #FAB119",
"!  c #F9BE1D",
"~  c #EBBB11",
"^  c #E7892D",
"/  c #F69E25",
"(  c #F4942D",
")  c #F69B2A",
"_  c #EB8533",
"`  c #EA8137",
"'  c #F38C34",
"]  c #F28439",
"[  c #F28B3A",
"{  c #F59333",
"}  c #F59C37",
"|  c #F6A223",
" . c #F8A521",
".. c #F7A826",
"X. c #F9B727",
"o. c #F6A737",
"O. c #F8B437",
"+. c #F8B938",
"@. c #EBB82E",
"#. c #DB9029",
"$. c #FEC707",
"%. c #FECC04",
"&. c #FDC30A",
"*. c #FECC0A",
"=. c #F6C50B",
"-. c #FED204",
";. c #FDD30A",
":. c #FDD90E",
">. c #FCC415",
",. c #FDDB14",
"<. c #FAD619",
"1. c #FBE11D",
"2. c #F9C727",
"3. c #F9D828",
"4. c #FACB33",
"5. c #F6C436",
"6. c #FBD435",
"7. c #EEC22B",
"8. c #FBE423",
"9. c #FAEA2C",
"0. c #F8E42B",
"q. c #EE8746",
"w. c #F39748",
"e. c #EE8B5A",
"r. c #F39855",
"t. c #F08F41",
"y. c #E4B24D",
"u. c #F6B558",
"i. c #E5886B",
"p. c #F29868",
"a. c #F29978",
"s. c #EF9378",
"d. c #FAC841",
"f. c #F7CC54",
"g. c #FCDA53",
"h. c #FBE352",
"j. c #FAD768",
"k. c #F4D06F",
"l. c #FBE16C",
"z. c #FCE37B",
"x. c #9C5B86",
"c. c #A75C84",
"v. c #996793",
"b. c #9A6C95",
"n. c #B36988",
"m. c #AC7699",
"M. c #987BA3",
"N. c #CC7A91",
"B. c #9998BD",
"V. c #9884AD",
"C. c #A99BBA",
"Z. c #AB91B0",
"A. c #B6A0B9",
"S. c #C7838F",
"D. c #E59091",
"F. c #F3A889",
"G. c #F5B78B",
"H. c #F4B994",
"J. c #F3AE9A",
"K. c #C486A1",
"L. c #E193A4",
"P. c #D1AEB9",
"I. c #E8AAA8",
"U. c #F5BCAE",
"Y. c #ECB1B4",
"T. c #F0AFAA",
"R. c #FBDF87",
"E. c #F6C897",
"W. c #F5D192",
"Q. c #FBE89A",
"!. c #FBE08E",
"~. c #F5C3BA",
"^. c #F7CFA8",
"/. c #FDECA6",
"(. c #FBEDAA",
"). c #FAE4A3",
"_. c #FCF2AB",
"`. c #FEF0A4",
"'. c #9A9DC1",
"]. c #9BACCD",
"[. c #9EB4D2",
"{. c #AAA5C4",
"}. c #AABBD3",
"|. c #A5BDD8",
" X c #A8B8D5",
".X c #B5B0C8",
"XX c #C3B6CE",
"oX c #EBBBC4",
"OX c #ACC2DB",
"+X c #AEC0D7",
"@X c #B3C5DB",
"#X c #BAC8DE",
"$X c #B9CCE1",
"%X c #D7D9DE",
"&X c #F3CCC6",
"*X c #EBC9D6",
"=X c #F8DAD5",
"-X c #F6D8D9",
";X c #F3C9C9",
":X c #F8E1DD",
">X c #C4D3E4",
",X c #CBD8E8",
"<X c #DDDEE3",
"1X c #D2DCEB",
"2X c #D1D7E4",
"3X c #E3DBE7",
"4X c #DCE5EF",
"5X c #D8E1EB",
"6X c #DDE6F1",
"7X c #DDE8F1",
"8X c #E5E6EB",
"9X c #E7E7EB",
"0X c #F8E8E8",
"qX c #E9EDF3",
"wX c #E4EAF3",
"eX c #EDF1F4",
"rX c #F3F4F5",
"tX c #FBF4F3",
"yX c #F5F6F9",
"uX c #F6F8FA",
"iX c #FCFDFD",
"pX c #FBF8F8",
"aX c #FBF0ED",
"sX c None",
/* pixels */
"sXsXsXsXsXsXsXsXsXsXsXsXsXsXsXsXsX<X9XpXiXiXiXiXiXrX3X9XsXsXsXsXsXsXsXsXsXsXsXsXsXsXsXsXsX",
"sXsXsXsXsXsXsXsXsXsXsXsXsX5XuXrXiXiXpXaX:X=X=X:X0XtXiXiXpXrXrXsXsXsXsXsXsXsXsXsXsXsXsXsXsX",
"sXsXsXsXsXsXsXsXsXsXsX8XrXiXiXaX=X~.H.H.E.H.r.r.r.p.F.U.=XtXiXiXrXsXsXsXsXsXsXsXsXsXsXsXsX",
"sXsXsXsXsXsXsXsXsXsX8XiXiX:XU.F.G.E.).)._._.g.4.4.+.O.o.r.a.U.aXiXtX9XsXsXsXsXsXsXsXsXsXsX",
"sXsXsXsXsXsXsXsXsXrXiXaXU.F.E.Q./._._._._._.h.3.3.3.3.4.4.+.} p.&XpXiXrXsXsXsXsXsXsXsXsXsX",
"sXsXsXsXsXsXsX%XyXiX:XF.G.)._._._._.(.(._.Q.4.! ! 2.2.2.2.4.5.+.w.J.aXiXrXsXsXsXsXsXsXsXsX",
"sXsXsXsXsXsX<XuXiX;XF.W._._._._.`.`././.`.j.>.W E E E Q Q X.X.4.5.} a.=XiXpXsXsXsXsXsXsXsX",
"sXsXsXsXsX<XuXtX~.G.)._._._././././././.z.2.$.&.&.&.I I W E Q ..X.+.o.p.&XiXuXsXsXsXsXsXsX",
"sXsXsXsXsXuXpXU.H.(._._.(./././.`.`./.l.<.%.%.%.%.%.$.$.=.I E E R  ...O.e.U.iXrXsXsXsXsXsX",
"sXsXsXsXtXiX&XH.(._._./././././.`.!.g.;.%.-.%.-.%.%.-.%.%.$.I I E R ....o.e.&XuX8XsXsXsXsX",
"sXsXsX8XiX=Xa.)._._.(./._.(.Q.W.f.7.U ;.-.-.-.;.-.=.=.P P P $.I I E T / o.} i.0XrXsXsXsXsX",
"sXsXsXrXaXD.o.g.z.R.R.R.l.f.i o . X X O =.;.;.;.~ $ . . . X O =.I W Q R / ) t.I.iXqXsXsXsX",
"sXsX8XiXU.q.5.6.d.X.! 2.<.&   5 4 4 5   L <.;.;.%   4 4 5 5   L %.I E Q  .) { i.8XrXsXsXsX",
"sXsXrXtXs.w.j.Q.Q.f.>.j.2.+ 6 6 6 6 6 6 % ,.<.<.# 6 6 6 6 6 6 L %.$.I E R / { C P.rX9XsXsX",
"sXsXiX-Xq.k./.).Q.4.>.3.*.+ 6 6 6 6 6 6 ; ,.<.<.# 6 6 6 6 6 6 - %.=.&.W Q | ) ] G 3XqXsXsX",
"sXrXiXJ.u./.(.Q.f.>.$.%.-.+ 6 6 6 6 6 6 ; 1.<.<.# 6 6 6 6 6 6 - -.%.&.I E T | ' B XXeX2XsX",
"sXrXtXa.u.Q.k.+.E $.%.%.%.@ 6 6 6 6 6 6 : 1.1.3.# 6 6 6 6 6 6 = -.-.%.I E Q / ' V N.6X6XsX",
"sXpX0Xi.+.+...E I =.%.-.*.@ 6 6 6 6 6 6 : 8.8.8.r 6 6 6 6 6 6 = -.-.%.&.I Q  .( 2 G 2X4XsX",
"qXiX-Xq.+...T E I $.%.-.;.@ 6 6 6 6 6 6 : 8.9.3.t 4 6 6 6 6 6 = -.-.%.&.I Q R ( V N .XwXsX",
"3XiXoXq.O.| R E I $.%.%.;.@ 6 6 6 6 6 6 i 9.9.3.t 6 6 6 6 6 6 = -.%.%.$.I E Y ( V b .X6XsX",
"5XiXT.t.o./ T E I $.%.-.*.@ 6 6 6 6 6 6 i 9.9.0.t 6 6 6 6 6 6 = -.-.-.$.&.E  .( A b A.1XsX",
"8XiXI.t.} / T E I $.%.-.;.@ 6 6 6 6 6 6 : 9.9.0.t 6 6 6 6 6 6 = -.-.%.%.I E R ( A b A.1X1X",
"3XiXI.q.} / R E I $.%.-.-.@ 6 6 6 6 6 6 : 9.9.0.t 6 6 6 6 6 6 = ;.-.%.$.W E R ' A x A.1X1X",
"<XiXY.q.{ / R Q I $.%.-.;.@ 6 6 6 6 6 6 : 8.8.3.t 6 6 6 6 6 6 = ;.%.%.$.W E R ` V v C.,XsX",
"5XiX;XC { )  .Q W $.%.-.%.@ 6 6 6 6 6 6 @ 8.8.3.t 6 6 6 6 6 6 = -.%.%.&.W T / 2 B z {.>XsX",
"rXiX-XS [ (  .T W &.$.%.*.* 6 6 6 6 6 6 n 1.1.<.t 6 6 6 6 6 6 = -.%.%.I W T ( V x D  X>XsX",
"sXuX0Xi.] ( / T E W &.%.%.+ 6 6 6 6 6 6 : 1.,.<.# 6 6 6 6 6 6 - -.%.$.W E R 2 M x D  X>XsX",
"sXrXiXD.] ' )  .T W &.%.%.+ 6 6 6 6 6 6 > 1.<.<.# 6 6 6 6 6 6 - -.$.&.W T ( B m v m.$X>XsX",
"sXqXiXY.C ] { / T E I $.%.+ 6 6 6 6 6 6 @ <.,.<.# 6 6 6 6 6 6 - %.&.W E | 2 x x c '.$XsXsX",
"sXsXiX-XS 3 ' )  .T E &.=.< 6 6 6 6 6 7 #.:.:.<.: 6 6 6 6 6 7 #.%.I W Y 2 m x h n.|.$XsXsX",
"sXsXeXpXD.V ] { ) R Q W &.@.u 8 8 8 8 u 7.;.;.;.@.u 8 8 8 8 i X.&.E T ^ m j z c Z.OX#XsXsX",
"sXsXsXpX*Xv A ' ( / R Q I &.5.y.y.y.y.3.;.-.-.%.<.7.y.y.y.y.2.&.W T ^ m l j h a [.#XsXsXsX",
"sXsXsXqXuXL.b 3 ] ( / T Q W I &.*.*.-.-.-.%.%.%.-.%.-.*.$.&.>.W E ^ , j k h w M.$X}.sXsXsX",
"sXsXsXsXyX0XN.B 3 ' (  .T T W W I &.$.$.%.%.$.%.%.$.$.$.I U E T ^ m N z f e c.[.$XsXsXsXsX",
"sXsXsXsXqXiX*XF B A ] ( |  .T Q W W I &.&.&.&.I &.&.I W E E R 2 M K i.K w s '.OXsXsXsXsXsX",
"sXsXsXsXsXwXuXoXv A A 3 { ) | T T Q E E W W W W E E E T R ^ , l K H J D s B.|.}.sXsXsXsXsX",
"sXsXsXsXsXsXwXrX;XN.b A A ] ] ( ) | Y T R R T R R / ^ 2 l j g N H J D c.'.|.$XsXsXsXsXsXsX",
"sXsXsXsXsXsXsX4XqX3XN.v B B B B V 2 ` _ ^ ^ ^ 2 B * j k g g f D F s b.].|.@XsXsXsXsXsXsXsX",
"sXsXsXsXsXsXsXsX4XwX3XK.D b M B M x x x l l l k j k g f r 9 9 0 s V.[.OX}.sXsXsXsXsXsXsXsX",
"sXsXsXsXsXsXsXsXsX2X6XwXXXn.u k x z l z l k k h g g f r 9 0 q v.'.|.OX XsXsXsXsXsXsXsXsXsX",
"sXsXsXsXsXsXsXsXsXsXsX5X6X1X.Xm.a c c h h f f e 0 0 0 q x.b.'.[.@X@XsXsXsXsXsXsXsXsXsXsXsX",
"sXsXsXsXsXsXsXsXsXsXsXsX>X1X5X1X#XC.M.v.c.a p c.x.v.M.B.].|.OX$X}.sXsXsXsXsXsXsXsXsXsXsXsX",
"sXsXsXsXsXsXsXsXsXsXsXsXsXsX>X>X>X,X,X#X}.}. X X|.OXOX$X}.$X}.sXsXsXsXsXsXsXsXsXsXsXsXsXsX",
"sXsXsXsXsXsXsXsXsXsXsXsXsXsXsXsXsXsX}.@X>X>X>X>X#X XsXsXsXsXsXsXsXsXsXsXsXsXsXsXsXsXsXsXsX",
"sXsXsXsXsXsXsXsXsXsXsXsXsXsXsXsXsXsXsXsXsXsXsXsXsXsXsXsXsXsXsXsXsXsXsXsXsXsXsXsXsXsXsXsXsX"
};
