/* XPM */
static char *result[] = {
/* columns rows colors chars-per-pixel */
"45 45 232 2 ",
"   c #7F0E36",
".  c #820A3C",
"X  c #81063C",
"o  c #871835",
"O  c #98392C",
"+  c #932F32",
"@  c #BC7519",
"#  c #B1661E",
"$  c #9C432B",
"%  c #AA5828",
"&  c #A8432E",
"*  c #B16724",
"=  c #B77629",
"-  c #C37A19",
";  c #D8683F",
":  c #DD7537",
">  c #C5722F",
",  c #E67A39",
"<  c #F17D3D",
"1  c #8C014B",
"2  c #880644",
"3  c #91014F",
"4  c #960C4C",
"5  c #971649",
"6  c #950152",
"7  c #980B53",
"8  c #970954",
"9  c #9C1555",
"0  c #9B3542",
"q  c #BC3C4F",
"w  c #A22557",
"e  c #A9375C",
"r  c #B93B57",
"t  c #AB354E",
"y  c #BA424C",
"u  c #B7575A",
"i  c #B24C5A",
"p  c #BE685B",
"a  c #B94968",
"s  c #A95577",
"d  c #AD4F70",
"f  c #9E4773",
"g  c #C4444D",
"h  c #C64B4A",
"j  c #CB4C4C",
"k  c #CB5346",
"l  c #CC5448",
"z  c #D35D45",
"x  c #D2564A",
"c  c #DB5B4B",
"v  c #D2584A",
"b  c #C64956",
"n  c #CE5356",
"m  c #E15E4C",
"M  c #E15C57",
"N  c #DB6344",
"B  c #DB6645",
"V  c #C67346",
"C  c #C16B5E",
"Z  c #D96856",
"A  c #C5775B",
"S  c #C36E49",
"D  c #EC6B45",
"F  c #E5624B",
"G  c #E76947",
"H  c #EE7243",
"J  c #EA7842",
"K  c #F07743",
"L  c #E36852",
"P  c #E57C53",
"I  c #CD5869",
"U  c #CD7071",
"Y  c #E26D6E",
"T  c #E37468",
"R  c #E87C75",
"E  c #BF8222",
"W  c #C98819",
"Q  c #D69815",
"!  c #D8891E",
"~  c #DDA814",
"^  c #EDB90C",
"/  c #FCBD0E",
"(  c #F0BF08",
")  c #F7AA1C",
"_  c #F9AC1B",
"`  c #F7A61F",
"'  c #E8B715",
"]  c #FAB415",
"[  c #FBBA11",
"{  c #FAB119",
"}  c #F4BF13",
"|  c #E9AB1C",
" . c #DB952A",
".. c #EA8D2B",
"X. c #F69D26",
"o. c #F3942C",
"O. c #F69A2A",
"+. c #EB8633",
"@. c #F38C34",
"#. c #F2833A",
"$. c #F28B3E",
"%. c #F49737",
"&. c #EF9528",
"*. c #DCB22B",
"=. c #F6A222",
"-. c #F8A421",
";. c #F7A728",
":. c #E8B829",
">. c #F9B628",
",. c #F6A939",
"<. c #F8B836",
"1. c #E5B035",
"2. c #FEC707",
"3. c #FECC04",
"4. c #FDC30B",
"5. c #F9C90A",
"6. c #FED104",
"7. c #FDD30A",
"8. c #FED80B",
"9. c #EDC81B",
"0. c #F9CB16",
"q. c #FCDB14",
"w. c #FCDE1A",
"e. c #FBD319",
"r. c #FBE11D",
"t. c #FCE014",
"y. c #FACA27",
"u. c #F9D428",
"i. c #FAC734",
"p. c #FAD636",
"a. c #EDC539",
"s. c #FBE423",
"d. c #FAE92A",
"f. c #FBE628",
"g. c #F7E338",
"h. c #D0894F",
"j. c #F39545",
"k. c #EF945B",
"l. c #EF9657",
"z. c #F29357",
"x. c #F0874B",
"c. c #DBA65B",
"v. c #DDA54F",
"b. c #F0B148",
"n. c #EC8B66",
"m. c #F29D6D",
"M. c #EA8575",
"N. c #F0996C",
"B. c #F2A07E",
"V. c #EDCC44",
"C. c #F7D848",
"Z. c #FCDB54",
"A. c #F8C750",
"S. c #FAD879",
"D. c #FAD56B",
"F. c #FCE16E",
"G. c #9D5E87",
"H. c #AE5D82",
"J. c #986C98",
"K. c #AC698A",
"L. c #BC768D",
"P. c #AF7191",
"I. c #9977A3",
"U. c #DB7A88",
"Y. c #C97182",
"T. c #998FB5",
"R. c #AA8DAD",
"E. c #C98697",
"W. c #DC858C",
"Q. c #EB978F",
"!. c #F2A787",
"~. c #F3AD97",
"^. c #F3BA98",
"/. c #EDB190",
"(. c #F4B7A7",
"). c #EFB3B2",
"_. c #F7CB96",
"`. c #FBE689",
"'. c #FCE999",
"]. c #FADDA1",
"[. c #F5C6BA",
"{. c #FDECA5",
"}. c #FCEDAA",
"|. c #FAE5A4",
" X c #FCF2AB",
".X c #979CC0",
"XX c #9DB3D1",
"oX c #9BA9CB",
"OX c #AAB2CF",
"+X c #A8BAD5",
"@X c #B2AFCC",
"#X c #CAB1C5",
"$X c #E9B5C5",
"%X c #ADC2DB",
"&X c #B1C4DC",
"*X c #BBCBDF",
"=X c #B4C6DB",
"-X c #BBCCE1",
";X c #B5CAE0",
":X c #BED1E5",
">X c #F6CCC6",
",X c #F6D5D4",
"<X c #F6D9DB",
"1X c #EDCDCF",
"2X c #C0CFE1",
"3X c #C5D3E5",
"4X c #CBD7E6",
"5X c #D2DDEB",
"6X c #D9DEE7",
"7X c #E6D9E5",
"8X c #F8DEE2",
"9X c #D6E2EE",
"0X c #DDE3EC",
"qX c #DFE2E7",
"wX c #DBE6F2",
"eX c #E3E4EA",
"rX c #EAECEF",
"tX c #E5E7EA",
"yX c #F8E7E8",
"uX c #E3EBF4",
"iX c #EBEDF2",
"pX c #E0E6F1",
"aX c #EEF2F6",
"sX c #F2F4F6",
"dX c #FBF4F3",
"fX c #F3F6F9",
"gX c #F6F9FA",
"hX c #FCFDFD",
"jX c #FBF7F7",
"kX c #F7EEF1",
"lX c #D0CFDF",
"zX c None",
/* pixels */
"zXzXzXzXzXzXzXzXzXzXzXzXzXzXzXzXtXeXsXhXhXhXhXhXjXtXeXzXzXzXzXzXzXzXzXzXzXzXzXzXzXzXzXzXzX",
"zXzXzXzXzXzXzXzXzXzXzXzXzXzXsXgXhXhXhXjXjXdXdXhXhXhXhXjXsXrXzXzXzXzXzXzXzXzXzXzXzXzXzXzXzX",
"zXzXzXzXzXzXzXzXzXzXzXtXfXhXhXdX<X[.(.^.^.!.m.B.!.(.>XyXjXhXgXrXzXzXzXzXzXzXzXzXzXzXzXzXzX",
"zXzXzXzXzXzXzXzXzXzXsXjXhXyX[.!./._.].|.{.S.i.>.<.,.j.N.!.>XdXhXgXqXzXzXzXzXzXzXzXzXzXzXzX",
"zXzXzXzXzXzXzXzXeXfXhXyX(.!._.]. X X X X X`.p.p.p.p.i.i.<.j.B.,XhXhXaXzXzXzXzXzXzXzXzXzXzX",
"zXzXzXzXzXzXzXiXjXjX>X!._.|.{. X X X X X XF.y.0.0.y.u.p.i.i.<.z.~.yXhXsXzXzXzXzXzXzXzXzXzX",
"zXzXzXzXzXzXrXhXyX^.^.'.}. X X X X X{.{.'.i./ ] ] ] ] { >.>.>.i.,.m.[.jXgXrXzXzXzXzXzXzXzX",
"zXzXzXzXzXrXhXyX~.].}. X X X}.{.{.{.{.'.Z.4.4.4.4./ [ [ [ { -.>.<.<.j.(.hXgXzXzXzXzXzXzXzX",
"zXzXzXzXiXhXyX~._. X X X{.{.{.{.{. X'.Z.5.3.3.3.2.4.4.4.[ [ { ) -.<.<.j.(.dXaXzXzXzXzXzXzX",
"zXzXzXtXhXdX(._. X X X}.{.{.{.{.{.`.p.7.6.6.6.6.3.6.3.3.2./ [ { _ -.;.,.j.).hXaXzXzXzXzXzX",
"zXzXzXfXjX(._. X}.}.}.}. X X{.`.Z.q.3.6.6.6.6.6.6.6.3.3.3.2.4.[ ] ` =.;.,.k.yXgX0XzXzXzXzX",
"zXzXiXhX,Xn.A.`.{.'.'.'.F.F.C.e.7.6.7.7.( ~ W W Q ' 5.6.6.3.2./ [ ] ` X.o.j.Q.fXfXzXzXzXzX",
"zXzXfXjXQ.O.i.p.<.i.y.y.0.3.6.6.7.6.~ * +         o O W ( 6.3.3.4.[ _ -.O.o.P 1XgX0XzXzXzX",
"zXeXhX).x.A.S.`.D.[ Z.C.3.6.6.6.' % o 2 1 6 3 3 1 1 2 . + - 5.3.5.4.[ _ =.o.+.W.uXaXzXzXzX",
"zXfXdXM.b.'.}.}.D.4.y.e.6.8.8.9.O 2 3 6 8 6 8 9 8 6 6 6 1 . @ 3.3.4.[ { ) X.@.L #XaX0XzXzX",
"zXgX>Xx.S.}.}.`.i.4.^ @ # @ Q % 2 6 6 8 e A c.c.c.A e 6 6 3 o Q 6.5.4.[ _ =.o.H W.uXwXzXzX",
"eXhX~.j.`.'.S.<./ 2.- X       2 6 6 7 A C.g.f.s.s.d.V.p 3 6 1 O ( 2.4./ { ` o.< U lXeXzXzX",
"rXhXM.j.A.b._ ] / 2.> 6 6 6 6 6 6 6 8 0 = *.s.r.r.r.w.p.u 8 8 2 W 3.2./ ] ` X.< m #XuXzXzX",
"hXkXn.<.<.` _ / 4.3. .6 6 6 6 6 6 6 6 1   + *.r.s.r.w.w.a.w 6 6 & 4.3./ [ ) X.< D R.wX3XzX",
"hX8Xn.<.;.` _ [ 2.3.:.9 6 6 6 6 6 6 6 6 8 5 *.d.s.r.r.w.w.S 6 6 5 ^ 3./ [ ) X.< D L.5X9XzX",
"hX<Xk.<.O.-._ / 4.3.5.y 6 6 6 6 6 6 6 6 7 A g.d.f.r.r.w.q. .8 6 4 Q 3.4.] _ X.< D Y.3XwXzX",
"hX,Xk.,.O.` { / 4.3.7.> 8 6 6 6 6 6 6 7 p p.d.d.f.s.r.r.q. .7 6 4 ! 3.4./ _ X.< D U :X9XzX",
"hX,Xk.,.O.=.{ / 2.3.6. .7 6 6 6 6 6 6 u C.d.d.f.s.s.r.t.r.> 3 6 7  .3.4.] _ O.K D U -X5XzX",
"hX<Xk.%.o.` _ [ 4.3.6.9.t 6 6 6 6 6 i V.d.f.s.f.s.r.r.r.9.+ 6 6 5 | 2.4.] _ @., F Y.;X9XzX",
"hX8Xn.%.O.X.{ ] 4.3.3.6.V 6 6 6 6 i V.s.s.s.s.s.r.w.w.e.* 1 6 6 t } 2./ ] ` < G F L.;X5XzX",
"hXyXn.%.@.X.) ] / 2.3.6.:.w 6 6 u V.r.w.r.s.r.r.r.w.9.* . 3 6 8 V 5.4./ { -., G c P.-X-XzX",
"aXjXM.x.@.O.` { / 4.3.3.0.h.w u a.t.q.w.w.w.r.9.~ E O 2 1 6 6 w :.3./ [ { o.; N n R.:X&XzX",
"eXhXQ.P @.o.` _ [ / 3.3.6.e.1.p.q.q.q.q.q.w.9.$ . 2 2 3 8 6 9 h.5.2./ ] ` , F c I XX3XzXzX",
"zXgX1XL #.@.X.` { / 4.3.3.6.6.7.7.8.q.8.q.0.% 1 6 6 6 6 6 6 V e.2./ [ _ ..N c x K.+X2XzXzX",
"zXfXkXU.< #.O.X.) ] / 4.3.6.6.6.6.7.7.7.q.W 2 6 6 6 6 6 9 A y.2./ [ ] X.; c x b T.=X-XzXzX",
"zXeXhX).F #.@.X.=.{ [ / 2.3.3.6.6.7.8.7.8.= 3 6 6 6 9 u v.u.2.4./ ] ` , c z j s XX-XzXzXzX",
"zXzXfXkXY D @.@.X.) { [ / 2.3.3.6.6.5.6.6.a.C a C h.v.u.7.2.4./ [ ) : z v j r R.%X=XzXzXzX",
"zXzXiXhX$XM K #.%.X._ _ [ / 4.5.3.3.3.3.6.6.e.u.u.7.7.2.2.4./ ] ` : ; k j g H.+X=XzXzXzXzX",
"zXzXzXgXgXW.F K @.O.X._ { ] [ 4.4.2.3.3.3.3.3.3.3.2.2.4./ } ] ` : z v h g a T.;X=XzXzXzXzX",
"zXzXzX0XfXyXU.F K #.O.X.-._ ] ] / / 4.4.4.2.4.4.4./ } / [ { ..; Z T T n r P.+X&XzXzXzXzXzX",
"zXzXzXzX6XfXyXU.m K < @.O.X.-._ { { ] [ [ [ [ [ ] ] { ) &.: z T M.M.Y r J.XX&XzXzXzXzXzXzX",
"zXzXzXzXzX0XfX7XU.F H J < @.o.;.-.) ) _ _ { { _ ) =...: z k Z M.R Y a I.XX+XzXzXzXzXzXzXzX",
"zXzXzXzXzXzX0XaX7XY.M L D D H , +.@.o.o.&.&...+.: ; k k k y n Y Y a I.XX;X+XzXzXzXzXzXzXzX",
"zXzXzXzXzXzXzX9XuX7XU.I m m N N N N B B N N z l h k h h h g q r f T.XX&X+XzXzXzXzXzXzXzXzX",
"zXzXzXzXzXzXzXzX4XpXeX#XK.I x c c x x l l k l j h g g y q t f J.oX+X&XzXzXzXzXzXzXzXzXzXzX",
"zXzXzXzXzXzXzXzXzX3X0XwX5X@XK.a b b j x j j h g y q r e f J..X+X%X%XzXzXzXzXzXzXzXzXzXzXzX",
"zXzXzXzXzXzXzXzXzXzXzX3X5X0X4X@XR.K.s s d d d d s G.J.T.oX+X%X+XzXzXzXzXzXzXzXzXzXzXzXzXzX",
"zXzXzXzXzXzXzXzXzXzXzXzXzX*X3X4X5X3X2X+X+XOXOXOX+X+X%X;X%X%XzXzXzXzXzXzXzXzXzXzXzXzXzXzXzX",
"zXzXzXzXzXzXzXzXzXzXzXzXzXzXzXzX+X2X3X2X2X2X*X*X-X-X+XzXzXzXzXzXzXzXzXzXzXzXzXzXzXzXzXzXzX",
"zXzXzXzXzXzXzXzXzXzXzXzXzXzXzXzXzXzXzXzXzXzXzXzXzXzXzXzXzXzXzXzXzXzXzXzXzXzXzXzXzXzXzXzXzX"
};
