/* XPM */
static char *result[] = {
/* columns rows colors chars-per-pixel */
"45 45 232 2 ",
"   c #7E023D",
".  c #841634",
"X  c #921C3E",
"o  c #8E2D2E",
"O  c #983533",
"+  c #932F32",
"@  c #AC353E",
"#  c #BA6F1F",
"$  c #9D4329",
"%  c #A85A28",
"&  c #BC5E37",
"*  c #A3482A",
"=  c #B16627",
"-  c #AF6021",
";  c #C15C32",
":  c #D6673E",
">  c #DE7836",
",  c #C97436",
"<  c #E67A39",
"1  c #F17C3E",
"2  c #850244",
"3  c #8B014A",
"4  c #890843",
"5  c #92024F",
"6  c #94084A",
"7  c #99144B",
"8  c #950152",
"9  c #960A54",
"0  c #990D54",
"q  c #9C1354",
"w  c #A01E55",
"e  c #A01A48",
"r  c #9B2641",
"t  c #BD3D4F",
"y  c #A32857",
"u  c #A9365A",
"i  c #B93B57",
"p  c #A4264D",
"a  c #A53F68",
"s  c #AE435C",
"d  c #B4495D",
"f  c #B6514B",
"g  c #BD6151",
"h  c #9F4570",
"j  c #B74B66",
"k  c #B2526B",
"l  c #A7577B",
"z  c #B45472",
"x  c #C3444D",
"c  c #C64A4B",
"v  c #CB4D4C",
"b  c #CD474C",
"n  c #CC534A",
"m  c #CC5546",
"M  c #D25E44",
"N  c #D25649",
"B  c #DA5B4B",
"V  c #D35949",
"C  c #C44958",
"Z  c #D75A54",
"A  c #CC5057",
"S  c #E35E4D",
"D  c #DC6644",
"F  c #D66342",
"G  c #CA7D56",
"H  c #CF6A55",
"J  c #E3634A",
"K  c #EB6B48",
"L  c #E76B45",
"P  c #EC7344",
"I  c #E9784A",
"U  c #F07642",
"Y  c #F17A41",
"T  c #E36653",
"R  c #D35B65",
"E  c #D96C6C",
"W  c #D97973",
"Q  c #E16E6A",
"!  c #E47669",
"~  c #EB7C73",
"^  c #D59B17",
"/  c #CB8B1D",
"(  c #DBA414",
")  c #ECBC0D",
"_  c #FBBE0E",
"`  c #E5A717",
"'  c #F9AC1B",
"]  c #F7A71E",
"[  c #ECB815",
"{  c #FAB515",
"}  c #FBBA12",
"|  c #FAB119",
" . c #FABB1B",
".. c #E5AE0F",
"X. c #D08D2A",
"o. c #EB8B2F",
"O. c #ED9527",
"+. c #F49D25",
"@. c #F4942D",
"#. c #F59A2A",
"$. c #E88533",
"%. c #F38C34",
"&. c #F2823A",
"*. c #F38A38",
"=. c #F39638",
"-. c #D8AE25",
";. c #F7A223",
":. c #F8A521",
">. c #F7A825",
",. c #F9B725",
"<. c #F5A33C",
"1. c #F6AD3D",
"2. c #F7A533",
"3. c #F8B735",
"4. c #E5B12D",
"5. c #FDC707",
"6. c #FECC04",
"7. c #F3C40C",
"8. c #FDC30A",
"9. c #F9CD0B",
"0. c #FED104",
"q. c #FED40B",
"w. c #FDD80D",
"e. c #F7C716",
"r. c #FCD518",
"t. c #EBCA23",
"y. c #F9C828",
"u. c #FAD727",
"i. c #F6C937",
"p. c #FBD333",
"a. c #F8D43A",
"s. c #E9C230",
"d. c #FBE625",
"f. c #FAE92B",
"g. c #FBE827",
"h. c #FAE638",
"j. c #D18741",
"k. c #D89949",
"l. c #D39458",
"z. c #CA835A",
"x. c #F18945",
"c. c #F39647",
"v. c #ED894F",
"b. c #F3B449",
"n. c #EE8B71",
"m. c #ED977B",
"M. c #F0936E",
"N. c #F5B36C",
"B. c #FBD94A",
"V. c #FAD558",
"C. c #F0CB53",
"Z. c #F5E045",
"A. c #FAD564",
"S. c #F9CF6D",
"D. c #FCE67A",
"F. c #9D5A85",
"G. c #9A729D",
"H. c #966894",
"J. c #AC688B",
"K. c #A5769D",
"L. c #B77791",
"P. c #9A7DA7",
"I. c #DB7E90",
"U. c #E07D8A",
"Y. c #B98097",
"T. c #9996BB",
"R. c #9687AF",
"E. c #AC8DAC",
"W. c #BAA2BB",
"Q. c #D78991",
"!. c #E8968D",
"~. c #F2A689",
"^. c #F4B595",
"/. c #F1AD8C",
"(. c #E196A6",
"). c #DBB7BD",
"_. c #F3B7A9",
"`. c #EFB1AB",
"'. c #C889A3",
"]. c #F7CD97",
"[. c #FCE886",
"{. c #FBE798",
"}. c #FADFA6",
"|. c #F6C4B9",
" X c #FAE4A5",
".X c #FCECA5",
"XX c #FCEDAA",
"oX c #FCF2AB",
"OX c #A09FC0",
"+X c #9EB5D3",
"@X c #9BA9CA",
"#X c #A8ACCB",
"$X c #AAB5CF",
"%X c #A6BAD5",
"&X c #B5B7D2",
"*X c #C9B3C8",
"=X c #EEBDC3",
"-X c #AEC3DB",
";X c #BBCBDE",
":X c #B6C5D9",
">X c #BACDE1",
",X c #F5CBC6",
"<X c #F8D3CB",
"1X c #F8DAD5",
"2X c #EECAD1",
"3X c #FAE0DB",
"4X c #C7CFE1",
"5X c #C4D4E5",
"6X c #C8D8E8",
"7X c #DDDEE3",
"8X c #D3DAE7",
"9X c #F4DDE4",
"0X c #DDE3EC",
"qX c #D5E1EE",
"wX c #DCE7F2",
"eX c #E4E4EA",
"rX c #EAEBEE",
"tX c #E6E4EA",
"yX c #F9E6E3",
"uX c #F8E9E9",
"iX c #FCF2EF",
"pX c #EDEEF2",
"aX c #E2EAF4",
"sX c #F3F4F6",
"dX c #FBF4F4",
"fX c #F3F6F9",
"gX c #F7F9F9",
"hX c #FCFDFD",
"jX c #FAF8F7",
"kX c #F0EDF4",
"lX c #D1D4DC",
"zX c None",
/* pixels */
"zXzXzXzXzXzXzXzXzXzXzXzXzXzXzXzXzXzXzXzXjXjXsXjXzXzXzXzXzXzXzXzXzXzXzXzXzXzXzXzXzXzXzXzXzX",
"zXzXzXzXzXzXzXzXzXzXzXzXzXzXzXeXsXsXhXhXhXhXhXhXhXgXdXsX0XzXzXzXzXzXzXzXzXzXzXzXzXzXzXzXzX",
"zXzXzXzXzXzXzXzXzXzXzXzXzXsXjXhXhXiXyX1X<X<X<X1X3XiXjXjXhXgXpXzXzXzXzXzXzXzXzXzXzXzXzXzXzX",
"zXzXzXzXzXzXzXzXzXzXzXsXhXhXdX<X_./.^.].].N.=.c.c.M.m.|.1XjXhXsXeXzXzXzXzXzXzXzXzXzXzXzXzX",
"zXzXzXzXzXzXzXzXzXrXjXhXuX_././.]..XoXoXoX[.a.p.p.i.3.<.c.~.,XdXjXsXzXzXzXzXzXzXzXzXzXzXzX",
"zXzXzXzXzXzXzXzXpXhXdX|.~.].{.oXoXoXoXoXoXD.u.u.y.u.p.p.i.1.c./.yXhXjXpXzXzXzXzXzXzXzXzXzX",
"zXzXzXzXzXzXzXpXhXyX^.^. XoXoXoXoXoXoXXX.XV.{  . . .,.y.y.p.i.<.M.|.dXhXrXzXzXzXzXzXzXzXzX",
"zXzXzXzXzXzXsXhX<X^.].oXoXoXoX.X.X.X{..XD.e.} _ _ _ { { ' | ,.3.3.c.~.uXhXtXzXzXzXzXzXzXzX",
"zXzXzXzXzXjXhX<X/.}.oXoXoXoX.X.X.XoX.X[.y.6.5.6.8._ _ _ } { ' :.,.3.c.m.yXhXpXzXzXzXzXzXzX",
"zXzXzXzXkXhX1X/. XXXoXXX.X.X.X.X.X{.D.r.0.6.6.6.6.6.6.5._ _ } ' :.>.3.<.m.uXgXzXzXzXzXzXzX",
"zXzXzXrXhXyX^.}.oXoXXX.X.X.X.XoX[.B.r.6.0.0.q.0.6.6.6.6.5.8._ } ' :.;.2.=./.gXfXzXzXzXzXzX",
"zXzXzXjXhX!.N..XXXXXXXXX.X{.D.B.r.q.0.0.7.) ) 7.0.0.0.0.6.5.8._ } ' :.#.2.c.2XhXeXzXzXzXzX",
"zXzXtXhX,Xx.i.B.V.A.V.B.B.u.q.6.q.q.q.^ + o o * 7.q.q.0.0.6.5.5._ { ' ;.#.=.!.sXsXzXzXzXzX",
"zXzXfXuXn.<.B.A.C.,.y.B.6.6.0.) ( ) e.* 3 3 3 . ^ q.( ^ 9.0.0.5.8.} { ' +.O.I ).fX0XzXzXzX",
"zX7XhX`.x.A.{.XX{.,.p.a.6.0.) $ . o * 7 8 8 8 8 O $ . . - 7.0.6.5.8.} ' ] #.&.W 0XpXzXzXzX",
"zXgXdXn.b.XXXXXXV.} 6.6.0.) O 4 5 3 2 3 8 8 8 8 3 2 8 8 . - 9.0.6.8._ { ' +.%.T *XpX8XzXzX",
"zXgX1Xv.S.XX}.A. .5.6.0.0./ 4 8 8 8 8 8 3 5 5 8 8 8 8 8 5 X ..0.6.6.8.} ' ;.%.P Q.wX0XzXzX",
"pXhX_.x.V.A.b.{ _ 5.6.0.0.4.y 8 8 8 8 9 y s k w 8 5 8 8 8 s e.0.6.6.8.} { :.@.U E 4X0XzXzX",
"7XhX`.=.3.2.' { 8.5.6.0.w.r.g 8 8 8 q z.C.Z.Z.C.d 6 5 8 9 j.w.q.0.6.5._ { :.#.1 T *XwXzXzX",
"rXhX~.1.3.+.' } 7.6.0.6.( - r 8 8 9 z.h.d.f.d.f.C.u 5 8 9 + # ) 0.6.5._ { ' #.Y T W.wX:XzX",
"jXhX!.1.2.;.' } 8.5.0...o 2 3 8 8 u a.f.f.f.f.f.g.k.9 8 8 3   = 0.0.6.8.{ ' #.Y J E.qX;XzX",
"hXhXM.1.#.;.' } 8.6.6.( 6 8 8 8 3 M u.g.f.f.f.f.g.4.w 8 8 8 8 = 6.0.5._ { ' #.Y K L.6X4XzX",
"hXhXm.1.#.;.' } 8.5.0.` 6 8 8 8 9 & f.g.f.f.f.f.d.4.e 8 8 8 8 ; 0.6.5._ { ' @.P K L.6X4XzX",
"hXhXm.=.@.;.' } 8.5.6.[ y 8 8 8 8 r t.d.f.f.d.d.d.X.8 8 8 8 9 , q.6.5.7.{ ' *.P J Y.6X;XzX",
"jXhX!.<.@.+.' } _ 5.6.q.b.z.y 8 9 3 = u.d.d.d.d.-.O 8 8 9 u l.y.0.6.5.8.{ :.&.L B E.5X:XzX",
"rXhX!.c.@.#.] { _ 8.6.0.q.u.g 8 8 3 4 % -.t.t.-.O 3 8 8 8 j.r.q.0.6.8.} | +.P J Z E.5XzXzX",
"7XhX`.x.%.#.:.' _ 8.6.6.0.` 7 8 8 8 5 2   o o   3 8 8 8 8 @ 7.q.6.5.8.{ ' O.L D A #X5XzXzX",
"zXhX=XI *.@.+.' { _ 6.6.0.^ q 8 8 8 9 6 6 4 3 5 9 8 8 8 8 p [ 0.6.5.} { :.< D V z $X4XzXzX",
"zXdX9X! &.%.#.:.| } 8.6.0.e.G 9 8 8 9 9 8 8 8 8 9 9 8 8 w k.9.6.5.} } ' o.D B b K.-X4XzXzX",
"zXkXdXQ.U *.@.+.] { _ 8.9.0.r.G u H l.w 8 8 8 8 g l.s u k.r.6.6.8.} | +.D B N C #X;XzXzXzX",
"zXzXhX2XT &.%.#.] ' } _ 5.6.0.r.C.u.r.f 8 8 8 0 4.r.p.i.w.6.6.8._ { ;.< F V b J.%X;XzXzXzX",
"zXzXsXdXU.K &.@.+.] | _ _ 7.6.0.0.9.9.4.s u u g e.q.6.0.6.5.8._ { ' > M n n C T.-X:XzXzXzX",
"zXzX7XhX2XR U &.@.+.] | } _ 8.5.6.6.6.q.i.i.i.t.q.0.6.6.5.5._ { ] > : m v b J.%X>XzXzXzXzX",
"zXzXzXsXjX(.S U *.@.;.] { { } 8.5.5.6.6.0.0.6.6.6.6.5.5._ _ } ] > M m c b j OX-X%XzXzXzXzX",
"zXzXzXlXfXkXQ.J U &.@.;.:.' { } _ _ 8.8.5.5.5.8.8.8._ } } ' O.> T ! Q c i K.%X-XzXzXzXzXzX",
"zXzXzXzXtXfXuXI.S U 1 %.#.;.:.] ' { { } } } } } { { { ' O.> : Q n.~ E i G.+X:XzXzXzXzXzXzX",
"zXzXzXzXzX0XfXtXI.S K U 1 %.#.;.:.>.| ' ' { { ' ' ] o.> ; m Z ~ ~ E j G.%X%XzXzXzXzXzXzXzX",
"zXzXzXzXzXzX8XfXtXQ.S K P L < 1 $.@.#.+.+.O.O.o.> : : v v c R Q R z P.+X>XzXzXzXzXzXzXzXzX",
"zXzXzXzXzXzXzX8XaXtX'.R B J J D D D D D F F M N m m c b x f t i F.R.+X-XzXzXzXzXzXzXzXzXzX",
"zXzXzXzXzXzXzXzX8XwXrX*XJ.A Z B B B M N N n n v c c x f t i a H.#X%X-XzXzXzXzXzXzXzXzXzXzX",
"zXzXzXzXzXzXzXzXzXzXqXaX8X#XJ.C C v v n v v x x t t i u h H.T.%X-X-XzXzXzXzXzXzXzXzXzXzXzX",
"zXzXzXzXzXzXzXzXzXzXzX6X8XqX8X&XE.J.l z z k k k l F.H.R.@X%X-X%XzXzXzXzXzXzXzXzXzXzXzXzXzX",
"zXzXzXzXzXzXzXzXzXzXzXzXzXzX6X6X6X5X;X&X$X#X#X$X$X%X-X>X-X-XzXzXzXzXzXzXzXzXzXzXzXzXzXzXzX",
"zXzXzXzXzXzXzXzXzXzXzXzXzXzXzXzXzX;X5X5X;X>X;X;X>X>X%XzXzXzXzXzXzXzXzXzXzXzXzXzXzXzXzXzXzX",
"zXzXzXzXzXzXzXzXzXzXzXzXzXzXzXzXzXzXzXzXzXzXzXzXzXzXzXzXzXzXzXzXzXzXzXzXzXzXzXzXzXzXzXzXzX"
};
