/* XPM */
static char *result[] = {
/* columns rows colors chars-per-pixel */
"45 45 225 2 ",
"   c #7F122F",
".  c #860C3D",
"X  c #8A153B",
"o  c #952F30",
"O  c #9C402A",
"+  c #AC4D2E",
"@  c #B56A26",
"#  c #C27922",
"$  c #DC6D3D",
"%  c #DC7536",
"&  c #C3753A",
"*  c #E77A39",
"=  c #F17D3E",
"-  c #F1773E",
";  c #8A0545",
":  c #8C024A",
">  c #890447",
",  c #950052",
"<  c #970954",
"1  c #95134C",
"2  c #A9385B",
"3  c #B73B54",
"4  c #A22C4C",
"5  c #A83C62",
"6  c #C13A50",
"7  c #B7445A",
"8  c #B7545C",
"9  c #BB484A",
"0  c #BE665B",
"q  c #A7496C",
"w  c #AB4C76",
"e  c #B65672",
"r  c #C2444E",
"t  c #C64A4B",
"y  c #CB4D4C",
"u  c #C74B49",
"i  c #CB5446",
"p  c #CD524A",
"a  c #CF5B47",
"s  c #D45E43",
"d  c #D3544B",
"f  c #D55A49",
"g  c #D95B49",
"h  c #C44756",
"j  c #DB5B56",
"k  c #CF5055",
"l  c #E05C4A",
"z  c #DA6644",
"x  c #DD6459",
"c  c #C87B56",
"v  c #EB6B46",
"b  c #E4644A",
"n  c #E76A47",
"m  c #EC7343",
"M  c #EB7646",
"N  c #F07941",
"B  c #E16F5E",
"V  c #C55567",
"C  c #C04C6A",
"Z  c #D96767",
"A  c #D06D73",
"S  c #E7796C",
"D  c #E87871",
"F  c #E0686E",
"G  c #C8881C",
"H  c #CE921D",
"J  c #D59717",
"K  c #DBA518",
"L  c #FCBE0E",
"P  c #F8A61F",
"I  c #F9AC1B",
"U  c #F7A61E",
"Y  c #FAB415",
"T  c #FBBA11",
"R  c #FAB219",
"E  c #FAB81F",
"W  c #E5B412",
"Q  c #C78221",
"!  c #E7892D",
"~  c #ED9428",
"^  c #F59D26",
"/  c #F4952C",
"(  c #F69A2A",
")  c #E88433",
"_  c #F38C33",
"`  c #F2833B",
"'  c #F38F3C",
"]  c #F49231",
"[  c #F49D3A",
"{  c #F59B37",
"}  c #F6A223",
"|  c #F8A521",
" . c #F7AA27",
".. c #F9B828",
"X. c #F6A53B",
"o. c #F7AE3B",
"O. c #F7AC34",
"+. c #F8B838",
"@. c #E7B437",
"#. c #FDC707",
"$. c #FECC04",
"%. c #FDC30A",
"&. c #F5C70B",
"*. c #FED104",
"=. c #FDD50A",
"-. c #FDD80D",
";. c #FBC917",
":. c #FBD312",
">. c #FEDA13",
",. c #FDD91B",
"<. c #F7C62A",
"1. c #FBD428",
"2. c #F9C738",
"3. c #FAD435",
"4. c #CC855A",
"5. c #D29652",
"6. c #EE8E4C",
"7. c #EF924A",
"8. c #F39846",
"9. c #EE8752",
"0. c #EF9256",
"q. c #F18952",
"w. c #E6B647",
"e. c #DF8A74",
"r. c #EE8E64",
"t. c #F29664",
"y. c #EC8772",
"u. c #ED947D",
"i. c #F19B73",
"p. c #EE9268",
"a. c #FAC746",
"s. c #FBD447",
"d. c #F9C856",
"f. c #FBDD54",
"g. c #EDC546",
"h. c #F9D868",
"j. c #FAD876",
"k. c #F7C063",
"l. c #FDE36B",
"z. c #FCE877",
"x. c #9B5884",
"c. c #AC5A80",
"v. c #996D98",
"b. c #A86288",
"n. c #BB768C",
"m. c #B57B99",
"M. c #B36686",
"N. c #997EA7",
"B. c #CE7B82",
"V. c #BC8499",
"C. c #9883AB",
"Z. c #9896BC",
"A. c #9887B0",
"S. c #A78AAB",
"D. c #A294B6",
"F. c #B093AF",
"G. c #E18A98",
"H. c #EC958A",
"J. c #F2A688",
"K. c #F3B389",
"L. c #F3AA91",
"P. c #F3B29B",
"I. c #E29CAA",
"U. c #D4ADB7",
"Y. c #F4B7A6",
"T. c #F6C595",
"R. c #F8D69B",
"E. c #FADC8D",
"W. c #FCE999",
"Q. c #FDE887",
"!. c #F5C6BA",
"~. c #F9DCA1",
"^. c #FCECA5",
"/. c #FCECAA",
"(. c #FBE5A5",
"). c #FCF2AB",
"_. c #9B9DC0",
"`. c #9CA9C9",
"'. c #9EB2D0",
"]. c #9CB0CF",
"[. c #A7A8C8",
"{. c #ABBCD3",
"}. c #A6B9D5",
"|. c #BEB3CB",
" X c #CEB7CD",
".X c #E4B8C7",
"XX c #ADC3DB",
"oX c #B2C4DC",
"OX c #B6C6D9",
"+X c #BACDE3",
"@X c #BFD0E2",
"#X c #C3CCDC",
"$X c #CAC6D8",
"%X c #D2D0DD",
"&X c #F5CAC3",
"*X c #F7D3CB",
"=X c #F7D9D5",
"-X c #F7DBDB",
";X c #F6D8D8",
":X c #EBC7CC",
">X c #C4CEE0",
",X c #C3D3E4",
"<X c #C9D8E8",
"1X c #D4DDEA",
"2X c #D4D9E5",
"3X c #E0DFE3",
"4X c #F3DBE3",
"5X c #DBE1EC",
"6X c #DCE6F1",
"7X c #E1E0E4",
"8X c #E5E5EA",
"9X c #ECEBEE",
"0X c #E9E7EA",
"qX c #FAEBEB",
"wX c #F8E1E3",
"eX c #EDEEF2",
"rX c #E3EAF2",
"tX c #EEF1F5",
"yX c #EBF1F9",
"uX c #F4F4F5",
"iX c #FCF5F5",
"pX c #FCFDFD",
"aX c #F7F7F9",
"sX c #F6EFF1",
"dX c None",
/* pixels */
"dXdXdXdXdXdXdXdXdXdXdXdXdXdXdXdXdXdXdXdXdX0X7X8XiXdXdXdXdXdXdXdXdXdXdXdXdXdXdXdXdXdXdXdXdX",
"dXdXdXdXdXdXdXdXdXdXdXdXdXdXdXdX0XaXuXpXpXpXpXpXpXpXuXpXuX%XdXdXdXdXdXdXdXdXdXdXdXdXdXdXdX",
"dXdXdXdXdXdXdXdXdXdXdXdXdXeXpXpXpXqX-X*X!.!.Y.P.Y.&X=XqXpXpXpX9XdXdXdXdXdXdXdXdXdXdXdXdXdX",
"dXdXdXdXdXdXdXdXdXdXdX9XpXpXiX*XY.K.K.T.R.R.k.O.o.[ 8.t.J.!.qXpXpXeXdXdXdXdXdXdXdXdXdXdXdX",
"dXdXdXdXdXdXdXdXdXdXuXpXiX!.L.K.R.(.).).).).z.1.3.3.2.2.o.' t.Y.qXpXaX8XdXdXdXdXdXdXdXdXdX",
"dXdXdXdXdXdXdXdX8XuXpX=XL.K.R./.).).).).).).l.1.1.1.1.1.3.3.+.X.i.*XpXpX0XdXdXdXdXdXdXdXdX",
"dXdXdXdXdXdXdX7XpXpX!.J.R.).).).).).).^./.^.2.Y Y Y R E ..<.2.2.o.0.Y.iXpXtXdXdXdXdXdXdXdX",
"dXdXdXdXdXdX2XpXpX!.K./.).).).).^.^.^.^.^.h.;.L L L T T Y I R ..<.+.' J.qXpX9XdXdXdXdXdXdX",
"dXdXdXdXdX7XpXqXY.T.(.).).).^.^.^.^.^.W.l.;.$.&.#.%.%.%.L T R I I  .+.X.i.=XpX5XdXdXdXdXdX",
"dXdXdXdX7XpXiXY.T.).).).^.^.^.^.^.^.W.f.=.$.$.$.$.$.$.$.%.%.L T I P | O.X.p.-XpX8XdXdXdXdX",
"dXdXdXdXiXpX!.P./.)././.(./.^.^.W.l.1.*.*.*.$.*.$.*.*.$.$.$.%.L Y R P ^ O.{ u.sXuXdXdXdXdX",
"dXdXdX0XpX=Xr.j.^./.^.^.W.W.Q.h.5.Q J &.=.=.=.=.*.*.*.*.$.$.$.%.L T I P ^ { 8.:XpXeXdXdXdX",
"dXdXdXuXiXH.{ 2.s.d.d.s.s.1.=.G     . O H &.-.-.=.=.-.*.*.*.$.$.%.L T I } ( { y.0XuXdXdXdX",
"dXdX2XpX!.6.2.f.h.a.Y s.3.$.$.O . : , : ; O H :.-.-.-.-.=.*.*.$.$.%.T R U ^ ] M U.aXrXdXdX",
"dXdXuXiXu.8.z.^.).j.;.f.3.*.W X , , , , , : X O K :.>.-.=.=.*.*.$.$.L T R | ( ` A 8XyXdXdX",
"dXdXpX*XM j.^./.W.a.%.#.*.*.K X , , , , , , < : ; @ K :.-.-.*.*.$.$.%.&.Y U } ' n U.yX2XdX",
"dX0XpXH.8.W.(.E.2.L #.$.*.=.J ; , , , , , , , , , : X @ W >.:.=.*.*.$.L L I } / v B.6XrXdX",
"dXpXiXu.w.k.d...Y %.$.*.*.*.G > , , , , , , , , , , , : o H :.=.*.*.$.#.L I P / - x $X6XdX",
"dXuXqXp.+.+.U I T %.$.*.*.=.G : , , , , , , , , , , , , : ; @ &.*.*.$.%.L R I ( = b |.rX2X",
"dXpXwX0.w. .U R T %.*.*.*.=.# : , , , , , , , , , , , , , , : @ &.*.$.#.L T U ( = b F.5X$X",
"dXpX-X0.+.( | R T #.$.*.*.=.# : , , , , , , , , , , , , , , , 1 H *.$.$.L T I ( = v V.1X#X",
"dXpX-X7.o.( U R T %.$.*.=.-.# : , , , , , , , , , , , , , , , , + &.$.$.L T R ( N v m.<X>X",
"dXpX=X6.O.( U R T #.$.*.=.=.# : , , , , , , , , , , , , , , , , 9 &.$.#.L T I / N v B.,X<X",
"dXpX-X6.{ / } R L #.$.*.*.-.# : , , , , , , , , , , , , , , , 2 @.*.$.#.L T U _ v b n.+X#X",
"dXpX-X9.[ / } I T L $.$.*.=.Q : , , , , , , , , , , , , , < 8 g.-.$.$.#.L Y P ` m j V.,XOX",
"dXpX4Xr.{ / } I T %.#.$.*.*.G : , , , , , , , , , , , , 4 c 3.:.*.*.$.%.L R } * n d S.@XOX",
"dXuXqXy.' _ ^ P Y L %.$.*.=.H ; , , , , , , , , , , < 8 w.1.:.=.*.$.#.L T I / n z k D.<XdX",
"dXaXiXH.` _ ( | I T %.$.*.*.K ; , , , , , , , < , 2 5.3.>.=.=.*.$.$.#.L R U * z g V [.,XdX",
"dX7XpXI.M _ ] } I R L #.$.*.W 1 , , , , < , < 1 0 g.,.-.-.=.*.*.$.#.%.L I ~ z g d M.{.,XdX",
"dXdXiX;XB ` _ ( U R T %.$.$.&.4 , , , , < 2 0 w.1.>.-.=.=.*.*.$.#.%.T R } * z d h D.+X{.dX",
"dXdXsXaXG.v _ ] ^ P R L %.#.:.& < , 1 8 5.2.,.-.-.=.*.*.*.*.*.&.%.L Y U * s d y e }.+XdXdX",
"dXdXdXpX:Xx N _ / ^ U Y T %.&.<.4.c w.3.>.*.=.*.=.*.*.*.$.$.$.#.L T U ) z i y h S.XXOXdXdX",
"dXdXdXeXpXG.b N _ / | I Y L L #.;.:.=.$.*.*.*.*.*.*.*.$.#.#.&.L Y I ) $ a y t c.}.oXdXdXdX",
"dXdXdX8XpX4XF v ` _ ( P I Y T L #.#.$.$.$.$.$.$.$.$.$.$.%.%.T T P ) a u y y 6 D.XX{.dXdXdX",
"dXdXdXdXtXpX.Xj v 6._ ( } I I Y L L L #.#.#.$.#.%.%.%.L L T Y U % z B x h 3 b.}.oXdXdXdXdX",
"dXdXdXdXdXtXpXI.l v - ] / } P I I Y L L L L L L L L T T Y I ~ $ x S y.S h w `.oXdXdXdXdXdX",
"dXdXdXdXdX5XtXtXI.Z v M ` _ ( } P I I R Y Y Y Y T I P ^ ! % a a y.y.F V w _.}.{.dXdXdXdXdX",
"dXdXdXdXdXdXdXrXtX.XA n v m - = ) / ( ^ } } } ^ ~ ! % s i i u j D Z e N.[.oX{.dXdXdXdXdXdX",
"dXdXdXdXdXdXdXdXrXyX.XV j b b b n $ n $ $ $ $ z s i i i u r 9 6 7 w N.'.XX{.dXdXdXdXdXdXdX",
"dXdXdXdXdXdXdXdXdX1XeX%Xm.V g g g g f f a i d p u u t r 9 9 3 2 x._.'.XX{.dXdXdXdXdXdXdXdX",
"dXdXdXdXdXdXdXdXdXdX1XrX6X Xm.q h p d p p k y y r 9 9 3 2 5 x.C.].XXoXdXdXdXdXdXdXdXdXdXdX",
"dXdXdXdXdXdXdXdXdXdXdX>X1X6X<X XS.b.w 7 7 7 7 3 2 2 q w v.Z.`.XXoX{.dXdXdXdXdXdXdXdXdXdXdX",
"dXdXdXdXdXdXdXdXdXdXdXdXdX>X<X5X2X#X[.[.D.C.N.N.A.Z.`.}.}.XXoXoXdXdXdXdXdXdXdXdXdXdXdXdXdX",
"dXdXdXdXdXdXdXdXdXdXdXdXdXdXdXdXOX,X<X,XOX@X@X+X+XoXXXOX{.dXdXdXdXdXdXdXdXdXdXdXdXdXdXdXdX",
"dXdXdXdXdXdXdXdXdXdXdXdXdXdXdXdXdXdXdXdXdXdXdXdXdXdXdXdXdXdXdXdXdXdXdXdXdXdXdXdXdXdXdXdXdX"
};
