/* XPM */
static char *result[] = {
/* columns rows colors chars-per-pixel */
"45 45 9 1 ",
"  c #030100",
". c #130500",
"X c #271507",
"o c #422811",
"O c #754D29",
"+ c #FF0929",
"@ c #CDC1C1",
"# c gray92",
"$ c None",
/* pixels */
"$$$$$$$$$$$$$$$$$$$$$$$$$$$$$$$$$$$$$$$$$$$$$",
"$$$$$$$$$$$$$$$$$$$$$$$$$$$$$$$$$$$$$$$$$$$$$",
"$$$$$$$$$$$$$$$$$$$$$$$$$$$$$$$$$$$$$$$$$$$$$",
"$$$$$$$$$$$$$$$$$$$$$$$$$$$$$$$$$$$$$$$$$$$$$",
"$$$$$$$$$$$$$$$$$$$$$$$$$$$$$$$$$$$$$$$$$$$$$",
"$$$$$$$$$$$$$$$$$$$$$$$$$$$$$$$$$$$$$$$$$$$$$",
"$$$$$$$$$$$$$$$$$$$$$$$$$$$$$$$$$$$$$$$$$$$$$",
"$$$$$  $$$$$$$$$$$$$$$$$$$$$$$$$$$$$$$$$$$$$$",
"$$$$$$ X$$$$$$$$$$$$$$$$$$$$$$$$$$$$$$$$$$$$$",
"$$$$$Oo O$$$$$$$$$$$$$$$$$$$$$$$$$$$$$$ X$$$$",
"$$$$X oooO$$$$$$$$$$$$$$$$$$$$XX$$$$$$$O X$$$",
"$$$  ooooOO$$$$$$$$$$$$$$$$$$$  X$$$$OOo  $$$",
"$$$ $$ooooO$$$$$$$$$$$$$$$$$$$O X$$OOOo$$ $$$",
"$$$$$$$OoooOOO$$$$$$$$$$$$$$$Oo  OOOooo$$$$$$",
"$$$$$$XoooooooOO$$$$$$$$$$$$OOoo Oooooo$$$$$$",
"$$$$$X oooooooooO$$$$$$$$$$$OoooOooooooO$$$$$",
"$$$$$  $$$$oooooooo$$$$$$$OOoooooooooooooO$$$",
"$$$$$$$$$$$$$$oooOOOOOOO$OOoooooooooooooo X$$",
"$$$$$$$$$$$$$$$O###OOOoOOOoooooooooooooooo X$",
"$$$$$$$$$$$$$$$#####ooooOOoooooooooooooO$$$ $",
"$$$$$$$$$$$$$$##+####oooOOoooooo$$$$oooXX$$ $",
"$$$$$$$$$$$$$$##+###@ooooOooooo$$$$$$$o X$$$$",
"$$$$$$$$$$$$$$##+##@@oooooooo$$$$$$$$$$$ $$$$",
"$$$$$$$$$$$$$$o###@@oOOOoooo$$$$$$$$$$$$ $$$$",
"$$$$$$$$$$$$$$$o@@@OOOooooo$$$$$$$$$$$$$ $$$$",
"$$$$$$$$$$$$$$o.ooOOo.#oooo$$$$$$$$$$$$$$$$$$",
"$$$$$$$$$$$$$$$.#.#.#...ooo$$$$$$$$$$$$$$$$$$",
"$$$$$$$$$$$$$$$$........oo$$$$$$$$$$$$$$$$$$$",
"$$$$$$$$$$$$$$$$........ooO$XX$$$$$$$$$$$$$$$",
"$$$$$$$$$$$$$$$$$#.#.#.#oOOO  $$$$$$$$$$$$$$$",
"$$$$$$$$$$$$$XoO$OOOOOOOoOoo$ $$$$$$$$$$$$$$$",
"$$$$$$$$$$$$X OoOooooooooOo$$$$$$$$$$$$$$$$$$",
"$$$$$$$$$$$$ $oooo$$oooooo $$$$$$$$$$$$$$$$$$",
"$$$$$$$$$$$$$$Xoo$$$ooo$o XX$$$$$$$$$$$$$$$$$",
"$$$$$$$$$$$$$X $$$$$$oo$$$$$$$$$$$$$$$$$$$$$$",
"$$$$$$$$$$$$$$$$$$$$$$oO$$$$$$$$$$$$$$$$$$$$$",
"$$$$$$$$$$$$$$$$$$$$$$ooOO$$$$$$$$$$$$$$$$$$$",
"$$$$$$$$$$$$$$$$$$$$$$$oooOO$$$$$$$$$$$$$$$$$",
"$$$$$$$$$$$$$$$$$$$$$$$$$ooo$$$$$$$$$$$$$$$$$",
"$$$$$$$$$$$$$$$$$$$$$$$$$$$$$$$$$$$$$$$$$$$$$",
"$$$$$$$$$$$$$$$$$$$$$$$$$$$$$$$$$$$$$$$$$$$$$",
"$$$$$$$$$$$$$$$$$$$$$$$$$$$$$$$$$$$$$$$$$$$$$",
"$$$$$$$$$$$$$$$$$$$$$$$$$$$$$$$$$$$$$$$$$$$$$",
"$$$$$$$$$$$$$$$$$$$$$$$$$$$$$$$$$$$$$$$$$$$$$",
"$$$$$$$$$$$$$$$$$$$$$$$$$$$$$$$$$$$$$$$$$$$$$"
};
