/* XPM */
static char *result[] = {
/* columns rows colors chars-per-pixel */
"45 45 9 1 ",
"  c #030100",
". c #130500",
"X c #271507",
"o c #422811",
"O c #754D29",
"+ c #FF0929",
"@ c #CDC1C1",
"# c gray92",
"$ c None",
/* pixels */
"$$$$$$$$$$$$$$$$$$$$$$$$$$$$$$$$$$$$$$$$$$$$$",
"$$$$$$$$$$$$$$$$$$$$$$$$$$$$$$$$$$$$$$$$$$$$$",
"$$$$$$$$$$$$$$$$$$$$$$$$$$$$$$$$$$$$$$$$$$$$$",
"$$$$$$$$$$$$$$$$$$$$$$$$$$$$$$$$$$$$$$$$$$$$$",
"$$$$$$$$$$$$$$$$$$$$$$$$$$$$$$$$$$$$$$$$$$$$$",
"$$$$$$$$$$$$$$$$$$$$$$$$$$$$$$$$$$$$$$$$$$$$$",
"$$$$$$$$$$$$$$$$$$$$$$$$$$$$$$$$$$$$$$$$$$$$$",
"$$$$$$$$$$$$$$$$$$$$$$$$$$$$$$$$$$$$$$$$$$$$$",
"$$$$$$$$$$$$$$$$$$$$$$$$$$$$$$$$$$$$$$$$$$$$$",
"$$$$$  $$$$$$$$$$$$$$$$$$$$$$$$$$$$$$$$$$$$$$",
"$$$$$$ $$$$$$$$$$$$$$$$$$$$$$$$$$$$$$$$$$$$$$",
"$$$$$OoX$$$$$$$$$$$$$$$$$$$$$$$$$$$$$ X$$$$$$",
"$$$$X o O$$$$$$$$$$$$$$$$$$$$$$$$$$$$O X$$$$$",
"$$$  ooooO$$$$$$$$$$$$$$$$$$XX$$$$$OOo  $$$$$",
"$$$ $$oooOO$$$$$$$$$$$$$$$$$  X$$$$Oo$$ $$$$$",
"$$$$$$OoooOO$$$$$$$$$$$$$$$$$OX$$OOOo$$$$$$$$",
"$$$$XXooooooO$$$$$$$$$$$$$$$Oo  OOooo$$$$$$$$",
"$$$$  oooooooOO$$$$$$$$$$$$OOoo OooooO$$$$$$$",
"$$$$$$$ooooooooO$$$$$$$$$$$OoooOoooooooO$$$$$",
"$$$$$$$$$$oooooooo$$$$$$$OOoooooooooooo X$$$$",
"$$$$$$$$$$$$$oooOOOOOOO$OOoooooooooooooo X$$$",
"$$$$$$$$$$$$$$O###OOOoOOOoooooooooooooO$$ X$$",
"$$$$$$$$$$$$$$#####ooooOOoooooooooooooXX$$$$$",
"$$$$$$$$$$$$$##+####oooOOoooooo$$$$o$o X$$$$$",
"$$$$$$$$$$$$$##+###@ooooOooooo$$$$$$$$$ $$$$$",
"$$$$$$$$$$$$$##+##@@oooooooo$$$$$$$$$$$$$$$$$",
"$$$$$$$$$$$$$o###@@oOOOoooo$$$$$$$$$$$$$$$$$$",
"$$$$$$$$$$$$$$o@@@OOOooooo$$$$$$$$$$$$$$$$$$$",
"$$$$$$$$$$$$$o.ooOOo.#oooo$$$$$$$$$$$$$$$$$$$",
"$$$$$$$$$$$$$$.#.#.#...ooo$$$$$$$$$$$$$$$$$$$",
"$$$$$$$$$$$$$$$........oo$$$$$$$$$$$$$$$$$$$$",
"$$$$$$$$$$$$$$$........ooO$XX$$$$$$$$$$$$$$$$",
"$$$$$$$$$$$$$$$$#.#.#.#oOOO  $$$$$$$$$$$$$$$$",
"$$$$$$$$$$$$XoO$OOOOOOOoOoo$ $$$$$$$$$$$$$$$$",
"$$$$$$$$$$$X OoOooooooooOo$$$O$$$$$$$$$$$$$$$",
"$$$$$$$$$$$ $oooo$$oooooo OOOo$$$$$$$$$$$$$$$",
"$$$$$$$$$$$$$Xoo$$$$$$oo XXoo$$$$$$$$$$$$$$$$",
"$$$$$$$$$$$$X $$$$$$$$$$$$$$$$$$$$$$$$$$$$$$$",
"$$$$$$$$$$$$$$$$$$$$$$$$$$$$$$$$$$$$$$$$$$$$$",
"$$$$$$$$$$$$$$$$$$$$$$$$$$$$$$$$$$$$$$$$$$$$$",
"$$$$$$$$$$$$$$$$$$$$$$$$$$$$$$$$$$$$$$$$$$$$$",
"$$$$$$$$$$$$$$$$$$$$$$$$$$$$$$$$$$$$$$$$$$$$$",
"$$$$$$$$$$$$$$$$$$$$$$$$$$$$$$$$$$$$$$$$$$$$$",
"$$$$$$$$$$$$$$$$$$$$$$$$$$$$$$$$$$$$$$$$$$$$$",
"$$$$$$$$$$$$$$$$$$$$$$$$$$$$$$$$$$$$$$$$$$$$$"
};
