/* XPM */
static char *result[] = {
/* columns rows colors chars-per-pixel */
"45 45 8 1 ",
"  c #0C0300",
". c #271507",
"X c #422811",
"o c #754D29",
"O c #FF0929",
"+ c #CDC1C1",
"@ c gray92",
"# c None",
/* pixels */
"#############################################",
"#############################################",
"#############################################",
"#############################################",
"#############################################",
"#############################################",
"#############################################",
"#############################################",
"#############################################",
"#######################################.. ###",
"###################################  oXXX####",
"################################### XXXXoo###",
"######   ########################## XXXXXoo.#",
"########ooo######################ooXXXXXXXX .",
"#######XXXXo####################ooXXXXXXXX###",
"######  XXXXoooo#XXooooooo#####ooXXXXXXXXXo##",
"#######XXXXXXXXXoo@@@oooXoo##oooXXXXXXXXXXX##",
"######## XXXXXXXX@@@@@XXXXo#ooXXXXXXXXXXXXX.#",
"#######  ###XXXX@@O@@@@XXXooXXXXXXXXXX##### #",
"####### ########@@O@@@+XXXXXXXXXXXX##########",
"################@@O@@++XXXXXXXXX#############",
"################X@@@++XoooXXX################",
"#################X+++oooXXXXX################",
"################X XXooX @XXXX################",
"################# @ @ @   XXX################",
"##################        XX#################",
"##################        XX#################",
"###################@ @ @ @XXo#..#############",
"####################ooooooXooo  #############",
"###############.Xo#oXXXXXXXoXX# o############",
"##############. oXoXX#XXXX#oXoooX############",
"############## #XXXX#####XXX XXX#############",
"################.XX#######X ..###############",
"###############. ############################",
"#############################################",
"#############################################",
"#############################################",
"#############################################",
"#############################################",
"#############################################",
"#############################################",
"#############################################",
"#############################################",
"#############################################",
"#############################################"
};
