/* XPM */
static char *result[] = {
/* columns rows colors chars-per-pixel */
"45 45 8 1 ",
"  c #0C0300",
". c #271507",
"X c #422811",
"o c #754D29",
"O c #FF0929",
"+ c #CDC1C1",
"@ c gray92",
"# c None",
/* pixels */
"#############################################",
"#############################################",
"#############################################",
"#############################################",
"#############################################",
"#############################################",
"#############################################",
"#############################################",
"#############################################",
"#############################################",
"#############################################",
"#############################################",
"######################################. #####",
"#####################################.X######",
"#################################  oXXoo#####",
"######  ######################### XXXXXoo.###",
"##### XXo########ooooooo######### XXXXXXXX .#",
"######XXXo#####o@@@oooXoo#######ooXXXXXXX####",
"####  XXXXo####@@@@@XXXXo######ooXXXXXXXXo###",
"######XXXXXooo@@O@@@@XXXooooooooXXXXXXXXXX###",
"#####  XXXXXXX@@O@@@+XXXXXXXXXXXXXXXXXXXXX.##",
"#########XXXXX@@O@@++XXXXXXXXXXXXXXXXXX### ##",
"############XXX@@@++XoooXXXXXXXXXXXXX########",
"###############X+++oooXXXXX#XXXXXX###########",
"##############X XXooX @XXXX##################",
"############### @ @ @   XXX##################",
"################        XX###################",
"################        XX###################",
"#################@ @ @ @XXo#..###############",
"##################ooooooXooo  ###############",
"#############.Xo#oXXXXXXXoXX# ###############",
"############. oXoXX#XXXo#oX##################",
"############ #XXXX###XXXXX ##################",
"##############.XX#####XXX ..#################",
"#############. #########Xoo##################",
"##########################XoX################",
"#############################################",
"#############################################",
"#############################################",
"#############################################",
"#############################################",
"#############################################",
"#############################################",
"#############################################",
"#############################################"
};
