/* XPM */
static char *result[] = {
/* columns rows colors chars-per-pixel */
"45 45 9 1 ",
"  c #030100",
". c #130500",
"X c #271507",
"o c #422811",
"O c #754D29",
"+ c #FF0929",
"@ c #CDC1C1",
"# c gray92",
"$ c None",
/* pixels */
"$$$$$$$$$$$$$$$$$$$$$$$$$$$$$$$$$$$$$$$$$$$$$",
"$$$$$$$$$$$$$$$$$$$$$$$$$$$$$$$$$$$$$$$$$$$$$",
"$$$$$$$$$$$$$$$$$$$$$$$$$$$$$$$$$$$$$$$$$$$$$",
"$$$$$$$$$$$$$$$$$$$$$$$$$$$$$$$$$$$$$$$$$$$$$",
"$$$$$$$$$$$$$$$$$$$$$$$$$$$$$$$$$$$$$$$$$$$$$",
"$$$$$$$$$$$$$$$$$$$$$$$$$$$$$$$$$$$$$$$$$$$$$",
"$$$$$$$$$$$$$$$$$$$$$$$$$$$$$$$$$$$$$$$$$$$$$",
"$$$$$$$$$$$$$$$$$$$$$$$$$$$$$$$$$$$$$$$$$$$$$",
"$$$$$$$$$$$$$$$$$$$$$$$$$$$$$$$$$$$$$$$$$$$$$",
"$$$$$$$$$$$$$$$$$$$$$$$$$$$$$$$$$$$$$$$$$$$$$",
"$$$$$$$$$$$$$$$$$$$$$$$$$$$$$$$$$$$$$$$$$$$$$",
"$$$$$$$$$$$$$$$$$$$$$$$$$$$$$$$$$$$$$$$$$$$$$",
"$$$$$$$$$$$$$$$$$$$$$$$$$$$$$$$$$$$$$$$$$$$$$",
"$$$$$$$$$$$$$$$$$$$$$$$$$$$$$$$$$$$$$$XX $$$$",
"$$$$$$$$$$$$$$$$$$$$$$$$$$$$$$$$$$  Oooo$$$$$",
"$$$$$$$$$$$$$$$$$OOOOOOO$$$$$$$$$$ ooooOO$$$$",
"$$$$$$$$$$$$$$$O###OOOoOO$$$$$$$$$ oooooOOX$$",
"$$$$$$$$$$$$$$$#####ooooO$$$$$$$$OOoooooooo X",
"$$$$  OOO$$$$$##+####oooOOOOOOOOOOoooooooo$$$",
"$$$$OooooOOOOO##+###@ooooooooooooooooooooO$$$",
"$$$$Xooooooooo##+##@@ooooooooooooooooooooo$$$",
"$$$X oooooooooo###@@oOOOooooooooooooooooooX$$",
"$$$ $Ooooo$$oo$o@@@OOOooooo$ooooooooo$$$$$ $$",
"$$$$$X $$$$$$$o.ooOOo.#oooo$$$$$$$$$$$$$$$$$$",
"$$$$$$$$$$$$$$$.#.#.#...ooo$$$$$$$$$$$$$$$$$$",
"$$$$$$$$$$$$$$$$........oo$$$$$$$$$$$$$$$$$$$",
"$$$$$$$$$$$$$$$$........oo$$$$$$$$$$$$$$$$$$$",
"$$$$$$$$$$$$$$$$$#.#.#.#ooO$XX$$$$$$$$$$$$$$$",
"$$$$$$$$$$$$$$$$$$OOOOOOoOOO  $$$$$$$$$$$$$$$",
"$$$$$$$$$$$$$XoO$OoooooooOoo$ $$$$$$$$$$$$$$$",
"$$$$$$$$$$$$X OoOoo$ooO$$Oo$$$$$$$$$$$$$$$$$$",
"$$$$$$$$$$$$ $oooo$$$oOOoo $$$$$$$$$$$$$$$$$$",
"$$$$$$$$$$$$$$Xoo$$$$ooOo XX$$$$$$$$$$$$$$$$$",
"$$$$$$$$$$$$$X $$$$$$ooO$$$$$$$$$$$$$$$$$$$$$",
"$$$$$$$$$$$$$$$$$$$$$$ooO$$$$$$$$$$$$$$$$$$$$",
"$$$$$$$$$$$$$$$$$$$$$$$$o$$$$$$$$$$$$$$$$$$$$",
"$$$$$$$$$$$$$$$$$$$$$$$$o$$$$$$$$$$$$$$$$$$$$",
"$$$$$$$$$$$$$$$$$$$$$$$$$$$$$$$$$$$$$$$$$$$$$",
"$$$$$$$$$$$$$$$$$$$$$$$$$$$$$$$$$$$$$$$$$$$$$",
"$$$$$$$$$$$$$$$$$$$$$$$$$$$$$$$$$$$$$$$$$$$$$",
"$$$$$$$$$$$$$$$$$$$$$$$$$$$$$$$$$$$$$$$$$$$$$",
"$$$$$$$$$$$$$$$$$$$$$$$$$$$$$$$$$$$$$$$$$$$$$",
"$$$$$$$$$$$$$$$$$$$$$$$$$$$$$$$$$$$$$$$$$$$$$",
"$$$$$$$$$$$$$$$$$$$$$$$$$$$$$$$$$$$$$$$$$$$$$",
"$$$$$$$$$$$$$$$$$$$$$$$$$$$$$$$$$$$$$$$$$$$$$"
};
