/* XPM */
static char *result[] = {
/* columns rows colors chars-per-pixel */
"45 45 8 1 ",
"  c #0B0300",
". c #271507",
"X c #422811",
"o c #754D29",
"O c #FF0929",
"+ c #CDC1C1",
"@ c gray92",
"# c None",
/* pixels */
"#############################################",
"#############################################",
"#############################################",
"#############################################",
"#############################################",
"#############################################",
"#############################################",
"#############################################",
"#############################################",
"#############################################",
"#############################################",
"#############################################",
"###############ooooooo#######################",
"#############o@@@oooXoo######################",
"#############@@@@@XXXXo######################",
"############@@O@@@@XXXoXo####################",
"####oooooooo@@O@@@+XXXXXXooo#################",
"##  XXXXXXXX@@O@@++XXXXXXXXooo#####  ########",
"##oXXXXXXXXXX@@@++XoooXXXXXXXXooo#  ooX  ####",
"##.XXXXXX#XX#X+++oooXXXXXXXXXXXXXooXoXXX#####",
"#.  XXXX####X XXooX @XXXX#XXXXXXXXXXXXXX#####",
"## #o ####### @ @ @   XXX##XXXXXXXXXXXX######",
"####.#########        XX#####XXXXXXXXX ######",
"##############        XX######XXXXXXXX  #####",
"###############@ @ @ @XXo#..##XXXXXXX########",
"################ooooooXooo  #####XXX ########",
"###########.Xo#oXXXXXXXoXX# ######## ########",
"##########. oXoXX#XX###oX####################",
"########## #XXXX###X##XX ####################",
"############.XX####Xo#X ..###################",
"###########. ######Xo########################",
"###################Xo########################",
"###################Xo########################",
"###################XXo#######################",
"####################Xo#######################",
"####################X########################",
"#############################################",
"#############################################",
"#############################################",
"#############################################",
"#############################################",
"#############################################",
"#############################################",
"#############################################",
"#############################################"
};
