/* XPM */
static char *result[] = {
/* columns rows colors chars-per-pixel */
"45 45 8 1 ",
"  c #0C0300",
". c #271507",
"X c #422811",
"o c #754D29",
"O c #FF0929",
"+ c #CDC1C1",
"@ c gray92",
"# c None",
/* pixels */
"#############################################",
"#############################################",
"#############################################",
"#############################################",
"#############################################",
"#############################################",
"#############################################",
"#############################################",
"#############################################",
"#############################################",
"#############################################",
"#############################################",
"#############################################",
"#################ooooooo#####################",
"###############o@@@oooXoo####################",
"##### #ooo#####@@@@@XXXXo########ooooo  o####",
"#####o XXXoooo@@O@@@@XXXoXooooooXXXXXXXXX  ##",
"#####.XXXXXXXX@@O@@@+XXXXXXXXXXXXXXXXXXXXo###",
"###. XXXXXXXXX@@O@@++XXXXXXXXXXXXXXXXXXXXX ##",
"####  XXXXX##XX@@@++XoooXXXXXXXXXXXXXXXXXX ##",
"######o #X###X#X+++oooXXXXXXXXXXXXXXXXXXX ###",
"######.#######X XXooX @XXXX#########XXXXX# ##",
"############### @ @ @   XXX##################",
"################        XX###################",
"################        XXo#..###############",
"#################@ @ @ @Xooo  ###############",
"#############.Xo#oooooooXoXX# ###############",
"############. oXoXXXXXXXXoX##################",
"############ #XXXX##XX##XX ##################",
"##############.XX###XXo#X ..#################",
"#############. ######Xo######################",
"#####################Xo######################",
"#####################XX######################",
"######################Xo#####################",
"######################XXo####################",
"#######################Xo####################",
"#######################Xo####################",
"#######################Xo####################",
"#############################################",
"#############################################",
"#############################################",
"#############################################",
"#############################################",
"#############################################",
"#############################################"
};
