/* XPM */
static char *result[] = {
/* columns rows colors chars-per-pixel */
"42 45 138 2 ",
"   c #010101",
".  c #080704",
"X  c #070804",
"o  c #090A06",
"O  c #050409",
"+  c #08070A",
"@  c #0B0B0A",
"#  c #0F1004",
"$  c #0F110B",
"%  c #12120C",
"&  c #0F0E10",
"*  c #100E13",
"=  c #161515",
"-  c #181713",
";  c #171814",
":  c #1B1915",
">  c #17161A",
",  c #1D1C1B",
"<  c #201F1C",
"1  c #1F201D",
"2  c #23241C",
"3  c #29261F",
"4  c #2B2C1F",
"5  c #1F1D23",
"6  c #242422",
"7  c #2B2B24",
"8  c #2D2E29",
"9  c #302F2A",
"0  c #2F3126",
"q  c #2F302A",
"w  c #323226",
"e  c #353826",
"r  c #34342C",
"t  c #373A2E",
"y  c #393A2D",
"u  c #353532",
"i  c #373832",
"p  c #3B3D32",
"a  c #3B3A3A",
"s  c #413F32",
"d  c #403F3B",
"f  c #3F403A",
"g  c #41432F",
"h  c #424335",
"j  c #494B35",
"k  c #43453C",
"l  c #47493E",
"z  c #494A3D",
"x  c #4F503F",
"c  c #51523E",
"v  c #454542",
"b  c #474841",
"n  c #4D4E42",
"m  c #524F48",
"M  c #4E5045",
"N  c #515345",
"B  c #565944",
"V  c #595C45",
"C  c #54544B",
"Z  c #58544B",
"A  c #57584B",
"S  c #5A5B4C",
"D  c #565451",
"F  c #5C5C52",
"G  c #5D6045",
"H  c #5F614D",
"J  c #5F6053",
"K  c #60614F",
"L  c #66684F",
"P  c #636554",
"I  c #686554",
"U  c #676856",
"Y  c #696B52",
"T  c #636459",
"R  c #67695C",
"E  c #6B6B5C",
"W  c #716E5D",
"Q  c #6F7257",
"!  c #6E715E",
"~  c #71735D",
"^  c #6C6C62",
"/  c #6E7062",
"(  c #737364",
")  c #767864",
"_  c #7A7B65",
"`  c #74756A",
"'  c #79766A",
"]  c #76786A",
"[  c #7A7A6C",
"{  c #7C7D72",
"}  c #817D6F",
"|  c #837F71",
" . c #7D8067",
".. c #7F816C",
"X. c #7F8175",
"o. c #82826D",
"O. c #838374",
"+. c #878976",
"@. c #8C8B76",
"#. c #84857A",
"$. c #87897C",
"%. c #8B8C7B",
"&. c #908D79",
"*. c #8F917E",
"=. c #92937E",
"-. c #96997D",
";. c #8C8D82",
":. c #8F9185",
">. c #939383",
",. c #989584",
"<. c #979886",
"1. c #9A9B85",
"2. c #94958A",
"3. c #9A9789",
"4. c #969888",
"5. c #9A9B8C",
"6. c #9C9C94",
"7. c #A09E86",
"8. c #9FA093",
"9. c #A2A087",
"0. c #A2A48C",
"q. c #A6A98E",
"w. c #A2A395",
"e. c #A5A895",
"r. c #AAAB92",
"t. c #A5A69A",
"y. c #A8A698",
"u. c #A7A99A",
"i. c #ABAA9B",
"p. c #B0AE9B",
"a. c #ADB195",
"s. c #ADADA4",
"d. c #B2B4A4",
"f. c #B6B8A0",
"g. c #B7B8AC",
"h. c #C4C0B3",
"j. c #CCCCC1",
"k. c None",
/* pixels */
"k.k.k.k.k.k.k.k.k.k.k.k.k.k.k.k.k.k.k.7.7.@.} k.k.k.k.k.k.k.k.k.k.k.k.k.k.k.k.k.k.k.",
"k.k.k.k.k.k.k.k.k.k.k.k.k.k.k.k.;.=.7.r.p.7.&.@.,.p.7.k.k.k.k.k.k.k.k.k.k.k.k.k.k.k.",
"k.k.k.k.k.k.k.k.k.k.k.k.k.s.6.m | &.o._ } Y W I ( } | } h.k.k.k.k.k.k.k.k.k.k.k.k.k.",
"k.k.k.k.k.k.k.k.k.k.k.#.6.s.s.` F } ( ' } ' W ( W I N p.,.| %.%.k.k.k.k.k.k.k.k.k.k.",
"k.k.k.k.k.k.k.k.k.F #.g.5.[ O.@.W Z ' ( ' ' I ' S y %.3.E ' _ } O.k.k.k.k.k.k.k.k.k.",
"k.k.k.k.k.k.k.k.;.^ O.5.U E _ o.| D ^ D m D n Z S s y.[ I ) ( ( B ] k.k.k.k.k.k.k.k.",
"k.k.k.k.k.k.k.6.j.;.S K o._ Y ) | D a : & - < 3 s s ,.| ' E ~ H E 8.s.k.k.k.k.k.k.k.",
"k.k.k.k.k.{ #.t.O.( S N ! ( K j 2 + .   .       . - y S E E P I >.O.O.y.k.k.k.k.k.k.",
"k.k.k.k.k.$.3.` ^ / E S B x 4 # X   O         . o . o - w n A 3.#.^ ' { 5.k.k.k.k.k.",
"k.k.k.k.R 5.[ [ E ^ ( F 4 % .                   .       o ; k { ` ` ( ( $.2.k.k.k.k.",
"k.k.k.:.N A T E ` R F 6 o     . o                 O         @ i ^ ^ T P E P C k.k.k.",
"k.k.k.=.%.j N J F F 7     .   O                           O   = v ^ T z E 5.O.k.k.k.",
"k.k.k.-.w.<.:.x b r .   . + + O                 O     O O O O O $ a A { d.*.-.[ k.k.",
"k.k.$.*.P %.u.X.0 $       * + O +             + + O O O O O O O O = 9 :.[ / <.*.k.k.",
"k.k.u...! ] X.D &                                               + o 5 D [ / _ r.k.k.",
"k.w.d.( ) ] / 7 .                                             +     + f [ U Y -.0.k.",
"k.X.] Q J H J 2 X O                                           o . . O u ^ Z c ~ =.k.",
"k.4.E B e M q $ X   O                                           . +   : z x L -.-.k.",
"k.2.4.<.( f 7 o X O                                             . O   . y ' 0.a.-.J ",
"k.` X.>.1.J $ o ;                                             o @ O .   0 %.@._ o.Y ",
"k.[ / ! R f o o o $                                             .   @   2 +.~ Q ) H ",
"k.X./ ) ) M #     X                                               O @   3 =. .Q ~ N ",
"k.` J U E x $ o       O                                             .   2 @.o.Y Y z ",
"k.J G J H y o o                                                       X 2 ) ~ Y B y ",
"k.J T B B t o o                                                       . 2 H G G c y ",
"k.u.d.e.$.M o X + X                                               O   . 2 %.f.q.9.' ",
"k.X.` ) ) M # X                                                     .   3 %. .Q ) P ",
"k.[ R R / l o   + +                                               O +   7 ,.o.~ ~ S ",
"k.` J J ` C o X O +                                                 +   6 2.%.E E N ",
"k.^ A ^ ^ l o     O                                               O O O 6 #.) H S x ",
"k.f p M M i o X                                                   + O + 7 E N g h h ",
"k.:.8.8.X.k X O +                                                 + O @ 6 { 1.=.,.' ",
"k.$.$.#.] b o X O                                                 O O O 6 { %...O.P ",
"k.{ / ^ R f o @   O                                                 +   6 ;.[ ( ) S ",
"k.X.[ ^ ^ b $ +                                                     O   7 2.O.! E N ",
"k.` / / ^ k @   O O X O                                           O O   7 ;.[ U K z ",
"k.T C J J i X   + O                                             o @ +   < | ( H j y ",
"k.T J J F f X   X O             X             X       O     .   + @ @   , ` I U I y ",
"k.2.5.6.X.D $ X + O O X + + o o @ @ @ @ @ @ @ @ @ @ @ @ @ @ @ @ @ @ * @ 7 :.2.%.>.F ",
"k.E F J J k @ O $ & & & $ = - ; ; > ; > ; > > > > ; > ; > ; = % & * > * 8 | T n V h ",
"k.C M D J k $ $ = * > , , 1 1 1 1 1 6 1 6 5 1 1 5 5 6 6 6 2 , - = , 5 = 7 { E c c w ",
"k.M b k k r % ; 1 1 1 1 1 7 7 q 0 4 8 8 8 q 0 0 0 8 8 7 7 8 8 7 6 7 8 : r / F n n 3 ",
"k.v f f a q 4 1 2 7 2 7 0 e t f f f f i f f f f p t y p i t t r w w 0 2 i T n d k 3 ",
"k.a u a i 8 6 2 7 q t t f f h j l l l b f l f j k l k l k k k p i y y 9 i m s u u < ",
"k.u q i t 0 6 6 0 t f f h z M M C M M C N N N M M M M M M M b k k s s s t d r 7 9 : "
};
