/* XPM */
static char *result[] = {
/* columns rows colors chars-per-pixel */
"42 45 206 2 ",
"   c #030202",
".  c #0B0303",
"X  c #070803",
"o  c #0B0A06",
"O  c #050409",
"+  c #0C0708",
"@  c #0C0C0A",
"#  c #130402",
"$  c #130A05",
"%  c #1A0B06",
"&  c #120C0B",
"*  c #1C0E0A",
"=  c #180602",
"-  c #0E100B",
";  c #13120D",
":  c #1E120B",
">  c #1B190D",
",  c #0C0A11",
"<  c #170F11",
"1  c #151612",
"2  c #1C1512",
"3  c #1A1B14",
"4  c #171718",
"5  c #1D1D1A",
"6  c #24140D",
"7  c #28170F",
"8  c #231612",
"9  c #281712",
"0  c #251C14",
"q  c #2C1C15",
"w  c #241818",
"e  c #2B1E1A",
"r  c #311E1A",
"t  c #212117",
"y  c #2D2216",
"u  c #23241D",
"i  c #2C231C",
"p  c #2D281C",
"a  c #32231B",
"s  c #39261F",
"d  c #34281F",
"f  c #3C2A1F",
"g  c #332117",
"h  c #252523",
"j  c #2B2B25",
"k  c #2C2C2A",
"l  c #2F2323",
"z  c #342522",
"x  c #392721",
"c  c #342B23",
"v  c #3B2C23",
"b  c #322F2A",
"n  c #3B2D2A",
"m  c #2F3029",
"M  c #2E3024",
"N  c #343126",
"B  c #3B3225",
"V  c #33342B",
"C  c #3C342B",
"Z  c #3A392C",
"A  c #37392C",
"S  c #382F30",
"D  c #373634",
"F  c #373832",
"G  c #3B3C34",
"H  c #3D3E39",
"J  c #3B3331",
"K  c #402D26",
"L  c #433225",
"P  c #44342C",
"I  c #4A372E",
"U  c #433A2E",
"Y  c #4D3B2B",
"T  c #4A3927",
"R  c #533E2F",
"E  c #443533",
"W  c #453C33",
"Q  c #4A3C34",
"!  c #463C3D",
"~  c #4C3E3C",
"^  c #513E35",
"/  c #523F38",
"(  c #3F4037",
")  c #3F403A",
"_  c #48402E",
"`  c #424336",
"'  c #4B4335",
"]  c #43433B",
"[  c #4C443A",
"{  c #4A4B3E",
"}  c #47493E",
"|  c #544233",
" . c #53433B",
".. c #59463E",
"X. c #534A3D",
"o. c #5D4B3D",
"O. c #584536",
"+. c #51503F",
"@. c #454640",
"#. c #4B4542",
"$. c #474842",
"%. c #4C4B43",
"&. c #4F4E4A",
"*. c #524542",
"=. c #554C43",
"-. c #5C4A43",
";. c #544E4C",
":. c #5D4B4B",
">. c #584644",
",. c #4E5041",
"<. c #555346",
"1. c #5A5246",
"2. c #55544B",
"3. c #5C554C",
"4. c #57594A",
"5. c #5A5A4D",
"6. c #5C5C52",
"7. c #5F5E58",
"8. c #595651",
"9. c #614E45",
"0. c #64534C",
"q. c #635B4D",
"w. c #6E5C4B",
"e. c #655446",
"r. c #725E4F",
"t. c #625050",
"y. c #635C54",
"u. c #6C5B54",
"i. c #6C5E5A",
"p. c #705F56",
"a. c #705E5B",
"s. c #5D604F",
"d. c #5F6153",
"f. c #636355",
"g. c #6A6556",
"h. c #666955",
"j. c #64645A",
"k. c #6B665C",
"l. c #6C6A5C",
"z. c #6A6A5A",
"x. c #746253",
"c. c #796655",
"v. c #73615A",
"b. c #79655D",
"n. c #746C5E",
"m. c #7C6859",
"M. c #6D6B63",
"N. c #716D63",
"B. c #7C6A63",
"V. c #776C67",
"C. c #6F7060",
"Z. c #747364",
"A. c #7A7365",
"S. c #767965",
"D. c #797867",
"F. c #75746B",
"G. c #7A766B",
"H. c #77796C",
"J. c #7B7A6C",
"K. c #7D7D72",
"L. c #7C7A75",
"P. c #816D5C",
"I. c #816E67",
"U. c #817469",
"Y. c #827E6E",
"T. c #8C796A",
"R. c #887563",
"E. c #917E6D",
"W. c #807D71",
"Q. c #897C7C",
"!. c #7F8175",
"~. c #81846F",
"^. c #838276",
"/. c #8A8376",
"(. c #85847B",
"). c #8B867A",
"_. c #8B8A7D",
"`. c #87897C",
"'. c #928B7D",
"]. c #988574",
"[. c #8C8481",
"{. c #8C8D82",
"}. c #928E83",
"|. c #8F9185",
" X c #919285",
".X c #9A9787",
"XX c #999887",
"oX c #94948B",
"OX c #99958C",
"+X c #9A9A8E",
"@X c #97988C",
"#X c #9D9C93",
"$X c #9C9E98",
"%X c #A29E94",
"&X c #A49F98",
"*X c #A2A395",
"=X c #A4A49B",
"-X c #ADAB9D",
";X c #A8A699",
":X c #ADABA3",
">X c #A6A9A1",
",X c #B3AEA2",
"<X c #B7B6AB",
"1X c #BCBBB6",
"2X c #CACAC0",
"3X c None",
/* pixels */
"3X3X3X3X3X3X3X3X3X3X3X3X3X3X3X3X3X3X3X3X|.{.@X3X3X3X3X3X3X3X3X3X3X3X3X3X3X3X3X3X3X3X",
"3X3X3X3X3X3X3X3X3X3X3X3X3X3X[.|.@X#XoX*X+X_.`.+X>XoXH.3X3X3X3X3X3X3X3X3X3X3X3X3X3X3X",
"3X3X3X3X3X3X3X3X3X3X3X3X#X>X7.!._.^.S.H.Z.z.z.C.!.~.J.,X1X3X3X3X3X3X3X3X3X3X3X3X3X3X",
"3X3X3X3X3X3X3X3X3X3X(.$X>X<X!.M.^.D.A.S.D.n.l.z.h.+.-XXX~.`.oX3X3X3X3X3X3X3X3X3X3X3X",
"3X3X3X3X3X3X3X3Xy.L.<X.X/.D.}.Z.4.C.C.Z.C.C.h.f.` D.*XD.J.C.J.!.3X3X3X3X3X3X3X3X3X3X",
"3X3X3X3X3X3X3X@X(.k.%XD.g.U.'.'.{ 5.<.<.<.{ <.5.`  X`.f.l.J.z.<.H.3X3X3X3X3X3X3X3X3X",
"3X3X3X3X3X3X|.2X{.3.Z./.B.n.U.Y.5.{ N > > 3 Z A ` ^.{.J.g.S.w.S.+X,X3X3X3X3X3X3X3X3X",
"3X3X3X3X3X[.&X(.^.y.3.A.B.=.X.[ 1.N p N { 4.X.y C ' q.l.n.z.z.XXW.L.&X3X3X3X3X3X3X3X",
"3X3X3X3X(.@XL.Z.M.N.y.0.=.U Q U  .U U [ W X.Q B ' U B Q =.q._..Xk.G.[.oX3X3X3X3X3X3X",
"3X3X3XM.#XK.L.M.M.k.3.B B 9 g q i v d v w 9 v r q y d v v W U.D.A.J.F.G.$X3X3X3X3X3X",
"3X3X3X6.4.j.N.M.k.q.c c [ z % # e  .s % . * / s = # 6 U s : C g.k.n.k.y.M.#.3X3X3X3X",
"3X3X@XoX} } y.k.3.b . n :.n # . r ..g = = 6 ..s = . = I d # $ Q g.k.3.l.&XoX3X3X3X3X",
"3X3X_.%X+X_.5.' J e w  .>.z e r | 9.a r s P p.K q x Q 9.v 6 v W W 1.A.,XOX}.%X3X3X3X",
"3XL.|.Z._.,X_.c B [ y.V.3. .t.a.B.0.Q 9.a.I.b.-.9.a.I.b. ...1.n.1.B /./.V.}.@X3X3X3X",
"3X:X(.l.l.Y.k.c C W ~ ~ E / :.>./ -.^ ^ ..9.0./ ....-...U -.[  .` y X.A.D.A.%X3X3X3X",
"3X1XJ.D.S.k.W c 0 w 8 x ~ E z r x / P 6 9 r ^ I r * g ^ v a w 0 B B Y A.n.g.}.:X3X3X",
"3XF.z.z.g.<.' U w . # x :.n = = x 0.v = . : u.L : . q 0.P $ . y | B B q.q.+.g.}.3X3X",
"3XH.<.C 1.Z c X.a # . K t.K # = K v.d 8 # 7 v.C % . q w.' % # w X.B : _ ' q.'..XOX3X",
"3X+X).G.<.N [ W g v I p.a.R Y o.m.w.T Y | r.c.Y T o.x.c.Y L / -.9.B y f n.;X-X+XM.3X",
"!.K.}.#Xk.' y.1.Q e.u.T.P.r.c.P.].P.w.c.R.P.].e.x.R.].T.w.r.B.B.g.O.' X./.'.~.~.7.3X",
"H.C.L.M.%.d d v v P U ^ R ^ | R o.| | O.o.O.| L ^ O.| o.Y ^ I I L c f U /./.M.F.7.3X",
"H.M.F.k.%.0 0 c p : * K O.K 7 7 v -.K 9 6 v ..L q 6 g -.L q * q P P 0 i )./.M.F.6.3X",
"F.6.y.N.<.& i W q . . v 9.v # . c u.K # # 8 B.E % # 9 u.U % # 8 X.W $ : _./.g.y.%.3X",
"j.6.M.8.! @ i ' 0 = . n 9.n # # a y.E $ . * i.n % . 8 i.E % . 8 *.B . 0 /.^.f.6.@.3X",
"2.6.8.;.] < b 3.c . . W V.E . . E Q.n . . w [.~ * . l Q.*.# . e y.W % > 1.5.<.2.G 3X",
";X:X>X{.8.2 & C c $ . $ y.i . . & ;.S . . < ! #.. . < ! ! +   . J C $ 5 ).-X=X;X`.3X",
"!.C.H.M.[ ;   o + $     2 # . & . < &   + . . @ . & . . &     . @ o . 0 ).^.l.G.M.3X",
"K.M.F.M.%.; X .     . +     +   . + + +   .   + + + . O   . O       X 1 _./.M.H.M.3X",
"M.d.i.N.3.1           @ @   @     O + +   @ @ . .         @ ,         3 oX_.N.M.%.3X",
"M.6.j.F.8.;   . o @     O O O O         @       O @     . + , O   @   1 (.K.j.y.=.3X",
"@.( 2.6.] ;   .         O O O O         -         o     O   O O   @   1 f.%.G [ ! 3X",
"{.+X#XQ.} @   @     O O O O O   X                         O O O   o   h H.*X#X@XH.3X",
"!.`.!.!.,.- X   X                                           O O   .   3 {.{.H.!.j.3X",
"H.H.S.C.+.-                                                 O O   O   3 {.^.Z.K.6.3X",
"!.!.s.h.{ - X                                               O O   o   3 `.(.H.K.6.3X",
"S.C.h.h.,.- X X                                                       ; !.!.j.j.%.3X",
"d.s.s.s.( -                                                           ; S.F.6.2.] 3X",
"d.s.d.d.( -       X O O   X X X   o   o   X X O X   o     X     X   X > l.j.8.7.] 3X",
" X|.|.`.d.3 o X @ o O @ @ o o o @ @ - @ - @ - - @ @ @ - @ @ + + @ o - t F.oXoXoXj.3X",
"d.s.d.j.,.- X - O @ - - ; 1 > 3 3 3 3 3 3 3 4 4 1 1 1 1 1 1 - + o ; $ t ^.F.6.2.&.3X",
"4.<.4.s.$.- @ 4 - 4 4 4 5 u u u 5 5 5 5 5 5 5 5 5 5 5 5 5 5 u 5 t t > u L.M.2.2.D 3X",
"( ( $.$.) - - 4 5 h h h j k M j j j j j j j j j j j j j j j j h u u t p Z.j.&.;.j 3X",
"( V ( ( G 5 4 h h k k k M V V A D F D H ( F F ) ) ( ) ( ( F m m j m j N j.%.b F h 3X",
"( ( F G G h h m D H H H ) } ( } @.@.@.$.@.@.@.$.$.$.$.$.@.@.) ) G F N N %.] G F 5 3X",
"o o - > 4 @ O - 5 m m m V A A F ) @.) ) ) ) ) H H H H F ( A m M p u t > 5 ; 3 @ @ 3X"
};
