/* XPM */
static char *result[] = {
/* columns rows colors chars-per-pixel */
"42 45 206 2 ",
"   c #060201",
".  c #0B0301",
"X  c #0E0905",
"o  c #0E0B09",
"O  c #130301",
"+  c #1A0501",
"@  c #130A05",
"#  c #1C0B05",
"$  c #130D0A",
"%  c #1C0D09",
"&  c #15110C",
"*  c #1A140C",
"=  c #1B1107",
"-  c #151411",
";  c #1B1612",
":  c #1C1814",
">  c #1F1C19",
",  c #210D05",
"<  c #220E0B",
"1  c #251106",
"2  c #24120C",
"3  c #2A130B",
"4  c #231A0F",
"5  c #2D180F",
"6  c #2A1611",
"7  c #241C14",
"8  c #2C1B13",
"9  c #221D19",
"0  c #291B15",
"q  c #331F15",
"w  c #311F19",
"e  c #26231D",
"r  c #2C231B",
"t  c #2C281D",
"y  c #2A2216",
"u  c #322217",
"i  c #33231B",
"p  c #3A251B",
"a  c #332B1E",
"s  c #3C291E",
"d  c #2F301C",
"f  c #31311E",
"g  c #272521",
"h  c #292522",
"j  c #2C2A25",
"k  c #2E2D29",
"l  c #392720",
"z  c #342C24",
"x  c #3C2B22",
"c  c #362E29",
"v  c #3C2E28",
"b  c #343126",
"n  c #3C3126",
"m  c #33322E",
"M  c #3D342C",
"N  c #3E3A2E",
"B  c #393926",
"V  c #363632",
"C  c #3A3631",
"Z  c #373835",
"A  c #3B3A35",
"S  c #3D3E3A",
"D  c #412B1F",
"F  c #422E24",
"G  c #422F29",
"H  c #443226",
"J  c #493426",
"K  c #44332B",
"L  c #4A362C",
"P  c #443A2D",
"I  c #4C392E",
"U  c #503C2E",
"Y  c #443631",
"T  c #4A3731",
"R  c #443C33",
"E  c #4C3B33",
"W  c #443E3A",
"Q  c #513E34",
"!  c #513F39",
"~  c #3F403D",
"^  c #454235",
"/  c #4B4136",
"(  c #43433D",
")  c #4C443A",
"_  c #4C493D",
"`  c #464A32",
"'  c #554135",
"]  c #54433A",
"[  c #5A463C",
"{  c #534A3E",
"}  c #5C493D",
"|  c #554837",
" . c #4F503E",
".. c #614A3E",
"X. c #454641",
"o. c #4C4B44",
"O. c #4A4C47",
"+. c #544B42",
"@. c #5B4C43",
"#. c #584F4A",
"$. c #4D5045",
"%. c #545246",
"&. c #5B5144",
"*. c #54524B",
"=. c #5C554B",
"-. c #56594D",
";. c #5B5A4C",
":. c #5A5E47",
">. c #5C5A53",
",. c #5E5F59",
"<. c #624E44",
"1. c #655146",
"2. c #6C5546",
"3. c #64534A",
"4. c #6A564C",
"5. c #635B4F",
"6. c #6D5A4E",
"7. c #715A4D",
"8. c #70574D",
"9. c #625E53",
"0. c #6C5B53",
"q. c #6E5F59",
"w. c #685750",
"e. c #725D52",
"r. c #5E6054",
"t. c #646255",
"y. c #6A6456",
"u. c #666A54",
"i. c #696B56",
"p. c #65635B",
"a. c #6A655A",
"s. c #66695D",
"d. c #6B6B5D",
"f. c #756155",
"g. c #7A6355",
"h. c #74625A",
"j. c #7A665B",
"k. c #716D5E",
"l. c #7D685C",
"z. c #6D705B",
"x. c #6D6C61",
"c. c #666760",
"v. c #726E62",
"b. c #7C6B63",
"n. c #756F69",
"m. c #746661",
"M. c #6E7161",
"N. c #737265",
"B. c #7B7464",
"V. c #757469",
"C. c #7A766A",
"Z. c #76786B",
"A. c #7C7A6C",
"S. c #7E7C71",
"D. c #777A72",
"F. c #826B5D",
"G. c #826D62",
"H. c #85726A",
"J. c #8A756B",
"K. c #817B6D",
"L. c #8A7569",
"P. c #827E71",
"I. c #8E7A72",
"U. c #817772",
"Y. c #927D74",
"T. c #848375",
"R. c #8A8475",
"E. c #83847A",
"W. c #8C857A",
"Q. c #8B8A7C",
"!. c #888876",
"~. c #968174",
"^. c #928C7D",
"/. c #9D887D",
"(. c #9A867D",
"). c #8C907B",
"_. c #A48D7F",
"`. c #8A8781",
"'. c #8C8D83",
"]. c #928D83",
"[. c #9F8B82",
"{. c #8D9080",
"}. c #939484",
"|. c #9A9385",
" X c #949389",
".X c #9A978A",
"XX c #96998C",
"oX c #9C998D",
"OX c #9B9D90",
"+X c #A38C80",
"@X c #AD9688",
"#X c #A19A8C",
"$X c #A09C92",
"%X c #9EA194",
"&X c #A3A295",
"*X c #A3A599",
"=X c #AAA69C",
"-X c #A6A89A",
";X c #ABAA9C",
":X c #B0AEA2",
">X c #AFB1A3",
",X c #B2B1A4",
"<X c #B6B6AA",
"1X c #C4C1B2",
"2X c #D0D0C3",
"3X c None",
/* pixels */
"3X3X3X3X3X3X3X3X3X3X3X3X3X3X3X3X3X3X3X3X3X3XR.3X3X3X3X3X3X3X3X3X3X3X3X3X3X3X3X3X3X3X",
"3X3X3X3X3X3X3X3X3X3X3X3X3X3X3X3X).|.oXoX-XQ.!.W.}.;X^.3X3X3X3X3X3X3X3X3X3X3X3X3X3X3X",
"3X3X3X3X3X3X3X3X3X3X3X3X3X;X%X$.A.).A.B.A.k.M.y.B.!.A.C.1X3X3X3X3X3X3X3X3X3X3X3X3X3X",
"3X3X3X3X3X3X3X3X3X3X3XE.*X%X-XZ.s.A.B.Z.A.B.k.d.t.t._ :X&XT.'.3X3X3X3X3X3X3X3X3X3X3X",
"3X3X3X3X3X3X3X3X3X-.!.>X%X!.z.}.Z.;.N.B.N.A.t.t.y.^ P.$XN.A.N.D.E.3X3X3X3X3X3X3X3X3X",
"3X3X3X3X3X3X3X3XXXZ.M.{.Z.z.A.).T.{ t.t.%.;.%.5.-.P $XA.y.v.S.V.-.S.3X3X3X3X3X3X3X3X",
"3X3X3X3X3X3X3X X2XXX:.i.T.i.z.i.A.&.^ y * * 7 { R P ].P.B.k.P.r.N.).;X3X3X3X3X3X3X3X",
"3X3X3X3X3X3XW.&XZ.A.$. .u.i.:.` d b n = X . ; N * 4 M a.9.k.d.u.).!.S.OX3X3X3X3X3X3X",
"3X3X3X3X3X{. XZ.S.x.N.:.;.;.B a t ] ) 0 a K W / i i a E { =.t.}.!.y.Z.Z.&X3X3X3X3X3X",
"3X3X3X3Xc.%XD.s.Z.x.x.-.+.W W +.@.6.| E } <.1.] K } @.@.] H @.P.A.d.k.V.K.*X3X3X3X3X",
"3X3X3X3X$.r.V.x.s.n.=.z c Y M C P K x x p K F v x n p s E K x ( p.a.a.d.;.;.%.3X3X3X",
"3X3X3XOX'.$.X.-.t.9.c X c ) w X @ v [ 6 # # u ! u # 1 i ' x % 7 ) a.y.;.k.$X].3X3X3X",
"3X3X3X}.%X}.T.+.o.M X   M &.w     x ] p @ . 6 3.p + O 8 @.H .   9 ) +.K.:XR. X X3X3X",
"3X3XE.Q.r.'.<XV.b : @ $ C +.i @ % Q [ < 1 2 x 6.p , % n } s # % y ) N ^.N.m.oXOX3X3X",
"3X3X&XE.V.N.S.V.b z R 5.b.3.W @.0.L.6.H } 0.G.6.L ' 3.G.f.J K +.y.&.N f.U.K.P.:X3X3X",
"3X3X,XA.x.M.v.^ / ^ @.w.h.3.0.h.j.l.1.4.2.y.l.6.1.f.f.j.e...3.5.0.} / P k.K.y.OX=X3X",
"3XE.K.k.t.d.=.a n n z l G T T G I J ' J F F J Q J J Q J U J J J n n s b y.5.&.s.}.3X",
"3XXXN. .) 5.P b ) 0 + @ Q q.F + < ' e.p , 1 p F.U 1 , q e.U , , u } I 4 P | d.!.oX`.",
"3XXXoX^.C.^ y n / 0 + O [ h.F + + U g.J , + D g.L 3 , D e.J < O x 1.s @ P B.#X;X X9.",
"3XZ.T.W.#X6.4 H @.0 % < [ e.D q 5 ..7.p 3 q L F.D 3 3 D F.Q < < I 7.H = F !._.A.D.,.",
"3XZ.x.B.B./ &.y.} ^ 1.G.Y.e.<.G._.@Xg...e.Y.@XF...7._._.L...F.L.Y.e.Q } ..R.C.v.S.>.",
"3XV.B.C.B.| P P I } 1.1.e.[ 8.e.e.g.2.8.g.F.F.2...F.7.F.2...F.8.2.} } ..| ^.B.v.Z.-.",
"3XM.r.y.y.) 7 r x u u q G E F F D J ..L D p D <.U D p F ..F q q F I n u P ^.B.a.x.*.",
"3Xu.-.t.;.R @ u ] q O . ! 0.G O O Q e.F , + w G.J , O w j.J + O r { s @ u K.C.y.-.W ",
"3X-.r.-.-.B @ i E 6 O O ! w.G @ O ! e.F + + F m.D + O l G.L + . h <.z # 0 ;.5.;.=.( ",
"3X*X>X-X}.%.r ) ] i l L 0.w.T E ] G.e.T L ! e.e.F x K 4.H.T l T 3.0.G r P ^.;XoX*XE.",
"3XZ.x.A.x.) { w.@.E w.h.I.0.q.b.J.+Xj.4.8.I.Y.I.4.G.I.[.I.1.q.m.H.a.@.+.=.^.R.C.P.c.",
"3XV.s.N.>.R b P G T [ ! +.[ +.<.3.3.! @.@.4.4.4.[ 1.1.1.3.E <.<.#./ / P ) W.K.B.V.>.",
"3XN.s.u.d._ ; r G 6 2 % x ! z 0 6 Y <.G 8 w F <.F 5 5 p <.G 6 0 w W x = n |.R.x.x.*.",
"3Xs.-.i.B._ @ a +.0 O O T 3.l O O T e.F O + w m.F , + 5 0.T O . w 3.Y . i Q.P.9.q.*.",
"3Xo.^ $.{ t @ l E 6 O O Y 3.l . O T e.l O + i j.J # O w 4.T # O l =.x @ : =.+.^ X.Z ",
"3X X&XXXZ.) N +.! l Y @.b.w.! @.q.H.8.L ! 4.b.8.G ! 4.m.j.L T =.w.=.n n / R.oX.X Xc.",
"3XE.E.!.s.^ P @.[ [ w.0.b.0.q.G.b.[.j.e.q.b.J.Y.4.j.H.J.H.3.e.q.q.0.+.@.&.P.W.A.C.,.",
"3XE.Z.S.N.^ 0 y z x v K ! L Y ] E ! L ! T U Q T G ! U U ! J E T Y G z l / W.R.C.C.>.",
"3XD.i.s.M.^ % 4 n u % + G [ G 6 + G 1.l w 3 p <.J 5 , l 3.F 2 % 0 R l @ x R.C.C.n.O.",
"3XZ.M.d.d.P @ z E 6 O O Y 3.x . O T 8.l + O w j.F , + w 3.J @ O l @.n . h |.U.c.9.X.",
"3Xc.>.t.;.N X t R % o . C w.j . . ! q.l + . h n.z % . v m.v O   z >.z   t P.n.9.#.A ",
"3Xp.d.a.%.B X t +.h   . W n.g   X W U.C X X c Y.W O . c n.!     j a.^ . 9 d.9.c.p.^ ",
"3X'.OXoXT.%.$ * z ; . o h O.; $ o @ +.g $ o o X.c . . @ W C O . : A z . 9 `. X].].a.",
"3Xc.*.p.w.( X X X . & $ . o - : ; - $ % ; ; o - & $ & $ - $ $ * & @ X X c P.c.=.=.W ",
"3X,.*.%.-.` & & ; * : ; e 9 9 9 g j g > g > g g > > > j e & > j 9 - 7 ; j S.x.,.*.z ",
"3X*.o.^ ( N o : > e > e j m k j j k V k j m k m k k k k k k j j t e h 9 m D.=.*.*.h ",
"3Xo.Z A W C : 9 > e e b V R A c m Z Z ~ m Z S S Z ~ ~ S ~ S V m C j g h C n.*.C A 9 ",
"3Xm k V C m g g g m A V A ( o.X.X.X.~ X.~ O.X.~ X.O.~ X.~ ~ ~ Z W C C m C o.X.V V - ",
"3X& o : : - o o & : e m j A S A ~ ~ ~ ~ X.X.Z Z S ~ ~ ~ Z Z m k m g m k - g & - -   "
};
