/* XPM */
static char *result[] = {
/* columns rows colors chars-per-pixel */
"42 45 230 2 ",
"   c #0D0000",
".  c #0C0B0A",
"X  c #140301",
"o  c #190503",
"O  c #140904",
"+  c #1B0C06",
"@  c #1C060A",
"#  c #140B08",
"$  c #1D0B0A",
"%  c #13120E",
"&  c #1C130B",
"*  c #1A1815",
"=  c #220A03",
"-  c #220D09",
";  c #200604",
":  c #24130B",
">  c #26180C",
",  c #241512",
"<  c #281510",
"1  c #241B14",
"2  c #2C1A14",
"3  c #2C1D1A",
"4  c #211C18",
"5  c #321D15",
"6  c #321E1B",
"7  c #33180F",
"8  c #2C2116",
"9  c #2D231B",
"0  c #24211D",
"q  c #33231C",
"w  c #3B241C",
"e  c #35281F",
"r  c #3A2B1E",
"t  c #331D21",
"y  c #332423",
"u  c #392522",
"i  c #362A22",
"p  c #3B2B23",
"a  c #3C2B29",
"s  c #382B2A",
"d  c #3D3125",
"f  c #3B332B",
"g  c #39372C",
"h  c #2F3030",
"j  c #393633",
"k  c #3E3A35",
"l  c #3A3936",
"z  c #2A2725",
"x  c #422D1D",
"c  c #40261D",
"v  c #422C23",
"b  c #422D2B",
"n  c #402620",
"m  c #443225",
"M  c #4A3324",
"N  c #4B3927",
"B  c #44342B",
"V  c #4A352B",
"C  c #45392D",
"Z  c #4B3B2D",
"A  c #513D2D",
"S  c #51352C",
"D  c #432D32",
"F  c #433534",
"G  c #493532",
"H  c #443C32",
"J  c #4C3B33",
"K  c #4D3D3B",
"L  c #483B3D",
"P  c #513E33",
"I  c #533D3B",
"U  c #5A3F34",
"Y  c #49442E",
"T  c #56442E",
"R  c #454236",
"E  c #4D4234",
"W  c #46433B",
"Q  c #4C433A",
"!  c #4D483C",
"~  c #534335",
"^  c #5A4534",
"/  c #5D4B34",
"(  c #54443B",
")  c #5B463C",
"_  c #544A3D",
"`  c #5A4A3D",
"'  c #544935",
"]  c #5A533A",
"[  c #604E36",
"{  c #624B3D",
"}  c #64523C",
"|  c #6B593D",
" . c #69563D",
".. c #4B4641",
"X. c #4E4A43",
"o. c #484848",
"O. c #544E42",
"+. c #5B4B42",
"@. c #524B49",
"#. c #574845",
"$. c #4E5043",
"%. c #535245",
"&. c #5A5343",
"*. c #55544B",
"=. c #5C554B",
"-. c #5B5A4D",
";. c #5D5843",
":. c #5B5652",
">. c #5E5D51",
",. c #565850",
"<. c #634E42",
"1. c #694E44",
"2. c #634E4B",
"3. c #645345",
"4. c #6B5245",
"5. c #6D5B44",
"6. c #64544B",
"7. c #69564B",
"8. c #635B4D",
"9. c #6B5A4C",
"0. c #605A42",
"q. c #715749",
"w. c #725A4C",
"e. c #715E47",
"r. c #645E53",
"t. c #6D5C53",
"y. c #615C59",
"u. c #6D5C5A",
"i. c #685654",
"p. c #725D53",
"a. c #755E56",
"s. c #5F6153",
"d. c #68634C",
"f. c #67624E",
"g. c #78674C",
"h. c #79674C",
"j. c #636354",
"k. c #6A6255",
"l. c #65625B",
"z. c #6B655A",
"x. c #66685B",
"c. c #6B6A5D",
"v. c #6E6954",
"b. c #746355",
"n. c #796355",
"m. c #73625A",
"M. c #7C665B",
"N. c #726B5C",
"B. c #7C6A5C",
"V. c #706D57",
"C. c #74715D",
"Z. c #79745F",
"A. c #745F60",
"S. c #6D6E61",
"D. c #6C6864",
"F. c #7A6565",
"G. c #736C62",
"H. c #7B6A62",
"J. c #7C6B6B",
"K. c #6E7063",
"L. c #737265",
"P. c #7B7463",
"I. c #7C7963",
"U. c #757569",
"Y. c #7B746B",
"T. c #7C7A6C",
"R. c #77796E",
"E. c #7D7C73",
"W. c #7C7770",
"Q. c #826B5A",
"!. c #816C56",
"~. c #85735C",
"^. c #8B7A5D",
"/. c #857359",
"(. c #826D64",
"). c #816967",
"_. c #8B7466",
"`. c #83746B",
"'. c #89746B",
"]. c #837C6D",
"[. c #8B7B6C",
"{. c #877962",
"}. c #907E65",
"|. c #977D6F",
" X c #857E73",
".X c #8A7974",
"XX c #8C7775",
"oX c #7F8073",
"OX c #958368",
"+X c #838275",
"@X c #86847A",
"#X c #8A857A",
"$X c #8B8B7D",
"%X c #8A8678",
"&X c #948174",
"*X c #9B8174",
"=X c #91857A",
"-X c #938B7D",
";X c #9C8875",
":X c #85806B",
">X c #A39274",
",X c #8D8C83",
"<X c #888681",
"1X c #928D83",
"2X c #968E85",
"3X c #8E9084",
"4X c #9A9284",
"5X c #95928A",
"6X c #9B9489",
"7X c #95988B",
"8X c #9C9B8E",
"9X c #909385",
"0X c #9D9A92",
"qX c #A99688",
"wX c #A29D95",
"eX c #9EA193",
"rX c #A5A295",
"tX c #A3A598",
"yX c #ABA69C",
"uX c #ABA798",
"iX c #B1AB9A",
"pX c #ACA9A3",
"aX c #A9A7A1",
"sX c #B1ACA2",
"dX c #AFB1A4",
"fX c #B9B5A8",
"gX c #C3BCAD",
"hX c #C8C6B3",
"jX c #CAC7C0",
"kX c None",
/* pixels */
"kXkXkXkXkXkXkXkXkXkXkXkXkXkXkXkXkXkX0X0XrX9X@X0XkXkXkXkXkXkXkXkXkXkXkXkXkXkXkXkXkXkX",
"kXkXkXkXkXkXkXkXkXkXkXkXkXkXkXkX5X,X5XyXdXrX%X%X0XyX$XkXkXkXkXkXkXkXkXkXkXkXkXkXkXkX",
"kXkXkXkXkXkXkXkXkXkXkXkXkXkX0X,.@X%XT.C.I.L.k.j.Z.T.oXZ.hXkXkXkXkXkXkXkXkXkXkXkXkXkX",
"kXkXkXkXkXkXkXkXkXkXkX<XpXpXpXE.x.I.:XI.{.I.C.V.f.f.] iX-XZ.+XkXkXkXkXkXkXkXkXkXkXkX",
"kXkXkXkXkXkXkXkXkXkX,XpX0X#XE.2XN.;.P.P.Z.Z.V.v.v.' ].iXC.Z.v.W.@XkXkXkXkXkXkXkXkXkX",
"kXkXkXkXkXkXkXkX0XG.W.0XY.y.Y.#X+X_ k.6._ _ &.r.&.d rX].Z.P.Y.S.! T.kXkXkXkXkXkXkXkX",
"kXkXkXkXkXkXkX5XjX1Xr.Y.W.G.z.Y.%X=.J F i i i H H Q 5X.XU.J.Y.-.N.wXyXkXkXkXkXkXkXkX",
"kXkXkXkXkXkX,X0X@XY.*.=.m.Y.8.B f a j u z s y s y y L i.u.F.N.k.6X$XY.sXkXkXkXkXkXkX",
"kXkXkXkXkXE.9XR.U.U.N.6.&.=.m > # y F , * , 3 F 3 # # u K @.u.4X-XC.I.].0XkXkXkXkXkX",
"kXkXkXkXx.eXU.L.G.G.N.O.C C > O X a #.y $   , #.t X   , #.t E ].Z.C.P.v.+X0XkXkXkXkX",
"kXkXkX$X*.*.c.U.G.N.O.q i Z 8 X   u ( 5 o   2 #.3   X : ( 2 + Y d.d.C.8.f.z.Q kXkXkX",
"kXkXkX0X9X! %.-.%.k.O.Q 3._ x m +.k.Z e G 6.3.` e m ` 9.+.d r Y ;.f.f.] c.wX%XkXkXkX",
"kXkXkX7XeXeXE.O.Q ! _ +.9.` +.3.7.b.^ 3.7.9.b.7.` 3.4.b.3.~ ` ] ' ' ] oXgX-X8X,XkXkX",
"kXkXR.$XS.7XfX`.r r 6 w Z B p d m G B G J B B G G G b V J J m i i v B qX XH.6X1XkXkX",
"kXkXtX+XL.G.%Xk.u < + + b +.p $ + a 6.u - - 6 2.v $ o 6 +.b o + 2 J v k.P.`. XsXkXkX",
"kXtXfXR.x.I.G.J H 2 X X B t.p     G a.u X X q ).r X X 2 6.b X   8 #.p d B.N.z.wXyXkX",
"kXoXoXS.x.l.8.( J 2 @ 2 #.2.p 1 < +.t.5 2 q P M.r : < P p.v 2 : G 3.i C 9.-.=.G.<XkX",
"kX7XK.%.k =.O.=.O.V ) t.[.p.6.k.b.|.B.` e._.&XH.` 4.m.;X[.` 7.m.H.m.C _ Z _ N.%X5X5X",
"kX7X7X$XC.R f E ( #.6.u.(.t.u.H.B._.4.p.n._.(.w.1.n.Q._.n.4.m.H.B.6.~ Y C ].iXyX6Xy.",
"kXoXoX3X8Xj.9 p B v v r G #.P F d M ^ M S x S { ^ M x N ^ ^ m v b p B > d -X6XG.W.y.",
"kXR.S.R.c.R # i ( 2 X X I B.B   X A w.x = o 6 Q.M ; o x Q.S o X w #.v O 3 [.+XY.Y.:.",
"kXoXU.L.L.! # q #.6 X   ~ u.B X   Z n.x o X w _.x o X M M.v o X q 6.f X i 4XY.G.J.:.",
"kXK.s.x.S.%.i J J 2 6 b t.i.p f K p.q.c w V 4.a.M c M 4.Q.v q p #.9.B 2 Q 6X XG.D...",
"kXj.-.s.-.R O.t.` ( t.m.&XF.t.J.&XqXQ.q.!.|.*X|.a._.|.*X*Xq.M.'.].m.` &.9.%XP.D.*.h ",
"kX,.s.-.*.g Y R B B +.I 6.) +.8.p.q.U 1.1.a.1.{ [ Q.Q.{ 1.U 1.<.+.P B E d &.=.6.*.k ",
"kXtXdXtX9X! & q Z p 2 2 G 2.B q < S 1.S c 7 w 1.U c 7 c 1.S n 6 6 V p > e 2XfXrXwXE.",
"kXoXK.L.S.! # e ( , X X J i.i O o I ).M ; ; u '.n ; ; n ).V o X r 6.B O r -X%XG. XD.",
"kXR.K.L.c.R # i J 5 o   J a.i X X I ).u X o q .Xn @ @ t F.G X   3 &.d   e 6X XN.W.D.",
"kXK.j.S.P.R 9 Q E p u F m.b.G F I B.n.m m T 9.(.A m Z 5.Q.A M G 6.i.m 3 B 1X#Xz.l.@.",
"kXS.-.x.S.%._ 6._ ` t.(.XXm.u.(.[.>Xh.| ^.OXOX^.| /.}.;X^.| (..X`.p.O.3.6.=X].z.:.o.",
"kXR g %.R g f f B B I J +.~ ( =.) [ / / 3.T / ) T  .{ / / ^ } ( ~ V p Y d _ ( Q @.k ",
"kX9XeXtXoXC & q J q $ @ J 2.p : # B i.J < - u a.J 3 - u t.J 6 , 8 J i : 8 -XwX0X5XD.",
"kX$X@X$XU.g O 9 ( 8 X   J t.u X   K J.D X X D XXD @ X t A.D @   y 6.B X 9 -X$X X#Xy.",
"kXoXK.K.K.C & e J 2 @ - ) 6.u & & ^ i.w - 2 B B.b - $ M B.N 2 : p 6.B # s 4X].G.W.y.",
"kXoXK.S.L.! k &._ m J =.(.m.( O.n.OXh.T [ h.OX/./ / } ~.~.[ ^ 6.m.t.E N _ -X XT.Y.@.",
"kXR.L.K.x.R H ] J G 7.a.H.6.i.m.(.^.5. .g.h.^./.| !./.{.^.5.9.m.m.6.( ` 6.-X`.z.D.X.",
"kXS.$.-.,.g 8 e i p p m J I J H v Z P V V M P ( A N m P ) A V B B J m r C T.P.-.:.W ",
"kXs.s.j.-.d # q Z 2 @ + J 6.e - X b A.b @ - t u.B @ o u 2.D @ # i ^ i + 1 k.k.l.y.k ",
"kX<X9X7X$X%.. 9 ( q @   J 9.v X X K F.u @ $ y ).D - X y u.J o   2 #.m   9 2X6X1X1Xy.",
"kXj.%.s.-.R & e J 2 @ : #.#.e , 2 ~ 9.N < , Z B.x : 5 A 7.v - 2 i ( p & p ].b.=.y.o.",
"kX,.X.:.=.! H O.E p ) b.'.9.~ a._.OXe.[ e./.;X~./ 4.~.}.!.[ 5.B.'.9.Z ' ` Y.t.*.*.s ",
"kXo.W X.X.f f J E G ) ) 9.{ 4.q.4.M.7.9.w.q.n.M.3.3.3.n.M.} 3.[ 5. .' Y ~ `.:.W @.z ",
"kXo.k W k s 8 9 e e e r v x A M M ~ / Z Z m ~ ~ A N m ~ ~ Z m x r N r q C G.! g j 0 ",
"kXh j k k j 0 g F q p d +.{ m ) ~ +.9.d Z Z ~ 9.J ~ ~ / 9.Z E Z Y _ d i f O.X.l h * ",
"kX. % % * * . 4 9 & 9 q ( P 2 Z Z ` ' > d E E 3.8 r ` ' O.2 r f C H 1 8 4 * % % % kX"
};
