/* XPM */
static char *result[] = {
/* columns rows colors chars-per-pixel */
"45 45 8 1 ",
"  c #0C0300",
". c #271507",
"X c #422811",
"o c #754D29",
"O c #FF0929",
"+ c #CDC1C1",
"@ c gray92",
"# c None",
/* pixels */
"#############################################",
"#############################################",
"#############################################",
"#############################################",
"#############################################",
"#############################################",
"#############################################",
"#############################################",
"#############################################",
"#############################################",
"#############################################",
"#############################################",
"#########################@OO#################",
"#######################o@O@@@################",
"######################o@@@@@@@###############",
"#####################oo@@@@@@+###############",
"#####################oX@@@@@++o##############",
"####################oXXX@@@++oo##############",
"#################oooXXXXX+++oooX#############",
"################ooXXX    @oooooo#############",
"##########oooooooXXX     @ XXoXX#############",
"########. XXXXXXXXXX  @     XXXX#############",
"#######.XXXXXXXXXXX#  @   XXXXXX#############",
"####### oXXXooXXX###XXXXXXXXXXXXX############",
"########.  XXXXX##XXXXXXXXXXXXXXX############",
"########. ### X##XXXXXXXXXXXXXXXX############",
"######### ###. ##XXXXXXXXXXXXXXX#############",
"############# ##ooXXXXXXXXXXXXo##############",
"################ #XXXXXXXXXXX################",
"##################XXXXXXXXXo#################",
"#################X XXXXXXXXX#################",
"################# XXXXXX.  X#################",
"################# oXo#XX#..##################",
"#################.  ##X######################",
"##################.###X######################",
"#####################X#######################",
"#############################################",
"#############################################",
"#############################################",
"#############################################",
"#############################################",
"#############################################",
"#############################################",
"#############################################",
"#############################################"
};
