/* XPM */
static char *result[] = {
/* columns rows colors chars-per-pixel */
"45 45 8 1 ",
"  c #0A0200",
". c #271507",
"X c #422811",
"o c #754D29",
"O c #FF0929",
"+ c #CDC1C1",
"@ c gray92",
"# c None",
/* pixels */
"#############################################",
"#############################################",
"#############################################",
"#############################################",
"#############################################",
"#############################################",
"#############################################",
"#############################################",
"#############################################",
"#############################################",
"#############################################",
"#############################################",
"######################@@@####################",
"####################o@O@@@###################",
"##############oooooo@@O@@@@##################",
"############. XXXXoo@@O@@@+##################",
"###########.XXXXXXoX@@@@@++o#################",
"########### oXXXooXXX@@@++oo#################",
"############.  XXXXXXX+++oooX################",
"############. ###X    @oooooo################",
"############# ###     oooooooo###############",
"#################  @ooooooXXXX###############",
"################# ooooXXXXXXXX###############",
"################# oooXXXXXXXXXX##############",
"##############.Xo#ooXXXXXXXXXXX##############",
"#############. oXo..XooXXXXXXXX##############",
"############# #XXX oooXXXXXXXo###############",
"###############.XX o XXXXXXXX################",
"##############. ### XXXXX#.  ################",
"################### oXoX###..################",
"###################.   X#####################",
"####################.##X#####################",
"#######################X#####################",
"#############################################",
"#############################################",
"#############################################",
"#############################################",
"#############################################",
"#############################################",
"#############################################",
"#############################################",
"#############################################",
"#############################################",
"#############################################",
"#############################################"
};
