/* XPM */
static char *result[] = {
/* columns rows colors chars-per-pixel */
"45 45 9 1 ",
"  c #120D08",
". c #20150C",
"X c #2F2217",
"o c #46301E",
"O c #734F31",
"+ c #FF1831",
"@ c #CBBFBF",
"# c #E9E9E9",
"$ c None",
/* pixels */
"$$$$$$$$$$$$$$$$$$$$$$$$$$$$$$$$$$$$$$$$$$$$$",
"$$$$$$$$$$$$$$$$$$$$$$$$$$$$$$$$$$$$$$$$$$$$$",
"$$$$$$$$$$$$$$$$$$$$$$$$$$$$$$$$$$$$$$$$$$$$$",
"$$$$$$$$$$$$$$$$$$$$$$$$$$$$$$$$$$$$$$$$$$$$$",
"$$$$$$$$$$$$$$$$$$$$$$$$$$$$$$$$$$$$$$$$$$$$$",
"$$$$$$$$$$$$$$$$$$$$$$$$$$$$$$$$$$$$$$$$$$$$$",
"$$$$$$$$$$$$$$$$$$$$$$$$$$$$$$$$$$$$$$$$$$$$$",
"$$$$$$$$$$$$$$$$$$$$$$$$$$$$$$$$$$$$$$  $$$$$",
"$$$$$$$$$$$$$$$$$$$$$$$$$$$$$$$$$$$$$X $$$$$$",
"$$$$X $$$$$$$$$$$$$$$$$$$$$$$$$$$$$$O oO$$$$$",
"$$$X O$$$$$$$XX$$$$$$$$$$$$$$$$$$$$Oooo X$$$$",
"$$$  oOO$$$$X  $$$$$$$$$$$$$$$$$$$OOoooo  $$$",
"$$$ $$oOOO$$X O$$$$$$$$$$$$$$$$$$$Ooooo$$ $$$",
"$$$$$$oooOOO  oO$$$$$$$$$$$$$$$OOOoooO$$$$$$$",
"$$$$$$oooooO ooOO$$$$$$$$$$$$OOoooooooX$$$$$$",
"$$$$$OooooooOoooO$$$$$$$$$$$Oooooooooo X$$$$$",
"$$$OoooooooooooooOO$$$$$$$oooooooo$$$$  $$$$$",
"$$X ooooooooooooooOO$OOOOOOOooo$$$$$$$$$$$$$$",
"$X ooooooooooooooooOOOoOOO###O$$$$$$$$$$$$$$$",
"$ $$$OoooooooooooooOOoooo#####$$$$$$$$$$$$$$$",
"$ $$XXooo$$$$ooooooOOooo####+##$$$$$$$$$$$$$$",
"$$$$X o$$$$$$$oooooOoooo@###+##$$$$$$$$$$$$$$",
"$$$$ $$$$$$$$$$$oooooooo@@##+##$$$$$$$$$$$$$$",
"$$$$ $$$$$$$$$$$$ooooOOOo@@###o$$$$$$$$$$$$$$",
"$$$$ $$$$$$$$$$$$$oooooOOO@@@o$$$$$$$$$$$$$$$",
"$$$$$$$$$$$$$$$$$$oooo#.oOOoo.o$$$$$$$$$$$$$$",
"$$$$$$$$$$$$$$$$$$ooo...#.#.#.$$$$$$$$$$$$$$$",
"$$$$$$$$$$$$$$$$$$$oo........$$$$$$$$$$$$$$$$",
"$$$$$$$$$$$$$$$XX$Ooo........$$$$$$$$$$$$$$$$",
"$$$$$$$$$$$$$$$  OOOo#.#.#.#$$$$$$$$$$$$$$$$$",
"$$$$$$$$$$$$$$$ $ooOoOOOOOOO$OoX$$$$$$$$$$$$$",
"$$$$$$$$$$$$$$$$$$oOooooooooOoO X$$$$$$$$$$$$",
"$$$$$$$$$$$$$$$$$$ oooooo$$oooo$ $$$$$$$$$$$$",
"$$$$$$$$$$$$$$$$$XX o$ooo$$$ooX$$$$$$$$$$$$$$",
"$$$$$$$$$$$$$$$$$$$$$$oo$$$$$$ X$$$$$$$$$$$$$",
"$$$$$$$$$$$$$$$$$$$$$Oo$$$$$$$$$$$$$$$$$$$$$$",
"$$$$$$$$$$$$$$$$$$$OOoo$$$$$$$$$$$$$$$$$$$$$$",
"$$$$$$$$$$$$$$$$$OOooo$$$$$$$$$$$$$$$$$$$$$$$",
"$$$$$$$$$$$$$$$$$ooo$$$$$$$$$$$$$$$$$$$$$$$$$",
"$$$$$$$$$$$$$$$$$$$$$$$$$$$$$$$$$$$$$$$$$$$$$",
"$$$$$$$$$$$$$$$$$$$$$$$$$$$$$$$$$$$$$$$$$$$$$",
"$$$$$$$$$$$$$$$$$$$$$$$$$$$$$$$$$$$$$$$$$$$$$",
"$$$$$$$$$$$$$$$$$$$$$$$$$$$$$$$$$$$$$$$$$$$$$",
"$$$$$$$$$$$$$$$$$$$$$$$$$$$$$$$$$$$$$$$$$$$$$",
"$$$$$$$$$$$$$$$$$$$$$$$$$$$$$$$$$$$$$$$$$$$$$"
};
