/* XPM */
static char *result[] = {
/* columns rows colors chars-per-pixel */
"45 45 9 1 ",
"  c #120D08",
". c #20150C",
"X c #2F2217",
"o c #46301E",
"O c #734F31",
"+ c #FF1831",
"@ c #CBBFBF",
"# c #E9E9E9",
"$ c None",
/* pixels */
"$$$$$$$$$$$$$$$$$$$$$$$$$$$$$$$$$$$$$$$$$$$$$",
"$$$$$$$$$$$$$$$$$$$$$$$$$$$$$$$$$$$$$$$$$$$$$",
"$$$$$$$$$$$$$$$$$$$$$$$$$$$$$$$$$$$$$$$$$$$$$",
"$$$$$$$$$$$$$$$$$$$$$$$$$$$$$$$$$$$$$$$$$$$$$",
"$$$$$$$$$$$$$$$$$$$$$$$$$$$$$$$$$$$$$$$$$$$$$",
"$$$$$$$$$$$$$$$$$$$$$$$$$$$$$$$$$$$$$$$$$$$$$",
"$$$$$$$$$$$$$$$$$$$$$$$$$$$$$$$$$$$$$$$$$$$$$",
"$$$$$$$$$$$$$$$$$$$$$$$$$$$$$$$$$$$$$$$$$$$$$",
"$$$$$$$$$$$$$$$$$$$$$$$$$$$$$$$$$$$$$$$$$$$$$",
"$$$$$$$$$$$$$$$$$$$$$$$$$$$$$$$$$$$$$$  $$$$$",
"$$$$$$$$$$$$$$$$$$$$$$$$$$$$$$$$$$$$$$ $$$$$$",
"$$$$$$X $$$$$$$$$$$$$$$$$$$$$$$$$$$$$XoO$$$$$",
"$$$$$X O$$$$$$$$$$$$$$$$$$$$$$$$$$$$O o X$$$$",
"$$$$$  oOO$$$$$XX$$$$$$$$$$$$$$$$$$Ooooo  $$$",
"$$$$$ $$oO$$$$X  $$$$$$$$$$$$$$$$$OOooo$$ $$$",
"$$$$$$$$oOOO$$XO$$$$$$$$$$$$$$$$$OOoooO$$$$$$",
"$$$$$$$$oooOO  oO$$$$$$$$$$$$$$$OooooooXX$$$$",
"$$$$$$$OooooO ooOO$$$$$$$$$$$$OOooooooo  $$$$",
"$$$$$OoooooooOoooO$$$$$$$$$$$Ooooooooo$$$$$$$",
"$$$$X ooooooooooooOO$$$$$$$oooooooo$$$$$$$$$$",
"$$$X ooooooooooooooOO$OOOOOOOooo$$$$$$$$$$$$$",
"$$X $$OoooooooooooooOOOoOOO###O$$$$$$$$$$$$$$",
"$$$$$XXoooooooooooooOOoooo#####$$$$$$$$$$$$$$",
"$$$$$X o$o$$$$ooooooOOooo####+##$$$$$$$$$$$$$",
"$$$$$ $$$$$$$$$oooooOoooo@###+##$$$$$$$$$$$$$",
"$$$$$$$$$$$$$$$$$oooooooo@@##+##$$$$$$$$$$$$$",
"$$$$$$$$$$$$$$$$$$ooooOOOo@@###o$$$$$$$$$$$$$",
"$$$$$$$$$$$$$$$$$$$oooooOOO@@@o$$$$$$$$$$$$$$",
"$$$$$$$$$$$$$$$$$$$oooo#.oOOoo.o$$$$$$$$$$$$$",
"$$$$$$$$$$$$$$$$$$$ooo...#.#.#.$$$$$$$$$$$$$$",
"$$$$$$$$$$$$$$$$$$$$oo........$$$$$$$$$$$$$$$",
"$$$$$$$$$$$$$$$$XX$Ooo........$$$$$$$$$$$$$$$",
"$$$$$$$$$$$$$$$$  OOOo#.#.#.#$$$$$$$$$$$$$$$$",
"$$$$$$$$$$$$$$$$ $ooOoOOOOOOO$OoX$$$$$$$$$$$$",
"$$$$$$$$$$$$$$$O$$$oOooooooooOoO X$$$$$$$$$$$",
"$$$$$$$$$$$$$$$oOOO oooooo$$oooo$ $$$$$$$$$$$",
"$$$$$$$$$$$$$$$$ooXX oo$$$$$$ooX$$$$$$$$$$$$$",
"$$$$$$$$$$$$$$$$$$$$$$$$$$$$$$$ X$$$$$$$$$$$$",
"$$$$$$$$$$$$$$$$$$$$$$$$$$$$$$$$$$$$$$$$$$$$$",
"$$$$$$$$$$$$$$$$$$$$$$$$$$$$$$$$$$$$$$$$$$$$$",
"$$$$$$$$$$$$$$$$$$$$$$$$$$$$$$$$$$$$$$$$$$$$$",
"$$$$$$$$$$$$$$$$$$$$$$$$$$$$$$$$$$$$$$$$$$$$$",
"$$$$$$$$$$$$$$$$$$$$$$$$$$$$$$$$$$$$$$$$$$$$$",
"$$$$$$$$$$$$$$$$$$$$$$$$$$$$$$$$$$$$$$$$$$$$$",
"$$$$$$$$$$$$$$$$$$$$$$$$$$$$$$$$$$$$$$$$$$$$$"
};
