/* XPM */
static char *result[] = {
/* columns rows colors chars-per-pixel */
"45 45 9 1 ",
"  c #120D08",
". c #20150C",
"X c #2F2217",
"o c #46301E",
"O c #734F31",
"+ c #FF1831",
"@ c #CBBFBF",
"# c #E9E9E9",
"$ c None",
/* pixels */
"$$$$$$$$$$$$$$$$$$$$$$$$$$$$$$$$$$$$$$$$$$$$$",
"$$$$$$$$$$$$$$$$$$$$$$$$$$$$$$$$$$$$$$$$$$$$$",
"$$$$$$$$$$$$$$$$$$$$$$$$$$$$$$$$$$$$$$$$$$$$$",
"$$$$$$$$$$$$$$$$$$$$$$$$$$$$$$$$$$$$$$$$$$$$$",
"$$$$$$$$$$$$$$$$$$$$$$$$$$$$$$$$$$$$$$$$$$$$$",
"$$$$$$$$$$$$$$$$$$$$$$$$$$$$$$$$$$$$$$$$$$$$$",
"$$$$$$$$$$$$$$$$$$$$$$$$$$$$$$$$$$$$$$$$$$$$$",
"$$$$$$$$$$$$$$$$$$$$$$$$$$$$$$$$$$$$$$$$$$$$$",
"$$$$$$$$$$$$$$$$$$$$$$$$$$$$$$$$$$$$$$$$$$$$$",
"$$$ XX$$$$$$$$$$$$$$$$$$$$$$$$$$$$$$$$$$$$$$$",
"$$$$oooO  $$$$$$$$$$$$$$$$$$$$$$$$$$$$$$$$$$$",
"$$$OOoooo $$$$$$$$$$$$$$$$$$$$$$$$$$$$$$$$$$$",
"$XOOooooo $$$$$$$$$$$$$$$$$$$$$$$$$$   $$$$$$",
"X ooooooooOO$$$$$$$$$$$$$$$$$$$$$$OOO$$$$$$$$",
"$$$ooooooooOO$$$$$$$$$$$$$$$$$$$$Ooooo$$$$$$$",
"$$OoooooooooOO$$$$$OOOOOOOoo$OOOOoooo  $$$$$$",
"$$oooooooooooOOO$$OOoOOO###OOooooooooo$$$$$$$",
"$XoooooooooooooOO$Ooooo#####oooooooo $$$$$$$$",
"$ $$$$$ooooooooooOOooo####+##oooo$$$  $$$$$$$",
"$$$$$$$$$$oooooooooooo@###+##$$$$$$$$ $$$$$$$",
"$$$$$$$$$$$$$ooooooooo@@##+##$$$$$$$$$$$$$$$$",
"$$$$$$$$$$$$$$$$oooOOOo@@###o$$$$$$$$$$$$$$$$",
"$$$$$$$$$$$$$$$$oooooOOO@@@o$$$$$$$$$$$$$$$$$",
"$$$$$$$$$$$$$$$$oooo#.oOOoo.o$$$$$$$$$$$$$$$$",
"$$$$$$$$$$$$$$$$ooo...#.#.#.$$$$$$$$$$$$$$$$$",
"$$$$$$$$$$$$$$$$$oo........$$$$$$$$$$$$$$$$$$",
"$$$$$$$$$$$$$$$$$oo........$$$$$$$$$$$$$$$$$$",
"$$$$$$$$$$$$$XX$Ooo#.#.#.#$$$$$$$$$$$$$$$$$$$",
"$$$$$$$$$$$$$  OOOoOOOOOO$$$$$$$$$$$$$$$$$$$$",
"$$$$$$$$$$$$O $ooOoooooooO$OoX$$$$$$$$$$$$$$$",
"$$$$$$$$$$$$oOOOoO$oooo$ooOoO X$$$$$$$$$$$$$$",
"$$$$$$$$$$$$$ooo ooo$$$$$oooo$ $$$$$$$$$$$$$$",
"$$$$$$$$$$$$$$$XX o$$$$$$$ooX$$$$$$$$$$$$$$$$",
"$$$$$$$$$$$$$$$$$$$$$$$$$$$$ X$$$$$$$$$$$$$$$",
"$$$$$$$$$$$$$$$$$$$$$$$$$$$$$$$$$$$$$$$$$$$$$",
"$$$$$$$$$$$$$$$$$$$$$$$$$$$$$$$$$$$$$$$$$$$$$",
"$$$$$$$$$$$$$$$$$$$$$$$$$$$$$$$$$$$$$$$$$$$$$",
"$$$$$$$$$$$$$$$$$$$$$$$$$$$$$$$$$$$$$$$$$$$$$",
"$$$$$$$$$$$$$$$$$$$$$$$$$$$$$$$$$$$$$$$$$$$$$",
"$$$$$$$$$$$$$$$$$$$$$$$$$$$$$$$$$$$$$$$$$$$$$",
"$$$$$$$$$$$$$$$$$$$$$$$$$$$$$$$$$$$$$$$$$$$$$",
"$$$$$$$$$$$$$$$$$$$$$$$$$$$$$$$$$$$$$$$$$$$$$",
"$$$$$$$$$$$$$$$$$$$$$$$$$$$$$$$$$$$$$$$$$$$$$",
"$$$$$$$$$$$$$$$$$$$$$$$$$$$$$$$$$$$$$$$$$$$$$",
"$$$$$$$$$$$$$$$$$$$$$$$$$$$$$$$$$$$$$$$$$$$$$"
};
