/* XPM */
static char *result[] = {
/* columns rows colors chars-per-pixel */
"45 45 9 1 ",
"  c #120D08",
". c #20150C",
"X c #2F2217",
"o c #46301E",
"O c #734F31",
"+ c #FF1831",
"@ c #CBBFBF",
"# c #E9E9E9",
"$ c None",
/* pixels */
"$$$$$$$$$$$$$$$$$$$$$$$$$$$$$$$$$$$$$$$$$$$$$",
"$$$$$$$$$$$$$$$$$$$$$$$$$$$$$$$$$$$$$$$$$$$$$",
"$$$$$$$$$$$$$$$$$$$$$$$$$$$$$$$$$$$$$$$$$$$$$",
"$$$$$$$$$$$$$$$$$$$$$$$$$$$$$$$$$$$$$$$$$$$$$",
"$$$$$$$$$$$$$$$$$$$$$$$$$$$$$$$$$$$$$$$$$$$$$",
"$$$$$$$$$$$$$$$$$$$$$$$$$$$$$$$$$$$$$$$$$$$$$",
"$$$$$$$$$$$$$$$$$$$$$$$$$$$$$$$$$$$$$$$$$$$$$",
"$$$$$$$$$$$$$$$$$$$$$$$$$$$$$$$$$$$$$$$$$$$$$",
"$$$$$$$$$$$$$$$$$$$$$$$$$$$$$$$$$$$$$$$$$$$$$",
"$$$$$$$$$$$$$$$$$$$$$$$$$$$$$$$$$$$$$$$$$$$$$",
"$$$$$$$$$$$$$$$$$$$$$$$$$$$$$$$$$$$$$$$$$$$$$",
"$$$$$$$$$$$$$$$$$$$$$$$$$$$$$$$$$$$$$$$$$$$$$",
"$$$$$ X$$$$$$$$$$$$$$$$$$$$$$$$$$$$$$$$$$$$$$",
"$$$$$$oX$$$$$$$$$$$$$$$$$$$$$$$$$$$$$$$$$$$$$",
"$$$$$OOooO  $$$$$$$$$$$$$$$$$$$$$$$$$$$$$$$$$",
"$$$XOOooooo $$$$$$$$$$$$$$$$$$$$$$$$$  $$$$$$",
"$X oooooooo $$$$$$$$$OOOOOOO$$$$$$$$Ooo $$$$$",
"$$$$oooooooOO$$$$$$$OOoOOO###O$$$$$Oooo$$$$$$",
"$$$OooooooooOO$$$$$$Ooooo#####$$$$Ooooo  $$$$",
"$$$ooooooooooOOOOOOOOooo####+##OOOooooo$$$$$$",
"$$Xooooooooooooooooooooo@###+##ooooooo  $$$$$",
"$$ $$$oooooooooooooooooo@@##+##ooooo$$$$$$$$$",
"$$$$$$$$oooooooooooooOOOo@@###ooo$$$$$$$$$$$$",
"$$$$$$$$$$$oooooo$oooooOOO@@@o$$$$$$$$$$$$$$$",
"$$$$$$$$$$$$$$$$$$oooo#.oOOoo.o$$$$$$$$$$$$$$",
"$$$$$$$$$$$$$$$$$$ooo...#.#.#.$$$$$$$$$$$$$$$",
"$$$$$$$$$$$$$$$$$$$oo........$$$$$$$$$$$$$$$$",
"$$$$$$$$$$$$$$$$$$$oo........$$$$$$$$$$$$$$$$",
"$$$$$$$$$$$$$$$XX$Ooo#.#.#.#$$$$$$$$$$$$$$$$$",
"$$$$$$$$$$$$$$$  OOOoOOOOOO$$$$$$$$$$$$$$$$$$",
"$$$$$$$$$$$$$$$ $ooOoooooooO$OoX$$$$$$$$$$$$$",
"$$$$$$$$$$$$$$$$$$oO$Oooo$ooOoO X$$$$$$$$$$$$",
"$$$$$$$$$$$$$$$$$$ ooooo$$$oooo$ $$$$$$$$$$$$",
"$$$$$$$$$$$$$$$$$XX ooo$$$$$ooX$$$$$$$$$$$$$$",
"$$$$$$$$$$$$$$$$$$OOo$$$$$$$$$ X$$$$$$$$$$$$$",
"$$$$$$$$$$$$$$$$oOo$$$$$$$$$$$$$$$$$$$$$$$$$$",
"$$$$$$$$$$$$$$$$$$$$$$$$$$$$$$$$$$$$$$$$$$$$$",
"$$$$$$$$$$$$$$$$$$$$$$$$$$$$$$$$$$$$$$$$$$$$$",
"$$$$$$$$$$$$$$$$$$$$$$$$$$$$$$$$$$$$$$$$$$$$$",
"$$$$$$$$$$$$$$$$$$$$$$$$$$$$$$$$$$$$$$$$$$$$$",
"$$$$$$$$$$$$$$$$$$$$$$$$$$$$$$$$$$$$$$$$$$$$$",
"$$$$$$$$$$$$$$$$$$$$$$$$$$$$$$$$$$$$$$$$$$$$$",
"$$$$$$$$$$$$$$$$$$$$$$$$$$$$$$$$$$$$$$$$$$$$$",
"$$$$$$$$$$$$$$$$$$$$$$$$$$$$$$$$$$$$$$$$$$$$$",
"$$$$$$$$$$$$$$$$$$$$$$$$$$$$$$$$$$$$$$$$$$$$$"
};
