/* XPM */
static char *result[] = {
/* columns rows colors chars-per-pixel */
"45 45 9 1 ",
"  c #120D08",
". c #20150C",
"X c #2F2217",
"o c #46301E",
"O c #734F31",
"+ c #FF1831",
"@ c #CBBFBF",
"# c #E9E9E9",
"$ c None",
/* pixels */
"$$$$$$$$$$$$$$$$$$$$$$$$$$$$$$$$$$$$$$$$$$$$$",
"$$$$$$$$$$$$$$$$$$$$$$$$$$$$$$$$$$$$$$$$$$$$$",
"$$$$$$$$$$$$$$$$$$$$$$$$$$$$$$$$$$$$$$$$$$$$$",
"$$$$$$$$$$$$$$$$$$$$$$$$$$$$$$$$$$$$$$$$$$$$$",
"$$$$$$$$$$$$$$$$$$$$$$$$$$$$$$$$$$$$$$$$$$$$$",
"$$$$$$$$$$$$$$$$$$$$$$$$$$$$$$$$$$$$$$$$$$$$$",
"$$$$$$$$$$$$$$$$$$$$$$$$$$$$$$$$$$$$$$$$$$$$$",
"$$$$$$$$$$$$$$$$$$$$$$$$$$$$$$$$$$$$$$$$$$$$$",
"$$$$$$$$$$$$$$$$$$$$$$$$$$$$$$$$$$$$$$$$$$$$$",
"$$$$$$$$$$$$$$$$$$$$$$$$$$$$$$$$$$$$$$$$$$$$$",
"$$$$$$$$$$$$$$$$$$$$$$$$$$$$$$$$$$$$$$$$$$$$$",
"$$$$$$$$$$$$$$$$$$$$$$$$$$$$$$$$$$$$$$$$$$$$$",
"$$$$$$$$$$$$$$$$$$$$$$$$$$$$$$$$$$$$$$$$$$$$$",
"$$$$ XX$$$$$$$$$$$$$$$$$$$$$$$$$$$$$$$$$$$$$$",
"$$$$$oooO  $$$$$$$$$$$$$$$$$$$$$$$$$$$$$$$$$$",
"$$$$OOoooo $$$$$$$$$$OOOOOOO$$$$$$$$$$$$$$$$$",
"$$XOOooooo $$$$$$$$$OOoOOO###O$$$$$$$$$$$$$$$",
"X ooooooooOO$$$$$$$$Ooooo#####$$$$$$$$$$$$$$$",
"$$$ooooooooOOOOOOOOOOooo####+##$$$$$OOO  $$$$",
"$$$Ooooooooooooooooooooo@###+##OOOOOooooO$$$$",
"$$$ooooooooooooooooooooo@@##+##oooooooooX$$$$",
"$$XooooooooooooooooooOOOo@@###oooooooooo X$$$",
"$$ $$$$$ooooooooo$oooooOOO@@@o$oo$$ooooO$ $$$",
"$$$$$$$$$$$$$$$$$$oooo#.oOOoo.o$$$$$$$ X$$$$$",
"$$$$$$$$$$$$$$$$$$ooo...#.#.#.$$$$$$$$$$$$$$$",
"$$$$$$$$$$$$$$$$$$$oo........$$$$$$$$$$$$$$$$",
"$$$$$$$$$$$$$$$$$$$oo........$$$$$$$$$$$$$$$$",
"$$$$$$$$$$$$$$$XX$Ooo#.#.#.#$$$$$$$$$$$$$$$$$",
"$$$$$$$$$$$$$$$  OOOoOOOOOO$$$$$$$$$$$$$$$$$$",
"$$$$$$$$$$$$$$$ $ooOoooooooO$OoX$$$$$$$$$$$$$",
"$$$$$$$$$$$$$$$$$$oO$$Ooo$ooOoO X$$$$$$$$$$$$",
"$$$$$$$$$$$$$$$$$$ ooOOo$$$oooo$ $$$$$$$$$$$$",
"$$$$$$$$$$$$$$$$$XX oOoo$$$$ooX$$$$$$$$$$$$$$",
"$$$$$$$$$$$$$$$$$$$$$Ooo$$$$$$ X$$$$$$$$$$$$$",
"$$$$$$$$$$$$$$$$$$$$Ooo$$$$$$$$$$$$$$$$$$$$$$",
"$$$$$$$$$$$$$$$$$$$$o$$$$$$$$$$$$$$$$$$$$$$$$",
"$$$$$$$$$$$$$$$$$$$$o$$$$$$$$$$$$$$$$$$$$$$$$",
"$$$$$$$$$$$$$$$$$$$$$$$$$$$$$$$$$$$$$$$$$$$$$",
"$$$$$$$$$$$$$$$$$$$$$$$$$$$$$$$$$$$$$$$$$$$$$",
"$$$$$$$$$$$$$$$$$$$$$$$$$$$$$$$$$$$$$$$$$$$$$",
"$$$$$$$$$$$$$$$$$$$$$$$$$$$$$$$$$$$$$$$$$$$$$",
"$$$$$$$$$$$$$$$$$$$$$$$$$$$$$$$$$$$$$$$$$$$$$",
"$$$$$$$$$$$$$$$$$$$$$$$$$$$$$$$$$$$$$$$$$$$$$",
"$$$$$$$$$$$$$$$$$$$$$$$$$$$$$$$$$$$$$$$$$$$$$",
"$$$$$$$$$$$$$$$$$$$$$$$$$$$$$$$$$$$$$$$$$$$$$"
};
