/* XPM */
static char *result[] = {
/* columns rows colors chars-per-pixel */
"45 45 9 1 ",
"  c #120D08",
". c #20150C",
"X c #2F2217",
"o c #46301E",
"O c #734F31",
"+ c #FF1831",
"@ c #CBBFBF",
"# c #E9E9E9",
"$ c None",
/* pixels */
"$$$$$$$$$$$$$$$$$$$$$$$$$$$$$$$$$$$$$$$$$$$$$",
"$$$$$$$$$$$$$$$$$$$$$$$$$$$$$$$$$$$$$$$$$$$$$",
"$$$$$$$$$$$$$$$$$$$$$$$$$$$$$$$$$$$$$$$$$$$$$",
"$$$$$$$$$$$$$$$$$$$$$$$$$$$$$$$$$$$$$$$$$$$$$",
"$$$$$$$$$$$$$$$$$$$$$$$$$$$$$$$$$$$$$$$$$$$$$",
"$$$$$$$$$$$$$$$$$$$$$$$$$$$$$$$$$$$$$$$$$$$$$",
"$$$$$$$$$$$$$$$$$$$$$$$$$$$$$$$$$$$$$$$$$$$$$",
"$$$$$$$$$$$$$$$$$$$$$$$$$$$$$$$$$$$$$$$$$$$$$",
"$$$$$$$$$$$$$$$$$$$$$$$$$$$$$$$$$$$$$$$$$$$$$",
"$$$$$$$$$$$$$$$$$$$$$$$$$$$$$$$$$$$$$$$$$$$$$",
"$$$$$$$$$$$$$$$$$$$$$$$$$$$$$$$$$$$$$$$$$$$$$",
"$$$$$$$$$$$$$$$$$$$$$$$$$$$$$$$$$$$$$$$$$$$$$",
"$$$$$$$$$$$$$$$$$$$$$$$OOOOOOO$$$$$$$$$$$$$$$",
"$$$$$$$$$$$$$$$$$$$$$$OOoOOO###O$$$$$$$$$$$$$",
"$$$$$$$$$$$$$$$$$$$$$$Ooooo#####$$$$$$$$$$$$$",
"$$$$$$$$$$$$$$$$$$$$OoOooo####+##$$$$$$$$$$$$",
"$$$$$$$$$$$$$$$$$OOOoooooo@###+##OOOOOOOO$$$$",
"$$$$$$$$  $$$$$OOOoooooooo@@##+##oooooooo  $$",
"$$$$  oOO  $OOOooooooooOOOo@@###ooooooooooO$$",
"$$$$$oooOoOOoooooooooooooOOO@@@o$oo$ooooooX$$",
"$$$$$oooooooooooooo$oooo#.oOOoo.o$$$$oooo  X$",
"$$$$$$oooooooooooo$$ooo...#.#.#.$$$$$$$ O$ $$",
"$$$$$$ ooooooooo$$$$$oo........$$$$$$$$$X$$$$",
"$$$$$  oooooooo$$$$$$oo........$$$$$$$$$$$$$$",
"$$$$$$$$ooooooo$$XX$Ooo#.#.#.#$$$$$$$$$$$$$$$",
"$$$$$$$$ ooo$$$$$  OOOoOOOOOO$$$$$$$$$$$$$$$$",
"$$$$$$$$ $$$$$$$$ $ooOoooooooO$OoX$$$$$$$$$$$",
"$$$$$$$$$$$$$$$$$$$$oO$$$oo$ooOoO X$$$$$$$$$$",
"$$$$$$$$$$$$$$$$$$$$ oo$$o$$$oooo$ $$$$$$$$$$",
"$$$$$$$$$$$$$$$$$$$XX o$Oo$$$$ooX$$$$$$$$$$$$",
"$$$$$$$$$$$$$$$$$$$$$$$$Oo$$$$$$ X$$$$$$$$$$$",
"$$$$$$$$$$$$$$$$$$$$$$$$Oo$$$$$$$$$$$$$$$$$$$",
"$$$$$$$$$$$$$$$$$$$$$$$$Oo$$$$$$$$$$$$$$$$$$$",
"$$$$$$$$$$$$$$$$$$$$$$$Ooo$$$$$$$$$$$$$$$$$$$",
"$$$$$$$$$$$$$$$$$$$$$$$Oo$$$$$$$$$$$$$$$$$$$$",
"$$$$$$$$$$$$$$$$$$$$$$$$o$$$$$$$$$$$$$$$$$$$$",
"$$$$$$$$$$$$$$$$$$$$$$$$$$$$$$$$$$$$$$$$$$$$$",
"$$$$$$$$$$$$$$$$$$$$$$$$$$$$$$$$$$$$$$$$$$$$$",
"$$$$$$$$$$$$$$$$$$$$$$$$$$$$$$$$$$$$$$$$$$$$$",
"$$$$$$$$$$$$$$$$$$$$$$$$$$$$$$$$$$$$$$$$$$$$$",
"$$$$$$$$$$$$$$$$$$$$$$$$$$$$$$$$$$$$$$$$$$$$$",
"$$$$$$$$$$$$$$$$$$$$$$$$$$$$$$$$$$$$$$$$$$$$$",
"$$$$$$$$$$$$$$$$$$$$$$$$$$$$$$$$$$$$$$$$$$$$$",
"$$$$$$$$$$$$$$$$$$$$$$$$$$$$$$$$$$$$$$$$$$$$$",
"$$$$$$$$$$$$$$$$$$$$$$$$$$$$$$$$$$$$$$$$$$$$$"
};
