/* XPM */
static char *result[] = {
/* columns rows colors chars-per-pixel */
"45 45 9 1 ",
"  c #120D08",
". c #20150C",
"X c #2F2217",
"o c #46301E",
"O c #734F31",
"+ c #FF1831",
"@ c #CBBFBF",
"# c #E9E9E9",
"$ c None",
/* pixels */
"$$$$$$$$$$$$$$$$$$$$$$$$$$$$$$$$$$$$$$$$$$$$$",
"$$$$$$$$$$$$$$$$$$$$$$$$$$$$$$$$$$$$$$$$$$$$$",
"$$$$$$$$$$$$$$$$$$$$$$$$$$$$$$$$$$$$$$$$$$$$$",
"$$$$$$$$$$$$$$$$$$$$$$$$$$$$$$$$$$$$$$$$$$$$$",
"$$$$$$$$$$$$$$$$$$$$$$$$$$$$$$$$$$$$$$$$$$$$$",
"$$$$$$$$$$$$$$$$$$$$$$$$$$$$$$$$$$$$$$$$$$$$$",
"$$$$$$$$$$$$$$$$$$$$$$$$$$$$$$$$$$$$$$$$$$$$$",
"$$$$$$$$$$$$$$$$$$$$$$$$$$$$$$$$$$$$$$$$$$$$$",
"$$$$$$$$$$$$$$$$$$$$$$$$$$$$$$$$$$$$$$$$$$$$$",
"$$$$$$$$$$$$$$$$$$$$$$$$$$$$$$$$$$$$$$$$$$$$$",
"$$$$$$$$$$$$$$$$$$$$$$$$$$$$$$$$$$$$$$$$$$$$$",
"$$$$$$$$$$$$$$$$$$$$$$$$$$$$$$$$$$$$$$$$$$$$$",
"$$$$$$$$$$$$$$$$$$$$$$$$$$$$$$$$$$$$$$$$$$$$$",
"$$$$$$$$$$$$$$$$$$$$$OOOOOOO$$$$$$$$$$$$$$$$$",
"$$$$$$$$$$$$$$$$$$$$OOoOOO###O$$$$$$$$$$$$$$$",
"$$$$O  OOOOO$$$$$$$$Ooooo#####$$$$$OOO$ $$$$$",
"$$  oooooooooOOOOOOoOooo####+##OOOOooo O$$$$$",
"$$$Ooooooooooooooooooooo@###+##ooooooooX$$$$$",
"$$ ooooooooooooooooooooo@@##+##ooooooooo X$$$",
"$$ ooooooooooooooooooOOOo@@###oo$$ooooo  $$$$",
"$$$ oooooooooooooooooooOOO@@@o$o$$$o$ O$$$$$$",
"$$ $ooooo$$$$$$$$$oooo#.oOOoo.o$$$$$$$X$$$$$$",
"$$$$$$$$$$$$$$$$$$ooo...#.#.#.$$$$$$$$$$$$$$$",
"$$$$$$$$$$$$$$$$$$$oo........$$$$$$$$$$$$$$$$",
"$$$$$$$$$$$$$$$XX$Ooo........$$$$$$$$$$$$$$$$",
"$$$$$$$$$$$$$$$  OOOo#.#.#.#$$$$$$$$$$$$$$$$$",
"$$$$$$$$$$$$$$$ $ooOoOOOOOOO$OoX$$$$$$$$$$$$$",
"$$$$$$$$$$$$$$$$$$oOooooooooOoO X$$$$$$$$$$$$",
"$$$$$$$$$$$$$$$$$$ oo$$oo$$oooo$ $$$$$$$$$$$$",
"$$$$$$$$$$$$$$$$$XX o$Ooo$$$ooX$$$$$$$$$$$$$$",
"$$$$$$$$$$$$$$$$$$$$$$Oo$$$$$$ X$$$$$$$$$$$$$",
"$$$$$$$$$$$$$$$$$$$$$$Oo$$$$$$$$$$$$$$$$$$$$$",
"$$$$$$$$$$$$$$$$$$$$$$oo$$$$$$$$$$$$$$$$$$$$$",
"$$$$$$$$$$$$$$$$$$$$$Oo$$$$$$$$$$$$$$$$$$$$$$",
"$$$$$$$$$$$$$$$$$$$$Ooo$$$$$$$$$$$$$$$$$$$$$$",
"$$$$$$$$$$$$$$$$$$$$Oo$$$$$$$$$$$$$$$$$$$$$$$",
"$$$$$$$$$$$$$$$$$$$$Oo$$$$$$$$$$$$$$$$$$$$$$$",
"$$$$$$$$$$$$$$$$$$$$Oo$$$$$$$$$$$$$$$$$$$$$$$",
"$$$$$$$$$$$$$$$$$$$$$$$$$$$$$$$$$$$$$$$$$$$$$",
"$$$$$$$$$$$$$$$$$$$$$$$$$$$$$$$$$$$$$$$$$$$$$",
"$$$$$$$$$$$$$$$$$$$$$$$$$$$$$$$$$$$$$$$$$$$$$",
"$$$$$$$$$$$$$$$$$$$$$$$$$$$$$$$$$$$$$$$$$$$$$",
"$$$$$$$$$$$$$$$$$$$$$$$$$$$$$$$$$$$$$$$$$$$$$",
"$$$$$$$$$$$$$$$$$$$$$$$$$$$$$$$$$$$$$$$$$$$$$",
"$$$$$$$$$$$$$$$$$$$$$$$$$$$$$$$$$$$$$$$$$$$$$"
};
