/* XPM */
static char *result[] = {
/* columns rows colors chars-per-pixel */
"25 40 164 2 ",
"   c #2E1A23",
".  c #361F29",
"X  c #301B24",
"o  c #312026",
"O  c #32252C",
"+  c #3C242C",
"@  c #352C2D",
"#  c #242E31",
"$  c #2C3333",
"%  c #353935",
"&  c #3B3F3B",
"*  c #383535",
"=  c #462B2E",
"-  c #573226",
";  c #412730",
":  c #452933",
">  c #4A2C34",
",  c #512F34",
"<  c #443537",
"1  c #483438",
"2  c #443938",
"3  c #543435",
"4  c #5B3534",
"5  c #543538",
"6  c #563F3E",
"7  c #5B3A37",
"8  c #623936",
"9  c #693E36",
"0  c #6A3E38",
"q  c #613B39",
"w  c #3F413A",
"e  c #51453D",
"r  c #6D4234",
"t  c #65423C",
"y  c #6C443C",
"u  c #6D483F",
"i  c #734639",
"p  c #7B4C3B",
"a  c #724637",
"s  c #74503E",
"d  c #344648",
"f  c #2D5E62",
"g  c #356866",
"h  c #336869",
"j  c #3C6260",
"k  c #38716F",
"l  c #505045",
"z  c #58594C",
"x  c #405E5E",
"c  c #6C4942",
"v  c #624A43",
"b  c #744D43",
"n  c #6D524A",
"m  c #7C5244",
"M  c #75554C",
"N  c #765D4F",
"B  c #7B5B49",
"V  c #655D52",
"C  c #666659",
"Z  c #6C6659",
"A  c #746E5C",
"S  c #5F6C61",
"D  c #5C7467",
"F  c #417E77",
"G  c #4A7C74",
"H  c #427F79",
"J  c #567C72",
"K  c #677060",
"L  c #6B7B68",
"P  c #7B7D6F",
"I  c #844A38",
"U  c #82523C",
"Y  c #8B553D",
"T  c #8A583D",
"R  c #804E45",
"E  c #815646",
"W  c #8D5D46",
"Q  c #87594B",
"!  c #8B5D49",
"~  c #885645",
"^  c #955742",
"/  c #A55A46",
"(  c #8F644E",
")  c #93634C",
"_  c #9B694E",
"`  c #9D674D",
"'  c #8D6355",
"]  c #936D52",
"[  c #996D52",
"{  c #9F6B58",
"}  c #A36F51",
"|  c #B46B52",
" . c #B96C52",
".. c #AB7454",
"X. c #AE785B",
"o. c #B37B56",
"O. c #B87E57",
"+. c #B07559",
"@. c #BA795B",
"#. c #BD7357",
"$. c #897865",
"%. c #987365",
"&. c #AA7660",
"*. c #A77F6C",
"=. c #C37659",
"-. c #C57A5C",
";. c #428179",
":. c #5A8479",
">. c #BD8259",
",. c #9C866C",
"<. c #8E8D79",
"1. c #8D8D77",
"2. c #9D8D79",
"3. c #A58E68",
"4. c #AF8D65",
"5. c #BE8064",
"6. c #BD8B6F",
"7. c #A99169",
"8. c #92A07A",
"9. c #C48165",
"0. c #CB8868",
"q. c #D48D6C",
"w. c #D6926E",
"e. c #DB926E",
"r. c #CE9572",
"t. c #D09272",
"y. c #DE9671",
"u. c #DF9873",
"i. c #D79A79",
"p. c #E39C76",
"a. c #C2A16B",
"s. c #CFB775",
"d. c #D6BD78",
"f. c #E8A57E",
"g. c #4F9382",
"h. c #509584",
"j. c #539A86",
"k. c #569E89",
"l. c #5AA38B",
"z. c #5DA88E",
"x. c #5FAB90",
"c. c #68A589",
"v. c #60AC90",
"b. c #66B595",
"n. c #6CBE9A",
"m. c #6DB996",
"M. c #75BB95",
"N. c #6EC09B",
"B. c #8BAA83",
"V. c #86BF9A",
"C. c #82BA94",
"Z. c #EBAC84",
"A. c #EFB48B",
"S. c #F2B78E",
"D. c #EFBB93",
"F. c #F5BE93",
"G. c #88C39C",
"H. c #EEC199",
"J. c #F6C095",
"K. c #F8C499",
"L. c #FCCA9E",
"P. c #FECEA1",
"I. c #FFD0A3",
"U. c None",
/* pixels */
"U.U.U.U.U.U.U.U.U.U.U.U.U.U.U.U.U.U.U.U.U.U.U.U.U.",
"U.U.U.U.U.U.U.U.U.U.U.U.U.U.U.T T U.U.T T T U.U.U.",
"U.U.U.U.8 U.U.U.U.U.8 8 8 p T T Y r U T T T U.U.U.",
"U.U.U.U.U.U.U.U.U.8 4 9 i Y T T Y p U T T T U.U.U.",
"U.U.U.U.U.: > , 4 r r i T T T T T T U U T T U.U.U.",
"U.U.U.U.> > 3 9 9 U T T U U U T U p y r T U.U.U.U.",
"U.U.U.U.8 8 i T T T T U 9 8 p p q q 8 8 U.U.U.U.U.",
"U.U.U.U.: 4 8 r T T +.t.w.q.w.w.w.w.9.U.U.U.U.U.U.",
"U.U.U.U.4 4 0 R 0 +.` r 9 r r ^ p.T - U.U.U.U.U.U.",
"U.U.U.U., , q 0 8 -.@.^ Y ^ I Y #.^ r U.U.U.U.U.U.",
"U.U.U.U.%.' b 0 ~ 0.@.Y ^ @. ./ / ^ U.U.U.U.U.U.U.",
"U.U.U.U.P.S.&.y =.e.X.s b r.-./ / p U.U.U.U.U.U.U.",
"U.U.U.U.I.H.3.0 =.y.F.P.P.I.i.| | D.U.U.U.U.z C P ",
"U.U.U.U.U.> R =.-.A.P.P.I.I.P.P.P.I.U.U.U.z z z z ",
"U.U.U.U.U.U.9.u.y.F.P.P.I.A.f.A.I.I.,.% # w l z U.",
"U.U.U.U.U.U.U.U.p.Z.F.P.I.K.F.K.P.%.6 @ % $ & U.U.",
"U.U.U.U.U.z.l.:.<.<.<.2.t.t.t.6.$.n = . @ * U.U.U.",
"U.U.U.U.j.l.l.g.;.;.k x M M M t * b t < d & U.U.U.",
"U.U.N.N.N.l.k.z.;.;.;.;.g g d 2 b ( Q Z F U.U.U.U.",
"U.N.N.N.N.N.l.;.;.;.l.N.n.m.L B >.>._ Z ;.;.U.U.U.",
"U.N.N.N.N.N.l.;.;.z.N.N.N.C ) O.>.>.8.c.;.;.U.U.U.",
"N.N.N.N.N.N.l.;.;.b.N.c.V [ o.>.>.8.N.z.;.;.;.U.U.",
"n.n.N.N.N.N.g.;.;.D K A _ O.>.4.B.N.N.v.;.;.;.;.U.",
"l.l.l.z.N.U.U.G S n E _ >.>.7.B.N.N.N.l.h h h h U.",
"h.h.h.j.n.U.U.U.t m ) ....3.B.N.N.N.b.h.f f f f U.",
"C.V.G.G.U.U.; + X v N N N c.b.b.b.b.j.G J J J J U.",
"p.F.P.I.U.: +     j k ;.k ;.;.;.;.F U.U. . . . .U.",
"L.P.I.I.P.n X   X 2 2 O @ ] a.d.s.e ' q. .q.e.p.U.",
"I.I.P.P.Z.c     U.u Q W y Q [ [ B 3 } u.q.-.q.p.U.",
"U.I.P.P.U.U.U.U.U.} ..>.} } ) b 3 5 Q p.p.q.q.U.U.",
"U.U.I.U.U.U.U.U.U.>.>.>.>.>.( c 0 v U.U.p.p.U.U.U.",
"U.U.U.U.U.U.U.U.>.>.>.>.>.o.m q E Q U.U.U.U.U.U.U.",
"U.U.U.U.U.U.U.U.>.>.>.>.>.! y t E E U.U.U.U.U.U.U.",
"U.U.U.U.U.U.U.! >.>.>.>.>.u c E E E U.U.U.U.U.U.U.",
"U.U.U.U.U.U.U.O.>.>.>.>.U.4 c E E U.U.U.U.U.U.U.U.",
"U.U.U.U.U.U.U.[ >.>.>.U.U.c m E E U.U.U.U.U.U.U.U.",
"U.U.U.U.U.U.U.7 s _ U.U.U.U.t 3 3 U.U.U.U.U.U.U.U.",
"U.U.U.U.U.U.U.+ + U.U.U.U.U.. + . U.U.U.U.U.U.U.U.",
"U.U.U.U.U.U.U.5 3 U.U.U.U.U.: : : U.U.U.U.U.U.U.U.",
"U.U.U.U.U.U.U.5 5 U.U.U.U.U.: : : : U.U.U.U.U.U.U."
};
