/* XPM */
static char *result[] = {
/* columns rows colors chars-per-pixel */
"25 40 166 2 ",
"   c #2E1A23",
".  c #311C25",
"X  c #361F29",
"o  c #312127",
"O  c #372029",
"+  c #3C232B",
"@  c #382D2F",
"#  c #252F32",
"$  c #2E3332",
"%  c #323435",
"&  c #393333",
"*  c #33363B",
"=  c #393B36",
"-  c #42282D",
";  c #583629",
":  c #402630",
">  c #452933",
",  c #4E2E34",
"<  c #493638",
"1  c #553334",
"2  c #5B3535",
"3  c #5D3C36",
"4  c #543538",
"5  c #5F3B3C",
"6  c #543836",
"7  c #683F2F",
"8  c #643A2C",
"9  c #643A36",
"0  c #613E3C",
"q  c #6A3F37",
"w  c #723F30",
"e  c #41443D",
"r  c #6D4237",
"t  c #6C453D",
"y  c #64423C",
"u  c #794634",
"i  c #734639",
"p  c #754A3A",
"a  c #7A4B3B",
"s  c #78503F",
"d  c #284146",
"f  c #29565C",
"g  c #2D5E62",
"h  c #34696A",
"j  c #3E7A74",
"k  c #4F4F47",
"l  c #424042",
"z  c #595A4D",
"x  c #515246",
"c  c #41595A",
"v  c #6E4B43",
"b  c #644E47",
"n  c #744D42",
"m  c #734D49",
"M  c #66534B",
"N  c #775044",
"B  c #7C5344",
"V  c #77514B",
"C  c #775751",
"Z  c #41605C",
"A  c #5F6053",
"S  c #6C6356",
"D  c #66675A",
"F  c #4D6A64",
"G  c #597267",
"H  c #497C74",
"J  c #467C74",
"K  c #567C72",
"L  c #677362",
"P  c #637967",
"I  c #727B66",
"U  c #864D3B",
"Y  c #82523C",
"T  c #89563D",
"R  c #8A583D",
"E  c #825645",
"W  c #88574A",
"Q  c #8D5F4A",
"!  c #875549",
"~  c #805F57",
"^  c #A55A46",
"/  c #A35F48",
"(  c #A95E4A",
")  c #8F604B",
"_  c #94644C",
"`  c #99654D",
"'  c #9B694E",
"]  c #8C6A53",
"[  c #826F58",
"{  c #956F5C",
"}  c #917052",
"|  c #A26148",
" . c #A16A4F",
".. c #A46D52",
"X. c #B66C52",
"o. c #B96C52",
"O. c #AB7453",
"+. c #AD735C",
"@. c #A57855",
"#. c #B47C56",
"$. c #B87E57",
"%. c #B17459",
"&. c #C37659",
"*. c #C57A5C",
"=. c #C67E60",
"-. c #428179",
";. c #47887D",
":. c #498C7F",
">. c #A78059",
",. c #BD8259",
"<. c #808274",
"1. c #969577",
"2. c #BF8164",
"3. c #B18A62",
"4. c #AC9B6D",
"5. c #A98C72",
"6. c #B18A74",
"7. c #A69177",
"8. c #A9987F",
"9. c #95A17A",
"0. c #B7AE76",
"q. c #BDB378",
"w. c #C68465",
"e. c #C88766",
"r. c #C48968",
"t. c #D58C6A",
"y. c #D7906C",
"u. c #DB926E",
"i. c #DE9672",
"p. c #DF9974",
"a. c #D09F7E",
"s. c #D09272",
"d. c #E39C77",
"f. c #4B8E81",
"g. c #4E9282",
"h. c #509584",
"j. c #539A87",
"k. c #559D88",
"l. c #629B83",
"z. c #5AA38C",
"x. c #56A089",
"c. c #5FAB90",
"v. c #6CAD8D",
"b. c #71A686",
"n. c #61AD91",
"m. c #69B896",
"M. c #6CBD99",
"N. c #66B495",
"B. c #79B892",
"V. c #6EC09B",
"C. c #8DA781",
"Z. c #84BD97",
"A. c #B8A085",
"S. c #DEA480",
"D. c #ECAD85",
"F. c #EDB38A",
"G. c #F1B68D",
"H. c #EFBB93",
"J. c #F4BD93",
"K. c #88C39C",
"L. c #F7C297",
"P. c #FCCA9E",
"I. c #F7C59B",
"U. c #FDCDA1",
"Y. c #FFD0A3",
"T. c None",
/* pixels */
"T.T.T.T.T.T.T.T.T.T.T.T.T.T.T.T.T.T.T.T.T.T.T.T.T.",
"T.T.T.T.T.T.T.T.T.T.T.T.T.T.T.T.T.T.T.T.T.T.T.T.T.",
"T.T.T.T.9 T.T.T.T.T.T.T.T.T.R R T q a T R R T.T.T.",
"T.T.T.T.9 T.T.T.T.T.T.T.T.R R R T a Y R R R T.T.T.",
"T.T.T.T.1 , T.T.9 9 9 i R R R R R R Y Y R R T.T.T.",
"T.T.T.T.> > > , 9 7 u T R R R R R R p r R T.T.T.T.",
"T.T.T.T.> > 1 9 2 s R R R R R R T R i r R T.T.T.T.",
"T.T.T.T.2 2 r Y T T R Y q 9 a a 9 9 p T T.T.T.T.T.",
"T.T.T.T., 2 9 i T R X.e.w.=.w.e.2.2.%.T.T.T.T.T.T.",
"T.T.T.T.1 2 q i i .. .E E E E ' p.` 7 T.T.T.T.T.T.",
"T.T.T.T.4 4 9 i 9 2.%.u u u w U =.T 8 T.T.T.T.T.T.",
"T.T.T.T.C m t 9 a e.*.| | *.o.^ ^ / T.T.T.T.T.T.T.",
"T.T.T.T.Y.F.+.i &.i. .; ; r.=.^ ^ 9 T.T.T.T.T.T.T.",
"T.T.T.T.Y.U.5.5 &.y.F.U.U.U.s.^ ( F.T.T.T.T.z D <.",
"T.T.T.T.T.V W X.&.F.U.Y.Y.Y.I.H.H.P.T.T.T.z z z A ",
"T.T.T.T.T.T.+.u.u.J.U.U.Y.G.D.G.Y.Y.5.= # e x z T.",
"T.T.T.T.T.T.T.d.p.D.L.Y.U.J.G.J.U.6.b % % % e T.T.",
"T.T.T.T.T.T.T.T.7.7.A.A.d.a.D.a.7.v - o & % T.T.T.",
"T.T.k.f.f.c.x.f.j -.h c W W E v % n 3 @ % = T.T.T.",
"T.V.V.V.V.h.k.N.-.-.-.j f g d & t E E S -.T.T.T.T.",
"T.V.V.V.V.M.z.-.-.-.k.m.M.m.P N #.$.' S -.-.T.T.T.",
"V.V.V.V.V.V.z.-.-.z.m.V.V.L ] O.,.,.1.l.-.-.-.T.T.",
"V.M.V.V.V.V.z.-.-.g.c.v.L ] O.,.,.9.B.n.-.j -.-.T.",
"z.z.k.c.M.V.j.-.-.F G I ) #.,.3.9.B.M.z.h h h h T.",
"h.h.h.j.M.T.T.J G M N ) ,.,.3.9.V.V.N.h.g g g g T.",
"Z.Z.K.K.T.T.T.T.n B _ #.#.3.C.V.V.V.x.H K K K K T.",
"d.J.U.Y.T.T.T.:   t E E B b.M.M.M.M.T.T.X.o.o.o.T.",
"U.U.Y.Y.Y.C + .   Z H H J ;.;.;.;.;.1.t.o.t.i.i.T.",
"Y.Y.Y.P.F.v . .   l l * * [ 4.q.0.k { d.t.*.t.d.T.",
"T.Y.Y.U.T.,     T.y N a 3 ) @.@.} 6 B d.d.t.y.T.T.",
"T.T.Y.T.T.T.  T.T.' O.$.' ' Q n 4 4 T.T.d.d.T.T.T.",
"T.T.T.T.T.T.T.T.T.,.,.,.,.,.` v 0 0 T.T.T.T.T.T.T.",
"T.T.T.T.T.T.T.T.,.,.,.,.,.$.E 5 B E T.T.T.T.T.T.T.",
"T.T.T.T.T.T.T.T.,.,.,.,.,._ t y E E T.T.T.T.T.T.T.",
"T.T.T.T.T.T.T.,.,.,.,.,.$.n v n E E T.T.T.T.T.T.T.",
"T.T.T.T.T.T.T.' ,.,.O.` T.5 v E E T.T.T.T.T.T.T.T.",
"T.T.T.T.T.T.T.3 p ' T.T.T.T.1 6 1 T.T.T.T.T.T.T.T.",
"T.T.T.T.T.T.T.+ + T.T.T.T.T.X O O T.T.T.T.T.T.T.T.",
"T.T.T.T.T.T.T.4 4 T.T.T.T.T.> > > T.T.T.T.T.T.T.T.",
"T.T.T.T.T.T.T.4 4 T.T.T.T.T.> > > > T.T.T.T.T.T.T."
};
