/* XPM */
static char *result[] = {
/* columns rows colors chars-per-pixel */
"25 40 166 2 ",
"   c #2E1A23",
".  c #311C25",
"X  c #361F29",
"o  c #312127",
"O  c #372029",
"+  c #3C232B",
"@  c #382D2F",
"#  c #252F32",
"$  c #2E3332",
"%  c #323435",
"&  c #393333",
"*  c #33363B",
"=  c #393B36",
"-  c #42282D",
";  c #583629",
":  c #402630",
">  c #452933",
",  c #4E2E34",
"<  c #463C3F",
"1  c #553334",
"2  c #5C3635",
"3  c #5D3C36",
"4  c #543538",
"5  c #5F3B3C",
"6  c #543836",
"7  c #683F2F",
"8  c #643A2C",
"9  c #643B36",
"0  c #613E3C",
"q  c #723F30",
"w  c #41443D",
"e  c #6D4237",
"r  c #6C443C",
"t  c #64423C",
"y  c #794634",
"u  c #734639",
"i  c #744A3B",
"p  c #7C4C3B",
"a  c #78503F",
"s  c #284146",
"d  c #29575D",
"f  c #29585E",
"g  c #366D6C",
"h  c #38706E",
"j  c #3E7A74",
"k  c #4F4F47",
"l  c #424042",
"z  c #595A4D",
"x  c #515246",
"c  c #41595A",
"v  c #6C4B44",
"b  c #644E47",
"n  c #744D42",
"m  c #734D49",
"M  c #66534B",
"N  c #775044",
"B  c #7C5344",
"V  c #71514D",
"C  c #775751",
"Z  c #41605C",
"A  c #5F6053",
"S  c #6C6356",
"D  c #66675A",
"F  c #557269",
"G  c #497B73",
"H  c #467C74",
"J  c #677362",
"K  c #637967",
"L  c #727B66",
"P  c #864D3B",
"I  c #84533C",
"U  c #89563D",
"Y  c #8A583D",
"T  c #825645",
"R  c #88574A",
"E  c #8D5F4A",
"W  c #875549",
"Q  c #A55A46",
"!  c #A35F48",
"~  c #A95E4A",
"^  c #8F604B",
"/  c #94644C",
"(  c #99654D",
")  c #9B694E",
"_  c #886757",
"`  c #8C6A53",
"'  c #826F58",
"]  c #976555",
"[  c #917052",
"{  c #A26148",
"}  c #A16A4F",
"|  c #A36C54",
" . c #A86E55",
".. c #BA6D53",
"X. c #B56E54",
"o. c #AB7453",
"O. c #AD735C",
"+. c #A57855",
"@. c #B47C56",
"#. c #B87E57",
"$. c #B07356",
"%. c #C37659",
"&. c #C5795B",
"*. c #C67E60",
"=. c #428179",
"-. c #47887D",
";. c #498B7F",
":. c #5E8271",
">. c #69836E",
",. c #A78059",
"<. c #BD8259",
"1. c #808274",
"2. c #939773",
"3. c #BF8164",
"4. c #B18A62",
"5. c #AC9B6D",
"6. c #A98C72",
"7. c #B18A74",
"8. c #A69177",
"9. c #A9987F",
"0. c #95A17A",
"q. c #B7AE76",
"w. c #BDB378",
"e. c #C68465",
"r. c #CB8464",
"t. c #C48968",
"y. c #D28867",
"u. c #D68E6B",
"i. c #D48A69",
"p. c #DA916D",
"a. c #D09F7E",
"s. c #D99572",
"d. c #E39C76",
"f. c #D4A07B",
"g. c #E6A37B",
"h. c #4B8F81",
"j. c #4E9283",
"k. c #539987",
"l. c #559C88",
"z. c #539783",
"x. c #629B83",
"c. c #5BA48C",
"v. c #5FAB90",
"b. c #6CAD8D",
"n. c #71A686",
"m. c #61AD91",
"M. c #69B896",
"N. c #6CBD9A",
"B. c #76BA95",
"V. c #6EC09B",
"C. c #71C09B",
"Z. c #8DA781",
"A. c #B8A085",
"S. c #DEA480",
"D. c #EDAE85",
"F. c #EDB38A",
"G. c #F1B68C",
"H. c #EABD94",
"J. c #F4BD94",
"K. c #F7C297",
"L. c #FCCB9F",
"P. c #F7C59B",
"I. c #EDCEA2",
"U. c #FCCDA1",
"Y. c #FFD0A3",
"T. c None",
/* pixels */
"T.T.T.T.T.T.T.T.T.T.T.T.T.T.T.T.T.T.T.T.T.T.T.T.T.",
"T.T.T.T.T.T.T.T.T.T.T.T.T.T.T.T.T.T.T.T.T.T.T.T.T.",
"T.T.T.T.T.T.T.T.T.T.T.T.T.T.T.Y Y T.T.Y Y Y T.T.T.",
"T.T.T.T.T.T.T.T.T.T.T.T.T.T.Y Y Y e p Y Y Y T.T.T.",
"T.T.T.T.9 T.T.T.T.9 9 e e I Y Y Y i p Y Y Y T.T.T.",
"T.T.T.T.T.> > , 9 9 p U Y Y Y Y Y Y U U Y Y T.T.T.",
"T.T.T.T.> > 1 9 9 p Y Y U U U U U Y u e Y T.T.T.T.",
"T.T.T.T.2 2 e I I Y Y I 9 9 p I 9 9 9 9 T.T.T.T.T.",
"T.T.T.T., 2 9 q W Y o.r.e.*.3.t.e.3. .T.T.T.T.T.T.",
"T.T.T.T.1 2 9 p u  .} T I T T ) s.( 9 T.T.T.T.T.T.",
"T.T.T.T.1 1 0 u 9 3.X.y y y 7 P &.U 8 T.T.T.T.T.T.",
"T.T.T.T.C m r 9 p e.e.{ { &...Q Q { T.T.T.T.T.T.T.",
"T.T.T.T.Y.F. .u %.p.| ; ; t.*.Q Q 9 T.T.T.T.T.T.T.",
"T.T.T.T.Y.U.7.0 %.p.F.U.U.L.s.Q ~ F.T.T.T.T.z D 1.",
"T.T.T.T.T.V R X.%.F.L.Y.Y.U.P.J.J.L.T.T.T.z z z A ",
"T.T.T.T.T.T.O.p.p.J.U.Y.Y.G.D.G.Y.Y.6.= # w x z T.",
"T.T.T.T.T.T.T.s.s.D.K.Y.Y.J.G.J.U.7.b @ % $ w T.T.",
"T.T.T.T.T.T.T.T.8.8.A.A.S.S.S.f.8.b - o & % T.T.T.",
"T.T.T.T.j.c.c.h.j =.h c R R W r % n 3 @ * = T.T.T.",
"T.T.T.V.V.k.c.m.=.=.=.j d f s & r T T S =.T.T.T.T.",
"T.V.V.V.V.N.c.=.=.=.l.M.M.M.K N @.@.( S =.H T.T.T.",
"T.V.V.V.V.V.c.=.=.c.M.V.V.J ` o.<.<.2.x.=.=.T.T.T.",
"V.V.V.V.V.V.c.=.=.m.V.b.J [ +.<.<.0.B.m.=.=.j T.T.",
"V.V.V.V.V.V.k.=.=.:.>.L ^ @.<.4.0.B.C.m.=.=.=.=.T.",
"v.v.m.m.N.T.T.H F M N ^ <.<.4.0.V.V.C.c.h h h h T.",
"h.h.;.j.N.T.T.T.N B ( @.o.4.0.C.V.N.N.k.d d f f T.",
"N.N.C.C.T.T.T.: . r B T B n.N.N.N.V.l.H =.=.H =.T.",
"a.H.I.I.T.> + .   Z G G =.-.;.-.-.-.-.T. . . . .T.",
"K.L.Y.Y.Y.v .     < l * * ' 5.w.q.k _ y...y.u.u.T.",
"Y.Y.Y.L.G.v     T.t N a 3 ^ +.+.[ 6 ] s.y.r.p.d.T.",
"Y.Y.Y.L.g.r   T.T.) o.@.) ) E n 4 4 ] d.d.r.u.T.T.",
"T.T.Y.Y.T.T.T.T.T.<.<.<.<.<.( n 0 0 T.T.d.d.T.T.T.",
"T.T.T.T.T.T.T.T.<.<.<.<.<.@.T 0 B T T.T.T.T.T.T.T.",
"T.T.T.T.T.T.T.T.<.<.<.<.<./ r 0 T T T.T.T.T.T.T.T.",
"T.T.T.T.T.T.T.<.<.<.<.<.<.n v B T T T.T.T.T.T.T.T.",
"T.T.T.T.T.T.T.) <.<.o.( T.5 r T T T.T.T.T.T.T.T.T.",
"T.T.T.T.T.T.T.3 i ) T.T.T.T.4 4 4 T.T.T.T.T.T.T.T.",
"T.T.T.T.T.T.T.+ + T.T.T.T.T.O O O T.T.T.T.T.T.T.T.",
"T.T.T.T.T.T.T.4 4 T.T.T.T.T.> > > T.T.T.T.T.T.T.T.",
"T.T.T.T.T.T.T.4 4 T.T.T.T.T.> > > > T.T.T.T.T.T.T."
};
