/* XPM */
static char *result[] = {
/* columns rows colors chars-per-pixel */
"25 40 167 2 ",
"   c #2E1A23",
".  c #311C25",
"X  c #361F29",
"o  c #312127",
"O  c #372029",
"+  c #3C232B",
"@  c #382D2F",
"#  c #252F32",
"$  c #2E3332",
"%  c #323435",
"&  c #393333",
"*  c #33363B",
"=  c #393B36",
"-  c #42282D",
";  c #583629",
":  c #402630",
">  c #452933",
",  c #4E2E34",
"<  c #463C3F",
"1  c #553334",
"2  c #5C3635",
"3  c #5D3C36",
"4  c #543538",
"5  c #5F3B3C",
"6  c #543836",
"7  c #683F2F",
"8  c #643A2C",
"9  c #643A36",
"0  c #613E3C",
"q  c #683E36",
"w  c #723F30",
"e  c #41443D",
"r  c #6D4237",
"t  c #6B453D",
"y  c #64423C",
"u  c #794634",
"i  c #734539",
"p  c #744A3B",
"a  c #7D4D3C",
"s  c #78503F",
"d  c #284146",
"f  c #29575D",
"g  c #29585E",
"h  c #366D6C",
"j  c #38706E",
"k  c #3E7A74",
"l  c #4F4F47",
"z  c #424042",
"x  c #595A4D",
"c  c #515246",
"v  c #41595A",
"b  c #6C4B44",
"n  c #644E47",
"m  c #744D42",
"M  c #734D49",
"N  c #66534B",
"B  c #775044",
"V  c #7C5344",
"C  c #71514D",
"Z  c #775751",
"A  c #41605C",
"S  c #5F6053",
"D  c #6C6356",
"F  c #66675A",
"G  c #557269",
"H  c #497B73",
"J  c #467C74",
"K  c #677362",
"L  c #637967",
"P  c #727B66",
"I  c #864D3B",
"U  c #84533C",
"Y  c #89563D",
"T  c #8A583D",
"R  c #825645",
"E  c #88574A",
"W  c #8D5F4A",
"Q  c #875549",
"!  c #A55A46",
"~  c #A35F48",
"^  c #A95E4A",
"/  c #8F604B",
"(  c #94644C",
")  c #99654D",
"_  c #9B694E",
"`  c #886757",
"'  c #8C6A53",
"]  c #826F58",
"[  c #976555",
"{  c #917052",
"}  c #A26148",
"|  c #A16A4F",
" . c #A36C54",
".. c #A86E55",
"X. c #BA6D53",
"o. c #B56E54",
"O. c #AB7453",
"+. c #AD735C",
"@. c #A57855",
"#. c #B47C56",
"$. c #B87E57",
"%. c #B07356",
"&. c #C37659",
"*. c #C5795B",
"=. c #C67E60",
"-. c #428179",
";. c #47887D",
":. c #498B7F",
">. c #5E8271",
",. c #69836E",
"<. c #A78059",
"1. c #BD8259",
"2. c #808274",
"3. c #939773",
"4. c #BF8164",
"5. c #B18A62",
"6. c #AC9B6D",
"7. c #A98C72",
"8. c #B18A74",
"9. c #A69177",
"0. c #A9987F",
"q. c #95A17A",
"w. c #B7AE76",
"e. c #BDB378",
"r. c #C68465",
"t. c #CB8464",
"y. c #C48968",
"u. c #D28867",
"i. c #D68E6B",
"p. c #D48A69",
"a. c #DA916D",
"s. c #D09F7E",
"d. c #D99572",
"f. c #E39C76",
"g. c #D4A07B",
"h. c #E6A37B",
"j. c #4B8F81",
"k. c #4E9283",
"l. c #539987",
"z. c #559C88",
"x. c #539783",
"c. c #629B83",
"v. c #5BA48C",
"b. c #5FAB90",
"n. c #6CAD8D",
"m. c #71A686",
"M. c #61AD91",
"N. c #69B896",
"B. c #6CBD9A",
"V. c #76BA95",
"C. c #6EC09B",
"Z. c #71C09B",
"A. c #8DA781",
"S. c #B8A085",
"D. c #DEA480",
"F. c #EDAE85",
"G. c #EDB38A",
"H. c #F1B68C",
"J. c #EABD94",
"K. c #F4BD94",
"L. c #F7C297",
"P. c #FCCB9F",
"I. c #F7C59B",
"U. c #EDCEA2",
"Y. c #FCCDA1",
"T. c #FFD0A3",
"R. c None",
/* pixels */
"R.R.R.R.R.R.R.R.R.R.R.R.R.R.R.R.R.R.R.R.R.R.R.R.R.",
"R.R.R.R.R.R.R.R.R.R.R.R.R.R.R.R.R.R.R.R.R.R.R.R.R.",
"R.R.R.R.R.R.R.R.R.R.R.R.R.R.R.T T R.R.T T T R.R.R.",
"R.R.R.R.R.R.R.R.R.R.R.R.R.R.T T T r a T T T R.R.R.",
"R.R.R.R.9 R.R.R.R.9 9 q r U T T T p a T T T R.R.R.",
"R.R.R.R.R.> > , 3 9 q r T T T T T T U U T T R.R.R.",
"R.R.R.R.> > 1 9 9 I T T Y Y Y Y Y Y i r T R.R.R.R.",
"R.R.R.R.2 2 r U U Y T s q q a U q q 9 9 R.R.R.R.R.",
"R.R.R.R., 2 9 w Q T ..t.=.4.4.y.4.r...R.R.R.R.R.R.",
"R.R.R.R., 9 q a i ..| Y Y R R _ d.) 9 R.R.R.R.R.R.",
"R.R.R.R.1 1 0 i 9 4.%.u u u w a *.Y 8 R.R.R.R.R.R.",
"R.R.R.R.Z M t 9 a r.r.} ~ *.X.! ! } R.R.R.R.R.R.R.",
"R.R.R.R.T.G...i &.a. .; ; y.=.! ! 9 R.R.R.R.R.R.R.",
"R.R.R.R.T.Y.8.0 &.a.G.Y.Y.Y.d.! ^ G.R.R.R.R.x F 2.",
"R.R.R.R.R.C E o.&.G.Y.T.Y.T.I.K.J.P.R.R.R.x x x F ",
"R.R.R.R.R.R.+.a.a.K.Y.Y.T.H.F.H.T.T.7.= # e c x R.",
"R.R.R.R.R.R.R.f.f.F.L.T.T.K.H.K.Y.8.n @ % $ e R.R.",
"R.R.R.R.R.R.R.R.9.9.0.S.D.D.D.g.9.b - o & % R.R.R.",
"R.R.R.R.j.v.v.;.-.-.h v E E R t % B 3 @ * = R.R.R.",
"R.R.R.C.C.l.v.M.-.-.-.k f g d = t R R D -.R.R.R.R.",
"R.C.C.C.C.B.v.-.-.k z.B.N.N.L B #.1.) D J -.R.R.R.",
"R.C.C.C.C.C.v.-.-.v.B.C.C.K ' %.1.1.3.c.-.-.R.R.R.",
"C.C.C.C.C.C.v.-.-.b.B.n.K ' %.1.1.q.V.M.-.-.-.R.R.",
"C.C.C.C.C.C.l.-.-.>.,.P / #.1.5.q.V.B.M.k -.-.-.R.",
"M.b.b.M.B.R.R.J G N B / 1.1.5.q.C.C.C.v.j j j j R.",
":.:.j.k.B.R.R.R.m V ) #.#.5.A.B.C.B.B.l.g g g g R.",
"B.Z.Z.Z.R.R.R.:   t R R V m.B.B.B.B.l.J -.J J -.R.",
"g.J.U.U.R.> + .   A J H J ;.:.;.;.:.j.R.........R.",
"L.P.T.T.T.b .     < z * * ] 6.e.w.l ` u.X.u.p.i.R.",
"T.T.T.P.H.b     R.y B s 3 / @.@.{ 6 [ d.u.t.a.f.R.",
"T.T.T.P.h.t   R.R._ O.#._ _ W m 4 4 [ f.f.t.i.R.R.",
"R.R.T.T.R.R.R.R.R.1.1.1.1.1.( m 0 0 R.R.f.f.R.R.R.",
"R.R.R.R.R.R.R.R.1.1.1.1.1.#.R 0 V R R.R.R.R.R.R.R.",
"R.R.R.R.R.R.R.R.1.1.1.1.1.( t 0 R R R.R.R.R.R.R.R.",
"R.R.R.R.R.R.R.1.1.1.1.1.1.m b B R R R.R.R.R.R.R.R.",
"R.R.R.R.R.R.R._ 1.1.O.) R.5 t R R R.R.R.R.R.R.R.R.",
"R.R.R.R.R.R.R.3 p _ R.R.R.R.1 6 1 R.R.R.R.R.R.R.R.",
"R.R.R.R.R.R.R.+ + R.R.R.R.R.O O O R.R.R.R.R.R.R.R.",
"R.R.R.R.R.R.R.4 4 R.R.R.R.R.> > > R.R.R.R.R.R.R.R.",
"R.R.R.R.R.R.R.4 4 R.R.R.R.R.> > > > R.R.R.R.R.R.R."
};
