/* XPM */
static char *result[] = {
/* columns rows colors chars-per-pixel */
"25 40 163 2 ",
"   c #2E1A23",
".  c #361F29",
"X  c #301B24",
"o  c #32252C",
"O  c #3C242C",
"+  c #342C2D",
"@  c #242E31",
"#  c #2C3333",
"$  c #353935",
"%  c #363E3B",
"&  c #48261E",
"*  c #542F24",
"=  c #412730",
"-  c #452933",
";  c #4D2D34",
":  c #463837",
">  c #483438",
",  c #4A3837",
"<  c #553535",
"1  c #5C3635",
"2  c #543538",
"3  c #593C39",
"4  c #5B3B35",
"5  c #603735",
"6  c #623935",
"7  c #6A3F37",
"8  c #673F3B",
"9  c #3F413A",
"0  c #51453D",
"q  c #66423D",
"w  c #6C443C",
"e  c #6D483F",
"r  c #6C4137",
"t  c #794634",
"y  c #724538",
"u  c #744A3B",
"i  c #7B4D3A",
"p  c #714534",
"a  c #3F4F46",
"s  c #3F5E57",
"d  c #3D5551",
"f  c #2D5E62",
"g  c #3D6361",
"h  c #336869",
"j  c #38726F",
"k  c #3A7571",
"l  c #514641",
"z  c #505045",
"x  c #58594C",
"c  c #5B5447",
"v  c #634A44",
"b  c #6C4841",
"n  c #734C42",
"m  c #794A41",
"M  c #62544F",
"N  c #6D504A",
"B  c #7D5345",
"V  c #7B5A4A",
"C  c #755043",
"Z  c #665D51",
"A  c #5B675D",
"S  c #6B6255",
"D  c #686659",
"F  c #656659",
"G  c #706959",
"H  c #756252",
"J  c #417C75",
"K  c #427F79",
"L  c #567C72",
"P  c #6A7463",
"I  c #787967",
"U  c #824A38",
"Y  c #84533C",
"T  c #89563D",
"R  c #8A583D",
"E  c #815646",
"W  c #855947",
"Q  c #86584E",
"!  c #8B5D49",
"~  c #885847",
"^  c #975541",
"/  c #915E44",
"(  c #995C49",
")  c #A55A46",
"_  c #94644C",
"`  c #99654C",
"'  c #9C6A4E",
"]  c #8A6753",
"[  c #986350",
"{  c #926B52",
"}  c #986C50",
"|  c #9F6B58",
" . c #A36249",
".. c #A26E51",
"X. c #B76B52",
"o. c #B96C52",
"O. c #A67253",
"+. c #B37B56",
"@. c #B87E57",
"#. c #B47858",
"$. c #BB7B5F",
"%. c #B77357",
"&. c #807A6D",
"*. c #A37664",
"=. c #AB7962",
"-. c #C37759",
";. c #C47C5D",
":. c #CA7D5D",
">. c #C17E62",
",. c #428079",
"<. c #498B7F",
"1. c #508378",
"2. c #738676",
"3. c #BD8259",
"4. c #9A936F",
"5. c #AC8F67",
"6. c #BD8265",
"7. c #A3966E",
"8. c #B08973",
"9. c #C38063",
"0. c #CC8768",
"q. c #D58C6A",
"w. c #D7906C",
"e. c #DB926E",
"r. c #DE9672",
"t. c #DF9974",
"y. c #E29C76",
"u. c #C2A16B",
"i. c #D9A17C",
"p. c #CFB775",
"a. c #D6BD78",
"s. c #E6A27C",
"d. c #4C8E80",
"f. c #4E9282",
"g. c #509584",
"h. c #539A87",
"j. c #559D89",
"k. c #5AA38C",
"l. c #5DA88E",
"z. c #6CA789",
"x. c #71AF8D",
"c. c #7FB28D",
"v. c #61AC91",
"b. c #66B595",
"n. c #6DBE99",
"m. c #6DB694",
"M. c #72BE99",
"N. c #6EC09B",
"B. c #8EA780",
"V. c #83AF89",
"C. c #82B08A",
"Z. c #84BD97",
"A. c #DBA986",
"S. c #EBAB83",
"D. c #F0B98F",
"F. c #F4BD92",
"G. c #88C39C",
"H. c #F7C196",
"J. c #FBCA9E",
"K. c #FAC79B",
"L. c #FECEA1",
"P. c #FFD0A3",
"I. c None",
/* pixels */
"I.I.I.I.I.I.I.I.I.I.I.I.I.I.I.I.I.I.I.I.I.I.I.I.I.",
"I.I.I.I.I.I.I.I.I.6 6 6 6 6 u R T 7 i R R I.I.I.I.",
"I.I.I.I.1 ; - ; 5 5 5 8 i i Y R R 7 i T R R I.I.I.",
"I.I.I.I.< ; ; < 5 p y i T R T R T i i T R R I.I.I.",
"I.I.I.I.; ; 1 r r Y R T i U Y Y i i i Y T T I.I.I.",
"I.I.I.I.1 5 y Y R R / / m u ~ / m m w r T I.I.I.I.",
"I.I.I.I.- < 5 7 Y R #.t.y.t.y.y.y.y.` 1 I.I.I.I.I.",
"I.I.I.I.1 6 y U 8 $.` * * * * i t.p & & I.I.I.I.I.",
"I.I.I.I.; ; 3 7 6 >.>.)  . .^ ^ o. .T I.I.I.I.I.I.",
"I.I.I.I.8.*.Q 7 ( q.#.t t ;.%.) ) U I.I.I.I.I.I.I.",
"I.I.I.I.P.F.=.8 -.r.6.] { i.9.) ) { I.I.I.I.I.I.I.",
"I.I.I.I.P.A.*.m -.y.F.P.L.L.A.$.>.F.I.I.I.I.I.I.I.",
"I.I.I.I.I.- E :.>.D.P.P.P.L.J.L.L.P.I.I.I.I.x F I ",
"I.I.I.I.I.I.I.y.y.F.P.P.L.S.y.S.P.P.I.I.I.c x x x ",
"I.I.I.I.I.I.I.I.y.s.F.L.L.J.K.J.P.I.c $ @ % z x I.",
"I.I.I.I.I.I.,.1.2.2.2.&.9.9.9.=.S V , + $ # a I.I.",
"I.I.I.I.I.h.f.,.,.,.j A M M v 0 : C e l x 9 I.I.I.",
"I.I.I.I.h.k.k.f.,.,.<.<.J J d , W E E S J d I.I.I.",
"I.I.N.N.N.k.k.k.,.<.l.N.M.z.I ! 3.{ ] P ,.I.I.I.I.",
"I.N.N.N.N.n.k.,.,.v.N.M.m.Z _ 3.3.3.B.v.,.,.I.I.I.",
"I.N.N.N.N.N.k.,.,.v.N.l.b O.3.3.3.c.M.v.K K I.I.I.",
"N.N.N.N.N.N.k.,.,.A F H O.@.3.5.c.n.n.v.,.,.,.I.I.",
"n.n.N.N.N.N.I.I.D ] ` ..3.3.7.C.n.N.N.v.,.k ,.,.I.",
"k.k.k.l.N.I.I.I.E ' ..' ..4.C.N.N.N.v.f.h h h h I.",
"g.g.g.h.n.I.I.I.I.Z S G I x.N.N.N.M.k.k f f f f I.",
"Z.Z.G.G.I.I.= O   g ,.d.b.b.b.b.b.b.I.I.L L L L I.",
"y.F.P.P.I.- O   X g J J J ,.,.,.,.K I.I.X.o.o.o.I.",
"J.L.P.P.P.N X   X , $ o o { u.a.p.0 ] q.o.q.r.r.I.",
"P.P.L.L.S.b     I.e ~ ! e ~ } { V 2 ..t.q.>.q.y.I.",
"I.P.L.L.I.I.I.I.I...#.@....._ n 2 2 Q y.y.q.e.I.I.",
"I.I.P.I.I.I.I.I.I.3.3.3.3.3._ b b b I.I.y.y.I.I.I.",
"I.I.I.I.I.I.I.I.3.3.3.3.3.#.E 3 B E I.I.I.I.I.I.I.",
"I.I.I.I.I.I.I.I.3.3.3.3.3.! b 8 E E I.I.I.I.I.I.I.",
"I.I.I.I.I.I.I.! 3.3.3.3.3.u b E E E I.I.I.I.I.I.I.",
"I.I.I.I.I.I.I.@.3.3.3.3.I.3 b B E I.I.I.I.I.I.I.I.",
"I.I.I.I.I.I.I.} 3.3.3.I.I.n m E E I.I.I.I.I.I.I.I.",
"I.I.I.I.I.I.I.4 u ' I.I.I.I.q < < I.I.I.I.I.I.I.I.",
"I.I.I.I.I.I.I.O O I.I.I.I.I.. O o I.I.I.I.I.I.I.I.",
"I.I.I.I.I.I.I.2 2 I.I.I.I.I.- = - I.I.I.I.I.I.I.I.",
"I.I.I.I.I.I.I.2 2 I.I.I.I.I.- - - - I.I.I.I.I.I.I."
};
