/* XPM */
static char *result[] = {
/* columns rows colors chars-per-pixel */
"25 40 166 2 ",
"   c #2E1A23",
".  c #301C24",
"X  c #361F29",
"o  c #36242A",
"O  c #3B232B",
"+  c #34292B",
"@  c #242E31",
"#  c #293132",
"$  c #3A3C36",
"%  c #323838",
"&  c #353834",
"*  c #402017",
"=  c #49281E",
"-  c #42272F",
";  c #542F24",
":  c #452933",
">  c #4C2D33",
",  c #463837",
"<  c #4C3838",
"1  c #553535",
"2  c #5C3635",
"3  c #5A3A35",
"4  c #543538",
"5  c #593C3A",
"6  c #543C34",
"7  c #623935",
"8  c #6A3F37",
"9  c #653C39",
"0  c #3D443E",
"q  c #4F403E",
"w  c #6B443D",
"e  c #794634",
"r  c #724538",
"t  c #744A3B",
"y  c #7C4D3A",
"u  c #714534",
"i  c #384F4F",
"p  c #3E5855",
"a  c #2F6164",
"s  c #326667",
"d  c #3E6E6A",
"f  c #3E6363",
"g  c #3A7571",
"h  c #4E4F44",
"j  c #5B4F48",
"k  c #58594C",
"l  c #56574A",
"z  c #545C58",
"x  c #634A44",
"c  c #6A4A42",
"v  c #764E42",
"b  c #784A40",
"n  c #794F48",
"m  c #61544F",
"M  c #7B5244",
"N  c #735248",
"B  c #40605F",
"V  c #6B6356",
"C  c #666558",
"Z  c #756252",
"A  c #43736D",
"S  c #5C766B",
"D  c #417B71",
"F  c #417F79",
"G  c #517C71",
"H  c #67796C",
"J  c #6A7463",
"K  c #747766",
"L  c #824A38",
"P  c #85543C",
"I  c #88553C",
"U  c #8A583D",
"Y  c #815646",
"T  c #845847",
"R  c #855B49",
"E  c #8B5E49",
"W  c #845449",
"Q  c #975541",
"!  c #925E44",
"~  c #995C49",
"^  c #A55A46",
"/  c #8B604A",
"(  c #95644D",
")  c #99654C",
"_  c #9C6A4E",
"`  c #876654",
"'  c #926A52",
"]  c #936352",
"[  c #A36249",
"{  c #A16E50",
"}  c #A26D59",
"|  c #BA6D52",
" . c #B66C53",
".. c #A57152",
"X. c #AA7453",
"o. c #AF7855",
"O. c #BE7257",
"+. c #B87E57",
"@. c #BF7458",
"#. c #BB7B5F",
"$. c #B17656",
"%. c #807A6D",
"&. c #A37664",
"*. c #AB7962",
"=. c #C27659",
"-. c #CA7D5D",
";. c #C17C5D",
":. c #C17E62",
">. c #418079",
",. c #498B7F",
"<. c #488479",
"1. c #5F8C79",
"2. c #568577",
"3. c #738676",
"4. c #BC8259",
"5. c #958067",
"6. c #9A936F",
"7. c #AC8F67",
"8. c #BD8265",
"9. c #A3966E",
"0. c #B08973",
"q. c #C38063",
"w. c #CC8768",
"e. c #D58C6A",
"r. c #DA926E",
"t. c #DF9974",
"y. c #E29B76",
"u. c #D3A368",
"i. c #D9A17C",
"p. c #E8A67F",
"a. c #E6A27C",
"s. c #E0BC73",
"d. c #E8C377",
"f. c #4F9383",
"g. c #539986",
"h. c #569E89",
"j. c #629A82",
"k. c #5AA38B",
"l. c #5AA48C",
"z. c #5FAB90",
"x. c #6CA789",
"c. c #7FB28D",
"v. c #60AB90",
"b. c #66B595",
"n. c #6BB795",
"m. c #6DBE9A",
"M. c #72BE99",
"N. c #6EC09B",
"B. c #8EA780",
"V. c #83AF89",
"C. c #82B08A",
"Z. c #94B48F",
"A. c #9ABF98",
"S. c #92BD99",
"D. c #DBA986",
"F. c #EBAA82",
"G. c #F0B98F",
"H. c #E6BC95",
"J. c #F3BC92",
"K. c #9DC59E",
"L. c #F7C196",
"P. c #FBCA9E",
"I. c #FAC79B",
"U. c #FECEA2",
"Y. c #FFD0A3",
"T. c None",
/* pixels */
"T.T.T.T.T.T.T.T.T.T.T.T.T.T.T.T.T.T.T.T.T.T.T.T.T.",
"T.T.T.T.7 T.T.T.T.7 7 7 7 7 e U U 8 e U U U T.T.T.",
"T.T.T.T.T.> : > 7 7 7 8 e y P U I P P T U U T.T.T.",
"T.T.T.T.T.: > 1 2 u t e T U U U U U U U U U T.T.T.",
"T.T.T.T.> > 2 w r P I I y y y y y y y y y I T.T.T.",
"T.T.T.T.2 7 r P U U U ( b b b v b t w 7 7 T.T.T.T.",
"T.T.T.T.: 1 7 8 I T $.t.y.t.t.t.y.y.T.T.T.T.T.T.T.",
"T.T.T.T.2 7 r y 8 #.) ; ; ; ; y t.u = * T.T.T.T.T.",
"T.T.T.T.4 > 4 8 9 :.:.[ [ [ Q Q  .[ I T.T.T.T.T.T.",
"T.T.T.T.0.&.W 8 ~ w.$.e e #.@.^ ^ L T.T.T.T.T.T.T.",
"T.T.T.T.Y.J.*.8 =.r.8.' ' t.q.^ ^ ' T.T.T.T.T.T.T.",
"T.T.T.T.Y.D.&.b =.y.J.Y.U.U.D.#.:.J.T.T.T.T.k C K ",
"T.T.T.T.T.> W -.:.J.Y.Y.Y.U.I.U.Y.Y.H.T.T.l l k k ",
"T.T.T.T.T.T.T.y.y.J.Y.Y.Y.F.y.F.Y.Y.5.& @ $ h k T.",
"T.T.T.T.T.T.T.T.y.F.J.Y.Y.U.I.U.U.` , + $ # % T.T.",
"T.T.T.T.>.z.l.2.3.3.K %.q.q.:.*.V c > . + & T.T.T.",
"T.T.T.n.k.h.h.g.>.<.g B m m x q , v w h i 0 T.T.T.",
"T.T.T.N.N.f.h.b.>.<.,.,.g A p 6 Y Y Y V >.T.T.T.T.",
"T.T.N.N.N.h.h.z.>.,.l.N.N.x.K E 4.( ` J F T.T.T.T.",
"T.N.N.N.N.N.l.>.>.v.N.N.n.V ( 4.4.4.B.l.>.>.T.T.T.",
"T.N.N.N.N.N.l.>.>.>.l.x.x ..4.4.4.C.M.v.>.>.T.T.T.",
"N.N.N.N.N.m.b.T.>.z k Z ..4.4.7.c.M.m.z.F >.>.T.T.",
"g.g.g.h.m.m.T.T.C ' _ ..4.4.9.C.N.N.N.k.a a a a T.",
"h.h.h.k.k.T.T.> 3 E { { { 6.C.N.N.N.k.F s s s s T.",
"Z.A.K.S.,.T.- O   j V V V j.z.z.v.v.>.B H H H H T.",
"F.J.Y.Y.T.4 X     p A d d G 2.1.1.A S T. .O.O.=.T.",
"U.Y.Y.U.U.N       > - . . _ u.d.s.6 ] e.| r.y.y.T.",
"U.U.Y.P.F.c     T.M M v n T / R w 1 } y.r.=.e.y.T.",
"T.Y.U.U.T.T.T.T.T.Y ( o.o./ Y v 4 4 n y.y.r.r.T.T.",
"T.T.T.T.T.T.T.T.4.X.$.4.4.X.Y 9 4 w T.T.T.T.T.T.T.",
"T.T.T.T.T.T.T.T.4.4.4.4.4.4.R 5 c M T.T.T.T.T.T.T.",
"T.T.T.T.T.T.T.T.4.4.4.4.4...M w Y Y T.T.T.T.T.T.T.",
"T.T.T.T.T.T.T.( 4.4.4.4.4.w c Y Y Y T.T.T.T.T.T.T.",
"T.T.T.T.T.T.T.4.4.4.4.4.T.4 w Y Y T.T.T.T.T.T.T.T.",
"T.T.T.T.T.T.T.4.4.4...E T.M M T Y T.T.T.T.T.T.T.T.",
"T.T.T.T.T.T.T._ 4.4.$.T.T.T.Y Y Y T.T.T.T.T.T.T.T.",
"T.T.T.T.T.T.T.3 t _ T.T.T.T.1 1 1 T.T.T.T.T.T.T.T.",
"T.T.T.T.T.T.T.O O T.T.T.T.T.X o o T.T.T.T.T.T.T.T.",
"T.T.T.T.T.T.T.4 4 T.T.T.T.T.: : : T.T.T.T.T.T.T.T.",
"T.T.T.T.T.T.T.4 4 T.T.T.T.T.> : : : T.T.T.T.T.T.T."
};
