/* XPM */
static char *result[] = {
/* columns rows colors chars-per-pixel */
"25 40 166 2 ",
"   c #2E1A23",
".  c #301C24",
"X  c #361F29",
"o  c #36242A",
"O  c #3B232B",
"+  c #34292B",
"@  c #242E31",
"#  c #293132",
"$  c #3A3C36",
"%  c #323838",
"&  c #353834",
"*  c #402017",
"=  c #49281E",
"-  c #42272F",
";  c #542F24",
":  c #452933",
">  c #4C2D33",
",  c #463837",
"<  c #4C3838",
"1  c #553535",
"2  c #5C3635",
"3  c #5A3A35",
"4  c #543538",
"5  c #583F39",
"6  c #543C34",
"7  c #603735",
"8  c #623935",
"9  c #6A3F37",
"0  c #673F3B",
"q  c #3D443E",
"w  c #4F403E",
"e  c #6C4137",
"r  c #6B443D",
"t  c #794634",
"y  c #724538",
"u  c #7D4E3A",
"i  c #714838",
"p  c #384F4F",
"a  c #3E5855",
"s  c #2F6164",
"d  c #326667",
"f  c #3E6E6A",
"g  c #3E6363",
"h  c #3A7571",
"j  c #4E4F44",
"k  c #5B4F48",
"l  c #58594C",
"z  c #56574A",
"x  c #545C58",
"c  c #634A44",
"v  c #6E4A41",
"b  c #664640",
"n  c #764E42",
"m  c #794A41",
"M  c #794F48",
"N  c #61544F",
"B  c #7A5143",
"V  c #72544B",
"C  c #755043",
"Z  c #6B6356",
"A  c #666558",
"S  c #756252",
"D  c #43736D",
"F  c #5C766B",
"G  c #407970",
"H  c #517C71",
"J  c #67796C",
"K  c #6A7463",
"L  c #747766",
"P  c #824A38",
"I  c #84543C",
"U  c #88553C",
"Y  c #8A583D",
"T  c #815646",
"R  c #855A48",
"E  c #8A5D49",
"W  c #865647",
"Q  c #975541",
"!  c #915E44",
"~  c #995C49",
"^  c #A55A46",
"/  c #8B604A",
"(  c #93634C",
")  c #9C6A4D",
"_  c #99634B",
"`  c #846259",
"'  c #926A52",
"]  c #936352",
"[  c #997759",
"{  c #A36249",
"}  c #A16E50",
"|  c #A26D59",
" . c #BA6D52",
".. c #B66C53",
"X. c #A47152",
"o. c #AC7554",
"O. c #AF7855",
"+. c #BE7257",
"@. c #B87E57",
"#. c #BF7458",
"$. c #BB7B5F",
"%. c #B27657",
"&. c #807A6D",
"*. c #A37664",
"=. c #AB7962",
"-. c #C27659",
";. c #CA7D5D",
":. c #C17C5D",
">. c #C17E62",
",. c #418179",
"<. c #4A887E",
"1. c #5F8C79",
"2. c #568577",
"3. c #738676",
"4. c #BD8259",
"5. c #958067",
"6. c #9A936F",
"7. c #AC8F67",
"8. c #BD8265",
"9. c #A3966E",
"0. c #B08973",
"q. c #C38063",
"w. c #CC8768",
"e. c #D58C6A",
"r. c #DA926E",
"t. c #DF9974",
"y. c #E29B76",
"u. c #D3A368",
"i. c #D9A17C",
"p. c #E8A67F",
"a. c #E6A27C",
"s. c #E0BC73",
"d. c #E8C377",
"f. c #4E9282",
"g. c #529986",
"h. c #569E89",
"j. c #629A82",
"k. c #57A08A",
"l. c #5AA38C",
"z. c #5EA98F",
"x. c #5FAB90",
"c. c #6CA789",
"v. c #7FB28D",
"b. c #60AC90",
"n. c #6BB795",
"m. c #6DBE9A",
"M. c #72BE99",
"N. c #6EC09B",
"B. c #8EA780",
"V. c #83AF89",
"C. c #82B08A",
"Z. c #94B48F",
"A. c #9ABF98",
"S. c #92BD99",
"D. c #DBA986",
"F. c #EBAA82",
"G. c #F0B98F",
"H. c #E6BC95",
"J. c #F3BC92",
"K. c #9DC59E",
"L. c #F7C196",
"P. c #FBCA9E",
"I. c #FAC79B",
"U. c #FECEA2",
"Y. c #FFD0A3",
"T. c None",
/* pixels */
"T.T.T.T.T.T.T.T.T.T.T.T.T.T.Y Y Y T.Y Y Y Y T.T.T.",
"T.T.T.T.8 T.T.T.T.8 8 8 2 I Y Y Y 9 u Y Y Y T.T.T.",
"T.T.T.T.T.> : > 8 8 7 9 u I Y Y Y u I Y Y Y T.T.T.",
"T.T.T.T.T.: > 1 3 e t u Y Y Y Y Y Y u u Y W T.T.T.",
"T.T.T.T.> > 2 e e I Y U u u I U u u e e Y T.T.T.T.",
"T.T.T.T.2 7 y I Y Y / ! u m W E m u e 7 T.T.T.T.T.",
"T.T.T.T.: 2 8 9 I W %.t.t.t.t.t.y.t.T.T.T.T.T.T.T.",
"T.T.T.T.2 2 y P e $._ ; ; ; ; u t.e = * T.T.T.T.T.",
"T.T.T.T.> > 2 9 8 >.>.^ { ^ Q Q ..{ U T.T.T.T.T.T.",
"T.T.T.T.0.*.W 0 ~ e.%.y u $.#.^ ^ P T.T.T.T.T.T.T.",
"T.T.T.T.Y.J.=.9 :.r.8.' ' t.q.^ ^ ' T.T.T.T.T.T.T.",
"T.T.T.T.U.D.*.T -.y.J.Y.U.U.D.$.>.J.T.T.T.T.l A L ",
"T.T.T.T.T.: T >.>.J.Y.Y.Y.U.U.I.Y.Y.H.T.T.z l l l ",
"T.T.T.T.T.T.T.y.y.J.Y.Y.Y.F.y.F.Y.Y.5.& @ $ j l T.",
"T.T.T.T.T.T.T.T.y.p.J.Y.Y.U.I.U.U.` , + $ # % T.T.",
"T.T.T.T.,.x.l.2.3.3.L &.q.q.>.=.Z v > . o & T.T.T.",
"T.T.T.n.l.k.h.h.,.,.h g N N c w , n r w p q T.T.T.",
"T.T.N.N.N.l.h.k.,.f.g.<.G G a 6 T ( E Z ,.T.T.T.T.",
"T.N.N.N.N.N.l.,.,.b.N.N.M.c.L E 4.4.[ K ,.,.T.T.T.",
"T.N.N.N.N.N.l.,.,.b.m.M.n.Z ( 4.4.4.B.x.,.,.T.T.T.",
"N.N.N.N.N.N.l.,.,.,.l.c.c X.4.4.4.v.N.b.,.,.T.T.T.",
"N.N.N.N.N.T.T.T.,.x l S o.@.4.7.v.N.N.z.,.,.,.T.T.",
"g.g.g.h.m.T.T.T.Z V E X.4.4.9.C.N.N.z.<.s s s s T.",
"h.h.h.h.l.T.T.> 3 i ( } } 6.C.N.N.z.f.h d d d d T.",
"Z.A.K.S.<.T.O O   k Z Z Z j.z.b.x.<.T.T.J J J J T.",
"F.J.Y.U.T.4 O .   a D f f 2.2.1.1.D F T...+.+.-.T.",
"U.Y.Y.U.U.V       > : .   ) u.d.s.6 ] e. .r.y.y.T.",
"Y.Y.U.U.F.b     T.B B m n R / R r 4 | y.r.-.e.y.T.",
"T.Y.U.U.T.T.T.T.T.o.o.o.o.o.( n 4 4 M y.y.r.r.T.T.",
"T.T.T.T.T.T.T.T.4.4.4.4.4.4.( b v v T.T.T.T.T.T.T.",
"T.T.T.T.T.T.T.T.4.4.4.4.4.o.B 0 T T T.T.T.T.T.T.T.",
"T.T.T.T.T.T.T.T.4.4.4.4.4.R b r T T T.T.T.T.T.T.T.",
"T.T.T.T.T.T.T.( 4.4.4.4.4.r v T T T T.T.T.T.T.T.T.",
"T.T.T.T.T.T.T.4.4.4.4.4.T.4 r T T T.T.T.T.T.T.T.T.",
"T.T.T.T.T.T.T.4.4.4.X.E T.B B R T T.T.T.T.T.T.T.T.",
"T.T.T.T.T.T.T.) 4.4.%.T.T.T.T T T T.T.T.T.T.T.T.T.",
"T.T.T.T.T.T.T.3 i ) T.T.T.T.1 1 1 T.T.T.T.T.T.T.T.",
"T.T.T.T.T.T.T.O O T.T.T.T.T.X o o T.T.T.T.T.T.T.T.",
"T.T.T.T.T.T.T.4 4 T.T.T.T.T.: : : T.T.T.T.T.T.T.T.",
"T.T.T.T.T.T.T.4 4 T.T.T.T.T.> : : : T.T.T.T.T.T.T."
};
