/* XPM */
static char *result[] = {
/* columns rows colors chars-per-pixel */
"25 40 169 2 ",
"   c #2E1A23",
".  c #301C24",
"X  c #361F29",
"o  c #362329",
"O  c #3B232B",
"+  c #34292B",
"@  c #242E31",
"#  c #293132",
"$  c #3A3C36",
"%  c #323838",
"&  c #353834",
"*  c #402017",
"=  c #49281E",
"-  c #42272F",
";  c #542F24",
":  c #452933",
">  c #4C2D33",
",  c #4A3837",
"<  c #553535",
"1  c #5C3635",
"2  c #5A3A35",
"3  c #543538",
"4  c #583F39",
"5  c #543C34",
"6  c #603735",
"7  c #623935",
"8  c #6A3F37",
"9  c #673F3B",
"0  c #3D443E",
"q  c #4F403E",
"w  c #6C4137",
"e  c #66423E",
"r  c #6C443D",
"t  c #794634",
"y  c #724538",
"u  c #7D4E3A",
"i  c #714838",
"p  c #384F4F",
"a  c #2B595F",
"s  c #3E5855",
"d  c #366D6C",
"f  c #3E6E6A",
"g  c #3E6363",
"h  c #3D756F",
"j  c #3A7571",
"k  c #4E4F44",
"l  c #5B4F48",
"z  c #58594C",
"x  c #56574A",
"c  c #545C58",
"v  c #634A44",
"b  c #6E4A41",
"n  c #664640",
"m  c #764E42",
"M  c #794A41",
"N  c #61544F",
"B  c #7A5143",
"V  c #745246",
"C  c #7C5A52",
"Z  c #4D605D",
"A  c #6B6356",
"S  c #666558",
"D  c #756252",
"F  c #43736D",
"G  c #407970",
"H  c #417F79",
"J  c #517C71",
"K  c #6A7463",
"L  c #797565",
"P  c #747766",
"I  c #824A38",
"U  c #84543C",
"Y  c #88553C",
"T  c #8A583D",
"R  c #815646",
"E  c #855A48",
"W  c #8A5D49",
"Q  c #865647",
"!  c #975541",
"~  c #915E44",
"^  c #995C49",
"/  c #A55A46",
"(  c #8B604A",
")  c #93634C",
"_  c #9C6A4D",
"`  c #99634B",
"'  c #846259",
"]  c #926A52",
"[  c #926251",
"{  c #997759",
"}  c #A36249",
"|  c #A16E50",
" . c #B76C52",
".. c #A47152",
"X. c #AC7554",
"o. c #AF7855",
"O. c #BF7357",
"+. c #BB7B5F",
"@. c #B47857",
"#. c #807A6D",
"$. c #A37664",
"%. c #AB7962",
"&. c #C27659",
"*. c #C47A5C",
"=. c #CA7D5D",
"-. c #C57E61",
";. c #418079",
":. c #46857B",
">. c #50897F",
",. c #5F8C79",
"<. c #568577",
"1. c #738978",
"2. c #728576",
"3. c #BD8259",
"4. c #958067",
"5. c #9A936F",
"6. c #9A8871",
"7. c #AC8F67",
"8. c #BD8265",
"9. c #A3966E",
"0. c #B08973",
"q. c #C38063",
"w. c #CC8768",
"e. c #D58C6A",
"r. c #DB926E",
"t. c #DF9974",
"y. c #DE9772",
"u. c #E29B75",
"i. c #D3A368",
"p. c #D9A17C",
"a. c #E6A27B",
"s. c #E0BC73",
"d. c #E8C377",
"f. c #4B8E81",
"g. c #4E9182",
"h. c #539986",
"j. c #579F8A",
"k. c #589F88",
"l. c #519685",
"z. c #629A82",
"x. c #57A08A",
"c. c #5AA48C",
"v. c #5DA88E",
"b. c #5FAB90",
"n. c #6CA789",
"m. c #7FB28D",
"M. c #60AC90",
"N. c #6BB795",
"B. c #6DBE9A",
"V. c #72BE99",
"C. c #6EC09B",
"Z. c #8EA780",
"A. c #83AF89",
"S. c #82B08A",
"D. c #A6AF89",
"F. c #AEBF97",
"G. c #DBA986",
"H. c #EBAB83",
"J. c #F0B98F",
"K. c #E6BC95",
"L. c #F3BC92",
"P. c #A9C19B",
"I. c #B3C89F",
"U. c #F9C59A",
"Y. c #FBCA9E",
"T. c #F7C196",
"R. c #FFCFA2",
"E. c #FFD0A3",
"W. c None",
/* pixels */
"W.W.W.W.W.W.W.W.W.W.W.W.W.W.T T T W.T T T T W.W.W.",
"W.W.W.W.7 W.W.W.W.6 7 7 1 U T T T 8 u T T Y W.W.W.",
"W.W.W.W.W.> : > 6 7 7 7 u U T T T u U Y T T W.W.W.",
"W.W.W.W.W.: > < 7 y i u Y T T T T T u u Y ~ W.W.W.",
"W.W.W.W.> > 1 w w U T Y u u U U u u w w Y W.W.W.W.",
"W.W.W.W.1 6 y U T U ~ ~ M u W W M M w 6 W.W.W.W.W.",
"W.W.W.W.: 1 7 8 Y ~ @.t.t.t.t.t.u.u.W.W.W.W.W.W.W.",
"W.W.W.W.1 1 y I 7 +.` ; ; ; ; u t.i = * W.W.W.W.W.",
"W.W.W.W.3 > 3 9 7 -.-./ } } ! !  .} Y W.W.W.W.W.W.",
"W.W.W.W.0.$.Q 9 ^ e.@.y t *.O./ / I W.W.W.W.W.W.W.",
"W.W.W.W.E.L.%.8 &.y.8.] ] p.w./ / ] W.W.W.W.W.W.W.",
"W.W.W.W.E.G.$.M &.t.L.E.R.R.p.+.-.L.W.W.W.W.z S P ",
"W.W.W.W.W.: R -.-.L.E.E.E.Y.Y.R.E.E.K.W.W.x x z z ",
"W.W.W.W.W.W.W.u.u.L.R.R.E.H.u.H.E.E.4.% @ $ k z W.",
"W.W.W.W.W.W.W.W.u.a.L.R.E.Y.U.Y.Y.' , + $ # % W.W.",
"W.W.W.W.;.b.c.<.1.1.2.#.q.q.q.%.A b > . + & W.W.W.",
"W.W.W.N.c.x.x.h.;.;.h g N N r q , V r q p 0 W.W.W.",
"W.W.C.C.C.v.x.x.;.>.h.>.G G s q R ) ( A ;.W.W.W.W.",
"W.C.C.C.C.C.c.;.;.M.C.C.C.n.P W 3.3.{ K ;.;.W.W.W.",
"W.C.C.C.C.C.c.;.;.M.C.C.N.A ) 3.3.3.Z.v.;.;.W.W.W.",
"C.C.C.C.C.C.c.;.;.:.c.n.v ..3.3.3.m.C.M.;.;.H H W.",
"f.f.f.l.B.W.W.W.;.Z z D X.@.3.7.m.C.C.x.a a a a W.",
"v.M.v.c.h.W.W.W.S V W | 3.3.9.S.C.C.h.h f d d d W.",
"D.P.I.P.>.W.W.> 2 u ( | | 5.S.C.C.v.;.Z L L L L W.",
"H.T.E.E.W.W.- O   l A A A z.M.M.b.>.1.-. .&.*.*.W.",
"E.E.R.R.Y.C X     s F f f <.<.,.,.F 6.e.&.e.u.u.W.",
"E.E.E.Y.a.e       > - .   _ i.d.s.5 [ u.u.&.e.u.W.",
"W.E.E.R.W.o     W.B B M m E W E n 3 e W.u.r.W.W.W.",
"W.W.W.W.W.W.W.W.W.X.X.o.X.X.) m 3 3 W.W.W.W.W.W.W.",
"W.W.W.W.W.W.W.W.3.3.3.3.3.3.) n b r W.W.W.W.W.W.W.",
"W.W.W.W.W.W.W.W.3.3.3.3.3.X.B e R R W.W.W.W.W.W.W.",
"W.W.W.W.W.W.W.W.3.3.3.3.3.E r n R R W.W.W.W.W.W.W.",
"W.W.W.W.W.W.W.) 3.3.3.3.3.n b R R R W.W.W.W.W.W.W.",
"W.W.W.W.W.W.W.3.3.3.3.3.W.1 r R R W.W.W.W.W.W.W.W.",
"W.W.W.W.W.W.W.3.3.3...W W.B B Q R W.W.W.W.W.W.W.W.",
"W.W.W.W.W.W.W._ 3.3.o.W.W.W.R R R W.W.W.W.W.W.W.W.",
"W.W.W.W.W.W.W.2 i _ W.W.W.W.< < < W.W.W.W.W.W.W.W.",
"W.W.W.W.W.W.W.O O W.W.W.W.W.X o o W.W.W.W.W.W.W.W.",
"W.W.W.W.W.W.W.3 3 W.W.W.W.W.: : : W.W.W.W.W.W.W.W.",
"W.W.W.W.W.W.W.3 3 W.W.W.W.W.: : : : W.W.W.W.W.W.W."
};
