/* XPM */
static char *result[] = {
/* columns rows colors chars-per-pixel */
"25 40 166 2 ",
"   c #2E1A23",
".  c #301C24",
"X  c #361F29",
"o  c #362329",
"O  c #3B232B",
"+  c #34292B",
"@  c #242E31",
"#  c #293132",
"$  c #3A3C36",
"%  c #323838",
"&  c #353834",
"*  c #402017",
"=  c #49281E",
"-  c #42272F",
";  c #542F24",
":  c #452933",
">  c #4C2D33",
",  c #463837",
"<  c #4C3838",
"1  c #553535",
"2  c #5C3635",
"3  c #5A3A35",
"4  c #543538",
"5  c #583F39",
"6  c #543C34",
"7  c #603735",
"8  c #623935",
"9  c #6A3F37",
"0  c #673F3B",
"q  c #3D443E",
"w  c #4F403E",
"e  c #6C4137",
"r  c #66423E",
"t  c #6C443D",
"y  c #794634",
"u  c #724538",
"i  c #7D4E3A",
"p  c #714838",
"a  c #384F4F",
"s  c #2B595F",
"d  c #3E5855",
"f  c #366D6C",
"g  c #3E6E6A",
"h  c #3E6363",
"j  c #3A7571",
"k  c #4E4F44",
"l  c #5B4F48",
"z  c #58594C",
"x  c #56574A",
"c  c #545C58",
"v  c #634A44",
"b  c #6E4A41",
"n  c #664640",
"m  c #764E42",
"M  c #794A41",
"N  c #61544F",
"B  c #7A5143",
"V  c #745246",
"C  c #7C5A52",
"Z  c #6B6356",
"A  c #666558",
"S  c #756252",
"D  c #43736D",
"F  c #407970",
"G  c #417F79",
"H  c #517C71",
"J  c #6A7463",
"K  c #797565",
"L  c #747766",
"P  c #824A38",
"I  c #84543C",
"U  c #88553C",
"Y  c #8A583D",
"T  c #815646",
"R  c #855A48",
"E  c #8A5D49",
"W  c #865647",
"Q  c #975541",
"!  c #915E44",
"~  c #995C49",
"^  c #A55A46",
"/  c #8B604A",
"(  c #93634C",
")  c #9C6A4D",
"_  c #99634B",
"`  c #846259",
"'  c #926A52",
"]  c #926251",
"[  c #997759",
"{  c #A36249",
"}  c #A16E50",
"|  c #B76C52",
" . c #A47152",
".. c #AC7554",
"X. c #AF7855",
"o. c #BF7357",
"O. c #B87E57",
"+. c #BB7B5F",
"@. c #B27657",
"#. c #807A6D",
"$. c #A37664",
"%. c #AB7962",
"&. c #C27659",
"*. c #C47A5C",
"=. c #CA7D5D",
"-. c #C57E61",
";. c #418079",
":. c #498B7F",
">. c #5F8C79",
",. c #568577",
"<. c #738676",
"1. c #BD8259",
"2. c #958067",
"3. c #9A936F",
"4. c #9A8871",
"5. c #AC8F67",
"6. c #BD8265",
"7. c #A3966E",
"8. c #B08973",
"9. c #C38063",
"0. c #CC8768",
"q. c #D58C6A",
"w. c #DB926E",
"e. c #DF9974",
"r. c #DE9772",
"t. c #E29B75",
"y. c #D3A368",
"u. c #D9A17C",
"i. c #E6A27B",
"p. c #E0BC73",
"a. c #E8C377",
"s. c #4B8E81",
"d. c #4E9281",
"f. c #579F8A",
"g. c #589F88",
"h. c #539986",
"j. c #629A82",
"k. c #57A08A",
"l. c #5AA48C",
"z. c #5DA88E",
"x. c #5FAB90",
"c. c #6CA789",
"v. c #7FB28D",
"b. c #60AB90",
"n. c #6BB795",
"m. c #6CBD99",
"M. c #72BE99",
"N. c #6EC09B",
"B. c #8EA780",
"V. c #85A788",
"C. c #83AF89",
"Z. c #82B08A",
"A. c #A6AF89",
"S. c #AEBF97",
"D. c #DBA986",
"F. c #EBAB83",
"G. c #F0B98F",
"H. c #E6BC95",
"J. c #F3BC92",
"K. c #B3C89F",
"L. c #F9C59A",
"P. c #FBCA9E",
"I. c #F7C196",
"U. c #FFCFA2",
"Y. c #FFD0A3",
"T. c None",
/* pixels */
"T.T.T.T.T.T.T.T.T.T.T.T.T.T.Y Y Y T.Y Y Y Y T.T.T.",
"T.T.T.T.8 T.T.T.T.8 8 8 2 I Y Y Y 9 i Y Y Y T.T.T.",
"T.T.T.T.T.> : > 2 8 2 9 i I Y Y Y i I Y Y Y T.T.T.",
"T.T.T.T.T.: > 1 8 e y i Y Y Y Y Y Y i i Y Y T.T.T.",
"T.T.T.T.> > 2 e e I Y U i i I I i i e 9 Y T.T.T.T.",
"T.T.T.T.2 7 u I Y Y / ! M M W ! M i t 8 T.T.T.T.T.",
"T.T.T.T.: 2 8 9 U Y @.e.e.t.e.e.t.e.T.T.T.T.T.T.T.",
"T.T.T.T.2 2 u P 0 +._ ; ; ; ; i r.e = * T.T.T.T.T.",
"T.T.T.T.4 > 4 9 8 +.-.{ { { Q Q | { U T.T.T.T.T.T.",
"T.T.T.T.8.$.W 0 ~ q.@.y y *.o.^ ^ P T.T.T.T.T.T.T.",
"T.T.T.T.Y.J.%.9 &.r.6.' ] u.-.^ ^ ' T.T.T.T.T.T.T.",
"T.T.T.T.Y.D.$.M &.t.J.Y.U.U.D.+.-.J.T.T.T.T.z A L ",
"T.T.T.T.T.: T -.-.G.Y.Y.Y.Y.P.U.Y.Y.H.T.T.x x z z ",
"T.T.T.T.T.T.T.t.t.J.Y.Y.Y.F.t.F.Y.Y.2.% @ $ k z T.",
"T.T.T.T.T.T.T.T.t.F.J.Y.Y.U.U.U.U.` < + $ # % T.T.",
"T.T.T.T.;.x.l.,.<.<.L #.-.-.+.$.A b >   + & T.T.T.",
"T.T.T.n.l.f.k.f.;.;.g D N N t w , m t w a q T.T.T.",
"T.T.N.N.N.l.f.k.;.;.:.:.F F d w T ( E Z ;.T.T.T.T.",
"T.N.N.N.N.N.l.;.;.:.l.N.N.c.L E 1.1.[ J ;.;.T.T.T.",
"T.N.N.N.N.N.l.;.;.z.M.N.n.Z ( 1.1.5.3.b.;.;.T.T.T.",
"N.N.N.N.N.N.l.;.;.;.l.c.v  .O.1.1.Z.N.b.;.;.;.;.T.",
"s.s.s.h.m.T.T.T.;.c N S ..O.1.5.Z.N.N.k.s s s s T.",
"z.z.z.x.T.T.T.T.A V R  .1.1.7.Z.N.N.N.h.f f f f T.",
"A.S.K.K.T.T.T.> 3 i / } } 3.Z.N.N.N.T.T.K K K K T.",
"F.I.Y.Y.T.T.- O . l Z Z Z j.b.b.b.b.V.-.| *.*.*.T.",
"Y.Y.U.U.P.C X     d D g g H ,.>.>.D 4.w.&.q.t.t.T.",
"Y.Y.Y.P.i.r       > : . . ) y.a.p.6 ] t.t.o.q.t.T.",
"T.Y.Y.U.T.o     T.B B m m R / R n 1 r T.t.w.T.T.T.",
"T.T.T.T.T.T.T.T.T...........( m 4 1 T.T.T.T.T.T.T.",
"T.T.T.T.T.T.T.T.1.1.1.1.1.1.( n b b T.T.T.T.T.T.T.",
"T.T.T.T.T.T.T.T.1.1.1.1.1...B 0 T T T.T.T.T.T.T.T.",
"T.T.T.T.T.T.T.T.1.1.1.1.1.R n t T T T.T.T.T.T.T.T.",
"T.T.T.T.T.T.T.( 1.1.1.1.1.n b T T T T.T.T.T.T.T.T.",
"T.T.T.T.T.T.T.1.1.1.1.1.T.2 t T T T.T.T.T.T.T.T.T.",
"T.T.T.T.T.T.T.1.1.1. .E T.B B W T T.T.T.T.T.T.T.T.",
"T.T.T.T.T.T.T.) 1.1.X.T.T.T.T T T T.T.T.T.T.T.T.T.",
"T.T.T.T.T.T.T.3 p ) T.T.T.T.1 1 1 T.T.T.T.T.T.T.T.",
"T.T.T.T.T.T.T.O O T.T.T.T.T.X o o T.T.T.T.T.T.T.T.",
"T.T.T.T.T.T.T.4 4 T.T.T.T.T.: : : T.T.T.T.T.T.T.T.",
"T.T.T.T.T.T.T.4 4 T.T.T.T.T.: : : : T.T.T.T.T.T.T."
};
