/* XPM */
static char *result[] = {
/* columns rows colors chars-per-pixel */
"25 40 164 2 ",
"   c #2E1C24",
".  c #301D25",
"X  c #1A2D3B",
"o  c #352229",
"O  c #3B242B",
"+  c #34292B",
"@  c #382E2E",
"#  c #38312F",
"$  c #372D32",
"%  c #3A3531",
"&  c #3B393A",
"*  c #402017",
"=  c #49281E",
"-  c #40262F",
";  c #422A2D",
":  c #542F24",
">  c #452933",
",  c #4C2D33",
"<  c #4A3536",
"1  c #553635",
"2  c #5C3635",
"3  c #543B34",
"4  c #543538",
"5  c #5A3A38",
"6  c #603735",
"7  c #623935",
"8  c #6A3F37",
"9  c #683F3B",
"0  c #3D443E",
"q  c #6C4137",
"w  c #65423C",
"e  c #6B433C",
"r  c #6E493D",
"t  c #794634",
"y  c #724538",
"u  c #7D4E3A",
"i  c #714838",
"p  c #374F4F",
"a  c #2E4C50",
"s  c #2B5A5F",
"d  c #356966",
"f  c #366D6B",
"g  c #38716F",
"h  c #4C4D46",
"j  c #4E4043",
"k  c #5F4340",
"l  c #58594C",
"z  c #56574A",
"x  c #405F5E",
"c  c #435253",
"v  c #664640",
"b  c #744D42",
"n  c #7A4B41",
"m  c #6C544A",
"M  c #7B5244",
"N  c #75564C",
"B  c #635E57",
"V  c #7C5A52",
"C  c #57635C",
"Z  c #686658",
"A  c #746E5C",
"S  c #5F6B60",
"D  c #44746D",
"F  c #5D7467",
"G  c #417F79",
"H  c #5C7B71",
"J  c #6B7B68",
"K  c #797565",
"L  c #757769",
"P  c #824A38",
"I  c #84543C",
"U  c #88553C",
"Y  c #8A583D",
"T  c #815646",
"R  c #845847",
"E  c #845B49",
"W  c #8B5D49",
"Q  c #875647",
"!  c #975541",
"~  c #915E44",
"^  c #995C49",
"/  c #A65A46",
"(  c #8D624C",
")  c #95644D",
"_  c #9B694E",
"`  c #99634B",
"'  c #846259",
"]  c #926A52",
"[  c #9A6E53",
"{  c #926251",
"}  c #9A7E5F",
"|  c #A36249",
" . c #B76C52",
".. c #A67252",
"X. c #AA7553",
"o. c #AF7855",
"O. c #BF7357",
"+. c #B37A56",
"@. c #B87E57",
"#. c #BB7B5F",
"$. c #B27657",
"%. c #807B6D",
"&. c #A37664",
"*. c #AA7963",
"=. c #C27659",
"-. c #C47A5C",
";. c #CA7D5D",
":. c #C57E61",
">. c #418079",
",. c #488A7F",
"<. c #5F8C79",
"1. c #568577",
"2. c #738676",
"3. c #79977B",
"4. c #BD8259",
"5. c #958067",
"6. c #9A8871",
"7. c #AF8D65",
"8. c #BD8265",
"9. c #A99169",
"0. c #B08973",
"q. c #92A07A",
"w. c #C38063",
"e. c #CC8768",
"r. c #D58C6A",
"t. c #DB926E",
"y. c #DF9974",
"u. c #DE9772",
"i. c #E29B75",
"p. c #D3A368",
"a. c #D9A17C",
"s. c #E6A27B",
"d. c #E0BC73",
"f. c #E8C377",
"g. c #4B8E81",
"h. c #4F9383",
"j. c #569E89",
"k. c #589F88",
"l. c #539986",
"z. c #5AA48C",
"x. c #5DA88E",
"c. c #5FAB90",
"v. c #67A78B",
"b. c #61AD91",
"n. c #6ABB99",
"m. c #6DB996",
"M. c #75BB95",
"N. c #6EC09B",
"B. c #8BA982",
"V. c #85A788",
"C. c #A6AF89",
"Z. c #AEBF97",
"A. c #DBA986",
"S. c #EBAB83",
"D. c #F0B98F",
"F. c #E6BC95",
"G. c #F3BC92",
"H. c #B3C89F",
"J. c #F7C196",
"K. c #F9C59A",
"L. c #FBCA9E",
"P. c #FFCFA2",
"I. c #FFD0A3",
"U. c None",
/* pixels */
"U.U.U.U.U.U.U.U.U.U.U.U.U.U.Y Y Y U.Y Y U Y U.U.U.",
"U.U.U.U.7 U.U.U.U.7 7 7 2 I Y Y Y q u Y Y Y U.U.U.",
"U.U.U.U.U., > , 7 6 2 q t I Y Y Y u I I Y Y U.U.U.",
"U.U.U.U.U.> , 1 7 y i t ~ U Y Y Y Y u u U ~ U.U.U.",
"U.U.U.U., , 2 q q I Y U u u I U u u q q U U.U.U.U.",
"U.U.U.U.2 6 y I Y I ~ ~ u n Q W n n q 6 U.U.U.U.U.",
"U.U.U.U.> 2 7 8 I ~ +.y.y.y.y.y.i.i.U.U.U.U.U.U.U.",
"U.U.U.U.2 6 y u 9 #.` : : : : u y.i = * U.U.U.U.U.",
"U.U.U.U., , 5 9 7 #.:./ | | ! !  .| U U.U.U.U.U.U.",
"U.U.U.U.0.&.Q e ^ r.$.t t #.O./ / P U.U.U.U.U.U.U.",
"U.U.U.U.I.G.*.9 -.u.8.] ] y.:./ / ] U.U.U.U.U.U.U.",
"U.U.U.U.I.A.&.n -.y.G.I.P.P.A.#.:.J.U.U.U.U.l Z L ",
"U.U.U.U.U.> T ;.:.D.I.I.I.P.P.P.I.I.F.U.U.z z l l ",
"U.U.U.U.U.U.U.i.i.G.I.I.I.S.i.S.I.I.5.# . % h l U.",
"U.U.U.U.U.U.U.U.i.S.G.I.I.P.K.P.P.' < + % + @ U.U.",
"U.U.U.U.>.c.z.1.2.2.L L w.w.#.*.B %     + # U.U.U.",
"U.U.U.b.>.x.z.G G >.f c / / / M X < ; $ p 0 U.U.U.",
"U.U.N.n.j.z.z.h.>.G g x N N b v & V e h >.U.U.U.U.",
"U.N.N.N.n.k.j.x.>.,.h.>.f d a & M $._ Z >.>.U.U.U.",
"U.N.N.N.N.N.z.>.>.b.N.N.n.m.J M 4.4.[ Z >.>.U.U.U.",
"N.N.N.N.N.N.z.>.>.b.N.N.N.Z ( 4.4.4.q.x.G G >.>.U.",
"g.g.g.l.n.U.g.>.>.,.v.v.B [ +.4.4.B.M.j.s s s s U.",
"x.x.c.c.U.U.U.U.g C C A _ @.4.7.B.M.c.,.f f f f U.",
"C.Z.H.H.U.U.U.j J m b R 4.4.9.B.N.N.c.H K K K K U.",
"S.J.I.I.U.U.- > w u M W ..5.3.x.x.b.V.:. .=.-.-.U.",
"I.I.P.P.L.V o     w M b r F 1.<.<.D 6.t.=.r.i.i.U.",
"I.I.I.L.s.q       , > . . _ p.f.d.3 { i.i.=.r.i.U.",
"U.I.I.P.U.o     U.b M b u E ( E v 4 w U.i.t.U.U.U.",
"U.U.U.U.U.U.U.U.U.T ) o.o.W M b 4 4 U.U.U.U.U.U.U.",
"U.U.U.U.U.U.U.U.4.X.o.4.4.X.E 9 4 e U.U.U.U.U.U.U.",
"U.U.U.U.U.U.U.U.4.4.4.4.4.4.W 5 e M U.U.U.U.U.U.U.",
"U.U.U.U.U.U.U.U.4.4.4.4.4...M v T T U.U.U.U.U.U.U.",
"U.U.U.U.U.U.U.) 4.4.4.4.4.e v T T T U.U.U.U.U.U.U.",
"U.U.U.U.U.U.U.4.4.4.4.4.U.4 v T T U.U.U.U.U.U.U.U.",
"U.U.U.U.U.U.U.4.4.4...W U.M T T T U.U.U.U.U.U.U.U.",
"U.U.U.U.U.U.U._ 4.4.o.U.U.U.T T T U.U.U.U.U.U.U.U.",
"U.U.U.U.U.U.U.5 r _ U.U.U.U.3 1 1 U.U.U.U.U.U.U.U.",
"U.U.U.U.U.U.U.O O U.U.U.U.U.O . O U.U.U.U.U.U.U.U.",
"U.U.U.U.U.U.U.4 4 U.U.U.U.U., > > U.U.U.U.U.U.U.U.",
"U.U.U.U.U.U.U.4 4 U.U.U.U.U.> > > > U.U.U.U.U.U.U."
};
