/* XPM */
static char *result[] = {
/* columns rows colors chars-per-pixel */
"25 40 165 2 ",
"   c #2D1C23",
".  c #321E26",
"X  c #192D3B",
"o  c #2F272D",
"O  c #352127",
"+  c #362029",
"@  c #3B252B",
"#  c #352C2C",
"$  c #2C333C",
"%  c #393331",
"&  c #393939",
"*  c #412A2C",
"=  c #573226",
"-  c #412730",
";  c #452933",
":  c #4B2D33",
">  c #512F34",
",  c #423032",
"<  c #483338",
"1  c #413E38",
"2  c #4D3133",
"3  c #543435",
"4  c #5B3534",
"5  c #543538",
"6  c #5B3A37",
"7  c #623936",
"8  c #693E36",
"9  c #6A3E38",
"0  c #613B39",
"q  c #53433E",
"w  c #6D4234",
"e  c #65423C",
"r  c #6C443C",
"t  c #6D483F",
"y  c #734639",
"u  c #704B3E",
"i  c #7B4C3A",
"p  c #734131",
"a  c #74503E",
"s  c #23424B",
"d  c #344143",
"f  c #29575C",
"g  c #2F6164",
"h  c #326667",
"j  c #356B6B",
"k  c #3E7A74",
"l  c #404444",
"z  c #505045",
"x  c #58594C",
"c  c #425657",
"v  c #6C4740",
"b  c #6C4841",
"n  c #734B43",
"m  c #7E4D43",
"M  c #66534B",
"N  c #7D5444",
"B  c #795647",
"V  c #6C6356",
"C  c #656659",
"Z  c #4D6A64",
"A  c #54746A",
"S  c #5D7265",
"D  c #417E77",
"F  c #417F79",
"G  c #517C73",
"H  c #677362",
"J  c #66796B",
"K  c #777C6B",
"L  c #844A38",
"P  c #83523C",
"I  c #8B553E",
"U  c #8A583D",
"Y  c #804E45",
"T  c #815646",
"R  c #8D5D46",
"E  c #88574A",
"W  c #8C5E49",
"Q  c #885645",
"!  c #955742",
"~  c #805E56",
"^  c #A65A46",
"/  c #93634C",
"(  c #9C6A4E",
")  c #9D674D",
"_  c #8C6A53",
"`  c #8C6156",
"'  c #936B52",
"]  c #986C50",
"[  c #A36F51",
"{  c #B36B54",
"}  c #BA6D52",
"|  c #AE7654",
" . c #AE785B",
".. c #BD7156",
"X. c #B37B56",
"o. c #B07559",
"O. c #BF7559",
"+. c #BA795B",
"@. c #82776A",
"#. c #987365",
"$. c #AA7660",
"%. c #A77F6C",
"&. c #C37659",
"*. c #C57A5B",
"=. c #428179",
"-. c #4B8D7F",
";. c #5A8479",
":. c #AA805C",
">. c #BD8259",
",. c #9C866C",
"<. c #8E8D79",
"1. c #8D8D77",
"2. c #9C8F78",
"3. c #859C7B",
"4. c #939773",
"5. c #B18B63",
"6. c #BE8064",
"7. c #BB8C71",
"8. c #95A17A",
"9. c #C58165",
"0. c #CA8768",
"q. c #CB8868",
"w. c #D48E6D",
"e. c #D6926F",
"r. c #DA926E",
"t. c #CE9572",
"y. c #D09272",
"u. c #DE9671",
"i. c #DE9873",
"p. c #D79A79",
"a. c #E29C76",
"s. c #C2A16B",
"d. c #CFB775",
"f. c #D6BD78",
"g. c #E8A57E",
"h. c #4E9283",
"j. c #529886",
"k. c #569E89",
"l. c #509584",
"z. c #629B83",
"x. c #5AA38B",
"c. c #5FAB90",
"v. c #6CAD8D",
"b. c #7CB08E",
"n. c #61AE91",
"m. c #66B595",
"M. c #69B896",
"N. c #6CBC99",
"B. c #79B892",
"V. c #6EC09B",
"C. c #94B48F",
"Z. c #9ABF98",
"A. c #EBAC84",
"S. c #EFB48B",
"D. c #F2B78E",
"F. c #EFBB93",
"G. c #F6BF94",
"H. c #9DC69E",
"J. c #EEC199",
"K. c #F7C096",
"L. c #F8C499",
"P. c #FBC99D",
"I. c #FECEA1",
"U. c #FFD0A3",
"Y. c None",
/* pixels */
"Y.Y.Y.Y.Y.Y.Y.Y.Y.Y.Y.Y.Y.Y.Y.Y.Y.Y.Y.Y.Y.Y.Y.Y.Y.",
"Y.Y.Y.Y.7 Y.Y.Y.Y.Y.Y.Y.Y.U U U I 8 i U U U Y.Y.Y.",
"Y.Y.Y.Y.7 Y.Y.Y.7 7 7 8 U U U U I P P U U U Y.Y.Y.",
"Y.Y.Y.Y.3 : Y.: 4 7 8 i U U U U U U i i U U Y.Y.Y.",
"Y.Y.Y.Y.; ; : > 7 8 i U U U U U U U y r U Y.Y.Y.Y.",
"Y.Y.Y.Y.: : 3 8 8 P U U P P P P P P y y U Y.Y.Y.Y.",
"Y.Y.Y.Y.7 7 y I U U U P 7 7 i P 7 7 i U Y.Y.Y.Y.Y.",
"Y.Y.Y.Y.: 4 7 w U U o.e.w.e.r.w.e.w.0.Y.Y.Y.Y.Y.Y.",
"Y.Y.Y.Y.7 7 9 L r o.[ 8 w w w R i.Q = Y.Y.Y.Y.Y.Y.",
"Y.Y.Y.Y.> > 7 9 7 +.+.I ! I L I O.! p Y.Y.Y.Y.Y.Y.",
"Y.Y.Y.Y.#.~ Y 9 Q q.+.! I *.} ^ ^ I Y.Y.Y.Y.Y.Y.Y.",
"Y.Y.Y.Y.I.D.$.9 &.r. .u a y.9.^ ^ T Y.Y.Y.Y.Y.Y.Y.",
"Y.Y.Y.Y.U.J.,.r &.a.D.U.U.U.p.{ { G.Y.Y.Y.Y.x C K ",
"Y.Y.Y.Y.Y.: Y &.&.S.I.U.U.U.I.P.P.U.Y.Y.Y.x x x x ",
"Y.Y.Y.Y.Y.Y.9.i.a.G.I.U.U.A.A.S.U.U.,.%   1 z x Y.",
"Y.Y.Y.Y.Y.Y.Y.Y.a.g.G.I.U.L.G.L.I.#.q # % # 1 Y.Y.",
"Y.Y.Y.Y.Y.c.x.;.<.<.<.2.y.y.y.7.@.< O O # % Y.Y.Y.",
"Y.Y.Y.Y.=.c.x.=.=.=.j c ^ ^ ^ m X ; O o d & Y.Y.Y.",
"Y.Y.V.M.h.c.x.-.=.=.j c E E Q b $ N q l F Y.Y.Y.Y.",
"Y.V.V.V.V.j.j.m.=.=.=.k f f s $ b | ( V =.=.Y.Y.Y.",
"Y.V.V.V.V.N.x.=.=.c.M.M.M.M.J a X.>.) V =.=.Y.Y.Y.",
"V.V.V.V.V.V.x.=.=.m.V.V.V.H _ | >.>.4.z.=.=.=.Y.Y.",
"j.j.j.k.V.V.h.D D h.c.v.H ' | >.>.8.B.x.g g g g Y.",
"k.k.k.x.N.Y.Y.=.=.Z S K W X.>.5.8.B.m.-.h h h h Y.",
"C.H.H.H.Y.Y.Y.Y.A M t T >.>.5.8.V.V.k.G J J J J Y.",
"g.G.U.U.Y.Y.- : t N T W X.:.3.M.m.n.C.Y.} } &.&.Y.",
"I.U.U.U.U.B @     e N N T A =.=.=.k 2.w.} u.a.a.Y.",
"I.U.U.P.A.b       2 2 O O ' s.f.d.z ' a.r.&.w.a.Y.",
"Y.U.U.I.Y.-     Y.t T R e W ] ' B 5 b a.a.e.e.Y.Y.",
"Y.Y.Y.Y.Y.Y.Y.Y.Y.[ X.>.[ [ / n 5 5 Y.Y.Y.Y.Y.Y.Y.",
"Y.Y.Y.Y.Y.Y.Y.Y.Y.>.>.>.>.>./ b e v Y.Y.Y.Y.Y.Y.Y.",
"Y.Y.Y.Y.Y.Y.Y.Y.>.>.>.>.>.X.N e T T Y.Y.Y.Y.Y.Y.Y.",
"Y.Y.Y.Y.Y.Y.Y.Y.>.>.>.>.>.W v e T T Y.Y.Y.Y.Y.Y.Y.",
"Y.Y.Y.Y.Y.Y.Y.W >.>.>.>.>.u v N T T Y.Y.Y.Y.Y.Y.Y.",
"Y.Y.Y.Y.Y.Y.Y.+.>.>.>.>.Y.4 v T T Y.Y.Y.Y.Y.Y.Y.Y.",
"Y.Y.Y.Y.Y.Y.Y.] >.>.>.Y.Y.n B T T Y.Y.Y.Y.Y.Y.Y.Y.",
"Y.Y.Y.Y.Y.Y.Y.6 u ) Y.Y.Y.Y.e 3 5 Y.Y.Y.Y.Y.Y.Y.Y.",
"Y.Y.Y.Y.Y.Y.Y.@ @ Y.Y.Y.Y.Y.+ + + Y.Y.Y.Y.Y.Y.Y.Y.",
"Y.Y.Y.Y.Y.Y.Y.5 5 Y.Y.Y.Y.Y.; ; ; Y.Y.Y.Y.Y.Y.Y.Y.",
"Y.Y.Y.Y.Y.Y.Y.5 5 Y.Y.Y.Y.Y.; ; ; ; Y.Y.Y.Y.Y.Y.Y."
};
