/* XPM */
static char *result[] = {
/* columns rows colors chars-per-pixel */
"45 45 9 1 ",
"  c #120D08",
". c #20150C",
"X c #2F2217",
"o c #46301E",
"O c #734F31",
"+ c #FF1831",
"@ c #CBBFBF",
"# c #E9E9E9",
"$ c None",
/* pixels */
"$$$$$$$$$$$$$$$$$$$$$$$$$$$$$$$$$$$$$$$$$$$$$",
"$$$$$$$$$$$$$$$$$$$$$$$$$$$$$$$$$$$$$$$$$$$$$",
"$$$$$$$$$$$$$$$$$$$$$$$$$$$$$$$$$$$$$$$$$$$$$",
"$$$$$$$$$$$$$$$$$$$$$$$$$$$$$$$$$$$$$$$$$$$$$",
"$$$$$$$$$$$$$$$$$$$$$$$$$$$$$$$$$$$$$$$$$$$$$",
"$$$$$$$$$$$$$$$$$$$$$$$$$$$$$$$$$$$$$$$$$$$$$",
"$$$$$$$$$$$$$$$$$$$$$$$$$$$$$$$$$$$$$$$$$$$$$",
"$$$$$$$$$$$$$$$$$$$$$$$$$$$$$$$$$$$$$$X  $$$$",
"$$$$$$$$$$$$$$$$$$$$$$$$$$$$$$$$$$$$$O o$$$$$",
"$$$X $$$$$$$XX$$$$$$$$$$$$$$$$$$$$$$OoooO$$$$",
"$$X OOO$$$$X  $$$$$$$$$$$$$$$$$$$$$Ooooo X$$$",
"$$  ooOOO$$X O$$$$$$$$$$$$$$$$$$$$Ooooo$  $$$",
"$$ $$oooOOO  oO$$$$$$$$$$$$$$$OOOOoooO$$$ $$$",
"$$$$$oooooO ooOO$$$$$$$$$$$$OOooooooooX$$$$$$",
"$$$$$ooooooOooooOO$$$$$$$$oooooooooooo X$$$$$",
"$$$$OooooooooooooOO$$OOOOOOOoooooo$$$$  $$$$$",
"$$$OooooooooooooooOOOOoOOO###Oo$$$$$$$$$$$$$$",
"$$X oooooooooooooooOOoooo#####$$$$$$$$$$$$$$$",
"$X ooooooooooooooooOOooo####+##$$$$$$$$$$$$$$",
"$ $$$Oooo$$$$ooooooooooo@###+##$$$$$$$$$$$$$$",
"$ $$XXo$$$$$$$$$oooooooo@@##+##$$$$$$$$$$$$$$",
"$$$$X $$$$$$$$$$$ooooOOOo@@###o$$$$$$$$$$$$$$",
"$$$$ $$$$$$$$$$$$$oooooOOO@@@o$$$$$$$$$$$$$$$",
"$$$$ $$$$$$$$$$$$$oooo#.oOOoo.o$$$$$$$$$$$$$$",
"$$$$ $$$$$$$$$$$$$ooo...#.#.#.$$$$$$$$$$$$$$$",
"$$$$$$$$$$$$$$$$$$$oo........$$$$$$$$$$$$$$$$",
"$$$$$$$$$$$$$$$XX$Ooo........$$$$$$$$$$$$$$$$",
"$$$$$$$$$$$$$$$  OOOo#.#.#.#$$$$$$$$$$$$$$$$$",
"$$$$$$$$$$$$$$$ $ooOoOOOOOOO$OoX$$$$$$$$$$$$$",
"$$$$$$$$$$$$$$$$$$oOooooooooOoO X$$$$$$$$$$$$",
"$$$$$$$$$$$$$$$$$$ oooooo$$oooo$ $$$$$$$$$$$$",
"$$$$$$$$$$$$$$$$$XX ooooo$$$ooX$$$$$$$$$$$$$$",
"$$$$$$$$$$$$$$$$$$$$$$ooo$$$$$ X$$$$$$$$$$$$$",
"$$$$$$$$$$$$$$$$$$$$$$oo$$$$$$$$$$$$$$$$$$$$$",
"$$$$$$$$$$$$$$$$$$$$$Oo$$$$$$$$$$$$$$$$$$$$$$",
"$$$$$$$$$$$$$$$$$$$$$oo$$$$$$$$$$$$$$$$$$$$$$",
"$$$$$$$$$$$$$$$$$$$$Oo$$$$$$$$$$$$$$$$$$$$$$$",
"$$$$$$$$$$$$$$$$$$$$oo$$$$$$$$$$$$$$$$$$$$$$$",
"$$$$$$$$$$$$$$$$$$$$$$$$$$$$$$$$$$$$$$$$$$$$$",
"$$$$$$$$$$$$$$$$$$$$$$$$$$$$$$$$$$$$$$$$$$$$$",
"$$$$$$$$$$$$$$$$$$$$$$$$$$$$$$$$$$$$$$$$$$$$$",
"$$$$$$$$$$$$$$$$$$$$$$$$$$$$$$$$$$$$$$$$$$$$$",
"$$$$$$$$$$$$$$$$$$$$$$$$$$$$$$$$$$$$$$$$$$$$$",
"$$$$$$$$$$$$$$$$$$$$$$$$$$$$$$$$$$$$$$$$$$$$$",
"$$$$$$$$$$$$$$$$$$$$$$$$$$$$$$$$$$$$$$$$$$$$$"
};
