/* XPM */
static char *result[] = {
/* columns rows colors chars-per-pixel */
"45 45 7 1 ",
"  c #120D08",
". c #2F2217",
"X c #46301E",
"o c #734F31",
"O c #FF1831",
"+ c #E9E9E9",
"@ c None",
/* pixels */
"@@@@@@@@@@@@@@@@@@@@@@@@@@@@@@@@@@@@@@@@@@@@@",
"@@@@@@@@@@@@@@@@@@@@@@@@@@@@@@@@@@@@@@@@@@@@@",
"@@@@@@@@@@@@@@@@@@@@@@@@@@@@@@@@@@@@@@@@@@@@@",
"@@@@@@@@@@@@@@@@@@@@@@@@@@@@@@@@@@@@@@@@@@@@@",
"@@@@@@@@@@@@@@@@@@@@@@@@@@@@@@@@@@@@@@@@@@@@@",
"@@@@@@@@@@@@@@@@@@@@@@@@@@@@@@@@@@@@@@@@@@@@@",
"@@@@@@@@@@@@@@@@@@@@@@@@@@@@@@@@@@@@@@@@@@@@@",
"@@@@@@@@@@@@@@@@@@@@@@@@@@@@@@@@@@@@@@@@@@@@@",
"@@@@@@@@@@@@@@@@@@@@@@@@@@@@@@@@@@@@@@@@@@@@@",
"@@@@@@@@@@@@@@@@@@@@@@@@@@@@@@@@@@@@@@@@@@@@@",
"@@@@@@@@@@@@@@@@@@@@@@@@@@@@@@@@@@@@@@@@@@@@@",
"@@@@@@@@@@@@@@@@@@@.@@@@@@@@@@@@@@@@@@@@@@@@@",
"@@@@@@@@@@@@@@.@@@@.@@@@@@@@.@@@@@@@@@@@@@@@@",
"@@@@@@@@@@@@@@ @@@..@@@@@@@@  @.@@@@@@@@@@@@@",
"@@@@@@@@@@@@@@ o @  @@@@@@@ ooo @@@@@@@@@@@@@",
"@@@@@@@@@@@@@@oo oX @@@@@@@XoooX@@@@@@@@@@@@@",
"@@@@@@@@@@@@@oooXooXo@@@@@@Xooo @@@@@@@@@@@@@",
"@@@@@@@@@@@@@XoooooXo @@@@XooooX@@@@@@@@@@@@@",
"@@@@@@@@@@@@@oooooooo@@.@@ ooooo@@@@@@@@@@@@@",
"@@@@@@@@@@@@@.XooooooX. @@@ooooo@@@@@@@@@@@@@",
"@@@@@@@@@@@@@. oooooXXX@.@@Xoooo@@@@@@@@@@@@@",
"@@@@@@@@@@@@@ XooooooXX@. XXoooo@@@@@@@@@@@@@",
"@@@@@@@@@@@@@ XooooXXX+O++oXXooX@@@@@@@@@@@@@",
"@@@@@@@@@@@@@XXoooXXX++++++XXooX@@@@@@@@@@@@@",
"@@@@@@@@@@@@@XXoooX@+++++++XXoXX@@@@@@@@@@@@@",
"@@@@@@@@@@@@@XXXoXX@+++++++XXXXX@@@@@@@@@@@@@",
"@@@@@@@@@@@@@XXXoXXo+++++++oXXXX@@@@@@@@@@@@@",
"@@@@@@@@@@@@@@XXXXXoo+++++ooXXX@@@@@@@@@@@@@@",
"@@@@@@@@@@@@@@XXXXoooooooooooXX@@@@@@@@@@@@@@",
"@@@@@@@@@@@@@@@XXXooooooooooooX@@@@@@@@@@@@@@",
"@@@@@@@@@@@@@@@@XXooooooooooooX@@@@@@@@@@@@@@",
"@@@@@@@@@@@@@@@@@@oooooooooooo@@@@@@@@@@@@@@@",
"@@@@@@@@@@@@@@@@@@Xooooooooooo@@@@@@@@@@@@@@@",
"@@@@@@@@@@@@@@@@@@XXoooooooooX@@@@@@@@@@@@@@@",
"@@@@@@@@@@@@@@@@@@XXXXXXXXXXXX@@@@@@@@@@@@@@@",
"@@@@@@@@@@@@@@@@@@@XXXXXXXXXXX@@@@@@@@@@@@@@@",
"@@@@@@@@@@@@@@@@@@@XXXXXXXXXX@@@@@@@@@@@@@@@@",
"@@@@@@@@@@@@@@@@@@@@XXXXXXXX@@@@@@@@@@@@@@@@@",
"@@@@@@@@@@@@@@@@@@@@@XXXXXX@@@@@@@@@@@@@@@@@@",
"@@@@@@@@@@@@@@@@@@@@@@XXXX@@@@@@@@@@@@@@@@@@@",
"@@@@@@@@@@@@@@@@@@@@@@@@@@@@@@@@@@@@@@@@@@@@@",
"@@@@@@@@@@@@@@@@@@@@@@@@@@@@@@@@@@@@@@@@@@@@@",
"@@@@@@@@@@@@@@@@@@@@@@@@@@@@@@@@@@@@@@@@@@@@@",
"@@@@@@@@@@@@@@@@@@@@@@@@@@@@@@@@@@@@@@@@@@@@@",
"@@@@@@@@@@@@@@@@@@@@@@@@@@@@@@@@@@@@@@@@@@@@@"
};
