/* XPM */
static char *result[] = {
/* columns rows colors chars-per-pixel */
"45 45 88 1 ",
"  c #19120B",
". c #1B140C",
"X c #1C140C",
"o c #1D150E",
"O c #21170F",
"+ c #22180F",
"@ c #211810",
"# c #251B12",
"$ c #261B12",
"% c #2D1F13",
"& c #2D2014",
"* c #2D2015",
"= c #2F2114",
"- c #2F2115",
"; c #332215",
": c #322317",
"> c #342416",
", c #342417",
"< c #342517",
"1 c #37271A",
"2 c #382718",
"3 c #3A291A",
"4 c #3C291A",
"5 c #3F2B1B",
"6 c #3E2C1C",
"7 c #3F2C1C",
"8 c #452F1E",
"9 c #45301E",
"0 c #46301E",
"q c #47301E",
"w c #47311E",
"e c #47311F",
"r c #48311E",
"t c #48311F",
"y c #48321F",
"u c #483220",
"i c #493220",
"p c #4A3320",
"a c #4B3320",
"s c #4C3420",
"d c #4D3421",
"f c #4D3521",
"g c #4E3522",
"h c #4D3622",
"j c #4E3622",
"k c #4F3622",
"l c #513823",
"z c #523823",
"x c #533923",
"c c #533924",
"v c #543924",
"b c #543A24",
"n c #553A24",
"m c #553B25",
"M c #563B25",
"N c #573C25",
"B c #583D26",
"V c #593D26",
"C c #593E26",
"Z c #5B3E27",
"A c #5B3F27",
"S c #5C3F27",
"D c #5E4028",
"F c #5F4228",
"G c #5F4229",
"H c #604229",
"J c #624329",
"K c #64452B",
"L c #65452B",
"P c #67472C",
"I c #69482D",
"U c #6B492D",
"Y c #6B4A2E",
"T c #6C4A2E",
"R c #6D4B2F",
"E c #6E4B2F",
"W c #6E4C2F",
"Q c #6F4D30",
"! c #704D30",
"~ c #714E30",
"^ c #724E30",
"/ c #724E31",
"( c #734F31",
") c #744F31",
"_ c #735031",
"` c #745031",
"' c #745032",
"] c None",
/* pixels */
"]]]]]]]]]]]]]]]]]]]]]]]]]]]]]]]]]]]]]]]]]]]]]",
"]]]]]]]]]]]]]]]]]]]]]]]]]]]]]]]]]]]]]]]]]]]]]",
"]]]]]]]]]]]]]]]]]]]]]]]]]]]]]]]]]]]]]]]]]]]]]",
"]]]]]]]]]]]]]]]]]]]]]]]]]]]]]]]]]]]]]]]]]]]]]",
"]]]]]]]]]]]]]]]]]]]]]]]]]]]]]]]]]]]]]]]]]]]]]",
"]]]]]]]]]]]]]]]]]]]]]]]]]]]]]]]]]]]]]]]]]]]]]",
"]]]]]]]]]]]]]]]]]]]]]]]]]]]]]]]]]]]]]]]]]]]]]",
"]]]]]]]]]]]]]]]]]]]]]]]]]]]]]]]]]]]]]]]]]]]]]",
"]]]]]]]]]]]]]]]]]]]]]]]]]]]]]]]]]]]]]]]]]]]]]",
"]]]]]]]]]]]]]]]]]]]]]]]]]]]]]]]]]]]]]]]]]]]]]",
"]]]]]]]]]]]]]]]]]]]]]]]]]]]]]]]]]]]]]]]]]]]]]",
"]]]]]]]]]]]]]]]]]]]]]]]]]]]]]]]]]]]]]]]]]]]]]",
"]]]]]]]]]]]]]]]]]]]]]]]]]]]]]]]]]]]]]]]]]]]]]",
"]]]]]]]]]]]]]]]]]]]]]]]]]]]]]]]]]]]]]]]]]]]]]",
"]]]]]]]]]]]]]]]]]]]]]]]]]]]]]]]]]]]]]]]]]]]]]",
"]]]]]]]]]]]]]]]]]]]]]]]]]]]]]]]]]]]]]]]]]]]]]",
"]]]]]]]]]]]]]]]]]]]]]]]]]]]]]]]]]]]]]]]]]]]]]",
"]]]]]]]]]]]]]]]]]]]]]]]]]]]]]]]]]]]]]]]]]]]]]",
"]]]]]]]]]]]]]]]]]]]]]]]]]]]]]]]]]]]]]]]]]]]]]",
"]]]]]]]]]]]]]]]]]]]]]]]]]]]]]]]]]]]]]]]]]]]]]",
"]]]]]]]]]]]]]]]]]]]]]]]]]]]]]]]]]]]]]]]]]]]]]",
"]]]]]]]]]]]]]]]]]]]]]]]]]]]]]]]]]]]]]]]]]]]]]",
"]]]]]]]]]]]]]]]]]]]]]]]]]]]]]]]]]]]]]]]]]]]]]",
"]]]]]]]]]]]]]]]]]]]]]]]]]]]]]]]]]]]]]]]]]]]]]",
"]]]]]]]]]]]]]]]]]]]]]]]]]]]]]]]]]]]]]]]]]]]]]",
"]]]]]]]]]]]]]]]]]]]]]]]]]]]]]]]]]]]]]]]]]]]]]",
"]]]]]]]]]]]]]]]]]]]]]]]]]]]]]]]]]]]]]]]]]]]]]",
"]]]]]]]]]]]]]]]]]]]]]]]]]]]]]]]]]]]]]]]]]]]]]",
"]]]]]]]]]]]]]]]]]]]]]]]]]]]]]]]]]]]]]]]]]]]]]",
"]]]]]]]]]]]]]]]]]]]]]]]]]]]]]]]]]]]]]]]]]]]]]",
"]]]]]]]]]]]]]]]]]]]]]]]]]]]]]]]]]]]]]]]]]]]]]",
"]]]]]]]]]]]]]]]]]]]]]]]]]]]]]]]]]]]]]]]]]]]]]",
"]]]]]]]]]]]]]]]]]]]]]]]]]]]]]]]]]]]]]]]]]]]]]",
"]]]]]]]]]]]]]]]]]]]]]]]]]]]]]]]]]]]]]]]]]]]]]",
"]]]]]]]]]]]]]]]]]]]]]]]]]]]]]]]]]]]]]]]]]]]]]",
"]]]]]]]]]]]]]]]]]]]]]]]]]]]]]]]]]]]]]]]]]]]]]",
"]]]]]]]]]]]]]]]]]]]:h&]]]]] *6<]]]]]]]]]]]]]]",
"]]]]]]]]]]]]]]]]]]]wnVE]]]]]=kc$]]]]]]]]]]]]]",
"]]]]]]]]]]]]]]]]]]DZP^'(HqpRGxl,]]]]]]]]]]]]]",
"]]]o]]17]]]]]]]]eymLLKKHvvBQ)~TH]]]]]]]]]]]]]",
"]]]#X-uf]]]]]]]zVCmfddfaNW/_`^~!D]]]]]]]]]]]]",
"]]]iza0000]]]]]sxbMSSSSAJUTYISbvs]]]]]O@]]]]]",
"]]]](z800000000098tjkkkkggggfy880]]]0853]]]]]",
"]].5sw0000000000000888888888800000000rr0882]]",
"]]+4e0000000000000000000000000000000kKFs;%>]]"
};
