/* XPM */
static char *result[] = {
/* columns rows colors chars-per-pixel */
"45 45 91 1 ",
"  c #130E09",
". c #150F0A",
"X c #1A130B",
"o c #1A130C",
"O c #1B130C",
"+ c #20170E",
"@ c #20170F",
"# c #21170F",
"$ c #211810",
"% c #221810",
"& c #2A1F14",
"* c #2F2014",
"= c #312215",
"- c #302217",
"; c #302317",
": c #342416",
"> c #342518",
", c #352518",
"< c #372618",
"1 c #382718",
"2 c #382819",
"3 c #3B2919",
"4 c #39281A",
"5 c #3C2A1A",
"6 c #3D2A1A",
"7 c #3F2B1B",
"8 c #422D1C",
"9 c #422E1C",
"0 c #432E1D",
"q c #432F1E",
"w c #442F1D",
"e c #452F1D",
"r c #452F1E",
"t c #44301E",
"y c #45301E",
"u c #46301E",
"i c #47311E",
"p c #47301F",
"a c #47311F",
"s c #48311F",
"d c #49321F",
"f c #4A321F",
"g c #4A3320",
"h c #4B3420",
"j c #4C3420",
"k c #4C3421",
"l c #4D3421",
"z c #4D3521",
"x c #4E3621",
"c c #4D3522",
"v c #4E3522",
"b c #4E3622",
"n c #4F3622",
"m c #523823",
"M c #533923",
"N c #533924",
"B c #543A24",
"V c #553A24",
"C c #553B24",
"Z c #553A25",
"A c #573B25",
"S c #583C25",
"D c #593D26",
"F c #593E26",
"G c #5D4028",
"H c #5E4028",
"J c #5F4229",
"K c #604229",
"L c #614329",
"P c #63432A",
"I c #63442A",
"U c #64442B",
"Y c #65452B",
"T c #67472C",
"R c #68472C",
"E c #6A492D",
"W c #6B492E",
"Q c #6B4A2E",
"! c #6C4A2E",
"~ c #6E4B2F",
"^ c #6E4C2F",
"/ c #6F4C2F",
"( c #704D30",
") c #714E30",
"_ c #724E31",
"` c #734E31",
"' c #734F31",
"] c #744F31",
"[ c #745031",
"{ c #745032",
"} c None",
/* pixels */
"}}}}}}}}}}}}}}}}}}}}}}}}}}}}}}}}}}}}}}}}}}}}}",
"}}}}}}}}}}}}}}}}}}}}}}}}}}}}}}}}}}}}}}}}}}}}}",
"}}}}}}}}}}}}}}}}}}}}}}}}}}}}}}}}}}}}}}}}}}}}}",
"}}}}}}}}}}}}}}}}}}}}}}}}}}}}}}}}}}}}}}}}}}}}}",
"}}}}}}}}}}}}}}}}}}}}}}}}}}}}}}}}}}}}}}}}}}}}}",
"}}}}}}}}}}}}}}}}}}}}}}}}}}}}}}}}}}}}}}}}}}}}}",
"}}}}}}}}}}}}}}}}}}}}}}}}}}}}}}}}}}}}}}}}}}}}}",
"}}}}}}}}}}}}}}}}}}}}}}}}}}}}}}}}}}}}}}}}}}}}}",
"}}}}}}}}}}}}}}}}}}}}}}}}}}}}}}}}}}}}}}}}}}}}}",
"}}}}}}}}}}}}}}}}}}}}}}}}}}}}}}}}}}}}}}}}}}}}}",
"}}}}}}}}}}}}}}}}}}}}}}}}}}}}}}}}}}}}}}}}}}}}}",
"}}}}}}}}}}}}}}}}}}}}}}}}}}}}}}}}}}}}}}}}}}}}}",
"}}}}}}}}}}}}}}}}}}}}}}}}}}}}}}}}}}}}}}}}}}}}}",
"}}}}}}}}}}}}}}}}}}}}}}}}}}}}}}}}}}}}}}}}}}}}}",
"}}}}}}}}}}}}}}}}}}}}}}}}}}}}}}}}}}}}}}}}}}}}}",
"}}}}}}}}}}}}}}}}}}}}}}}}}}}}}}}}}}}}}}}}}}}}}",
"}}}}}}}}}}}}}}}}}}}}}}}}}}}}}}}}}}}}}}}}}}}}}",
"}}}}}}}}}}}}}}}}}}}}}}}}}}}}}}}}}}}}}}}}}}}}}",
"}}}}}}}}}}}}}}}}}}}}}}}}}}}}}}}}}}}}}}}}}}}}}",
"}}}}}}}}}}}}}}}}}}}}}}}}}}}}}}}}}}}}}}}}}}}}}",
"}}}}}}}}}}}}}}}}}}}}}}}}}}}}}}}}}}}}}}}}}}}}}",
"}}}}}}}}}}}}}}}}}}}}}}}}}}}}}}}}}}}}}}}}}}}}}",
"}}}}}}}}}}}}}}}}}}}}}}}}}}}}}}}}}}}}}}}}}}}}}",
"}}}}}}}}}}}}}}}}}}}}}}}}}}}}}}}}}}}}}}}}}}}}}",
"}}}}}}}}}}}}}}}}}}}}}}}}}}}}}}}}}}}}}}}}}}}}}",
"}}}}}}}}}}}}}}}}}}}}}}}}}}}}}}}}}}}}}}}}}}}}}",
"}}}}}}}}}}}}}}}}}}}}}}}}}}}}}}}}}}}}}}}}}}}}}",
"}}}}}}}}}}}}}}}}}}}}}}}}}}}}}}}}}}}}}}}}}}}}}",
"}}}}}}}}}}}}}}}}}}}}}}}}}}}}}}}}}}}}}}}}}}}}}",
"}}}}}}}}}}}}}}}}}}}}}}}}}}}}}}}}}}}}}}}}}}}}}",
"}}}}}}}}}}}}}}}}}}}}}}}}}}}}}}}}}}}}}}}}}}}}}",
"}}}}}}}}}}}}}}}}}}}}}}}}}}}}}}}}}}}}}}}}}}}}}",
"}}}}}}}}}}}}}}}}}}}}}}}}}}}}}}}}}}}}}}}}}}}}}",
"}}}}}}}}}}}}}}}}}}}}}}}}}}}}}}}}}}}}}}}}}}}}}",
"}}}}}}}}}}}}}}}}}}}},q#}}}}}}}&}}}}}}}}}}}}}}",
"}}}}}}}}}}}}}}}}}}}}zx5}}}}}o<Ct}}}}}}}}}}}}}",
"}}}}}}}}}O}}}}}}}}}}rH^['}}}}*da}}}}}}}}}}}}}",
"}}}}}}.}->}}}}}}}}}}F!((EVT]/nv9}}}}}}}}}}}}}",
"}}}}}}@}4c}}}}}}}}}jnNVZbA~'`Ik}}}}}}}}}}}}}}",
"}}}}}};3whu}}}}}}}}PRSMNNY''[^G}}}}}}}}}}}}}}",
"}}}}}}}Aaruu}}}}}}nU_))))'[{'!J}}}}}}o}}}}}}}",
"}}}}}}}SpuuuuuuuuuulDT!!!QQWLmg}}}}u02}}}}}}}",
"}}}}}}}juuuuuuuuuuuyikvvvvvvgru}}uuukB}+ }}}}",
"}}}}}X6uuuuuuuuuuuuuuyrrrrrryuuuuuuusfe8:}}}}",
"}}}}$%6iuuuuuuuuuuuuuuuuuuuuuuuuuuugKA71=}}}}"
};
