/* XPM */
static char *result[] = {
/* columns rows colors chars-per-pixel */
"45 45 7 1 ",
"  c #030100",
". c #271507",
"X c #422811",
"o c #754D29",
"O c #FF0929",
"+ c gray92",
"@ c None",
/* pixels */
"@@@@@@@@@@@@@@@@@@@@@@@@@@@@@@@@@@@@@@@@@@@@@",
"@@@@@@@@@@@@@@@@@@@@@@@@@@@@@@@@@@@@@@@@@@@@@",
"@@@@@@@@@@@@@@@@@@@@@@@@@@@@@@@@@@@@@@@@@@@@@",
"@@@@@@@@@@@@@@@@@@@@@@@@@@@@@@@@@@@@@@@@@@@@@",
"@@@@@@@@@@@@@@@@@@@@@@@@@@@@@@@@@@@@@@@@@@@@@",
"@@@@@@@@@@@@@@@@@@@@@@@@@@@@@@@@@@@@@@@@@@@@@",
"@@@@@@@@@@@@@@@@@@@@@@@@@@@@@@@@@@@@@@@@@@@@@",
"@@@@@@@@@@@@@@@@@@@@@@@@@@@@@@@@@@@@@@@@@@@@@",
"@@@@@@@@@@@@@@@@@@@@@@@@@@@@@@@@@@@@@@@@@@@@@",
"@@@@@@@@@@@@@@@@@@@@@@@@@@@@@@@@@@@@@@@@@@@@@",
"@@@@@@@@@@@@@@@@@@@@@@@@@@@@@@@@@@@@@@@@@@@@@",
"@@@@@@@@@@@@@@@@@@@@@@@@@.@@@@@@@@@@@@@@@@@@@",
"@@@@@@@@@@@@@@@@.@@@@@@@@.@@@@.@@@@@@@@@@@@@@",
"@@@@@@@@@@@@@.@  @@@@@@@@..@@@ @@@@@@@@@@@@@@",
"@@@@@@@@@@@@@ ooo @@@@@@@  @ o @@@@@@@@@@@@@@",
"@@@@@@@@@@@@@XoooX@@@@@@@ Xo oo@@@@@@@@@@@@@@",
"@@@@@@@@@@@@@ oooX@@@@@@oXooXooo@@@@@@@@@@@@@",
"@@@@@@@@@@@@@XooooX@@@@ oXoooooX@@@@@@@@@@@@@",
"@@@@@@@@@@@@@ooooo @@.@@oooooooo@@@@@@@@@@@@@",
"@@@@@@@@@@@@@ooooo@@@ .XooooooX.@@@@@@@@@@@@@",
"@@@@@@@@@@@@@ooooX@@.@XXXooooo .@@@@@@@@@@@@@",
"@@@@@@@@@@@@@ooooXX .@XXooooooX @@@@@@@@@@@@@",
"@@@@@@@@@@@@@XooXXo++O+XXXooooX @@@@@@@@@@@@@",
"@@@@@@@@@@@@@XooXX++++++XXXoooXX@@@@@@@@@@@@@",
"@@@@@@@@@@@@@XXoXX+++++++@XoooXX@@@@@@@@@@@@@",
"@@@@@@@@@@@@@XXXXX+++++++@XXoXXX@@@@@@@@@@@@@",
"@@@@@@@@@@@@@XXXXo+++++++oXXoXXX@@@@@@@@@@@@@",
"@@@@@@@@@@@@@@XXXoo+++++ooXXXXX@@@@@@@@@@@@@@",
"@@@@@@@@@@@@@@XXoooooooooooXXXX@@@@@@@@@@@@@@",
"@@@@@@@@@@@@@@XooooooooooooXXX@@@@@@@@@@@@@@@",
"@@@@@@@@@@@@@@XooooooooooooXX@@@@@@@@@@@@@@@@",
"@@@@@@@@@@@@@@@oooooooooooo@@@@@@@@@@@@@@@@@@",
"@@@@@@@@@@@@@@@oooooooooooX@@@@@@@@@@@@@@@@@@",
"@@@@@@@@@@@@@@@XoooooooooXX@@@@@@@@@@@@@@@@@@",
"@@@@@@@@@@@@@@@XXXXXXXXXXXX@@@@@@@@@@@@@@@@@@",
"@@@@@@@@@@@@@@@XXXXXXXXXXX@@@@@@@@@@@@@@@@@@@",
"@@@@@@@@@@@@@@@@XXXXXXXXXX@@@@@@@@@@@@@@@@@@@",
"@@@@@@@@@@@@@@@@@XXXXXXXX@@@@@@@@@@@@@@@@@@@@",
"@@@@@@@@@@@@@@@@@@XXXXXX@@@@@@@@@@@@@@@@@@@@@",
"@@@@@@@@@@@@@@@@@@@XXXX@@@@@@@@@@@@@@@@@@@@@@",
"@@@@@@@@@@@@@@@@@@@@@@@@@@@@@@@@@@@@@@@@@@@@@",
"@@@@@@@@@@@@@@@@@@@@@@@@@@@@@@@@@@@@@@@@@@@@@",
"@@@@@@@@@@@@@@@@@@@@@@@@@@@@@@@@@@@@@@@@@@@@@",
"@@@@@@@@@@@@@@@@@@@@@@@@@@@@@@@@@@@@@@@@@@@@@",
"@@@@@@@@@@@@@@@@@@@@@@@@@@@@@@@@@@@@@@@@@@@@@"
};
