/* XPM */
static char *result[] = {
/* columns rows colors chars-per-pixel */
"45 45 53 1 ",
"  c #100600",
". c #140701",
"X c #150701",
"o c #130801",
"O c #170901",
"+ c #1A0C03",
"@ c #291504",
"# c #2A1806",
"$ c #2A1807",
"% c #2E1907",
"& c #341D09",
"* c #37210C",
"= c #3E260F",
"- c #412710",
"; c #412711",
": c #422711",
"> c #412811",
", c #412911",
"< c #422810",
"1 c #422811",
"2 c #432911",
"3 c #442911",
"4 c #442A11",
"5 c #442A12",
"6 c #472B12",
"7 c #492C13",
"8 c #482D15",
"9 c #4B2D14",
"0 c #4B2E15",
"q c #4D3015",
"w c #4F3219",
"e c #503217",
"r c #513318",
"t c #55361A",
"y c #58371B",
"u c #58381B",
"i c #5B391C",
"p c #5C3A1C",
"a c #5F3D1F",
"s c #603D1F",
"d c #603E1E",
"f c #613D21",
"g c #644122",
"h c #654223",
"j c #674323",
"k c #6A4524",
"l c #6D4926",
"z c #6D4927",
"x c #714B28",
"c c #754D28",
"v c #744C29",
"b c #754D2A",
"n c None",
/* pixels */
"nnnnnnnnnnnnnnnnnnnnnnnnnnnnnnnnnnnnnnnnnnnnn",
"nnnnnnnnnnnnnnnnnnnnnnnnnnnnnnnnnnnnnnnnnnnnn",
"nnnnnnnnnnnnnnnnnnnnnnnnnnnnnnnnnnnnnnnnnnnnn",
"nnnnnnnnnnnnnnnnnnnnnnnnnnnnnnnnnnnnnnnnnnnnn",
"nnnnnnnnnnnnnnnnnnnnnnnnnnnnnnnnnnnnnnnnnnnnn",
"nnnnnnnnnnnnnnnnnnnnnnnnnnnnnnnnnnnnnnnnnnnnn",
"nnnnnnnnnnnnnnnnnnnnnnnnnnnnnnnnnnnnnnnnnnnnn",
"nnnnnnnnnnnnnnnnnnnnnnnnnnnnnnnnnnnnnnnnnnnnn",
"nnnnnnnnnnnnnnnnnnnnnnnnnnnnnnnnnnnnnnnnnnnnn",
"nnnnnnnnnnnnnnnnnnnnnnnnnnnnnnnnnnnnnnnnnnnnn",
"nnnnnnnnnnnnnnnnnnnnnnnnnnnnnnnnnnnnnnnnnnnnn",
"nnnnnnnnnnnnnnnnnnnnnnnnnnnnnnnnnnnnnnnnnnnnn",
"nnnnnnnnnnnnnnnnnnnnnnnnnnnnnnnnnnnnnnnnnnnnn",
"nnnnnnnnnnnnnnnnnnnnnnnnnnnnnnnnnnnnnnnnnnnnn",
"nnnnnnnnnnnnnnnnnnnnnnnnnnnnnnnnnnnnnnnnnnnnn",
"nnnnnnnnnnnnnnnnnnnnnnnnnnnnnnnnnnnnnnnnnnnnn",
"nnnnnnnnnnnnnnnnnnnnnnnnnnnnnnnnnnnnnnnnnnnnn",
"nnnnnnnnnnnnnnnnnnnnnnnnnnnnnnnnnnnnnnnnnnnnn",
"nnnnnnnnnnnnnnnnnnnnnnnnnnnnnnnnnnnnnnnnnnnnn",
"nnnnnnnnnnnnnnnnnnnnnnnnnnnnnnnnnnnnnnnnnnnnn",
"nnnnnnnnnnnnnnnnnnnnnnnnnnnnnnnnnnnnnnnnnnnnn",
"nnnnnnnnnnnnnnnnnnnnnnnnnnnnnnnnnnnnnnnnnnnnn",
"nnnnnnnnnnnnnnnnnnnnnnnnnnnnnnnnnnnnnnnnnnnnn",
"nnnnnnnnnnnnnnnnnnnnnnnnnnnnnnnnnnnnnnnnnnnnn",
"nnnnnnnnnnnnnnnnnnnnnnnnnnnnnnnnnnnnnnnnnnnnn",
"nnnnnnnnnnnnnnnnnnnnnnnnnnnnnnnnnnnnnnnnnnnnn",
"nnnnnnnnnnnnnnnnnnnnnnnnnnnnnnnnnnnnnnnnnnnnn",
"nnnnnnnnnnnnnnnnnnnnnnnnnnnnnnnnnnnnnnnnnnnnn",
"nnnnnnnnnnnnnnnnnnnnnnnnnnnnnnnnnnnnnnnnnnnnn",
"nnnnnnnnnnnnnnnnnnnnnnnnnnnnnnnnnnnnnnnnnnnnn",
"nnnnnnnnnnnnnnnnnnnnnnnnnnnnnnnnnnnnnnnnnnnnn",
"nnnnnnnnnnnnnnnnnnnnnnnnnnnnnnnnnnnnnnnnnnnnn",
"nnnnnnnnnnnnnnnnnnnnnnnnnnnnnnnnnnnnnnnnnnnnn",
"nnnnnnnnnnnnnnnnnnnnnnnnnnnnnnnnnnnnnnnnnnnnn",
"nnnnnnnnnnnnnnnnnnnnnnnnnnnnnnnnnnnnnnnnnnnnn",
"nnnnnnnnnnnnnnnnnnnnnnnnnnnnnnnnnnnnnnnnnnnnn",
"nnnnnnnnnnnnnn%=+ nnnnn#8$nnnnnnnnnnnnnnnnnnn",
"nnnnnnnnnnnnn eq%nnnnnhyr=nnnnnnnnnnnnnnnnnnn",
"nnnnnnnnnnnnn&eraz33sbccjisnnnnnnnnnnnnnnnnnn",
"nnnnnnnnnnnnnflccltrrdggggt64nnnnnnnn3$nn+nnn",
"nnnnnnnnnnnnhxccccclt79999ttuwnnnnnnn08$oonnn",
"nnnnnX.nnnnn7rrpkklkdppppptrr6nnnnn2<117rnnnn",
"nnnnn%*<<nnn,;;599999qqqqq3;;:,<<<<:11;evnnnn",
"nn#>-:331---1111;;;;;;;;;;111111111111143& nn",
"nn@@@9dgq1111111111111111111111111111111>*Onn"
};
