/* XPM */
static char *result[] = {
/* columns rows colors chars-per-pixel */
"45 45 61 1 ",
"  c #060200",
". c #0B0300",
"X c #0D0301",
"o c #0F0500",
"O c #130501",
"+ c #120601",
"@ c #170702",
"# c #1F1205",
"$ c #271505",
"% c #2A1505",
"& c #2D1806",
"* c #2B190A",
"= c #301C09",
"- c #321C0B",
"; c #331E0B",
": c #361F0A",
"> c #38200B",
", c #3F260E",
"< c #3F2510",
"1 c #402610",
"2 c #412710",
"3 c #422711",
"4 c #432711",
"5 c #402911",
"6 c #422810",
"7 c #432810",
"8 c #432910",
"9 c #422811",
"0 c #432811",
"q c #442911",
"w c #472B11",
"e c #462A13",
"r c #472C13",
"t c #4A2C12",
"y c #4A2E13",
"u c #4B2E14",
"i c #4C2D15",
"p c #4C2E15",
"a c #4C3015",
"s c #513318",
"d c #513519",
"f c #533519",
"g c #553619",
"h c #54341A",
"j c #56361A",
"k c #57371B",
"l c #5B3A1C",
"z c #5E3C1F",
"x c #603D1E",
"c c #654122",
"v c #674222",
"b c #6A4524",
"n c #6C4725",
"m c #6E4927",
"M c #6F4927",
"N c #734B28",
"B c #734C28",
"V c #754D29",
"C c #744D2A",
"Z c #764E2A",
"A c None",
/* pixels */
"AAAAAAAAAAAAAAAAAAAAAAAAAAAAAAAAAAAAAAAAAAAAA",
"AAAAAAAAAAAAAAAAAAAAAAAAAAAAAAAAAAAAAAAAAAAAA",
"AAAAAAAAAAAAAAAAAAAAAAAAAAAAAAAAAAAAAAAAAAAAA",
"AAAAAAAAAAAAAAAAAAAAAAAAAAAAAAAAAAAAAAAAAAAAA",
"AAAAAAAAAAAAAAAAAAAAAAAAAAAAAAAAAAAAAAAAAAAAA",
"AAAAAAAAAAAAAAAAAAAAAAAAAAAAAAAAAAAAAAAAAAAAA",
"AAAAAAAAAAAAAAAAAAAAAAAAAAAAAAAAAAAAAAAAAAAAA",
"AAAAAAAAAAAAAAAAAAAAAAAAAAAAAAAAAAAAAAAAAAAAA",
"AAAAAAAAAAAAAAAAAAAAAAAAAAAAAAAAAAAAAAAAAAAAA",
"AAAAAAAAAAAAAAAAAAAAAAAAAAAAAAAAAAAAAAAAAAAAA",
"AAAAAAAAAAAAAAAAAAAAAAAAAAAAAAAAAAAAAAAAAAAAA",
"AAAAAAAAAAAAAAAAAAAAAAAAAAAAAAAAAAAAAAAAAAAAA",
"AAAAAAAAAAAAAAAAAAAAAAAAAAAAAAAAAAAAAAAAAAAAA",
"AAAAAAAAAAAAAAAAAAAAAAAAAAAAAAAAAAAAAAAAAAAAA",
"AAAAAAAAAAAAAAAAAAAAAAAAAAAAAAAAAAAAAAAAAAAAA",
"AAAAAAAAAAAAAAAAAAAAAAAAAAAAAAAAAAAAAAAAAAAAA",
"AAAAAAAAAAAAAAAAAAAAAAAAAAAAAAAAAAAAAAAAAAAAA",
"AAAAAAAAAAAAAAAAAAAAAAAAAAAAAAAAAAAAAAAAAAAAA",
"AAAAAAAAAAAAAAAAAAAAAAAAAAAAAAAAAAAAAAAAAAAAA",
"AAAAAAAAAAAAAAAAAAAAAAAAAAAAAAAAAAAAAAAAAAAAA",
"AAAAAAAAAAAAAAAAAAAAAAAAAAAAAAAAAAAAAAAAAAAAA",
"AAAAAAAAAAAAAAAAAAAAAAAAAAAAAAAAAAAAAAAAAAAAA",
"AAAAAAAAAAAAAAAAAAAAAAAAAAAAAAAAAAAAAAAAAAAAA",
"AAAAAAAAAAAAAAAAAAAAAAAAAAAAAAAAAAAAAAAAAAAAA",
"AAAAAAAAAAAAAAAAAAAAAAAAAAAAAAAAAAAAAAAAAAAAA",
"AAAAAAAAAAAAAAAAAAAAAAAAAAAAAAAAAAAAAAAAAAAAA",
"AAAAAAAAAAAAAAAAAAAAAAAAAAAAAAAAAAAAAAAAAAAAA",
"AAAAAAAAAAAAAAAAAAAAAAAAAAAAAAAAAAAAAAAAAAAAA",
"AAAAAAAAAAAAAAAAAAAAAAAAAAAAAAAAAAAAAAAAAAAAA",
"AAAAAAAAAAAAAAAAAAAAAAAAAAAAAAAAAAAAAAAAAAAAA",
"AAAAAAAAAAAAAAAAAAAAAAAAAAAAAAAAAAAAAAAAAAAAA",
"AAAAAAAAAAAAAAAAAAAAAAAAAAAAAAAAAAAAAAAAAAAAA",
"AAAAAAAAAAAAAAAAAAAAAAAAAAAAAAAAAAAAAAAAAAAAA",
"AAAAAAAAAAAAAAAAAAAAAAAAAAAAAAAAAAAAAAAAAAAAA",
"AAAAAAAAAAAAAA#AAAAAAAo0-AAAAAAAAAAAAAAAAAAAA",
"AAAAAAAAAAAAO5f= AAAAA<y8AAAAAAAAAAAAAAAAAAAA",
"AAAAAAAAAAAAA<q$AAAACZNxeAAAAAAAAAAXAAAAAAAAA",
"AAAAAAAAAAAAA7ipMNvfbBBnlAAAAAAAAAA*$A AAAAAA",
"AAAAAAAAAAAAAA0cVVmhuhhsu7AAAAAAAAAe;A+AAAAAA",
"AAAAAAAAAAAAAAzmVVVcsssjclAAAAAAAA0y2,$AAAAAA",
"AAAAAAA.AAAAAAznVVVVBBBBBcaAAAAAA729qgAAAAAAA",
"AAAAAAA=87AAAA0sxbnnnnncku9,<00062999lAAAAAAA",
"AAAA +Adu384AA89ruuuuuuuq999999999993tAAAAAAA",
"AAAA&1,wq992,,399999999999999999999968-oAAAAA",
"AAAA%::hxr9999999999999999999999999996>@OAAAA"
};
