/* XPM */
static char *result[] = {
/* columns rows colors chars-per-pixel */
"25 25 209 2 ",
"   c #381807",
".  c #241B0F",
"X  c #1F1931",
"o  c #37192F",
"O  c #3A3F21",
"+  c #5C3704",
"@  c #4C2D1E",
"#  c #532B12",
"$  c #5F321C",
"%  c #552508",
"&  c #693C04",
"*  c #69390A",
"=  c #763B04",
"-  c #6A351B",
";  c #693914",
":  c #73341A",
">  c #733317",
",  c #662C1E",
"<  c #533533",
"1  c #602F2A",
"2  c #6D352D",
"3  c #5F4600",
"4  c #5A4918",
"5  c #575106",
"6  c #664709",
"7  c #794606",
"8  c #755706",
"9  c #6E4915",
"0  c #774410",
"q  c #7B4913",
"w  c #4B4B30",
"e  c #504C3E",
"r  c #7F572F",
"t  c #765F39",
"y  c #746431",
"u  c #1C1948",
"i  c #122E77",
"p  c #262C6D",
"a  c #283D6D",
"s  c #5E374D",
"d  c #412070",
"f  c #3A4450",
"g  c #2C4B7F",
"h  c #264B6D",
"j  c #3F6871",
"k  c #296676",
"l  c #56424F",
"z  c #574752",
"x  c #654B49",
"c  c #466040",
"v  c #43615E",
"b  c #575A61",
"n  c #5E7264",
"m  c #486875",
"M  c #813F03",
"N  c #834103",
"B  c #88560A",
"V  c #854A13",
"C  c #804919",
"Z  c #8D541F",
"A  c #955712",
"S  c #98490C",
"D  c #A6580A",
"F  c #896418",
"G  c #976611",
"H  c #B97702",
"J  c #B06411",
"K  c #B2640A",
"L  c #904A2E",
"P  c #895524",
"I  c #866427",
"U  c #9B7C2B",
"Y  c #816F3F",
"T  c #956129",
"R  c #A47B2A",
"E  c #AF6D30",
"W  c #C17D1C",
"Q  c #C27424",
"!  c #825F42",
"~  c #6B845F",
"^  c #768A6F",
"/  c #988216",
"(  c #A08D0D",
")  c #B08C0D",
"_  c #B58519",
"`  c #968226",
"'  c #8E853C",
"]  c #A7882B",
"[  c #B28528",
"{  c #B08D32",
"}  c #B49832",
"|  c #9FB33B",
" . c #C78913",
".. c #D98619",
"X. c #D8921B",
"o. c #C4921C",
"O. c #D4A50E",
"+. c #D4A41D",
"@. c #DBA31C",
"#. c #CDA31C",
"$. c #E7B21C",
"%. c #CA882A",
"&. c #DC8C25",
"*. c #D68929",
"=. c #CF9C2E",
"-. c #C39C28",
";. c #D89825",
":. c #C68B36",
">. c #DF8D3A",
",. c #D0943F",
"<. c #D8A92D",
"1. c #D4B728",
"2. c #C7A938",
"3. c #D5A635",
"4. c #DBB835",
"5. c #CBB83D",
"6. c #E3A424",
"7. c #E7AA2C",
"8. c #E6A727",
"9. c #E9BA26",
"0. c #F1BC2F",
"q. c #E9B539",
"w. c #EDB334",
"e. c #FFCE1F",
"r. c #FAD81F",
"t. c #D7C831",
"y. c #EAC529",
"u. c #E8C734",
"i. c #EDDA3D",
"p. c #F5D031",
"a. c #D9E839",
"s. c #EFEC20",
"d. c #F3E62B",
"f. c #F8E82A",
"g. c #EEEA32",
"h. c #F6E632",
"j. c #858F45",
"k. c #BB9E42",
"l. c #B79A54",
"z. c #8AB552",
"x. c #B0A552",
"c. c #AFB156",
"v. c #9D9564",
"b. c #96A466",
"n. c #B5A060",
"m. c #B1B772",
"M. c #DF9241",
"N. c #CF8546",
"B. c #DDBF47",
"V. c #C7A956",
"C. c #D2AF51",
"Z. c #EBAC4A",
"A. c #DADC5B",
"S. c #CFC551",
"D. c #E8DB4C",
"F. c #F5D845",
"G. c #E7D454",
"H. c #F3D050",
"J. c #D9E551",
"K. c #FBE64A",
"L. c #F7E345",
"P. c #F8E758",
"I. c #DFC97D",
"U. c #DBD471",
"Y. c #EAC56B",
"T. c #FBCE6D",
"R. c #F7D866",
"E. c #FDED63",
"W. c #18198E",
"Q. c #1A5488",
"!. c #345B9B",
"~. c #376495",
"^. c #1D4DA0",
"/. c #0C53B1",
"(. c #3E4EAD",
"). c #1861B1",
"_. c #4C6383",
"`. c #0044E8",
"'. c #0D65F6",
"]. c #29979B",
"[. c #3A8E96",
"{. c #0E80BD",
"}. c #749693",
"|. c #4D99A0",
" X c #498ABC",
".X c #4DACA4",
"XX c #6EC5B6",
"oX c #1F8BD8",
"OX c #18AFF1",
"+X c #06ACEB",
"@X c #4791D4",
"#X c #47BCED",
"$X c #00C1E1",
"%X c #08C8F6",
"&X c #11C0FF",
"*X c #10D0F0",
"=X c #24D1F1",
"-X c #04E6F8",
";X c #5BE8D8",
":X c #4CD2EA",
">X c #70E8FF",
",X c #8B9188",
"<X c #A7AD86",
"1X c #8CCDAD",
"2X c #C1C181",
"3X c #D1C992",
"4X c #F7E48B",
"5X c #DEF5E2",
"6X c None",
/* pixels */
"6X6X6X6X6X6X6X6X6X9 U ] ] F 6X6X6X6X6X6X6X6X6X6X6X",
"6X6X6X6X6X6X6X` G.P.K.L.L.K.G.U 6X6X6X6X6X6X6X6X6X",
"6X6X6X6X6X9 4XP.h.d.h.d.h.f.h.K.Y.+ 6X6X6X6X6X6X6X",
"6X6X5 c XXs.e.F.R.( K D I J a.p.i.g.K.2.w 6 6X6X6X",
"6X= E.|.[.r.u._ L q I j.U A 0 -.p.F.F.J.].{ 6X6X6X",
"6X; h.[.~.Q 8 / t.2Xj.L y ^ m.R C  .<.U. X[ 6X6X6X",
"6X* =.z < E J.m. X(.v OX:Xm g }.x.I N r z F 6X6X6X",
"6X: 6 B A.3Xj /.b.4 '.;X5X=Xt a i ~ I.} 8 7 6X6X6X",
"6X2 A.z.!.Q.<X[ V a =X=X;X*Xx -.m.u W.p e [ 6X6X6X",
"6X6 ,XQ.^ D.} > % a >XOX-X&Xb : D R.c.b p [ 6X6X6X",
"6X6X,.H 7.q.r.D.F l ).-X-X$Xe R D.y.0.X._ A 6X6X6X",
"6X6X* * q 3.4.4.p.Y ).+X+X].x.h.4.9. .q : - 6X6X6X",
"6X6X1 > * = S Z.$.q.O h k y t.1.y.w.7 6X6X6X6X6X6X",
"6X6X2.0.C.& # B N.8.y.S.S.1.<.6.Y.7.N 6X6X6X6X6X6X",
"6X5.8.v.^.V.-   + q A G F.1.8.G E.O.N 6X6X6X6X6X6X",
"6XF.6.n `.V.> X .   2 2.9.7.W ; E.=.& 6X6X6X6X6X6X",
"- #.;.l.a Z.- . o @ 6 F.X.&.6 = 0.Z.; 6X6X6X6X6X6X",
"; <.%.K >.W %   $ F u.#.:.7 6X4 | V.= 6X6X6X6X6X6X",
"; O.M.T Z + 1 * 2.u.<.*.S 6X6X.XoX_.6X6X6X6X6X6X6X",
"6X:.X.;.=.C.B.R R.X.&.V 6X6X6X1X}.s 6X6X6X6X6X6X6X",
"6X0 *.&.X.*. .T._ %.B 6X6X6X6X|.@X4 6X6X6X6X6X6X6X",
"6X6X7 Q *.&...[ 0 q 6X6X6X6XU ....6X6X6X6X6X6X6X6X",
"6X6X6X* = = N 9 1 6X6X6X6X6X6X9 6X6X6X6X6X6X6X6X6X",
"6X6X6X6X6X6X6X6X6X6X6X6X6X6X6X6X6X6X6X6X6X6X6X6X6X",
"6X6X6X6X6X6X6X6X6X6X6X6X6X6X6X6X6X6X6X6X6X6X6X6X6X"
};
