/* XPM */
static char *result[] = {
/* columns rows colors chars-per-pixel */
"45 45 135 2 ",
"   c #040202",
".  c #0B0502",
"X  c #0E0A05",
"o  c #0C0B0B",
"O  c #120701",
"+  c #140A02",
"@  c #1B0D03",
"#  c #110E0C",
"$  c #1E1004",
"%  c #14100C",
"&  c #1E150C",
"*  c #151413",
"=  c #191616",
"-  c #1A1816",
";  c #191718",
":  c #1C1B1B",
">  c #200D01",
",  c #231305",
"<  c #2A1505",
"1  c #261A06",
"2  c #2B1906",
"3  c #21170D",
"4  c #291708",
"5  c #23190D",
"6  c #2C1B0A",
"7  c #301704",
"8  c #321B06",
"9  c #391E06",
"0  c #331E09",
"q  c #391F08",
"w  c #231C11",
"e  c #211E1C",
"r  c #322107",
"t  c #35210C",
"y  c #3C230B",
"u  c #2F2010",
"i  c #23211E",
"p  c #29251F",
"a  c #342411",
"s  c #3B2610",
"d  c #3E2A14",
"f  c #3E2E1B",
"g  c #242322",
"h  c #282725",
"j  c #2D2A25",
"k  c #2C2B2B",
"l  c #302F2E",
"z  c #383325",
"x  c #33302E",
"c  c #39332C",
"v  c #343232",
"b  c #393634",
"n  c #3C3A36",
"m  c #3D3C3B",
"M  c #41260D",
"N  c #43290E",
"B  c #4C2C0C",
"V  c #432B11",
"C  c #4A2E12",
"Z  c #4C3115",
"A  c #463219",
"S  c #4D341D",
"D  c #513415",
"F  c #523519",
"G  c #5A361D",
"H  c #553A1B",
"J  c #5A3A1C",
"K  c #613B16",
"L  c #623B1F",
"P  c #4C3F2A",
"I  c #5D3E22",
"U  c #413E3D",
"Y  c #594017",
"T  c #5C411D",
"R  c #60441B",
"E  c #5E4122",
"W  c #44413F",
"Q  c #614624",
"!  c #6C4B22",
"~  c #624628",
"^  c #6C4428",
"/  c #6C4C2A",
"(  c #734F2C",
")  c #6F502E",
"_  c #715126",
"`  c #73532D",
"'  c #745331",
"]  c #785733",
"[  c #7D5C32",
"{  c #444342",
"}  c #494745",
"|  c #4B4946",
" . c #4D4B4B",
".. c #514E4C",
"X. c #52514F",
"o. c #555453",
"O. c #5A5655",
"+. c #5B5956",
"@. c #5D5B5A",
"#. c #615C50",
"$. c #615E5D",
"%. c #63605F",
"&. c #68625B",
"*. c #656362",
"=. c #696763",
"-. c #6C6965",
";. c #6D6B6A",
":. c #716E6C",
">. c #6F706F",
",. c #73716F",
"<. c #7A756E",
"1. c #757472",
"2. c #797675",
"3. c #7A7877",
"4. c #7E7C7B",
"5. c #817F7D",
"6. c #87807A",
"7. c #8B847F",
"8. c #848383",
"9. c #8C8682",
"0. c #8A8986",
"q. c #8A8788",
"w. c #8B8A89",
"e. c #938D87",
"r. c #938E8A",
"t. c #959392",
"y. c #9E9791",
"u. c #9C9896",
"i. c #9D9C9C",
"p. c #A29D98",
"a. c #A0A0A0",
"s. c #ADA8A5",
"d. c #B7B1AE",
"f. c #BAB4AE",
"g. c None",
/* pixels */
"g.g.g.g.g.g.g.g.g.g.g.g.g.g.g.g.g.b U X...{ o. .} l * g.g.g.g.g.g.g.g.g.g.g.g.g.g.g.g.g.g.",
"g.g.g.g.g.g.g.g.g.g.g.g.g.g.b } v 1.2.U 1.@.t.i.w.5.O.o.} x g.g.g.g.g.g.g.g.g.g.g.g.g.g.g.",
"g.g.g.g.g.g.g.g.g.g.g.g.c } >.3. .+.+.{ @.m :.4.;.%.8.4.*.n i g.g.g.g.g.g.g.g.g.g.g.g.g.g.",
"g.g.g.g.g.g.g.g.g.g.g.x b +.;.;.@.O.$.O.U } :.4.;.} t...3.t.@.| i g.g.g.g.g.g.g.g.g.g.g.g.",
"g.g.g.g.g.g.g.g.g.g.} { o  .;.*.3.o.*.*. .o.3.1.*.X.8. .@.;.*.;.;.p g.g.g.g.g.g.g.g.g.g.g.",
"g.g.g.g.g.g.g.g.g.{ o.,.{ i O.+.=.;.,.1.} { #.:.=.m =. .@.{ =.4.>.{ j g.g.g.g.g.g.g.g.g.g.",
"g.g.g.g.g.g.g.g.v X.o.@.>.k v +.;.@. .n e k } ;.*.k o. .@.m ,.;.@.U h b g.g.g.g.g.g.g.g.g.",
"g.g.g.g.g.g.g.| k n m X.O.m g m { v o     o o = ; ; k W { 1.1.o.O.k v v i g.g.g.g.g.g.g.g.",
"g.g.g.g.g.g.O.x @.v { +.$...; * % o       o + + + & % * l ;.*.o.m l  . .g g.g.g.g.g.g.g.g.",
"g.g.g.g.g.g.v = l | o.$.%.b = .   $ $ < @ & N y s C s + *  .} } v k ;.8.g h g.g.g.g.g.g.g.",
"g.g.g.g.g.W h b : e } ;.v *     . d r N 2 3 C D H K R < + o k U l *.4.4.%.g g.g.g.g.g.g.g.",
"g.g.g.g.g.* } =.*.v v m *     O $ E y N < 5 B J J J [ y 2 &   ; v 1.;.*.o.g | g.g.g.g.g.g.",
"g.g.g.g...o.+.$.*.@.U ;     + 4 , ! t N , 3 C J J D [ Z N t . o U *.@.o.:.*.= g.g.g.g.g.g.",
"g.g.g.g.| } $.9.>.O.e     X , y < ) q Z $ 5 N J J B [ Z N Z O @ e ;.8.q.$.o.k * g.g.g.g.g.",
"g.g.g.g.v } ..o.%.%.o   + , 0 Z 7 ' M D , & N F D M ` D Z H @ u ; +.8.;.*.o.b # g.g.g.g.g.",
"g.g.g.g.g } O.o.%.l     5 0 s C 8 ( M V , 5 y D B 9 _ Z Z E < S + j ;.;.$.@.l * g.g.g.g.g.",
"g.g.g.p i b ..+.o.;   . a y N Z q ' N M , 3 y Z C q _ C Z J 7 ~ @ g b m b g o : g.g.g.g.g.",
"g.g.g.v : k g l k % . + A Z N N y ' y V , 5 y C V < ! Z C D 7 ` < % o   * g l l g.g.g.g.g.",
"g.g.g.k o ; g : = o X $ H Z N V y ( y M $ w 9 V V > R B V Z 7 ' 7 . * { =.>.@.l   g.g.g.g.",
"g.g.g.v { +.@. .*   O 6 Q H N N q ( M M @ 3 q V N @ R N N Z 7 ] t X ; o.8.=.$.k   g.g.g.g.",
"g.g.g.b +.@.=.:.*   + t / J Z Z q ^ M M @ w q C t @ Y C s N 2 ] M @ ; O.>.$.O.:   g.g.g.g.",
"g.g.g.k v l { } o   @ N _ H Z N q ^ q C @ 3 M V y @ D N y N r ` M > * n m v k o   g.g.g.g.",
"g.g.o.8.1.t.t.w.o   < Z ( Z N y q L q V @ w q C y @ H Z N y 8 / V , g t.q.q.8.*.: g.g.g.g.",
"g.g.o.}  . .o.o.%   , F ` C N N 8 G M s $ w q V t @ T V B y 9 ( V 5 g @.*.@.} b ; g.g.g.g.",
"g.g.+.} { | %.*.o   < J ` V N N q I V t $ 6 y y y @ H N C N y / C < g O.@...m } : g.g.g.g.",
"g.g.} v {  .@.}     + C H 4 < , > s 2 4 O $ @ < < . y , < < @ Z 2 + e U { U { { # g.g.g.g.",
"g.g.{ * : e : =   * +.e.f.d.d.d.s.p.6.&.c k 6.0.p.,.7.9.7.e.e.e.<.m : l b U { l o g.g.g.g.",
"g.g.g.  o o # #   o - h c b U l | &.&.*.U v %.&.o.c z n | b j l m ; o . . o o     g.g.g.g.",
"g.g.g.o o : : ; o o g j c b O.j j 3.,.z % ; : n i.b e e #.e e - O.= * # * * = o   g.g.g.g.",
"g.g.g.; g v { l         .       W  .o.W       +.{ +.#               * h X.%.O.k   g.g.g.g.",
"g.g.g.h k X.@.} .   . < y @ O + u.v { w.  X   @.m { f @ O O   > + . :  .>.>.*.{   g.g.g.g.",
"g.g.g.g l  .;.O.    , J / d 2 1 n 2.U 0.@ % @ 8.U w.P y 0 2 @ V y , : } @.X...k   g.g.g.g.",
"g.g.g.= e k { l     < V / V 6 2 w  .>.j + % , p 1...f t y 6 + V V < % k k k k ;   g.g.g.g.",
"g.g.g.n 1.;.2. .    < N I s 4 < O .   + + @ ,     X f r r < @ d C , e :.@.$.;.o.  g.g.g.g.",
"g.g.g.; v b g *     @ V P t < < @ w + < + % , $ . . S r 0 < + V N , e } o. .{ k   g.g.g.g.",
"g.g.g.o * k h i o   , t J 6 , 4 @ d r 6 X % $ $ $ $ S r 6 < + d V < g v m } m ;   g.g.g.g.",
"g.g.g.: o.:.*.@.    @ 2 G 2 , 6 + a 0 2 X % , @ $ @ f 6 t 2 O a y , g = h k g o   g.g.g.g.",
"g.g.g.k o.O.O. .    @ 4 D 2 @ 4 O u < 6 X + + @ @ O a < r , . a 2 $ : U @.} m :   g.g.g.g.",
"g.g.g.o * : k ;     . , A 5 , , O t < 1 O X + , @ + 6 , 1 , . u < @ o i h i g :   g.g.g.g.",
"g.g.g.m %.*.4.@.    X $ V , @ $ X 6 , , . X @ , + + 6 $ < 4 + a , @ - @.4.;.;.*.  g.g.g.g.",
"g.g.g.b o.O.%.X.o   . @ y @ @ $ . 5 , @ . X O , O . 4 @ > < + s , + ; { %.O. .{   g.g.g.g.",
"g.g.g.j O.o...}     . @ a + @ $ . 6 , ,   + @ , . . 1 @ , > + u , # : m O.O. .b   g.g.g.g.",
"g.g.g.= U | U k       @ 6 @ @ @ . 0 @ , . X O @ . . < + @ @ O a < @ ; l } { U g   g.g.g.g.",
"g.g.g.o * = * *     O @ r + + , . 0 @ >   O O O . . q @ @ @ O a < @ * : k g h * g.g.g.g.g.",
"g.g.g.g.g.g.g.g.g.g.g.g.g.g.g.g.g.e p W v k v j h = 5 g.g.g.g.g.g.g.g.g.g.g.g.g.g.g.g.g.g."
};
