/* XPM */
static char *result[] = {
/* columns rows colors chars-per-pixel */
"17 17 6 1 ",
"  c #7A0000",
". c #991111",
"X c #AD2626",
"o c #C23232",
"O c #FFD4D4",
"+ c None",
/* pixels */
"+++++++++++++++++",
"++.XXXX+++ooooo++",
"+...XXXX+XXooooo+",
"+....XXXXXXXOOoo+",
"+ ....XXXXXXXOoo+",
"+  ....XXXXXXXoo+",
"+   ....XXXXXXXo+",
"++   ....XXXXXX++",
"+++   ....XXXX+++",
"++++   ....XX++++",
"+++++   ....+++++",
"++++++   ..++++++",
"+++++++   +++++++",
"++++++++ ++++++++",
"+++++++++++++++++",
"+++++++++++++++++",
"+++++++++++++++++"
};
