/* XPM */
static char *result[] = {
/* columns rows colors chars-per-pixel */
"25 25 176 2 ",
"   c #9E4D0C",
".  c #A44108",
"X  c #A94709",
"o  c #AE4F0B",
"O  c #B44D0C",
"+  c #B94E0E",
"@  c #AE550C",
"#  c #B7570D",
"$  c #B45C0E",
"%  c #BF5A0E",
"&  c #A65D19",
"*  c #BF600F",
"=  c #AC631E",
"-  c #B5701D",
";  c #BE7725",
":  c #C15C0E",
">  c #DD5707",
",  c #DA5408",
"<  c #DA5E0C",
"1  c #C35910",
"2  c #C95F10",
"3  c #EF5E07",
"4  c #C96212",
"5  c #C46E14",
"6  c #CD6914",
"7  c #C26D18",
"8  c #D36F18",
"9  c #C5741A",
"0  c #C97D1F",
"q  c #D47416",
"w  c #DD7316",
"e  c #D77418",
"r  c #D37C1A",
"t  c #DC7D1B",
"y  c #E6650C",
"u  c #EC640A",
"i  c #F56607",
"p  c #F66B07",
"a  c #F46508",
"s  c #F66C08",
"d  c #F3710B",
"f  c #F87108",
"g  c #E36F13",
"h  c #E37313",
"j  c #EA7412",
"k  c #E47B16",
"l  c #EE7E14",
"z  c #E37C1B",
"x  c #F67E11",
"c  c #CD722C",
"v  c #D27022",
"b  c #D67A2B",
"n  c #DC7B2A",
"m  c #DD831E",
"M  c #EF8010",
"N  c #E4811A",
"B  c #EB851B",
"V  c #EE8C1A",
"C  c #F18416",
"Z  c #F38B19",
"A  c #EB911F",
"S  c #F69817",
"D  c #F5921B",
"F  c #F9941B",
"G  c #DB8421",
"H  c #DB8D25",
"J  c #DE8F29",
"K  c #DF9B2D",
"L  c #DB9325",
"P  c #DC9832",
"I  c #E18224",
"U  c #E48A24",
"Y  c #EE8A24",
"T  c #E68329",
"R  c #E48A2C",
"E  c #F38B24",
"W  c #E59524",
"Q  c #EF9323",
"!  c #ED9826",
"~  c #ED9629",
"^  c #E09C2D",
"/  c #EB9A29",
"(  c #F39B22",
")  c #F89C21",
"_  c #F99728",
"`  c #F3992C",
"'  c #E29A30",
"]  c #E39439",
"[  c #E79E3A",
"{  c #F19B34",
"}  c #EEA327",
"|  c #EDA62C",
" . c #E9AC2A",
".. c #F1A426",
"X. c #F9A423",
"o. c #F6AA25",
"O. c #FCAB26",
"+. c #F1A32D",
"@. c #FFA42C",
"#. c #F4AC2C",
"$. c #FBAC29",
"%. c #EAB52F",
"&. c #F7B12B",
"*. c #FDB42B",
"=. c #FEBB2C",
"-. c #E4A033",
";. c #E8A731",
":. c #E7AC32",
">. c #EAAC33",
",. c #EAA43F",
"<. c #E7AD3C",
"1. c #E9AC3A",
"2. c #F8AB30",
"3. c #F8AE3A",
"4. c #E9B132",
"5. c #EDBB3B",
"6. c #F4B331",
"7. c #F8B334",
"8. c #FCBE32",
"9. c #FBBA3D",
"0. c #FEC32E",
"q. c #FECA2D",
"w. c #EDC03C",
"e. c #FEC431",
"r. c #FDCA34",
"t. c #F3CA3C",
"y. c #FECD3B",
"u. c #F2C43B",
"i. c #FFD137",
"p. c #FFD33A",
"a. c #FFD93D",
"s. c #EAAB4C",
"d. c #FAB645",
"f. c #F8BB40",
"g. c #F7C146",
"h. c #F5CE43",
"j. c #FFCB44",
"k. c #F9C64E",
"l. c #FBD444",
"z. c #F7DD44",
"x. c #FEDC44",
"c. c #F7D44A",
"v. c #FCD44C",
"b. c #FBDC4A",
"n. c #F5C454",
"m. c #FCD152",
"M. c #FFDE51",
"N. c #FAD35F",
"B. c #FADD5C",
"V. c #FEE344",
"C. c #FFE947",
"Z. c #FCE44B",
"A. c #FFEB4D",
"S. c #FFF24D",
"D. c #FEE453",
"F. c #FEEB53",
"G. c #FDE65E",
"H. c #FFF453",
"J. c #FFF45B",
"K. c #FBD66F",
"L. c #FFEE67",
"P. c #FFF463",
"I. c #FFF66A",
"U. c #FEE67C",
"Y. c #FFF473",
"T. c #FFF47C",
"R. c #FFED8E",
"E. c #FFF484",
"W. c #FFF78B",
"Q. c #FFF888",
"!. c #FFF997",
"~. c #FFF89C",
"^. c #FFF5A0",
"/. c #FFF9A7",
"(. c #FFFAB3",
"). c None",
/* pixels */
").).).).).).).).).E.E.Q.E.U.K.).).).).).).).).).).",
").).).).).).).Y.I.I.I.I.I.Y.E.W.U.D.).).).).).).).",
").).).).).L.L.J.H.D.b.c.Z.F.J.Y.~.~.P.).).).).).).",
").).).).G.F.A.h.W t m N G H :.b.P.W.(.I.S.).).).).",
").).).B.D.x./ t >.c.D.A.D.c.1.J w.J.Q.(.P.H.).).).",
").).N.M.x.U U b.H.H.H.H.H.H.J.B.K 5.J.!./.H.).).).",
").).m.b.! U Z.H.H.H.H.H.H.A.S.H.G.-.u.J./.Y.F.).).",
").n.l.8.z l.F.A.A.H.H.H.u.L Z.H.J.B.K b.Y.E.A.).).",
").g.y.A ;.Z.A.5.G :.t.| y h V.S.S.H.<.4.F.T.D.m.).",
").f.e.m t.Z.A.b.h , < u p k z.S.S.A.h.L x.P.D.j.).",
"s.9.&.G a.x.V.A.) a p d f g t.A.C.V.V.G u.F.D.9.).",
"s.7...G p.a.x.V.$.p f f f u q t.V.V.a.m &.x.x.3.).",
"[ #.} m y.p.a.=.d i p f p p > 2 %.a.i.t +.y.y.{ ).",
"] ..} r e.r.r.C 3 i i p p p d k  .i.0.q } 8.6.R ).",
"] ~ #.9 &.0.*.l x x f a u Z 0.r.r.0.$.6 ..$.! b ).",
").U #.0 W *.0.q.r.y.d.u y #.q.0.=.*.z 8 ( X.G c ).",
").I Q ^ 7 o.$.*.=.=.v.{ g *.=.*.O.( 1 z Q Z v c ).",
").T N +.c r X.o.O.O.*.k.! O.O.X.) 4 2 B C z v ).).",
").).z N ^ = q S ) X.) o.o.) ) Z 2 + k l l z n ).).",
").).).z N P = 4 B D F S D Z w O O w k l B T ).).).",
").).).Y k z J -   o % : # X . % w h l Z E ).).).).",
").).).).Q k h z r 5 $ @ # 4 w h h x F _ ).).).).).",
").).).).).).V h h h h h g g j l S O.@.).).).).).).",
").).).).).).).#.! D B B Y ` 2.=.*.).).).).).).).).",
").).).).).).).).).).).).).).).).).).).).).).).).)."
};
