/* XPM */
static char *result[] = {
/* columns rows colors chars-per-pixel */
"45 45 65 1 ",
"  c black",
". c #010101",
"X c #020202",
"o c gray1",
"O c #040404",
"+ c gray2",
"@ c #060606",
"# c #070707",
"$ c gray3",
"% c #090909",
"& c gray4",
"* c #0B0B0B",
"= c #0C0C0C",
"- c gray5",
"; c #0E0E0E",
": c gray6",
"> c #101010",
", c #111111",
"< c gray7",
"1 c #131313",
"2 c gray8",
"3 c #151515",
"4 c #161616",
"5 c gray9",
"6 c #181818",
"7 c #191919",
"8 c gray10",
"9 c #1B1B1B",
"0 c gray11",
"q c #1D1D1D",
"w c #1E1E1E",
"e c gray12",
"r c #202020",
"t c gray13",
"y c #222222",
"u c #232323",
"i c gray14",
"p c #252525",
"a c gray15",
"s c #272727",
"d c #282828",
"f c gray16",
"g c #2A2A2A",
"h c gray17",
"j c #2C2C2C",
"k c #2D2D2D",
"l c gray18",
"z c #2F2F2F",
"x c gray19",
"c c #313131",
"v c #323232",
"b c gray20",
"n c #343434",
"m c #353535",
"M c gray21",
"N c #373737",
"B c gray22",
"V c #393939",
"C c #3A3A3A",
"Z c gray23",
"A c #3C3C3C",
"S c gray24",
"D c #3F3F3F",
"F c gray25",
"G c #414141",
/* pixels */
"nyqBM2BNmmnBgXbMzhMMnvh.4bvcnzuOznzkmg,f.&xmb",
"Vuwm<kn<+MVNf6b0Mm%VxbOfggjabyd-ckcpbg1.w7ydk",
"C0rCfNzcpMxVi64eZpZNv$jtfcfnMvgh;xvfnbao7c6o3",
"NcCN-n9mmbBMB4BuNcVvvpwgfngj9p94%mb5bc>nljhx@",
"jyhn,O9n#o.oahMvNG%nk;;<mMlhnBwmCkM1cl%k5pwsi",
"Bnlvfy8BvMmxNwMm2biBBxcnlxncmmvzccCckzzsykhpe",
"><n6e.#+ X: .X o+&oOXo+X XOxOdpa2dBhkechjkkbz",
"tazj97bVmNcbBVNNeCNBgSBcczilgxbbBmbchkazz.avj",
"B bACnnoNvnMBBdZvanMhn#2.bmx#b jV> xzsu3kad+2",
" 8mVMvyeinNng35Mv*znNAm3,zky.n.vfptlvcbg*;txc",
"5<XNMk66lf,BxdA Bb:X.=%%7N@1px-Mad 2hh.  oth0",
"=8c2ke1zvBjvMM%:BnBnZMN30k84nz<zzq.9ufpdtdq8<",
"93n&>3,gk@bcvFN7NBwVn5rB#63zBz7vcq5wMsladksfl",
"ir8dZy+h5aomxxc>mveNOsmm@naclkuj+ix.@d.0r+VX.",
"n9rAmveBzBmbnlb@x>754& Zygt3<c@3N0151Ngfhdyfa",
"bvcmVbnzNBAVMzvzmZMvCktpzMvBsxcsiimaxBicu#Xr#",
"71izknujsvvhlmZduphjCcnxzhbnmmMcmbnxchkcyfihk",
"cxdkmVmbvmMbgnBncbbNyMmbMmlhAnimxcgvyfwpklvhq",
"6rgxv-,jbnmjh:mA<jAN9zMMtznzxvqmmbs4c@i$jsflr",
"rrfnl#diNmcoc-anfeeNu+0xtMSdo.rznzpNjaecjrxj.",
"czV:cnNmCm@pwNbbbnClavbnCv.vmnynM=qjcmkxd=xpX",
"czN%Bbvr,lax7k9zgMAxdmdNvb;zmlpxvo1t,zk;pskf>",
"cvbvVMbvv7ej*bnlnfBz:NjmvtXmbc0bz25udxxlskh;.",
"o89vf<* CymddnnbZnNnCNxdgzvxkvcNhhwh.+xx-tvrf",
"bnxhMbNcnmbmVzhknMbNxMknybvMNklmjkkjhzdbhffze",
"4ejDSZVbNCSAkl    o.+%:OOb*dorgNxuXixspuharir",
"kbmmNMBbcxlMCmvlryfhkkblkjjvssdMsstgjkskhpdpd",
"lcvNO.. AByMobCBnnb+xlzx.fvxvcb &nhzjjkslh@fx",
"ylvdcbwfnjxMuMbxMkf+vvxhgznwmbkpxhfbX oo.tw0w",
" vbbtVMucnbbinmNnjarfctipbnmnz.eczxciufjn7epa",
"0mdn6vbyznjvqvbVxdiknvri#zt=f#s*zvkklfctsd$5q",
"wxwnrvV0yzfxacsn&e5cbytdubzzckadcbaxfd<1gp$pe",
";-bn2bm0M0>Bsjtzkqujm8p5hxblkchgzqegd45wgx>i=",
"fkauicv0zpxvxvdjbifanrztethhxknibzlp3+X:%$gae",
"O+@tz@3 o. o+Xo.*O-uzh0lds6<$=X;23yyuhadparu4",
"fxkvzBbbllhzljcMbnNnbnzclbjrisygztpkpedrydit8",
"xsjmckvkklzzhkvxzjzxfcbczkkznkhh7fh8lljtpjefi",
"xemab2wxxlgfcc  zcj9lgltkczejishfl9rdst6raO0f",
"zuXpl8+2@v$jnczjffl5czzjllldvh uaf #*y. .>gsy",
"zggnxjshcsC. cxkg2vtlskdxlslh%ayjhffjisugsppu",
"afdlxso.jcvfcf5adsguhhdklillcfdpzysahkyijXppr",
"ae5xk=zy<xilxbhlzgbqzilgnXzgfuwakjf.ggp2*y,qr",
"uwfxlczf=hlvch2XrOjhap0gcpljfpjaka7ifu8y3sytu",
"djkdzxufjzlllhtt<ixajjkzhkhshjzdfhhlzzadptuya",
"aetfdfspdhxsvcggsjhjvjkgjjl8gj9irdfgraepp-$ X"
};
