/* XPM */
static char *result[] = {
/* columns rows colors chars-per-pixel */
"45 45 72 1 ",
"  c #030303",
". c #0C0C0C",
"X c #141414",
"o c #131810",
"O c #1C1C1C",
"+ c #1D3619",
"@ c #173919",
"# c #1B3D1B",
"$ c #2F2E18",
"% c #22371E",
"& c #293319",
"* c #233D1C",
"= c #293E1C",
"- c #242424",
"; c #252A23",
": c #2B2E27",
"> c #2C2C2C",
", c #263624",
"< c #2D3C2C",
"1 c #343F29",
"2 c #333333",
"3 c #373B36",
"4 c #3A3A3A",
"5 c #1F411D",
"6 c #21421E",
"7 c #25491F",
"8 c #254720",
"9 c #294522",
"0 c #264B20",
"q c #294D21",
"w c #324728",
"e c #39472E",
"r c #3C4C2F",
"t c #2C5223",
"y c #315026",
"u c #345B26",
"i c #335328",
"p c #365B28",
"a c #3A5D2A",
"s c #364430",
"d c #3B4234",
"f c #3C632A",
"g c #42562D",
"h c #455237",
"j c #445A34",
"k c #4A593B",
"l c #42662D",
"z c #426A2E",
"x c #446730",
"c c #4C6533",
"v c #466B31",
"b c #4D6D34",
"n c #4E6639",
"m c #506E35",
"M c #546E3B",
"N c #4B7333",
"B c #527437",
"V c #527936",
"C c #56753C",
"Z c #5B763E",
"A c #577B3A",
"S c #5B7F3C",
"D c gray25",
"F c #5E7840",
"G c #578038",
"H c #5C823B",
"J c #62833F",
"K c #638B3F",
"L c #638141",
"P c #658B41",
"I c #698D43",
"U c #6C9444",
/* pixels */
"2;BkbPCHUUGnnGdMUIkJdZZIghj2jp,.FHd>drbrlo222",
"4;fjVGNVHzGPHNCfVLbNbF=NMBxbiaccNHfsFHVvGb;>>",
"3%paVNvffuzNffzuffvfzaypxffztplzafapfNffvHj X",
"<8ufNfft7tqtqt00ttqtq7tqtqt0qttqtq8tqtqqtVPh.",
",9zxzqq6@55558##85505@6#*68##66*85@655655fPJ:",
"4sAft665#5#@@,#5#@@5###@&&8#5#+$6%#6@@##@6VU1",
"XX2XO .   .      .    .    2 --;X-4>>&2>>>>2>",
"--2>OX2422223442-424>4322>->>2224222->->> >2>",
"3 24422 422242>42-22>2 X 222.2 >4. >2--X>-> X",
" X2422---242>XX42.22442XX>>- 2 2>-->222>..->2",
"XX 43>OX>>X22-4 42X  ...X4 X-2.2-> X>>    ->O",
".O2X>OX>24>232..4242424XO>OX2>X>>O O->----OOX",
"OX2..XX>> 222D2O24O42X-4.OX>42O22OOO2->->>>>>",
"-OO>4- >O- 2>22X22O4 >22 2-2>>-> -> .> OO 2  ",
"2O-432O3>4222>2 2XOXX. 4->-XX2 X4OXXX2>->>->-",
"22>242224444222224224>-->222-22---2-24-2-  O ",
"OX-2>2->-22>>24>-->>4222>>22342222222>>2->->>",
">2->24222222>2422222-22222>>42-2>2>2---->>>>O",
"OO>>2.X>222>>X44X>44O222-22>>2O422>X2 - >->>-",
"O->2>.>-432 2.-2--O4- O2-24>  ->22-2>--2>O2> ",
"2>4X223242 -O4222242-22242 222-22.O>22>>>.2- ",
"2>2.422OX>-2O>O>>242>2>222.>3>-22 X-X2>X-->>X",
"222242222O->.22>2>4>.2>22O 22>O22XX--2>>>>>. ",
" XO2-X. 4-2--3224242442>>222>224>>O>  2>.-2O-",
"222>224222244>>>222322>2O2224>22>>>>>2>2>>>2O",
"XO>4D44224D4>2       .X .2.- O>4>- -2--->-O--",
"2222322222>2422>O->>>>2>>>>2---3->O>>>->>----",
">224    44-4 244222 2>2> -22222 .2>2>>>>>> >2",
"->2>22O-2>22-22>3>> 22>>>22O32>>>>>2     OOO-",
" 222-44-2222-2342>-->>---2232> O2>>2-->>2O---",
"O2>2X22->2>2O2242-->22-- 2O.>.-.22>>>-2->-.XO",
"O>O2O24O->>2-2-2.-X22----22>>>->22->>>.X>-.-O",
"..32X22O2O.4->->>O->3O-O>>2>>2>>>OO>>XX->>X-.",
">>---22O2-2222->2->-2O>-O->>>>2-22>-X  ...>-O",
"  .->.X       . . .-2>O>>-OX.. .XX--->>-----X",
">>>2>422>>>>>>22224222>2>2>O--->>-->---O---OO",
"2->32>2>>>2>>>22>>2>-2222>>>2>>>O>>X>2>-->O>-",
"2O2-2XO22>>-2>  >2>O>>>->22O>-->>>OO>--X-- O>",
"2- ->O X.>.>2>>>->2X22>>>>>>2> --> ..-   .>--",
">>>22>->2-4  22>>X2->->>2>>>>.-->>->>--->>---",
"->>>2-  >22-2>X-->>->>->>-2>2>>->--->>O-> --O",
"-OX2>.>-X2-222>>>>2O2O>>3 >>--O->>> >>-X.-XO-",
"-O>>>2>>.>>2>>X O.>>--O>2->>>->->>O->-O-X----",
">>>>>2->>>>>>>--X-2->>>2>>>->>2->>>>>>->-O---",
"----->-->>>-22>>->>>2>>>>>>O>>O-O->>-----.   "
};
