/* XPM */
static char *result[] = {
/* columns rows colors chars-per-pixel */
"45 45 9 1 ",
"  c #030100",
". c #130500",
"X c #271507",
"o c #422811",
"O c #754D29",
"+ c #FF0929",
"@ c #CDC1C1",
"# c gray92",
"$ c None",
/* pixels */
"$$$$$$$$$$$$$$$$$$$$$$$$$$$$$$$$$$$$$$$$$$$$$",
"$$$$$$$$$$$$$$$$$$$$$$$$$$$$$$$$$$$$$$$$$$$$$",
"$$$$$$$$$$$$$$$$$$$$$$$$$$$$$$$$$$$$$$$$$$$$$",
"$$$  X$$$$$$$$$$$$$$$$$$$$$$$$$$$$$$$$$$$$$$$",
"$$$$o O$$$$$$$$$$$$$$$$$$$$$$$$$$$$$$$$$$$$$$",
"$$$OoooO$$$$$$$$$$$$$$$$$$$$$$XX$$$$$$$ X$$$$",
"$$X ooooO$$$$$$$$$$$$$$$$$$$$$  X$$$$OOO X$$$",
"$$  $ooooO$$$$$$$$$$$$$$$$$$$$O X$$OOOoo  $$$",
"$$ $$$OoooOOOO$$$$$$$$$$$$$$$Oo  OOOooo$$ $$$",
"$$$$$XooooooooOO$$$$$$$$$$$$OOoo Oooooo$$$$$$",
"$$$$X oooooooooooo$$$$$$$$OOooooOoooooo$$$$$$",
"$$$$  $$$$ooooooOOOOOOO$$OOooooooooooooO$$$$$",
"$$$$$$$$$$$$$oO###OOOoOOOOooooooooooooooO$$$$",
"$$$$$$$$$$$$$$#####ooooOOooooooooooooooo X$$$",
"$$$$$$$$$$$$$##+####oooOOoooooooooooooooo X$$",
"$$$$$$$$$$$$$##+###@ooooooooooo$$$$oooO$$$ $$",
"$$$$$$$$$$$$$##+##@@oooooooo$$$$$$$$$oXX$$ $$",
"$$$$$$$$$$$$$o###@@oOOOoooo$$$$$$$$$$$ X$$$$$",
"$$$$$$$$$$$$$$o@@@OOOooooo$$$$$$$$$$$$$ $$$$$",
"$$$$$$$$$$$$$o.ooOOo.#oooo$$$$$$$$$$$$$ $$$$$",
"$$$$$$$$$$$$$$.#.#.#...ooo$$$$$$$$$$$$$ $$$$$",
"$$$$$$$$$$$$$$$........oo$$$$$$$$$$$$$$$$$$$$",
"$$$$$$$$$$$$$$$........ooO$XX$$$$$$$$$$$$$$$$",
"$$$$$$$$$$$$$$$$#.#.#.#oOOO  $$$$$$$$$$$$$$$$",
"$$$$$$$$$$$$XoO$OOOOOOOoOoo$ $$$$$$$$$$$$$$$$",
"$$$$$$$$$$$X OoOooooooooOo$$$$$$$$$$$$$$$$$$$",
"$$$$$$$$$$$ $oooo$$oooooo $$$$$$$$$$$$$$$$$$$",
"$$$$$$$$$$$$$Xoo$$$ooooo XX$$$$$$$$$$$$$$$$$$",
"$$$$$$$$$$$$X $$$$$ooo$$$$$$$$$$$$$$$$$$$$$$$",
"$$$$$$$$$$$$$$$$$$$$oo$$$$$$$$$$$$$$$$$$$$$$$",
"$$$$$$$$$$$$$$$$$$$$$oO$$$$$$$$$$$$$$$$$$$$$$",
"$$$$$$$$$$$$$$$$$$$$$oo$$$$$$$$$$$$$$$$$$$$$$",
"$$$$$$$$$$$$$$$$$$$$$$oO$$$$$$$$$$$$$$$$$$$$$",
"$$$$$$$$$$$$$$$$$$$$$$oo$$$$$$$$$$$$$$$$$$$$$",
"$$$$$$$$$$$$$$$$$$$$$$$$$$$$$$$$$$$$$$$$$$$$$",
"$$$$$$$$$$$$$$$$$$$$$$$$$$$$$$$$$$$$$$$$$$$$$",
"$$$$$$$$$$$$$$$$$$$$$$$$$$$$$$$$$$$$$$$$$$$$$",
"$$$$$$$$$$$$$$$$$$$$$$$$$$$$$$$$$$$$$$$$$$$$$",
"$$$$$$$$$$$$$$$$$$$$$$$$$$$$$$$$$$$$$$$$$$$$$",
"$$$$$$$$$$$$$$$$$$$$$$$$$$$$$$$$$$$$$$$$$$$$$",
"$$$$$$$$$$$$$$$$$$$$$$$$$$$$$$$$$$$$$$$$$$$$$",
"$$$$$$$$$$$$$$$$$$$$$$$$$$$$$$$$$$$$$$$$$$$$$",
"$$$$$$$$$$$$$$$$$$$$$$$$$$$$$$$$$$$$$$$$$$$$$",
"$$$$$$$$$$$$$$$$$$$$$$$$$$$$$$$$$$$$$$$$$$$$$",
"$$$$$$$$$$$$$$$$$$$$$$$$$$$$$$$$$$$$$$$$$$$$$"
};
