/* XPM */
static char *result[] = {
/* columns rows colors chars-per-pixel */
"45 45 8 1 ",
"  c #040100",
". c #271507",
"X c #422811",
"o c #754D29",
"O c #FF0929",
"+ c #CDC1C1",
"@ c gray92",
"# c None",
/* pixels */
"#############################################",
"#############################################",
"#############################################",
"#############################################",
"#############################################",
"#############################################",
"#############################################",
"#############################################",
"#############################################",
"#############################################",
"#############################################",
"#######################ooooooo###############",
"#####################o@@@oooXoo##############",
"#####################@@@@@XXXXo##############",
"####################@@O@@@@XXXoo#############",
"####################@@O@@@+XXXXX#############",
"#########   ooo#####@@O@oooooooXX############",
"##########XXXXXoo##oX@ooooXXXXXoX############",
"##########oXXXXXXooXoooXXXXXXXXXX############",
"#########  XXXXXXXXXoooXXXXXXXXXX############",
"##########  XXXXXXooooXXXXXXXXXXX############",
"############ XX. oXoXXXXXXXXXXXX#############",
"#############.XX XXXXXXXXXXX XXX#############",
"#############  X  #ooXXXXXX@ @XX#############",
"################# #  XXXXXooooXX#############",
"################.Xo oXXXXXXXXXX##############",
"###############. oXoooXXXXoXXX###############",
"############### #XXXX XXoXoXXX###############",
"#################.XX#  XXXoX#################",
"################. ###.XX  XX#################",
"#######################... X#################",
"#############################################",
"#############################################",
"#############################################",
"#############################################",
"#############################################",
"#############################################",
"#############################################",
"#############################################",
"#############################################",
"#############################################",
"#############################################",
"#############################################",
"#############################################",
"#############################################"
};
