/* XPM */
static char *result[] = {
/* columns rows colors chars-per-pixel */
"45 45 6 1 ",
"  c #0C0300",
". c #422811",
"X c #754D29",
"o c #FF0929",
"O c gray92",
"+ c None",
/* pixels */
"+++++++++++++++++++++++++++++++++++++++++++++",
"+++++++++++++++++++++++++++++++++++++++++++++",
"+++++++++++++++++++++++++++++++++++++++++++++",
"+++++++++++++++++++++++++++++++++++++++++++++",
"+++++++++++++++++++++++++++++++++++++++++++++",
"+++++++++++++++++++++++++++++++++++++++++++++",
"+++++++++++++++++++++++++++++++++++++++++++++",
"+++++++++++++++++++++++++++++++++++++++++++++",
"+++++++++++++++++++++++++++++++++++++++++++++",
"+++++++++++++++++++++++++++++++++++++++++++++",
"+++++++++++++++++++++++++++++++++++++++++++++",
"+++++++++++++++++++++++++++++++++++++++++++++",
"+++++++++++++++++++++++++++++++++++++++++++++",
"++++++++++++++ ++ +++++++++++++++++++++++++++",
"++++++++++++ XXXXOOOOO+++++++++++++++++++++++",
"++++++++++++X...oOOOOXXX+++++++++++++++++++++",
"++++++++++++X..OoOOOXXXXXXX++++++++++++++++++",
"++++++++++++...OOOXXXXX....X+++++++++++++++++",
"++++++++++++...OOXXX..XX...X+++++++++++++++++",
"+++++++++++++..OXX...XXXX..XX++++++++++++++++",
"+++++++++++++...X.O  O ....XX++++++++++++++++",
"+++++++++++++....     O.....XX+++++++++++++++",
"++++++++++++++...O  O.......XX.XX++++++++++++",
"+++++++++++++++++   .........XXX..X++++++++++",
"++++++++++++++++++ O............X++++++++++++",
"+++++++++++++++++++.....+.....+ . +++++++++++",
"++++++++++++++++++++++++......  + +++++++++++",
"++++++++++++++++++++++++.....++++++++++++++++",
"+++++++++++++++++++++++ + .. ++++++++++++++++",
"++++++++++++++++++++++++++ ++++++++++++++++++",
"+++++++++++++++++++++++++++++++++++++++++++++",
"+++++++++++++++++++++++++++++++++++++++++++++",
"+++++++++++++++++++++++++++++++++++++++++++++",
"+++++++++++++++++++++++++++++++++++++++++++++",
"+++++++++++++++++++++++++++++++++++++++++++++",
"+++++++++++++++++++++++++++++++++++++++++++++",
"+++++++++++++++++++++++++++++++++++++++++++++",
"+++++++++++++++++++++++++++++++++++++++++++++",
"+++++++++++++++++++++++++++++++++++++++++++++",
"+++++++++++++++++++++++++++++++++++++++++++++",
"+++++++++++++++++++++++++++++++++++++++++++++",
"+++++++++++++++++++++++++++++++++++++++++++++",
"+++++++++++++++++++++++++++++++++++++++++++++",
"+++++++++++++++++++++++++++++++++++++++++++++",
"+++++++++++++++++++++++++++++++++++++++++++++"
};
