/* XPM */
static char *result[] = {
/* columns rows colors chars-per-pixel */
"45 45 7 1 ",
"  c #030100",
". c #170801",
"X c #422811",
"o c #754D29",
"O c #FF0929",
"+ c gray92",
"@ c None",
/* pixels */
"@@@@@@@@@@@@@@@@@@@@@@@@@@@@@@@@@@@@@@@@@@@@@",
"@@@@@@@@@@@@@@@@@@@@@@@@@@@@@@@@@@@@@@@@@@@@@",
"@@@@@@@@@@@@@@@@@@@@@@@@@@@@@@@@@@@@@@@@@@@@@",
"@@@@@@@@@@@@@@@@@@@@@@@@@@@@@@@@@@@@@@@@@@@@@",
"@@@@@@@@@@@@@@@@@@@@@@@@@@@@@@@@@@@@@@@@@@@@@",
"@@@@@@@@@@@@@@@@@@@@@@@@@@@@@@@@@@@@@@@@@@@@@",
"@@@@@@@@@@@@@@@@@@@@@@@@@@@@@@@@@@@@@@@@@@@@@",
"@@@@@@@@@@@@@@@@@@@@@@@@@@@@@@@@@@@@@@@@@@@@@",
"@@@@@@@@@@@@@@@@@@@@@@@@@@@@@@@@@@@@@@@@@@@@@",
"@@@@@@@@@@@@@@@@@@@@@@@@@@@@@@@@@@@@@@@@@@@@@",
"@@@@@@@@@@@@@@@@@@@@@@@@@@@@@@@@@@@@@@@@@@@@@",
"@@@@@@@@@@@@@@@@@@@@@@@@@@@@@@@@@@@@@@@@@@@@@",
"@@@@@@@@@@@@@@@@@@@@@@@@oooo@@@@@@@@@@@@@@@@@",
"@@@@@@@@@@@@@@@@@@@++++XXXXoo@@@@@@@@@@@@@@@@",
"@@@@@@@@@@@@@@@@@@O++++oXXXXXo@@@@@@@@@@@@@@@",
"@@@@@@@@@@@@@@@@@+O+++o.oXXXXX@@@@@@@@@@@@@@@",
"@@@@@@@@@@@@@@@ @+++ooo+.oXXXXo@@@@@@@@@@@@@@",
"@@@@@@@@@@@@@@o @++oooo.+o XXXX @@@@@@@@@@@@@",
"@@@@@@@@@@@@ oX@@+oooo+..ooX X o@@@@@@@@@@@@@",
"@@@@@@@@@@@@@oXo@@oooX..+XooooXXo@@@@@@@@@@@@",
"@@@@@@@@@@@@oXXXooooX+...XXXooo X @@@@@@@@@@@",
"@@@@@@@@@@@@ oXXXXXXX...+XXXXo  @ @@@@@@@@@@@",
"@@@@@@@@@@@@@oXXXXXXXX+..XXXXo@@o@@@@@@@@@@@@",
"@@@@@@@@@@@@@@@XXXXXXXXXXXXXooXX@@@@@@@@@@@@@",
"@@@@@@@@@@@@@@@@XXX@@XXXXXXXX@@@@@@@@@@@@@@@@",
"@@@@@@@@@@@@@@@@@@@@@@@@XoXX@@@@@@@@@@@@@@@@@",
"@@@@@@@@@@@@@@@@@@@@@@@@. @. @@@@@@@@@@@@@@@@",
"@@@@@@@@@@@@@@@@@@@@@@@@@. @.@@@@@@@@@@@@@@@@",
"@@@@@@@@@@@@@@@@@@@@@@@@@@@@@@@@@@@@@@@@@@@@@",
"@@@@@@@@@@@@@@@@@@@@@@@@@@@@@@@@@@@@@@@@@@@@@",
"@@@@@@@@@@@@@@@@@@@@@@@@@@@@@@@@@@@@@@@@@@@@@",
"@@@@@@@@@@@@@@@@@@@@@@@@@@@@@@@@@@@@@@@@@@@@@",
"@@@@@@@@@@@@@@@@@@@@@@@@@@@@@@@@@@@@@@@@@@@@@",
"@@@@@@@@@@@@@@@@@@@@@@@@@@@@@@@@@@@@@@@@@@@@@",
"@@@@@@@@@@@@@@@@@@@@@@@@@@@@@@@@@@@@@@@@@@@@@",
"@@@@@@@@@@@@@@@@@@@@@@@@@@@@@@@@@@@@@@@@@@@@@",
"@@@@@@@@@@@@@@@@@@@@@@@@@@@@@@@@@@@@@@@@@@@@@",
"@@@@@@@@@@@@@@@@@@@@@@@@@@@@@@@@@@@@@@@@@@@@@",
"@@@@@@@@@@@@@@@@@@@@@@@@@@@@@@@@@@@@@@@@@@@@@",
"@@@@@@@@@@@@@@@@@@@@@@@@@@@@@@@@@@@@@@@@@@@@@",
"@@@@@@@@@@@@@@@@@@@@@@@@@@@@@@@@@@@@@@@@@@@@@",
"@@@@@@@@@@@@@@@@@@@@@@@@@@@@@@@@@@@@@@@@@@@@@",
"@@@@@@@@@@@@@@@@@@@@@@@@@@@@@@@@@@@@@@@@@@@@@",
"@@@@@@@@@@@@@@@@@@@@@@@@@@@@@@@@@@@@@@@@@@@@@",
"@@@@@@@@@@@@@@@@@@@@@@@@@@@@@@@@@@@@@@@@@@@@@"
};
