/* XPM */
static char *result[] = {
/* columns rows colors chars-per-pixel */
"45 45 7 1 ",
"  c #030100",
". c #190A02",
"X c #422811",
"o c #754D29",
"O c #FF0929",
"+ c gray92",
"@ c None",
/* pixels */
"@@@@@@@@@@@@@@@@@@@@@@@@@@@@@@@@@@@@@@@@@@@@@",
"@@@@@@@@@@@@@@@@@@@@@@@@@@@@@@@@@@@@@@@@@@@@@",
"@@@@@@@@@@@@@@@@@@@@@@@@@@@@@@@@@@@@@@@@@@@@@",
"@@@@@@@@@@@@@@@@@@@@@@@@@@@@@@@@@@@@@@@@@@@@@",
"@@@@@@@@@@@@@@@@@@@@@@@@@@@@@@@@@@@@@@@@@@@@@",
"@@@@@@@@@@@@@@@@@@@@@@@@@@@@@@@@@@@@@@@@@@@@@",
"@@@@@@@@@@@@@@@@@@@@@@@@@@@@@@@@@@@@@@@@@@@@@",
"@@@@@@@@@@@@@@@@@@@@@@@@@@@@@@@@@@@@@@@@@@@@@",
"@@@@@@@@@@@@@@@@@@@@@@@@@@@@@@@@@@@@@@@@@@@@@",
"@@@@@@@@@@@@@@@@@@@@@@@@@@@@@@@@@@@@@@@@@@@@@",
"@@@@@@@@@@@@@@@@@@@ @ @@@@@@@@@@@@@@@@@@@@@@@",
"@@@@@@@@@@@@@@@@@@XXXXX @@@@@@@@@@@@@@@@@@@@@",
"@@@@@@@@@@@@@@@@@@XXXX o@@@@@@@@@@@@@@@@@@@@@",
"@@@@@@@@@@@@@@@@@Xo+XX+oooo@@@@@@@@@@@@@@@@@@",
"@@@@@@@@@@@@@@@@@ooo...oooo@@o @@@@@@@@@@@@@@",
"@@@@@@@@@@@@@@@@ooooo.+oooooXXX @@@@@@@@@@@@@",
"@@@@@@@@@@@@@@@+oooo+..oooooX  @@@@@@@@@@@@@@",
"@@@@@@@@@@@@@@++oooX..+Xooooo ooo@@@@@@@@@@@@",
"@@@@@@@@@@@@@@OOoooX+..XoooooooX@@@@@@@@@@@@@",
"@@@@@@@@@@@@@@++ooXXXXXXXXXooXX@@@@@@@@@@@@@@",
"@@@@@@@@@@@@@@+++XXXXXXXXXXXoo@@@@@@@@@@@@@@@",
"@@@@@@@@@@@@@@@++XXXXXXXXXXXXo@@@@@@@@@@@@@@@",
"@@@@@@@@@@@@@@@@++XXXXXXX. X. @@@@@@@@@@@@@@@",
"@@@@@@@@@@@@@@@@ @@@oXXXX@. @.@@@@@@@@@@@@@@@",
"@@@@@@@@@@@@@@@@oooooXXXX@@@@@@@@@@@@@@@@@@@@",
"@@@@@@@@@@@@@@@@oXXXXXXX@@@@@@@@@@@@@@@@@@@@@",
"@@@@@@@@@@@@@@@@ oXXXXX@@@@@@@@@@@@@@@@@@@@@@",
"@@@@@@@@@@@@@@@@@ XXX@@@@@@@@@@@@@@@@@@@@@@@@",
"@@@@@@@@@@@@@@@@@@@@@@@@@@@@@@@@@@@@@@@@@@@@@",
"@@@@@@@@@@@@@@@@@@@@@@@@@@@@@@@@@@@@@@@@@@@@@",
"@@@@@@@@@@@@@@@@@@@@@@@@@@@@@@@@@@@@@@@@@@@@@",
"@@@@@@@@@@@@@@@@@@@@@@@@@@@@@@@@@@@@@@@@@@@@@",
"@@@@@@@@@@@@@@@@@@@@@@@@@@@@@@@@@@@@@@@@@@@@@",
"@@@@@@@@@@@@@@@@@@@@@@@@@@@@@@@@@@@@@@@@@@@@@",
"@@@@@@@@@@@@@@@@@@@@@@@@@@@@@@@@@@@@@@@@@@@@@",
"@@@@@@@@@@@@@@@@@@@@@@@@@@@@@@@@@@@@@@@@@@@@@",
"@@@@@@@@@@@@@@@@@@@@@@@@@@@@@@@@@@@@@@@@@@@@@",
"@@@@@@@@@@@@@@@@@@@@@@@@@@@@@@@@@@@@@@@@@@@@@",
"@@@@@@@@@@@@@@@@@@@@@@@@@@@@@@@@@@@@@@@@@@@@@",
"@@@@@@@@@@@@@@@@@@@@@@@@@@@@@@@@@@@@@@@@@@@@@",
"@@@@@@@@@@@@@@@@@@@@@@@@@@@@@@@@@@@@@@@@@@@@@",
"@@@@@@@@@@@@@@@@@@@@@@@@@@@@@@@@@@@@@@@@@@@@@",
"@@@@@@@@@@@@@@@@@@@@@@@@@@@@@@@@@@@@@@@@@@@@@",
"@@@@@@@@@@@@@@@@@@@@@@@@@@@@@@@@@@@@@@@@@@@@@",
"@@@@@@@@@@@@@@@@@@@@@@@@@@@@@@@@@@@@@@@@@@@@@"
};
