/* XPM */
static char *result[] = {
/* columns rows colors chars-per-pixel */
"45 45 5 1 ",
"  c #0B0401",
". c #422811",
"X c #754D29",
"o c gray92",
"O c None",
/* pixels */
"OOOOOOOOOOOOOOOOOOOOOooooooooooooOOOOOOOOOOOO",
"OOOOOOOOOOOOOOOOOOOOoooooooooooOOOOOOOOOOOOOO",
"OOOOOOOOOOOOOOOOOOOoooooooooOOOOOOOOOOOOOOOOO",
"OOOOOOOOOOOOOOOOOOooooooooOOOOOOOOOOOOOOOOOOO",
"OOOOoOOOOOOOOOOOOoooooooooOOOOOOOOOOOOOOOOOOO",
"OOOOoOOOOOOOOOOOOooooooooOOOOOOOOOOOOOOOOOOOO",
"OOOOoOOOOOOOOOOOoooooooooOOOOOOOOOOOOOOOOOOOO",
"OOOOooOOOOOOOOOOoooooooooOOOOOOOOOOOOOOOOOOOO",
"OOOOooOOOOOOOOOOooooooooOOOOOOOOOOOOOOOOOOOOO",
"OOOOooOOOOOOOOOoooooooooOOOOOOOOOOOOOOOOOOOOO",
"OOOOoooOOOOOOOOoooooooooOOOOOOOOOOOOOOOOOOOOO",
"OOOOoooOOOOOOOOoooooooooOOOOOOOOOOOOOOOOOOOOO",
"OOOOoooOOOOOOOOooooooooooOOOOOOOOOOOOOOOOOOOO",
"OOOOoooOOOOOOOoooooooooooOOOOOOOOOOOOOOOOOOOO",
"OOOOooooOOOOOOooooooooooooX OooooooOOOOOOOOOO",
"OOOOooooOOOOOOoooooooXXoX... oooooooooOOOOOOO",
"OOOOoooooOOOOOoooXooooXXX.  oooooooooooOOOOOO",
"OOOOoooooOOOOOooXXX   XXXX oooooooooooooOOOOO",
"OOOOOoooooOOOooXXXXXXXXXXXXooooooooooooooOOOO",
"OOOOOooooooOOooXXXX.XX.XXXXXooooooooooooooOOO",
"OOOOOooooooooooXXXX.XXX.XXXXoXXXooooooooooOOO",
"OOOOOooooooooooXXX...XX.XXXXXX.ooooooooooooOO",
"OOOOOooooooooooXX.. ..X.XXXXXX  ooOOOooooooOO",
"OOOOOOoooooooooo.... .. ..XXX. ooOOOOOoooooOO",
"OOOOOOoooooooooo...... ....... oOOOOOOOooooOO",
"OOoOOOooooooooooo..........oo ooOOOOOOOOoooOO",
"OOoOOOOoooooooooo......ooooooOooOOOOOOOOoooOO",
"OOOoOOOOoooooooooo.....ooooooooooOOOOOOOOooOO",
"OOOoOOOOOooooooO......oooooooooooOOOOOOOOooOO",
"OOOoooOOOooooooO.....ooooooooooooOOOOOOOOooOO",
"OOOOoooOOOooooooooo.ooooooooooooOOOOOOOOOooOO",
"OOOOoooooOOoooooooooooooooooooooOOOOOOOOOoOOO",
"OOOOoooooooOooooooooooooooooooooOOOOOOOOOoOOO",
"OOOOOOooooooooooooooooooooooooooOOOOOOOOOOOOO",
"OOOOOOooooooooooooooooooooooooooOOOOOOOOOOOOO",
"OOOOOOOoooooooooooooooooooooooooOOOOOOOOOOOOO",
"OOOOOOOOoooooooooooooooooOOooooOOOOOOOOOOOOOO",
"OOOOOOOOOOoooooooooooooOOOoooooOOOOOOOOOOOOOO",
"OOOOOOOOOOOOOoooooooOOOOOOooooOOOOOOOOOOOOOOO",
"OOOOOOOOOOOOOOOOOOOOOOOOOoooooOOOOOOOOOOOOOOO",
"OOOOOOOOOOOOOOOOOOOOOOOOOooooOOOOOOOOOOOOOOOO",
"OOOOOOOOOOOOOOOOOOOOOOOOoooOOOOOOOOOOOOOOOOOO",
"OOOOOOOOOOOOOOOOOOOOOOOOooOOOOOOOOOOOOOOOOOOO",
"OOOOOOOOOOOOOOOOOOOOOOoooOOOOOOOOOOOOOOOOOOOO",
"OOOOOOOOOOOOOOOOOOOOOOOOOOOOOOOOOOOOOOOOOOOOO"
};
