/* XPM */
static char *result[] = {
/* columns rows colors chars-per-pixel */
"45 45 5 1 ",
"  c #060200",
". c #422811",
"X c #754D29",
"o c gray92",
"O c None",
/* pixels */
"OOOOOOOOOOOOOOOOOOOOOOOOOOOOOOOOOOOOOOOOOOOOO",
"OOOOOOOOOOOOOOOOOOOOOOOOOOOOOOOOOOOOOOOOOOOOO",
"OOOOOOOOOOOOOOOOOOOOOOOOOOOOOOOOOOOOOOOOOOOOO",
"OOOOOOOOOOOOOOOOOOOOOOOOOOOOOoOooooOOOOOOOOOO",
"OOOOOOOOOOOOOOOOOOOOOOOOOOOOooooooooOOOOOOOOO",
"OOOOOOOOOOOOOOOOOOOOOOOOOOOoooooooooooOOOOOOO",
"OOOOOOOOOooOOOOOOOOOOOOOOOooooOOOOOOOOOOOOOOO",
"OOOOOOOOooOOOOOOOOOOOOOOOOOOOOOOOOOOOOOOOOOOO",
"OOOOOOOOooOOOOOOOOOOOOOOOOOOOOOOOOOOOOOOOOOOO",
"OOOOOOOOoOOOOOOOO O O OOOOOOOOOOOOOOOOOOOOOOO",
"OOOOOOOooOOOOOOOO X X OOOOOOOOOOOOOOOOOOOOOOO",
"OOOOOOOooOOOOOOO ..X.XOOOOOOOOOOOOOOOOOOOOOOO",
"OOOOOOOooOOOOOOOO....XOOOOOOOOOOOOOOOOOOOOOOO",
"OOOOOOOooOOOOOOOO.....XOOOOOOOOOOOOOOOOOOOOOO",
"OOOOOOOooOOOOOOOOO....XOOOOOOOOOOOOOOOOOOOOOO",
"OOOOOOOOOoOOOOOOOOO....XOX OOOOOOOOOOOOOOOOOO",
"OOOOOOOOOOOOOOOOOOXXXXXXXX. OOOOOOOOOOOOOOOOO",
"OOOOOOOOOOOOOOOOOXXXXXXXXXXXOOOOOOOOOOOOOOOOO",
"OOOOOOOOOOOOOOOOXXXXXXXXXXXXOOXXXOOOOOOOOOOOO",
"OOOOOOOOOOOOOOOOXXXXXXXXXXXXXXX.OOOOOOOOOOOOO",
"OOOOOOOOOOOOOOOOXXXXXXXXXXXXXX. OOOOOOOOOOOOO",
"OOOOOOOOOOOOOOOOXXX......XXXX.. OOOOOOOOOOOOO",
"OOOOOOOOOOOOOOOOXX.........XX. OOOOOOOOOOOOOO",
"OOOOOOOOOOOOOOOOo............OOOOOOOOOOOOOOOO",
"OOOOOOOOOOOOOOOOo.....XXX...OOOOOOOOOOOOOOOOO",
"OOOOOOOOOOOOOOOOoo.....XXX..OOOOOOOOOOOOOOOOO",
"OOOOOOOOOOOOOOOOoo......XXXOOOOOOOOOOOOOOOOOO",
"OOOOOOOOOOOOOOOOOoo.....XXXOOOOOOOOOOOOOOOOOO",
"OOOOOOOOOOOOOOOOOOOOOOO.XXXXOOOOOOOOOOOOOOOOO",
"OOOOOOOOOOOOOOOOOOOOOOO..XXXOOOOOOOOOOOOOOOOO",
"OOOOOOOOOOOOOOOOOOOOOO...XX.OOOOOOOOOOOOOOOOO",
"OOOOOOOOOOOOOOOOOOOOO ......OOOOOOOOOOOOOOOOO",
"OOOOOOOoOOOOOOOOOOOOO......OOOOOOOOOOOOOOOOOO",
"OOOOOOOooOOOOOOOOOOOO . . OOOOOOOOOOOOOOOOOOO",
"OOOOOOOOoooOOOOOOOOOOOOOOOOOooOOOOOOOOOOOOOOO",
"OOOOOOOOOooOOOOOOOOOOOOOOOOooOOOOOOOOOOOOOOOO",
"OOOOOOOOOOooooooOOOOOOOOOOoooOOOOOOOOOOOOOOOO",
"OOOOOOOOOOOooooOOOOOOOOOOOOoOOOOOOOOOOOOOOOOO",
"OOOOOOOOOOOOOOOOOOOOOOOOOOooOOOOOOOOOOOOOOOOO",
"OOOOOOOOOOOOOOOOOOOOOOOOOooOOOOOOOOOOOOOOOOOO",
"OOOOOOOOOOOOOOOOOOOOOOooooOOOOOOOOOOOOOOOOOOO",
"OOOOOOOOOOOOOOOOOOOOOOOOOOOOOOOOOOOOOOOOOOOOO",
"OOOOOOOOOOOOOOOOOOOOOOOOOOOOOOOOOOOOOOOOOOOOO",
"OOOOOOOOOOOOOOOOOOOOOOOOOOOOOOOOOOOOOOOOOOOOO",
"OOOOOOOOOOOOOOOOOOOOOOOOOOOOOOOOOOOOOOOOOOOOO"
};
