/* XPM */
static char *result[] = {
/* columns rows colors chars-per-pixel */
"45 45 6 1 ",
"  c #060300",
". c #422811",
"X c #754D29",
"o c #FF0929",
"O c gray92",
"+ c None",
/* pixels */
"+++++++++++++++++++++++++++++++++++++++++++++",
"+++++++++++++++++++++++OO++O+++++++++++++++++",
"++++++++++++++++++++++O++++++++++++++++++++++",
"+++++++++++++++++++++O+++++++++++++++++++++++",
"++++++++++++++++++++O++++++++++++++++++++++++",
"+++++++++++++++++++++++++++++++++++++++++++++",
"+++++++++++++++++++++++++++++++++++++++++++++",
"+++++++++++++++++++++++++++++++++++++++++++++",
"+++++++++++++++++++++++++++++++++++++++++++++",
"+++++++++++++++++++++++++++++++++++++++++++++",
"+++++++++++++++++++++++++++++++++++++++++++++",
"+++++++++++++++++++++++++++++++++++++++++++++",
"+++++++++++++++++++++++++++++++++++++++++++++",
"+O+++++++++++++++++++++++++++++++++++++++++++",
"+++++++++++++++++++++++++++++++++++++++++++++",
"+O+++++++++++++ + + +++++++++++++++++++++++++",
"+O+++++++++++++ X X +++++++++++++++++++++++++",
"+O++++++++++++ ..X.X+++++XX++++++++++++++++++",
"+O+++++++++++++..XXXXXXX+XX. ++++++++++++++++",
"++O++++++++++++.XXXXXXXXXX.. ++++++++++++++++",
"+++++++++++++++XXXXXXX.XXXX +++++++++++++++++",
"+++++++++++++++XXXXXXXX.XXXXX++++++++++++++++",
"+++++++++++++++XXXXXXXX.XXXX+X+++++++++++++++",
"+++++++++++++++X........XXXX+++++++++++++++++",
"+++++++++++++++.OOOO.....XXX+++++++++++++++++",
"+++++++++++++++OOOOOO....XX.+++++++++++++++++",
"+++++++++++++++OOOOOO ......+++++++++++++++++",
"+++++++++++++++OOoooO......++++++++++++++++++",
"+++++++++++++++OOOOOO . . +++++++++++++++++++",
"++++++++++++++++OOOO....+++++++++++++++++++++",
"+++++++++++++++++++++++++++++++++++++++++++++",
"+++++++++++++++++++++++++++++++++++++++++++++",
"+++++++++++++++++++++++++++++++++++++++++++++",
"+++++++++++++++++++++++++++++++++++++++++++++",
"+++++++++++++++++++++++++++++++++++++++++++++",
"+++++++++++++++++++++++++++++++++++++++++++++",
"+++++++++++++++++++++++++++++++++++++++++++++",
"+++++++++++++++++++++++++++++++++++++++++++++",
"+++++++++++++++++++++++++++++++++++++++++++++",
"+++++++++++++++++++++++++++++++++++++++++++++",
"+++++++++++++++++++++++++++++++++++++++++++++",
"+++++++++++++++++++++++++++++++++O+++++++++++",
"++++++++++++++++++++++++++++++++O++++++++++++",
"++++++++O++++++++++++++++++++++++++++++++++++",
"+++++++++O+++++++++++++++++++++O+++++++++++++"
};
