/* XPM */
static char *result[] = {
/* columns rows colors chars-per-pixel */
"45 45 3 1 ",
"  c #422811",
". c #754D29",
"X c None",
/* pixels */
"XXXXXXXXXXXXXXXXXXXXXXXXXXXXXXXXXXXXXXXXXXXXX",
"XXXXXXXXXXXXXXXXXXXXXXXXXXXXXXXXXXXXXXXXXXXXX",
"XXXXXXXXXXXXXXXXXXXXXXXXXXXXXXXXXXXXXXXXXXXXX",
"XXXXXXXXXXXXXXXXXXXXXXXXXXXXXXXXXXXXXXXXXXXXX",
"XXXXXXXXXXXXXXXXXXXXXXXXXXXXXXXXXXXXXXXXXXXXX",
"XXXXXXXXXXXXXXXXXXXXXXXXXXXXXXXXXXXXXXXXXXXXX",
"XXXXXXXXXXXXXXXXXXXXXXXXXXXXXXXXXXXXXXXXXXXXX",
"XXXXXXXXXXXXXXXXXXXXXXXXXXXXXXXXXXXXXXXXXXXXX",
"XXXXXXXXXXXXXXXXXXXXXXXXXXXXXXXXXXXXXXXXXXXXX",
"XXXXXXXXXXXXXXXXXXXXXXXXXXXXXXXXXXXXXXXXXXXXX",
"XXXXXXXXXXXXXXXXXXXXXXXXXXXXXXXXXXXXXXXXXXXXX",
"XXXXXXXXXXXXXXXXXXXXXXXXXXXXXXXXXXXXXXXXXXXXX",
"XXXXXXXXXXXXXXXXXXXXXXXXXXXXXXXXXXXXXXXXXXXXX",
"XXXXXXXXXXXXXXXXXXXX.......XXXXXXXXXXXXXXXXXX",
"XXXXXXXXXXXXXXXXXX.........XXXXXXXXXXXXXXXXXX",
"XXXXXXXXXXXXXX....     X....XXXXXXXXXXXXXXXXX",
"XXXXXXXXXXXXX......   XXXX..XXXXXXXXXXXXXXXXX",
"XXXXXXXXXXXXX....... XXXXXXXXXXXXXXXXXXXXXXXX",
"XXXXXXXXXXXXX........XXXXXXXXXXXXXXXXXXXXXXXX",
"XXXXXXXXXXXXX........XXXXXXXXXXXXXXXXXXXXXXXX",
"XXXXXXXXXXXXX.........XXXXXXXXXXXXXXXXXXXXXXX",
"XXXXXXXXXXXXX.........XXXXXXXXXXXXXXXXXXXXXXX",
"XXXXXXXXXXXXX .........XXXXX XXXXXXXXXXXXXXXX",
"XXXXXXXXXXXXX  ........XXXX  XXXXXXXXXXXXXXXX",
"XXXXXXXXXXXXX   ..........  .XXXXXXXXXXXXXXXX",
"XXXXXXXXXXXXXX   ............XXXXXXXXXXXXXXXX",
"XXXXXXXXXXXXXX    ..........XXXXXXXXXXXXXXXXX",
"XXXXXXXXXXXXXXXX    .......XXXXXXXXXXXXXXXXXX",
"XXXXXXXXXXXXXXXXXXXXXX...XXXXXXXXXXXXXXXXXXXX",
"XXXXXXXXXXXXXXXXXXXXXXXXXXXXXXXXXXXXXXXXXXXXX",
"XXXXXXXXXXXXXXXXXXXXXXXXXXXXXXXXXXXXXXXXXXXXX",
"XXXXXXXXXXXXXXXXXXXXXXXXXXXXXXXXXXXXXXXXXXXXX",
"XXXXXXXXXXXXXXXXXXXXXXXXXXXXXXXXXXXXXXXXXXXXX",
"XXXXXXXXXXXXXXXXXXXXXXXXXXXXXXXXXXXXXXXXXXXXX",
"XXXXXXXXXXXXXXXXXXXXXXXXXXXXXXXXXXXXXXXXXXXXX",
"XXXXXXXXXXXXXXXXXXXXXXXXXXXXXXXXXXXXXXXXXXXXX",
"XXXXXXXXXXXXXXXXXXXXXXXXXXXXXXXXXXXXXXXXXXXXX",
"XXXXXXXXXXXXXXXXXXXXXXXXXXXXXXXXXXXXXXXXXXXXX",
"XXXXXXXXXXXXXXXXXXXXXXXXXXXXXXXXXXXXXXXXXXXXX",
"XXXXXXXXXXXXXXXXXXXXXXXXXXXXXXXXXXXXXXXXXXXXX",
"XXXXXXXXXXXXXXXXXXXXXXXXXXXXXXXXXXXXXXXXXXXXX",
"XXXXXXXXXXXXXXXXXXXXXXXXXXXXXXXXXXXXXXXXXXXXX",
"XXXXXXXXXXXXXXXXXXXXXXXXXXXXXXXXXXXXXXXXXXXXX",
"XXXXXXXXXXXXXXXXXXXXXXXXXXXXXXXXXXXXXXXXXXXXX",
"XXXXXXXXXXXXXXXXXXXXXXXXXXXXXXXXXXXXXXXXXXXXX"
};
