/* XPM */
static char *result[] = {
/* columns rows colors chars-per-pixel */
"45 45 3 1 ",
"  c #422811",
". c #754D29",
"X c None",
/* pixels */
"XXXXXXXXXXXXXXXXXXXXXXXXXXXXXXXXXXXXXXXXXXXXX",
"XXXXXXXXXXXXXXXXXXXXXXXXXXXXXXXXXXXXXXXXXXXXX",
"XXXXXXXXXXXXXXXXXXXXXXXXXXXXXXXXXXXXXXXXXXXXX",
"XXXXXXXXXXXXXXXXXXXXXXXXXXXXXXXXXXXXXXXXXXXXX",
"XXXXXXXXXXXXXXXXXXXXXXXXXXXXXXXXXXXXXXXXXXXXX",
"XXXXXXXXXXXXXXXXXXXXXXXXXXXXXXXXXXXXXXXXXXXXX",
"XXXXXXXXXXXXXXXXXXXXXXXXXXXXXXXXXXXXXXXXXXXXX",
"XXXXXXXXXXXXXXXXXXXXXXXXXXXXXXXXXXXXXXXXXXXXX",
"XXXXXXXXXXXXXXXXXXXXXXXXXXXXXXXXXXXXXXXXXXXXX",
"XXXXXXXXXXXXXXXXXXXXXXXXXXXXXXXXXXXXXXXXXXXXX",
"XXXXXXXXXXXXXXXXXXXXXXXXXXXXXXXXXXXXXXXXXXXXX",
"XXXXXXXXXXXXXXXXXXXXXXXXXXXXXXXXXXXXXXXXXXXXX",
"XXXXXXXXXXXXXXXXXXXXXXXXXXXXXXXXXXXXXXXXXXXXX",
"XXXXXXXXXXXXXXXXXXXXXXXXXXXXXXXXXXXXXXXXXXXXX",
"XXXXXXXXXXXXXXXXX......XXXXXXXXXXXXXXXXXXXXXX",
"XXXXXXXXXXXXXXXX  .......XXXXXXXXXXXXXXXXXXXX",
"XXXXXXXXXXXXXXX   ........XXXXXXXXXXXXXXXXXXX",
"XXXXXXXXXXXXXXX    ........XX  XXXXXXXXXXXXXX",
"XXXXXXXXXXXXXXX     ........  XXXXXXXXXXXXXXX",
"XXXXXXXXXXXXXXX      ....... XXXXXXXXXXXXXXXX",
"XXXXXXXXXXXXXXX      ........XXXXXXXXXXXXXXXX",
"XXXXXXXXXXXXXXXXX   XXX.......XXXXXXXXXXXXXXX",
"XXXXXXXXXXXXXXXXXXXXX  .......XXXXXXXXXXXXXXX",
"XXXXXXXXXXXXXXXXXXXX    ......XXXXXXXXXXXXXXX",
"XXXXXXXXXXXXXXX...X      .....XXXXXXXXXXXXXXX",
"XXXXXXXXXXXXXXX...       X.....XXXXXXXXXXXXXX",
"XXXXXXXXXXXXXXX....     XXXX...XXXXXXXXXXXXXX",
"XXXXXXXXXXXXXXX.....  .XXXXXX..XXXXXXXXXXXXXX",
"XXXXXXXXXXXXXXX.......XXXXXXXX.XXXXXXXXXXXXXX",
"XXXXXXXXXXXXXXXX.....XXXXXXXXXXXXXXXXXXXXXXXX",
"XXXXXXXXXXXXXXXXXXXXXXXXXXXXXXXXXXXXXXXXXXXXX",
"XXXXXXXXXXXXXXXXXXXXXXXXXXXXXXXXXXXXXXXXXXXXX",
"XXXXXXXXXXXXXXXXXXXXXXXXXXXXXXXXXXXXXXXXXXXXX",
"XXXXXXXXXXXXXXXXXXXXXXXXXXXXXXXXXXXXXXXXXXXXX",
"XXXXXXXXXXXXXXXXXXXXXXXXXXXXXXXXXXXXXXXXXXXXX",
"XXXXXXXXXXXXXXXXXXXXXXXXXXXXXXXXXXXXXXXXXXXXX",
"XXXXXXXXXXXXXXXXXXXXXXXXXXXXXXXXXXXXXXXXXXXXX",
"XXXXXXXXXXXXXXXXXXXXXXXXXXXXXXXXXXXXXXXXXXXXX",
"XXXXXXXXXXXXXXXXXXXXXXXXXXXXXXXXXXXXXXXXXXXXX",
"XXXXXXXXXXXXXXXXXXXXXXXXXXXXXXXXXXXXXXXXXXXXX",
"XXXXXXXXXXXXXXXXXXXXXXXXXXXXXXXXXXXXXXXXXXXXX",
"XXXXXXXXXXXXXXXXXXXXXXXXXXXXXXXXXXXXXXXXXXXXX",
"XXXXXXXXXXXXXXXXXXXXXXXXXXXXXXXXXXXXXXXXXXXXX",
"XXXXXXXXXXXXXXXXXXXXXXXXXXXXXXXXXXXXXXXXXXXXX",
"XXXXXXXXXXXXXXXXXXXXXXXXXXXXXXXXXXXXXXXXXXXXX"
};
