/* XPM */
static char *result[] = {
/* columns rows colors chars-per-pixel */
"45 45 4 1 ",
"  c #1E0C01",
". c #422811",
"X c #754D29",
"o c None",
/* pixels */
"ooooooooooooooooooooooooooooooooooooooooooooo",
"ooooooooooooooooooooooooooooooooooooooooooooo",
"ooooooooooooooooooooooooooooooooooooooooooooo",
"ooooooooooooooooooooooooooooooooooooooooooooo",
"ooooooooooooooooooooooooooooooooooooooooooooo",
"ooooooooooooooooooooooooooooooooooooooooooooo",
"ooooooooooooooooooooooooooooooooooooooooooooo",
"ooooooooooooooooooooooooooooooooooooooooooooo",
"ooooooooooooooooooooooooooooooooooooooooooooo",
"ooooooooooooooooooooooooooooooooooooooooooooo",
"ooooooooooooooooooooooooooooooooooooooooooooo",
"ooooooooooooooooooooooooooooooooooooooooooooo",
"ooooooooooooooooooooo ooooooooooooooooooooooo",
"ooooooooooooooooooooo  oooo ooooooooooooooooo",
"oooooooooooooooooooo   ooo  ooooooooooooooooo",
"ooooooooooooooo oXXX   o    ooooooooooooooooo",
"ooooooooooooooo  XX         ooooooooooooooooo",
"oooooooooooooo    .         ooooooooooooooooo",
"ooooooooooo                Xooooooooooooooooo",
"oooooooooooo               XXoooooooooooooooo",
"ooooooooooooo                   ooooooooooooo",
"ooooooooooooo..                oooooooooooooo",
"oooooooooooo                  ooooooooooooooo",
"ooooooooooo                 .oooooooooooooooo",
"oooooooooooooXX             .oooooooooooooooo",
"oooooooooooooXXX            ooooooooooooooooo",
"oooooooooooooXXX               oooooooooooooo",
"ooooooooooooooX                 ooooooooooooo",
"ooooooooooooooo   XX         oooooooooooooooo",
"ooooooooooooooo  XXXX         ooooooooooooooo",
"ooooooooooooooooooXXX  XXooo  ooooooooooooooo",
"ooooooooooooooooooooooooooooooooooooooooooooo",
"ooooooooooooooooooooooooooooooooooooooooooooo",
"ooooooooooooooooooooooooooooooooooooooooooooo",
"ooooooooooooooooooooooooooooooooooooooooooooo",
"ooooooooooooooooooooooooooooooooooooooooooooo",
"ooooooooooooooooooooooooooooooooooooooooooooo",
"ooooooooooooooooooooooooooooooooooooooooooooo",
"ooooooooooooooooooooooooooooooooooooooooooooo",
"ooooooooooooooooooooooooooooooooooooooooooooo",
"ooooooooooooooooooooooooooooooooooooooooooooo",
"ooooooooooooooooooooooooooooooooooooooooooooo",
"ooooooooooooooooooooooooooooooooooooooooooooo",
"ooooooooooooooooooooooooooooooooooooooooooooo",
"ooooooooooooooooooooooooooooooooooooooooooooo"
};
