/* XPM */
static char *result[] = {
/* columns rows colors chars-per-pixel */
"45 45 4 1 ",
"  c #1E0C01",
". c #422811",
"X c #754D29",
"o c None",
/* pixels */
"ooooooooooooooooooooooooooooooooooooooooooooo",
"ooooooooooooooooooooooooooooooooooooooooooooo",
"ooooooooooooooooooooooooooooooooooooooooooooo",
"ooooooooooooooooooooooooooooooooooooooooooooo",
"ooooooooooooooooooooooooooooooooooooooooooooo",
"ooooooooooooooooooooooooooooooooooooooooooooo",
"ooooooooooooooooooooooooooooooooooooooooooooo",
"ooooooooooooooXXooooooooooooooooooooooooooooo",
"oooooooooooooXXXXoooo  oooooooooooooooooooooo",
"ooooooooooooX....ooo   ooooooo oooooooooooooo",
"oooooooooooo...ooooo   oooooo  oooooooooooooo",
"oooooooooooo..ooooo    oooo    oooooooooooooo",
"oooooooooooo.oooooo    oooo    oooooooooooooo",
"ooooooooooooo oooooo   ooooo   oooooooooooooo",
"oooooooooooo  oo ooooo oooooo ooXoooooooooooo",
"ooooooooooo    oo ooooooooooooo.XXXoooooooooo",
"oooooooooo     oo  oooooooooooo..XXoooooooooo",
"oooooooooooo   ooo ooooooooooooo..XXooooooooo",
"ooooooooooooooooooooooooooooooo o.XXooooooooo",
"oooooooooooooooooooooooo  oooo       .ooooooo",
"ooooooooo..ooooooooooooo  oooo      o.ooooooo",
"ooooooooo     oooooooooo ooooo     oooooooooo",
"oooooooo      oooooooo   oooo.ooooooooooooooo",
"ooooooooooX   oooooooo  ooooooooooooooooooooo",
"oooooooooooooooooooooooooo oooooooooooooooooo",
"oooooooooooooooooooo ooooo   oooooooooooooooo",
"ooooooooooooooo ooo oo ooo     oooooooooooooo",
"ooooooooooooooX  ooooo oo       ooooooooooooo",
"oooooooooooooo     ooo            ooooooooooo",
"oooooooooooooo   ooooo  Xo        ooooooooooo",
"ooooooooooooooo oooooo.XXX       oooooooooooo",
"oooooooooooooooooooo...XXXoo    ooooooooooooo",
"ooooooooooooooooooo..XXXXXooooooooooooooooooo",
"ooooooooooooooooooooXXXXXXooooooooooooooooooo",
"oooooooooooooooooooooXXXooooooooooooooooooooo",
"ooooooooooooooooooooooooooooooooooooooooooooo",
"ooooooooooooooooooooooooooooooooooooooooooooo",
"ooooooooooooooooooooooooooooooooooooooooooooo",
"ooooooooooooooooooooooooooooooooooooooooooooo",
"ooooooooooooooooooooooooooooooooooooooooooooo",
"ooooooooooooooooooooooooooooooooooooooooooooo",
"ooooooooooooooooooooooooooooooooooooooooooooo",
"ooooooooooooooooooooooooooooooooooooooooooooo",
"ooooooooooooooooooooooooooooooooooooooooooooo",
"ooooooooooooooooooooooooooooooooooooooooooooo"
};
