/* XPM */
static char *result[] = {
/* columns rows colors chars-per-pixel */
"45 45 4 1 ",
"  c #1E0C01",
". c #422811",
"X c #754D29",
"o c None",
/* pixels */
"ooooooooooooooooooooooooooooooooooooooooooooo",
"ooooooooooooooooooooooooooooooooooooooooooooo",
"ooooooooooooooooooooooooooooooooooooooooooooo",
"ooooooooooooooooooooooooooooooooooooooooooooo",
"oooooooooooooooooooo  ooooooooooooooooooooooo",
"oooooooooooXXoooooo   ooooooooooooooooooooooo",
"ooooooooooXXXoooooo   ooooooooooooooooooooooo",
"oooooooooX..oooooooo  oooooooooo oooooooooooo",
"ooooooooo..oooooooooooooooooooo  oooooooooooo",
"ooooooooo.oooooooooooooooooooo   oooooooooooo",
"ooooooooooooo  oooooooooooooooo  oooooooooooo",
"ooooooooooooo oooooooooooooooooo oooooooooooo",
"oooooooooooooooooooooooooo   oooooooooooooooo",
"oooooooo oooooooooooooooooo   ooooooooooooooo",
"ooooooo  oo oooooo  ooooooo   ooooooooooooooo",
"oooooo   ooo oooo   ooooooooo ooooooooooooooo",
"ooooo   oooo ooo  o ooooooooooooooooXXooooooo",
"ooooooo oooooooo  ooooooooooooooooooXXooooooo",
"oooooooooooooooooooooooooooooooooooo.XXoooooo",
"oooooooooooooooooooooooooooooooooooo.XXoooooo",
"oooooooooooooooooooooooooooooooooooo    .oooo",
"ooooooooooooooooooooooooooooooooooo    o.oooo",
"ooooooooooooooooooooooooooo ooooooo   ooooooo",
"ooooo..oooooooooooooooooooooooooooooooooooooo",
"ooooo   ooooooooooooooooooooooooooooooooooooo",
"oooo     ooooo  ooooooooooooooooooooooooooooo",
"ooooooX  ooooo  ooooooooooo ooooooooooooooooo",
"oooooooooooooo  oooooooooo  ooooooooooooooooo",
"ooooooooooooooooooooooooo   ooooooooooooooooo",
"oooooooooooooooooooooooo   oooooooooooooooooo",
"ooooooooooooooooooooooooooooooooooooooooooooo",
"ooooooooooooX ooooooooooooooooooooooooooooooo",
"oooooooooooo   oooooooooooooooooo  oooooooooo",
"oooooooooooo   ooooooooooooooooo    ooooooooo",
"ooooooooooooo ooooooooooooooooo       ooooooo",
"ooooooooooooooooooooooooXXooooo       ooooooo",
"oooooooooooooooooooooooXXXooooo      oooooooo",
"oooooooooooooooooooooXXXXXoooooo    ooooooooo",
"ooooooooooooooooooooXXXXXXooooooooooooooooooo",
"oooooooooooooooooooooXXXooooooooooooooooooooo",
"ooooooooooooooooooooooooooooooooooooooooooooo",
"ooooooooooooooooooooooooooooooooooooooooooooo",
"ooooooooooooooooooooooooooooooooooooooooooooo",
"ooooooooooooooooooooooooooooooooooooooooooooo",
"ooooooooooooooooooooooooooooooooooooooooooooo"
};
