/* XPM */
static char *result[] = {
/* columns rows colors chars-per-pixel */
"45 45 4 1 ",
"  c #1E0C01",
". c #422811",
"X c #754D29",
"o c None",
/* pixels */
"oooooooooooooooooooo  ooooooooooooooooooooooo",
"oooooooooXXXooooooo   ooooooooooooooooooooooo",
"ooooooooXoooooooooooo ooooooooooooooooooooooo",
"ooooooooooooooooooooooooooooooooooooooooooooo",
"oooooooXoooooooooooooooooooooooooo oooooooooo",
"ooooooooooooooooooooooooooooooooo  oooooooooo",
"oooooooooooooooooooooooooooooooooo oooooooooo",
"oooooooooooo oooooooooooooooooooooooooooooooo",
"ooooooooooooooooooooooooooooooooooooooooooooo",
"ooooooooooooooooooooooooooooooooooooooooooooo",
"ooooooooooooooooooooooooooo    oooooooooooooo",
"oooooo ooooooooooooooooooooo  ooooooooooooooo",
"ooooo oooooooooooo  ooooooooooooooooooooooooo",
"ooo ooooooooooooooooooooooooooooooooooooooooo",
"oo oooooooooooooooooooooooooooooooooooooooooo",
"oo oooooooooooooooooooooooooooooooooooooooooo",
"ooooooooooooooooooooooooooooooooooooooooooooo",
"ooooooooooooooooooooooooooooooooooooooooooXoo",
"ooooooooooooooooooooooooooooooooooooooooooXoo",
"oooooooooooooooooooooooooooooooooooooooooo  o",
"oooooooooooooooooooooooooooooooooooooo ooo oo",
"ooooooooooooooooooooooooooooooooooooooooo  oo",
"oooooooooooooooooooooooooooo  oooooooooo oooo",
"oo..ooooooooooooooooooooooooooooooooooooooooo",
"oo  ooooooooooooooooooooooooooooooooooooooooo",
"o   ooooooooooooooooooooooooooooooooooooooooo",
"oooXoooooooooooooooooooooooo  ooooooooooooooo",
"ooooooooooooo ooooooooooooo   ooooooooooooooo",
"ooooooooooooo  oooooooooooo   ooooooooooooooo",
"oooooooooooooooooooooooooo    ooooooooooooooo",
"ooooooooooooooooooooooooo   ooooooooooooooooo",
"ooooooooooooooooooooooooooooooooooooooooooooo",
"ooooooooooooooooooooooooooooooooooooooooooooo",
"ooooooooooo ooooooooooooooooooooooooooooooooo",
"ooooooooooo ooooooooooooooooooooooooooooooooo",
"ooooooooooo   ooooooooooooooooooooooooooooooo",
"oooooooooooo oooooooooooooooooooooooooo  oooo",
"ooooooooooooooooooooooooooooooooooooooo  oooo",
"oooooooooooooooooooooooooooooooooooooo  ooooo",
"ooooooooooooooooooooooooXXXooooooooooo oooooo",
"oooooooooooooooooooooooXXXXooooooooooo oooooo",
"oooooooooooooooooooooooXXXXoooooooooooooooooo",
"oooooooooooooooooooooooXXoooooooooooooooooooo",
"ooooooooooooooooooooooooooooooooooooooooooooo",
"ooooooooooooooooooooooooooooooooooooooooooooo"
};
