/* XPM */
static char *result[] = {
/* columns rows colors chars-per-pixel */
"45 45 9 1 ",
"  c #120D08",
". c #20150C",
"X c #2F2217",
"o c #46301E",
"O c #734F31",
"+ c #FF1831",
"@ c #CBBFBF",
"# c #E9E9E9",
"$ c None",
/* pixels */
"$$$$$$$$$$$$$$$$$$$$$$$$$$$$$$$$$$$$$$$$$$$$$",
"$$$$$$$$$$$$$$$$$$$$$$$$$$$$$$$$$$$$$$$$$$$$$",
"$$$$$$$$$$$$$$$$$$$$$$$$$$$$$$$$$$$$$$$$$$$$$",
"$$$$$$$$$$$$$$$$$$$$$$$$$$$$$$$$$$$$$$$$$$$$$",
"$$$$$$$$$$$$$$$$$$$$$$$$$$$$$$$$$$$$$$$$$$$$$",
"$$$$$$$$$$$$$$$$$$$$$$$$$$$$$$$$$$$$$$$$$$$$$",
"$$$$$$$$$$$$$$$$$$$$$$$$$$$$$$$$$$$$$$$$$$$$$",
"$$$$$$$$$$$$$$$$$$$$$$$$$$$$$$$$$$$$$$$$$$$$$",
"$$$$$$$$$$$$$$$$$$$$$$$$$$$$$$$$$$$$$$$$$$$$$",
"$$$$$$$$$$$$$$$$$$$$$$$$$$$$$$$$$$$$$$$$$$$$$",
"$$$$$$$$$$$$$$$$$$$$$$$$$$$$$$$$$$$$$$$$$$$$$",
"$$$$$$$$$$$$$$$OOOOOOO$$$$$$$$$$$$$$$$$$$$$$$",
"$$$$$$$$$$$$$$OOoOOO###O$$$$$$$$$$$$$$$$$$$$$",
"$$$$$$$$$$$$$$Ooooo#####$$$$$$$$$$$$$$$$$$$$$",
"$$$$$$$$$$$$$OOooo####+##$$$$$$$$$$$$$$$$$$$$",
"$$$$$$$$$$$$$ooooo@###+##$$$$$$$$$$$$$$$$$$$$",
"$$$$$$$$$$$$ooOOOOOOO#+##$$$$$OOO   $$$$$$$$$",
"$$$$$$$$$$$$oOoooooOOOO#oO$$OOooooo$$$$$$$$$$",
"$$$$$$$$$$$$ooooooooooOOOoOOooooooO$$$$$$$$$$",
"$$$$$$$$$$$$ooooooooooOOOooooooooo  $$$$$$$$$",
"$$$$$$$$$$$$oooooooooooOOOOoooooo  $$$$$$$$$$",
"$$$$$$$$$$$$$ooooooooooooOoO Xoo $$$$$$$$$$$$",
"$$$$$$$$$$$$$ooo.ooooooooooo ooX$$$$$$$$$$$$$",
"$$$$$$$$$$$$$oo#.#ooooooOO$  o  $$$$$$$$$$$$$",
"$$$$$$$$$$$$$ooOOOOooooo  $ $$$$$$$$$$$$$$$$$",
"$$$$$$$$$$$$$$ooooooooooO OoX$$$$$$$$$$$$$$$$",
"$$$$$$$$$$$$$$$oooOooooOOOoO X$$$$$$$$$$$$$$$",
"$$$$$$$$$$$$$$$oooOoOoo oooo$ $$$$$$$$$$$$$$$",
"$$$$$$$$$$$$$$$$$oOooo  $ooX$$$$$$$$$$$$$$$$$",
"$$$$$$$$$$$$$$$$$oo  ooX$$$ X$$$$$$$$$$$$$$$$",
"$$$$$$$$$$$$$$$$$o XXX$$$$$$$$$$$$$$$$$$$$$$$",
"$$$$$$$$$$$$$$$$$$$$$$$$$$$$$$$$$$$$$$$$$$$$$",
"$$$$$$$$$$$$$$$$$$$$$$$$$$$$$$$$$$$$$$$$$$$$$",
"$$$$$$$$$$$$$$$$$$$$$$$$$$$$$$$$$$$$$$$$$$$$$",
"$$$$$$$$$$$$$$$$$$$$$$$$$$$$$$$$$$$$$$$$$$$$$",
"$$$$$$$$$$$$$$$$$$$$$$$$$$$$$$$$$$$$$$$$$$$$$",
"$$$$$$$$$$$$$$$$$$$$$$$$$$$$$$$$$$$$$$$$$$$$$",
"$$$$$$$$$$$$$$$$$$$$$$$$$$$$$$$$$$$$$$$$$$$$$",
"$$$$$$$$$$$$$$$$$$$$$$$$$$$$$$$$$$$$$$$$$$$$$",
"$$$$$$$$$$$$$$$$$$$$$$$$$$$$$$$$$$$$$$$$$$$$$",
"$$$$$$$$$$$$$$$$$$$$$$$$$$$$$$$$$$$$$$$$$$$$$",
"$$$$$$$$$$$$$$$$$$$$$$$$$$$$$$$$$$$$$$$$$$$$$",
"$$$$$$$$$$$$$$$$$$$$$$$$$$$$$$$$$$$$$$$$$$$$$",
"$$$$$$$$$$$$$$$$$$$$$$$$$$$$$$$$$$$$$$$$$$$$$",
"$$$$$$$$$$$$$$$$$$$$$$$$$$$$$$$$$$$$$$$$$$$$$"
};
