/* XPM */
static char *result[] = {
/* columns rows colors chars-per-pixel */
"45 45 7 1 ",
"  c #120D08",
". c #20150C",
"X c #46301E",
"o c #734F31",
"O c #FF1831",
"+ c #E9E9E9",
"@ c None",
/* pixels */
"@@@@@@@@@@@@@@@@@@@@@@@@@@@@@@@@@@@@@@@@@@@@@",
"@@@@@@@@@@@@@@@@@@@@@@@@@@@@@@@@@@@@@@@@@@@@@",
"@@@@@@@@@@@@@@@@@@@@@@@@@@@@@@@@@@@@@@@@@@@@@",
"@@@@@@@@@@@@@@@@@@@@@@@@@@@@@@@@@@@@@@@@@@@@@",
"@@@@@@@@@@@@@@@@@@@@@@@@@@@@@@@@@@@@@@@@@@@@@",
"@@@@@@@@@@@@@@@@@@@@@@@@@@@@@@@@@@@@@@@@@@@@@",
"@@@@@@@@@@@@@@@@@@@@@@@@@@@@@@@@@@@@@@@@@@@@@",
"@@@@@@@@@@@@@@@@@@@@@@@@@@@@@@@@@@@@@@@@@@@@@",
"@@@@@@@@@@@@@@@@@@@@@@@@@@@@@@@@@@@@@@@@@@@@@",
"@@@@@@@@@@@@@@@@@@@@@@@@@@@@@@@@@@@@@@@@@@@@@",
"@@@@@@@@@@@@@@@@@@@@@@@@@@@@@@@@@@@@@@@@@@@@@",
"@@@@@@@@@@@@@@@@@@@@@@@@@@@@@@@@@@@@@@@@@@@@@",
"@@@@@@@@@@@@@@@@@@@@@@@@@@@@@@@@@@@@@@@@@@@@@",
"@@@@@@@@@@@@@@@@@@@@@@@@@@@ @@ @@@@@@@@@@@@@@",
"@@@@@@@@@@@@@@@@@@@@@@@+++++oooo @@@@@@@@@@@@",
"@@@@@@@@@@@@@@@@@@@@@ooo++++OXXXo@@@@@@@@@@@@",
"@@@@@@@@@@@@@@@@@@ooooooo+++O+XXo@@@@@@@@@@@@",
"@@@@@@@@@@@@@@@@@oXXXXooooo+++XXX@@@@@@@@@@@@",
"@@@@@@@@@@@@@@@@@oXXXooXXooo++XXX@@@@@@@@@@@@",
"@@@@@@@@@@@@@@@@ooXXooooXXXoo+XX@@@@@@@@@@@@@",
"@@@@@@@@@@@@@@@@ooXXXX.+..+XoXXX@@@@@@@@@@@@@",
"@@@@@@@@@@@@@@@ooXXXXX+.....XXXX@@@@@@@@@@@@@",
"@@@@@@@@@@@@ooXooXXXXXXX+..+XXX@@@@@@@@@@@@@@",
"@@@@@@@@@@oXXoooXXXXXXXXX...@@@@@@@@@@@@@@@@@",
"@@@@@@@@@@@@oXXXXXXXXXXXX+.@@@@@@@@@@@@@@@@@@",
"@@@@@@@@@@@ X @XXXXX@XXXXX@@@@@@@@@@@@@@@@@@@",
"@@@@@@@@@@@ @  XXXXXX@@@@@@@@@@@@@@@@@@@@@@@@",
"@@@@@@@@@@@@@@@@XXXXX@@@@@@@@@@@@@@@@@@@@@@@@",
"@@@@@@@@@@@@@@@@ XX @ @@@@@@@@@@@@@@@@@@@@@@@",
"@@@@@@@@@@@@@@@@@@ @@@@@@@@@@@@@@@@@@@@@@@@@@",
"@@@@@@@@@@@@@@@@@@@@@@@@@@@@@@@@@@@@@@@@@@@@@",
"@@@@@@@@@@@@@@@@@@@@@@@@@@@@@@@@@@@@@@@@@@@@@",
"@@@@@@@@@@@@@@@@@@@@@@@@@@@@@@@@@@@@@@@@@@@@@",
"@@@@@@@@@@@@@@@@@@@@@@@@@@@@@@@@@@@@@@@@@@@@@",
"@@@@@@@@@@@@@@@@@@@@@@@@@@@@@@@@@@@@@@@@@@@@@",
"@@@@@@@@@@@@@@@@@@@@@@@@@@@@@@@@@@@@@@@@@@@@@",
"@@@@@@@@@@@@@@@@@@@@@@@@@@@@@@@@@@@@@@@@@@@@@",
"@@@@@@@@@@@@@@@@@@@@@@@@@@@@@@@@@@@@@@@@@@@@@",
"@@@@@@@@@@@@@@@@@@@@@@@@@@@@@@@@@@@@@@@@@@@@@",
"@@@@@@@@@@@@@@@@@@@@@@@@@@@@@@@@@@@@@@@@@@@@@",
"@@@@@@@@@@@@@@@@@@@@@@@@@@@@@@@@@@@@@@@@@@@@@",
"@@@@@@@@@@@@@@@@@@@@@@@@@@@@@@@@@@@@@@@@@@@@@",
"@@@@@@@@@@@@@@@@@@@@@@@@@@@@@@@@@@@@@@@@@@@@@",
"@@@@@@@@@@@@@@@@@@@@@@@@@@@@@@@@@@@@@@@@@@@@@",
"@@@@@@@@@@@@@@@@@@@@@@@@@@@@@@@@@@@@@@@@@@@@@"
};
