/* XPM */
static char *result[] = {
/* columns rows colors chars-per-pixel */
"45 45 8 1 ",
"  c #120D08",
". c #20150C",
"X c #2F2217",
"o c #46301E",
"O c #734F31",
"+ c #FF1831",
"@ c #E9E9E9",
"# c None",
/* pixels */
"#############################################",
"#############################################",
"#############################################",
"#############################################",
"#############################################",
"#############################################",
"#############################################",
"#############################################",
"#############################################",
"#############################################",
"#############################################",
"#############################################",
"#################OOOO########################",
"################OOoooo@@@@###################",
"###############OoooooO@@@@+##################",
"###############oooooO.O@@@+@#################",
"##############OooooO.@OOO@@@# ###############",
"############# oooo O@.OOOO@@# O##############",
"#############O o oOO..@OOOO@##oO ############",
"############OooOOOOo@..oOOO##OoO#############",
"########### o OOOooo...@oOOOOoooO############",
"########### #  Ooooo@...oooooooO ############",
"############O##Ooooo..@ooooooooO#############",
"#############ooOOooooooooooooo###############",
"################oooooooo##ooo################",
"#################ooOo########################",
"################ X# X########################",
"################X# X#########################",
"#############################################",
"#############################################",
"#############################################",
"#############################################",
"#############################################",
"#############################################",
"#############################################",
"#############################################",
"#############################################",
"#############################################",
"#############################################",
"#############################################",
"#############################################",
"#############################################",
"#############################################",
"#############################################",
"#############################################"
};
