/* XPM */
static char *result[] = {
/* columns rows colors chars-per-pixel */
"45 45 8 1 ",
"  c #120D08",
". c #20150C",
"X c #2F2217",
"o c #46301E",
"O c #734F31",
"+ c #FF1831",
"@ c #E9E9E9",
"# c None",
/* pixels */
"#############################################",
"#############################################",
"#############################################",
"#############################################",
"#############################################",
"#############################################",
"#############################################",
"#############################################",
"#############################################",
"#############################################",
"####################### # ###################",
"##################### ooooo##################",
"#####################O oooo##################",
"##################OOOO@oo@Oo#################",
"############## O##OOOO...OOO#################",
"############# oooOOOOO@.OOOOO################",
"##############  oOOOOO..@OOOO@###############",
"############OOO OOOOOo@..oOOO@@##############",
"#############oOOOOOOOo..@oOOO++##############",
"##############ooOOoooooooooOO@@##############",
"###############OOooooooooooo@@@##############",
"###############Ooooooooooooo@@###############",
"############### Xo Xooooooo@@################",
"###############X# X#ooooO### ################",
"####################ooooOOOOO################",
"#####################oooooooO################",
"######################oooooO ################",
"########################ooo #################",
"#############################################",
"#############################################",
"#############################################",
"#############################################",
"#############################################",
"#############################################",
"#############################################",
"#############################################",
"#############################################",
"#############################################",
"#############################################",
"#############################################",
"#############################################",
"#############################################",
"#############################################",
"#############################################",
"#############################################"
};
