/* XPM */
static char *result[] = {
/* columns rows colors chars-per-pixel */
"45 45 7 1 ",
"  c #120D08",
". c #20150C",
"X c #2F2217",
"o c #46301E",
"O c #734F31",
"+ c #E9E9E9",
"@ c None",
/* pixels */
"@@@@@@@@@@@@++++++++++++@@@@@@@@@@@@@@@@@@@@@",
"@@@@@@@@@@@@@@+++++++++++@@@@@@@@@@@@@@@@@@@@",
"@@@@@@@@@@@@@@@@@+++++++++@@@@@@@@@@@@@@@@@@@",
"@@@@@@@@@@@@@@@@@@@++++++++@@@@@@@@@@@@@@@@@@",
"@@@@@@@@@@@@@@@@@@@+++++++++@@@@@@@@@@@@+@@@@",
"@@@@@@@@@@@@@@@@@@@@++++++++@@@@@@@@@@@@+@@@@",
"@@@@@@@@@@@@@@@@@@@@+++++++++@@@@@@@@@@@+@@@@",
"@@@@@@@@@@@@@@@@@@@@+++++++++@@@@@@@@@@++@@@@",
"@@@@@@@@@@@@@@@@@@@@@++++++++@@@@@@@@@@++@@@@",
"@@@@@@@@@@@@@@@@@@@@@+++++++++@@@@@@@@@++@@@@",
"@@@@@@@@@@@@@@@@@@@@@+++++++++@@@@@@@@+++@@@@",
"@@@@@@@@@@@@@@@@@@@@@+++++++++@@@@@@@@+++@@@@",
"@@@@@@@@@@@@@@@@@@@@++++++++++@@@@@@@@+++@@@@",
"@@@@@@@@@@@@@@@@@@@@+++++++++++@@@@@@@+++@@@@",
"@@@@@@@@@@++++++@ O++++++++++++@@@@@@++++@@@@",
"@@@@@@@+++++++++ oooO+OO+++++++@@@@@@++++@@@@",
"@@@@@@+++++++++++  oOOO++++O+++@@@@@+++++@@@@",
"@@@@@+++++++++++++ OOOO...OOO++@@@@@+++++@@@@",
"@@@@++++++++++++++OOOOOOOOOOOO++@@@+++++@@@@@",
"@@@++++++++++++++OOOOOoOOoOOOO++@@++++++@@@@@",
"@@@++++++++++OOO+OOOOoOOOoOOOO++++++++++@@@@@",
"@@++++++++++++oOOOOOOoOOoooOOO++++++++++@@@@@",
"@@++++++@@@++X OOOOOOoOoo ooOO++++++++++@@@@@",
"@@+++++@@@@@++XoOOOoo oo oooo++++++++++@@@@@@",
"@@++++@@@@@@@+ ooooooo oooooo++++++++++@@@@@@",
"@@+++@@@@@@@@++ ++oooooooooo+++++++++++@@@+@@",
"@@+++@@@@@@@@++@++++++oooooo++++++++++@@@@+@@",
"@@++@@@@@@@@++++++++++ooooo++++++++++@@@@+@@@",
"@@++@@@@@@@@+++++++++++oooooo@++++++@@@@@+@@@",
"@@++@@@@@@@@++++++++++++ooooo@++++++@@@+++@@@",
"@@++@@@@@@@@@++++++++++++o+++++++++@@@+++@@@@",
"@@@+@@@@@@@@@+++++++++++++++++++++@@+++++@@@@",
"@@@+@@@@@@@@@++++++++++++++++++++@+++++++@@@@",
"@@@@@@@@@@@@@++++++++++++++++++++++++++@@@@@@",
"@@@@@@@@@@@@@++++++++++++++++++++++++++@@@@@@",
"@@@@@@@@@@@@@+++++++++++++++++++++++++@@@@@@@",
"@@@@@@@@@@@@@@++++@@+++++++++++++++++@@@@@@@@",
"@@@@@@@@@@@@@@+++++@@@+++++++++++++@@@@@@@@@@",
"@@@@@@@@@@@@@@@++++@@@@@@+++++++@@@@@@@@@@@@@",
"@@@@@@@@@@@@@@@+++++@@@@@@@@@@@@@@@@@@@@@@@@@",
"@@@@@@@@@@@@@@@@++++@@@@@@@@@@@@@@@@@@@@@@@@@",
"@@@@@@@@@@@@@@@@@@+++@@@@@@@@@@@@@@@@@@@@@@@@",
"@@@@@@@@@@@@@@@@@@@++@@@@@@@@@@@@@@@@@@@@@@@@",
"@@@@@@@@@@@@@@@@@@@@+++@@@@@@@@@@@@@@@@@@@@@@",
"@@@@@@@@@@@@@@@@@@@@@@@@@@@@@@@@@@@@@@@@@@@@@"
};
