/* XPM */
static char *result[] = {
/* columns rows colors chars-per-pixel */
"45 45 6 1 ",
"  c #120D08",
". c #2F2217",
"X c #46301E",
"o c #734F31",
"O c #E9E9E9",
"+ c None",
/* pixels */
"+++++++++++++++++++++++++++++++++++++++++++++",
"+++++++++++++++++++++++++++++++++++++++++++++",
"+++++++++++++++++++++++++++++++++++++++++++++",
"++++++++++OOOO+O+++++++++++++++++++++++++++++",
"+++++++++OOOOOOOO++++++++++++++++++++++++++++",
"+++++++OOOOOOOOOOO+++++++++++++++++++++++++++",
"+++++++++++++++OOOO+++++++++++++++OO+++++++++",
"+++++++++++++++++++++++++++++++++++OO++++++++",
"+++++++++++++++++++++++++++++++++++OO++++++++",
"+++++++++++++++++++++++ + + ++++++++O++++++++",
"+++++++++++++++++++++++ o o ++++++++OO+++++++",
"+++++++++++++++++++++++oXoXX +++++++OO+++++++",
"+++++++++++++++++++++++oXXXX++++++++OO+++++++",
"++++++++++++++++++++++oXXXXX++++++++OO+++++++",
"++++++++++++++++++++++oXXXX+++++++++OO+++++++",
"++++++++++++++++++ o+oXXXX+++++++++O+++++++++",
"+++++++++++++++++ Xoooooooo++++++++++++++++++",
"+++++++++++++++++ooooooooooo+++++++++++++++++",
"++++++++++++ooo++oooooooooooo++++++++++++++++",
"+++++++++++++Xooooooooooooooo++++++++++++++++",
"+++++++++++++.Xoooooooooooooo++++++++++++++++",
"+++++++++++++ XXooooXXXXXXooo++++++++++++++++",
"++++++++++++++ XooXXXXXXXXXoo++++++++++++++++",
"++++++++++++++++XXXXXXXXXXXXO++++++++++++++++",
"+++++++++++++++++XXXoooXXXXXO++++++++++++++++",
"+++++++++++++++++XXoooXXXXXOO++++++++++++++++",
"++++++++++++++++++oooXXXXXXOO++++++++++++++++",
"++++++++++++++++++oooXXXXXOO+++++++++++++++++",
"+++++++++++++++++ooooX+++++++++++++++++++++++",
"+++++++++++++++++oooXX+++++++++++++++++++++++",
"+++++++++++++++++XooXXX++++++++++++++++++++++",
"+++++++++++++++++XXXXXX +++++++++++++++++++++",
"++++++++++++++++++XXXXXX+++++++++++++O+++++++",
"+++++++++++++++++++ X X ++++++++++++OO+++++++",
"+++++++++++++++OO+++++++++++++++++OOO++++++++",
"++++++++++++++++OO++++++++++++++++OO+++++++++",
"++++++++++++++++OOO++++++++++OOOOOO++++++++++",
"+++++++++++++++++O++++++++++++OOOO+++++++++++",
"+++++++++++++++++OO++++++++++++++++++++++++++",
"++++++++++++++++++OO+++++++++++++++++++++++++",
"+++++++++++++++++++OOOO++++++++++++++++++++++",
"+++++++++++++++++++++++++++++++++++++++++++++",
"+++++++++++++++++++++++++++++++++++++++++++++",
"+++++++++++++++++++++++++++++++++++++++++++++",
"+++++++++++++++++++++++++++++++++++++++++++++"
};
