/* XPM */
static char *result[] = {
/* columns rows colors chars-per-pixel */
"25 25 245 2 ",
"   c #AA7B00",
".  c #AA7C00",
"X  c #AB7C00",
"o  c #AB7D00",
"O  c #AC7D00",
"+  c #AC7E00",
"@  c #AD7E00",
"#  c #AE7F00",
"$  c #AE8000",
"%  c #AF8000",
"&  c #AF8100",
"*  c #B08100",
"=  c #B08200",
"-  c #B18200",
";  c #B28300",
":  c #B38400",
">  c #B48500",
",  c #B58600",
"<  c #B68600",
"1  c #B68700",
"2  c #B78800",
"3  c #B88900",
"4  c #B98A00",
"5  c #BA8B00",
"6  c #BB8C00",
"7  c #BB8D00",
"8  c #BC8D00",
"9  c #BD8E00",
"0  c #BE8E00",
"q  c #BE8F00",
"w  c #BF9000",
"e  c #C09100",
"r  c #C19200",
"t  c #C29200",
"y  c #C29300",
"u  c #C39400",
"i  c #C39500",
"p  c #C49500",
"a  c #C59600",
"s  c #C59700",
"d  c #C69600",
"f  c #C69700",
"g  c #C79700",
"h  c #C49800",
"j  c #C79800",
"k  c #C69900",
"l  c #C89800",
"z  c #C89900",
"x  c #C99900",
"c  c #C99A00",
"v  c #C99B00",
"b  c #CA9A00",
"n  c #CA9B00",
"m  c #C99C00",
"M  c #C89D00",
"N  c #CB9C00",
"B  c #CC9C00",
"V  c #CC9D00",
"C  c #CD9D00",
"Z  c #CD9E00",
"A  c #CE9E00",
"S  c #CF9F00",
"D  c #CDA300",
"F  c #CFAB00",
"G  c #D0A000",
"H  c #D0A100",
"J  c #D1A100",
"K  c #D2A300",
"L  c #D3A300",
"P  c #D2A400",
"I  c #D2A500",
"U  c #D4A400",
"Y  c #D4A500",
"T  c #D5A500",
"R  c #D5A600",
"E  c #D6A600",
"W  c #D6A700",
"Q  c #D0AD00",
"!  c #D8A800",
"~  c #D9A900",
"^  c #DAAA00",
"/  c #DAAB00",
"(  c #DBAB00",
")  c #DCAC00",
"_  c #DCAD00",
"`  c #DDAD00",
"'  c #DEAD00",
"]  c #DEAE00",
"[  c #DFAF00",
"{  c #D6B300",
"}  c #D6B700",
"|  c #DEB100",
" . c #DABA00",
".. c #DBBA00",
"X. c #DCB900",
"o. c #DDBC00",
"O. c #DEBE00",
"+. c #DABA0A",
"@. c #E0B000",
"#. c #E1B100",
"$. c #E0B200",
"%. c #E2B200",
"&. c #E2B300",
"*. c #E3B300",
"=. c #E4B400",
"-. c #E5B500",
";. c #E6B500",
":. c #E6B600",
">. c #E7B700",
",. c #E2B406",
"<. c #E6B800",
"1. c #E7B800",
"2. c #E7BA00",
"3. c #E2BC00",
"4. c #E0BF00",
"5. c #E8B800",
"6. c #E9B900",
"7. c #EABA00",
"8. c #EBBA00",
"9. c #EBBB00",
"0. c #E9BC00",
"q. c #ECBC00",
"w. c #EDBD00",
"e. c #EEBE00",
"r. c #EFBF00",
"t. c #F0BF00",
"y. c #E0C100",
"u. c #E5C000",
"i. c #E7C300",
"p. c #E2C400",
"a. c #E3C500",
"s. c #ECC400",
"d. c #EFC500",
"f. c #EDC600",
"g. c #EFCA00",
"h. c #EACD00",
"j. c #EFCD00",
"k. c #ECCE00",
"l. c #E2C009",
"z. c #E3C50C",
"x. c #E4C909",
"c. c #F1C000",
"v. c #F1C100",
"b. c #F3C300",
"n. c #F4C200",
"m. c #F4C300",
"M. c #F3C500",
"N. c #F0C600",
"B. c #F6C500",
"V. c #F6C600",
"C. c #F7C600",
"Z. c #F7C700",
"A. c #F7C703",
"S. c #F8C700",
"D. c #F0CD00",
"F. c #F5CC00",
"G. c #F8C800",
"H. c #F9C900",
"J. c #FAC900",
"K. c #FACA00",
"L. c #FBCA00",
"P. c #FBCB00",
"I. c #FCCB00",
"U. c #FDCC00",
"Y. c #FDCD00",
"T. c #FECD00",
"R. c #FDCE00",
"E. c #FECE00",
"W. c #FFCE00",
"Q. c #FFCF00",
"!. c #F8CA09",
"~. c #EFD100",
"^. c #EBD601",
"/. c #ECD800",
"(. c #EEDB00",
"). c #EFD30F",
"_. c #F1D100",
"`. c #F3D100",
"'. c #F6D100",
"]. c #F6D300",
"[. c #F3D400",
"{. c #F2D500",
"}. c #F3D500",
"|. c #F4D500",
" X c #FAD200",
".X c #FDD100",
"XX c #FFD100",
"oX c #FFD200",
"OX c #F9D400",
"+X c #F9D700",
"@X c #FFD500",
"#X c #F3DA00",
"$X c #FAD900",
"%X c #FAD901",
"&X c #FBDA00",
"*X c #FDDB00",
"=X c #FEDA00",
"-X c #FFDA00",
";X c #FCD902",
":X c #F9DD00",
">X c #FBDC00",
",X c #FFDD00",
"<X c #FFDE00",
"1X c #E9CD15",
"2X c #F4D41D",
"3X c #FBE100",
"4X c #FFE100",
"5X c #FFE200",
"6X c #FBE400",
"7X c #FFE500",
"8X c #FEE700",
"9X c #FBEA00",
"0X c #FFE900",
"qX c #FFEA00",
"wX c #FDEF00",
"eX c #FFEE00",
"rX c #FFEF02",
"tX c #FFEA07",
"yX c #FEE30B",
"uX c #FFEB0B",
"iX c #FEF200",
"pX c #FFF400",
"aX c #FFF107",
"sX c #FFFB00",
"dX c #FFF902",
"fX c #FFFC00",
"gX c #FFF308",
"hX c #FEE518",
"jX c #FFFE14",
"kX c #EED327",
"lX c #EFD228",
"zX c #F5D52D",
"xX c #F1DA2C",
"cX c #F9D739",
"vX c #FFF93D",
"bX c #FFEF48",
"nX c #FDEF4F",
"mX c #FFF247",
"MX c #FFFD4E",
"NX c #F4E058",
"BX c #FFF25A",
"VX c #FEF56E",
"CX c #FFFF71",
"ZX c #FEF284",
"AX c None",
/* pixels */
"AXAXAXAXAXAXAXAXAX].+X%X&X XZ.n.AXAXAXAXAXAXAXAXAX",
"AXAXAXAXAXAXAX$XhXbXmXaXeXqX<X@XR.G.AXAXAXAXAXAXAX",
"AXAXAXAXAX`.yXBXZXNX1Xp.y.p.u.d..XXXB.-.AXAXAXAXAX",
"AXAXAXAXj.8XuXkX+. .x.^.(./.O.n n >.C.w.1.AXAXAXAX",
"AXAXAXi.6X6X4. .xXVXMXdX9X#XOXY.8.b f ` 7.:.AXAXAX",
"AXAX) j.3X..z.nXCXvXtX>Xh.F $.W.Q.I.T 5 W :.~ AXAX",
"AXAX&.F.X.a.gXjXrX4X;X).'.b ) Q.W.Q.S.n 6 ! ( AXAX",
"AX^ <._ D wXfX0X,X*XlXcXL.b ) Q.W.W.m.>.5 y E J AX",
"AXL ] 0 k.sX5X-X=X~.l.A.L.b ) Q.W.L.e.w.R % A G AX",
"S B d h iX7XW.E.g.o.k N.L.b ) Q.U.v.q.q.>.1 8 V a ",
"G f < { pXoXW.V.3./ ,.2XK.c ) I.v.q.q.q.q.a % j j ",
"G r * } :XT.W.T.U.T.!.zXK.c E r.q.q.q.q.w.Z . r z ",
"G 0 @ Q f.c.C.K.P.I.M.|.J.x K q.q.q.q.q.>.x   9 z ",
"G q + M 0.q.q.w.w.w.2.{.H.x L q.q.q.9.=.] u   8 z ",
"c w # w @.q.q.q.q.q.2.}.G.l L w.q.5.#.` ^ 5 o 9 j ",
"f w & > T =.q.q.q.q.2.}.Z.l K 6.%.] ` ) H * % e f ",
"AXp : X f T *.9.q.q.2.[.B.g C ] ` ` ) U y   : p AX",
"AXf 5 @ - c Z W [ %.| _.b.f N ' ) ~ H c - @ 5 f AX",
"AXAXy : . 3 n n V H I D.t.f z Y G N n 3 . : u AXAX",
"AXAXs 8 -   3 c n n m s.;.t y n n c 3   - 8 f AXAX",
"AXAXAXp 3 - . - r c v P C 9 p c r = . - 3 p AXAXAX",
"AXAXAXAXu 4 ; @ . * 3 7 9 8 2 & . @ ; 2 y AXAXAXAX",
"AXAXAXAXAXi 9 , - $ O X X X O $ - > 6 y AXAXAXAXAX",
"AXAXAXAXAXAXAXy q 4 1 > > > 1 3 9 r AXAXAXAXAXAXAX",
"AXAXAXAXAXAXAXAXAXp u y y y u u AXAXAXAXAXAXAXAXAX"
};
