/* XPM */
static char *result[] = {
/* columns rows colors chars-per-pixel */
"25 25 73 1 ",
"  c #9F7100",
". c #A47600",
"X c #A67800",
"o c #AC7D00",
"O c #AE8000",
"+ c #B38400",
"@ c #B78900",
"# c #BB8D00",
"$ c #BF9000",
"% c #C39400",
"& c #C79800",
"* c #CB9C00",
"= c #CEA000",
"- c #CEA900",
"; c #D3A300",
": c #DCAC00",
"> c #DDB100",
", c #DABA01",
"< c #DBBB0A",
"1 c #CCA013",
"2 c #E3B300",
"3 c #E4BC00",
"4 c #EBBB00",
"5 c #E3C300",
"6 c #ECC200",
"7 c #E4C900",
"8 c #ECCB00",
"9 c #E7CC0B",
"0 c #F3C300",
"q c #F8C600",
"w c #F5CC04",
"e c #FCCC00",
"r c #EDD401",
"t c #EEDA00",
"y c #F3D300",
"u c #FDD200",
"i c #F2DE00",
"p c #FBDB01",
"a c #FEDF0C",
"s c #E5CA1D",
"d c #F9CC12",
"f c #FFE200",
"g c #FEEC02",
"h c #FFE20C",
"j c #FEF101",
"k c #FFFD00",
"l c #FCE512",
"z c #FEE519",
"x c #FFFE13",
"c c #EED12B",
"v c #F1D724",
"b c #F2D12A",
"n c #F1DA2D",
"m c #E8C53D",
"M c #F0CD31",
"N c #F1E120",
"B c #FCE727",
"V c #FFF234",
"C c #FFF738",
"Z c #FFFD3E",
"A c #F2DD4E",
"S c #FAD953",
"D c #F1EC45",
"F c #FAEA45",
"G c #FFF04D",
"H c #F9E55C",
"J c #F5DD7D",
"K c #FDFD61",
"L c #FFFE6F",
"P c #FEF671",
"I c #FDF282",
"U c #FFF7C8",
"Y c None",
/* pixels */
"YYYYYYYYyppp04222YYYYYYYY",
"YYYYYYpzGVggfueq0qqYYYYYY",
"YYYY8hGIA95556uu40alNYYYY",
"YYY5pgv<,9tt7**404cKKDYYY",
"YYYyg7,nPZgipe4**24rjgYYY",
"YY2p8,FLCB7-4uuq*%220eqYY",
"Y:46,gxghHw&4uee0#*::22:Y",
"Y:3*rkgaHUS14eue4:+;;:2:Y",
"Y;;*jgpysJd&4eeq04#%;;22Y",
"=*$7jue7=me&4ee044;+**:2:",
";&@ife4>:Mw&4e44442o%*22:",
"*#@rueeewbw*2044442+#&*;*",
"*#+54qeewwq&:44444:o+&#%$",
";@+>44444ww&:44442;o@&%%#",
"*#o;444438q&:4442:*o@&#%%",
"&@o&244448q&:42:::%o@&%%#",
"Y%O+;:4448q&;::::;++%%%#Y",
"Y%+o%*;2>80&;:>;*%o+%+++Y",
"Y&#oO&***64%*;;**oo##++OY",
"YY&+o+**&34%&**&+o+&+O+YY",
"YYY$+o+%***%&*%+o+$@++YYY",
"YYY%#+oX+@$#@+Xo+##OOOYYY",
"YYYY&#@++ooooO++#@+OOYYYY",
"YYYYYY&#@++++@##oXXYYYYYY",
"YYYYYYYY&%%$$@O..YYYYYYYY"
};
