/* XPM */
static char *result[] = {
/* columns rows colors chars-per-pixel */
"25 25 73 1 ",
"  c #A47600",
". c #AB7C00",
"X c #AF8000",
"o c #B38400",
"O c #B78800",
"+ c #BB8C00",
"@ c #BF9000",
"# c #C49500",
"$ c #C79800",
"% c #CA9B00",
"& c #CDA300",
"* c #D2A300",
"= c #D1AD00",
"- c #DBAC00",
"; c #D6B300",
": c #DFB700",
"> c #DBBB00",
", c #DABA0A",
"< c #E0AF00",
"1 c #E3B300",
"2 c #E5BB00",
"3 c #ECBB00",
"4 c #DEC200",
"5 c #E4C300",
"6 c #EFC400",
"7 c #E6CC00",
"8 c #EDCD00",
"9 c #E4C50C",
"0 c #E4C909",
"q c #F5C400",
"w c #F3CD00",
"e c #FECD00",
"r c #F0CD0C",
"t c #ECD501",
"y c #EEDB00",
"u c #F3D302",
"i c #FED300",
"p c #F5DB00",
"a c #FDDC00",
"s c #F1D80D",
"d c #E9CD15",
"f c #FDE300",
"g c #F6EC00",
"h c #FDEB01",
"j c #FEE30B",
"k c #FFEB0B",
"l c #FBF403",
"z c #FFF802",
"x c #FFF00D",
"c c #F9E111",
"v c #F2EC14",
"b c #FEE518",
"n c #EED327",
"m c #F1DB2C",
"M c #EFE722",
"N c #F0E823",
"B c #FFE925",
"V c #F1E52D",
"C c #F2EC3F",
"Z c #FBF43A",
"A c #FFF938",
"S c #FEEE4B",
"D c #FFF247",
"F c #FFFD4E",
"G c #F4E058",
"H c #FAF755",
"J c #FFF25A",
"K c #FEF56E",
"L c #FBF86E",
"P c #FFFA77",
"I c #FEF284",
"U c #FBF984",
"Y c None",
/* pixels */
"YYYYYYYYYuiapiqqYYYYYYYYY",
"YYYYYYYabSDlhhaieqYYYYYYY",
"YYYYYujJIGd5455qiie1YYYYY",
"YYYYwhkn,>0tyy>%%1q33YYYY",
"YYY5ff>>mKFzlfae1%$-31YYY",
"YY-wf>9SKZkaaaieee*+*2-YY",
"YY1w>5hMCVsaairsp8q%+--YY",
"Y-2-&gMUPAltiuciii21O#**Y",
"Y*:+7vHBiifh7aieeq--*.**Y",
"*%#$hvxeeeeafeee3<**1O+%#",
"%$O;glfeieeeeeeq1<$#-#.$%",
"*#X;ylfeeeeeeeq2<*#+-*.#$",
"%#.=5ghee333312<-%O#-%.@%",
"*+.%2tli311<111<*#.$-#.+#",
"%+.#12ga3<111<<*#.o*-O.+%",
"##.o*17hq<11<-%#..$-&o.##",
"Y#o.$*-tp11-*%#o @-*#.o#Y",
"Y%+.o%&*7t-%%#o O**%X.O#Y",
"YY#o.O%%%4:$#o.O%%%O.o#YY",
"YY#+o.o%%%;*#o+%%%+.o+%YY",
"YYY#Oo.o@%%%$#$%#o.oO#YYY",
"YYYY#Oo..oO+++Oo..oo#YYYY",
"YYYYY#+ooX.....XXo+#YYYYY",
"YYYYYYY#@OOOoooo+#YYYYYYY",
"YYYYYYYYY#######YYYYYYYYY"
};
