/* XPM */
static char *result[] = {
/* columns rows colors chars-per-pixel */
"25 25 75 1 ",
"  c #9F7100",
". c #A57600",
"X c #A67800",
"o c #AC7D00",
"O c #AF8000",
"+ c #B38400",
"@ c #B68800",
"# c #BB8C00",
"$ c #BF9000",
"% c #C39400",
"& c #C89700",
"* c #C79800",
"= c #CB9C00",
"- c #CDA100",
"; c #D3A300",
": c #D6AA00",
"> c #DCAC00",
", c #DEB100",
"< c #DCBB02",
"1 c #DABA09",
"2 c #E2B200",
"3 c #E4B900",
"4 c #EBBB00",
"5 c #E4C400",
"6 c #EDC400",
"7 c #E6CE04",
"8 c #EBCB00",
"9 c #E6CA0A",
"0 c #F4C300",
"q c #F8C700",
"w c #F4CD00",
"e c #FECD00",
"r c #F2CC08",
"t c #EDD500",
"y c #EEDA00",
"u c #F3D401",
"i c #FED400",
"p c #F5DA00",
"a c #FDDD01",
"s c #F0D60E",
"d c #F4DD0E",
"f c #FFD808",
"g c #F1E502",
"h c #FFE300",
"j c #F3EC01",
"k c #FEEB01",
"l c #FBE40B",
"z c #F1EA0C",
"x c #FEF101",
"c c #FCE512",
"v c #FDE51B",
"b c #FEF413",
"n c #F0D525",
"m c #F0DB2A",
"M c #F2DC31",
"N c #F1E123",
"B c #FCF22E",
"V c #FFFB2E",
"C c #F1EB3F",
"Z c #FFF331",
"A c #F2DC4A",
"S c #F2ED45",
"D c #FAEA47",
"F c #F4EE4B",
"G c #FFF14E",
"H c #FFEC57",
"J c #F6F252",
"K c #FFF153",
"L c #FDFD61",
"P c #FBF86B",
"I c #FFF770",
"U c #FDF182",
"Y c #FFFA85",
"T c #FBF9D0",
"R c None",
/* pixels */
"RRRRRRRR2238uiiwqRRRRRRRR",
"RRRRRRqqwivGZkkhieqRRRRRR",
"RRRRNclwaKUA95556ie62RRRR",
"RRRSLLmakm1<7yy5==4042RRR",
"RRRkktuk5<MIVxkhe4*=24RRR",
"RRqe03h5<DPBhaaieeq*%>2RR",
"R>33>48<cFSNuaarsuw4%=>;R",
"R>2>>4=tFTYVguwdfiu2:+;;R",
"R>2:;;-jJHiikyuiee0:>#%;R",
">22;=#7zbieeeaiee4>=:;o=%",
">22;%#yjkieeeeieq4;&=>o%=",
"=;==##7jkeeeeeeq22;%&>o%=",
"%%%=@@5txiq444422>=@=:o#%",
"#%%&@+,5xi4>22222;#o;;o@*",
"#%%%@O;2gh422222;%X%:=o#%",
"#%%%#O*,3k0>22>;&oo=:%o#=",
"R%%%%o@;>7p2,;==+.%:=+o%R",
"R+++%+o%-;78;=%#.#;;%o+%R",
"RO++##o+**-5:=#o+==%+o%%R",
"RROO+%+o+**=:=@#%==+o@%RR",
"RRR++#$+o+%===%*=%+o+%RRR",
"RRRO+O##+OX+####Ooo+#%RRR",
"RRRROO+#$++ooXooo++#%RRRR",
"RRRRRRX.o###@+++##%RRRRRR",
"RRRRRRRR .O#$%%%%RRRRRRRR"
};
