/* XPM */
static char *result[] = {
/* columns rows colors chars-per-pixel */
"25 25 255 2 ",
"   c #9F7100",
".  c #A07200",
"X  c #A47600",
"o  c #A67800",
"O  c #AA7B00",
"+  c #AA7C00",
"@  c #AB7C00",
"#  c #AB7D00",
"$  c #AC7D00",
"%  c #AC7E00",
"&  c #AD7E00",
"*  c #AE7F00",
"=  c #AE8000",
"-  c #AF8000",
";  c #AF8100",
":  c #B08100",
">  c #B08200",
",  c #B18200",
"<  c #B18300",
"1  c #B28300",
"2  c #B28400",
"3  c #B38400",
"4  c #B38500",
"5  c #B48500",
"6  c #B48600",
"7  c #B58600",
"8  c #B58700",
"9  c #B68700",
"0  c #B68800",
"q  c #B78800",
"w  c #B78900",
"e  c #B68A00",
"r  c #B88900",
"t  c #B88A00",
"y  c #B98A00",
"u  c #BA8B00",
"i  c #BB8B00",
"p  c #BB8C00",
"a  c #BA8E00",
"s  c #BC8D00",
"d  c #BC8E00",
"f  c #BD8E00",
"g  c #BE8E00",
"h  c #BE8F00",
"j  c #BF8F00",
"k  c #BE9000",
"l  c #BF9000",
"z  c #C09100",
"x  c #C19200",
"c  c #C29200",
"v  c #C29300",
"b  c #C29400",
"n  c #C39400",
"m  c #C49400",
"M  c #C49500",
"N  c #C59500",
"B  c #C59600",
"V  c #C59700",
"C  c #C69600",
"Z  c #C69700",
"A  c #C79800",
"S  c #C89800",
"D  c #C89900",
"F  c #C99900",
"G  c #C99A00",
"H  c #CA9A00",
"J  c #CA9B00",
"K  c #C99C00",
"L  c #CB9C00",
"P  c #CA9E00",
"I  c #CC9D00",
"U  c #CD9E00",
"Y  c #CE9E00",
"T  c #CE9F00",
"R  c #CFA301",
"E  c #D0A000",
"W  c #D0A100",
"Q  c #D1A100",
"!  c #D1A200",
"~  c #D2A200",
"^  c #D2A300",
"/  c #D3A400",
"(  c #D4A400",
")  c #D4A500",
"_  c #D5A500",
"`  c #D6A500",
"'  c #D5A600",
"]  c #D6A600",
"[  c #D7A700",
"{  c #D5A900",
"}  c #D7A800",
"|  c #D3AC00",
" . c #D4AD00",
".. c #D8A800",
"X. c #D8A900",
"o. c #D9A900",
"O. c #DAAA00",
"+. c #DBAB00",
"@. c #DCAC00",
"#. c #DDAD00",
"$. c #DDAE00",
"%. c #DFAF00",
"&. c #D5B001",
"*. c #DDB100",
"=. c #DBBB00",
"-. c #DFB900",
";. c #DCBB00",
":. c #DBBD00",
">. c #DCBD00",
",. c #DFBE00",
"<. c #E0B000",
"1. c #E0B100",
"2. c #E1B100",
"3. c #E2B100",
"4. c #E1B200",
"5. c #E2B200",
"6. c #E3B300",
"7. c #E1B500",
"8. c #E3B700",
"9. c #E4B400",
"0. c #E6B600",
"q. c #E6B700",
"w. c #E7B700",
"e. c #E6B800",
"r. c #E6B900",
"t. c #E0BE00",
"y. c #E4BF00",
"u. c #E8B800",
"i. c #E9B900",
"p. c #E9BC00",
"a. c #ECBC00",
"s. c #EDBC00",
"d. c #EDBD00",
"f. c #EEBD00",
"g. c #EFBE00",
"h. c #E1C200",
"j. c #E3C300",
"k. c #E7C200",
"l. c #E4C700",
"z. c #E9C100",
"x. c #ECC600",
"c. c #E4CA00",
"v. c #E7CE06",
"b. c #EBC900",
"n. c #E6C90A",
"m. c #F2C100",
"M. c #F2C200",
"N. c #F1C400",
"B. c #F5C400",
"V. c #F6C500",
"C. c #F7C500",
"Z. c #F6C600",
"A. c #F1CC00",
"S. c #F7CF00",
"D. c #FACA00",
"F. c #FCCB00",
"G. c #FACF00",
"H. c #FCCC00",
"J. c #FDCD00",
"K. c #FECD00",
"L. c #FFCD00",
"P. c #FFCE00",
"I. c #FECF00",
"U. c #FFCF00",
"Y. c #FCCC04",
"T. c #E7D100",
"R. c #E9D300",
"E. c #EBD400",
"W. c #EAD500",
"Q. c #EFD206",
"!. c #EDD900",
"~. c #ECDA00",
"^. c #EDDA00",
"/. c #EFD802",
"(. c #EFD10E",
"). c #F3D000",
"_. c #F5D000",
"`. c #F5D300",
"'. c #F5D201",
"]. c #F6D200",
"[. c #F7D600",
"{. c #F4D402",
"}. c #F9D100",
"|. c #F9D302",
" X c #FFD000",
".X c #FED100",
"XX c #FFD500",
"oX c #FFD401",
"OX c #F1D803",
"+X c #F5D900",
"@X c #F3DD00",
"#X c #F1DE05",
"$X c #FAD900",
"%X c #FFDA00",
"&X c #FFDB00",
"*X c #F8DD00",
"=X c #FCDD00",
"-X c #FFDD00",
";X c #FFDF02",
":X c #FADD07",
">X c #FFDB08",
",X c #FCDC0D",
"<X c #FCDF0F",
"1X c #E0C115",
"2X c #FFD113",
"3X c #FFDD11",
"4X c #F6E001",
"5X c #F2E400",
"6X c #F2E605",
"7X c #F9E100",
"8X c #FDE600",
"9X c #FFE600",
"0X c #FFE502",
"qX c #F6ED00",
"wX c #FAEB00",
"eX c #FFE800",
"rX c #FFEF00",
"tX c #FDE708",
"yX c #F6F000",
"uX c #FFF100",
"iX c #FFF002",
"pX c #FFF003",
"aX c #FAE413",
"sX c #FFE611",
"dX c #F3ED11",
"fX c #FAE418",
"gX c #EAD021",
"hX c #EDD428",
"jX c #F1DA23",
"kX c #FFD529",
"lX c #FFDE2D",
"zX c #F6EB20",
"xX c #FFE926",
"cX c #F0E228",
"vX c #F2E82A",
"bX c #FFEA2A",
"nX c #FFF22D",
"mX c #FFFC2C",
"MX c #FBF338",
"NX c #FFDC4B",
"BX c #F3DF54",
"VX c #FFEF48",
"CX c #FFFD48",
"ZX c #F2ED55",
"AX c #FAF85B",
"SX c #F2EB60",
"DX c #FCFB60",
"FX c #FFFF61",
"GX c #FDF468",
"HX c #FDF771",
"JX c #FFF37C",
"KX c #FCF99A",
"LX c #FFF1AB",
"PX c #FFFEBE",
"IX c None",
/* pixels */
"IXIXIXIXIXIXIXIXIX9.6.8.x.'.$X}.V.IXIXIXIXIXIXIXIX",
"IXIXIXIXIXIXIXC.F.D.S.<XVXnXrXeX%XI.Z.IXIXIXIXIXIX",
"IXIXIXIXIXIXaXsX:X].xXJXBXn.h.j.z.G.U.d.IXIXIXIXIX",
"IXIXIXIXIXAXFXDXjX8XfX1X=.v.^.W. .G i.M.u.IXIXIXIX",
"IXIXIXIX4XiXpX/.+X7X;.gXGXmXuX9XXXg.F W u.6.IXIXIX",
"IXIXIXIXD.H.Z.r.*X,.hXHXMX0X-X&XJ.F.B.m E 6.IXIXIX",
"IXIXIX%.0.0.<.p.k.l.zXZXcX{.-X|.(.OXA.2.f o.) IXIX",
"IXIXIX<.5.<.+.q.R #XSXPXCX6X).Q.,XoX_.7.M C ( IXIX",
"IXIXX.4.5.#._ ~ &.vXKXLXlXtXR.[.U.L.m.} ( w Q Z IX",
"IXIX@.5.5.O.U z c.dXbXNXL. X=X.XP.Z.+.Y o.r Z A IX",
"IXIX$.5.5...Z d ~.yX3XkXP.P.P.P.H.i._ C ' l p A IX",
"IXIXL T Y Y c a T.qX>X2XK.P.P.F.d.5.~ g / M 7 A IX",
"IXIXl x z D j e t.5X;XY.a.s.f.w.5.<.H 9 ) x 3 Z IX",
"IXIXl x x S l 4 *.E.eXB.5.4.5.5.5.[ i q ] f 1 B IX",
"IXIXl x x n l > _ y.wXN.3.5.5.5.o.C % c X.0 5 B IX",
"IXIXh x x v l * H 1.!.`.3.5.2.[ H 5 & ! ^ ; q B IX",
"IXIXs z x x v - p ` -.@Xe.<.( F g o x ..M % s M IX",
"IXIXIX6 8 7 z 9 * A T :.b.( S m O 3 Q Y 9 - x IXIX",
"IXIXIX= > ; y f & r J K >.{ C 3 = B I v $ 9 M IXIX",
"IXIXIXIX> > 2 z 5 # k J P | N q v J Z ; - h IXIXIX",
"IXIXIXIX= > > t f : # s G K V M J n ; & q b IXIXIX",
"IXIXIXIXIX; > , d u : @ : u d s 6 # * 5 l IXIXIXIX",
"IXIXIXIXIXIX; ; < f u 3 * # @ @ & , 7 h IXIXIXIXIX",
"IXIXIXIXIXIXIXo X o 6 f y 7 5 5 q s x IXIXIXIXIXIX",
"IXIXIXIXIXIXIXIXIX  . + y z v v n IXIXIXIXIXIXIXIX"
};
