/* XPM */
static char *result[] = {
/* columns rows colors chars-per-pixel */
"25 25 236 2 ",
"   c #A17300",
".  c #A27400",
"X  c #A37500",
"o  c #AB7C00",
"O  c #AB7D00",
"+  c #AC7D00",
"@  c #AC7E00",
"#  c #AD7E00",
"$  c #AD7F00",
"%  c #AE7F00",
"&  c #AE8000",
"*  c #AF8000",
"=  c #AF8100",
"-  c #B08100",
";  c #B08200",
":  c #B18200",
">  c #B18300",
",  c #B28300",
"<  c #B38400",
"1  c #B38500",
"2  c #B48500",
"3  c #B48600",
"4  c #B58600",
"5  c #B58700",
"6  c #B68700",
"7  c #B78800",
"8  c #B78900",
"9  c #B88900",
"0  c #B88A00",
"q  c #B98A00",
"w  c #B98B00",
"e  c #BA8A00",
"r  c #BA8B00",
"t  c #BB8B00",
"y  c #BB8C00",
"u  c #BB8D00",
"i  c #BC8D00",
"p  c #BC8E00",
"a  c #BD8E00",
"s  c #BD8F00",
"d  c #BE8F00",
"f  c #BF9000",
"g  c #C09000",
"h  c #C09100",
"j  c #C19200",
"k  c #C29300",
"l  c #C39300",
"z  c #C39400",
"x  c #C39500",
"c  c #C49400",
"v  c #C49500",
"b  c #C59600",
"n  c #C69600",
"m  c #C69700",
"M  c #C79700",
"N  c #C69603",
"B  c #C79800",
"V  c #C89800",
"C  c #C89900",
"Z  c #C99A00",
"A  c #CA9A00",
"S  c #CA9B00",
"D  c #CB9B00",
"F  c #CA9C00",
"G  c #CB9C00",
"H  c #CA9D00",
"J  c #CC9C00",
"K  c #CC9D00",
"L  c #CD9D00",
"P  c #CD9E00",
"I  c #CE9E00",
"U  c #CE9F00",
"Y  c #CF9F00",
"T  c #CFA000",
"R  c #CFA700",
"E  c #D0A100",
"W  c #D1A100",
"Q  c #D1A200",
"!  c #D2A200",
"~  c #D0A500",
"^  c #D3A600",
"/  c #D4A400",
"(  c #D4A500",
")  c #D5A500",
"_  c #D5A800",
"`  c #D1AC00",
"'  c #D7AF00",
"]  c #D6A807",
"[  c #D8A800",
"{  c #D8A900",
"}  c #DAAA00",
"|  c #DBAB00",
" . c #DCAC00",
".. c #DEAE00",
"X. c #DFAF00",
"o. c #D6B300",
"O. c #DCB000",
"+. c #DFB300",
"@. c #DBBC0A",
"#. c #DCBF18",
"$. c #E0AF00",
"%. c #E0B000",
"&. c #E1B100",
"*. c #E1B200",
"=. c #E2B200",
"-. c #E3B300",
";. c #E3B400",
":. c #E4B400",
">. c #E5B500",
",. c #E6B600",
"<. c #E7B700",
"1. c #E8B900",
"2. c #EBBA00",
"3. c #EABB00",
"4. c #EBBB00",
"5. c #E9BC01",
"6. c #ECBC00",
"7. c #EDBC00",
"8. c #EEBE00",
"9. c #E6B80C",
"0. c #F0BF00",
"q. c #E8BD1D",
"w. c #D8B62E",
"e. c #DCC200",
"r. c #DFC700",
"t. c #DFC21C",
"y. c #E1C200",
"u. c #E4C100",
"i. c #E5C400",
"p. c #E4C600",
"a. c #E9C000",
"s. c #E8C100",
"d. c #E3C800",
"f. c #E6C800",
"g. c #E7CC00",
"h. c #E5CB05",
"j. c #EDC900",
"k. c #EFCC00",
"l. c #F0C000",
"z. c #F1C000",
"x. c #F1C100",
"c. c #F2C000",
"v. c #F2C200",
"b. c #F5C400",
"n. c #F7C600",
"m. c #F8C600",
"M. c #F3C900",
"N. c #F7C800",
"B. c #F7CB00",
"V. c #F0CC00",
"C. c #F6CE00",
"Z. c #F3CE07",
"A. c #FBCA00",
"S. c #FBCB00",
"D. c #FCCB00",
"F. c #FBCC00",
"G. c #FCCC00",
"H. c #FECD00",
"J. c #FFCD00",
"K. c #FFCE00",
"L. c #FFCF00",
"P. c #ECD600",
"I. c #EEDA00",
"U. c #EBD804",
"Y. c #F4D100",
"T. c #F3D400",
"R. c #F2D701",
"E. c #F7D500",
"W. c #F1D406",
"Q. c #FFD300",
"!. c #FFD003",
"~. c #FAD501",
"^. c #FFD600",
"/. c #FBD407",
"(. c #FFD605",
"). c #F4DA00",
"_. c #F1DC02",
"`. c #FAD800",
"'. c #FEDB00",
"]. c #FFDD00",
"[. c #F0D609",
"{. c #F1D50A",
"}. c #FBDE09",
"|. c #E7CC14",
" X c #FEDC16",
".X c #F2E100",
"XX c #F6E202",
"oX c #FFE000",
"OX c #FFE300",
"+X c #FCE600",
"@X c #FEE707",
"#X c #F6E800",
"$X c #F7EB00",
"%X c #FCEB02",
"&X c #FFEF00",
"*X c #F9E20E",
"=X c #F3E809",
"-X c #FFF000",
";X c #FFF002",
":X c #FFE612",
">X c #FFE712",
",X c #F8E315",
"<X c #F2DA25",
"1X c #F2CB32",
"2X c #ECD736",
"3X c #FEE122",
"4X c #F2E02F",
"5X c #FFEA32",
"6X c #FFE23B",
"7X c #FFF235",
"8X c #FFFB3A",
"9X c #FFDB42",
"0X c #FEDC4E",
"qX c #FFEF4B",
"wX c #F4F14F",
"eX c #FFE55C",
"rX c #F3EB5D",
"tX c #F8EB5D",
"yX c #F5E560",
"uX c #F8E96D",
"iX c #F8F261",
"pX c #FCF764",
"aX c #FFFF61",
"sX c #FEFF62",
"dX c #F8F16C",
"fX c #FFE473",
"gX c #F7EF8E",
"hX c #FFEF8E",
"jX c #FDF88A",
"kX c #FFFF9F",
"lX c #F6F2A8",
"zX c #FFF4C8",
"xX c #FFFDE2",
"cX c #FFFEE7",
"vX c #FEFEF6",
"bX c None",
/* pixels */
"bXbXbXbXbXbXbXbX0.8.7.1.a.Y.`.B.c.bXbXbXbXbXbXbXbX",
"bXbXbXbXbXbXbXm.J.K.F.~.5X7X&XOXQ.n.bXbXbXbXbXbXbX",
"bXbXbXbXbXbX,X:X>X}.E.qXuX|.y.u.M.L.4.bXbXbXbXbXbX",
"bXbXbXbXbXwXaXaXsX4X+X<X@.h.I.d.H -.l.-.bXbXbXbXbX",
"bXbXbXbXbX%X;X;XXXR.).t.tX8X-XoXN.U / <.bXbXbXbXbX",
"bXbXbXbXx.G.G.S.3.T.y.yXpX@X].^.D.b.b } | bXbXbXbX",
"bXbXbXbX=.,.,.-.;.s.g.dXrXW.'.Z.[.V.[ B [ bXbXbXbX",
"bXbXbXbX&.=.=. .*._ U.lXkX=Xk.{.(.C.O.f W bXbXbXbX",
"bXbXbX} =.=.=.[ ] w.gXvXcXjX2X/.K.v.[ v B Z bXbXbX",
"bXbXbX .=.=.=.( N #.iXxXzX9X X!.A.X.Y G a C bXbXbX",
"bXbXbX..=.=.&.Q a r.$XhXfXJ.K.K.z.[ B T 8 m bXbXbX",
"bXbXbXD I I P D w e.#XeX0XH.K.n.>./ g ! 4 v bXbXbX",
"bXbXbXf j h j M 5 o..X6X1X2.6.:.&.L t E < k bXbXbX",
"bXbXbXf j j j M 2 ^ P.3Xq.&.=.=. .d y T > k bXbXbX",
"bXbXbXf j j j z 2 J i.*X9.=.=.X.L - b K : k bXbXbX",
"bXbXbXd j j j k 2 l +._.5.=.%.! i $ ! z > k bXbXbX",
"bXbXbXa h h h j 7 7 ) p.j.$.! n # y ) 9 4 z bXbXbX",
"bXbXbXbX3 3 3 9 i * m ~ f.{ V e O K S - r bXbXbXbX",
"bXbXbXbX= ; ; > s - r A ` ' c % i K a & f bXbXbXbX",
"bXbXbXbX& ; ; ; r 7 $ x F R k r C m * 4 k bXbXbXbX",
"bXbXbXbXbX= ; ; 1 p - = v Z x m m > % i bXbXbXbXbX",
"bXbXbXbXbX& ; ; ; w q % @ 8 u 0 $ # 6 h bXbXbXbXbX",
"bXbXbXbXbXbX= ; ; > p 9 - + o + - 4 d bXbXbXbXbXbX",
"bXbXbXbXbXbXbX= & $ & w i 6 2 4 r h bXbXbXbXbXbXbX",
"bXbXbXbXbXbXbXbXX .   X , f k k z bXbXbXbXbXbXbXbX"
};
