/* XPM */
static char *result[] = {
/* columns rows colors chars-per-pixel */
"25 25 159 2 ",
"   c #9F7100",
".  c #A07200",
"X  c #A47600",
"o  c #A57700",
"O  c #AC7D00",
"+  c #AD7E00",
"@  c #AE8000",
"#  c #AF8000",
"$  c #AF8100",
"%  c #AF8200",
"&  c #B08100",
"*  c #B08200",
"=  c #B18300",
"-  c #B28400",
";  c #B38500",
":  c #B48500",
">  c #B48600",
",  c #B58600",
"<  c #B58700",
"1  c #B68700",
"2  c #B68800",
"3  c #B78800",
"4  c #B78900",
"5  c #B88900",
"6  c #B88A00",
"7  c #B98A00",
"8  c #BA8B00",
"9  c #BB8B00",
"0  c #BB8C00",
"q  c #BC8D00",
"w  c #BC8E00",
"e  c #BD8E00",
"r  c #BE8F00",
"t  c #BE9000",
"y  c #BF9000",
"u  c #BF9100",
"i  c #C09100",
"p  c #C09200",
"a  c #C19200",
"s  c #C29300",
"d  c #C39300",
"f  c #C39400",
"g  c #C49400",
"h  c #C59500",
"j  c #C49600",
"k  c #C59600",
"l  c #C59800",
"z  c #C69A00",
"x  c #C89800",
"c  c #C89900",
"v  c #CA9A00",
"b  c #C99D00",
"n  c #CA9C00",
"m  c #CC9C00",
"M  c #CE9E00",
"N  c #CE9F00",
"B  c #CF9F00",
"V  c #CDA500",
"C  c #CEA400",
"Z  c #CEA500",
"A  c #CFAE00",
"S  c #D0A000",
"D  c #D1A100",
"F  c #D1A200",
"G  c #D3A300",
"H  c #D6A600",
"J  c #D7A700",
"K  c #DBAB00",
"L  c #D8AD00",
"P  c #DCAC00",
"I  c #DCAD00",
"U  c #DDAD00",
"Y  c #DEAE00",
"T  c #DFAE00",
"R  c #DFAF00",
"E  c #D2B600",
"W  c #D3B305",
"Q  c #DDB700",
"!  c #D4B800",
"~  c #DCB60B",
"^  c #E2B200",
"/  c #E4B300",
"(  c #E1B400",
")  c #E4B400",
"_  c #E5B400",
"`  c #E6B500",
"'  c #E4B600",
"]  c #E6B600",
"[  c #E7B600",
"{  c #E7B700",
"}  c #E5BF00",
"|  c #E8B800",
" . c #EEBD00",
".. c #EEBE00",
"X. c #D8B728",
"o. c #E5C200",
"O. c #E5C300",
"+. c #E7C303",
"@. c #E1C500",
"#. c #EAC700",
"$. c #E3C904",
"%. c #EBC900",
"&. c #EEC801",
"*. c #EAC806",
"=. c #F3C200",
"-. c #F5C500",
";. c #F7C500",
":. c #F7C600",
">. c #F1C802",
",. c #F7C900",
"<. c #F7CA00",
"1. c #F1CD00",
"2. c #F1CE00",
"3. c #F2CF05",
"4. c #FACA00",
"5. c #FBCA00",
"6. c #FDCB00",
"7. c #F8CF00",
"8. c #FCCC00",
"9. c #FDCC00",
"0. c #FECD00",
"q. c #FFCE00",
"w. c #EED30E",
"e. c #F8D300",
"r. c #FCD000",
"t. c #FCD600",
"y. c #FCD700",
"u. c gold",
"i. c #FED105",
"p. c #F1D800",
"a. c #F9DB07",
"s. c #F8D50D",
"d. c #E8CE15",
"f. c #EFD513",
"g. c #E8D81D",
"h. c #FFE300",
"j. c #FFE500",
"k. c #FBEA02",
"l. c #FBEB02",
"z. c #FFF002",
"x. c #FFF003",
"c. c #FFE611",
"v. c #FEE412",
"b. c #FEEA1F",
"n. c #EBD32D",
"m. c #FADD24",
"M. c #F0DE36",
"N. c #F6E72D",
"B. c #FFF02A",
"V. c #EFE23E",
"C. c #FDF335",
"Z. c #F4DE4B",
"A. c #FBE641",
"S. c #F7F556",
"D. c #FFFF61",
"F. c #FEFF62",
"G. c #F1E97E",
"H. c #FBF3B6",
"J. c None",
/* pixels */
"J.J.J.J.J.J.J.J.J._ ` ` ' 1.7.J.J.J.J.J.J.J.J.J.J.",
"J.J.J.J.J.J.J.J.;.6.9.5.s.B.j.,.J.J.J.J.J.J.J.J.J.",
"J.J.J.J.J.J.J.J.v.c.c.a.A.n.O.<.J.J.J.J.J.J.J.J.J.",
"J.J.J.J.J.J.J.S.D.D.F.N.w.$.@.I | J.J.J.J.J.J.J.J.",
"J.J.J.J.J.J.J.k.x.z.l.p.d.C.h.U K J.J.J.J.J.J.J.J.",
"J.J.J.J.J.J.J.4.8.8.-.#.M.b.u...F J.J.J.J.J.J.J.J.",
"J.J.J.J.J.J.U ` ] ] ^ } g.f.3.+.N B J.J.J.J.J.J.J.",
"J.J.J.J.J.J.P ^ ^ ^ P ~ G.V.*.>.n v J.J.J.J.J.J.J.",
"J.J.J.J.J.J.U ^ ^ ^ H X.H.Z.&.=.c k J.J.J.J.J.J.J.",
"J.J.J.J.J.J.Y ^ ^ ^ S W m.i.r.[ h i J.J.J.J.J.J.J.",
"J.J.J.J.J.J.R ^ ^ ^ m ! y.q.0.T d r J.J.J.J.J.J.J.",
"J.J.J.J.J.J.m N N M g E t.q.:.J a w J.J.J.J.J.J.J.",
"J.J.J.J.J.J.y a i a r A e. .{ D r 0 J.J.J.J.J.J.J.",
"J.J.J.J.J.J.u a a a r V 2./ ^ x r 8 J.J.J.J.J.J.J.",
"J.J.J.J.J.J.y a a a q b %.) Y e i 7 J.J.J.J.J.J.J.",
"J.J.J.J.J.J.y a a a q j o.' G 1 s 5 J.J.J.J.J.J.J.",
"J.J.J.J.J.J.r a a a q e Q ( h 3 a 4 J.J.J.J.J.J.J.",
"J.J.J.J.J.J.; , < , 3 3 Z L 9 q q 6 J.J.J.J.J.J.J.",
"J.J.J.J.J.J.@ * * % : , l C 1 p 3 8 J.J.J.J.J.J.J.",
"J.J.J.J.J.J.J.* * * - : t z q a : J.J.J.J.J.J.J.J.",
"J.J.J.J.J.J.J.$ * * = 1 > f s 6 > J.J.J.J.J.J.J.J.",
"J.J.J.J.J.J.J.$ * * * 2 & < 5 # 5 J.J.J.J.J.J.J.J.",
"J.J.J.J.J.J.J.J.$ $ $ ; 3 + O : J.J.J.J.J.J.J.J.J.",
"J.J.J.J.J.J.J.J.o X X o > 3 , q J.J.J.J.J.J.J.J.J.",
"J.J.J.J.J.J.J.J.J.. .   o q s J.J.J.J.J.J.J.J.J.J."
};
