/* XPM */
static char *result[] = {
/* columns rows colors chars-per-pixel */
"25 25 156 2 ",
"   c #9F7100",
".  c #A07200",
"X  c #A47600",
"o  c #A57700",
"O  c #AB7D00",
"+  c #AD7E00",
"@  c #AE8000",
"#  c #AF8000",
"$  c #AF8100",
"%  c #AF8200",
"&  c #B08100",
"*  c #B08200",
"=  c #B18300",
"-  c #B28400",
";  c #B38400",
":  c #B38500",
">  c #B48500",
",  c #B48600",
"<  c #B58600",
"1  c #B58700",
"2  c #B68700",
"3  c #B78800",
"4  c #B88900",
"5  c #B98A00",
"6  c #BA8B00",
"7  c #BB8D00",
"8  c #BC8D00",
"9  c #BD8D00",
"0  c #BC8E00",
"q  c #BD8E00",
"w  c #BD8F00",
"e  c #BE8F00",
"r  c #BF9000",
"t  c #BF9200",
"y  c #C09100",
"u  c #C19100",
"i  c #C19200",
"p  c #C29300",
"a  c #C29400",
"s  c #C39400",
"d  c #C39500",
"f  c #C49500",
"g  c #C49700",
"h  c #C59700",
"j  c #C89900",
"k  c #C99900",
"l  c #CA9A00",
"z  c #CA9B00",
"x  c #C99E00",
"c  c #CB9F00",
"v  c #CC9C00",
"b  c #CD9E00",
"n  c #CE9E00",
"m  c #CE9F00",
"M  c #CF9F00",
"N  c #CCA000",
"B  c #D3A300",
"V  c #D3A500",
"C  c #D5A500",
"Z  c #D6A500",
"A  c #D6A600",
"S  c #D2AA00",
"D  c #D7A800",
"F  c #D4AC00",
"G  c #D8A800",
"H  c #DCAC00",
"J  c #DCAD00",
"K  c #DDAD00",
"L  c #DDAF00",
"P  c #DEAE00",
"I  c #DFAF00",
"U  c #D7B400",
"Y  c #DBBB00",
"T  c #DABD00",
"R  c #DBB90B",
"E  c #D9BB15",
"W  c #E2B100",
"Q  c #E2B200",
"!  c #E3B200",
"~  c #E4B400",
"^  c #E5B400",
"/  c #E5B500",
"(  c #E6B500",
")  c #E6B600",
"_  c #E8B700",
"`  c #E2BB01",
"'  c #E2BD00",
"]  c #E5BD01",
"[  c #ECBB00",
"{  c #E8BE01",
"}  c #DDC300",
"|  c #DFC500",
" . c #DCC008",
".. c #E5C402",
"X. c #E8C400",
"o. c #E9C400",
"O. c #ECC700",
"+. c #E6CE02",
"@. c #ECCE00",
"#. c #E9C904",
"$. c #EFCE07",
"%. c #E8CD0F",
"&. c #F1C100",
"*. c #F0C400",
"=. c #F5C500",
"-. c #F7C500",
";. c #F6C600",
":. c #F1C900",
">. c #F7C800",
",. c #F5CA00",
"<. c #F1CD07",
"1. c #F9C900",
"2. c #FACA00",
"3. c #FBCA00",
"4. c #FDCB00",
"5. c #F8CE00",
"6. c #FCCC00",
"7. c #FDCC00",
"8. c #FCCD00",
"9. c #FFCE00",
"0. c #EED100",
"q. c #E9D30E",
"w. c #FCD000",
"e. c #FED300",
"r. c #FFD300",
"t. c #F9D700",
"y. c #FFD400",
"u. c #FED503",
"i. c #F3D804",
"p. c #FCD800",
"a. c #FFDF00",
"s. c #F2D40A",
"d. c #F6D509",
"f. c #E7CB19",
"g. c #FCDF19",
"h. c #FBEA02",
"j. c #FCEC03",
"k. c #FFE60F",
"l. c #FFF002",
"z. c #FFF003",
"x. c #FFE611",
"c. c #FFE711",
"v. c #FEE412",
"b. c #F9E01E",
"n. c #EBD425",
"m. c #E9DB25",
"M. c #F0D62D",
"N. c #FFF020",
"B. c #FFF628",
"V. c #F4E540",
"C. c #FAE84F",
"Z. c #F5EC55",
"A. c #F7F456",
"S. c #FFFF61",
"D. c #FFFF62",
"F. c None",
/* pixels */
"F.F.F.F.F.F.F.F.F.F.t.*.! ( ( ~ F.F.F.F.F.F.F.F.F.",
"F.F.F.F.F.F.F.F.F.b.N.a.;.3.7.4.-.F.F.F.F.F.F.F.F.",
"F.F.F.F.F.F.F.F.F.C.f.o.>.d.c.x.v.F.F.F.F.F.F.F.F.",
"F.F.F.F.F.F.F.F.i.%.+.Y W M.D.S.S.A.F.F.F.F.F.F.F.",
"F.F.F.F.F.F.F.F.0.n.B.p.Z ] j.l.z.h.F.F.F.F.F.F.F.",
"F.F.F.F.F.F.F.F.#.V.k.e.^ A =.6.6.2.F.F.F.F.F.F.F.",
"F.F.F.F.F.F.F.L ..m.s.$.` n I ) ) / H F.F.F.F.F.F.",
"F.F.F.F.F.F.F.G R Z.q.<.{ j D Q Q Q H F.F.F.F.F.F.",
"F.F.F.F.F.F.F.b E g.@.,._ f B Q Q Q K F.F.F.F.F.F.",
"F.F.F.F.F.F.F.h  .u.w.8.H p b Q Q Q P F.F.F.F.F.F.",
"F.F.F.F.F.F.F.a | y.9.1.C i z Q Q Q I F.F.F.F.F.F.",
"F.F.F.F.F.F.F.t } r.9.&.M u p n m m v F.F.F.F.F.F.",
"F.F.F.F.F.F.F.w T 5.[ ~ k r 0 y y i r F.F.F.F.F.F.",
"F.F.F.F.F.F.F.8 U :.W I y r 8 i i i r F.F.F.F.F.F.",
"F.F.F.F.F.F.F.6 S O.! G 6 y 7 i i i r F.F.F.F.F.F.",
"F.F.F.F.F.F.F.4 N X.Q l 5 y 8 i i i r F.F.F.F.F.F.",
"F.F.F.F.F.F.F.3 d ' J 9 q q 0 i i i e F.F.F.F.F.F.",
"F.F.F.F.F.F.F.4 6 F V < p 4 3 < 1 < : F.F.F.F.F.F.",
"F.F.F.F.F.F.F.6 2 x c > a < > % * * @ F.F.F.F.F.F.",
"F.F.F.F.F.F.F.F.> s g e e , - * * * F.F.F.F.F.F.F.",
"F.F.F.F.F.F.F.F.< 5 p s , 1 = * * $ F.F.F.F.F.F.F.",
"F.F.F.F.F.F.F.F.5 # 4 < & 1 * * * $ F.F.F.F.F.F.F.",
"F.F.F.F.F.F.F.F.F.> O + 2 ; $ $ $ F.F.F.F.F.F.F.F.",
"F.F.F.F.F.F.F.F.F.q < 3 : o X X o F.F.F.F.F.F.F.F.",
"F.F.F.F.F.F.F.F.F.F.p 7 o   . . F.F.F.F.F.F.F.F.F."
};
