/* XPM */
static char *result[] = {
/* columns rows colors chars-per-pixel */
"25 25 226 2 ",
"   c #A17300",
".  c #A27400",
"X  c #A37500",
"o  c #AA7B00",
"O  c #AB7C00",
"+  c #AC7D00",
"@  c #AC7E00",
"#  c #AD7E00",
"$  c #AD7F00",
"%  c #AE7F00",
"&  c #AE8000",
"*  c #AF8000",
"=  c #AF8100",
"-  c #B08100",
";  c #B08200",
":  c #B18300",
">  c #B28300",
",  c #B38400",
"<  c #B38500",
"1  c #B48500",
"2  c #B48600",
"3  c #B58600",
"4  c #B68700",
"5  c #B78800",
"6  c #B68900",
"7  c #B78900",
"8  c #B88900",
"9  c #B98900",
"0  c #B88A00",
"q  c #B98B00",
"w  c #BA8B00",
"e  c #BB8C00",
"r  c #BA8D00",
"t  c #BB8D00",
"y  c #BC8D00",
"u  c #BC8E00",
"i  c #BD8F00",
"p  c #BE8F00",
"a  c #BE9000",
"s  c #BF9000",
"d  c #C09000",
"f  c #C09100",
"g  c #C19200",
"h  c #C19300",
"j  c #C29200",
"k  c #C29300",
"l  c #C39300",
"z  c #C29400",
"x  c #C39400",
"c  c #C49400",
"v  c #C49500",
"b  c #C69600",
"n  c #C69700",
"m  c #C79700",
"M  c #C79800",
"N  c #C89800",
"B  c #C89900",
"V  c #C99900",
"C  c #C89A00",
"Z  c #C99A00",
"A  c #CA9A00",
"S  c #CA9B00",
"D  c #CB9B00",
"F  c #CA9C00",
"G  c #CA9D00",
"H  c #CC9D00",
"J  c #CD9D00",
"K  c #CE9E00",
"L  c #CE9F00",
"P  c #CF9F00",
"I  c #CFA600",
"U  c #D0A000",
"Y  c #D1A100",
"T  c #D1A200",
"R  c #D2A200",
"E  c #D3A300",
"W  c #D4A400",
"Q  c #D6A600",
"!  c #D6A700",
"~  c #D1AA00",
"^  c #D4A800",
"/  c #D7A800",
"(  c #D5AB00",
")  c #D7AC00",
"_  c #D8A800",
"`  c #D9A900",
"'  c #DAAA00",
"]  c #DBAB00",
"[  c #DAAC00",
"{  c #DCAC00",
"}  c #DDAD00",
"|  c #DDAE00",
" . c #DEAE00",
".. c #D5B100",
"X. c #D5B200",
"o. c #DEB200",
"O. c #DBBB00",
"+. c #DABA03",
"@. c #E0B000",
"#. c #E1B100",
"$. c #E2B200",
"%. c #E3B200",
"&. c #E2B300",
"*. c #E3B300",
"=. c #E4B300",
"-. c #E5B400",
";. c #E5B600",
":. c #E6B600",
">. c #E7B600",
",. c #E7B700",
"<. c #E0B900",
"1. c #E8B800",
"2. c #E8B900",
"3. c #EBBB00",
"4. c #E9BD01",
"5. c #ECBC00",
"6. c #EDBC00",
"7. c #EEBE00",
"8. c #EFBE00",
"9. c #EEBF00",
"0. c #EFBF00",
"q. c #F0BF00",
"w. c #DDC202",
"e. c #DFC008",
"r. c #E0C200",
"t. c #E1C200",
"y. c #E5C100",
"u. c #E6C000",
"i. c #E0C104",
"p. c #EAC100",
"a. c #E0CA00",
"s. c #E3CF00",
"d. c #E7CE05",
"f. c #E8C800",
"g. c #EBCB00",
"h. c #E8CD00",
"j. c #E8CE00",
"k. c #EFCC01",
"l. c #E6C90D",
"z. c #F1C100",
"x. c #F3C300",
"c. c #F2C400",
"v. c #F7C700",
"b. c #F8C600",
"n. c #F8C700",
"m. c #F0C900",
"M. c #F1CA00",
"N. c #F6CB00",
"B. c #F9C800",
"V. c #FBCB00",
"C. c #FCCB00",
"Z. c #FCCC00",
"A. c #FECD00",
"S. c #FFCD00",
"D. c #FDCE00",
"F. c #FFCE00",
"G. c #FFCF00",
"H. c #F1CE0A",
"J. c #EAD101",
"K. c #EEDA00",
"L. c #F4D100",
"P. c #F0D500",
"I. c #F4D600",
"U. c #F4D503",
"Y. c #F0D606",
"T. c #FFD000",
"R. c #FFD100",
"E. c #FCD300",
"W. c #FED200",
"Q. c #FFD200",
"!. c #FED300",
"~. c #F8D700",
"^. c #F9D700",
"/. c #FFD503",
"(. c #F4D800",
"). c #F1DF00",
"_. c #F4DC00",
"`. c #F7D804",
"'. c #F8D800",
"]. c #FCD800",
"[. c #FEDB00",
"{. c #FFDD00",
"}. c #FFDE00",
"|. c #F9DA04",
" X c #F4D80C",
".X c #FADD0A",
"XX c #ECD11B",
"oX c #EDDC1A",
"OX c #FFD91D",
"+X c #F1E103",
"@X c #F6E202",
"#X c #F7E600",
"$X c #F9E100",
"%X c #FFE200",
"&X c #FFE504",
"*X c #FAE900",
"=X c #FAEA00",
"-X c #FCEB02",
";X c #FFEE00",
":X c #FEE804",
">X c #FFF002",
",X c #FFE612",
"<X c #FFE712",
"1X c #F8E316",
"2X c #F7EC14",
"3X c #FFDC2A",
"4X c #EFD530",
"5X c #EFE32F",
"6X c #F0E729",
"7X c #FFF22B",
"8X c #FFFB2E",
"9X c #FFEC3A",
"0X c #F7E84B",
"qX c #F4F04F",
"wX c #FBF548",
"eX c #F3EA54",
"rX c #FAED58",
"tX c #FFF056",
"yX c #FFFC57",
"uX c #F6E563",
"iX c #FFFF60",
"pX c #FFFF61",
"aX c #FEFF62",
"sX c #F9F6A0",
"dX c #FFF5B4",
"fX c None",
/* pixels */
"fXfXfXfXfXfXfXfXL.~.^.c.>.,.6.7.q.fXfXfXfXfXfXfXfX",
"fXfXfXfXfXfXfX|.9X7X;X%XQ.v.B.F.S.b.fXfXfXfXfXfXfX",
"fXfXfXfXfXfX`.tXuXl.t.y.N.D.9..X<X,X1XfXfXfXfXfXfX",
"fXfXfXfXfXg.:XXX+.d.K.r.F 1.0.4XaXpXiXqXfXfXfXfXfX",
"fXfXfXfXfX(.P.e.rX8X;X}.x.D _ 4.@X>X>X-XfXfXfXfXfX",
"fXfXfXfXo.I.i.0XwX&X{.!.C.q.x } 2.V.Z.Z.z.fXfXfXfX",
"fXfXfXfX;.u.J.6X5XU.[.H.Y.m.R S ' %.:.:.$.fXfXfXfX",
"fXfXfXfX&.( oXsXyX+Xk. X/.M.[ s E ] $.$.#.fXfXfXfX",
"fXfXfXP E ..eXdX3X$Xj.W.S.5./ g A Q $.$.$.' fXfXfX",
"fXfXfXH c w.2XOXS.Q.].G.n.` Y B s T $.$.$.{ fXfXfX",
"fXfXfXA a s.=XT.F.F.F.A.5.E V K 8 L #.$.$.| fXfXfX",
"fXfXfXN r a.*XT.A.F.A.x.*.P j R 3 M J K K D fXfXfX",
"fXfXfXm 6 O.#XR.8.5.3.=.@.b s U , x f f g s fXfXfX",
"fXfXfXm 2 ) ).E.-.#.$.$._ 9 k H > k g g g s fXfXfX",
"fXfXfXx , Y j.'.=.$.$.} N * H M > k g g g s fXfXfX",
"fXfXfXk > N <._.:.$. .P 5 > Q p 1 k g g g p fXfXfX",
"fXfXfXz 3 e ! h.p. .P l o x W 1 8 h f f f u fXfXfX",
"fXfXfXfXw - V ~ f.E N 1 - U M & y 7 2 2 2 fXfXfXfX",
"fXfXfXfXs % i Z X.^ d # g H q - p : ; ; = fXfXfXfX",
"fXfXfXfXh 3 * n G I p y Z x $ 5 w ; ; ; & fXfXfXfX",
"fXfXfXfXfXy % > n C x B v = - y < ; ; = fXfXfXfXfX",
"fXfXfXfXfXg 5 # $ 0 t 7 @ % 8 0 ; ; ; & fXfXfXfXfX",
"fXfXfXfXfXfXf 4 = + O + - 5 e : ; ; = fXfXfXfXfXfX",
"fXfXfXfXfXfXfXg e 4 1 4 e 0 & $ & = fXfXfXfXfXfXfX",
"fXfXfXfXfXfXfXfXx k k p : X   . X fXfXfXfXfXfXfXfX"
};
