/* XPM */
static char *result[] = {
/* columns rows colors chars-per-pixel */
"25 25 89 1 ",
"  c #9F7100",
". c #A27400",
"X c #A67800",
"o c #AC7D00",
"O c #AF8100",
"+ c #B38400",
"@ c #B78800",
"# c #BB8C00",
"$ c #BF9000",
"% c #C29300",
"& c #C79901",
"* c #CB9C00",
"= c #CA9C09",
"- c #CBA400",
"; c #CDA800",
": c #D2A300",
"> c #DCAC00",
", c #D9B400",
"< c #DDBB02",
"1 c #DABA09",
"2 c #E2B200",
"3 c #E2BC00",
"4 c #EBBC00",
"5 c #E7B708",
"6 c #EABD14",
"7 c #DFC203",
"8 c #DEC11F",
"9 c #E3C300",
"0 c #ECC400",
"q c #E6CB00",
"w c #E9CD00",
"e c #F4C500",
"r c #F8C700",
"t c #F2CF00",
"y c #FDCC00",
"u c #F3CE08",
"i c #EDD401",
"p c #EDDA00",
"a c #F2D500",
"s c #FDD601",
"d c #F0DA02",
"f c #FBDA02",
"g c #F0D70B",
"h c #F3DA0D",
"j c #EFD812",
"k c #FED913",
"l c #EDE000",
"z c #F7E402",
"x c #FEE300",
"c c #F4E900",
"v c #FEED01",
"b c #FFF003",
"n c #FFF90C",
"m c #F1E410",
"M c #FDE412",
"N c #FDEE1A",
"B c #FDF313",
"V c #ECCD22",
"C c #F5CB23",
"Z c #F2D92C",
"A c #FEDD2A",
"S c #ECD533",
"D c #FFD837",
"F c #FFD839",
"G c #F0E321",
"H c #FEE724",
"J c #F5E82A",
"K c #FFDE48",
"L c #FFDE55",
"P c #F5E347",
"I c #FFF14E",
"U c #F3ED56",
"Y c #FAF85C",
"T c #F9EA6A",
"R c #FEFC61",
"E c #FBF86F",
"W c #FFE470",
"Q c #FCEE7C",
"! c #FCF873",
"~ c #FCF37B",
"^ c #FFFD98",
"/ c #FFEFA5",
"( c #F7F3A0",
") c #FFF0B4",
"_ c #F9F7C0",
"` c #FFFBDA",
"' c #FFFDED",
"] c #FFFFFE",
"[ c None",
/* pixels */
"[[[[[[[[[sfse4222[[[[[[[[",
"[[[[[[[fHIBvxfreryr[[[[[[",
"[[[[[[dIQS979esr0fMM[[[[[",
"[[[[[avZ17ipq*:e4VRRR[[[[",
"[[[[9xw8PRnvxy2%>4wvbz[[[",
"[[[[wa<T!Nxfsry2%>2eyr[[[",
"[[[>e<d^Ujffugae:%>>24>[[",
"[[[2>,m)^Bathfs0,@::>22[[",
"[[*>=S(]`~Jwssy2>%%:>22>[",
"[[**&G!')Dkfyy4:::+*:22>[",
"[[-#;cv/Lyyyye2**>+%:22>[",
"[[&@;lvWDysyr22%%>+%**:*[",
"[[*+-wvKC44422>#%>+#%#%$[",
"[[*+%2cA622222*o%:+@%%%$[",
"[[*+@2pk5222>:#o::O#%%%$[",
"[[%@+>3z422>:%X%>%o$%%%#[",
"[[%#O*>ww2>*&oo::@o%%%%#[",
"[[[%++*-i2**#X%:&o@%+@+[[",
"[[[%+o%*;3*%o@**#o%@O+o[[",
"[[[[#++%*;-##&*%o+%o++[[[",
"[[[[%@o+%**%%*#o+#@OOO[[[",
"[[[[[%+oo@###Oo+@#++O[[[[",
"[[[[[[%@+ooooO+@#+OO[[[[[",
"[[[[[[[%#@+++@#+XXX[[[[[[",
"[[[[[[[[[%%%$@o. [[[[[[[["
};
