/* XPM */
static char *result[] = {
/* columns rows colors chars-per-pixel */
"25 25 74 1 ",
"  c #9F7100",
". c #A47600",
"X c #A67800",
"o c #AC7D00",
"O c #AF8000",
"+ c #B38400",
"@ c #B68900",
"# c #BB8C00",
"$ c #BF9000",
"% c #C29300",
"& c #C79800",
"* c #CB9C00",
"= c #CDA300",
"- c #D3A400",
"; c #D4A900",
": c #DCAC00",
"> c #D6B100",
", c #DDB100",
"< c #DBBB01",
"1 c #DABA09",
"2 c #E3B300",
"3 c #E2BA00",
"4 c #ECBC00",
"5 c #E5BE11",
"6 c #E5C200",
"7 c #EDC500",
"8 c #E5CB02",
"9 c #EEC900",
"0 c #E6CA0A",
"q c #EBCF0C",
"w c #F3C300",
"e c #F8C600",
"r c #F6CD00",
"t c #FDCC00",
"y c #EED502",
"u c #EED900",
"i c #F3D500",
"p c #FCD300",
"a c #F5DF00",
"s c #FDDC01",
"d c #F2D50C",
"f c #FED20F",
"g c #F2CB1B",
"h c #FCD417",
"j c #F4E200",
"k c #FFE201",
"l c #FEEB02",
"z c #FCE009",
"x c #FFF201",
"c c #FFFD00",
"v c #FCE512",
"b c #FDE51B",
"n c #FFFE13",
"m c #F0D525",
"M c #F0DB2A",
"N c #F9DD2E",
"B c #F2DC31",
"V c #F1E120",
"C c #FFFD2F",
"Z c #FDE133",
"A c #FFF531",
"S c #EDD04B",
"D c #F2DC4A",
"F c #FFDE4A",
"G c #F2ED45",
"H c #FBEB49",
"J c #FFF14E",
"K c #FFF153",
"L c #FDFD61",
"P c #FFFE6E",
"I c #FEF770",
"U c #FDF182",
"Y c #FCF4C3",
"T c None",
/* pixels */
"TTTTTTTT223rippreTTTTTTTT",
"TTTTTTeerpbJAllkpteTTTTTT",
"TTTTVvzrzKUD0<66wpp42TTTT",
"TTTGLLMalm1<8uu8**4w42TTT",
"TTTlxyil6<BICxjit4&*24TTT",
"TTetw3k61HPAli<;tpe*%2,TT",
"T:22,47<xnlkNd,*ttp4#*:-T",
"T:2,:4*yclsZYF,*ttt4;@--T",
"T,2;;-=xlssqSf,*ttt44#%-T",
":22-*$8xtt9;-p,*tt444-+*&",
":22-%@jste3:5f:-t4444:o%&",
"&-*-#@uttttpgh:&444442+#*",
"%#%*@@3wetttwp:*44444:o#&",
"%%%*#+2444446p:&44422-o@&",
"#%%%@o-444443p:&4422:*o@&",
"#%%%#o&,44446p:&42::;%o#&",
"T%#%%o@-24444p:%::::*oo&T",
"T@@@%@X%*;:2<p;%:::-%o+&T",
"TO+O%#o+&**-:r;%--*&oo%%T",
"TTO++%@o+&*&-7-#&*&oo@%TT",
"TTT+o#%+oo&&*;%%*%oo+%TTT",
"TTTO+o##ooo+@##@+oo+%%TTT",
"TTTTo++@%++oooXoo+@#%TTTT",
"TTTTTTXXo#%@@+@+@#%TTTTTT",
"TTTTTTTT .o#%%%%%TTTTTTTT"
};
