/* XPM */
static char *result[] = {
/* columns rows colors chars-per-pixel */
"25 25 77 1 ",
"  c #9F7100",
". c #A57600",
"X c #A67800",
"o c #AC7D00",
"O c #AE8000",
"+ c #B38400",
"@ c #B68800",
"# c #BB8C00",
"$ c #BF9000",
"% c #C39300",
"& c #C89700",
"* c #C79800",
"= c #CB9C00",
"- c #CDA000",
"; c #D3A300",
": c #D5AB00",
"> c #DBAC00",
", c #DBBB03",
"< c #DBBB0A",
"1 c #E2B200",
"2 c #E1BC00",
"3 c #EBBB00",
"4 c #E3C300",
"5 c #ECC200",
"6 c #E5CC00",
"7 c #EBC900",
"8 c #E7CC0A",
"9 c #F4C400",
"0 c #F8C700",
"q c #F1CC00",
"w c #FECD00",
"e c #F2CD08",
"r c #FFCF0A",
"t c #E7D100",
"y c #ECD301",
"u c #EDD900",
"i c #F3D300",
"p c #FED300",
"a c #F5D900",
"s c #FCDC00",
"d c #F0D70E",
"f c #F5DD0F",
"g c #FEDC09",
"h c #FFD217",
"j c #FFD911",
"k c #F4E402",
"l c #FFE301",
"z c #F3ED00",
"x c #FEEB01",
"c c #F1E90D",
"v c #FEF201",
"b c #F3E413",
"n c #FCE512",
"m c #FEE519",
"M c #FEF417",
"N c #EED12B",
"B c #F1D725",
"V c #F1DB2E",
"C c #FFD732",
"Z c #F0E322",
"A c #FEF333",
"S c #FFFC33",
"D c #F2DD4E",
"F c #F2EC43",
"G c #F4ED4F",
"H c #FFF04D",
"J c #FFE254",
"K c #FAE952",
"L c #FFE35C",
"P c #FDFD61",
"I c #FBF76D",
"U c #FBF671",
"Y c #FDF282",
"T c #FFFE92",
"R c #FAF8B5",
"E c #FFFAC7",
"W c None",
/* pixels */
"WWWWWWWWissa93111WWWWWWWW",
"WWWWWWsmHAxxlpw0000WWWWWW",
"WWWW7gHYD84445pp39nnZWWWW",
"WWW4lxB<,8uu4==393NPPFWWW",
"WWWix7<VUSvxlp3*=13ivxWWW",
"WW,s7,KIAxsspww0=%>15w0WW",
"W>37,kGFZissedi73%=>>13>W",
"W>3=7ZRTSkiqfgpa1>+;;>1>W",
"W;;-bUEJjxuipww9>>#%;;11W",
"-=$2cMLrwwsppw9>=>;+==11>",
"-&@uzxCrwwwpw01;&=>o%=>1>",
"-#@tzxhwwwww031;#&1+#==-=",
"=#+4uvp0333311>=+=>++*%$%",
";@+>4vp3111111;@+-;+@&$%$",
"=#o;1ks311111;%o$>=o@&%$#",
"%#o%>4x3111>=&oo=>$o#&%%#",
"W%O+;>ta11;=&+o%>=+o%%%$W",
"W%+o%=;67-=*@.@;-%o+&+++W",
"W&#OO*=-4:=#o+===oo##O+OW",
"WW%@oO*=-:=@@==*+o+&@+OWW",
"WWW$+oO%==*%*=%Oo+##OOWWW",
"WWW%$+oo+@###OoO+##O+OWWW",
"WWWW%$+++ooooO++##+OOWWWW",
"WWWWWW%$@++++@#@o.XWWWWWW",
"WWWWWWWW&%%$$#O. WWWWWWWW"
};
