/* XPM */
static char *result[] = {
/* columns rows colors chars-per-pixel */
"25 25 252 2 ",
"   c #AA7B00",
".  c #AA7C00",
"X  c #AB7C00",
"o  c #AB7D00",
"O  c #AC7D00",
"+  c #AC7E00",
"@  c #AD7E00",
"#  c #AE7F00",
"$  c #AE8000",
"%  c #AF8000",
"&  c #AF8100",
"*  c #B08100",
"=  c #B18200",
"-  c #B18300",
";  c #B28300",
":  c #B38400",
">  c #B38500",
",  c #B38600",
"<  c #B48500",
"1  c #B58600",
"2  c #B68600",
"3  c #B68700",
"4  c #B78800",
"5  c #B88900",
"6  c #B98A00",
"7  c #BA8B00",
"8  c #BB8C00",
"9  c #BC8D00",
"0  c #BD8D00",
"q  c #BD8E00",
"w  c #BE8E00",
"e  c #BE8F00",
"r  c #BE9000",
"t  c #BF9000",
"y  c #C09100",
"u  c #C19200",
"i  c #C29200",
"p  c #C29300",
"a  c #C29400",
"s  c #C39400",
"d  c #C29500",
"f  c #C39500",
"g  c #C49400",
"h  c #C49500",
"j  c #C59500",
"k  c #C59600",
"l  c #C59700",
"z  c #C69700",
"x  c #C79700",
"c  c #C69800",
"v  c #C79800",
"b  c #C89900",
"n  c #C99900",
"m  c #C99A00",
"M  c #CA9A00",
"N  c #CA9B00",
"B  c #CB9B00",
"V  c #C89C00",
"C  c #C89D00",
"Z  c #CB9C00",
"A  c #CC9C00",
"S  c #CC9D00",
"D  c #CD9E00",
"F  c #CE9E00",
"G  c #CE9F00",
"H  c #CF9F00",
"J  c #CFA000",
"K  c #CDA300",
"L  c #D0A000",
"P  c #D0A100",
"I  c #D1A100",
"U  c #D2A200",
"Y  c #D2A300",
"T  c #D3A300",
"R  c #D1A600",
"E  c #D4A400",
"W  c #D5A500",
"Q  c #D6A600",
"!  c #D6A700",
"~  c #D7A700",
"^  c #D7A800",
"/  c #D0AD00",
"(  c #D8A800",
")  c #D8A900",
"_  c #D9A900",
"`  c #DAA900",
"'  c #DAAA00",
"]  c #DBAB00",
"[  c #DCAC00",
"{  c #DCAD00",
"}  c #DDAD00",
"|  c #DEAE00",
" . c #DFAF00",
".. c #D6B300",
"X. c #D6B700",
"o. c #D9BB00",
"O. c #DABA00",
"+. c #DBBA00",
"@. c #DCB900",
"#. c #DEBE00",
"$. c #DABA0A",
"%. c #E0B000",
"&. c #E1B100",
"*. c #E2B200",
"=. c #E3B200",
"-. c #E2B300",
";. c #E3B300",
":. c #E4B400",
">. c #E5B400",
",. c #E5B500",
"<. c #E5B700",
"1. c #E6B600",
"2. c #E7B700",
"3. c #E2B900",
"4. c #E5B900",
"5. c #E6B800",
"6. c #E7B800",
"7. c #E7B900",
"8. c #E3BD00",
"9. c #E0BF00",
"0. c #E8B800",
"q. c #E8B900",
"w. c #E9B900",
"e. c #EAB900",
"r. c #E9BB00",
"t. c #EABA00",
"y. c #EBBA00",
"u. c #EBBB00",
"i. c #E9BC00",
"p. c #ECBC00",
"a. c #EDBC00",
"s. c #EDBD00",
"d. c #EFBE00",
"f. c #DDC400",
"g. c #E0C200",
"h. c #E5C000",
"j. c #E5C200",
"k. c #E6C300",
"l. c #E7C300",
"z. c #E2C400",
"x. c #E3C500",
"c. c #EBC200",
"v. c #E8C400",
"b. c #EFC500",
"n. c #EDC600",
"m. c #E4CB00",
"M. c #E3CC00",
"N. c #E8C800",
"B. c #EEC800",
"V. c #EEC900",
"C. c #EDCA00",
"Z. c #EFCD00",
"A. c #EDCF00",
"S. c #E3C50C",
"D. c #E4C909",
"F. c #F2C100",
"G. c #F3C200",
"H. c #F3C300",
"J. c #F4C200",
"K. c #F4C400",
"L. c #F6C500",
"P. c #F7C600",
"I. c #F7C700",
"U. c #F8C700",
"Y. c #F5CB00",
"T. c #F5CC00",
"R. c #F8C800",
"E. c #F8CA00",
"W. c #FBCA00",
"Q. c #FBCB00",
"!. c #FCCB00",
"~. c #FDCB00",
"^. c #FDCC00",
"/. c #FDCD00",
"(. c #FFCD00",
"). c #FDCE00",
"_. c #FCCF00",
"`. c #FFCE00",
"'. c #FFCF00",
"]. c #E9D200",
"[. c #E9D301",
"{. c #EED300",
"}. c #EFD300",
"|. c #EDD400",
" X c #ECDC00",
".X c #EFDF00",
"XX c #F1D000",
"oX c #F3D100",
"OX c #F5D300",
"+X c #F6D300",
"@X c #F3D600",
"#X c #F2D700",
"$X c #F7D500",
"%X c #F6D700",
"&X c #FAD200",
"*X c #FDD100",
"=X c #FED100",
"-X c #FFD100",
";X c #F9D700",
":X c #FCD500",
">X c #FFD400",
",X c #FFD500",
"<X c #F1D900",
"1X c #F4D800",
"2X c #F5D900",
"3X c #F6D800",
"4X c #F7D800",
"5X c #FAD900",
"6X c #FAD901",
"7X c #FBDA00",
"8X c #F8DC00",
"9X c #FADE00",
"0X c #FFDD00",
"qX c #FDDE00",
"wX c #FFDE00",
"eX c #E9CD15",
"rX c #FBE100",
"tX c #F9E200",
"yX c #FFE100",
"uX c #FFE300",
"iX c #FAE400",
"pX c #FBE400",
"aX c #FEE700",
"sX c #F7ED02",
"dX c #FFE900",
"fX c #FFEA00",
"gX c #FBED00",
"hX c #FFEE00",
"jX c #FEEF00",
"kX c #FFEF02",
"lX c #FEE807",
"zX c #FEE30B",
"xX c #FFEB0B",
"cX c #FBF300",
"vX c #FFF107",
"bX c #FFFC00",
"nX c #FFF308",
"mX c #FEE518",
"MX c #FFFE14",
"NX c #EED327",
"BX c #F1DA2C",
"VX c #FFF93D",
"CX c #FFEF48",
"ZX c #FDEF4F",
"AX c #FFF247",
"SX c #FFFE4E",
"DX c #F4E058",
"FX c #FFF25A",
"GX c #FEF56E",
"HX c #FFFF71",
"JX c #FEF284",
"KX c None",
/* pixels */
"KXKXKXKXKXKXKXKXKX+X;X6X7X&XI.J.KXKXKXKXKXKXKXKXKX",
"KXKXKXKXKXKXKX5XmXCXAXvXhXfXwX,X).R.KXKXKXKXKXKXKX",
"KXKXKXKXKXoXzXFXJXDXeXz.g.z.h.b.*X-XL.,.KXKXKXKXKX",
"KXKXKXKXZ.aXxXNX$.O.D.[.o.].#.N N 2.P.s.6.KXKXKXKX",
"KXKXKXl.pXpX9.O.BXGXSXsXk.@X0X/.y.M z } t.1.KXKXKX",
"KXKX[ Z.rX+.S.ZXHXVXlX{.Y.4.=X`.'.!.W 7 ! 1._ KXKX",
"KXKX-.T.@.x.nXMXkXyX$X<X_.;.K.'.`.'.U.N 8 ( ] KXKX",
"KX' 5.{ K jXbXdXwX0X}.iX^.e.w.`.'.`.K.2.7 p Q I KX",
"KXT | q N.cX8X+XOXXX.XuX~.t.0.s.G.F.0.q.U % F L KX",
"H A z d m. X#X1X2X4XqX>X!.1.u.e.:. .' H B > 9 S k ",
"L z 2 ..gXA.%XE.Q.(.`.`.U.;.*.:.:.| H J 1.k % v v ",
"L u * X.9XW.B.C.r.w.s.d.0.*.*.&.T g Y w.s.D . u b ",
"L w @ / n.F.L.c.v.<.&.*.*.*.%.v 0 ~ u.p.2.n   q b ",
"L e + C i.p.p.a.3.V.>.*.*.;.| 7 Y s.u.:.| s   9 b ",
"m t # t %.p.p.u.j.:Xa.*.} [  .s N 2.&.} ' 7 o q v ",
"z t & < W :.a.7.|.=Xe._ p k F x 0 ^ } [ P * % y z ",
"KXh : X z W =.8.tXH._ z z 9 0 j 0 S { E p   : h KX",
"KXz 7 @ = m A M.3X` L _  ._ m 9 5 i G m = @ 7 z KX",
"KXKXp : . 5 V f.R Z W ( ) _ ( G r q a 5 . : s KXKX",
"KXKXl 9 =   , c M N N N Z Z N N Z h -   = 9 z KXKX",
"KXKXKXh 5 = . = u m Z Z Z Z Z m u = . = 5 h KXKXKX",
"KXKXKXKXs 6 ; @ . * 5 q t q 5 & . @ ; 4 p KXKXKXKX",
"KXKXKXKXKXf q 1 = $ O X X X O $ = < 8 p KXKXKXKXKX",
"KXKXKXKXKXKXKXp e 6 3 < < < 3 5 q u KXKXKXKXKXKXKX",
"KXKXKXKXKXKXKXKXKXh s p p p s s KXKXKXKXKXKXKXKXKX"
};
