/* XPM */
static char *result[] = {
/* columns rows colors chars-per-pixel */
"25 25 71 1 ",
"  c #9F7100",
". c #A47600",
"X c #A67800",
"o c #AC7E00",
"O c #AF8000",
"+ c #B38400",
"@ c #B68900",
"# c #BB8C00",
"$ c #BF9000",
"% c #C29300",
"& c #C79800",
"* c #CB9C00",
"= c #CBA000",
"- c #D3A300",
"; c #D7A800",
": c #DCAC00",
"> c #D7B300",
", c #DEB100",
"< c #DBBB01",
"1 c #DABA09",
"2 c #E3B300",
"3 c #E5BA00",
"4 c #EBBB00",
"5 c #DFC400",
"6 c #E3C400",
"7 c #EBC400",
"8 c #E5CC04",
"9 c #EDC900",
"0 c #E6CA0A",
"q c #F3C300",
"w c #F8C600",
"e c #F5CD00",
"r c #FDCD00",
"t c #E7D700",
"y c #EDD401",
"u c #EFD800",
"i c #F3D401",
"p c #FCD300",
"a c #F3DA00",
"s c #FBDD01",
"d c #FEDC0A",
"f c #F0D312",
"g c #FFDE11",
"h c #FCE200",
"j c #FEEC02",
"k c #FCE009",
"l c #FFF002",
"z c #FFFD00",
"x c #FCE512",
"c c #FDE51B",
"v c #FFFE13",
"b c #F0D525",
"n c #F0DB2A",
"m c #F2DC31",
"M c #F1E120",
"N c #FFFC2F",
"B c #FFF531",
"V c #FFDC43",
"C c #F2DC4A",
"Z c #FFE141",
"A c #F2ED45",
"S c #FBEB49",
"D c #FFF14E",
"F c #FFF153",
"G c #FDFD61",
"H c #FFFE6E",
"J c #FEF770",
"K c #F8EA82",
"L c #FDF182",
"P c #F9F08B",
"I c None",
/* pixels */
"IIIIIIII2239paprwIIIIIIII",
"IIIIIIwrepcFBjjhprwIIIIII",
"IIIIMxkesFLC0566qpp42IIII",
"IIIAGGnsjb1<8656**4q42III",
"IIIjjyij6<mJNu8sp4&*24III",
"IIwrq3h65SHBh93rrrw*&22II",
"I:33,47<xvjsia44rrp4#*:-I",
"I:2::4*izjsgKZq2rrr4;+--I",
"I:2;--=jhipfPVq344442#%-I",
":22-*$>taaaidr43422:*%o*&",
":22-%#auierrrr4222:*;:o%&",
"**=*$@urq94444222-%;42o%*",
"%$%*#+7qq772222,&%;44:+#%",
"$%%*#o:444372222%-442-o@*",
"#%$&#o-4446p22::&&3,:*o@%",
"#%%%#o&,43er2*%*&%;:;%o#&",
"I%%%#o@-,3s4-&%@%%*:-+o%I",
"I@@@%@o%*5i;=::*#@%-#o@%I",
"IO+O%#o+%<-*:;;;-##%+o%%I",
"IIOO+%+o+%********%oo@%II",
"III+o@%+oo%******%+o+%III",
"IIIO++##+oo+@#%@+Xo+#%III",
"IIIIo++@%++oooXoo+@#%IIII",
"IIIIIIX.o##@@@@+@#%IIIIII",
"IIIIIIII .o#%%%%%IIIIIIII"
};
