/* XPM */
static char *result[] = {
/* columns rows colors chars-per-pixel */
"25 25 249 2 ",
"   c #9F7100",
".  c #A07200",
"X  c #A47600",
"o  c #A67800",
"O  c #AA7C00",
"+  c #AB7C00",
"@  c #AB7D00",
"#  c #AC7D00",
"$  c #AC7E00",
"%  c #AD7E00",
"&  c #AE7F00",
"*  c #AE8000",
"=  c #AF8000",
"-  c #AF8100",
";  c #B08100",
":  c #B08200",
">  c #B18200",
",  c #B18300",
"<  c #B28300",
"1  c #B28400",
"2  c #B38400",
"3  c #B38500",
"4  c #B48500",
"5  c #B48600",
"6  c #B58600",
"7  c #B58700",
"8  c #B68700",
"9  c #B78800",
"0  c #B68A00",
"q  c #B98900",
"w  c #B88A00",
"e  c #B98A00",
"r  c #B98B00",
"t  c #BA8B00",
"y  c #BB8C00",
"u  c #B98E00",
"i  c #BB8E00",
"p  c #BC8D00",
"a  c #BD8D00",
"s  c #BC8E00",
"d  c #BD8E00",
"f  c #BE8F00",
"g  c #BF8F00",
"h  c #BE9000",
"j  c #BF9000",
"k  c #C09100",
"l  c #C09200",
"z  c #C19200",
"x  c #C29200",
"c  c #C29300",
"v  c #C29400",
"b  c #C39400",
"n  c #C49500",
"m  c #C59600",
"M  c #C69600",
"N  c #C69700",
"B  c #C79700",
"V  c #C79800",
"C  c #C89800",
"Z  c #C89900",
"A  c #C99900",
"S  c #C99A00",
"D  c #CA9B00",
"F  c #CB9C00",
"G  c #CC9C00",
"H  c #CD9E00",
"J  c #CE9E00",
"K  c #CE9F00",
"L  c #CEA200",
"P  c #CDA800",
"I  c #D0A000",
"U  c #D0A100",
"Y  c #D1A100",
"T  c #D2A200",
"R  c #D3A300",
"E  c #D4A400",
"W  c #D4A500",
"Q  c #D5A500",
"!  c #D5A600",
"~  c #D6A600",
"^  c #D7A700",
"/  c #D0A800",
"(  c #D3AD00",
")  c #D4AE00",
"_  c #D8A800",
"`  c #D8A900",
"'  c #D9A900",
"]  c #D9AA00",
"[  c #DAAA00",
"{  c #DAAB00",
"}  c #DBAB00",
"|  c #DCAC00",
" . c #DDAD00",
".. c #DDAE00",
"X. c #DEAE00",
"o. c #DFAF00",
"O. c #D6B200",
"+. c #D7B700",
"@. c #DFB300",
"#. c #DBBA00",
"$. c #DBBB00",
"%. c #DBBF00",
"&. c #DFBE00",
"*. c #E0B000",
"=. c #E1B200",
"-. c #E1B300",
";. c #E2B200",
":. c #E3B300",
">. c #E4B301",
",. c #E3B700",
"<. c #E4B400",
"1. c #E5B400",
"2. c #E5B500",
"3. c #E4B700",
"4. c #E6B600",
"5. c #E6B700",
"6. c #E7B702",
"7. c #E2B305",
"8. c #E8B700",
"9. c #E4B800",
"0. c #E6B900",
"q. c #E4BC00",
"w. c #E8B800",
"e. c #E9B900",
"r. c #EAB900",
"t. c #EBBA00",
"y. c #EBBB00",
"u. c #EBBB01",
"i. c #E9BC00",
"p. c #E8BD00",
"a. c #ECBC00",
"s. c #EDBC00",
"d. c #EDBD00",
"f. c #EFBE00",
"g. c #EFBF00",
"h. c #E3B40A",
"j. c #EABB08",
"k. c #EBBD0E",
"l. c #E0C200",
"z. c #E2C300",
"x. c #E5C100",
"c. c #E6C100",
"v. c #E7C200",
"b. c #E7C500",
"n. c #E4C700",
"m. c #E9C100",
"M. c #EAC000",
"N. c #EBC700",
"B. c #ECC600",
"V. c #E5C800",
"C. c #E4CC00",
"Z. c #E7CE06",
"A. c #EFC903",
"S. c #E6C90A",
"D. c #F1C100",
"F. c #F2C100",
"G. c #F1C300",
"H. c #F2C200",
"J. c #F2C400",
"K. c #F6C500",
"L. c #F7C500",
"P. c #F6C600",
"I. c #F6CF00",
"U. c #F7CF00",
"Y. c #F9C900",
"T. c #F9CB00",
"R. c #FACA00",
"E. c #FCCB00",
"W. c #FACF00",
"Q. c #FCCC00",
"!. c #FECD00",
"~. c #FFCE00",
"^. c #FECF00",
"/. c #FFCF00",
"(. c #EED200",
"). c #EED300",
"_. c #EBD900",
"`. c #EFD802",
"'. c #F2D200",
"]. c #F6D100",
"[. c #F5D201",
"{. c #F6D200",
"}. c #F0D600",
"|. c #F1D700",
" X c #F5D406",
".X c #F9D100",
"XX c #FAD000",
"oX c #FFD000",
"OX c #FFD600",
"+X c #F3D800",
"@X c #F5D900",
"#X c #F7D900",
"$X c #F5D902",
"%X c #F1DD00",
"&X c #FAD900",
"*X c #FCD900",
"=X c #FFDA00",
"-X c #F8DD00",
";X c #FADD07",
":X c #F9D40A",
">X c #F7DF0C",
",X c #FADD0E",
"<X c #FCDF0F",
"1X c #E0C115",
"2X c #EDC21C",
"3X c #E9CF1D",
"4X c #F0C51C",
"5X c #FACE1A",
"6X c #F3D71A",
"7X c #FDD41A",
"8X c #F6E001",
"9X c #F9E100",
"0X c #FFE000",
"qX c #FFE100",
"wX c #FDE600",
"eX c #F8E900",
"rX c #FFE800",
"tX c #FBEF00",
"yX c #FFEF00",
"uX c #FFF002",
"iX c #FFF003",
"pX c #FFF600",
"aX c #FFF408",
"sX c #FFF90E",
"dX c #FAE413",
"fX c #FFE611",
"gX c #FAE318",
"hX c #EDD423",
"jX c #F1DA23",
"kX c #F4DA27",
"lX c #EED83E",
"zX c #FFD936",
"xX c #FFE926",
"cX c #FFF22D",
"vX c #FDF92E",
"bX c #FFF83A",
"nX c #FDDA4B",
"mX c #F3DF54",
"MX c #FFEF48",
"NX c #FAF85B",
"BX c #FCFB60",
"VX c #FFFF61",
"CX c #FDF468",
"ZX c #FFFB6B",
"AX c #FEE479",
"SX c #FFEC7C",
"DX c #FFF37C",
"FX c #F7EFA8",
"GX c None",
/* pixels */
"GXGXGXGXGXGXGXGX<.:.,.B.[.&X.XK.GXGXGXGXGXGXGXGXGX",
"GXGXGXGXGXGXL.E.R.U.<XMXcXyXrX=X^.P.GXGXGXGXGXGXGX",
"GXGXGXGXGXdXfX;X{.xXDXmXS.l.z.m.W./.d.GXGXGXGXGXGX",
"GXGXGXGXNXVXBXjXwXgX1X$.Z.%.C.) S e.H.w.GXGXGXGXGX",
"GXGXGX8XuXiX`.@X9X#.3XCXvXV.'.OXf.A U w.:.GXGXGXGX",
"GXGXGXR.Q.P.0.-X&.hXZXbX>XA.p././.K.b I :.GXGXGXGX",
"GXGXo.4.4.*.i.v.n.sXaX0X6X:X1.Y.~./.:.a ' W GXGXGX",
"GXGX*.;.*.} 5.L eXpXqX*XlX7X8.D.oX!.g.n M E GXGXGX",
"GX` =.;. .Q T ( tX#X XkXFXAX2X6.F.g.w.! 9 Y N GXGX",
"GX| ;.;.[ H k +._.+X$X,XSXnXj.u.2.X.Q A 5 N V GXGX",
"GX..;.;._ N i %X(.].R.!.zX5X<.:.<.} G o.j y V GXGX",
"GXF K J J x u }.T.N.M.r.4Xk.;.;.~ m  .d.n 6 V GXGX",
"GXj z k Z g 0 x.H.G.c.3.h.7.;.~ d _ a.w.k 2 N GXGX",
"GXj z z C j 3 @.a.s.9.m.>.;.:.H C a.w.o.p < m GXGX",
"GXj z z b j : ! y.a.q.I.8.X. .R n <.o.[ 8 4 m GXGX",
"GXf z z c j & S <.t.b.XX:.Z M G f ~ X.T - 9 m GXGX",
"GXp k z z c = y ~ -.).J.Y n p k g H ] n $ p n GXGX",
"GXGX5 7 6 k 8 & B / |.{ T X.^ c q c H 8 = z GXGXGX",
"GXGX* : - e d % 9 P O.G ~ ` ' E c p h $ 8 n GXGXGX",
"GXGXGX: : 1 k 4 + r S D D F F D F l # = f GXGXGXGX",
"GXGXGX* : : w d ; @ p S F F F D b ; % 9 v GXGXGXGX",
"GXGXGXGX- : > s t ; + ; t j d 5 @ & 4 j GXGXGXGXGX",
"GXGXGXGXGX- - , d t 2 & @ + + % > 6 f GXGXGXGXGXGX",
"GXGXGXGXGXGXo X o 5 d e 6 4 4 9 p z GXGXGXGXGXGXGX",
"GXGXGXGXGXGXGXGX  . O e k c c b GXGXGXGXGXGXGXGXGX"
};
