/* XPM */
static char *result[] = {
/* columns rows colors chars-per-pixel */
"25 25 238 2 ",
"   c #A17300",
".  c #A27400",
"X  c #A37500",
"o  c #AB7C00",
"O  c #AB7D00",
"+  c #AC7D00",
"@  c #AC7E00",
"#  c #AD7E00",
"$  c #AD7F00",
"%  c #AE7F00",
"&  c #AE8000",
"*  c #AF8000",
"=  c #AF8100",
"-  c #B08100",
";  c #B08200",
":  c #B18200",
">  c #B18300",
",  c #B28300",
"<  c #B28400",
"1  c #B38500",
"2  c #B48500",
"3  c #B48600",
"4  c #B58600",
"5  c #B58700",
"6  c #B68700",
"7  c #B68800",
"8  c #B78800",
"9  c #B78900",
"0  c #B88900",
"q  c #B88A00",
"w  c #B98A00",
"e  c #B98B00",
"r  c #BA8B00",
"t  c #BB8C00",
"y  c #BC8D00",
"u  c #BC8E00",
"i  c #BD8E00",
"p  c #BD8F00",
"a  c #BE8F00",
"s  c #BE9000",
"d  c #BF9000",
"f  c #C09000",
"g  c #C09100",
"h  c #C19200",
"j  c #C29200",
"k  c #C29300",
"l  c #C39300",
"z  c #C39400",
"x  c #C49500",
"c  c #C59500",
"v  c #C59600",
"b  c #C69700",
"n  c #C79700",
"m  c #C79800",
"M  c #C79801",
"N  c #C89900",
"B  c #C99900",
"V  c #C99A00",
"C  c #CA9B00",
"Z  c #CB9B00",
"A  c #CB9C00",
"S  c #CB9D00",
"D  c #CC9D00",
"F  c #CD9E00",
"G  c #CE9E00",
"H  c #CE9F00",
"J  c #CF9F00",
"K  c #CDA100",
"L  c #CFA000",
"P  c #CFAB00",
"I  c #CFAC00",
"U  c #D1A100",
"Y  c #D1A200",
"T  c #D2A200",
"R  c #D2A300",
"E  c #D3A300",
"W  c #D4A400",
"Q  c #D5A400",
"!  c #D4A500",
"~  c #D6A600",
"^  c #D6A700",
"/  c #D7A700",
"(  c #D1AA00",
")  c #D5A800",
"_  c #D5A900",
"`  c #D8A800",
"'  c #DAAA00",
"]  c #DAAB00",
"[  c #DBAB00",
"{  c #DCAB00",
"}  c #DCAC00",
"|  c #DDAD00",
" . c #DDAE00",
".. c #DEAE00",
"X. c #DFAF00",
"o. c #DFB003",
"O. c #DBB600",
"+. c #DABA00",
"@. c #DDBD03",
"#. c #DABA04",
"$. c #DABF05",
"%. c #DFB10B",
"&. c #E0B000",
"*. c #E1B100",
"=. c #E2B100",
"-. c #E3B100",
";. c #E1B200",
":. c #E2B200",
">. c #E3B300",
",. c #E3B400",
"<. c #E5B500",
"1. c #E6B600",
"2. c #E7B700",
"3. c #E7B702",
"4. c #E8B700",
"5. c #E1BA00",
"6. c #E3BA00",
"7. c #E4BA00",
"8. c #E6BA00",
"9. c #E5BD00",
"0. c #E8B900",
"q. c #E9B900",
"w. c #EABA00",
"e. c #EABB00",
"r. c #EBBB00",
"t. c #EBBF00",
"y. c #ECBC00",
"u. c #EDBC00",
"i. c #EDBD00",
"p. c #EEBE00",
"a. c #F0BF00",
"s. c #E5BA1A",
"d. c #E1C101",
"f. c #E1C200",
"g. c #E4C100",
"h. c #E0C400",
"j. c #E4C600",
"k. c #E9C000",
"l. c #E8C100",
"z. c #E8C300",
"x. c #EFC200",
"c. c #EBC500",
"v. c #E4CA00",
"b. c #E9CF02",
"n. c #E1C30C",
"m. c #EEC10F",
"M. c #F0C000",
"N. c #F1C100",
"B. c #F2C000",
"V. c #F3C300",
"C. c #F6C500",
"Z. c #F7C600",
"A. c #F0C006",
"S. c #F8C600",
"D. c #F3C900",
"F. c #F7C800",
"G. c #F6CB00",
"H. c #F7CB00",
"J. c #F2CD00",
"K. c #F3CE00",
"L. c #F7CC00",
"P. c #FBCB00",
"I. c #FCCB00",
"U. c #FBCC00",
"Y. c #FCCC00",
"T. c #FECD00",
"R. c #FFCD00",
"E. c #FFCE00",
"W. c #FFCF00",
"Q. c #EED200",
"!. c #EBD703",
"~. c #F4D100",
"^. c #F3D400",
"/. c #F2D701",
"(. c #F7D500",
"). c #FFD000",
"_. c #FFD300",
"`. c #F8D500",
"'. c #FAD501",
"]. c #F4DA00",
"[. c #FAD800",
"{. c #FFDD05",
"}. c #FBDE09",
"|. c #ECC015",
" X c #E5CB10",
".X c #E8CD17",
"XX c #EBC71A",
"oX c #F0D71B",
"OX c #F7DF19",
"+X c #F6E202",
"@X c #FFE300",
"#X c #FDE601",
"$X c #FFE700",
"%X c #F7E800",
"&X c #FCEB02",
"*X c #FFEE00",
"=X c #FFEF00",
"-X c #F8E908",
";X c #FFF002",
":X c #FFFA0E",
">X c #FFE612",
",X c #FFE712",
"<X c #F8E315",
"1X c #EAC124",
"2X c #E7C02E",
"3X c #E9C53F",
"4X c #EFCA3F",
"5X c #F4CE34",
"6X c #F7D332",
"7X c #F2E02F",
"8X c #F9E031",
"9X c #FFEA32",
"0X c #FFF235",
"qX c #EDCA47",
"wX c #F5E442",
"eX c #FBEB41",
"rX c #F7E84E",
"tX c #FFEF4A",
"yX c #F4F14F",
"uX c #FCF757",
"iX c #FFFC53",
"pX c #F3D563",
"aX c #F6DA6A",
"sX c #FADE6C",
"dX c #FFEA60",
"fX c #FFEB64",
"gX c #F8E86D",
"hX c #FFFF61",
"jX c #FEFF62",
"kX c #F3DC87",
"lX c #FFEB96",
"zX c #FFF191",
"xX c #FFF4A9",
"cX c #FBEFC2",
"vX c #FEF9E7",
"bX c #FFFAE6",
"nX c #FFFEF6",
"mX c None",
/* pixels */
"mXmXmXmXmXmXmXmXa.p.u.0.k.~.[.H.B.mXmXmXmXmXmXmXmX",
"mXmXmXmXmXmXmXS.R.E.U.'.9X0X=X@X_.Z.mXmXmXmXmXmXmX",
"mXmXmXmXmXmX<X>X,X}.(.tXgX.Xf.g.D.W.r.mXmXmXmXmXmX",
"mXmXmXmXmXyXhXhXjX7X#XoX#. X$.h.S >.M.>.mXmXmXmXmX",
"mXmXmXmXmX&X;X;X+X/.].@.rXuXn.`.F.H W 2.mXmXmXmXmX",
"mXmXmXmXN.Y.Y.P.e.^.d.wXiXeXXXx.).C.v ' [ mXmXmXmX",
"mXmXmXmX:.1.1.>.,.l.b.:X$XfX6X4.E.E.' n ` mXmXmXmX",
"mXmXmXmX*.:.:.} ;.) %X*X{.xXsX<.I.T.q.d U mXmXmXmX",
"mXmXmX' :.:.:.` W ( -X8XzXnXvXkX5XA.2.x m V mXmXmX",
"mXmXmX} :.:.:.! c P !.OXdXbXcX4X|.o.R d i N mXmXmX",
"mXmXmX..:.:.*.Y y v.Q.L.I.lXaX-.>.[ J ~ 8 b mXmXmX",
"mXmXmXZ G G F Z q j.G.z.q.pXqX=.} n X.&.3 x mXmXmX",
"mXmXmXd h g h n 5 O.V.t.7.3X2XX.z R y.] < k mXmXmX",
"mXmXmXd h h h n 2 _ i.w.6.1Xs.| z 1.2.E : k mXmXmX",
"mXmXmXd h h h z 2 D r.0.c.m.%.{ c  .&.D ; k mXmXmX",
"mXmXmXa h h h k 2 k <.8.J.3.M B j L | z > k mXmXmX",
"mXmXmXi g g g h 8 7 / 5.K.Q l y f N ^ 0 4 z mXmXmX",
"mXmXmXmX3 3 3 0 y * c +.9.T | L r a N - r mXmXmXmX",
"mXmXmXmX= ; ; > p - 0 I K W ` ` B t w * d mXmXmXmX",
"mXmXmXmX& ; ; ; r 8 O s C C A C A h O 4 k mXmXmXmX",
"mXmXmXmXmX= ; ; 1 u - - x A A A b , & y mXmXmXmXmX",
"mXmXmXmXmX& ; ; ; e w % @ 9 i w $ # 6 g mXmXmXmXmX",
"mXmXmXmXmXmX= ; ; > u 0 - + o + - 4 a mXmXmXmXmXmX",
"mXmXmXmXmXmXmX= & $ & e y 6 2 4 r g mXmXmXmXmXmXmX",
"mXmXmXmXmXmXmXmXX .   X , d k k z mXmXmXmXmXmXmXmX"
};
