/* XPM */
static char *result[] = {
/* columns rows colors chars-per-pixel */
"25 25 161 2 ",
"   c #9F7100",
".  c #A07200",
"X  c #A47600",
"o  c #A57700",
"O  c #AB7D00",
"+  c #AC7E00",
"@  c #AE8000",
"#  c #AF8100",
"$  c #AF8200",
"%  c #B08100",
"&  c #B08200",
"*  c #B18300",
"=  c #B28400",
"-  c #B38500",
";  c #B48500",
":  c #B48600",
">  c #B58600",
",  c #B58700",
"<  c #B68700",
"1  c #B68800",
"2  c #B78800",
"3  c #B88900",
"4  c #B88A00",
"5  c #B98A00",
"6  c #B98B00",
"7  c #BA8B00",
"8  c #BA8C00",
"9  c #BB8C00",
"0  c #BC8D00",
"q  c #BD8E00",
"w  c #BE8F00",
"e  c #BE9000",
"r  c #BF9000",
"t  c #BF9100",
"y  c #BF9600",
"u  c #C09100",
"i  c #C19200",
"p  c #C29300",
"a  c #C39400",
"s  c #C39500",
"d  c #C49400",
"f  c #C49500",
"g  c #C79700",
"h  c #C79800",
"j  c #C99900",
"k  c #C99A00",
"l  c #CA9B00",
"z  c #CB9C00",
"x  c #CC9C00",
"c  c #CC9D00",
"v  c #CD9E00",
"b  c #CE9E00",
"n  c #CE9F00",
"m  c #CF9F00",
"M  c #CFA000",
"N  c #CDAA00",
"B  c #D0A000",
"V  c #D0A100",
"C  c #D1A100",
"Z  c #D1A200",
"A  c #D2A300",
"S  c #D3A600",
"D  c #D6A500",
"F  c #D5A600",
"G  c #D6A600",
"H  c #D7A700",
"J  c #D0A800",
"K  c #D6A800",
"L  c #D6A900",
"P  c #D8A900",
"I  c #DAAB00",
"U  c #DBAB00",
"Y  c #D8AE00",
"T  c #DCAC00",
"R  c #DDAD00",
"E  c #DDAE00",
"W  c #DEAE00",
"Q  c #DEAF00",
"!  c #DFAF00",
"~  c #D3B200",
"^  c #D6B500",
"/  c #DDB200",
"(  c #DCB700",
")  c #DBB800",
"_  c #DFBB00",
"`  c #DBBE04",
"'  c #E0B000",
"]  c #E0B200",
"[  c #E1B200",
"{  c #E2B200",
"}  c #E1B400",
"|  c #E3B600",
" . c #E4B400",
".. c #E5B400",
"X. c #E6B500",
"o. c #E4B600",
"O. c #E5B600",
"+. c #E5B700",
"@. c #E6B600",
"#. c #E6B700",
"$. c #E7B800",
"%. c #E6B900",
"&. c #E6BB00",
"*. c #E8B800",
"=. c #EABA00",
"-. c #EBBB00",
";. c #ECBB00",
":. c #EEBE00",
">. c #E5C001",
",. c #E6C100",
"<. c #E5C200",
"1. c #EAC700",
"2. c #F1C000",
"3. c #F5C500",
"4. c #F7C500",
"5. c #F2C900",
"6. c #F7C900",
"7. c #F7CA00",
"8. c #F1CD00",
"9. c #F8C800",
"0. c #F9C800",
"q. c #FACA00",
"w. c #FBCA00",
"e. c #FDCB00",
"r. c #F8CF00",
"t. c #FCCC00",
"y. c #FDCC00",
"u. c #FECC00",
"i. c #EED40E",
"p. c #F1D700",
"a. c #F1D800",
"s. c #F9DB07",
"d. c #F0D108",
"f. c #F8D50D",
"g. c #FAD60C",
"h. c #E9CF15",
"j. c #EFD81F",
"k. c #F6DE1E",
"l. c #FFE500",
"z. c #FBEA02",
"x. c #FBEB02",
"c. c #F9EB07",
"v. c #FFF002",
"b. c #FFF003",
"n. c #FFE611",
"m. c #FEE412",
"M. c #FDED1C",
"N. c #EBD32D",
"B. c #ECC633",
"V. c #EBC534",
"C. c #EDDD35",
"Z. c #F6E72D",
"A. c #FFF02A",
"S. c #F2E137",
"D. c #FBE641",
"F. c #F7F556",
"G. c #FFFF61",
"H. c #FEFF62",
"J. c #FDEC8A",
"K. c #F8E993",
"L. c None",
/* pixels */
"L.L.L.L.L.L.L.L.L.L...X.X.o.8.r.L.L.L.L.L.L.L.L.L.",
"L.L.L.L.L.L.L.L.L.4.e.y.w.f.A.l.6.L.L.L.L.L.L.L.L.",
"L.L.L.L.L.L.L.L.L.m.n.n.s.D.N.<.7.L.L.L.L.L.L.L.L.",
"L.L.L.L.L.L.L.L.F.G.G.H.Z.i.` ~ E *.L.L.L.L.L.L.L.",
"L.L.L.L.L.L.L.L.z.b.v.x.a.h.C.,.Q U L.L.L.L.L.L.L.",
"L.L.L.L.L.L.L.L.q.t.t.3.1.S.j.%.2.Z L.L.L.L.L.L.L.",
"L.L.L.L.L.L.L.R X.@.@.{ >.c.d.$.9.C m L.L.L.L.L.L.",
"L.L.L.L.L.L.L.T { { { T _ M.J.B.0.A k L.L.L.L.L.L.",
"L.L.L.L.L.L.L.R { { { D ) k.K.V.;.A f L.L.L.L.L.L.",
"L.L.L.L.L.L.L.W { { { B N p.g.:.' a r L.L.L.L.L.L.",
"L.L.L.L.L.L.L.! { { { c ^ 5.u.=.U k w L.L.L.L.L.L.",
"L.L.L.L.L.L.L.x n n b s ( &.-. .M F q L.L.L.L.L.L.",
"L.L.L.L.L.L.L.r i u i e Y %.[ U v I 7 L.L.L.L.L.L.",
"L.L.L.L.L.L.L.t i i i w S O.] P G H 5 L.L.L.L.L.L.",
"L.L.L.L.L.L.L.r i i i 0 n +.#.H C V 3 L.L.L.L.L.L.",
"L.L.L.L.L.L.L.r i i i 9 h | } g j l 2 L.L.L.L.L.L.",
"L.L.L.L.L.L.L.w i i i 0 w / L 7 d p 2 L.L.L.L.L.L.",
"L.L.L.L.L.L.L.- > , > 2 1 J K x 7 6 5 L.L.L.L.L.L.",
"L.L.L.L.L.L.L.@ & & $ ; ; y A F 8 = 9 L.L.L.L.L.L.",
"L.L.L.L.L.L.L.L.& & & = - 6 z z r * L.L.L.L.L.L.L.",
"L.L.L.L.L.L.L.L.# & & * < : k l 4 : L.L.L.L.L.L.L.",
"L.L.L.L.L.L.L.L.# & & & 1 % < 6 @ 3 L.L.L.L.L.L.L.",
"L.L.L.L.L.L.L.L.L.# # # - 2 + O ; L.L.L.L.L.L.L.L.",
"L.L.L.L.L.L.L.L.L.o X X o : 2 > 0 L.L.L.L.L.L.L.L.",
"L.L.L.L.L.L.L.L.L.L.. .   o 0 p L.L.L.L.L.L.L.L.L."
};
