/* XPM */
static char *result[] = {
/* columns rows colors chars-per-pixel */
"25 25 161 2 ",
"   c #9F7100",
".  c #A07200",
"X  c #A47600",
"o  c #A57700",
"O  c #AB7D00",
"+  c #AD7E00",
"@  c #AE8000",
"#  c #AF8000",
"$  c #AF8100",
"%  c #AF8200",
"&  c #B08100",
"*  c #B08200",
"=  c #B18300",
"-  c #B28400",
";  c #B38400",
":  c #B38500",
">  c #B48500",
",  c #B48600",
"<  c #B58600",
"1  c #B58700",
"2  c #B68700",
"3  c #B78800",
"4  c #B78900",
"5  c #B88A00",
"6  c #B98A00",
"7  c #B98B00",
"8  c #BA8B00",
"9  c #BB8C00",
"0  c #BB8D00",
"q  c #BC8D00",
"w  c #BC8E00",
"e  c #BD8E00",
"r  c #BE8F00",
"t  c #BF9000",
"y  c #BE9100",
"u  c #BF9100",
"i  c #C09100",
"p  c #C19200",
"a  c #C29300",
"s  c #C19500",
"d  c #C39400",
"f  c #C39600",
"g  c #C49400",
"h  c #C49500",
"j  c #C59600",
"k  c #C69700",
"l  c #C49B00",
"z  c #C89900",
"x  c #C99A00",
"c  c #CA9A00",
"v  c #CB9B00",
"b  c #CB9C00",
"n  c #CC9C00",
"m  c #CD9D00",
"M  c #CC9E00",
"N  c #CD9E00",
"B  c #CE9E00",
"V  c #CE9F00",
"C  c #CFA000",
"Z  c #D0A000",
"A  c #D0A100",
"S  c #D1A100",
"D  c #D1A200",
"F  c #D2A200",
"G  c #D2A300",
"H  c #D3A400",
"J  c #D5A500",
"K  c #D5A600",
"L  c #D6A600",
"P  c #D6A700",
"I  c #D7A700",
"U  c #D5AE00",
"Y  c #D8A800",
"T  c #DBAB00",
"R  c #DBAC00",
"E  c #DCAC00",
"W  c #DDAD00",
"Q  c #DDAE00",
"!  c #DDAF00",
"~  c #DEAE00",
"^  c #DFAF00",
"/  c #D3B000",
"(  c #D5B600",
")  c #D8BB02",
"_  c #DDBE00",
"`  c #E1B300",
"'  c #E2B200",
"]  c #E3B200",
"[  c #E2B300",
"{  c #E2B500",
"}  c #E1B600",
"|  c #E1B700",
" . c #E4B400",
".. c #E5B500",
"X. c #E6B500",
"o. c #E5B600",
"O. c #E4B700",
"+. c #E6B600",
"@. c #E7B700",
"#. c #E5B900",
"$. c #E6B900",
"%. c #E3BD00",
"&. c #E5BD01",
"*. c #EABA00",
"=. c #EBBB00",
"-. c #ECBB00",
";. c #EDBD00",
":. c #E3C500",
">. c #E5C700",
",. c #E8C200",
"<. c #EFC000",
"1. c #E9C400",
"2. c #EAC500",
"3. c #ECC400",
"4. c #E8C902",
"5. c #EECB00",
"6. c #E9C904",
"7. c #E9CE0F",
"8. c #F2C200",
"9. c #F0C400",
"0. c #F5C500",
"q. c #F6C500",
"w. c #F7C500",
"e. c #F6C600",
"r. c #F7C800",
"t. c #F8CB00",
"y. c #FACA00",
"u. c #FBCA00",
"i. c #FDCB00",
"p. c #FCCC00",
"a. c #FDCC00",
"s. c #EED100",
"d. c #F2D400",
"f. c #F9D100",
"g. c #F9D700",
"h. c #F5D900",
"j. c #F3D804",
"k. c #FFDF00",
"l. c #F6D509",
"z. c #E6C910",
"x. c #E6CB19",
"c. c #FCE400",
"v. c #FBEA02",
"b. c #FCEC03",
"n. c #FBEC07",
"m. c #FFF002",
"M. c #FFF003",
"N. c #FFE611",
"B. c #FFE711",
"V. c #FEE412",
"C. c #F9E01E",
"Z. c #ECD525",
"A. c #E6D228",
"S. c #F0D62D",
"D. c #FFF020",
"F. c #F7E942",
"G. c #FBE84F",
"H. c #F7F456",
"J. c #FFFF61",
"K. c #FFFF62",
"L. c None",
/* pixels */
"L.L.L.L.L.L.L.L.L.L.g.9.] X.X. .L.L.L.L.L.L.L.L.L.",
"L.L.L.L.L.L.L.L.L.C.D.k.e.u.a.i.w.L.L.L.L.L.L.L.L.",
"L.L.L.L.L.L.L.L.L.G.x.1.r.l.B.N.V.L.L.L.L.L.L.L.L.",
"L.L.L.L.L.L.L.L.j.7.) / ' S.K.J.J.H.L.L.L.L.L.L.L.",
"L.L.L.L.L.L.L.L.s.Z.A.3.I &.b.m.M.v.L.L.L.L.L.L.L.",
"L.L.L.L.L.L.L.L.6.F.z.<.@.L 0.p.p.y.L.L.L.L.L.L.L.",
"L.L.L.L.L.L.L.! 4.n.,.;.8.B ^ +.+...E L.L.L.L.L.L.",
"L.L.L.L.L.L.L.I >.c.2.=.q.n I ' ' ' E L.L.L.L.L.L.",
"L.L.L.L.L.L.L.m :.d.5.+.-.v G ' ' ' W L.L.L.L.L.L.",
"L.L.L.L.L.L.L.h ( h.f.*.T r N ' ' ' ~ L.L.L.L.L.L.",
"L.L.L.L.L.L.L.f _ t.u.+.P k c ' ' ' ^ L.L.L.L.L.L.",
"L.L.L.L.L.L.L.s %.$.=.^ C D p B V V n L.L.L.L.L.L.",
"L.L.L.L.L.L.L.y } { ' H J G 0 i i p t L.L.L.L.L.L.",
"L.L.L.L.L.L.L.e ! ` [ F Q m 9 p p p t L.L.L.L.L.L.",
"L.L.L.L.L.L.L.8 Y O.o.S I z 9 p p p t L.L.L.L.L.L.",
"L.L.L.L.L.L.L.3 Z #.R g V d q p p p t L.L.L.L.L.L.",
"L.L.L.L.L.L.L.3 j | M 8 z e w p p p r L.L.L.L.L.L.",
"L.L.L.L.L.L.L.5 8 U K h q 4 3 < 1 < : L.L.L.L.L.L.",
"L.L.L.L.L.L.L.8 , l K A 2 > > % * * @ L.L.L.L.L.L.",
"L.L.L.L.L.L.L.L.= u b b 6 : - * * * L.L.L.L.L.L.L.",
"L.L.L.L.L.L.L.L.< 6 b x > 1 = * * $ L.L.L.L.L.L.L.",
"L.L.L.L.L.L.L.L.6 # 7 2 & 1 * * * $ L.L.L.L.L.L.L.",
"L.L.L.L.L.L.L.L.L.> O + 2 ; $ $ $ L.L.L.L.L.L.L.L.",
"L.L.L.L.L.L.L.L.L.e < 3 : o X X o L.L.L.L.L.L.L.L.",
"L.L.L.L.L.L.L.L.L.L.a 0 o   . . L.L.L.L.L.L.L.L.L."
};
