/* XPM */
static char *result[] = {
/* columns rows colors chars-per-pixel */
"25 25 224 2 ",
"   c #A17300",
".  c #A27400",
"X  c #A37500",
"o  c #AB7C00",
"O  c #AB7D00",
"+  c #AC7D00",
"@  c #AC7E00",
"#  c #AD7E00",
"$  c #AD7F00",
"%  c #AE7F00",
"&  c #AE8000",
"*  c #AF8100",
"=  c #B08100",
"-  c #B08200",
";  c #B18300",
":  c #B28300",
">  c #B28400",
",  c #B38400",
"<  c #B38500",
"1  c #B48500",
"2  c #B48600",
"3  c #B58600",
"4  c #B68700",
"5  c #B78800",
"6  c #B68900",
"7  c #B78900",
"8  c #B88900",
"9  c #B88A00",
"0  c #B98A00",
"q  c #BA8B00",
"w  c #B98D00",
"e  c #BB8C00",
"r  c #BB8E00",
"t  c #BC8D00",
"y  c #BD8D00",
"u  c #BC8E00",
"i  c #BD8E00",
"p  c #BE8F00",
"a  c #BD9000",
"s  c #BF9000",
"d  c #C09100",
"f  c #C19200",
"g  c #C19300",
"h  c #C29300",
"j  c #C29400",
"k  c #C39400",
"l  c #C49400",
"z  c #C49500",
"x  c #C59500",
"c  c #C59600",
"v  c #C69600",
"b  c #C69700",
"n  c #C79700",
"m  c #C79800",
"M  c #C89800",
"N  c #CA9A00",
"B  c #CA9B00",
"V  c #CB9B00",
"C  c #CA9C00",
"Z  c #CB9C00",
"A  c #CC9D00",
"S  c #CD9D00",
"D  c #CC9E00",
"F  c #CD9E00",
"G  c #CE9E00",
"H  c #CE9F00",
"J  c #CF9F00",
"K  c #D0A000",
"L  c #D1A200",
"P  c #D2A300",
"I  c #D3A300",
"U  c #D4A400",
"Y  c #D4A500",
"T  c #D5A500",
"R  c #D5A600",
"E  c #D6A600",
"W  c #D7A700",
"Q  c #D5AB00",
"!  c #D1AF00",
"~  c #D8A800",
"^  c #D8A900",
"/  c #D9A900",
"(  c #DAAA00",
")  c #DBAB00",
"_  c #DCAC00",
"`  c #DDAD00",
"'  c #DDAE00",
"]  c #DCAF00",
"[  c #DFAF00",
"{  c #D2B200",
"}  c #D6B300",
"|  c #DEB200",
" . c #DFB400",
".. c #DABB03",
"X. c #DABF00",
"o. c #E1B000",
"O. c #E1B100",
"+. c #E2B200",
"@. c #E3B200",
"#. c #E2B300",
"$. c #E3B300",
"%. c #E4B400",
"&. c #E5B500",
"*. c #E5B600",
"=. c #E6B600",
"-. c #E7B600",
";. c #E7B700",
":. c #E1BB00",
">. c #E4B900",
",. c #E6B900",
"<. c #E7B900",
"1. c #E4BC00",
"2. c #E5BC00",
"3. c #E7BD00",
"4. c #E8B800",
"5. c #E8B900",
"6. c #E9B900",
"7. c #EABA00",
"8. c #E9BD01",
"9. c #E8BE00",
"0. c #ECBC00",
"q. c #EDBC00",
"w. c #EDBD00",
"e. c #EEBE00",
"r. c #EFBE00",
"t. c #EEBF00",
"y. c #EFBF00",
"u. c #F0BF00",
"i. c #DFC100",
"p. c #DFC008",
"a. c #E1C100",
"s. c #E0C200",
"d. c #E1C300",
"f. c #E4C000",
"g. c #E5C100",
"h. c #E6C000",
"j. c #E0C004",
"k. c #E8C200",
"l. c #E4CA05",
"z. c #EBCB00",
"x. c #EFC800",
"c. c #EBCD00",
"v. c #E6C90D",
"b. c #F1C000",
"n. c #F1C100",
"m. c #F2C100",
"M. c #F3C200",
"N. c #F3C300",
"B. c #F0C400",
"V. c #F2C400",
"C. c #F3C700",
"Z. c #F5C400",
"A. c #F4C700",
"S. c #F7C700",
"D. c #F8C600",
"F. c #F2C900",
"G. c #F6CB00",
"H. c #F5CE00",
"J. c #F9C800",
"K. c #F8CB00",
"L. c #FBCB00",
"P. c #FCCC00",
"I. c #FDCC00",
"U. c #FECD00",
"Y. c #FFCD00",
"T. c #FDCE00",
"R. c #FFCE00",
"E. c #FFCF00",
"W. c #E9D100",
"Q. c #EED000",
"!. c #EDD603",
"~. c #EED900",
"^. c #F4D100",
"/. c #F0D500",
"(. c #F6D400",
"). c #F4D600",
"_. c #FFD000",
"`. c #FFD200",
"'. c #F8D700",
"]. c #F9D700",
"[. c #F4D800",
"{. c #F7D900",
"}. c #F2D804",
"|. c #F7D804",
" X c #FDD900",
".X c #F9DA04",
"XX c #F2D408",
"oX c #FED80B",
"OX c #FADD0A",
"+X c #ECD11B",
"@X c #F6E202",
"#X c #FFE200",
"$X c #FFE400",
"%X c #F9E800",
"&X c #FFEA00",
"*X c #FCEB02",
"=X c #FFEE00",
"-X c #FEE804",
";X c #FBF000",
":X c #FFF002",
">X c #FFFA0D",
",X c #FFE612",
"<X c #FFE712",
"1X c #F8E316",
"2X c #F7CD22",
"3X c #F6CE24",
"4X c #F1D729",
"5X c #EFD530",
"6X c #FFE229",
"7X c #FFF22B",
"8X c #F8F02E",
"9X c #FFEC3A",
"0X c #F9EB4D",
"qX c #F4F04F",
"wX c #FFFB4B",
"eX c #FAEE58",
"rX c #FFF056",
"tX c #F6E563",
"yX c #FFFF60",
"uX c #FFFF61",
"iX c #FEFF62",
"pX c #FEF08B",
"aX c #FAEC90",
"sX c None",
/* pixels */
"sXsXsXsXsXsXsXsX^.'.].V.-.;.q.e.u.sXsXsXsXsXsXsXsX",
"sXsXsXsXsXsXsX.X9X7X=X#X`.S.J.R.Y.D.sXsXsXsXsXsXsX",
"sXsXsXsXsXsX|.rXtXv.s.g.G.T.t.OX<X,X1XsXsXsXsXsXsX",
"sXsXsXsXsXz.-X+X..l.X.i.C 4.y.5XiXuXyXqXsXsXsXsXsX",
"sXsXsXsXsX[./.p.eX8Xa. XN.V ~ 8.@X:X:X*XsXsXsXsXsX",
"sXsXsXsX| ).j.0XwX}.3.A._.b.k ` 5.L.P.P.n.sXsXsXsX",
"sXsXsXsX*.h.!.>X$XXXB.0.E.U.P B ( @.=.=.+.sXsXsXsX",
"sXsXsXsX#.Q ;X&X6XpX3X;.R.I.$.s I ) +.+.O.sXsXsXsX",
"sXsXsXJ I } %X(.4XaX2X&.r.e.=.s N E +.+.+.( sXsXsX",
"sXsXsXA l { ~.[.{.oXZ.6.-.' K p s L +.+.+._ sXsXsX",
"sXsXsXN a W.Q.K.I.R.m.+.%.~ L P 7 H O.+.+.' sXsXsX",
"sXsXsXM w c.C.k.6.w.=.+.~ m &.( 1 m S G G V sXsXsX",
"sXsXsXn 6 :.M.9.>.O.+._ d ( w.Y > k d d f s sXsXsX",
"sXsXsXn 2 ] w.<.1.%.$.^ v 7.=.F ; h f f f s sXsXsX",
"sXsXsXk , I 0.,.x.4.` / x +.[ m : h f f f s sXsXsX",
"sXsXsXh : M ;.2.H.o.z V d T _ p 1 h f f f p sXsXsX",
"sXsXsXj 3 e / f.F.J f y s G Y 1 8 g d d d u sXsXsX",
"sXsXsXsXq = m d. .U ` B 0 h m & t 7 2 2 2 sXsXsXsX",
"sXsXsXsXs & r ! D R ~ W c e 7 = p ; - - * sXsXsXsX",
"sXsXsXsXg 3 @ h B B Z B Z i O 8 q - - - & sXsXsXsX",
"sXsXsXsXsXt % : b Z Z Z z = = t < - - * sXsXsXsXsX",
"sXsXsXsXsXf 5 # $ 0 i 7 @ % 8 9 - - - & sXsXsXsXsX",
"sXsXsXsXsXsXd 4 * + o + = 5 e ; - - * sXsXsXsXsXsX",
"sXsXsXsXsXsXsXf e 4 1 4 e 9 & $ & * sXsXsXsXsXsXsX",
"sXsXsXsXsXsXsXsXk h h p ; X   . X sXsXsXsXsXsXsXsX"
};
