/* XPM */
static char *result[] = {
/* columns rows colors chars-per-pixel */
"25 25 86 1 ",
"  c #9F7100",
". c #A27400",
"X c #A67800",
"o c #AC7E00",
"O c #AF8100",
"+ c #B38400",
"@ c #B78800",
"# c #BB8C00",
"$ c #BF9000",
"% c #C29300",
"& c #C79800",
"* c #CB9C00",
"= c #CBA100",
"- c #CEAB00",
"; c #D3A400",
": c #D7A802",
"> c #DCAC00",
", c #DAB600",
"< c #D6B800",
"1 c #DCBA03",
"2 c #E3B300",
"3 c #E5BD00",
"4 c #EBBB00",
"5 c #F0BF00",
"6 c #E4B713",
"7 c #E6BB1D",
"8 c #E7BF2D",
"9 c #DEC200",
"0 c #E3C201",
"q c #ECC500",
"w c #E3CB00",
"e c #ECC800",
"r c #E0C309",
"t c #EFC10D",
"y c #E5CD0D",
"u c #F3C401",
"i c #F8C700",
"p c #F4C804",
"a c #FCCC00",
"s c #EDD201",
"d c #F2D400",
"f c #FBD600",
"g c #F2DC02",
"h c #FBDA02",
"j c #F5DB0F",
"k c #EBC110",
"l c #EBC11F",
"z c #F8DA1D",
"x c #F6E101",
"c c #FEE500",
"v c #FEEB01",
"b c #FFF003",
"n c #FFFA00",
"m c #FDE512",
"M c #FFF111",
"N c #FFFD11",
"B c #ECCD22",
"V c #F0D621",
"C c #EFC831",
"Z c #EED532",
"A c #F0D933",
"S c #F3E626",
"D c #FEE724",
"F c #FFE535",
"G c #F4E13D",
"H c #FEF33A",
"J c #EDCA46",
"K c #EBC94D",
"L c #FFDE55",
"P c #F6D75E",
"I c #FCE844",
"U c #FFF14D",
"Y c #FCE95D",
"T c #FAF85C",
"R c #F5DA75",
"E c #FFEB69",
"W c #FEFD62",
"Q c #FCEE7C",
"! c #FFFC72",
"~ c #FDECA4",
"^ c #FFF1A5",
"/ c #FFF4C1",
"( c #FFFBDE",
") c #FFFBE7",
"_ c #FFFEF7",
"` c None",
/* pixels */
"````````fhfp4222`````````",
"``````hDUMvcfauiii```````",
"`````hUQZrr0ufa4hmm``````",
"````dvV19y9w*;u4BWWT`````",
"```0cs1G!S0ha2%>4dbbx````",
"```ed1IWHA4ifa2%>2iaa````",
"``>u1gNvFYu4aaa*%>>222```",
"``2>1nvhE^p2aai2@;:>22```",
"`*:&svzE(_~J4u42%%;>22>``",
"`=*$9gjI/)PB62>;%+*:22>``",
"`*$-xsiaL~u222;;>+%:22>``",
"`*@-fpe4CR222**22+%****``",
"`*@=qiq37K22&%25>+#%$%$``",
"`*+%44236822%>52:O#%%%$``",
"`&@#244ea6>>%:2>;o#%%$$``",
"`%@+:24au:%*%&>>%o%%$%$``",
"`&#o&>3f2%%@%%:;#o%%%%#``",
"``%O@*9e;:>;#@&&o@%+++```",
"``%@O$<==>>>*#%@o##+O+```",
"```$OO%**&****@o@%+o+````",
"```%+OO%*****#oO#@O+o````",
"````$@Oo+#%@OoO@#O+O`````",
"`````$++ooooO+@$+OO``````",
"``````%#@+++@#+XXX```````",
"````````%%%$#o  `````````"
};
