/* XPM */
static char *result[] = {
/* columns rows colors chars-per-pixel */
"25 25 248 2 ",
"   c #9F7100",
".  c #A07200",
"X  c #A47600",
"o  c #A67800",
"O  c #AA7C00",
"+  c #AB7C00",
"@  c #AB7D00",
"#  c #AC7D00",
"$  c #AC7E00",
"%  c #AD7E00",
"&  c #AE7F00",
"*  c #AE8000",
"=  c #AF8000",
"-  c #AF8100",
";  c #B08100",
":  c #B08200",
">  c #B18200",
",  c #B18300",
"<  c #B28300",
"1  c #B28400",
"2  c #B38400",
"3  c #B38500",
"4  c #B48500",
"5  c #B48600",
"6  c #B58600",
"7  c #B58700",
"8  c #B68700",
"9  c #B78800",
"0  c #B68A00",
"q  c #B88900",
"w  c #B88A00",
"e  c #B98A00",
"r  c #B98B00",
"t  c #BA8B00",
"y  c #BB8C00",
"u  c #BB8D00",
"i  c #B98E00",
"p  c #BB8E00",
"a  c #BC8D00",
"s  c #BD8D00",
"d  c #BC8E00",
"f  c #BD8E00",
"g  c #BE8F00",
"h  c #BF8F00",
"j  c #BE9000",
"k  c #BF9000",
"l  c #C09000",
"z  c #C09100",
"x  c #C19200",
"c  c #C29200",
"v  c #C29300",
"b  c #C39300",
"n  c #C29400",
"m  c #C39400",
"M  c #C49500",
"N  c #C59600",
"B  c #C69600",
"V  c #C69700",
"C  c #C79800",
"Z  c #C89800",
"A  c #C89900",
"S  c #C99900",
"D  c #C99A00",
"F  c #CA9A00",
"G  c #CA9B00",
"H  c #CB9B00",
"J  c #CB9C00",
"K  c #CB9D00",
"L  c #CC9C00",
"P  c #CC9D00",
"I  c #CD9D00",
"U  c #CD9E00",
"Y  c #CE9E00",
"T  c #CE9F00",
"R  c #CF9F00",
"E  c #CE9E02",
"W  c #CEA200",
"Q  c #D0A000",
"!  c #D0A100",
"~  c #D1A100",
"^  c #D1A200",
"/  c #D2A200",
"(  c #D3A300",
")  c #D4A400",
"_  c #D4A500",
"`  c #D5A500",
"'  c #D5A600",
"]  c #D6A600",
"[  c #D0AB00",
"{  c #D4A900",
"}  c #D7A800",
"|  c #D4AD00",
" . c #D8A800",
".. c #D8A900",
"X. c #D9A900",
"o. c #DAAA00",
"O. c #DBAB00",
"+. c #DAAD01",
"@. c #DCAC00",
"#. c #DDAD00",
"$. c #DDAE00",
"%. c #DEAE00",
"&. c #DFAF00",
"*. c #D6B100",
"=. c #DAB200",
"-. c #DFB300",
";. c #D8B604",
":. c #DBBA00",
">. c #DBBB00",
",. c #DFBE00",
"<. c #D0A312",
"1. c #E0B000",
"2. c #E1B100",
"3. c #E2B100",
"4. c #E1B200",
"5. c #E2B200",
"6. c #E3B300",
"7. c #E3B700",
"8. c #E4B400",
"9. c #E6B600",
"0. c #E6B700",
"q. c #E7B700",
"w. c #E1BB00",
"e. c #E6B900",
"r. c #E6BC00",
"t. c #E8B800",
"y. c #E9B900",
"u. c #EBBA00",
"i. c #EBBB00",
"p. c #ECBB00",
"a. c #E9BC00",
"s. c #EABC00",
"d. c #ECBC00",
"f. c #EDBC00",
"g. c #EDBD00",
"h. c #EEBE00",
"j. c #EFBE00",
"k. c #E1C200",
"l. c #E3C300",
"z. c #E5C100",
"x. c #E7C100",
"c. c #E7C200",
"v. c #E4C700",
"b. c #E9C100",
"n. c #ECC600",
"m. c #EEC800",
"M. c #ECCE01",
"N. c #E6C90A",
"B. c #E7CE09",
"V. c #F0C000",
"C. c #F2C100",
"Z. c #F2C200",
"A. c #F2C500",
"S. c #F4C400",
"D. c #F6C500",
"F. c #F7C500",
"G. c #F6C600",
"H. c #F3CA00",
"J. c #F4C900",
"K. c #F5CB00",
"L. c #F6CC00",
"P. c #F7CD00",
"I. c #F7CF00",
"U. c #F8C800",
"Y. c #FACA00",
"T. c #FBCA00",
"R. c #FCCB00",
"E. c #FDCB00",
"W. c #F8CD00",
"Q. c #FACF00",
"!. c #FBCC03",
"~. c #FCCC00",
"^. c #FDCC00",
"/. c #FECC00",
"(. c #FECD00",
"). c #FFCE00",
"_. c #FECF00",
"`. c #FFCF00",
"'. c #F9CE0B",
"]. c #F8CD0E",
"[. c #E9D200",
"{. c #EBD500",
"}. c #EFD500",
"|. c #EEDA00",
" X c #EFD802",
".X c #F5D201",
"XX c #F6D200",
"oX c #F9D100",
"OX c #FBD100",
"+X c #FFD000",
"@X c gold",
"#X c #F3DA00",
"$X c #F5D900",
"%X c #FAD900",
"&X c #FFDA00",
"*X c #FEDA01",
"=X c #F8DD00",
"-X c #FFDF00",
";X c #FADD07",
":X c #F1D00B",
">X c #FCDF0F",
",X c #E0C115",
"<X c #E9CF1D",
"1X c #FCCE13",
"2X c #EED217",
"3X c #F6E001",
"4X c #F4E200",
"5X c #F9E100",
"6X c #FDE600",
"7X c #FFE700",
"8X c #F8E800",
"9X c #FFE800",
"0X c #FDEE00",
"qX c #FFEF00",
"wX c #FFE309",
"eX c #FFE20D",
"rX c #FFF002",
"tX c #FFF003",
"yX c #FFF600",
"uX c #FFF408",
"iX c #FFF90E",
"pX c #FAE413",
"aX c #FFE611",
"sX c #FAE318",
"dX c #F2CC23",
"fX c #EDD423",
"gX c #F1DA23",
"hX c #E6C530",
"jX c #E2C23C",
"kX c #FEE826",
"lX c #FFE926",
"zX c #FFF22D",
"xX c #FFFC38",
"cX c #FFF83E",
"vX c #F3DF54",
"bX c #FBDD59",
"nX c #FFEF48",
"mX c #FDE653",
"MX c #F8E35D",
"NX c #FAF85B",
"BX c #FCFB60",
"VX c #FFFF61",
"CX c #FDF46A",
"ZX c #FFFB6B",
"AX c #F8E37A",
"SX c #FFF37C",
"DX c #FDF6CC",
"FX c None",
/* pixels */
"FXFXFXFXFXFXFXFXFX8.6.7.n..X%XoXD.FXFXFXFXFXFXFXFX",
"FXFXFXFXFXFXFXF.R.Y.I.>XnXzXqX9X&X_.G.FXFXFXFXFXFX",
"FXFXFXFXFXFXpXaX;XXXlXSXvXN.k.l.b.Q.`.g.FXFXFXFXFX",
"FXFXFXFXFXNXVXBXgX6XsX,X>.B.|.{.| D y.Z.t.FXFXFXFX",
"FXFXFXFX3XrXtX X$X5X:.<XCXxX0X#XOXj.S ! t.6.FXFXFX",
"FXFXFXFXY.~.G.e.=X,.fXZXcXkXM.[ h.+XD.m Q 6.FXFXFX",
"FXFXFX&.9.9.1.a.c.v.iXuXwXMX:XY p.`.`.6.s X._ FXFX",
"FXFXFX1.5.1.O.0.W 8XyXeXmXDXbX<.d.`.^.h.M B ) FXFX",
"FXFX..4.5.#.` / *.yX-X*X2XAX1XE d.`.U.g...9 ~ V FX",
"FXFX@.5.5.o.U l [.7X).H.;.jX!.I d.(.V.d.9.9 V C FX",
"FXFX$.5.5. .V p 4X@XE.r.+.hX'.I u.S.d.d.i.k y C FX",
"FXFXJ T Y Y c i }._.).^./.dX].L 2.g.d.d.d.M 6 C FX",
"FXFXk x z A h 0 z.C.U.T.T.m.W.L %.g.d.d.t.z 2 V FX",
"FXFXk x x Z k 3 -.d.d.g.f.x.W.H %.g.d.t.&.a < N FX",
"FXFXk x x m k : ' i.d.d.p.x.P.H %.g.q.&.o.8 4 N FX",
"FXFXg x x v k & D 8.d.d.p.x.L.F @.8.%.#./ - 9 N FX",
"FXFXa z x x v = y ] 9.d.p.x.K.S ) %.#.X.M $ a M FX",
"FXFXFX5 7 6 z 8 & C ! #.3.w.J.Z ( #.} U 8 = x FXFX",
"FXFXFX* : - e f % q G J Q =.A.C U ^ P v # 8 M FXFX",
"FXFXFXFX: : 1 z 4 @ j G D { s.b M J V - = g FXFXFX",
"FXFXFXFX* : : w f ; @ a D K R k V m - % 9 n FXFXFX",
"FXFXFXFXFX- : > d t ; + : r f u 4 @ & 4 k FXFXFXFX",
"FXFXFXFXFXFX- - , f t 2 & @ + + % > 6 g FXFXFXFXFX",
"FXFXFXFXFXFXFXo X o 5 f e 6 4 4 9 a x FXFXFXFXFXFX",
"FXFXFXFXFXFXFXFXFX  . O e z v v m FXFXFXFXFXFXFXFX"
};
