/* XPM */
static char *result[] = {
/* columns rows colors chars-per-pixel */
"25 25 75 1 ",
"  c #9F7100",
". c #A47600",
"X c #A67800",
"o c #AC7D00",
"O c #AE8000",
"+ c #B38400",
"@ c #B78900",
"# c #BC8D00",
"$ c #BF9000",
"% c #C29300",
"& c #C69800",
"* c #CB9C00",
"= c #CFA100",
"- c #D3A300",
"; c #D2AE00",
": c #DCAC00",
"> c #DCB100",
", c #DABB01",
"< c #DBBB0A",
"1 c #E3B300",
"2 c #E4BB00",
"3 c #EBBB00",
"4 c #E3B50C",
"5 c #EBBC0A",
"6 c #DFC400",
"7 c #E3C400",
"8 c #ECC300",
"9 c #E4CA00",
"0 c #EBC900",
"q c #E7CC0A",
"w c #F3C200",
"e c #F8C600",
"r c #F4CE00",
"t c #FDCD00",
"y c #F1C20B",
"u c #ECD400",
"i c #F3D400",
"p c #FCD200",
"a c #F3DA02",
"s c #FBDB01",
"d c #FCDF09",
"f c #EFD61B",
"g c #F5D713",
"h c #FFD214",
"j c #FFDF18",
"k c #FDE202",
"l c #FDEC02",
"z c #F7E00C",
"x c #FFF002",
"c c #FFFD00",
"v c #FCE512",
"b c #FEE519",
"n c #FFFE13",
"m c #F0C621",
"M c #EED12B",
"N c #F1D724",
"B c #F1DA2D",
"V c #FFDD37",
"C c #FFDA3E",
"Z c #F1E120",
"A c #FFF536",
"S c #FFFC35",
"D c #F2DD4E",
"F c #FDE643",
"G c #F4EB43",
"H c #FAEA45",
"J c #FFF04D",
"K c #FCEB6D",
"L c #FDFD61",
"P c #FFFE6F",
"I c #FEF670",
"U c #FFEA85",
"Y c #FDF282",
"T c #FFFAB1",
"R c None",
/* pixels */
"RRRRRRRRisspw3111RRRRRRRR",
"RRRRRRsbJAllksteweeRRRRRR",
"RRRR0kJYDq7778ptwwdvZRRRR",
"RRR7slN<,q679**3w3MLLGRRR",
"RRRil0,BISu8kt3**13uxlRRR",
"RR>s0,HPSz03ttpe*%:1wteRR",
"R:30,lnlkfs33ttt3%*::11:R",
"R:3*uclsjHsw1tptw:+--:1:R",
"R-==lkigKTVy13w313#%--11R",
"=*$;uiadFUhw3311-*%+*=11:",
"=%@auuethCt1111:=::o%*11:",
"=$@up0025m3111-&:31+#&***",
"*#+7we3814111&#:331++&%#$",
"*#+>33323111:%-311-o@&%%$",
"&#o-3337t31::&*11:*o#%%%#",
"&#o&:32ie1*&*&%:::%o#%%%#",
"R%++-:2sw-&%#%%*:=+o%%%%R",
"R%+o%*6i--::*#@%*%oo&+++R",
"R&#oO&,=*--::=%#&oo%%oooR",
"RR&+OO&******&&%oo@&+++RR",
"RRR$+OO$&*****$+o+##++RRR",
"RRR%$OOo+##$#OoO+##+o+RRR",
"RRRR%$@OooooooO+##+OORRRR",
"RRRRRR%$#++++@##o.XRRRRRR",
"RRRRRRRR&%%%$#o. RRRRRRRR"
};
