/* XPM */
static char *result[] = {
/* columns rows colors chars-per-pixel */
"25 25 228 2 ",
"   c #A17300",
".  c #A27400",
"X  c #A37500",
"o  c #AB7C00",
"O  c #AC7D00",
"+  c #AC7E00",
"@  c #AD7E00",
"#  c #AD7F00",
"$  c #AE7F00",
"%  c #AE8000",
"&  c #AF8000",
"*  c #AF8100",
"=  c #B08100",
"-  c #B08200",
";  c #B18200",
":  c #B18300",
">  c #B28300",
",  c #B28400",
"<  c #B38500",
"1  c #B48500",
"2  c #B48600",
"3  c #B58600",
"4  c #B58700",
"5  c #B68700",
"6  c #B68800",
"7  c #B78800",
"8  c #B88900",
"9  c #B88A00",
"0  c #B98A00",
"q  c #B98B00",
"w  c #BA8B00",
"e  c #BC8D00",
"r  c #BC8E00",
"t  c #BD8E00",
"y  c #BD8F00",
"u  c #BE8F00",
"i  c #BF8F00",
"p  c #BF9000",
"a  c #C09100",
"s  c #C19200",
"d  c #C29300",
"f  c #C39400",
"g  c #C39500",
"h  c #C49400",
"j  c #C49500",
"k  c #C59600",
"l  c #C69700",
"z  c #C79700",
"x  c #C79800",
"c  c #C89900",
"v  c #C99A00",
"b  c #CA9B00",
"n  c #CB9B00",
"m  c #CA9D00",
"M  c #CC9C00",
"N  c #CC9D00",
"B  c #CD9D00",
"V  c #CD9E00",
"C  c #CE9E00",
"Z  c #CE9F00",
"A  c #D1A000",
"S  c #D0A100",
"D  c #D1A100",
"F  c #D1A200",
"G  c #D2A300",
"H  c #D3A300",
"J  c #D1A500",
"K  c #D4A400",
"L  c #D4A500",
"P  c #D6A700",
"I  c #D7A700",
"U  c #D3A405",
"Y  c #D5A800",
"T  c #D5A900",
"R  c #D5AB00",
"E  c #D3AD00",
"W  c #D7AD00",
"Q  c #D8A800",
"!  c #DAAA00",
"~  c #DAAB00",
"^  c #DBAB00",
"/  c #DCAC00",
"(  c #DCAD00",
")  c #DDAD00",
"_  c #DEAE00",
"`  c #DFAF00",
"'  c #DCB100",
"]  c #DFB000",
"[  c #DBB600",
"{  c #DDBD03",
"}  c #DABA05",
"|  c #D6AB19",
" . c #E0B000",
".. c #E1B100",
"X. c #E1B200",
"o. c #E1B300",
"O. c #E2B200",
"+. c #E3B300",
"@. c #E3B400",
"#. c #E0B700",
"$. c #E5B500",
"%. c #E6B600",
"&. c #E7B700",
"*. c #E6BD00",
"=. c #E7BE00",
"-. c #E7BE01",
";. c #E1BD04",
":. c #E8B800",
">. c #E8B900",
",. c #E9B900",
"<. c #EABA00",
"1. c #EABB00",
"2. c #EBBB00",
"3. c #ECBB00",
"4. c #E9BC00",
"5. c #EBBF00",
"6. c #ECBC00",
"7. c #EDBC00",
"8. c #EDBD00",
"9. c #EEBE00",
"0. c #F0BF00",
"q. c #DEC200",
"w. c #E1C101",
"e. c #E1C302",
"r. c #E4C100",
"t. c #E4C600",
"y. c #E9C000",
"u. c #E8C100",
"i. c #ECC100",
"p. c #EDC200",
"a. c #EEC300",
"s. c #E4C900",
"d. c #E8CE00",
"f. c #E9CF02",
"g. c #ECC60F",
"h. c #F0C000",
"j. c #F1C100",
"k. c #F2C000",
"l. c #F2C200",
"z. c #F3C300",
"x. c #F4C400",
"c. c #F4C500",
"v. c #F6C600",
"b. c #F7C600",
"n. c #F6C700",
"m. c #F0C604",
"M. c #F8C600",
"N. c #F3C900",
"B. c #F7CB00",
"V. c #F9C900",
"C. c #F9C901",
"Z. c #FBCA00",
"A. c #FBCB00",
"S. c #FCCB01",
"D. c #FBCC00",
"F. c #FCCC00",
"G. c #FDCC00",
"H. c #FECC00",
"J. c #FFCD00",
"K. c #FFCE00",
"L. c #FFCF00",
"P. c #FDCD03",
"I. c #FCCD07",
"U. c #F2C90D",
"Y. c #EEDC07",
"T. c #F4D100",
"R. c #F3D400",
"E. c #F2D701",
"W. c #F5D500",
"Q. c #F7D500",
"!. c #FFD000",
"~. c #FFD300",
"^. c #FAD501",
"/. c #F4DA00",
"(. c #FAD800",
"). c #FFD800",
"_. c #FBDE09",
"`. c #E6C91D",
"'. c #F3C91A",
"]. c #FFDE10",
"[. c #F0D71B",
"{. c #F6E202",
"}. c #FFE300",
"|. c #FDE601",
" X c #FCEB02",
".X c #FFEF01",
"XX c #FEEF02",
"oX c #F6E80E",
"OX c #FAEB0C",
"+X c #FFF002",
"@X c #FFFA0D",
"#X c #FFE612",
"$X c #FFE712",
"%X c #F8E315",
"&X c #F4CB28",
"*X c #EAD024",
"=X c #E7D12A",
"-X c #FDD52E",
";X c #FBD829",
":X c #F4CF3D",
">X c #FFED24",
",X c #F2E02F",
"<X c #FFEA32",
"1X c #FFF238",
"2X c #F0D75D",
"3X c #F5E441",
"4X c #FFE04C",
"5X c #F7E84F",
"6X c #FFEF4A",
"7X c #F4F14F",
"8X c #FFF64A",
"9X c #F7E156",
"0X c #FFFC59",
"qX c #F0D673",
"wX c #F8E96D",
"eX c #FFFF61",
"rX c #FEFF62",
"tX c #EAD384",
"yX c #F5DF8B",
"uX c #FFFD81",
"iX c #FEF68A",
"pX c #F0E1A6",
"aX c #FFF6BD",
"sX c #FEF8CE",
"dX c #FBF6E5",
"fX c #FDFAE9",
"gX c white",
"hX c None",
/* pixels */
"hXhXhXhXhXhXhXhX0.9.7.>.y.T.(.B.k.hXhXhXhXhXhXhXhX",
"hXhXhXhXhXhXhXM.J.K.D.^.<X1X.X}.~.b.hXhXhXhXhXhXhX",
"hXhXhXhXhXhX%X#X$X_.Q.6XwX*Xe.r.N.L.2.hXhXhXhXhXhX",
"hXhXhXhXhX7XeXeXrX,X|.[.} =XY.s.m +.h.+.hXhXhXhXhX",
"hXhXhXhXhX X+X+X{.E./.{ 5XuXOXW.n.Z K &.hXhXhXhXhX",
"hXhXhXhXj.F.F.A.1.R.w.3X0XiX`.R G.v.k ! ^ hXhXhXhX",
"hXhXhXhXO.%.%.+.@.u.f.@X>XsX2XU S.L.! z Q hXhXhXhX",
"hXhXhXhX..O.O./ X.Y oX8XaXgXdXtX-XP.:.p D hXhXhXhX",
"hXhXhX! O.O.O.Q K E XX].9XfXyX| I.C.6.l x v hXhXhX",
"hXhXhX/ O.O.O.L h q.}.F.;.pX:XA Z.l.8.G t c hXhXhX",
"hXhXhX_ O.O...F e d.).c.' qX&XD x.8.8./ 7 l hXhXhX",
"hXhXhXn C C V n 9 t.!.J.H.4X'.B 2.6.8.] 2 j hXhXhX",
"hXhXhXp s a s z 4 [ z.V.Z.;XU.M ,.6.6.~ , d hXhXhX",
"hXhXhXp s s s z 1 T 8.6.7.g.m.M <.6.&.H ; d hXhXhX",
"hXhXhXp s s s f 1 N 2.6.3.-.a.M <.&.` N - d hXhXhX",
"hXhXhXu s s s d 1 d $.6.6.=.p.n @._ ( f : d hXhXhX",
"hXhXhXt a a a s 7 6 I ,.6.*.i.x ^ ) P 8 3 f hXhXhX",
"hXhXhXhX2 2 2 8 e & l L  .#.5.z ^ Q b = w hXhXhXhX",
"hXhXhXhX* - - : y = w b V W 4.j S N t % p hXhXhXhX",
"hXhXhXhX% - - - w 7 # g b J o.i v l & 3 d hXhXhXhX",
"hXhXhXhXhX* - - < r = * j b b a k : $ e hXhXhXhXhX",
"hXhXhXhXhX% - - - q 0 $ + 7 e 8 # @ 5 a hXhXhXhXhX",
"hXhXhXhXhXhX* - - : r 8 = O o O = 3 u hXhXhXhXhXhX",
"hXhXhXhXhXhXhX* % # % q e 5 1 3 w a hXhXhXhXhXhXhX",
"hXhXhXhXhXhXhXhXX .   X > p d d f hXhXhXhXhXhXhXhX"
};
