/* XPM */
static char *result[] = {
/* columns rows colors chars-per-pixel */
"25 25 153 2 ",
"   c #9F7100",
".  c #A07200",
"X  c #A47600",
"o  c #A57700",
"O  c #AC7D00",
"+  c #AD7E00",
"@  c #AE8000",
"#  c #AF8100",
"$  c #AF8200",
"%  c #B08100",
"&  c #B08200",
"*  c #B18300",
"=  c #B28400",
"-  c #B38500",
";  c #B48500",
":  c #B48600",
">  c #B58600",
",  c #B58700",
"<  c #B68700",
"1  c #B68800",
"2  c #B78800",
"3  c #B88900",
"4  c #B88A00",
"5  c #B98A00",
"6  c #BA8B00",
"7  c #BB8C00",
"8  c #BB8D00",
"9  c #BC8D00",
"0  c #BD8F00",
"q  c #BE8F00",
"w  c #BE9000",
"e  c #BF9000",
"r  c #BF9100",
"t  c #C09100",
"y  c #C19200",
"u  c #C29300",
"i  c #C39400",
"p  c #C39500",
"a  c #C49500",
"s  c #C69700",
"d  c #C79800",
"f  c #C99A00",
"g  c #CA9B00",
"h  c #CB9C00",
"j  c #CC9C00",
"k  c #CD9E00",
"l  c #CE9E00",
"z  c #CE9F00",
"x  c #CF9F00",
"c  c #D0A000",
"v  c #D0A100",
"b  c #D1A100",
"n  c #D0A200",
"m  c #D2A200",
"M  c #D3A400",
"N  c #D3A500",
"B  c #D2A600",
"V  c #D4A500",
"C  c #D6A500",
"Z  c #D4A600",
"A  c #D5A600",
"S  c #D5A700",
"D  c #D6A600",
"F  c #D6A702",
"G  c #D6A904",
"H  c #D9AA00",
"J  c #DAAA00",
"K  c #DBAB00",
"L  c #DAAB01",
"P  c #D8AE00",
"I  c #D9AF00",
"U  c #DCAC00",
"Y  c #DCAD00",
"T  c #DDAD00",
"R  c #DEAE00",
"E  c #DFAF00",
"W  c #D9AD0A",
"Q  c #DEB000",
"!  c #DFBA00",
"~  c #DDBC00",
"^  c #DFB318",
"/  c #E2B200",
"(  c #E5B400",
")  c #E5B500",
"_  c #E6B500",
"`  c #E4B600",
"'  c #E4B700",
"]  c #E6B600",
"[  c #E0BA00",
"{  c #E0BF00",
"}  c #E8B800",
"|  c #E9B900",
" . c #EABA00",
".. c #EBBB00",
"X. c #ECBC00",
"o. c #EDBD00",
"O. c #ECBF00",
"+. c #E3C000",
"@. c #E5C001",
"#. c #E5C300",
"$. c #E2C600",
"%. c #EEC100",
"&. c #EAC700",
"*. c #EEC005",
"=. c #E3C904",
"-. c #F3C200",
";. c #F5C500",
":. c #F6C500",
">. c #F7C500",
",. c #F2C900",
"<. c #F7C900",
"1. c #F7CA00",
"2. c #F1CD00",
"3. c #F9C900",
"4. c #F8C801",
"5. c #FACA00",
"6. c #FBCA00",
"7. c #FDCB00",
"8. c #F8CF00",
"9. c #FCCC00",
"0. c #FDCC00",
"q. c #FFCF00",
"w. c #EED30E",
"e. c #F1D800",
"r. c #F7DA00",
"t. c #F9DB07",
"y. c #FADE07",
"u. c #F8D50D",
"i. c #E8CE15",
"p. c #FFE500",
"a. c #FBEA02",
"s. c #FBEB02",
"d. c #FAEB09",
"f. c #FFF002",
"g. c #FFF003",
"h. c #FFE611",
"j. c #FEE412",
"k. c #F6E31F",
"l. c #EBD32D",
"z. c #F5DA29",
"x. c #FDED24",
"c. c #F6E72D",
"v. c #FFF02A",
"b. c #F2E137",
"n. c #FBF235",
"m. c #ECCE4A",
"M. c #E6C757",
"N. c #FBE641",
"B. c #F7F556",
"V. c #FFFF61",
"C. c #FEFF62",
"Z. c #FDF2B8",
"A. c None",
/* pixels */
"A.A.A.A.A.A.A.A.A.A.( _ _ ` 2.8.A.A.A.A.A.A.A.A.A.",
"A.A.A.A.A.A.A.A.A.>.7.0.6.u.v.p.<.A.A.A.A.A.A.A.A.",
"A.A.A.A.A.A.A.A.A.j.h.h.t.N.l.#.1.A.A.A.A.A.A.A.A.",
"A.A.A.A.A.A.A.A.B.V.V.C.c.w.=.$.Y } A.A.A.A.A.A.A.",
"A.A.A.A.A.A.A.A.a.g.f.s.e.i.n.r.U K A.A.A.A.A.A.A.",
"A.A.A.A.A.A.A.A.5.9.9.;.&.b.k.I o.m A.A.A.A.A.A.A.",
"A.A.A.A.A.A.A.T _ ] ] / @.d.z.W :.b x A.A.A.A.A.A.",
"A.A.A.A.A.A.A.U / / / U ! x.Z.M.4.m f A.A.A.A.A.A.",
"A.A.A.A.A.A.A.T / / / C ~ y.m.^ :.A a A.A.A.A.A.A.",
"A.A.A.A.A.A.A.R / / / x { ,.B K -.H t A.A.A.A.A.A.",
"A.A.A.A.A.A.A.E / / / h +.%.G L o.Y 0 A.A.A.A.A.A.",
"A.A.A.A.A.A.A.j z z l p [ q.*.F  .R 9 A.A.A.A.A.A.",
"A.A.A.A.A.A.A.e y t y w P 3.O.S | U 6 A.A.A.A.A.A.",
"A.A.A.A.A.A.A.r y y y q N o.' S | D 5 A.A.A.A.A.A.",
"A.A.A.A.A.A.A.e y y y 9 z X.' S ) c 3 A.A.A.A.A.A.",
"A.A.A.A.A.A.A.e y y y 7 d ..' V R g 2 A.A.A.A.A.A.",
"A.A.A.A.A.A.A.q y y y 9 q ) ' n J i 2 A.A.A.A.A.A.",
"A.A.A.A.A.A.A.- > , > 2 2 M Q v A 8 4 A.A.A.A.A.A.",
"A.A.A.A.A.A.A.@ & & $ ; > s Z k g < 6 A.A.A.A.A.A.",
"A.A.A.A.A.A.A.A.& & & = ; q z d y ; A.A.A.A.A.A.A.",
"A.A.A.A.A.A.A.A.# & & * < ; s y 2 : A.A.A.A.A.A.A.",
"A.A.A.A.A.A.A.A.# & & & 1 % , 3 @ 3 A.A.A.A.A.A.A.",
"A.A.A.A.A.A.A.A.A.# # # - 2 + O ; A.A.A.A.A.A.A.A.",
"A.A.A.A.A.A.A.A.A.o X X o : 2 > 9 A.A.A.A.A.A.A.A.",
"A.A.A.A.A.A.A.A.A.A.. .   o 9 u A.A.A.A.A.A.A.A.A."
};
