/* XPM */
static char *result[] = {
/* columns rows colors chars-per-pixel */
"25 25 35 1 ",
"  c #A07200",
". c #A47600",
"X c #A57700",
"o c #AE8000",
"O c #AF8100",
"+ c #B08200",
"@ c #B48500",
"# c #B58700",
"$ c #BF9000",
"% c #C09100",
"& c #C19200",
"* c #CC9D00",
"= c #CF9F00",
"- c #DCAC00",
"; c #DDAD00",
": c #DEAE00",
"> c #E1B100",
", c #E2B200",
"< c #E4B400",
"1 c #E5B500",
"2 c #E6B600",
"3 c #F2C100",
"4 c #F5C500",
"5 c #FDCB00",
"6 c #FCCC00",
"7 c #F5D910",
"8 c #F5DA10",
"9 c #F7E503",
"0 c #FFF003",
"q c #FFF103",
"w c #FFE510",
"e c #F6F357",
"r c #F6F358",
"t c #FFFF61",
"y c None",
/* pixels */
"yyyyyyyyyy-<1<-yyyyyyyyyy",
"yyyyyyyyyy35553yyyyyyyyyy",
"yyyyyyyyyy7www8yyyyyyyyyy",
"yyyyyyyyyyetttryyyyyyyyyy",
"yyyyyyyyyy9q0q9yyyyyyyyyy",
"yyyyyyyyyy46664yyyyyyyyyy",
"yyyyyyyyyy>222>yyyyyyyyyy",
"yyyyyyyyyy;,,,;yyyyyyyyyy",
"yyyyyyyyyy:,,,:yyyyyyyyyy",
"yyyyyyyyyy:,,,:yyyyyyyyyy",
"yyyyyyyyyy:,,,:yyyyyyyyyy",
"yyyyyyyyyy*===*yyyyyyyyyy",
"yyyyyyyyyy$&%&$yyyyyyyyyy",
"yyyyyyyyyy$&&&$yyyyyyyyyy",
"yyyyyyyyyy$&&&$yyyyyyyyyy",
"yyyyyyyyyy$&&&$yyyyyyyyyy",
"yyyyyyyyyy$&&&$yyyyyyyyyy",
"yyyyyyyyyy@###@yyyyyyyyyy",
"yyyyyyyyyyO+++Oyyyyyyyyyy",
"yyyyyyyyyyO+++Oyyyyyyyyyy",
"yyyyyyyyyyO+++Oyyyyyyyyyy",
"yyyyyyyyyyO+++Oyyyyyyyyyy",
"yyyyyyyyyyoO++oyyyyyyyyyy",
"yyyyyyyyyy..XXXyyyyyyyyyy",
"yyyyyyyyyy     yyyyyyyyyy"
};
