/* XPM */
static char *result[] = {
/* columns rows colors chars-per-pixel */
"25 25 162 2 ",
"   c #9F7100",
".  c #A07200",
"X  c #A47600",
"o  c #A57700",
"O  c #AB7D00",
"+  c #AD7E00",
"@  c #AE8000",
"#  c #AF8000",
"$  c #AF8100",
"%  c #AF8200",
"&  c #B08100",
"*  c #B08200",
"=  c #B18300",
"-  c #B28400",
";  c #B38400",
":  c #B38500",
">  c #B48500",
",  c #B48600",
"<  c #B58600",
"1  c #B58700",
"2  c #B68700",
"3  c #B78800",
"4  c #B88900",
"5  c #B88A00",
"6  c #B98A00",
"7  c #BA8B00",
"8  c #BB8C00",
"9  c #BB8D00",
"0  c #BC8D00",
"q  c #BC8E00",
"w  c #BD8E00",
"e  c #BE8F00",
"r  c #BE9000",
"t  c #BF9000",
"y  c #C09100",
"u  c #C19200",
"i  c #C29300",
"p  c #C09400",
"a  c #C39400",
"s  c #C39700",
"d  c #C49500",
"f  c #C69700",
"g  c #C79700",
"h  c #C69800",
"j  c #C79800",
"k  c #C99A00",
"l  c #CA9B00",
"z  c #CB9C00",
"x  c #CC9C00",
"c  c #CC9D00",
"v  c #CD9D00",
"b  c #CE9E00",
"n  c #CE9F00",
"m  c #CFA000",
"M  c #D0A000",
"N  c #D0A100",
"B  c #D1A100",
"V  c #D1A200",
"C  c #D2A300",
"Z  c #D3A400",
"A  c #D4A500",
"S  c #D6A500",
"D  c #D4A600",
"F  c #D6A600",
"G  c #D7A700",
"H  c #D6A800",
"J  c #D7A800",
"K  c #D8A900",
"L  c #D8A801",
"P  c #DAAB00",
"I  c #DCAC00",
"U  c #DDAD00",
"Y  c #DCAF00",
"T  c #DDAF00",
"R  c #DEAE00",
"E  c #DFAF00",
"W  c #D8AB04",
"Q  c #DFB000",
"!  c #DFB300",
"~  c #DCBB00",
"^  c #E1B000",
"/  c #E1B100",
"(  c #E1B101",
")  c #E2B100",
"_  c #E0B300",
"`  c #E2B200",
"'  c #E3B200",
"]  c #E0B400",
"[  c #E1B400",
"{  c #E4B400",
"}  c #E5B500",
"|  c #E6B500",
" . c #E4B600",
".. c #E6B600",
"X. c #E7B600",
"o. c #E3B800",
"O. c #E6B900",
"+. c #E4B802",
"@. c #E5BD01",
"#. c #E7BC00",
"$. c #E7BA06",
"%. c #E8B800",
"&. c #EBBB00",
"*. c #ECBC00",
"=. c #EDBD00",
"-. c #EFBF00",
";. c #E7C303",
":. c #E5C700",
">. c #E9C400",
",. c #ECC500",
"<. c #E7CA00",
"1. c #E6CE02",
"2. c #E8C902",
"3. c #EECB00",
"4. c #ECCC00",
"5. c #E9C904",
"6. c #E8CD0F",
"7. c #F2C100",
"8. c #F3C300",
"9. c #F0C400",
"0. c #F5C500",
"q. c #F6C500",
"w. c #F7C500",
"e. c #F6C600",
"r. c #F7C800",
"t. c #F9C800",
"y. c #FACA00",
"u. c #FBCA00",
"i. c #FDCB00",
"p. c #FCCC00",
"a. c #FDCC00",
"s. c #FECD00",
"d. c #EED100",
"f. c #F4D000",
"g. c #F5D401",
"h. c #F9D700",
"j. c #F3D804",
"k. c #FFDF00",
"l. c #F6D509",
"z. c #E8C013",
"x. c #E7CB19",
"c. c #EDD310",
"v. c #FBE402",
"b. c #FBEA02",
"n. c #FCEC03",
"m. c #FDED07",
"M. c #FFF002",
"N. c #FFF003",
"B. c #FFE611",
"V. c #FFE711",
"C. c #FEE412",
"Z. c #F9E01E",
"A. c #EBD425",
"S. c #F0D62D",
"D. c #FFF020",
"F. c #FCF228",
"G. c #F7EA42",
"H. c #FAE84F",
"J. c #F7F456",
"K. c #FFFF61",
"L. c #FFFF62",
"P. c None",
/* pixels */
"P.P.P.P.P.P.P.P.P.P.h.9.' | | { P.P.P.P.P.P.P.P.P.",
"P.P.P.P.P.P.P.P.P.Z.D.k.e.u.a.i.w.P.P.P.P.P.P.P.P.",
"P.P.P.P.P.P.P.P.P.H.x.>.r.l.V.B.C.P.P.P.P.P.P.P.P.",
"P.P.P.P.P.P.P.P.j.6.1.~ ) S.L.K.K.J.P.P.P.P.P.P.P.",
"P.P.P.P.P.P.P.P.d.A.F.f.S @.n.M.N.b.P.P.P.P.P.P.P.",
"P.P.P.P.P.P.P.P.5.G.c.! X.F 0.p.p.y.P.P.P.P.P.P.P.",
"P.P.P.P.P.P.P.T 2.m.;.Q 7.b E ....} I P.P.P.P.P.P.",
"P.P.P.P.P.P.P.G :.v.z.( q.z G ` ` ` I P.P.P.P.P.P.",
"P.P.P.P.P.P.P.v <.g.+./ q.v C ` ` ` U P.P.P.P.P.P.",
"P.P.P.P.P.P.P.h 4.#.D ^ 8.m v ` ` ` R P.P.P.P.P.P.",
"P.P.P.P.P.P.P.s 3. .W R -.C k ` ` ` E P.P.P.P.P.P.",
"P.P.P.P.P.P.P.p ,.s.$.L =.A u b n n x P.P.P.P.P.P.",
"P.P.P.P.P.P.P.r o.t.O.G =.V 9 y y u t P.P.P.P.P.P.",
"P.P.P.P.P.P.P.w T *.[ J &.c 8 u u u t P.P.P.P.P.P.",
"P.P.P.P.P.P.P.7 K *.] G ..j 8 u u u t P.P.P.P.P.P.",
"P.P.P.P.P.P.P.3 B &.] A E i 0 u u u t P.P.P.P.P.P.",
"P.P.P.P.P.P.P.3 g %._ M P 0 q u u u e P.P.P.P.P.P.",
"P.P.P.P.P.P.P.4 8 K Y m Z 3 3 < 1 < : P.P.P.P.P.P.",
"P.P.P.P.P.P.P.7 2 l H l j < > % * * @ P.P.P.P.P.P.",
"P.P.P.P.P.P.P.P.> a N d e , - * * * P.P.P.P.P.P.P.",
"P.P.P.P.P.P.P.P.< 4 f y > 1 = * * $ P.P.P.P.P.P.P.",
"P.P.P.P.P.P.P.P.6 # 5 1 & 1 * * * $ P.P.P.P.P.P.P.",
"P.P.P.P.P.P.P.P.P.> O + 2 ; $ $ $ P.P.P.P.P.P.P.P.",
"P.P.P.P.P.P.P.P.P.w < 3 : o X X o P.P.P.P.P.P.P.P.",
"P.P.P.P.P.P.P.P.P.P.i 9 o   . . P.P.P.P.P.P.P.P.P."
};
