/* XPM */
static char *result[] = {
/* columns rows colors chars-per-pixel */
"25 25 224 2 ",
"   c #A17300",
".  c #A27400",
"X  c #A37500",
"o  c #AB7C00",
"O  c #AC7D00",
"+  c #AC7E00",
"@  c #AD7E00",
"#  c #AD7F00",
"$  c #AE7F00",
"%  c #AE8000",
"&  c #AF8000",
"*  c #AF8100",
"=  c #B08100",
"-  c #B08200",
";  c #B18300",
":  c #B28300",
">  c #B28400",
",  c #B38400",
"<  c #B38500",
"1  c #B48500",
"2  c #B48600",
"3  c #B58600",
"4  c #B68700",
"5  c #B78800",
"6  c #B68900",
"7  c #B78900",
"8  c #B88900",
"9  c #B88A00",
"0  c #B98A00",
"q  c #BA8B00",
"w  c #B98D00",
"e  c #BB8C00",
"r  c #BC8D00",
"t  c #BD8E00",
"y  c #BD8F00",
"u  c #BE8F00",
"i  c #BF9000",
"p  c #C09100",
"a  c #C19200",
"s  c #C19300",
"d  c #C29300",
"f  c #C29400",
"g  c #C39400",
"h  c #C49500",
"j  c #C59600",
"k  c #C69700",
"l  c #C79700",
"z  c #C69800",
"x  c #C79800",
"c  c #C89800",
"v  c #C99A00",
"b  c #CA9A00",
"n  c #CA9B00",
"m  c #CB9B00",
"M  c #CA9C00",
"N  c #CB9C00",
"B  c #CC9C00",
"V  c #CC9D00",
"C  c #CD9D00",
"Z  c #CD9E00",
"A  c #CE9E00",
"S  c #CE9F00",
"D  c #CF9F00",
"F  c #D1A100",
"G  c #D1A200",
"H  c #D2A200",
"J  c #D2A300",
"K  c #D3A300",
"L  c #D4A400",
"P  c #D4A500",
"I  c #D5A500",
"U  c #D6A600",
"Y  c #D6A700",
"T  c #D7A700",
"R  c #D5AA00",
"E  c #D5AF00",
"W  c #D8A800",
"Q  c #D9A900",
"!  c #DAAA00",
"~  c #DBAB00",
"^  c #DCAB00",
"/  c #DBAC00",
"(  c #DAAD00",
")  c #DAAE00",
"_  c #DCAC00",
"`  c #DCAD00",
"'  c #DDAD00",
"]  c #DCAF00",
"[  c #DEAE00",
"{  c #DFAF00",
"}  c #DDB100",
"|  c #DFB100",
" . c #DEB200",
".. c #D9B700",
"X. c #DBB900",
"o. c #DABA03",
"O. c #E1B100",
"+. c #E1B200",
"@. c #E0B300",
"#. c #E2B200",
"$. c #E3B200",
"%. c #E2B300",
"&. c #E3B300",
"*. c #E2B400",
"=. c #E3B400",
"-. c #E3B500",
";. c #E0B700",
":. c #E3B503",
">. c #E5B500",
",. c #E5B600",
"<. c #E6B600",
"1. c #E7B600",
"2. c #E7B700",
"3. c #E4B502",
"4. c #E0B705",
"5. c #E1BB00",
"6. c #E6BE00",
"7. c #E8B800",
"8. c #E8B900",
"9. c #EABA00",
"0. c #EABB00",
"q. c #EBBB00",
"w. c #E9BD01",
"e. c #ECBC00",
"r. c #EDBC00",
"t. c #EDBD00",
"y. c #ECBF00",
"u. c #EEBE00",
"i. c #EEBF00",
"p. c #EFBF00",
"a. c #E5B70C",
"s. c #F0BF00",
"d. c #DFC008",
"f. c #E0C200",
"g. c #E1C200",
"h. c #E5C100",
"j. c #E6C000",
"k. c #E0C004",
"l. c #EAC300",
"z. c #EAC400",
"x. c #E6CE00",
"c. c #E7CE05",
"v. c #EBCB00",
"b. c #EFC800",
"n. c #EBCD00",
"m. c #E6C90D",
"M. c #EBCC0D",
"N. c #F0C000",
"B. c #F1C000",
"V. c #F2C200",
"C. c #F3C300",
"Z. c #F4C300",
"A. c #F2C400",
"S. c #F7C600",
"D. c #F7C700",
"F. c #F8C700",
"G. c #F6C900",
"H. c #F6CB00",
"J. c #F9C800",
"K. c #F9C900",
"L. c #FAC900",
"P. c #FBCB00",
"I. c #FCCB00",
"U. c #FCCC00",
"Y. c #FECD00",
"T. c #FFCD00",
"R. c #FDCE00",
"E. c #FFCE00",
"W. c #FFCF00",
"Q. c #EDD603",
"!. c #EFD800",
"~. c #EEDB00",
"^. c #F4D100",
"/. c #F0D500",
"(. c #F4D600",
"). c #FFD000",
"_. c #FFD200",
"`. c #F9D600",
"'. c #F8D700",
"]. c #F9D700",
"[. c #FFD400",
"{. c #F4D800",
"}. c #F7D804",
"|. c #FFDB00",
" X c #FFDF00",
".X c #F9DA04",
"XX c #FADD0A",
"oX c #E8C010",
"OX c #F2CA16",
"+X c #ECD11B",
"@X c #F6E202",
"#X c #F7E500",
"$X c #FAE003",
"%X c #FFE200",
"&X c #FFE605",
"*X c #FFEA00",
"=X c #FDEB02",
"-X c #FAEF00",
";X c #FFEE00",
":X c #FEE804",
">X c #FFF000",
",X c #FFF002",
"<X c #FFFA0D",
"1X c #FFE612",
"2X c #FFE712",
"3X c #F8E315",
"4X c #F6DB2C",
"5X c #E5C03B",
"6X c #EFD530",
"7X c #FFF22B",
"8X c #FFFB2E",
"9X c #FDE239",
"0X c #FFEC3A",
"qX c #F1D249",
"wX c #F9EB4D",
"eX c #FFFA4B",
"rX c #FAED58",
"tX c #F5F150",
"yX c #FFF056",
"uX c #F6E563",
"iX c #FFFF61",
"pX c #FEFF62",
"aX c #FEF5BC",
"sX c None",
/* pixels */
"sXsXsXsXsXsXsXsX^.'.].A.1.2.r.u.s.sXsXsXsXsXsXsXsX",
"sXsXsXsXsXsXsX.X0X7X;X%X_.D.J.E.T.F.sXsXsXsXsXsXsX",
"sXsXsXsXsXsX}.yXuXm.g.h.H.R.i.XX2X1X3XsXsXsXsXsXsX",
"sXsXsXsXsXv.:X+Xo.c.~.f.M 7.p.6XpXiXiXtXsXsXsXsXsX",
"sXsXsXsXsX{./.d.rX8X#X`.C.m W w.@X,X,X=XsXsXsXsXsX",
"sXsXsXsX .(.k.wXeX$XX.@.).B.g ' 8.P.U.U.V.sXsXsXsX",
"sXsXsXsX,.j.Q.<X&X4X4.^ W.Y.J n ! $.<.<.#.sXsXsXsX",
"sXsXsXsX%.R -X*X9XaX5X_ W.I.&.i K ~ #.#.O.sXsXsXsX",
"sXsXsXD K ..>X|.M.qXa._ W.D.9.a b U #.#.#.! sXsXsX",
"sXsXsXV g x. XG.E } >._ E.N.t.B i G #.#.#.` sXsXsX",
"sXsXsXb y !.[.y.( oX3.~ S.e.t.I 5 S O.#.#.[ sXsXsX",
"sXsXsXc w n.W.Y.U.OX:.I u.e.t.Q 1 x C A A N sXsXsX",
"sXsXsXl 6 5.Z.L.K.b.-.H t.e.e.P > g p p a i sXsXsX",
"sXsXsXl 2 ] t.t.q.z.=.H t.e.<.Z ; d a a a i sXsXsX",
"sXsXsXg , K e.e.9.z.*.H t.<.[ x : d a a a i sXsXsX",
"sXsXsXd : c 2.e.0.z.%.F >.[ / u 1 d a a a u sXsXsX",
"sXsXsXf 3 e ! 9.0.l.+.N [ ' L 1 8 s p p p t sXsXsX",
"sXsXsXsXq = v Y { 6.| b ' T z % r 7 2 2 2 sXsXsXsX",
"sXsXsXsXi $ t N Z ;.[ k H N 0 = u ; - - * sXsXsXsX",
"sXsXsXsXs 3 & k v ) Y i N g # 5 q - - - % sXsXsXsX",
"sXsXsXsXsXr $ : j N k d h * = r < - - - sXsXsXsXsX",
"sXsXsXsXsXa 5 @ # 8 r 5 + $ 8 9 - - - % sXsXsXsXsX",
"sXsXsXsXsXsXp 4 * O o O = 5 e ; - - * sXsXsXsXsXsX",
"sXsXsXsXsXsXsXa e 4 1 4 e 9 % # % * sXsXsXsXsXsXsX",
"sXsXsXsXsXsXsXsXg d d u ; X   . X sXsXsXsXsXsXsXsX"
};
