/* XPM */
static char *result[] = {
/* columns rows colors chars-per-pixel */
"25 25 244 2 ",
"   c #9F7100",
".  c #A07200",
"X  c #A47600",
"o  c #A67800",
"O  c #AA7C00",
"+  c #AB7C00",
"@  c #AB7D00",
"#  c #AC7E00",
"$  c #AD7E00",
"%  c #AD7F00",
"&  c #AE7F00",
"*  c #AE8000",
"=  c #AF8000",
"-  c #AF8100",
";  c #B08100",
":  c #B08200",
">  c #B18200",
",  c #B18300",
"<  c #B28300",
"1  c #B28400",
"2  c #B38400",
"3  c #B48500",
"4  c #B48600",
"5  c #B58600",
"6  c #B58700",
"7  c #B68700",
"8  c #B78800",
"9  c #B88800",
"0  c #B88900",
"q  c #B88A00",
"w  c #B98A00",
"e  c #B98B00",
"r  c #BA8B00",
"t  c #BB8C00",
"y  c #BC8D00",
"u  c #BD8E00",
"i  c #BE8E00",
"p  c #BE8F00",
"a  c #BE9000",
"s  c #BF9000",
"d  c #BF9100",
"f  c #C09100",
"g  c #C19200",
"h  c #C19300",
"j  c #C29300",
"k  c #C29400",
"l  c #C39400",
"z  c #C29600",
"x  c #C49500",
"c  c #C59600",
"v  c #C69700",
"b  c #C79800",
"n  c #C69B00",
"m  c #C89800",
"M  c #C89900",
"N  c #C99A00",
"B  c #C99B00",
"V  c #CA9A00",
"C  c #CA9B00",
"Z  c #CB9B00",
"A  c #CB9C00",
"S  c #CB9F00",
"D  c #CC9C00",
"F  c #CC9D00",
"G  c #CD9D00",
"H  c #CD9E00",
"J  c #CE9E00",
"K  c #CE9F00",
"L  c #C8A100",
"P  c #CDAA00",
"I  c #CEAA00",
"U  c #D0A000",
"Y  c #D0A100",
"T  c #D1A100",
"R  c #D1A001",
"E  c #D0A300",
"W  c #D2A300",
"Q  c #D3A400",
"!  c #D4A400",
"~  c #D4A500",
"^  c #D5A600",
"/  c #D6A700",
"(  c #D7A700",
")  c #D6AB00",
"_  c #D8A900",
"`  c #D9A900",
"'  c #DBAB00",
"]  c #DCAC00",
"[  c #DDAD00",
"{  c #DDAE00",
"}  c #DEAE00",
"|  c #DFAF00",
" . c #D3A50B",
".. c #DFB100",
"X. c #DDB300",
"o. c #D9B500",
"O. c #DBBA01",
"+. c #DDBA00",
"@. c #DCBB03",
"#. c #DDBD00",
"$. c #DAB905",
"%. c #E0B000",
"&. c #E0B100",
"*. c #E1B100",
"=. c #E2B200",
"-. c #E3B300",
";. c #E4B400",
":. c #E5B500",
">. c #E6B500",
",. c #E7B500",
"<. c #E6B600",
"1. c #E7B700",
"2. c #E7BC00",
"3. c #E9B900",
"4. c #E8BA00",
"5. c #E9BA00",
"6. c #E8BA01",
"7. c #EABA00",
"8. c #EBBA00",
"9. c #EBBB00",
"0. c #E9BC00",
"q. c #ECBC00",
"w. c #EDBD00",
"e. c #EDBE00",
"r. c #EFBF00",
"t. c #E5BD0C",
"y. c #E9BD0A",
"u. c #E1C200",
"i. c #E5C100",
"p. c #E4C200",
"a. c #E5C200",
"s. c #EEC400",
"d. c #EFC500",
"f. c #ECC600",
"g. c #E4CA00",
"h. c #ECC800",
"j. c #EFCA00",
"k. c #E4C70A",
"l. c #F2C200",
"z. c #F3C200",
"x. c #F4C300",
"c. c #F0C500",
"v. c #F3C400",
"b. c #F4C400",
"n. c #F5C500",
"m. c #F7C500",
"M. c #F4C600",
"N. c #F8C700",
"B. c #F1CD00",
"V. c #F1CE00",
"C. c #F1CF01",
"Z. c #F9C800",
"A. c #F9C900",
"S. c #FAC900",
"D. c #FACA00",
"F. c #FBCB00",
"G. c #FCCA00",
"H. c #FCCB00",
"J. c #FDCB00",
"K. c #FCCC00",
"L. c #FCCD00",
"P. c #FECD00",
"I. c #FFCD00",
"U. c #FFCE00",
"Y. c #FFCF00",
"T. c #FECD02",
"R. c #FECE09",
"E. c #EDD000",
"W. c #EED700",
"Q. c #EFD502",
"!. c #EEDB00",
"~. c #F2D400",
"^. c #F3D700",
"/. c #F6D600",
"(. c #FFD200",
"). c #F8D600",
"_. c #FAD700",
"`. c #FFD600",
"'. c gold",
"]. c #F3DE03",
"[. c #F9D800",
"{. c #FAD900",
"}. c #FAD901",
"|. c #F9DB03",
" X c #FADB07",
".X c #F3D20B",
"XX c #FFDC0A",
"oX c #E1C61B",
"OX c #F8CE1A",
"+X c #ECD815",
"@X c #F8DA1E",
"#X c #F7E101",
"$X c #F7E400",
"%X c #FCE500",
"&X c #FFE400",
"*X c #FFEA00",
"=X c #FFED00",
"-X c #FCEE00",
";X c #FFEF01",
":X c #FFEB04",
">X c #FFEC08",
",X c #FFF002",
"<X c #FFF003",
"1X c #FFFA05",
"2X c #FAE413",
"3X c #FFE611",
"4X c #FFF113",
"5X c #FFFD10",
"6X c #ECCD22",
"7X c #E9C12B",
"8X c #F0D621",
"9X c #EFD83C",
"0X c #FED833",
"qX c #F8DD35",
"wX c #FEE724",
"eX c #FFF22E",
"rX c #FFF92C",
"tX c #F4E13C",
"yX c #DFBB41",
"uX c #E5C34D",
"iX c #F9E845",
"pX c #F8E349",
"aX c #FFF04D",
"sX c #FFF14F",
"dX c #FEE354",
"fX c #FAF85C",
"gX c #E5D073",
"hX c #FFE766",
"jX c #FCFA60",
"kX c #FFFF61",
"lX c #FFFD62",
"zX c #FFE778",
"xX c #FBEE7B",
"cX c #FFFA78",
"vX c #FFFB8A",
"bX c #F8EC95",
"nX c #FFF195",
"mX c #F2E0A1",
"MX c #FFF3A1",
"NX c #FFF4C0",
"BX c #F9F4C8",
"VX c #FFFEF6",
"CX c #FFFEF7",
"ZX c None",
/* pixels */
"ZXZXZXZXZXZXZXZXZX).}._.M.8.=.-.;.ZXZXZXZXZXZXZXZX",
"ZXZXZXZXZXZXZX[.wXsX4X=X&X`.F.x.N.H.m.ZXZXZXZXZXZX",
"ZXZXZXZXZXZX|.aXxX9Xk.u.p.d.(.D.e. X3X2XZXZXZXZXZX",
"ZXZXZXZXZX~.:X8X$.oX+X!.g.S W z.w.6XjXkXfXZXZXZXZX",
"ZXZXZXZXi.%XE.O.tXvXrX$X/.L.%.x ] 5.Q.<X,X#XZXZXZX",
"ZXZXZXZXh.^.@.iXlXcXpX#.) P.Y.;.p ] -.n.K.D.ZXZXZX",
"ZXZXZX[ c.+.].5X>XMXbXt.R P.U.H.F c ' ] <.<.| ZXZX",
"ZXZXZX&.{ o.1XeXnXCXVXmXyXR.U.Z.-.r Y ~ %.=.%.ZXZX",
"ZXZXG _ m W.;XXXqXBXNX7X .T.U.l.q.x g T ' =.=.` ZX",
"ZXZXH N n -X'.K.a.gXzX,.U P.A.w.w.^ 7 C ( =.=.] ZX",
"ZXZXG i I *XY.v.X.uXhX>.U A.r.q.w.&.1 x ! =.=.} ZX",
"ZXZXD 9 P {.I.P.J.0XdX<.F w.q.q.q.:.2 s V J K A ZX",
"ZXZXA 3 L s.b.S.G.OX@X<.C 9.q.q.q.| , y x f g s ZX",
"ZXZXZ 3 z 0.q.w.w.y..X<.C 9.q.q.:./ ; y l g g s ZX",
"ZXZXv 7 t =.q.q.q.6.C.:.C 9.9.-.} U % u l g g s ZX",
"ZXZXx 8 2 ( 3.q.q.4.V.;.V 1.*.[ ] c # s j g g p ZX",
"ZXZXx t $ M ] 7.q.4.B.-.v [ [ [ ! 0 = j g g f y ZX",
"ZXZXZXg * 8 F ^ %...j.*.c ] ] ! b & 7 f 5 6 4 ZXZX",
"ZXZXZXx 7 # k C H E f.| l Q K C 0 $ u e - : * ZXZX",
"ZXZXZXZXp = ; v C B 2.( p N C a @ 3 f 1 : : ZXZXZX",
"ZXZXZXZXl 8 $ ; l N Y v f M y @ ; y q : : - ZXZXZX",
"ZXZXZXZXZXf 5 & @ 4 t u e ; + ; 0 y , : - ZXZXZXZX",
"ZXZXZXZXZXZXf 7 > $ + + @ & < w y , - - ZXZXZXZXZX",
"ZXZXZXZXZXZXZXj u 8 3 3 5 0 y 3 o X o ZXZXZXZXZXZX",
"ZXZXZXZXZXZXZXZXZXl j h d q O .   ZXZXZXZXZXZXZXZX"
};
