/* XPM */
static char *result[] = {
/* columns rows colors chars-per-pixel */
"22 30 90 1 ",
"  c #14130F",
". c #1D140F",
"X c #151511",
"o c #191813",
"O c #1F1E18",
"+ c #2E180F",
"@ c #39180C",
"# c #2C1D14",
"$ c #201F19",
"% c #371C10",
"& c #22211B",
"* c #2A2119",
"= c #32261C",
"- c #2C2B23",
"; c #322E24",
": c #323127",
"> c #35342A",
", c #38372C",
"< c #39392D",
"1 c #3E3E31",
"2 c #411C0E",
"3 c #491C0D",
"4 c #551D0C",
"5 c #67220D",
"6 c #6C220C",
"7 c #79240B",
"8 c #4E3121",
"9 c #553221",
"0 c #5C3320",
"q c #444335",
"w c #4B4131",
"e c #474738",
"r c #484738",
"t c #4C4C3C",
"y c #514D3C",
"u c #50503F",
"i c #535342",
"p c #5A5A46",
"a c #5D5D49",
"s c #64644D",
"d c #6A694F",
"f c #666650",
"g c #686751",
"h c #6C6B54",
"j c #6F6F58",
"k c #747355",
"l c #75745B",
"z c #78775E",
"x c #7A795C",
"c c #7C7C62",
"v c #822A0F",
"b c #8D2B0F",
"n c #912B0E",
"m c #9D2F0F",
"M c #952E10",
"N c #B53814",
"B c #C23D17",
"V c #C93F18",
"C c #D0421A",
"Z c #DF4B20",
"A c #E95126",
"S c #EE5529",
"D c #F3592E",
"F c #807F5D",
"G c #807F64",
"H c #828166",
"J c #878769",
"K c #8C8B6D",
"L c #8F8E70",
"P c #908F70",
"I c #949374",
"U c #9D9C7B",
"Y c #A09F7D",
"T c #A2A17E",
"R c #A4A481",
"E c #ABAB86",
"W c #AFAE89",
"Q c #B0AF89",
"! c #B4B38C",
"~ c #B8B78F",
"^ c #BCBB92",
"/ c #C0BF96",
"( c #C1C097",
") c #C5C49A",
"_ c #C8C79B",
"` c #CCCB9E",
"' c #CFCEA0",
"] c #D0CFA2",
"[ c #D4D3A4",
"{ c None",
/* pixels */
"{{{{{{{{ssfffs{{{{{{{{",
"{{{{{pcHU!Q!WIGli{{{{{",
"{{{{kU^()``_'((!If{{{{",
"{{{lE_`````'__''_Uf{{{",
"{{lE_``''_'_''''__Yf{{",
"{aR_`]EUW'_'_RU!]'_Ii{",
"{H^E^[WT!/IU_ER~[W!Wh{",
"eHRR`[]]]Qcc/]]'')URf{",
"rj!~RRYRRJILLRRRRR^Rat",
"igQf;;09;a^Ee-99-:HEpt",
"iiiO 6VN@q^R-4VB3 -iit",
"if;X.nDZ4e^R;7SA6 o1hi",
"il- X2mv#f'^i%Mb+  1ct",
"icp-XX-yaRWWJpw#Xo:gl{",
"qcEcqecW)LeiR_Rc1tIRl{",
"{ijE~^''!i--f)'^^~Rst{",
"{{qhQ^/!J;=&<I^//Raq{{",
"{{qihlcGIHHFJIGxlfu{{{",
"{{ica><j^___`Ei-1gz{{{",
"{{pRH>$axxkkxltoqII{{{",
"{{pWU>OpsxkHkd<otEU{{{",
"{{p!E,Ofudsdssrot^T{{{",
"{{p~^h>kxkxxkxa&c_T{{{",
"{{iT]^clPskkdPhs~`K{{{",
"{{{fK~(((TLLE))^EH{{{{",
"{{{{{sL~__'`__EJa{{{{{",
"{{{{{{{hlHERzl{{{{{{{{",
"{{{{{{{{{{{{{{{{{{{{{{",
"{{{{{{{{{{{{{{{{{{{{{{",
"{{{{{{{{{{{{{{{{{{{{{{"
};
