/* XPM */
static char *result[] = {
/* columns rows colors chars-per-pixel */
"22 30 76 1 ",
"  c #13120F",
". c #151511",
"X c #191612",
"o c #1B1A15",
"O c #1F1E18",
"+ c #25160E",
"@ c #2D180F",
"# c #3C1B0F",
"$ c #201F19",
"% c #24241D",
"& c #2B2C23",
"* c #322F25",
"= c #392F24",
"- c #313127",
"; c #35352A",
": c #38372C",
"> c #37382D",
", c #3A392D",
"< c #3F3E31",
"1 c #411C0F",
"2 c #4B1F10",
"3 c #502010",
"4 c #5D2310",
"5 c #64240F",
"6 c #68250F",
"7 c #602410",
"8 c #434335",
"9 c #494837",
"0 c #474738",
"q c #4C4C3C",
"w c #52513F",
"e c #535341",
"r c #5B5A46",
"t c #5D5D49",
"y c #63634E",
"u c #666651",
"i c #686752",
"p c #6A6A53",
"a c #727255",
"s c #74745B",
"d c #7A7A5E",
"f c #7D7C62",
"g c #962E0F",
"h c #9B2F0F",
"j c #A3310E",
"k c #D53C0F",
"l c #DD3D0F",
"z c #838265",
"x c #898864",
"c c #8C8C6E",
"v c #8F8E70",
"b c #908F71",
"n c #939273",
"m c #989777",
"M c #999877",
"N c #9C9B7A",
"B c #A2A17F",
"V c #A4A481",
"C c #A8A783",
"Z c #ABAA85",
"A c #AFAE89",
"S c #B0AF8A",
"D c #B3B28C",
"F c #B8B78F",
"G c #B7B790",
"H c #B8B790",
"J c #BCBB93",
"K c #C0BF96",
"L c #C2C196",
"P c #C5C49A",
"I c #C8C79B",
"U c #CCCB9E",
"Y c #CECDA0",
"T c #D0CFA2",
"R c #D4D3A5",
"E c None",
/* pixels */
"EEEEEEEEyiuuyyEEEEEEEE",
"EEEEEeszNADAANzseEEEEE",
"EEEEimFLLIUUUKLHmpEEEE",
"EEEiVPUUYUUUYUYYIVpEEE",
"EEiBIUUYYUUUUYYYYIVpEE",
"EemIURDNCUUUIZNAYYPmeE",
"EsGDDRFVAPmmPABDRGAGsE",
"EsCNPYTTYJfdGRTYYINVpE",
"0tZJVVVVVvbbvVVVVCJZyq",
"etZs&&==&eDDe&==&*sZte",
"qee&.@jg+;AS;+gj@ %eeq",
"ep<..2ll#;AD>#kl3.X,pe",
"ef; .X77orPPtX47X. :de",
"8su&XX$8tnSSmt0%.X&ysq",
"8sCv9<sZImq9mPZf80cCsE",
"EquVFJIUKu&&rJYPJHVieE",
"EE8yVJKJc,%%-cGKKZy8EE",
"EEEeisffnxzzxnfdsiwEEE",
"EEEsi;-uDIIIIDt->isEEE",
"EEEvf<oefdddddwo>fbEEE",
"EEEMN8.qadxxxa9o<mNEEE",
"EEECZ0.O%wwwwq>o<ZZEEE",
"EEECJ0o;OXXX.%&X8JZEEE",
"EEECPyOyr9qq9wyotPZEEE",
"EEEBYFyaaddddaaySUBEEE",
"EEEaAYJHNnnnnNFKUDdEEE",
"EEEEaAYYUIIUIUUUDsEEEE",
"EEEEEaALLLLLKPPDsEEEEE",
"EEEEEEyiipipppiyEEEEEE",
"EEEEEEEEEEEEEEEEEEEEEE"
};
