/* XPM */
static char *result[] = {
/* columns rows colors chars-per-pixel */
"22 30 89 1 ",
"  c #14130F",
". c #18140F",
"X c #161511",
"o c #181713",
"O c #1A1914",
"+ c #1F1E18",
"@ c #33190F",
"# c #2F1C13",
"$ c #301C12",
"% c #25251D",
"& c #2C251C",
"* c #28281F",
"= c #2D2B22",
"- c #302B21",
"; c #313127",
": c #36352A",
"> c #3A392D",
", c #3F3F32",
"< c #471A0C",
"1 c #4C1B0C",
"2 c #551E0D",
"3 c #5A1F0D",
"4 c #651F0B",
"5 c #56301E",
"6 c #5A311E",
"7 c #6B210B",
"8 c #75240C",
"9 c #7B260C",
"0 c #444335",
"q c #4F4837",
"w c #474738",
"e c #4D4D3C",
"r c #504C3A",
"t c #51503D",
"y c #535342",
"u c #585744",
"i c #5E5E47",
"p c #5D5D4A",
"a c #63624D",
"s c #666650",
"d c #686751",
"f c #6C6C55",
"g c #6F6F58",
"h c #717055",
"j c #75745B",
"k c #78775E",
"l c #7A795D",
"z c #7D7D63",
"x c #872B0F",
"c c #8D2B0E",
"v c #902C0E",
"b c #8A2C10",
"n c #C43E17",
"m c #C73F18",
"M c #CD421A",
"N c #E64F24",
"B c #E95126",
"V c #ED5429",
"C c #807F5E",
"Z c #81815F",
"A c #848465",
"S c #8A8964",
"D c #878669",
"F c #8A8A6D",
"G c #8F8F70",
"H c #908F71",
"J c #949474",
"K c #989777",
"L c #9D9C7B",
"P c #A09F7D",
"I c #A2A17F",
"U c #A6A582",
"Y c #A8A784",
"T c #ACAB86",
"R c #AFAE89",
"E c #B0AF89",
"W c #B4B38D",
"Q c #B8B78F",
"! c #B8B790",
"~ c #BCBB92",
"^ c #C0BF95",
"/ c #C1C096",
"( c #C6C59A",
") c #C8C79C",
"_ c #CCCB9E",
"` c #CECDA0",
"' c #D0CFA2",
"] c #D4D3A5",
"[ c None",
/* pixels */
"[[[[[[[[adddda[[[[[[[[",
"[[[[[uzALWWWWLDku[[[[[",
"[[[[fL~(()`_)(/!Kf[[[[",
"[[[fU))_)`______(Uf[[[",
"[[fU)__``__`__]_`)Uf[[",
"[uL)_]RKY_)__YKE``(Ku[",
"[k~RW]QUW(JJ(RU~]WRWg[",
"[jUL)]`''Qzj~]```)LUs[",
"0sR~ULPLLFJHFLLLLP~Tae",
"epYj=-65=yWWy=56==jYpe",
"yye% 3Mm<>EE:2mm2 =eye",
"yf>o.9VN4>WR:4BV8.o,fy",
"yz: X@cx$p)/p#bc$X >ky",
"0jd=oo&rsKRRJaq&oo;dj[",
"0jYGwwzR)JweK)Tz0eJYj[",
"[wsY~~)`~p=&p~`(~!Uae[",
"[[0pY~~!S:=*;FQ^~Up0[[",
"[[[ysgjzKSDDFJzjgsy[[[",
"[[[zs>:sE)(()Wi=>sj[[[",
"[[[Hz>oulllCkjeO>AG[[[",
"[[[LK,orfCZSZj0O0LK[[[",
"[[[UY0o+%ettre:O0RU[[[",
"[[[T~0O:+oooX%;Xw~Y[[[",
"[[[T(a+sieeeqia+a)Y[[[",
"[[[U_WdjhllllhjdQ'I[[[",
"[[[jW)/~PJJJJI~/_Tf[[[",
"[[[[gW_`____)___Rh[[[[",
"[[[[[jR~^^^^///Tf[[[[[",
"[[[[[[asasddadd[[[[[[[",
"[[[[[[[[[[[[[[[[[[[[[["
};
