/* XPM */
static char *result[] = {
/* columns rows colors chars-per-pixel */
"22 30 79 1 ",
"  c #14130F",
". c #161511",
"X c #181713",
"o c #1A1914",
"O c #25160E",
"+ c #3C170B",
"@ c #261B13",
"# c #26261E",
"$ c #29261E",
"% c #2C2B22",
"& c #313127",
"* c #35352A",
"= c #3B3A2E",
"- c #3F3F32",
"; c #451A0C",
": c #491A0C",
"> c #531B0A",
", c #5F1E0B",
"< c #651F0B",
"1 c #472A1C",
"2 c #4B2B1B",
"3 c #6D240D",
"4 c #73230B",
"5 c #434335",
"6 c #484737",
"7 c #494937",
"8 c #474638",
"9 c #4D4C3C",
"0 c #504F3C",
"q c #51503F",
"w c #535341",
"e c #5B5A46",
"r c #5D5D4A",
"t c #63634E",
"y c #6A6A4F",
"u c #666650",
"i c #6D6C55",
"p c #706F58",
"a c #717054",
"s c #74745B",
"d c #78775E",
"f c #79785D",
"g c #7C7C61",
"h c #B4310C",
"j c #BB330C",
"k c #C0340C",
"l c #DB3C0E",
"z c #E13D0E",
"x c #807F64",
"c c #82815F",
"v c #818165",
"b c #888763",
"n c #8A8A65",
"m c #878769",
"M c #88876A",
"N c #8B8A6D",
"B c #8E8E70",
"V c #908F70",
"C c #949474",
"Z c #989777",
"A c #9C9B7A",
"S c #A09F7D",
"D c #A2A17F",
"F c #A6A581",
"G c #A8A782",
"H c #ABAA85",
"J c #AFAE89",
"K c #B0AF8A",
"L c #B4B38D",
"P c #B9B88F",
"I c #BBBA92",
"U c #C1C096",
"Y c #C5C499",
"T c #C8C79C",
"R c #CBCA9E",
"E c #CECDA0",
"W c #D0CFA1",
"Q c #D4D3A5",
"! c None",
/* pixels */
"!!!!!!!!uiiiuu!!!!!!!!",
"!!!!!egNALLLLSMge!!!!!",
"!!!!pAPYTREREYYPAp!!!!",
"!!!iGTRRERRRRRRETGi!!!",
"!!pHTREEERREREEERTGi!!",
"!eATRQHZFETTTFZHQRTZw!",
"!gIHLQPHLYCZTLGIQLHLs!",
"!sFAREEEELgsPWEEERAFu!",
"5uKISZAZAMZCMZZZAAIHr9",
"wrFi$%21#wLK9%22#%sFew",
"9w9# :kh+=KJ*+jj; #9w9",
"wi=. <zl:=LK*>lz, .-iw",
"wg* .O4<@uTYr@34O..=fq",
"5di&XX$0uZHHZu6%.X*is!",
"5dGV09vKTC58CRKx9wZFs!",
"!8tFIUTEPr%%eIWTIIFr9!",
"!!5rFIIPb*$$&NLIIGr5!!",
"!!!wuipgZVVNVZgaiuw!!!",
"!!!su*&uKYYUYLe%=is!!!",
"!!!Cg-owffffss9o-gB!!!",
"!!!AA-X9yccnxf5o5AA!!!",
"!!!GH5.o$70077*o8HG!!!",
"!!!HI8.. ... .X 9IG!!!",
"!!!HU8o%o..  o%o9YF!!!",
"!!!HYwot9==5=qeoeYG!!!",
"!!!GWGqaaffffaaqHED!!!",
"!!!gPRLJVncnmCJLRPg!!!",
"!!!!vIRRTYYYYRRRPg!!!!",
"!!!!!gITTTRRTTRPg!!!!!",
"!!!!!!sffffffffp!!!!!!"
};
