/* XPM */
static char *result[] = {
/* columns rows colors chars-per-pixel */
"22 30 78 1 ",
"  c #14130F",
". c #161511",
"X c #181712",
"o c #1A1A14",
"O c #29160E",
"+ c #35160B",
"@ c #38160B",
"# c #271912",
"$ c #281911",
"% c #27251D",
"& c #28221A",
"* c #2C2B22",
"= c #302F26",
"- c #313127",
"; c #36362A",
": c #38372C",
"> c #3A392D",
", c #3F3E31",
"< c #42190C",
"1 c #521A0A",
"2 c #581B0A",
"3 c #621F0B",
"4 c #68200B",
"5 c #76240C",
"6 c #7B250C",
"7 c #472F21",
"8 c #4A2F20",
"9 c #434335",
"0 c #494435",
"q c #474738",
"w c #4D4C3C",
"e c #52513F",
"r c #535341",
"t c #5A5945",
"y c #5D5D49",
"u c #63634E",
"i c #666651",
"p c #686752",
"a c #6B6B53",
"s c #727255",
"d c #75755B",
"f c #787759",
"g c #7A795F",
"h c #7D7C62",
"j c #80250B",
"k c #AB2F0C",
"l c #AF300C",
"z c #B6320C",
"x c #DC3C0E",
"c c #E23E0F",
"v c #828165",
"b c #898864",
"n c #8C8B6E",
"m c #8F8E70",
"M c #908F71",
"N c #949374",
"B c #989777",
"V c #999877",
"C c #9B9B79",
"Z c #A2A17F",
"A c #A5A481",
"S c #A8A783",
"D c #AAAA85",
"F c #AFAE89",
"G c #B0AF8A",
"H c #B4B38C",
"J c #B8B78F",
"K c #B8B790",
"L c #BCBB93",
"P c #C0BF96",
"I c #C2C197",
"U c #C5C49A",
"Y c #C8C79B",
"T c #CCCB9E",
"R c #CFCEA0",
"E c #D0CFA2",
"W c #D4D3A5",
"Q c None",
/* pixels */
"QQQQQQQQuppiiuQQQQQQQQ",
"QQQQQrdvVFGFFVvdrQQQQQ",
"QQQQpBJIITYTTPIKBaQQQQ",
"QQQpZYTTRRTTTTRRYAaQQQ",
"QQpAYTTRRTTTTRRTRYAaQQ",
"QrBYTRHCSTTRTDCFRTUBrQ",
"QdJHHWKZFUVVUFAHWKFKdQ",
"QdACYRRWEKhdKWRRRTVAaQ",
"9uDKAAAAAmMMmAAAAAKFuq",
"wyDh**77*rGHr*77=*gDyr",
"rrr*.<zl+;FH:+kz< %erw",
"rp>..3cx2-FH:1xc4.X>ar",
"wh:..O66#tUUy#56O  >gr",
"9di*X.#qyNGGByw#.o*ugw",
"9dSmq9gSYBwwNYFhqqnDdQ",
"QqiSKKYELi**tKRUKKApwQ",
"QQ9yDLLKn>%%=nJPLDu9QQ",
"QQQrpdhvMbvvvNvgdaeQQQ",
"QQQdi;-iHYYYYJy=;idQQQ",
"QQQmh,orvgfhggeo>hmQQQ",
"QQQVC9.wsfbbvf0o,VCQQQ",
"QQQAFq.o%eeeee>o9DDQQQ",
"QQQALq.. XXX XoX9KDQQQ",
"QQQSYw.*X     %oqIDQQQ",
"QQQSYtotw;;;;qeoeIDQQQ",
"QQQATAqasffffsswZRDQQQ",
"QQQvLTHAnvvvvnZFTPvQQQ",
"QQQQvLTRYIIIIYRRLvQQQQ",
"QQQQQvKTTTYTTTTLvQQQQQ",
"QQQQQQdvvvvvvvhfQQQQQQ"
};
