/* XPM */
static char *result[] = {
/* columns rows colors chars-per-pixel */
"22 30 80 1 ",
"  c #14120F",
". c #19140F",
"X c #161511",
"o c #181713",
"O c #1B1A15",
"+ c #1F1E18",
"@ c #351A0F",
"# c #201F19",
"$ c #311C12",
"% c #27271F",
"& c #2E231A",
"* c #2C2B22",
"= c #312E24",
"- c #313127",
"; c #36352A",
": c #38372C",
"> c #3A392D",
", c #3F3E31",
"< c #451A0C",
"1 c #491B0C",
"2 c #541E0D",
"3 c #66200B",
"4 c #6C210B",
"5 c #77240C",
"6 c #7D260C",
"7 c #543221",
"8 c #593320",
"9 c #434335",
"0 c #4F4535",
"q c #494837",
"w c #474738",
"e c #4C4C3C",
"r c #52513F",
"t c #535341",
"y c #5B5A46",
"u c #5D5D49",
"i c #63634E",
"p c #666651",
"a c #686752",
"s c #6A6A53",
"d c #727255",
"f c #74745B",
"g c #7A7A5E",
"h c #7D7C62",
"j c #952D0F",
"k c #8E2D10",
"l c #C23D17",
"z c #C73F18",
"x c #CA4018",
"c c #E95126",
"v c #EE5529",
"b c #838265",
"n c #898864",
"m c #8C8C6E",
"M c #8F8E70",
"N c #908F71",
"B c #939273",
"V c #989777",
"C c #999877",
"Z c #9C9B7A",
"A c #A2A17F",
"S c #A4A481",
"D c #A8A783",
"F c #ABAA85",
"G c #AFAE89",
"H c #B0AF8A",
"J c #B3B28C",
"K c #B8B78F",
"L c #B7B790",
"P c #B8B790",
"I c #BCBB93",
"U c #C0BF96",
"Y c #C2C196",
"T c #C5C49A",
"R c #C8C79B",
"E c #CCCB9E",
"W c #CECDA0",
"Q c #D0CFA2",
"! c #D4D3A5",
"~ c None",
/* pixels */
"~~~~~~~~iappii~~~~~~~~",
"~~~~~tfbZGJGGZbfy~~~~~",
"~~~~aVKYYREEEUYPVs~~~~",
"~~~aSTEEWEEEWEWWRSs~~~",
"~~aAREEWWEEEEWWWERSs~~",
"~tVRE!JZDEEERFZGQERVt~",
"~fLJJ!KSGTVVTGAJ!LGLf~",
"~fDZTWQQWIhgL!QWWRZSs~",
"9iFISASSSMNNMSSSASIGie",
"euFg==77*tHLt=77==gDue",
"ttt* 2zl<;GH:<lz2 %ttt",
"ta>oX5cc4;HH:3cv6.o>st",
"eh:XX@jk$yYTu$kj$. :gt",
"wfa*oX&0uBJHVuq$Xo*ife",
",fDMw9hDRVeeBRGh9wmDf~",
"~epSLPTWIp**yIWTPLDat~",
"~~9iDIIIm;%%=nLUUFp9~~",
"~~~tpfhbBnbbnBhgfat~~~",
"~~~fp,=iHRRRRJu->pf~~~",
"~~~Mh>OtbggghgtO:hM~~~",
"~~~ZZ9Xedgnnnd9O,VZ~~~",
"~~~AFwX+%errre>O,FF~~~",
"~~~DIwO;+ooOo%*o9PF~~~",
"~~~DRp+uuqqqqri+uTF~~~",
"~~~AWKifdggggddiJWA~~~",
"~~~fGEIPZBNBBZKIEJf~~~",
"~~~~fGWEERREREEEJf~~~~",
"~~~~~dHYYYYYYTTJf~~~~~",
"~~~~~~iassasssai~~~~~~",
"~~~~~~~~~~~~~~~~~~~~~~"
};
