/* XPM */
static char *result[] = {
/* columns rows colors chars-per-pixel */
"22 30 84 1 ",
"  c #14120F",
". c #161611",
"X c #181713",
"o c #1B1A15",
"O c #1F1E18",
"+ c #29160E",
"@ c #35160B",
"# c #38160B",
"$ c #271912",
"% c #281911",
"& c #25231C",
"* c #28221A",
"= c #2C2C23",
"- c #302F25",
"; c #313127",
": c #35342A",
"> c #38372C",
", c #3A392D",
"< c #3F3F31",
"1 c #42190C",
"2 c #521A0A",
"3 c #581B0A",
"4 c #621F0B",
"5 c #68200B",
"6 c #76240C",
"7 c #7B250C",
"8 c #472F21",
"9 c #4A2F20",
"0 c #434335",
"q c #494435",
"w c #494837",
"e c #474738",
"r c #4C4C3C",
"t c #504F3C",
"y c #52523E",
"u c #535241",
"i c #585744",
"p c #5B5A45",
"a c #5D5D4A",
"s c #63634D",
"d c #666651",
"f c #686752",
"g c #6A6A53",
"h c #727255",
"j c #74745B",
"k c #78775E",
"l c #7A7A5E",
"z c #7D7C62",
"x c #80250B",
"c c #AB2F0C",
"v c #AF300C",
"b c #B6320C",
"n c #DC3C0E",
"m c #E23E0F",
"M c #80805E",
"N c #828265",
"B c #898864",
"V c #858568",
"C c #8C8C6E",
"Z c #8F8E70",
"A c #908F71",
"S c #939373",
"D c #989777",
"F c #9C9B7A",
"G c #A2A17F",
"H c #A4A481",
"J c #A8A783",
"K c #ABAA85",
"L c #AFAE89",
"P c #B0AF89",
"I c #B3B28C",
"U c #B8B78F",
"Y c #B7B790",
"T c #B8B790",
"R c #BCBB92",
"E c #C0BF96",
"W c #C2C196",
"Q c #C5C49A",
"! c #C8C79B",
"~ c #CCCB9E",
"^ c #CFCEA0",
"/ c #D0CFA2",
"( c #D4D3A5",
") c None",
/* pixels */
"))))))))sdddsa))))))))",
")))))ikNFLILLFNki)))))",
"))))gDYWW!~~~EWYDf))))",
")))gHQ~~^^~~~^!^QHg)))",
"))gH!~^^~~~~~^^^~QHg))",
")iF!~/PFK~~~~JFP/^QDi)",
")kUII(IHLQDFQLHI(YPIg)",
")kHF~^///TkzR///^!FHf)",
"0dPRHHHHHCAZZHHHGHRKar",
"raKj-=99=uYPu=88--zJat",
"uut= 1bc@,IL:#cv# =uur",
"uf,X.4mn2,IL:3nm4 X<gu",
"uz: .+76$aQWi%77%. ,zu",
"0jd=XX*qaDIIAaw$..=dh)",
"0jJZw0zKQDrrD!Kk0eZJj)",
")rdHTTQ^Ra==aR^!YYHdu)",
"))0sKRETC:&&:ZYEEKa0))",
")))ufjzNSVVNVSzljdu)))",
")))kd,;dI!!!!Ip;,dj)))",
")))Az>oiMllMllro,NZ)))",
")))FD<.yhMMBMh0o0FF)))",
")))JJ0XO&tyyyr>o0KH)))",
")))KT0o:&.XXo&&owRH)))",
")))KQaOspwwrrysOs!J)))",
")))G~IsjhllllhhsI^G)))",
")))jI~RUFAASAGUE^Lh)))",
"))))jI~^~!~!!~~~Lh))))",
")))))jIWWWWWWWQLj)))))",
"))))))sggggggggs))))))",
"))))))))))))))))))))))"
};
