/* XPM */
static char *result[] = {
/* columns rows colors chars-per-pixel */
"22 30 74 1 ",
"  c #13120F",
". c #151511",
"X c #1A1611",
"o c #1B1A14",
"O c #25160E",
"+ c #2D180F",
"@ c #3C1B0F",
"# c #23231C",
"$ c #2C2C23",
"% c #322F25",
"& c #392F24",
"* c #313127",
"= c #35362B",
"- c #38372C",
"; c #37382D",
": c #3A3A2E",
"> c #3F3F32",
", c #411C0F",
"< c #4B1F10",
"1 c #502010",
"2 c #5D2310",
"3 c #64240F",
"4 c #68250F",
"5 c #602410",
"6 c #434335",
"7 c #474738",
"8 c #4D4D3D",
"9 c #50503E",
"0 c #535241",
"q c #5B5A47",
"w c #5E5E49",
"e c #63634D",
"r c #69694E",
"t c #666651",
"y c #686752",
"u c #6B6B53",
"i c #747355",
"p c #75755B",
"a c #78775D",
"s c #7A795D",
"d c #7C7B61",
"f c #962E0F",
"g c #9B2F0F",
"h c #A3310E",
"j c #D53C0F",
"k c #DD3D0F",
"l c #838266",
"z c #868669",
"x c #8C8B6D",
"c c #8F8E70",
"v c #908F71",
"b c #949374",
"n c #989777",
"m c #999877",
"M c #9B9B79",
"N c #A2A17F",
"B c #A4A481",
"V c #A8A782",
"C c #ABAA85",
"Z c #AFAE89",
"A c #B0AF89",
"S c #B4B38C",
"D c #B8B78F",
"F c #B8B790",
"G c #BCBB93",
"H c #C0BF96",
"J c #C2C197",
"K c #C5C49A",
"L c #C8C79B",
"P c #CCCB9E",
"I c #CFCEA1",
"U c #D0CFA2",
"Y c #D4D3A5",
"T c None",
/* pixels */
"TTTTTTTTetttteTTTTTTTT",
"TTTTT0pzmZSZZmlp0TTTTT",
"TTTTunDJJLILPHJFnuTTTT",
"TTTyMLPPIIPPPPIILBuTTT",
"TTyBLPPIIIPIPIIPPLBuTT",
"T0nLPYSMVLPIPCMZIIKn0T",
"TpFSSYDNZKmmKZBSYFZDpT",
"TpBMLPIYIGdpFYIIIPmBuT",
"6eCGBBBNBcvvcBBBBBGCe8",
"0wCp$$&&$0SS0$&&$$aZw8",
"800$.+hgO=ZA;Ofh+.#000",
"0y>. <kj@=ZA;@jk1.X:u0",
"0d= .X35XqHKqo25X..-d0",
"6pt$XX#6wbSAnq7#.X$ea7",
">pCc76aCLm88bLCd67xCpT",
"T8tBDFKPHt$$qGIKFDCy8T",
"TT6wCGHFx-##%xDJJCe6TT",
"TTT0tpdlbzzlzbdspe9TTT",
"TTTdy;*tALKKKSw*:ysTTT",
"TTTnc>X0ssssss9o:xmTTT",
"TTTNV6o0erssir6o>NBTTT",
"TTTBF7oweerrre7o6DCTTT",
"TTTBLd;rsissise#uLCTTT",
"TTTbPLluvriirbieZPnTTT",
"TTTwzSJKLNcxBLJJZzeTTT",
"TTTTTwzZLLPILPAzwTTTTT",
"TTTTTTTepdCCdpeTTTTTTT",
"TTTTTTTTTTTTTTTTTTTTTT",
"TTTTTTTTTTTTTTTTTTTTTT",
"TTTTTTTTTTTTTTTTTTTTTT"
};
