/* XPM */
static char *result[] = {
/* columns rows colors chars-per-pixel */
"45 45 9 1 ",
"  c #120D08",
". c #20150C",
"X c #2F2217",
"o c #46301E",
"O c #734F31",
"+ c #FF1831",
"@ c #CBBFBF",
"# c #E9E9E9",
"$ c None",
/* pixels */
"$$$$$$$$$$$$$$$$$$$$$$$$$$$$$$$$$$$$$$$$$$$$$",
"$$$$$$$$$$$$$$$$$$$$$$$$$$$$$$$$$$$$$$$$$$$$$",
"$$$$$$$$$$$$$$$$$$$$$$$$$$$$$$$$$$$$$$$$$$$$$",
"$$$$$$$$$$$$$$$$$$$$$$$$$$$$$$$$$$$$$$$$$$$$$",
"$$$$$$$$$$$$$$$$$$$$$$$$$$$$$$$$$$$$$$$$$$$$$",
"$$$$$$$$$$$$$$$$$$$$$$$$$$$$$$$$$$$$$$$$$$$$$",
"$$$$$$$$$$$$$$$$$$$$$$$$$$$$$$$$$$$$$$$$$$$$$",
"$$$$$$$$$$$$$$$$$$$$$$$$$$$$$$$$$$$$$$$$$$$$$",
"$$$$$$$$$$$$$$$$$$$$$$$$$$$$$$$$$$$$$$$$$$$$$",
"$$$$$$$$$$$$$$$$$$$$$$$$$$$$$$$$$$$$$$$$$$$$$",
"$$$$$$$$$$$$$$$$$$$$$$$$$$$$$$$$$$$$$$$$$$$$$",
"$$$$$$$$$$$$$$$$$$$$$$OOOOO$$$$$$$$$$$$$$$$$$",
"$$$$$$$$$$$$$$$$$$$$OOOOOOOOO$$$$$$$$$$$$$$$$",
"$$$$$$$$$$$$$$$$$$OOOOOOO###Oo$$$$$$$$$$$$$$$",
"$$$$$$$$$$$$$$$$OOOOOooo#####$O$$$$$$$$$$$$$$",
"$$$$$$$$$$$$$$OOOOOOooo####+##oO$$$$$$$$$$$$$",
"$$$$$$$$$$$$$Oooooooooo@###+##ooO$$$$$$$$$$$$",
"$$$$$$$$$$$$Ooooooooooo@@##+##oooO$$$$$$$$$$$",
"$$$$$$$$$$$oooo$ooooOOOo@@###ooooo$$$$$$$$$$$",
"$$$$$$$$$$$ooO$$$oooooOOO@@@o$$ooo$$$$$$$$$$$",
"$$$$$$$$$$oooO$$$oooo#.oOOoo.o$$ooO$$$$$$$$$$",
"$$$$$$$$$$ooOO$$$ooo...#.#.#.$$$ooO$$$$$$$$$$",
"$$$$$$$$$$ooOO$$$$oo........$$$$ooo$$$$$$$$$$",
"$$$$$$$$$$oooOXX$$oo........$$$Oooo$$$$$$$$$$",
"$$$$$$$$$$oooOO $$Oo#.#.#.#$$$$OoOo$$$$$$$$$$",
"$$$$$$$$$$$oooO$$$OoOOOOOOOX$$ OOoo$$$$$$$$$$",
"$$$$$$$$$$$oooX $OOoooooooo X$ooOoo$$$$$$$$$$",
"$$$$$$$$$$$$o $$$O ooooo$$Xo $$ o $$$$$$$$$$$",
"$$$$$$$$$$$$ o $$XX oooo$$ X$$$$$$$$$$$$$$$$$",
"$$$$$$$$$$$$$$$$$$$$$ooo$$$$$$$$$$$$$$$$$$$$$",
"$$$$$$$$$$$$$$$$$$$$$ooO$$$$$$$$$$$$$$$$$$$$$",
"$$$$$$$$$$$$$$$$$$$$$$oo$$$$$$$$$$$$$$$$$$$$$",
"$$$$$$$$$$$$$$$$$$$$$$$oO$$$$$$$$$$$$$$$$$$$$",
"$$$$$$$$$$$$$$$$$$$$$$$oo$$$$$$$$$$$$$$$$$$$$",
"$$$$$$$$$$$$$$$$$$$$$$$$$$$$$$$$$$$$$$$$$$$$$",
"$$$$$$$$$$$$$$$$$$$$$$$$$$$$$$$$$$$$$$$$$$$$$",
"$$$$$$$$$$$$$$$$$$$$$$$$$$$$$$$$$$$$$$$$$$$$$",
"$$$$$$$$$$$$$$$$$$$$$$$$$$$$$$$$$$$$$$$$$$$$$",
"$$$$$$$$$$$$$$$$$$$$$$$$$$$$$$$$$$$$$$$$$$$$$",
"$$$$$$$$$$$$$$$$$$$$$$$$$$$$$$$$$$$$$$$$$$$$$",
"$$$$$$$$$$$$$$$$$$$$$$$$$$$$$$$$$$$$$$$$$$$$$",
"$$$$$$$$$$$$$$$$$$$$$$$$$$$$$$$$$$$$$$$$$$$$$",
"$$$$$$$$$$$$$$$$$$$$$$$$$$$$$$$$$$$$$$$$$$$$$",
"$$$$$$$$$$$$$$$$$$$$$$$$$$$$$$$$$$$$$$$$$$$$$",
"$$$$$$$$$$$$$$$$$$$$$$$$$$$$$$$$$$$$$$$$$$$$$"
};
