/* XPM */
static char *result[] = {
/* columns rows colors chars-per-pixel */
"45 45 9 1 ",
"  c #120D08",
". c #20150C",
"X c #2F2217",
"o c #46301E",
"O c #734F31",
"+ c #FF1831",
"@ c #CBBFBF",
"# c #E9E9E9",
"$ c None",
/* pixels */
"$$$$$$$$$$$$$$$$$$$$$$$$$$$$$$$$$$$$$$$$$$$$$",
"$$$$$$$$$$$$$$$$$$$$$$$$$$$$$$$$$$$$$$$$$$$$$",
"$$$$$$$$$$$$$$$$$$$$$$$$$$$$$$$$$$$$$$$$$$$$$",
"$$$$$$$$$$$$$$$$$$$$$$$$$$$$$$$$$$$$$$$$$$$$$",
"$$$$$$$$$$$$$$$$$$$$$$$$$$$$$$$$$$$$$$$$$$$$$",
"$$$$$$$$$$$$$$$$$$$$$$$$$$$$$$$$$$$$$$$$$$$$$",
"$$$$$$$$$$$$$$$$$$$$$$$$$$$$$$$$$$$$$$$$$$$$$",
"$$$$$$$$$$$$$$$$$$$$$$$$$$$$$$$$$$$$$$$$$$$$$",
"$$$$$$$$$$$$$$$$$$$$$$$$$$$$$$$$$$$$$$$$$$$$$",
"$$$$$$$$$$oooo$$$$$$$$$$$$$$$OOooo$$$$$$$$$$$",
"$$$$$$$$ooooooOO$$$$$$$$$$$$OOooooo$$$$$$$$$$",
"$$$$$$$ooooooooOOO$$$$$$$$$OOooooooo$$$$$$$$$",
"$$$$$$ooooooooooOOOO$$$$$OOooooooooo$$$$$$$$$",
"$$$$$$ooooooooooOOOOOOOOOOOOoooooooo$$$$$$$$$",
"$$$$$ooooooooooooOOOOOOOoO###Ooooooo$$$$$$$$$",
"$$$$$ooooooooooooOOOOOOoOO###Oooooooo$$$$$$$$",
"$$$$ooooooooooooooOOOOoOO#####$oooooo$$$$$$$$",
"$$$$oooooooooooooooOOOoo####+##oooooo$$$$$$$$",
"$$$$ooooooooooooooooooOo####+##oooooo$$$$$$$$",
"$$$$$ooooooooooooooooooo@###+##oooooo$$$$$$$$",
"$$$$$ooooooooooooooooooo@@##+##oooooo$$$$$$$$",
"$$$$$$ooooooooo$$$oooOOOo@@###ooooooo$$$$$$$$",
"$$$$$$$ooooooo$$$ooooOOOo@@@@@ooooooo$$$$$$$$",
"$$$$$$$$oooooooOoOoooooOOO@@@oooooooo$$$$$$$$",
"$$$$$$$$oooooooooOoooo#.oOOoo.$oooooo$$$$$$$$",
"$$$$$$$$$ooooo$$Ooooo...#.#.#.$$$ooo$$$$$$$$$",
"$$$$$$$$$$ooo$$$Ooooo...#.#.#.OO$ $$$$$$$$$$$",
"$$$$$$$$$$$oo$ Xooooo........oooOXX$$$$$$$$$$",
"$$$$$$$$$$$$o O oX$oo........o$oo $$$$$$$$$$$",
"$$$$$$$$$$$$$$ooo $$o........o$$ $$$$$$$$$$$$",
"$$$$$$$$$$$$$$$oo$$$o........#$$$$$$$$$$$$$$$",
"$$$$$$$$$$$$$$$$$$$$$o.....#O#$$$$$$$$$$$$$$$",
"$$$$$$$$$$$$$$$$$$$$$$O#O#O#$$$$$$$$$$$$$$$$$",
"$$$$$$$$$$$$$$$$$$$$$$$$$$$$$$$$$$$$$$$$$$$$$",
"$$$$$$$$$$$$$$$$$$$$$$$$$$$$$$$$$$$$$$$$$$$$$",
"$$$$$$$$$$$$$$$$$$$$$$$$$$$$$$$$$$$$$$$$$$$$$",
"$$$$$$$$$$$$$$$$$$$$$$$$$$$$$$$$$$$$$$$$$$$$$",
"$$$$$$$$$$$$$$$$$$$$$$$$$$$$$$$$$$$$$$$$$$$$$",
"$$$$$$$$$$$$$$$$$$$$$$$$$$$$$$$$$$$$$$$$$$$$$",
"$$$$$$$$$$$$$$$$$$$$$$$$$$$$$$$$$$$$$$$$$$$$$",
"$$$$$$$$$$$$$$$$$$$$$$$$$$$$$$$$$$$$$$$$$$$$$",
"$$$$$$$$$$$$$$$$$$$$$$$$$$$$$$$$$$$$$$$$$$$$$",
"$$$$$$$$$$$$$$$$$$$$$$$$$$$$$$$$$$$$$$$$$$$$$",
"$$$$$$$$$$$$$$$$$$$$$$$$$$$$$$$$$$$$$$$$$$$$$",
"$$$$$$$$$$$$$$$$$$$$$$$$$$$$$$$$$$$$$$$$$$$$$"
};
