/* XPM */
static char *result[] = {
/* columns rows colors chars-per-pixel */
"45 45 9 1 ",
"  c #120D08",
". c #20150C",
"X c #2F2217",
"o c #46301E",
"O c #734F31",
"+ c #FF1831",
"@ c #CBBFBF",
"# c #E9E9E9",
"$ c None",
/* pixels */
"$$$$$$$$$$$$$$$$$$$$$$$$$$$$$$$$$$$$$$$$$$$$$",
"$$$$$$$$$$$$$$$$$$$$$$$$$$$$$$$$$$$$$$$$$$$$$",
"$$$$$$$$$$$$$$$$$$$$$$$$$$$$$$$$$$$$$$$$$$$$$",
"$$$$$$$$$$$$$$$$$$$$$$$$$$$$$$$$$$$$$$$$$$$$$",
"$$$$$$$$$$$$$$$$$$$$$$$$$$$$$$$$$$$$$$$$$$$$$",
"$$$$$$$XOO$$$$$$$$$$$$$$$$$$$$$$$$$$$$$$$$$$$",
"$$$$$$$  O$$$$$$$$$$$$$$$$$$$$$$$O $$$$$$$$$$",
"$$$$Xooo oO$$$$$$$$$$$$$$$$$$$$$oOOo $$$$$$$$",
"$$$$  ooooOO$$$$$$$$$$$$$$$$$$$OOOOOo$$$$$$$$",
"$$$$ooooooOO$$$$$$$$$$$$$$$$$$OOOOoooo$$$$$$$",
"$$$$$oooooOOO$$$$$$$$$$$$$$$$$OOOooo X$$$$$$$",
"$$$$oooooooOO$$$$$$$$$$$$$$$$OOOooo$  $$$$$$$",
"$$$X ooooooOOO$$$$$$$$$$$$$$OOOooo$$$ $$$$$$$",
"$$$ o$ooooooOOO$$$$$$$$$$$$$OOoooo $$$$$$$$$$",
"$$$$$$$$oooooOOO$$$$$$$$$$$OOooooo X$$$$$$$$$",
"$$$$$$$$$$ooooOOO$$$$$$$$$OOooooo$ X$$$$$$$$$",
"$$$$$$$$$$$ooooOOOO$$$$$OOooooo$$$$$$$$$$$$$$",
"$$$$$$$$$$$$oooOOOOOOOOOOOOoo$$$$$$$$$$$$$$$$",
"$$$$$$$$$$$$$oooOOOOOOOoO###O$$$$$$$$$$$$$$$$",
"$$$$$$$$$$$$$$ooOOOOOOoOO###O$$$$$$$$$$$$$$$$",
"$$$$$$$$$$$$$$oooOOOOoOO#####$$$$$$$$$$$$$$$$",
"$$$$$$$$$$$$$$$oooOOOoo####+##$$$$$$$$$$$$$$$",
"$$$$$$$$$$$$$$$ooooooOo####+##$$$$$$$$$$$$$$$",
"$$$$$$$$$$$$$$$$ooooooo@###+##$$$$$$$$$$$$$$$",
"$$$$$$$$$$$$$$$$ooooooo@@##+##$$$$$$$$$$$$$$$",
"$$$$$$$$$$$$$$$$$oooOOOo@@###o$$$$$$$$$$$$$$$",
"$$$$$$$$$$$OO$$$ooooOOOo@@@@@o$$$$$$$$$$$$$$$",
"$$$$$$$$$$$$ooOoOoooooOOO@@@oo$$$$$$$$$$$$$$$",
"$$$$$$$$$$$$$oooOoooo#.oOOoo.$$$$$$$$$$$$$$$$",
"$$$$$$$$$$$$$$$Ooooo...#.#.#.$$$$$$$$$$$$$$$$",
"$$$$$$$$$$$$$$$Ooooo...#.#.#.OO$ $$$$$$$$$$$$",
"$$$$$$$$$$$$$ Xooooo........oooOXX$$$$$$$$$$$",
"$$$$$$$$$$$$ O oX$oo........o$oo $$$$$$$$$$$$",
"$$$$$$$$$$$$$ooo $$o........o$$ $$$$$$$$$$$$$",
"$$$$$$$$$$$$$$oo$$$o........#$$$$$$$$$$$$$$$$",
"$$$$$$$$$$$$$$$$$$$$o.....#O#$$$$$$$$$$$$$$$$",
"$$$$$$$$$$$$$$$$$$$$$O#O#O#$$$$$$$$$$$$$$$$$$",
"$$$$$$$$$$$$$$$$$$$$$$$$$$$$$$$$$$$$$$$$$$$$$",
"$$$$$$$$$$$$$$$$$$$$$$$$$$$$$$$$$$$$$$$$$$$$$",
"$$$$$$$$$$$$$$$$$$$$$$$$$$$$$$$$$$$$$$$$$$$$$",
"$$$$$$$$$$$$$$$$$$$$$$$$$$$$$$$$$$$$$$$$$$$$$",
"$$$$$$$$$$$$$$$$$$$$$$$$$$$$$$$$$$$$$$$$$$$$$",
"$$$$$$$$$$$$$$$$$$$$$$$$$$$$$$$$$$$$$$$$$$$$$",
"$$$$$$$$$$$$$$$$$$$$$$$$$$$$$$$$$$$$$$$$$$$$$",
"$$$$$$$$$$$$$$$$$$$$$$$$$$$$$$$$$$$$$$$$$$$$$"
};
