/* XPM */
static char *result[] = {
/* columns rows colors chars-per-pixel */
"45 45 9 1 ",
"  c #120D08",
". c #20150C",
"X c #2F2217",
"o c #46301E",
"O c #734F31",
"+ c #FF1831",
"@ c #CBBFBF",
"# c #E9E9E9",
"$ c None",
/* pixels */
"$$$$$$$$$$$$$$$$$$$$$$$$$$$$$$$$$$$$$$$$$$$$$",
"$$$$$$$$$$$$$$$$$$$$$$$$$$$$$$$$$$$$$$$$$$$$$",
"$$$$$$$$$$$$$$$$$$$$$$$$$$$$$$$$$$$$$$$$$$$$$",
"$$$$$$$$$$$$$$$$$$$$$$$$$$$$$$$$$$$$$$$$$$$$$",
"$$$$$$$$$$$$$$$$$$$$$$$$$$$$$$$$$$$$$$$$$$$$$",
"$$$$$$$$$$$$$$$$$$$$$$$$$$$$$$$$$$$$$$$$$$$$$",
"$$$$$$$$$$$$$$$$$$$$$$$$$$$$$$$$$$$$$$$$$$$$$",
"$$$$$$$$$$XOO$$$$$$$$$$$$$$$$$$$$$$$$$$$$$$$$",
"$$$$$$$$$$  O$$$$$$$$$$$$$$$$$$$$$$$O $$$$$$$",
"$$$$$$$Xooo oO$$$$$$$$$$$$$$$$$$$$$oOOo $$$$$",
"$$$$$$$  ooooOO$$$$$$$$$$$$$$$$$$$OOOOOo$$$$$",
"$$$$$$$ooooooOO$$$$$$$$$$$$$$$$$$OOOOoooo$$$$",
"$$$$$$$$oooooOOO$$$$$$$$$$$$$$$$OOOOooo X$$$$",
"$$$$$$$oooooooOOO$$$$$$$$$$$$$$OOOOooo$  $$$$",
"$$$$$$X oooooooOOO$$$$$$$$$$$$$OOoooo$$$ $$$$",
"$$$$$$ o$oooooooOOO$$$$$$$$$$$OOooooo $$$$$$$",
"$$$$$$$$$$$ooooooOOO$$$$$$$$$OOoooooo X$$$$$$",
"$$$$$$$$$$$$$$ooooOOOO$$$$$OOooooo$o$ X$$$$$$",
"$$$$$$$$$$$$$$$oooOOOOOOOOOOOOoo$$$$$$$$$$$$$",
"$$$$$$$$$$$$$$$$oooOOOOOOOoO###O$$$$$$$$$$$$$",
"$$$$$$$$$$$$$$$$$ooOOOOOOoOO###O$$$$$$$$$$$$$",
"$$$$$$$$$$$$$$$$$oooOOOOoOO#####$$$$$$$$$$$$$",
"$$$$$$$$$$$$$$$$$$oooOOOoo####+##$$$$$$$$$$$$",
"$$$$$$$$$$$$$$$$$$ooooooOo####+##$$$$$$$$$$$$",
"$$$$$$$$$$$$$$$$$$$ooooooo@###+##$$$$$$$$$$$$",
"$$$$$$$$$$$$$$$$$$$ooooooo@@##+##$$$$$$$$$$$$",
"$$$$$$$$$$$$$$$$$$$$oooOOOo@@###o$$$$$$$$$$$$",
"$$$$$$$$$$$$$$$$$$$$oooOOOo@@@@@o$$$$$$$$$$$$",
"$$$$$$$$$$$$$$$$$$$ooooooOOO@@@oo$$$$$$$$$$$$",
"$$$$$$$$$$$$$$$$$OoOoooo#.oOOoo.$$$$$$$$$$$$$",
"$$$$$$$$$$$$$$OOoooOooo...#.#.#.$$$$$$$$$$$$$",
"$$$$$$$$$$$$$$$$$$Ooo$o...#.#.#.O$$$$$$$$$$$$",
"$$$$$$$$$$$$$$$$$$Ooo$o........ooO$ $$$$$$$$$",
"$$$$$$$$$$$$$$$$ Xooo$o........$ooOXX$$$$$$$$",
"$$$$$$$$$$$$$$$ O oX$$o........$$oo $$$$$$$$$",
"$$$$$$$$$$$$$$$$ooo $$$#.#.#.#$$$$ $$$$$$$$$$",
"$$$$$$$$$$$$$$$$$oo$$$$oOoOoO$$$$$$$$$$$$$$$$",
"$$$$$$$$$$$$$$$$$$$$$$$$$$$$$$$$$$$$$$$$$$$$$",
"$$$$$$$$$$$$$$$$$$$$$$$$$$$$$$$$$$$$$$$$$$$$$",
"$$$$$$$$$$$$$$$$$$$$$$$$$$$$$$$$$$$$$$$$$$$$$",
"$$$$$$$$$$$$$$$$$$$$$$$$$$$$$$$$$$$$$$$$$$$$$",
"$$$$$$$$$$$$$$$$$$$$$$$$$$$$$$$$$$$$$$$$$$$$$",
"$$$$$$$$$$$$$$$$$$$$$$$$$$$$$$$$$$$$$$$$$$$$$",
"$$$$$$$$$$$$$$$$$$$$$$$$$$$$$$$$$$$$$$$$$$$$$",
"$$$$$$$$$$$$$$$$$$$$$$$$$$$$$$$$$$$$$$$$$$$$$"
};
