/* XPM */
static char *result[] = {
/* columns rows colors chars-per-pixel */
"44 44 21 1 ",
"  c black",
". c #1F1209",
"X c #171A1A",
"o c #2B2723",
"O c #363534",
"+ c #424342",
"@ c #4E4E4E",
"# c gray34",
"$ c #5F6060",
"% c gray40",
"& c #737776",
"* c #848787",
"= c #8D9A98",
"- c #9FA6A5",
"; c #ABB7B5",
": c #BEC2C1",
"> c #B7D0CD",
", c #CED8D6",
"< c #F2F4F4",
"1 c white",
"2 c None",
/* pixels */
"22222222222222222222222222222222222222222222",
"22222222222222222222222222222222222222222222",
"22222222222222222222222222222222222222222222",
"22222222222222222222222222222222222222222222",
"22222222222222222222222222222222222222222222",
"22222222222222222222222222222222222222222222",
"22222222222222222222222222222222222222222222",
"22222222222222222222222222222222222222222222",
"22222222222222222222222222222222222222222222",
"22222222222222222222222222222222222222222222",
"22222222222222222222222222222222222222222222",
"22222222222222222222222222222222222222222222",
"22222222222222222222222222222222222222222222",
"22222222222222222222222222222222222222222222",
"22222222222222222222222222222222222222222222",
"22222222222222222222222222222222222222222222",
"22222222222222222222222222222222222222222222",
"22222222222222222222222222222222222222222222",
"22222222222222222222222222222222222222222222",
"22222222222222222222222222222222222222222222",
"22222222222222222222222222222222222222222222",
"22222222222222222222222222222222222222222222",
"22222222222222222222222222222222222222222222",
"22222222222222222222222222222222222222222222",
"22222222222222222222222222222222222222222222",
"22222222222222222oXXX  .XXoo2222222222222222",
"222222222X                         222222222",
"222222                                222222",
"222222  +                           o  X2222",
"2222X #>>X                         ->>   222",
"222   >;>,,,;=+              X$*>>>>;=>  o22",
"222  =;=;,,,,,,>;=**&#@%&*=-;>>>>>>;==>*  22",
"22   >=-<:;;:>>>>>>>>>>>>>>;;-=========;   2",
"22  ==;111:;;;;=========================@  2",
"2   ;=,11,;;;;-=========================%  X",
"X  O==>,<;;;-;===========================   ",
"   @==;;;;-;;;===========================   ",
"    *-;;;;;;;;==========================@   ",
"      *;;;-;;-=======================*X     ",
"22       XO%===================*$OX        2",
"222           o++#$%&**&%%#@+O           222",
"22222222o                          X22222222",
"22222222222222222222222222222222222222222222",
"22222222222222222222222222222222222222222222"
};
