/* XPM */
static char *result[] = {
/* columns rows colors chars-per-pixel */
"44 40 102 2 ",
"   c #010101",
".  c #070809",
"X  c #0B0B0B",
"o  c #100E0D",
"O  c #0F1111",
"+  c #121414",
"@  c #181613",
"#  c #1B1916",
"$  c #171A1A",
"%  c #1B1D1D",
"&  c #1D201F",
"*  c #1E2121",
"=  c #222322",
"-  c #262B2A",
";  c #292B2B",
":  c #2F3332",
">  c #313534",
",  c #393835",
"<  c #353838",
"1  c #3A3D3D",
"2  c #3F403E",
"3  c #3E3F40",
"4  c #434444",
"5  c #4C4D4D",
"6  c #525453",
"7  c #565A58",
"8  c #595D5C",
"9  c #5D605F",
"0  c #5D6262",
"q  c #5F6867",
"w  c #646666",
"e  c #666B6A",
"r  c #6B6D6D",
"t  c #6C706F",
"y  c #6D7473",
"u  c #747776",
"i  c #737877",
"p  c #727F7E",
"a  c #7A7E7D",
"s  c #7A817F",
"d  c #768382",
"f  c #7D8281",
"g  c #7C8986",
"h  c #7B8A89",
"j  c #7F908E",
"k  c #818483",
"l  c #868D8C",
"z  c #898F8F",
"x  c #839391",
"c  c #8A9593",
"v  c #8C9997",
"b  c #8D9A98",
"n  c #939C9B",
"m  c #96A19F",
"M  c #9AA19F",
"N  c #96A5A3",
"B  c #9BA6A4",
"V  c #99A9A7",
"C  c #9AABA9",
"Z  c #9EB0AE",
"A  c #A1A6A5",
"S  c #A1A8A7",
"D  c #A3ADAB",
"F  c #A8AFAE",
"G  c #A7B1AF",
"H  c #A5B4B2",
"J  c #AAB6B4",
"K  c #ACB8B6",
"L  c #ACBDBB",
"P  c #B6B6B5",
"I  c #B5B8B7",
"U  c #B4B9B8",
"Y  c #ADC0BE",
"T  c #B4C1BF",
"R  c #AFC4C2",
"E  c #B2C6C4",
"W  c #B8C6C4",
"Q  c #B4CAC7",
"!  c #B6CCC9",
"~  c #BBD2CF",
"^  c #BCD5D2",
"/  c #C1C2C2",
"(  c #C5CAC9",
")  c #CDCFCF",
"_  c #C2D0CE",
"`  c #C2D6D4",
"'  c #CBD6D4",
"]  c #C3D8D5",
"[  c #CFD8D6",
"{  c #CCDBD9",
"}  c #D3DDDB",
"|  c #D7E0DE",
" . c #D9E0DF",
".. c #DCE2E1",
"X. c #E2E6E5",
"o. c #E5EAE9",
"O. c #EBEEED",
"+. c #EFF1F1",
"@. c #F3F5F5",
"#. c #F5F9F8",
"$. c #FBFCFD",
"%. c None",
/* pixels */
"%.%.%.%.%.%.%.%.%.%.%.%.%.%.%.%.%.%.%.%.%.%.%.%.%.%.%.%.%.%.%.%.%.%.%.%.%.%.%.%.%.%.%.%.",
"%.%.%.%.%.%.%.%.%.%.%.%.%.%.%.%.%.%.%.%.%.%.%.%.%.%.%.%.%.%.%.%.%.%.%.%.%.%.%.%.%.%.%.%.",
"%.%.%.%.%.%.%.%.%.%.%.%.%.%.%.%.%.%.%.%.%.%.%.%.%.%.%.%.%.%.%.%.%.%.%.%.%.%.%.%.%.%.%.%.",
"%.%.%.%.%.%.%.%.%.%.%.%.%.%.%.%.%.%.%.%.%.%.%.%.%.%.%.%.%.%.%.%.%.%.%.%.%.%.%.%.%.%.%.%.",
"%.%.%.%.%.%.%.%.%.%.%.%.%.%.%.%.%.%.%.%.%.%.%.%.%.%.%.%.%.%.%.%.%.%.%.%.%.%.%.%.%.%.%.%.",
"%.%.%.%.%.%.%.%.%.%.%.%.%.%.%.%.%.%.%.%.%.%.%.%.%.%.%.%.%.%.%.%.%.%.%.%.%.%.%.%.%.%.%.%.",
"%.%.%.%.%.%.%.%.%.%.%.%.%.%.%.%.%.%.%.%.%.%.%.%.%.%.%.%.%.%.%.%.%.%.%.%.%.%.%.%.%.%.%.%.",
"%.%.%.%.%.%.%.%.%.%.%.%.%.%.%.%.%.%.%.%.%.%.%.%.%.%.%.%.%.%.%.%.%.%.%.%.%.%.%.%.%.%.%.%.",
"%.%.%.%.%.%.%.%.%.%.%.%.%.%.%.%.%.%.%.%.%.%.%.%.%.%.%.%.%.%.%.%.%.%.%.%.%.%.%.%.%.%.%.%.",
"%.%.%.%.%.%.%.%.%.%.%.%.%.%.%.%.%.%.%.%.% $ $ %.%.%.%.%.%.%.%.%.%.%.%.%.%.%.%.%.%.%.%.%.",
"%.%.%.%.%.%.%.%.%.%.%.%.%.%.%.%.%.%.%.= % $ $ % %.%.%.%.%.%.%.%.%.%.%.%.%.%.%.%.%.%.%.%.",
"%.%.%.%.%.%.%.%.%.%.%.%.%.%.%.%.%.%.%.= $ $ $ $ % %.%.%.%.%.%.%.%.%.%.%.%.%.%.%.%.%.%.%.",
"%.%.%.%.%.%.%.%.%.%.%.%.%.%.%.%.%.%.* $ $ $ $ $ % %.%.%.%.%.%.%.%.%.%.%.%.%.%.%.%.%.%.%.",
"%.%.%.%.%.%.%.%.%.%.%.%.%.%.%.%.%.= $ $ $ $ % $ $ $ %.%.%.%.%.%.%.%.%.%.%.%.%.%.%.%.%.%.",
"%.%.%.%.%.%.%.%.%.%.%.%.%.%.%.%.%.% $ + > u 8 * $ $ %.%.%.%.%.%.%.%.%.%.%.%.%.%.%.%.%.%.",
"%.%.%.%.%.%.%.%.%.%.%.%.%.%.%.%.% $ $ < A @.' 6 + $ * %.%.%.%.%.%.%.%.%.%.%.%.%.%.%.%.%.",
"%.%.%.%.%.%.%.%.%.%.%.%.%.%.%.%.$ $ O u $.@.$.k o $ $ %.%.%.%.%.%.%.%.%.%.%.%.%.%.%.%.%.",
"%.%.%.%.%.%.%.%.%.%.%.%.%.%.%.%.$ $ - n #.@.#.P 3 + $ * %.%.%.%.%.%.%.%.%.%.%.%.%.%.%.%.",
"%.%.%.%.%.%.%.%.%.%.%.%.%.%.%.* $ + 9 ..@.@.@.$.k $ % $ & %.%.%.%.%.%.%.%.%.%.%.%.%.%.%.",
"%.%.%.%.%.%.%.%.%.%.%.%.%.%.% $ $ + a $.@.@.@.#.I 1 + $ $ %.%.%.%.%.%.%.%.%.%.%.%.%.%.%.",
"%.%.%.%.%.%.%.%.%.%.%.%.%.%.$ $ % 6 / #.@.+.+.@.O.C 1 $ $ $ %.%.%.%.%.%.%.%.%.%.%.%.%.%.",
"%.%.%.%.%.%.%.%.%.%.%.%.%.; $ $ 3 P $.@.+.X.X.+.@.#.e O % $ %.%.%.%.%.%.%.%.%.%.%.%.%.%.",
"%.%.%.%.%.%.%.%.%.%.    X % $ O 8 +.@.O. .[ }  .O.$.n : $ $ %       %.%.%.%.%.%.%.%.%.%.",
"%.%.%.%.%.%.%.  X X     O $ $ 1 J @.O.} [ [ [ [ } o...8 + $ $ +           %.%.%.%.%.%.%.",
"%.%.%.%.%.%..   o       % $ + 0 @.@.o.} { ] { } } } $.t + $ $ % .     ;     %.%.%.%.%.%.",
"%.%.%.%.$ . X g g 1     . $ $ > e w 0 e t e e q 8 9 w < $ $ X       $ c x 1 +   %.%.%.%.",
"%.%.%.$ X = x Q ~ U z x p 5 $           + % O             * 5 w d h b Q L B +     %.%.%.",
"%.%.%.  + c ! B Y ] } | ' U N l y q 0 5 4 4 3 4 6 8 0 y h b K R ^ ^ Q K M H 5     %.%.%.",
"%.%.X   $ E N D  ._ T U W ] ] ^ Q R R K H Z Z H L L J K E L C C V B N b b n C +     %.%.",
"%.+   X g N B O.$.o.J J J L J N V V V V V V V V V V N N N b b b v b b b b b N =     %.%.",
"%.    + G v S $.$.+.J J J J N b b b b b v v v b b b b b b b b b b b b b b b v 5     %.%.",
"%.    + b n F O.+.( K K K D b b b b b b b b b b b b b b b b b b b b b b b b b u X     %.",
"%.    + c B K U W J D K K D b b b b b b b b b b b b v b b b b b v b b b b b b k O     %.",
"%.    X l A K K K J H H D D c b b b b b b b b b b b b b b b b b b b b b b b v 5       $ ",
"%.      $ > e J J H S J F N n b b b b b b b v b b b b b b b b n b c v v f 6 % X       %.",
"%.%.        X $ @ = 6 f z b b c v v v b v b b b v v v v v v l a 7 : $ + X X       + %.%.",
"%.%.%.%.            X + + # , 4 6 8 w r i a k s t w 7 5 5 > @ X X               # %.%.%.",
"%.%.%.%.%.%.%.%.$ X             X X X X X X + X X X X . .             @ %.%.%.%.%.%.%.%.",
"%.%.%.%.%.%.%.%.%.%.%.%.%.%.%.%.%.%.%.%.%.%.%.%.%.%.%.%.%.%.%.%.%.%.%.%.%.%.%.%.%.%.%.%.",
"%.%.%.%.%.%.%.%.%.%.%.%.%.%.%.%.%.%.%.%.%.%.%.%.%.%.%.%.%.%.%.%.%.%.%.%.%.%.%.%.%.%.%.%."
};
