/* XPM */
static char *result[] = {
/* columns rows colors chars-per-pixel */
"43 43 104 2 ",
"   c #010101",
".  c #080707",
"X  c #070808",
"o  c #0B0B0B",
"O  c #131515",
"+  c #181917",
"@  c #161919",
"#  c #1A1C1C",
"$  c #1D201F",
"%  c #22211F",
"&  c #1E2121",
"*  c #222424",
"=  c #272827",
"-  c #292927",
";  c #272A2A",
":  c #2A2B2B",
">  c #2E3130",
",  c #333434",
"<  c #363838",
"1  c #3A3C3B",
"2  c #3F4342",
"3  c #424444",
"4  c #444847",
"5  c #474B4B",
"6  c #494B4A",
"7  c #4C5353",
"8  c #525554",
"9  c #555A59",
"0  c #5B5D5D",
"q  c #5D605F",
"w  c #576362",
"e  c #5C6463",
"r  c #606665",
"t  c #626867",
"y  c #646B6A",
"u  c #6B6C6B",
"i  c #66706E",
"p  c #667472",
"a  c #6D7674",
"s  c #727675",
"d  c #747877",
"f  c #757C7B",
"g  c #7A7E7D",
"h  c #78807F",
"j  c #7C8382",
"k  c #7F8886",
"l  c #7F8B89",
"z  c #838685",
"x  c #838B8A",
"c  c #87918F",
"v  c #869492",
"b  c #8B9493",
"n  c #8C9996",
"m  c #8D9A98",
"M  c #939D9C",
"N  c #9D9F9F",
"B  c #95A19F",
"V  c #96A3A1",
"C  c #9AA5A3",
"Z  c #9DA9A7",
"A  c #9DACAA",
"S  c #9FB1AE",
"D  c #A4A5A5",
"F  c #A3ADAC",
"G  c #A5B1AF",
"H  c #A3B5B3",
"J  c #AAB5B4",
"K  c #A6B9B6",
"L  c #ACB8B6",
"P  c #ADBBB9",
"I  c #B1B2B1",
"U  c #B2BCBB",
"Y  c #B9BEBD",
"T  c #B1C1BF",
"R  c #AFC3C0",
"E  c #B2C4C2",
"W  c #BDC5C4",
"Q  c #B5C9C6",
"!  c #BBCAC7",
"~  c #B7CDCA",
"^  c #B8CDCB",
"/  c #B7D0CD",
"(  c #BBD1CE",
")  c #BED3D0",
"_  c #BFDAD7",
"`  c #C0C5C4",
"'  c #C2C9C7",
"]  c #C5CBCA",
"[  c #CACECD",
"{  c #C2D1CE",
"}  c #C6D5D3",
"|  c #CCD5D3",
" . c #CED9D7",
".. c #CADBD9",
"X. c #D5DAD9",
"o. c #DADCDC",
"O. c #D4E0DE",
"+. c #DAE0DF",
"@. c #DDE3E2",
"#. c #E2E4E4",
"$. c #EAEDED",
"%. c #F2F4F4",
"&. c #FEFEFE",
"*. c None",
/* pixels */
"*.*.*.*.*.*.*.*.*.*.*.*.*.*.*.*.*.*.*.*.*.*.*.*.*.*.*.*.*.*.*.*.*.*.*.*.*.*.*.*.*.*.*.",
"*.*.*.*.*.*.*.*.*.*.*.*.*.*.*.*.*.*.*.*.*.*.*.*.*.*.*.*.*.*.*.*.*.*.*.*.*.*.*.*.*.*.*.",
"*.*.*.*.*.*.*.*.*.*.*.*.*.*.*.*.*.*.*.*.*.*.*.*.*.*.*.*.*.*.*.*.*.*.*.*.*.*.*.*.*.*.*.",
"*.*.*.*.*.*.*.*.*.*.*.*.*.*.*.*.*.*.*.*.*.*.*.*.*.*.*.*.*.*.*.*.*.*.*.*.*.*.*.*.*.*.*.",
"*.*.*.*.*.*.*.*.*.*.*.*.*.*.*.*.*.*.*.*.*.*.*.*.*.*.*.*.*.*.*.*.*.*.*.*.*.*.*.*.*.*.*.",
"*.*.*.*.*.*.*.*.*.*.*.*.*.*.*.*.*.*.*.# @ = *.*.*.*.*.*.*.*.*.*.*.*.*.*.*.*.*.*.*.*.*.",
"*.*.*.*.*.*.*.*.*.*.*.*.*.*.*.*.*.*.# @ # @ % *.*.*.*.*.*.*.*.*.*.*.*.*.*.*.*.*.*.*.*.",
"*.*.*.*.*.*.*.*.*.*.*.*.*.*.*.*.*.*.# @ @ @ # *.*.*.*.*.*.*.*.*.*.*.*.*.*.*.*.*.*.*.*.",
"*.*.*.*.*.*.*.*.*.*.*.*.*.*.*.*.*.# # : u & @ % *.*.*.*.*.*.*.*.*.*.*.*.*.*.*.*.*.*.*.",
"*.*.*.*.*.*.*.*.*.*.*.*.*.*.*.*.* # O s #.* @ @ *.*.*.*.*.*.*.*.*.*.*.*.*.*.*.*.*.*.*.",
"*.*.*.*.*.*.*.*.*.*.*.*.*.*.*.*.# @ y | $.u @ # * *.*.*.*.*.*.*.*.*.*.*.*.*.*.*.*.*.*.",
"*.*.*.*.*.*.*.*.*.*.*.*.*.*.*.# # O ] %.%.o.f # # *.*.*.*.*.*.*.*.*.*.*.*.*.*.*.*.*.*.",
"*.*.*.*.*.*.*.*.*.*.*.*.*.*.*.# @ 1 X.%.%.%.X.# # @ *.*.*.*.*.*.*.*.*.*.*.*.*.*.*.*.*.",
"*.*.*.*.*.*.*.*.*.*.*.*.*.*.# @ O N $.%.$.%.#.9 # @ *.*.*.*.*.*.*.*.*.*.*.*.*.*.*.*.*.",
"*.*.*.*.*.*.*.*.*.*.*.*.*.*.# @ 3 X.$.@.X.$.%.Y # @ # *.*.*.*.*.*.*.*.*.*.*.*.*.*.*.*.",
"*.*.*.*.*.*.*.*.*.*.*.*.*.& @ O b $.+. . .X.@.o.; @ # *.*.*.*.*.*.*.*.*.*.*.*.*.*.*.*.",
"*.*.*.*.*.*.*.*.*.*.*.*.# # O z #.@.X.) ( )  .X.D , # # *.*.*.*.*.*.*.*.*.*.*.*.*.*.*.",
"*.*.*.*.*.*.*.*.*.*.*.*.* O % J $.} } ( / (  . .X.C O # @ *.*.*.*.*.*.*.*.*.*.*.*.*.*.",
"*.*.*.*.*.*.*.*.*.*.*.# # O q [ ..} ] ^ ( } ( )  .A # @ $ *.*.*.*.*.*.*.*.*.*.*.*.*.*.",
"*.*.*.*.*.*.*.*.*.*.*.$ @ @ N ..( ^ W ^ W W ^ W ^ Y s @ # *.*.*.*.*.*.*.*.*.*.*.*.*.*.",
"*.*.*.*.*.*.*.*.*.*.*.# O u E ! ^ ^ ^ W W W ^ ^ ~ ` M @ @ & *.*.*.*.*.*.*.*.*.*.*.*.*.",
"*.*.*.*.*.*.*.*.*.*.* @ - M ] ! W W W ~ ~ ! W W W ~ J 8 # # *.*.*.*.*.*.*.*.*.*.*.*.*.",
"*.*.*.*.*.*.*.*.*.*.@ O d ` P L Y ~ W P J P ~ ~ Q L U F 8 O # *.*.*.*.*.*.*.*.*.*.*.*.",
"*.*.*.*.*.*.*.*.*.* @ = j L L J P L L Q P J P L U W E F p @ # *.*.*.*.*.*.*.*.*.*.*.*.",
"*.*.*.*.*.*.*.*.*.@ O 6 c F J J E P E P Q P E K J T A m j > @ $ *.*.*.*.*.*.*.*.*.*.*.",
"*.*.*.*.*.*.*.*.*.@ @ w M n m V C F H J G G C m m n m m m y O @ *.*.*.*.*.*.*.*.*.*.*.",
"*.*.*.*.*.*.*.*.* @ ; a M m m m m m m m m m m m m m m m B p @ # @ *.*.*.*.*.*.*.*.*.*.",
"*.*.*.*.*.*.*.* @ @ , e j n m m m m m m m m m m v c x h a 9 & @ @ $ *.*.*.*.*.*.*.*.*.",
"*.*.*.*.*.    @ O # @ O , e a g k x x x x j f y 9 7 3 = O @ @ @ O @ X   *.*.*.*.*.*.*.",
"*.*.*.*.# : 7 7 ; O O O @ O * , 3 4 6 4 5 < > O @ O @ @ @ O O O > 0 9 O . *.*.*.*.*.*.",
"*.*.o o & C ) Q l t t 5 * O O O O O O O @ O O @ O O @ @ ; 5 w w c / ~ a O   *.*.*.*.*.",
"*.*.  o a R F Q ..@.X.U z s r 7 3 1 , : = : < 3 7 8 e p l K _ _ ( E V P e X X *.*.*.*.",
"*.o   & P V F X.} W W { ....( L A V m v l v M A K S P E P H H H A V m A Z *     *.*.*.",
"*.  o e A J #.&.X.J J P E K S H H H H H H K H H H Z C M m b m m m m m n Z 4     *.*.*.",
"o   @ A C @.&.&.@.J J L G B n n n n m b m m n v n m m m m m m m m m m m m t O   *.*.*.",
"    1 V Z #.%.%.} J G G Z m m n m m m n m m m m m m m m m m m m m m m m m j +   o *.*.",
"  X 0 b V T W ! I G J J C n m m m m m m m m m m m m m m m m m m m m m m m m #     *.*.",
"    < b D L J J J F G L C m m m m m m m m m m m m m m m m m m m m m m m B y O     *.*.",
"      * 6 M L L L L J G B m m m m m n m m m m m m m m m m m m m m m b 7 * O       *.*.",
"*.      X # * $ , 0 j n m n n n n m m m m m m m n n n n v g 0 2 & # # o         *.*.*.",
"*.*.              X O O = 2 6 9 0 u s d z d d u 0 9 6 1 * O o               *.*.*.*.*.",
"*.*.*.*.*.*.*.% o           . . o o o O O o o o o o X           X # *.*.*.*.*.*.*.*.*.",
"*.*.*.*.*.*.*.*.*.*.*.*.*.*.*.*.*.*.*.*.*.*.*.*.*.*.*.*.*.*.*.*.*.*.*.*.*.*.*.*.*.*.*."
};
