/* XPM */
static char *result[] = {
/* columns rows colors chars-per-pixel */
"45 45 2 1 ",
"  c white",
". c None",
/* pixels */
".............................................",
".............................................",
".............................................",
".............................................",
".............................................",
".............................................",
".............................................",
".............................................",
"........................................   ..",
".......................................   ...",
".....  .......  ......................     ..",
"....     ....   .....................       .",
"....       ..   ....................     .  .",
".... ..          ...............        ... .",
".......           ............           ....",
".......             ........              ...",
"......               ..             ....  ...",
".....                            ............",
"....                            .............",
"...                              ............",
"... ...    ....                  ............",
"... ..   .........               ............",
"......  ...........              ............",
"...... .............            .............",
"...... .............             ............",
"...... .............            .............",
".....................          ..............",
".....................          ..............",
".................  .          ...............",
".................            ................",
"................. .           .   ...........",
"....................       .       ..........",
"....................       ..    . ..........",
"...................    .   ...   ............",
"........................  ......  ...........",
".......................  ....................",
".......................  ....................",
"......................  .....................",
"......................  .....................",
"....................   ......................",
"....................  .......................",
".............................................",
".............................................",
".............................................",
"............................................."
};
