/* XPM */
static char *result[] = {
/* columns rows colors chars-per-pixel */
"45 45 9 1 ",
"  c #120D08",
". c #20150C",
"X c #2F2217",
"o c #46301E",
"O c #734F31",
"+ c #FF1831",
"@ c #CBBFBF",
"# c #E9E9E9",
"$ c None",
/* pixels */
"$$$$$$$$$$$$$$$$$$$$$$$$$$$$$$$$$$$$$$$$$$$$$",
"$$$$$$$$$$$$$$$$$$$$$$$$$$$$$$$$$$$$$$$$$$$$$",
"$$$$$$$$$$$$$$$$$$$$$$$$$$$$$$$$$$$$$$$$$$$$$",
"$$$$$$$$$$$$$$$$$$$$$$$$$$$$$$$$$$$$$$$$$$$$$",
"$$$$$$$$$$$$$$$$$$$$$$$$$$$$$$$$$$$$$$$$$$$$$",
"$$$$$$$$$$$$$$$$$$$$$$$$$$$$$$$$$$$$$$$$$$$$$",
"$$$$$$$$$$$$$$$$$$$$$$$$$$$$$$$$$$$$$$$$$$$$$",
"$$$$$$$$$$$$$$$$$$$$$$$$$$$$$$$$$$$$$$$$$$$$$",
"$$$$$$$$$$$$$$$$$$$$$$$$$$$$$$$$$$$$$$$$$$$$$",
"$$$$$$$$$$$$$$$$$$$$$$$$$$$$$$$$$$$$$$$$$$$$$",
"$$$$$$$$$$$$$$$$$$$$$$$$$$$$$$$$$$$$$$$$$$$$$",
"$$$$$$$$$$$$$$$$$$$$$$$$$$$$$$$$$$$$$$$$$$$$$",
"$$$$$$$$$$$$$$$$$++#$$$$$$$$$$$$$$$$$$$$$$$$$",
"$$$$$$$$$$$$$$$$###+#O$$$$$$$$$$$$$$$$$$$$$$$",
"$$$$$$$$$$$$$$$#######O$$$$$$$$$$$$$$$$$$$$$$",
"$$$$$$$$$$$$$$$@######OO$$$$$$$$$$$$$$$$$$$$$",
"$$$$$$$$$$$$$$O@@#####oO$$$$$$$$$$$$$$$$$$$$$",
"$$$$$$$$$$$$$$OO@@###oooO$$$$$$$$$$$$$$$$$$$$",
"$$$$$$$$$$$$$oOOO@@@oooooOOO$$$$$$$$$$$$$$$$$",
"$$$$$$$$$$$$$OOOOOO#....oooOO$$$$$$$$$$$$$$$$",
"$$$$$$$$$$$$$ooOoo.#.....oooOOOOOOO$$$$$$$$$$",
"$$$$$$$$$$$$$oooo.....#..oooooooooo X$$$$$$$$",
"$$$$$$$$$$$$$oooooo...#..$oooooooooooX$$$$$$$",
"$$$$$$$$$$$$ooooooooooooo$$$oooOOoooO $$$$$$$",
"$$$$$$$$$$$$ooooooooooooooo$$ooooo  X$$$$$$$$",
"$$$$$$$$$$$$oooooooooooooooo$$o $$$ X$$$$$$$$",
"$$$$$$$$$$$$$ooooooooooooooo$$ X$$$ $$$$$$$$$",
"$$$$$$$$$$$$$$OooooooooooooOO$$ $$$$$$$$$$$$$",
"$$$$$$$$$$$$$$$$ooooooooooo$ $$$$$$$$$$$$$$$$",
"$$$$$$$$$$$$$$$$$Oooooooooo$$$$$$$$$$$$$$$$$$",
"$$$$$$$$$$$$$$$$$ooooooooo o$$$$$$$$$$$$$$$$$",
"$$$$$$$$$$$$$$$$$o  Xoooooo $$$$$$$$$$$$$$$$$",
"$$$$$$$$$$$$$$$$$$XX$oo$OoO $$$$$$$$$$$$$$$$$",
"$$$$$$$$$$$$$$$$$$$$$$o$$  X$$$$$$$$$$$$$$$$$",
"$$$$$$$$$$$$$$$$$$$$$$o$$$X$$$$$$$$$$$$$$$$$$",
"$$$$$$$$$$$$$$$$$$$$$$$o$$$$$$$$$$$$$$$$$$$$$",
"$$$$$$$$$$$$$$$$$$$$$$$$$$$$$$$$$$$$$$$$$$$$$",
"$$$$$$$$$$$$$$$$$$$$$$$$$$$$$$$$$$$$$$$$$$$$$",
"$$$$$$$$$$$$$$$$$$$$$$$$$$$$$$$$$$$$$$$$$$$$$",
"$$$$$$$$$$$$$$$$$$$$$$$$$$$$$$$$$$$$$$$$$$$$$",
"$$$$$$$$$$$$$$$$$$$$$$$$$$$$$$$$$$$$$$$$$$$$$",
"$$$$$$$$$$$$$$$$$$$$$$$$$$$$$$$$$$$$$$$$$$$$$",
"$$$$$$$$$$$$$$$$$$$$$$$$$$$$$$$$$$$$$$$$$$$$$",
"$$$$$$$$$$$$$$$$$$$$$$$$$$$$$$$$$$$$$$$$$$$$$",
"$$$$$$$$$$$$$$$$$$$$$$$$$$$$$$$$$$$$$$$$$$$$$"
};
