/* XPM */
static char *result[] = {
/* columns rows colors chars-per-pixel */
"45 45 9 1 ",
"  c #120D08",
". c #20150C",
"X c #2F2217",
"o c #46301E",
"O c #734F31",
"+ c #FF1831",
"@ c #CBBFBF",
"# c #E9E9E9",
"$ c None",
/* pixels */
"$$$$$$$$$$$$$$$$$$$$$$$$$$$$$$$$$$$$$$$$$$$$$",
"$$$$$$$$$$$$$$$$$$$$$$$$$$$$$$$$$$$$$$$$$$$$$",
"$$$$$$$$$$$$$$$$$$$$$$$$$$$$$$$$$$$$$$$$$$$$$",
"$$$$$$$$$$$$$$$$$$$$$$$$$$$$$$$$$$$$$$$$$$$$$",
"$$$$$$$$$$$$$$$$$$$$$$$$$$$$$$$$$$$$$$$$$$$$$",
"$$$$$$$$$$$$$$$$$$$$$$$$$$$$$$$$$$$$$$$$$$$$$",
"$$$$$$$$$$$$$$$$$$$$$$$$$$$$$$$$$$$$$$$$$$$$$",
"$$$$$$$$$$$$$$$$$$$$$$$$$$$$$$$$$$$$$$$$$$$$$",
"$$$$$$$$$$$$$$$$$$$$$$$$$$$$$$$$$$$$$$$$$$$$$",
"$$$$$$$$$$$$$$$$$$$$$$$$$$$$$$$$$$$$$$$$$$$$$",
"$$$$$$$$$$$$$$$$$$$$$$$$$$$$$$$$$$$$$$$$$$$$$",
"$$$$$$$$$$$$$$$$$$$$$$$$$$$$$$$$$$$$$$$$$$$$$",
"$$$$$$$$$$$$$$$$$$$$###$$$$$$$$$$$$$$$$$$$$$$",
"$$$$$$$$$$$$$$$$$$$###+#O$$$$$$$$$$$$$$$$$$$$",
"$$$$$$$$$$$$$$$$$$####+##OOOOOO$$$$$$$$$$$$$$",
"$$$$$$$$$$$$$$$$$$@###+##OOoooo X$$$$$$$$$$$$",
"$$$$$$$$$$$$$$$$$O@@#####oOooooooX$$$$$$$$$$$",
"$$$$$$$$$$$$$$$$$OO@@###oooOOoooO $$$$$$$$$$$",
"$$$$$$$$$$$$$$$$oOOO@@@ooooooo  X$$$$$$$$$$$$",
"$$$$$$$$$$$$$$$$OOOOOO#....o$$$ X$$$$$$$$$$$$",
"$$$$$$$$$$$$$$$OOOOOOOO.....$$$ $$$$$$$$$$$$$",
"$$$$$$$$$$$$$$$ooooOOOOOO#..$$$$$$$$$$$$$$$$$",
"$$$$$$$$$$$$$$$ooooooooOOOO.$$$$$$$$$$$$$$$$$",
"$$$$$$$$$$$$$$ooooooooooOOO.$$$$$$$$$$$$$$$$$",
"$$$$$$$$$$$$$$oooooooooooOO$OoX$$$$$$$$$$$$$$",
"$$$$$$$$$$$$$$ooooooooOOoXXOoO X$$$$$$$$$$$$$",
"$$$$$$$$$$$$$$$OoooooooOOO ooo$ $$$$$$$$$$$$$",
"$$$$$$$$$$$$$$$$oooooooo O ooX$$$$$$$$$$$$$$$",
"$$$$$$$$$$$$$$$$  X$ooooo $$$ X$$$$$$$$$$$$$$",
"$$$$$$$$$$$$$$$$XX$$$oOoO $$$$$$$$$$$$$$$$$$$",
"$$$$$$$$$$$$$$$$$$$$$o   X$$$$$$$$$$$$$$$$$$$",
"$$$$$$$$$$$$$$$$$$$$$o$$X$$$$$$$$$$$$$$$$$$$$",
"$$$$$$$$$$$$$$$$$$$$$o$$$$$$$$$$$$$$$$$$$$$$$",
"$$$$$$$$$$$$$$$$$$$$$$$$$$$$$$$$$$$$$$$$$$$$$",
"$$$$$$$$$$$$$$$$$$$$$$$$$$$$$$$$$$$$$$$$$$$$$",
"$$$$$$$$$$$$$$$$$$$$$$$$$$$$$$$$$$$$$$$$$$$$$",
"$$$$$$$$$$$$$$$$$$$$$$$$$$$$$$$$$$$$$$$$$$$$$",
"$$$$$$$$$$$$$$$$$$$$$$$$$$$$$$$$$$$$$$$$$$$$$",
"$$$$$$$$$$$$$$$$$$$$$$$$$$$$$$$$$$$$$$$$$$$$$",
"$$$$$$$$$$$$$$$$$$$$$$$$$$$$$$$$$$$$$$$$$$$$$",
"$$$$$$$$$$$$$$$$$$$$$$$$$$$$$$$$$$$$$$$$$$$$$",
"$$$$$$$$$$$$$$$$$$$$$$$$$$$$$$$$$$$$$$$$$$$$$",
"$$$$$$$$$$$$$$$$$$$$$$$$$$$$$$$$$$$$$$$$$$$$$",
"$$$$$$$$$$$$$$$$$$$$$$$$$$$$$$$$$$$$$$$$$$$$$",
"$$$$$$$$$$$$$$$$$$$$$$$$$$$$$$$$$$$$$$$$$$$$$"
};
