/* XPM */
static char *result[] = {
/* columns rows colors chars-per-pixel */
"45 45 3 1 ",
"  c #46301E",
". c #734F31",
"X c None",
/* pixels */
"XXXXXXXXXXXXXXXXXXXXXXXXXXXXXXXXXXXXXXXXXXXXX",
"XXXXXXXXXXXXXXXXXXXXXXXXXXXXXXXXXXXXXXXXXXXXX",
"XXXXXXXXXXXXXXXXXXXXXXXXXXXXXXXXXXXXXXXXXXXXX",
"XXXXXXXXXXXXXXXXXXXXXXXXXXXXXXXXXXXXXXXXXXXXX",
"XXXXXXXXXXXXXXXXXXXXXXXXXXXXXXXXXXXXXXXXXXXXX",
"XXXXXXXXXXXXXXXXXXXXXXXXXXXXXXXXXXXXXXXXXXXXX",
"XXXXXXXXXXXXXXXXXXXXXXXXXXXXXXXXXXXXXXXXXXXXX",
"XXXXXXXXXXXXXXXXXXXXXXXXXXXXXXXXXXXXXXXXXXXXX",
"XXXXXXXXXXXXXXXXXXXXXXXXXXXXXXXXXXXXXXXXXXXXX",
"XXXXXXXXXXXXXXXXXXXXXXXXXXXXXXXXXXXXXXXXXXXXX",
"XXXXXXXXXXXXXXXXXXXXXXXXXXXXXXXXXXXXXXXXXXXXX",
"XXXXXXXXXXXXXXXXXXXXXXXXXXXXXXXXXXXXXXXXXXXXX",
"XXXXXXXXXXXXXXXXXXXXXXXXXXXXXXXXXXXXXXXXXXXXX",
"XXXXXXXXXXXXXXXXXXXXXXX.....XXXXXXXXXXXXXXXXX",
"XXXXXXXXXXXXXXXXXXXX..........XXXXXXXXXXXXXXX",
"XXXXXXXXXXXXXXXXXX.....       .XXXXXXXXXXXXXX",
"XXXXXXXXXXXXXXXXX....           XXXXXXXXXXXXX",
"XXXXXXXXXXXXXXXX....XXXX        XXXXXXXXXXXXX",
"XXXXXXXXXXXXXXXX..XXXXXX        XXXXXXXXXXXXX",
"XXXXXXXXXXXXXXXX.XXXXXXXX       XXXXXXXXXXXXX",
"XXXXXXXXXXXXXXXXXXXXXXXXXX..... XXXXXXXXXXXXX",
"XXXXXXXXXXXXXXXX XXXXXXXXX......XXXXXXXXXXXXX",
"XXXXXXXXXXXXXXXX  XXXXXXX.......XXXXXXXXXXXXX",
"XXXXXXXXXXXXXXXXX XXXXXX........XXXXXXXXXXXXX",
"XXXXXXXXXXXXXXXXX  XXXXX........XXXXXXXXXXXXX",
"XXXXXXXXXXXXXXXXXX  XXX........XXXXXXXXXXXXXX",
"XXXXXXXXXXXXXXXXXX    ........XXXXXXXXXXXXXXX",
"XXXXXXXXXXXXXXXXXXX..........XXXXXXXXXXXXXXXX",
"XXXXXXXXXXXXXXXXXXXX.......XXXXXXXXXXXXXXXXXX",
"XXXXXXXXXXXXXXXXXXXXXXXXXXXXXXXXXXXXXXXXXXXXX",
"XXXXXXXXXXXXXXXXXXXXXXXXXXXXXXXXXXXXXXXXXXXXX",
"XXXXXXXXXXXXXXXXXXXXXXXXXXXXXXXXXXXXXXXXXXXXX",
"XXXXXXXXXXXXXXXXXXXXXXXXXXXXXXXXXXXXXXXXXXXXX",
"XXXXXXXXXXXXXXXXXXXXXXXXXXXXXXXXXXXXXXXXXXXXX",
"XXXXXXXXXXXXXXXXXXXXXXXXXXXXXXXXXXXXXXXXXXXXX",
"XXXXXXXXXXXXXXXXXXXXXXXXXXXXXXXXXXXXXXXXXXXXX",
"XXXXXXXXXXXXXXXXXXXXXXXXXXXXXXXXXXXXXXXXXXXXX",
"XXXXXXXXXXXXXXXXXXXXXXXXXXXXXXXXXXXXXXXXXXXXX",
"XXXXXXXXXXXXXXXXXXXXXXXXXXXXXXXXXXXXXXXXXXXXX",
"XXXXXXXXXXXXXXXXXXXXXXXXXXXXXXXXXXXXXXXXXXXXX",
"XXXXXXXXXXXXXXXXXXXXXXXXXXXXXXXXXXXXXXXXXXXXX",
"XXXXXXXXXXXXXXXXXXXXXXXXXXXXXXXXXXXXXXXXXXXXX",
"XXXXXXXXXXXXXXXXXXXXXXXXXXXXXXXXXXXXXXXXXXXXX",
"XXXXXXXXXXXXXXXXXXXXXXXXXXXXXXXXXXXXXXXXXXXXX",
"XXXXXXXXXXXXXXXXXXXXXXXXXXXXXXXXXXXXXXXXXXXXX"
};
