/* XPM */
static char *result[] = {
/* columns rows colors chars-per-pixel */
"45 45 3 1 ",
"  c #46301E",
". c #734F31",
"X c None",
/* pixels */
"XXXXXXXXXXXXXXXXXXXXXXXXXXXXXXXXXXXXXXXXXXXXX",
"XXXXXXXXXXXXXXXXXXXXXXXXXXXXXXXXXXXXXXXXXXXXX",
"XXXXXXXXXXXXXXXXXXXXXXXXXXXXXXXXXXXXXXXXXXXXX",
"XXXXXXXXXXXXXXXXXXXXXXXXXXXXXXXXXXXXXXXXXXXXX",
"XXXXXXXXXXXXXXXXXXXXXXXXXXXXXXXXXXXXXXXXXXXXX",
"XXXXXXXXXXXXXXXXXXXXXXXXXXXXXXXXXXXXXXXXXXXXX",
"XXXXXXXXXXXXXXXXXXXXXXXXXXXXXXXXXXXXXXXXXXXXX",
"XXXXXXXXXXXXXXXXXXXXXXXXXXXXXXXXXXXXXXXXXXXXX",
"XXXXXXXXXXXXXXXXXXXXXXXXXXXXXXXXXXXXXXXXXXXXX",
"XXXXXXXXXXXXXXXXXXXXXXXXXXXXXXXXXXXXXXXXXXXXX",
"XXXXXXXXXXXXXXXXXXXXXXXXXXXXXXXXXXXXXXXXXXXXX",
"XXXXXXXXXXXXXXXXXXXXXXXXXXXXXXXXXXXXXXXXXXXXX",
"XXXXXXXXXXXXXXXXXXXXXXXXXXXXXXXXXXXXXXXXXXXXX",
"XXXXXXXXXXXXXXXXXXXXXXXXXXXXXXXXXXXXXXXXXXXXX",
"XXXXXXXXXXXXXXXXXXXXXX......XXXXXXXXXXXXXXXXX",
"XXXXXXXXXXXXXXXXXXXX.......  XXXXXXXXXXXXXXXX",
"XXXXXXXXXXXXXXXXXXX........   XXXXXXXXXXXXXXX",
"XXXXXXXXXXXXXX  XX........    XXXXXXXXXXXXXXX",
"XXXXXXXXXXXXXXX  ........     XXXXXXXXXXXXXXX",
"XXXXXXXXXXXXXXXX .......      XXXXXXXXXXXXXXX",
"XXXXXXXXXXXXXXXX........      XXXXXXXXXXXXXXX",
"XXXXXXXXXXXXXXX.......XXX   XXXXXXXXXXXXXXXXX",
"XXXXXXXXXXXXXXX.......  XXXXXXXXXXXXXXXXXXXXX",
"XXXXXXXXXXXXXXX......    XXXXXXXXXXXXXXXXXXXX",
"XXXXXXXXXXXXXXX.....      X...XXXXXXXXXXXXXXX",
"XXXXXXXXXXXXXX.....X       ...XXXXXXXXXXXXXXX",
"XXXXXXXXXXXXXX...XXXX     ....XXXXXXXXXXXXXXX",
"XXXXXXXXXXXXXX..XXXXXX.  .....XXXXXXXXXXXXXXX",
"XXXXXXXXXXXXXX.XXXXXXXX.......XXXXXXXXXXXXXXX",
"XXXXXXXXXXXXXXXXXXXXXXXX.....XXXXXXXXXXXXXXXX",
"XXXXXXXXXXXXXXXXXXXXXXXXXXXXXXXXXXXXXXXXXXXXX",
"XXXXXXXXXXXXXXXXXXXXXXXXXXXXXXXXXXXXXXXXXXXXX",
"XXXXXXXXXXXXXXXXXXXXXXXXXXXXXXXXXXXXXXXXXXXXX",
"XXXXXXXXXXXXXXXXXXXXXXXXXXXXXXXXXXXXXXXXXXXXX",
"XXXXXXXXXXXXXXXXXXXXXXXXXXXXXXXXXXXXXXXXXXXXX",
"XXXXXXXXXXXXXXXXXXXXXXXXXXXXXXXXXXXXXXXXXXXXX",
"XXXXXXXXXXXXXXXXXXXXXXXXXXXXXXXXXXXXXXXXXXXXX",
"XXXXXXXXXXXXXXXXXXXXXXXXXXXXXXXXXXXXXXXXXXXXX",
"XXXXXXXXXXXXXXXXXXXXXXXXXXXXXXXXXXXXXXXXXXXXX",
"XXXXXXXXXXXXXXXXXXXXXXXXXXXXXXXXXXXXXXXXXXXXX",
"XXXXXXXXXXXXXXXXXXXXXXXXXXXXXXXXXXXXXXXXXXXXX",
"XXXXXXXXXXXXXXXXXXXXXXXXXXXXXXXXXXXXXXXXXXXXX",
"XXXXXXXXXXXXXXXXXXXXXXXXXXXXXXXXXXXXXXXXXXXXX",
"XXXXXXXXXXXXXXXXXXXXXXXXXXXXXXXXXXXXXXXXXXXXX",
"XXXXXXXXXXXXXXXXXXXXXXXXXXXXXXXXXXXXXXXXXXXXX"
};
