/* XPM */
static char *result[] = {
/* columns rows colors chars-per-pixel */
"45 45 4 1 ",
"  c #281B10",
". c #46301E",
"X c #734F31",
"o c None",
/* pixels */
"ooooooooooooooooooooooooooooooooooooooooooooo",
"ooooooooooooooooooooooooooooooooooooooooooooo",
"ooooooooooooooooooooooooooooooooooooooooooooo",
"ooooooooooooooooooooooooooooooooooooooooooooo",
"ooooooooooooooooooooooooooooooooooooooooooooo",
"ooooooooooooooooooooooooooooooooooooooooooooo",
"ooooooooooooooooooooooooooooooooooooooooooooo",
"ooooooooooooooooooooooooooooooooooooooooooooo",
"ooooooooooooooooooooooooooooooooooooooooooooo",
"ooooooooooooooooooooooooooooooooooooooooooooo",
"ooooooooooooooooooooooooooooooooooooooooooooo",
"ooooooooooooooooooooooooooooooooooooooooooooo",
"ooooooooooooooooooooooo ooooooooooooooooooooo",
"ooooooooooooooooo oooo  ooooooooooooooooooooo",
"ooooooooooooooooo  ooo   oooooooooooooooooooo",
"ooooooooooooooooo    o   XXXo ooooooooooooooo",
"ooooooooooooooooo         XX  ooooooooooooooo",
"ooooooooooooooooo         .    oooooooooooooo",
"oooooooooooooooooX                ooooooooooo",
"ooooooooooooooooXX               oooooooooooo",
"ooooooooooooo                   ooooooooooooo",
"oooooooooooooo                ..ooooooooooooo",
"ooooooooooooooo                  oooooooooooo",
"oooooooooooooooo.                 ooooooooooo",
"oooooooooooooooo.             XXooooooooooooo",
"ooooooooooooooooo            XXXooooooooooooo",
"oooooooooooooo               XXXooooooooooooo",
"ooooooooooooo                 Xoooooooooooooo",
"oooooooooooooooo         XX   ooooooooooooooo",
"ooooooooooooooo         XXXX  ooooooooooooooo",
"ooooooooooooooo  oooXX  XXXoooooooooooooooooo",
"ooooooooooooooooooooooooooooooooooooooooooooo",
"ooooooooooooooooooooooooooooooooooooooooooooo",
"ooooooooooooooooooooooooooooooooooooooooooooo",
"ooooooooooooooooooooooooooooooooooooooooooooo",
"ooooooooooooooooooooooooooooooooooooooooooooo",
"ooooooooooooooooooooooooooooooooooooooooooooo",
"ooooooooooooooooooooooooooooooooooooooooooooo",
"ooooooooooooooooooooooooooooooooooooooooooooo",
"ooooooooooooooooooooooooooooooooooooooooooooo",
"ooooooooooooooooooooooooooooooooooooooooooooo",
"ooooooooooooooooooooooooooooooooooooooooooooo",
"ooooooooooooooooooooooooooooooooooooooooooooo",
"ooooooooooooooooooooooooooooooooooooooooooooo",
"ooooooooooooooooooooooooooooooooooooooooooooo"
};
