/* XPM */
static char *result[] = {
/* columns rows colors chars-per-pixel */
"45 45 4 1 ",
"  c #281B10",
". c #46301E",
"X c #734F31",
"o c None",
/* pixels */
"ooooooooooooooooooooooooooooooooooooooooooooo",
"ooooooooooooooooooooooooooooooooooooooooooooo",
"ooooooooooooooooooooooooooooooooooooooooooooo",
"ooooooooooooooooooooooooooooooooooooooooooooo",
"ooooooooooooooooooooooooooooooooooooooooooooo",
"ooooooooooooooooooooooooooooooooooooooooooooo",
"ooooooooooooooooooooooooooooooooooooooooooooo",
"oooooooooooooooooooooooooooooXXoooooooooooooo",
"oooooooooooooooooooooo  ooooXXXXooooooooooooo",
"oooooooooooooo ooooooo   ooo....Xoooooooooooo",
"oooooooooooooo  oooooo   ooooo...oooooooooooo",
"oooooooooooooo    oooo    ooooo..oooooooooooo",
"oooooooooooooo    oooo    oooooo.oooooooooooo",
"oooooooooooooo   ooooo   oooooo ooooooooooooo",
"ooooooooooooXoo oooooo ooooo oo  oooooooooooo",
"ooooooooooXXX.ooooooooooooo oo    ooooooooooo",
"ooooooooooXX..oooooooooooo  oo     oooooooooo",
"oooooooooXX..ooooooooooooo ooo   oooooooooooo",
"oooooooooXX.o ooooooooooooooooooooooooooooooo",
"ooooooo.       oooo  oooooooooooooooooooooooo",
"ooooooo.o      oooo  ooooooooooooo..ooooooooo",
"oooooooooo     ooooo oooooooooo     ooooooooo",
"ooooooooooooooo.oooo   oooooooo      oooooooo",
"ooooooooooooooooooooo  oooooooo   Xoooooooooo",
"oooooooooooooooooo oooooooooooooooooooooooooo",
"oooooooooooooooo   ooooo oooooooooooooooooooo",
"oooooooooooooo     ooo oo ooo ooooooooooooooo",
"ooooooooooooo       oo ooooo  Xoooooooooooooo",
"ooooooooooo            ooo     oooooooooooooo",
"ooooooooooo        oX  ooooo   oooooooooooooo",
"oooooooooooo       XXX.oooooo ooooooooooooooo",
"ooooooooooooo    ooXXX...oooooooooooooooooooo",
"oooooooooooooooooooXXXXX..ooooooooooooooooooo",
"oooooooooooooooooooXXXXXXoooooooooooooooooooo",
"oooooooooooooooooooooXXXooooooooooooooooooooo",
"ooooooooooooooooooooooooooooooooooooooooooooo",
"ooooooooooooooooooooooooooooooooooooooooooooo",
"ooooooooooooooooooooooooooooooooooooooooooooo",
"ooooooooooooooooooooooooooooooooooooooooooooo",
"ooooooooooooooooooooooooooooooooooooooooooooo",
"ooooooooooooooooooooooooooooooooooooooooooooo",
"ooooooooooooooooooooooooooooooooooooooooooooo",
"ooooooooooooooooooooooooooooooooooooooooooooo",
"ooooooooooooooooooooooooooooooooooooooooooooo",
"ooooooooooooooooooooooooooooooooooooooooooooo"
};
