/* XPM */
static char *result[] = {
/* columns rows colors chars-per-pixel */
"45 45 4 1 ",
"  c #281B10",
". c #46301E",
"X c #734F31",
"o c None",
/* pixels */
"ooooooooooooooooooooooooooooooooooooooooooooo",
"ooooooooooooooooooooooooooooooooooooooooooooo",
"ooooooooooooooooooooooooooooooooooooooooooooo",
"ooooooooooooooooooooooooooooooooooooooooooooo",
"ooooooooooooooooooooooo  oooooooooooooooooooo",
"ooooooooooooooooooooooo   ooooooXXooooooooooo",
"ooooooooooooooooooooooo   ooooooXXXoooooooooo",
"oooooooooooo oooooooooo  oooooooo..Xooooooooo",
"oooooooooooo  oooooooooooooooooooo..ooooooooo",
"oooooooooooo   oooooooooooooooooooo.ooooooooo",
"oooooooooooo  oooooooooooooooo  ooooooooooooo",
"oooooooooooo oooooooooooooooooo ooooooooooooo",
"oooooooooooooooo   oooooooooooooooooooooooooo",
"ooooooooooooooo   oooooooooooooooooo oooooooo",
"ooooooooooooooo   ooooooo  oooooo oo  ooooooo",
"ooooooooooooooo ooooooooo   oooo ooo   oooooo",
"oooooooXXoooooooooooooooo o  ooo oooo   ooooo",
"oooooooXXoooooooooooooooooo  oooooooo ooooooo",
"ooooooXX.oooooooooooooooooooooooooooooooooooo",
"ooooooXX.oooooooooooooooooooooooooooooooooooo",
"oooo.    oooooooooooooooooooooooooooooooooooo",
"oooo.o    ooooooooooooooooooooooooooooooooooo",
"ooooooo   ooooooo ooooooooooooooooooooooooooo",
"oooooooooooooooooooooooooooooooooooooo..ooooo",
"ooooooooooooooooooooooooooooooooooooo   ooooo",
"ooooooooooooooooooooooooooooo  ooooo     oooo",
"ooooooooooooooooo ooooooooooo  ooooo  Xoooooo",
"ooooooooooooooooo  oooooooooo  oooooooooooooo",
"ooooooooooooooooo   ooooooooooooooooooooooooo",
"oooooooooooooooooo   oooooooooooooooooooooooo",
"ooooooooooooooooooooooooooooooooooooooooooooo",
"ooooooooooooooooooooooooooooooo Xoooooooooooo",
"oooooooooo  oooooooooooooooooo   oooooooooooo",
"ooooooooo    ooooooooooooooooo   oooooooooooo",
"ooooooo       ooooooooooooooooo ooooooooooooo",
"ooooooo       oooooXXoooooooooooooooooooooooo",
"oooooooo      oooooXXXooooooooooooooooooooooo",
"ooooooooo    ooooooXXXXXooooooooooooooooooooo",
"oooooooooooooooooooXXXXXXoooooooooooooooooooo",
"oooooooooooooooooooooXXXooooooooooooooooooooo",
"ooooooooooooooooooooooooooooooooooooooooooooo",
"ooooooooooooooooooooooooooooooooooooooooooooo",
"ooooooooooooooooooooooooooooooooooooooooooooo",
"ooooooooooooooooooooooooooooooooooooooooooooo",
"ooooooooooooooooooooooooooooooooooooooooooooo"
};
