/* XPM */
static char *result[] = {
/* columns rows colors chars-per-pixel */
"45 45 4 1 ",
"  c #281B10",
". c #46301E",
"X c #734F31",
"o c None",
/* pixels */
"ooooooooooooooooooooooo  oooooooooooooooooooo",
"ooooooooooooooooooooooo   oooooooXXXooooooooo",
"ooooooooooooooooooooooo ooooooooooooXoooooooo",
"ooooooooooooooooooooooooooooooooooooooooooooo",
"oooooooooo ooooooooooooooooooooooooooXooooooo",
"oooooooooo  ooooooooooooooooooooooooooooooooo",
"oooooooooo oooooooooooooooooooooooooooooooooo",
"oooooooooooooooooooooooooooooooo oooooooooooo",
"ooooooooooooooooooooooooooooooooooooooooooooo",
"ooooooooooooooooooooooooooooooooooooooooooooo",
"oooooooooooooo    ooooooooooooooooooooooooooo",
"ooooooooooooooo  ooooooooooooooooooooo oooooo",
"ooooooooooooooooooooooooo  oooooooooooo ooooo",
"ooooooooooooooooooooooooooooooooooooooooo ooo",
"oooooooooooooooooooooooooooooooooooooooooo oo",
"oooooooooooooooooooooooooooooooooooooooooo oo",
"ooooooooooooooooooooooooooooooooooooooooooooo",
"ooXoooooooooooooooooooooooooooooooooooooooooo",
"ooXoooooooooooooooooooooooooooooooooooooooooo",
"o  oooooooooooooooooooooooooooooooooooooooooo",
"oo ooo oooooooooooooooooooooooooooooooooooooo",
"oo  ooooooooooooooooooooooooooooooooooooooooo",
"oooo oooooooooo  oooooooooooooooooooooooooooo",
"ooooooooooooooooooooooooooooooooooooooooo..oo",
"ooooooooooooooooooooooooooooooooooooooooo  oo",
"ooooooooooooooooooooooooooooooooooooooooo   o",
"ooooooooooooooo  ooooooooooooooooooooooooXooo",
"ooooooooooooooo   ooooooooooooo ooooooooooooo",
"ooooooooooooooo   oooooooooooo  ooooooooooooo",
"ooooooooooooooo    oooooooooooooooooooooooooo",
"ooooooooooooooooo   ooooooooooooooooooooooooo",
"ooooooooooooooooooooooooooooooooooooooooooooo",
"ooooooooooooooooooooooooooooooooooooooooooooo",
"ooooooooooooooooooooooooooooooooo ooooooooooo",
"ooooooooooooooooooooooooooooooooo ooooooooooo",
"ooooooooooooooooooooooooooooooo   ooooooooooo",
"oooo  oooooooooooooooooooooooooo oooooooooooo",
"oooo  ooooooooooooooooooooooooooooooooooooooo",
"ooooo  oooooooooooooooooooooooooooooooooooooo",
"oooooo oooooooooooXXXoooooooooooooooooooooooo",
"oooooo oooooooooooXXXXooooooooooooooooooooooo",
"ooooooooooooooooooXXXXooooooooooooooooooooooo",
"ooooooooooooooooooooXXooooooooooooooooooooooo",
"ooooooooooooooooooooooooooooooooooooooooooooo",
"ooooooooooooooooooooooooooooooooooooooooooooo"
};
